<svg width="32" height="32" viewBox="0 0 32 32" fill="none" xmlns="http://www.w3.org/2000/svg">
<path d="M26.5655 22.4538C26.0021 22.4538 25.7204 22.1516 25.7204 21.5476V19.306C25.7204 18.702 26.0021 18.3998 26.5655 18.3998C27.129 18.3998 27.3995 18.6998 27.404 19.2993V21.5481C27.404 22.152 27.1245 22.4543 26.5655 22.4543V22.4538ZM26.5655 24.3616C28.4105 24.3616 29.3332 23.4233 29.3332 21.5472V14.53C29.3332 12.6583 28.4105 11.7227 26.5655 11.7227C24.7206 11.7227 23.7912 12.6583 23.7912 14.53V15.692H25.7204V14.53C25.7204 13.9304 25.9999 13.6282 26.5589 13.6238H26.5727C27.1272 13.6238 27.4044 13.926 27.4044 14.53V16.9204C27.0229 16.6343 26.525 16.4912 25.9116 16.4912C24.4982 16.4957 23.7917 17.4339 23.7917 19.3056V21.5472C23.7917 23.4188 24.7166 24.3567 26.566 24.3616H26.5655ZM19.517 22.4538C18.958 22.4538 18.6785 22.1516 18.6785 21.5476V14.5366C18.6785 13.9327 18.9602 13.6305 19.5237 13.6305C20.0871 13.6305 20.3577 13.9304 20.3621 14.53V21.5472C20.3621 22.1512 20.0804 22.4534 19.517 22.4534V22.4538ZM19.517 24.3616C21.3664 24.3571 22.2913 23.4188 22.2913 21.5472V7.6001H20.3621V12.152C19.9806 11.8658 19.4827 11.7227 18.8693 11.7227C17.4559 11.7272 16.7494 12.6654 16.7494 14.5371V21.5476C16.7494 23.4237 17.672 24.362 19.517 24.362V24.3616ZM12.4822 22.4538C11.9188 22.4538 11.6371 22.1516 11.6371 21.5476V19.306C11.6371 18.702 11.9188 18.3998 12.4822 18.3998C13.0457 18.3998 13.3162 18.6998 13.3207 19.2993V21.5481C13.3207 22.152 13.0412 22.4543 12.4822 22.4543V22.4538ZM12.4822 24.3616C14.3272 24.3616 15.2499 23.4233 15.2499 21.5472V14.53C15.2499 12.6583 14.3272 11.7227 12.4822 11.7227C10.6373 11.7227 9.70793 12.6583 9.70793 14.53V15.692H11.6371V14.53C11.6371 13.9304 11.9166 13.6282 12.4756 13.6238H12.4894C13.0439 13.6238 13.3211 13.926 13.3211 14.53V16.9204C12.9396 16.6343 12.4417 16.4912 11.8283 16.4912C10.4149 16.4957 9.70838 17.4339 9.70838 19.3056V21.5472C9.70838 23.4188 10.6333 24.3567 12.4827 24.3616H12.4822ZM4.59524 24.1436V14.53C4.5997 13.9304 4.87918 13.6305 5.43369 13.6305C5.98819 13.6305 6.27882 13.9327 6.27882 14.5366V24.1431H8.208V14.5366C8.208 12.665 7.50149 11.7272 6.08804 11.7223C5.47469 11.7223 4.9768 11.8653 4.59524 12.1515V7.6001H2.6665V24.1436H4.59569H4.59524Z" fill="#02B585"/>
</svg>
