<svg width="48" height="48" viewBox="0 0 48 48" fill="none" xmlns="http://www.w3.org/2000/svg">
<rect opacity="0.6" width="48" height="48" rx="16" fill="#D8F2EB"/>
<path d="M13 28.3999H24V41.3999L13 37.3999V28.3999Z" fill="#8DE8D1"/>
<path d="M35 28.3999H24V41.3999L35 37.3999V28.3999Z" fill="#4DC9AA"/>
<path d="M13.2 25.1998L24 23.7998V28.3998L13.2 25.1998Z" fill="#48CEAD"/>
<path d="M34.8 25.1998L24 23.7998V28.3998L34.8 25.1998Z" fill="#8CEDD5"/>
<path opacity="0.6" d="M13 7.6001H35L29.4 28.4001H18.6L13 7.6001Z" fill="url(#paint0_linear_286_7079)"/>
<path d="M21.0245 10.7207C21.1004 10.582 21.2996 10.582 21.3755 10.7207L22.3033 12.4171C22.3216 12.4507 22.3492 12.4783 22.3828 12.4966L24.0792 13.4244C24.2179 13.5003 24.2179 13.6995 24.0792 13.7754L22.3828 14.7032C22.3492 14.7215 22.3216 14.7491 22.3033 14.7827L21.3755 16.4791C21.2996 16.6178 21.1004 16.6178 21.0245 16.4791L20.0967 14.7827C20.0784 14.7491 20.0508 14.7215 20.0172 14.7032L18.3208 13.7754C18.1821 13.6995 18.1821 13.5003 18.3208 13.4244L20.0172 12.4966C20.0508 12.4783 20.0784 12.4507 20.0967 12.4171L21.0245 10.7207Z" fill="#77D5BB"/>
<path d="M26.8246 17.1206C26.9005 16.9819 27.0997 16.9819 27.1756 17.1206L27.8205 18.2999C27.8389 18.3334 27.8665 18.361 27.9 18.3794L29.0793 19.0243C29.218 19.1002 29.218 19.2994 29.0793 19.3753L27.9 20.0202C27.8665 20.0386 27.8389 20.0662 27.8205 20.0997L27.1756 21.279C27.0997 21.4177 26.9005 21.4177 26.8246 21.279L26.1797 20.0997C26.1613 20.0662 26.1337 20.0386 26.1002 20.0202L24.9209 19.3753C24.7822 19.2994 24.7822 19.1002 24.9209 19.0243L26.1002 18.3794C26.1337 18.361 26.1613 18.3334 26.1797 18.2999L26.8246 17.1206Z" fill="#77D5BB"/>
<path d="M13.1999 25.2002L23.9999 28.4002L20.7999 32.4002L10.3999 28.8002L13.1999 25.2002Z" fill="#C8FEF0"/>
<path d="M34.8001 25.2002L24.0001 28.4002L27.2001 32.4002L37.6001 28.8002L34.8001 25.2002Z" fill="#A1F9E3"/>
<defs>
<linearGradient id="paint0_linear_286_7079" x1="24" y1="7.6001" x2="24" y2="28.4001" gradientUnits="userSpaceOnUse">
<stop stop-color="#64DFC0" stop-opacity="0"/>
<stop offset="0.988537" stop-color="#64DFC0"/>
</linearGradient>
</defs>
</svg>
