<svg width="100" height="100" viewBox="0 0 100 100" fill="none" xmlns="http://www.w3.org/2000/svg">
<g filter="url(#filter0_d_1234_249)">
<rect x="13.75" y="11.5" width="74" height="70" rx="6" fill="white"/>
</g>
<rect x="38.75" y="61.5" width="41" height="4" rx="1" fill="#EBEEEF"/>
<rect x="38.75" y="67.5" width="34" height="4" rx="1" fill="#EBEEEF"/>
<rect x="20.35" y="59.1" width="13.8" height="13.8" rx="2.4" stroke="#02B585" stroke-width="1.2"/>
<path d="M23.25 65.3558L26.4819 68.5L31.25 63.5" stroke="#333333" stroke-width="1.7" stroke-linecap="round" stroke-linejoin="round"/>
<rect x="38.75" y="39.5" width="41" height="4" rx="1" fill="#EBEEEF"/>
<rect x="38.75" y="46.5" width="34" height="4" rx="1" fill="#EBEEEF"/>
<rect x="20.35" y="38.1" width="13.8" height="13.8" rx="2.4" stroke="#02B585" stroke-width="1.2"/>
<path d="M23.25 44.3558L26.4819 47.5L31.25 42.5" stroke="#333333" stroke-width="1.7" stroke-linecap="round" stroke-linejoin="round"/>
<circle cx="79.25" cy="71.5" r="17" fill="#02B585"/>
<path d="M72.2788 71.461H86.2788" stroke="white" stroke-width="2" stroke-linecap="round" stroke-linejoin="round"/>
<path d="M79.2784 64.4614V78.4614" stroke="white" stroke-width="2" stroke-linecap="round" stroke-linejoin="round"/>
<path d="M23.1582 27.5977C21.3223 27.5977 20.1992 26.2842 20.1992 23.9648C20.1992 21.6455 21.3223 20.332 23.1582 20.332C24.9941 20.332 26.1221 21.6553 26.1172 23.9648C26.1221 26.2891 24.9941 27.5977 23.1582 27.5977ZM21.9082 23.9648C21.9033 25.5322 22.4062 26.2402 23.1582 26.2402C23.9102 26.2402 24.4131 25.5322 24.4082 23.9648C24.4082 22.4219 23.9102 21.6846 23.1582 21.6797C22.4111 21.6846 21.9131 22.4219 21.9082 23.9648ZM29.8477 27.5977C28.1826 27.5977 26.9814 26.7383 26.9863 25.5859C26.9814 24.707 27.6846 23.9941 28.5781 23.8574V23.8086C27.7969 23.6621 27.25 23.0225 27.25 22.2461C27.25 21.1377 28.3486 20.332 29.8477 20.332C31.3369 20.332 32.4355 21.1426 32.4355 22.2461C32.4355 23.0273 31.874 23.6621 31.1074 23.8086V23.8574C31.9863 23.9941 32.6992 24.707 32.6992 25.5859C32.6992 26.7383 31.498 27.5977 29.8477 27.5977ZM28.7344 25.4102C28.7295 25.9668 29.1836 26.3623 29.8477 26.3672C30.502 26.3623 30.9512 25.9668 30.9512 25.4102C30.9512 24.8535 30.4824 24.4434 29.8477 24.4434C29.1982 24.4434 28.7295 24.8486 28.7344 25.4102ZM28.8809 22.4219C28.876 22.9346 29.2812 23.3008 29.8477 23.3008C30.4043 23.3008 30.8096 22.9346 30.8047 22.4219C30.8096 21.9189 30.4092 21.5625 29.8477 21.5625C29.2764 21.5625 28.876 21.9189 28.8809 22.4219Z" fill="#02B585"/>
<path d="M36.8105 26.6699C36.3271 26.6699 35.9219 26.2744 35.9316 25.7812C35.9219 25.3027 36.3271 24.9121 36.8105 24.9121C37.2793 24.9121 37.6943 25.3027 37.6992 25.7812C37.6943 26.2744 37.2793 26.6699 36.8105 26.6699ZM35.9316 22.1289C35.9219 21.6504 36.3271 21.2598 36.8105 21.2598C37.2793 21.2598 37.6943 21.6504 37.6992 22.1289C37.6943 22.6221 37.2793 23.0176 36.8105 23.0176C36.3271 23.0176 35.9219 22.6221 35.9316 22.1289ZM43.9199 27.5977C42.084 27.5977 40.9609 26.2842 40.9609 23.9648C40.9609 21.6455 42.084 20.332 43.9199 20.332C45.7559 20.332 46.8838 21.6553 46.8789 23.9648C46.8838 26.2891 45.7559 27.5977 43.9199 27.5977ZM42.6699 23.9648C42.665 25.5322 43.168 26.2402 43.9199 26.2402C44.6719 26.2402 45.1748 25.5322 45.1699 23.9648C45.1699 22.4219 44.6719 21.6846 43.9199 21.6797C43.1729 21.6846 42.6748 22.4219 42.6699 23.9648ZM50.7363 27.5977C48.9004 27.5977 47.7773 26.2842 47.7773 23.9648C47.7773 21.6455 48.9004 20.332 50.7363 20.332C52.5723 20.332 53.7002 21.6553 53.6953 23.9648C53.7002 26.2891 52.5723 27.5977 50.7363 27.5977ZM49.4863 23.9648C49.4814 25.5322 49.9844 26.2402 50.7363 26.2402C51.4883 26.2402 51.9912 25.5322 51.9863 23.9648C51.9863 22.4219 51.4883 21.6846 50.7363 21.6797C49.9893 21.6846 49.4912 22.4219 49.4863 23.9648Z" fill="#333333"/>
<defs>
<filter id="filter0_d_1234_249" x="3.75" y="3.5" width="94" height="90" filterUnits="userSpaceOnUse" color-interpolation-filters="sRGB">
<feFlood flood-opacity="0" result="BackgroundImageFix"/>
<feColorMatrix in="SourceAlpha" type="matrix" values="0 0 0 0 0 0 0 0 0 0 0 0 0 0 0 0 0 0 127 0" result="hardAlpha"/>
<feOffset dy="2"/>
<feGaussianBlur stdDeviation="5"/>
<feColorMatrix type="matrix" values="0 0 0 0 0.141176 0 0 0 0 0.454902 0 0 0 0 0.368627 0 0 0 0.2 0"/>
<feBlend mode="normal" in2="BackgroundImageFix" result="effect1_dropShadow_1234_249"/>
<feBlend mode="normal" in="SourceGraphic" in2="effect1_dropShadow_1234_249" result="shape"/>
</filter>
</defs>
</svg>
