<svg width="20" height="20" viewBox="0 0 20 20" fill="none" xmlns="http://www.w3.org/2000/svg">
<path fill-rule="evenodd" clip-rule="evenodd" d="M2.22217 3.22217C2.22217 2.66988 2.66988 2.22217 3.22217 2.22217H16.7777C17.33 2.22217 17.7777 2.66988 17.7777 3.22217V16.7777C17.7777 17.33 17.33 17.7777 16.7777 17.7777H3.22217C2.66988 17.7777 2.22217 17.33 2.22217 16.7777L2.22217 3.22217ZM7.40735 8.70365C8.12328 8.70365 8.70365 8.12328 8.70365 7.40735C8.70365 6.69143 8.12328 6.11106 7.40735 6.11106C6.69143 6.11106 6.11106 6.69143 6.11106 7.40735C6.11106 8.12328 6.69143 8.70365 7.40735 8.70365ZM15.3333 15.8332H4.16661L7.32778 12.1452C7.71588 11.6924 8.41148 11.6778 8.81827 12.1139L9.99995 13.3806L13.0917 9.67729C13.5061 9.18086 14.2757 9.20243 14.6616 9.72128L15.6356 11.0305C15.764 11.203 15.8333 11.4123 15.8333 11.6274V15.3332C15.8333 15.6094 15.6094 15.8332 15.3333 15.8332Z" fill="#999999"/>
</svg>
