<svg width="20" height="20" viewBox="0 0 20 20" fill="none" xmlns="http://www.w3.org/2000/svg">
<path fill-rule="evenodd" clip-rule="evenodd" d="M10 18C14.4183 18 18 14.4183 18 10C18 5.58172 14.4183 2 10 2C5.58172 2 2 5.58172 2 10C2 14.4183 5.58172 18 10 18ZM9 6.2C9 6.08954 9.08954 6 9.2 6H10.8C10.9105 6 11 6.08954 11 6.2V10.8C11 10.9105 10.9105 11 10.8 11H9.2C9.08954 11 9 10.9105 9 10.8V6.2ZM11 13C11 13.5523 10.5523 14 10 14C9.44772 14 9 13.5523 9 13C9 12.4477 9.44772 12 10 12C10.5523 12 11 12.4477 11 13Z" fill="#333333"/>
</svg>
