<svg width="32" height="32" viewBox="0 0 32 32" fill="none" xmlns="http://www.w3.org/2000/svg">
<path d="M20 16H27.3333C27.7015 16 28 16.2985 28 16.6667V27.3333C28 27.7015 27.7015 28 27.3333 28H20V16Z" fill="#B0E0D4"/>
<path fill-rule="evenodd" clip-rule="evenodd" d="M19.333 4C19.7012 4 20 4.2988 20 4.66699V28H4.66699C4.2988 28 4 27.7012 4 27.333V4.66699C4 4.2988 4.2988 4 4.66699 4H19.333ZM8.59961 13C8.45239 13 8.33304 13.1194 8.33301 13.2666V15.167C8.33318 15.443 8.55697 15.667 8.83301 15.667H10.7334C10.8804 15.6668 10.9998 15.5474 11 15.4004V13.5C11 13.224 10.776 13.0002 10.5 13H8.59961ZM13.2666 13C13.1194 13 13 13.1194 13 13.2666V15.167C13.0002 15.443 13.224 15.667 13.5 15.667H15.3994C15.5466 15.667 15.6658 15.5475 15.666 15.4004V13.5C15.666 13.2239 15.4422 13 15.166 13H13.2666ZM8.59961 8.33301C8.45236 8.33304 8.33301 8.45333 8.33301 8.60059V10.5C8.33301 10.7761 8.55687 11 8.83301 11H10.7334C10.8805 10.9998 11 10.8805 11 10.7334V8.83398C11 8.55795 10.776 8.33318 10.5 8.33301H8.59961ZM13.2666 8.33301C13.1193 8.33301 13 8.45331 13 8.60059V10.5C13 10.7761 13.2239 11 13.5 11H15.3994C15.5467 11 15.666 10.8807 15.666 10.7334V8.83398C15.666 8.55784 15.4422 8.33301 15.166 8.33301H13.2666Z" fill="#02B585"/>
</svg>
