<svg width="24" height="24" viewBox="0 0 24 24" fill="none" xmlns="http://www.w3.org/2000/svg">
<path fill-rule="evenodd" clip-rule="evenodd" d="M8.21133 20.5981C9.36613 21.2648 10.8344 21.0144 11.931 20.0889C12.2153 19.8489 12.1733 19.4214 11.8863 19.2557L7.5364 16.7443C7.24938 16.5786 6.85815 16.756 6.79251 17.1222C6.53937 18.5347 7.05667 19.9314 8.21133 20.5981Z" fill="#8092AA"/>
<path fill-rule="evenodd" clip-rule="evenodd" d="M14.559 3.0937C15.1452 2.86047 15.6968 3.10428 16.0499 3.30811C16.403 3.51197 16.8898 3.86777 16.981 4.49187C17.025 4.79314 16.9561 5.04478 16.8909 5.21026C16.8609 5.28633 16.8254 5.35873 16.7933 5.41926C18.5167 7.15208 19.1426 9.76913 17.9059 11.9111L17.0506 13.3926C16.6171 14.1434 16.5617 15.1038 16.9739 16.0513L16.9764 16.057L16.9764 16.0571C17.2233 16.6345 17.2215 17.3041 16.89 17.8784C16.2571 18.9746 14.8763 19.1105 13.9241 18.5608L3.90356 12.7754C2.95141 12.2257 2.37888 10.9619 3.01172 9.86578C3.34132 9.2949 3.91808 8.95568 4.53791 8.88126L4.54404 8.88053L4.54404 8.88054C5.57982 8.76267 6.38325 8.23367 6.81618 7.48381L7.67153 6.0023C8.9082 3.86033 11.4871 3.09341 13.85 3.71986C13.8863 3.66183 13.9312 3.59498 13.9821 3.53104C14.0927 3.39187 14.2761 3.20627 14.559 3.0937ZM14.4521 6.07587L13.9167 5.85063C12.0672 5.07261 10.1771 5.66257 9.40358 7.0023L8.54823 8.48381C7.76756 9.83599 6.37351 10.684 4.77456 10.8672C4.76617 10.8683 4.7592 10.8697 4.7535 10.8712C4.7543 10.874 4.75527 10.8771 4.75643 10.8806C4.77152 10.9248 4.81484 10.9921 4.90356 11.0433L14.9241 16.8287C15.0129 16.88 15.0929 16.8839 15.1388 16.8748C15.1421 16.8741 15.1451 16.8735 15.1477 16.8728C15.1458 16.8654 15.1428 16.8562 15.1382 16.8452C14.5 15.3752 14.5383 13.744 15.3185 12.3926L16.1739 10.9111C16.9473 9.57151 16.5127 7.6392 14.9147 6.42682L14.4521 6.07587ZM15.17 16.8642C15.1701 16.8642 15.1694 16.8649 15.1676 16.8658C15.169 16.8646 15.1699 16.8641 15.17 16.8642ZM4.75003 10.8482C4.75013 10.8483 4.75016 10.8493 4.74979 10.8511C4.74974 10.8491 4.74993 10.8482 4.75003 10.8482Z" fill="#8092AA"/>
</svg>
