<svg width="20" height="20" viewBox="0 0 20 20" fill="none" xmlns="http://www.w3.org/2000/svg">
<path fill-rule="evenodd" clip-rule="evenodd" d="M16.2442 4.85647C16.1712 3.95711 15.4182 3.25 14.5 3.25H8.5L8.35647 3.2558C7.45711 3.32881 6.75 4.08183 6.75 5V5.75H8.25V5L8.2566 4.94268C8.28251 4.83223 8.38165 4.75 8.5 4.75H14.5L14.5573 4.7566C14.6678 4.78251 14.75 4.88165 14.75 5V12L14.7434 12.0573C14.7175 12.1678 14.6183 12.25 14.5 12.25H14.25V13.75H14.5L14.6435 13.7442C15.5429 13.6712 16.25 12.9182 16.25 12V5L16.2442 4.85647ZM11.75 6.25C12.6682 6.25 13.4212 6.95711 13.4942 7.85647L13.5 8V15C13.5 15.9182 12.7929 16.6712 11.8935 16.7442L11.75 16.75H5.75C4.83183 16.75 4.07881 16.0429 4.0058 15.1435L4 15V8C4 7.08183 4.70711 6.32881 5.60647 6.2558L5.75 6.25H11.75ZM11.75 7.75H5.75C5.63165 7.75 5.53251 7.83223 5.5066 7.94268L5.5 8V15C5.5 15.1183 5.58223 15.2175 5.69268 15.2434L5.75 15.25H11.75C11.8683 15.25 11.9675 15.1678 11.9934 15.0573L12 15V8C12 7.88165 11.9178 7.78251 11.8073 7.7566L11.75 7.75Z" fill="#999999"/>
</svg>
