<svg width="20" height="20" viewBox="0 0 20 20" fill="none" xmlns="http://www.w3.org/2000/svg">
<path fill-rule="evenodd" clip-rule="evenodd" d="M4.6129 3.2097L4.70711 3.29289L10 8.585L15.2929 3.29289C15.6834 2.90237 16.3166 2.90237 16.7071 3.29289C17.0676 3.65338 17.0953 4.22061 16.7903 4.6129L16.7071 4.70711L11.415 10L16.7071 15.2929C17.0976 15.6834 17.0976 16.3166 16.7071 16.7071C16.3466 17.0676 15.7794 17.0953 15.3871 16.7903L15.2929 16.7071L10 11.415L4.70711 16.7071C4.31658 17.0976 3.68342 17.0976 3.29289 16.7071C2.93241 16.3466 2.90468 15.7794 3.2097 15.3871L3.29289 15.2929L8.585 10L3.29289 4.70711C2.90237 4.31658 2.90237 3.68342 3.29289 3.29289C3.62334 2.96245 4.12751 2.91161 4.5114 3.14038L4.6129 3.2097Z" fill="#555555"/>
</svg>
