<svg width="20" height="20" viewBox="0 0 20 20" fill="none" xmlns="http://www.w3.org/2000/svg">
<circle cx="10" cy="10" r="8" fill="#CCCCCC"/>
<path fill-rule="evenodd" clip-rule="evenodd" d="M6.14159 7.34159C6.06348 7.26348 6.06348 7.13685 6.14159 7.05874L7.05874 6.14159C7.13685 6.06348 7.26348 6.06348 7.34159 6.14159L10.006 8.80601L12.6704 6.14159C12.7485 6.06348 12.8752 6.06348 12.9533 6.14159L13.8704 7.05874C13.9485 7.13685 13.9485 7.26348 13.8704 7.34159L11.206 10.006L13.8587 12.6587C13.9368 12.7368 13.9368 12.8635 13.8587 12.9416L12.9416 13.8587C12.8635 13.9368 12.7368 13.9368 12.6587 13.8587L10.006 11.206L7.35328 13.8587C7.27517 13.9368 7.14854 13.9368 7.07044 13.8587L6.15328 12.9416C6.07517 12.8635 6.07517 12.7368 6.15328 12.6587L8.80601 10.006L6.14159 7.34159Z" fill="white"/>
</svg>
