<svg width="24" height="24" viewBox="0 0 24 24" fill="none" xmlns="http://www.w3.org/2000/svg">
<path fill-rule="evenodd" clip-rule="evenodd" d="M12 2C15.1653 2 17.9851 3.4723 19.8174 5.76758L21.293 4.29297C21.6835 3.90244 22.3165 3.90244 22.707 4.29297C23.0975 4.6835 23.0975 5.31653 22.707 5.70703L20.9238 7.48926C21.6104 8.84484 22 10.3765 22 12C22 17.5228 17.5228 22 12 22C6.47715 22 2 17.5228 2 12C2 6.47715 6.47715 2 12 2ZM12 4C7.58172 4 4 7.58172 4 12C4 16.4183 7.58172 20 12 20C16.4183 20 20 16.4183 20 12C20 10.938 19.7908 9.92526 19.415 8.99805L12.707 15.707C12.3165 16.0975 11.6835 16.0975 11.293 15.707L7.29297 11.707C6.90244 11.3165 6.90244 10.6835 7.29297 10.293C7.68349 9.90244 8.31651 9.90244 8.70703 10.293L12 13.5859L18.3936 7.19141C16.9336 5.25334 14.6133 4 12 4Z" fill="#999999"/>
</svg>
