<svg width="20" height="20" viewBox="0 0 20 20" fill="none" xmlns="http://www.w3.org/2000/svg">
<path fill-rule="evenodd" clip-rule="evenodd" d="M5 3C5 2.44772 5.44772 2 6 2C6.55228 2 7 2.44772 7 3V4H13V3C13 2.44772 13.4477 2 14 2C14.5523 2 15 2.44772 15 3V4C16.1046 4 17 4.89543 17 6V15C17 16.1046 16.1046 17 15 17H5C3.89543 17 3 16.1046 3 15V6C3 4.89543 3.89543 4 5 4V3ZM7 10C7.55228 10 8 9.55228 8 9C8 8.44772 7.55228 8 7 8C6.44772 8 6 8.44772 6 9C6 9.55228 6.44772 10 7 10ZM7 13C7.55228 13 8 12.5523 8 12C8 11.4477 7.55228 11 7 11C6.44772 11 6 11.4477 6 12C6 12.5523 6.44772 13 7 13ZM10 13C10.5523 13 11 12.5523 11 12C11 11.4477 10.5523 11 10 11C9.44772 11 9 11.4477 9 12C9 12.5523 9.44772 13 10 13ZM14 12C14 12.5523 13.5523 13 13 13C12.4477 13 12 12.5523 12 12C12 11.4477 12.4477 11 13 11C13.5523 11 14 11.4477 14 12ZM11 9C11 9.55228 10.5523 10 10 10C9.44772 10 9 9.55228 9 9C9 8.44772 9.44772 8 10 8C10.5523 8 11 8.44772 11 9ZM13 10C13.5523 10 14 9.55228 14 9C14 8.44772 13.5523 8 13 8C12.4477 8 12 8.44772 12 9C12 9.55228 12.4477 10 13 10Z" fill="#555555"/>
</svg>
