<svg width="20" height="20" viewBox="0 0 20 20" fill="none" xmlns="http://www.w3.org/2000/svg">
<path fill-rule="evenodd" clip-rule="evenodd" d="M5 2H14.75C16.4069 2 17.75 3.34315 17.75 5V14.75C17.75 16.4069 16.4069 17.75 14.75 17.75H5C3.34315 17.75 2 16.4069 2 14.75V5C2 3.34315 3.34315 2 5 2ZM1 5C1 2.79086 2.79086 1 5 1H14.75C16.9591 1 18.75 2.79086 18.75 5V14.75C18.75 16.9591 16.9591 18.75 14.75 18.75H5C2.79086 18.75 1 16.9591 1 14.75V5ZM14.6534 7.10355C14.8486 6.90829 14.8486 6.59171 14.6534 6.39645C14.4581 6.20118 14.1415 6.20118 13.9463 6.39645L8.2998 12.0429L5.65336 9.39645C5.4581 9.20118 5.14151 9.20118 4.94625 9.39645C4.75099 9.59171 4.75099 9.90829 4.94625 10.1036L7.94625 13.1036C8.14151 13.2988 8.4581 13.2988 8.65336 13.1036L14.6534 7.10355Z" fill="#555555"/>
</svg>
