<svg width="32" height="32" viewBox="0 0 32 32" fill="none" xmlns="http://www.w3.org/2000/svg">
<path d="M25.0732 28.2002C25.1571 28.6131 24.8412 28.9997 24.4198 29H20.8261V26.1113H19.3564V29H16.4189V26.1113H14.9501V29H12.0107V26.1113H10.5419V29H6.9511C6.52953 29 6.21379 28.6133 6.29778 28.2002L8.19231 18.8887H23.1786L25.0732 28.2002Z" fill="#02B585"/>
<path d="M21.2079 14.5557C21.8416 14.5559 22.3872 15.0021 22.5136 15.623L22.8847 17.4443H8.48625L8.85637 15.623C8.9828 15.0019 9.52914 14.5557 10.163 14.5557H14.2402V4.33301C14.2403 3.59684 14.837 3.0001 15.5732 3H15.7958C16.532 3.00013 17.1287 3.59686 17.1288 4.33301V14.5557H21.2079Z" fill="#02B585"/>
</svg>
