<svg width="20" height="20" viewBox="0 0 20 20" fill="none" xmlns="http://www.w3.org/2000/svg">
<path fill-rule="evenodd" clip-rule="evenodd" d="M15 2C16.6569 2 18 3.34315 18 5V15C18 16.6569 16.6569 18 15 18H5C3.34315 18 2 16.6569 2 15V5C2 3.34315 3.34315 2 5 2H15ZM5 3.5C4.17157 3.5 3.5 4.17157 3.5 5V15C3.5 15.8284 4.17157 16.5 5 16.5H15C15.8284 16.5 16.5 15.8284 16.5 15V5C16.5 4.17157 15.8284 3.5 15 3.5H5Z" fill="#333333"/>
<path d="M12.9697 7.21967C13.2626 6.92678 13.7373 6.92678 14.0302 7.21967C14.3231 7.51256 14.3231 7.98732 14.0302 8.28022L9.88373 12.4267C9.39559 12.9148 8.6043 12.9148 8.11615 12.4267L5.96967 10.2802C5.67678 9.98732 5.67678 9.51256 5.96967 9.21967C6.26256 8.92678 6.73732 8.92678 7.03022 9.21967L8.99994 11.1894L12.9697 7.21967Z" fill="#3299FE"/>
</svg>
