<svg width="20" height="20" viewBox="0 0 20 20" fill="none" xmlns="http://www.w3.org/2000/svg">
<path fill-rule="evenodd" clip-rule="evenodd" d="M3.26412 3.73553C3.06886 3.93079 3.06886 4.24737 3.26412 4.44263L8.81539 9.9939L3.28865 15.5206C3.09339 15.7159 3.09339 16.0325 3.28865 16.2277L3.76006 16.6992C3.95532 16.8944 4.2719 16.8944 4.46716 16.6992L9.9939 11.1724L15.5206 16.6992C15.7159 16.8944 16.0325 16.8944 16.2277 16.6992L16.6992 16.2277C16.8944 16.0325 16.8944 15.7159 16.6992 15.5206L11.1724 9.9939L16.7237 4.44263C16.9189 4.24737 16.9189 3.93079 16.7237 3.73553L16.2523 3.26412C16.057 3.06886 15.7404 3.06886 15.5452 3.26412L9.9939 8.81539L4.44263 3.26412C4.24737 3.06886 3.93079 3.06886 3.73553 3.26412L3.26412 3.73553Z" fill="#555555"/>
</svg>
