<svg width="20" height="20" viewBox="0 0 20 20" fill="none" xmlns="http://www.w3.org/2000/svg">
<rect x="1" y="1" width="18" height="18" rx="4" fill="#F7F9FD"/>
<path fill-rule="evenodd" clip-rule="evenodd" d="M10 8.5C11.1046 8.5 12 7.60457 12 6.5C12 5.39543 11.1046 4.5 10 4.5C8.89543 4.5 8 5.39543 8 6.5C8 7.60457 8.89543 8.5 10 8.5ZM9.16667 9.5C7.14162 9.5 5.5 11.1416 5.5 13.1667C5.5 14.1792 6.32081 15 7.33333 15H12.6667C13.6792 15 14.5 14.1792 14.5 13.1667C14.5 11.1416 12.8584 9.5 10.8333 9.5H9.16667Z" fill="#8092AA"/>
</svg>
