<svg width="20" height="20" viewBox="0 0 20 20" fill="none" xmlns="http://www.w3.org/2000/svg">
<circle cx="10" cy="10" r="8" fill="#CCCCCC"/>
<path fill-rule="evenodd" clip-rule="evenodd" d="M6.14134 7.34159C6.06324 7.26348 6.06324 7.13685 6.14134 7.05874L7.0585 6.14159C7.1366 6.06348 7.26324 6.06348 7.34134 6.14159L10.0058 8.80601L12.6702 6.14159C12.7483 6.06348 12.8749 6.06348 12.953 6.14159L13.8702 7.05874C13.9483 7.13685 13.9483 7.26348 13.8702 7.34159L11.2058 10.006L13.8585 12.6587C13.9366 12.7368 13.9366 12.8635 13.8585 12.9416L12.9413 13.8587C12.8632 13.9368 12.7366 13.9368 12.6585 13.8587L10.0058 11.206L7.35303 13.8587C7.27493 13.9368 7.1483 13.9368 7.07019 13.8587L6.15303 12.9416C6.07493 12.8635 6.07493 12.7368 6.15303 12.6587L8.80577 10.006L6.14134 7.34159Z" fill="white"/>
</svg>
