<svg width="20" height="20" viewBox="0 0 20 20" fill="none" xmlns="http://www.w3.org/2000/svg">
<rect opacity="0.2" x="3.75" y="4.1665" width="11.6667" height="11.6667" rx="5.83333" fill="#555555"/>
<path fill-rule="evenodd" clip-rule="evenodd" d="M9.58301 1.125C4.68148 1.125 0.708008 5.09847 0.708008 10C0.708008 14.9015 4.68148 18.875 9.58301 18.875C14.4845 18.875 18.458 14.9015 18.458 10C18.458 8.15589 17.8956 6.44316 16.9329 5.02397L19.838 2.11886C20.0495 1.90732 20.0495 1.56436 19.838 1.35282C19.6264 1.14129 19.2835 1.14129 19.0719 1.35282L16.2654 4.15935C14.6386 2.29961 12.248 1.125 9.58301 1.125ZM15.4974 4.92734C14.0684 3.26277 11.9489 2.20833 9.58301 2.20833C5.27979 2.20833 1.79134 5.69678 1.79134 10C1.79134 14.3032 5.27979 17.7917 9.58301 17.7917C13.8862 17.7917 17.3747 14.3032 17.3747 10C17.3747 8.45594 16.9255 7.01678 16.1508 5.80604L9.83798 12.1189C9.73441 12.2224 9.59332 12.2796 9.44688 12.2774C9.30044 12.2753 9.16112 12.2139 9.06069 12.1073L5.85541 8.7048C5.65028 8.48705 5.66051 8.14423 5.87825 7.93911C6.096 7.73397 6.43882 7.7442 6.64395 7.96195L9.46656 10.9582L15.4974 4.92734Z" fill="#555555"/>
</svg>
