<svg width="20" height="20" viewBox="0 0 20 20" fill="none" xmlns="http://www.w3.org/2000/svg">
<path fill-rule="evenodd" clip-rule="evenodd" d="M7.6 4C7.6 3.44772 8.04772 3 8.6 3H11.4C11.9523 3 12.4 3.44772 12.4 4H15.5898C16.0925 4 16.5 4.40752 16.5 4.91022V5.08978C16.5 5.59248 16.0925 6 15.5898 6H11.92H8.08H4.41022C3.90752 6 3.5 5.59248 3.5 5.08978V4.91022C3.5 4.40752 3.90752 4 4.41022 4L7.6 4ZM5.08212 7C4.50658 7 4.06039 7.50294 4.12896 8.07438L5.03514 15.6259C5.12923 16.4099 5.79435 17 6.58403 17H13.416C14.2057 17 14.8708 16.4099 14.9649 15.6259L15.8711 8.07438C15.9397 7.50294 15.4935 7 14.9179 7H5.08212ZM8.10004 9C7.76867 9 7.50004 9.26863 7.50004 9.6V14.4C7.50004 14.7314 7.76867 15 8.10004 15H8.40004C8.73141 15 9.00004 14.7314 9.00004 14.4V9.6C9.00004 9.26863 8.73141 9 8.40004 9H8.10004ZM11 9.6C11 9.26863 11.2687 9 11.6 9H11.9C12.2314 9 12.5 9.26863 12.5 9.6V14.4C12.5 14.7314 12.2314 15 11.9 15H11.6C11.2687 15 11 14.7314 11 14.4V9.6Z" fill="#555555"/>
</svg>
