<svg width="20" height="20" viewBox="0 0 20 20" fill="none" xmlns="http://www.w3.org/2000/svg">
<path fill-rule="evenodd" clip-rule="evenodd" d="M10 18C14.4183 18 18 14.4183 18 10C18 5.58172 14.4183 2 10 2C5.58172 2 2 5.58172 2 10C2 14.4183 5.58172 18 10 18ZM6.14159 7.05874C6.06348 7.13685 6.06348 7.26348 6.14159 7.34159L8.80601 10.006L6.15328 12.6587C6.07517 12.7368 6.07517 12.8635 6.15328 12.9416L7.07044 13.8587C7.14854 13.9368 7.27517 13.9368 7.35328 13.8587L10.006 11.206L12.6587 13.8587C12.7368 13.9368 12.8635 13.9368 12.9416 13.8587L13.8587 12.9416C13.9368 12.8635 13.9368 12.7368 13.8587 12.6587L11.206 10.006L13.8704 7.34159C13.9485 7.26348 13.9485 7.13685 13.8704 7.05874L12.9533 6.14159C12.8752 6.06348 12.7485 6.06348 12.6704 6.14159L10.006 8.80601L7.34159 6.14159C7.26348 6.06348 7.13685 6.06348 7.05874 6.14159L6.14159 7.05874Z" fill="#CCCCCC"/>
</svg>
