<svg width="20" height="20" viewBox="0 0 20 20" fill="none" xmlns="http://www.w3.org/2000/svg">
<path fill-rule="evenodd" clip-rule="evenodd" d="M15 16C15.5523 16 16 16.4477 16 17C16 17.5523 15.5523 18 15 18H5C4.44772 18 4 17.5523 4 17C4 16.4477 4.44772 16 5 16H15ZM10 2C10.5523 2 11 2.44772 11 3V11.585L14.2929 8.29289C14.6534 7.93241 15.2206 7.90468 15.6129 8.2097L15.7071 8.29289C16.0676 8.65338 16.0953 9.22061 15.7903 9.6129L15.7071 9.70711L10.7071 14.7071C10.3466 15.0676 9.77939 15.0953 9.3871 14.7903L9.29289 14.7071L4.29289 9.70711C3.90237 9.31658 3.90237 8.68342 4.29289 8.29289C4.65338 7.93241 5.22061 7.90468 5.6129 8.2097L5.70711 8.29289L9 11.585V3C9 2.44772 9.44772 2 10 2Z" fill="#555555"/>
</svg>
