<svg width="20" height="20" viewBox="0 0 20 20" fill="none" xmlns="http://www.w3.org/2000/svg">
<path fill-rule="evenodd" clip-rule="evenodd" d="M2 5C2 3.89543 2.89543 3 4 3H16C17.1046 3 18 3.89543 18 5V15C18 16.1046 17.1046 17 16 17H4C2.89543 17 2 16.1046 2 15V5ZM3.5 7.64954V15C3.5 15.2455 3.67688 15.4496 3.91012 15.4919L4 15.5H16C16.2455 15.5 16.4496 15.3231 16.4919 15.0899L16.5 15V7.72793L10.3658 11.1548C10.169 11.2647 9.93518 11.2794 9.72861 11.1992L9.6279 11.1512L3.5 7.64954ZM3.5 5.9219L10.005 9.638L16.5 6.00974V5C16.5 4.75454 16.3231 4.55039 16.0899 4.50806L16 4.5H4C3.75454 4.5 3.55039 4.67688 3.50806 4.91012L3.5 5V5.9219Z" fill="#333333"/>
</svg>
