<svg width="32" height="32" viewBox="0 0 32 32" fill="none" xmlns="http://www.w3.org/2000/svg">
<path d="M9.66425 15.3333C9.66425 12.3878 12.0521 10 14.9976 10H17.3309C20.2764 10 22.6643 12.3878 22.6643 15.3333V27.6667C22.6643 28.403 22.0673 29 21.3309 29H10.9976C10.2612 29 9.66425 28.403 9.66425 27.6667V15.3333Z" fill="#02B585"/>
<path d="M16.8306 3C17.5669 3 18.1644 3.59678 18.1646 4.33301V5.52246L25.2984 3.48535C26.15 3.24236 26.9976 3.88193 26.9976 4.76758V9.19922C26.9976 10.095 26.1317 10.736 25.2749 10.4746L17.8355 8.2041C17.6388 8.18797 17.3556 8.17092 17.0064 8.16699C16.2641 8.15867 15.2361 8.20946 14.1001 8.44141C11.8287 8.90526 9.21118 10.0713 7.46537 12.8721C7.07581 13.4967 6.25327 13.6872 5.62846 13.2979C5.00379 12.9083 4.81237 12.0858 5.2017 11.4609C7.45569 7.84486 10.8385 6.38525 13.5669 5.82812C13.7693 5.7868 13.969 5.75089 14.1646 5.71875V4.33301C14.1648 3.59678 14.7613 3 15.4976 3H16.8306Z" fill="#02B585"/>
</svg>
