<svg width="28" height="28" viewBox="0 0 28 28" fill="none" xmlns="http://www.w3.org/2000/svg">
<path fill-rule="evenodd" clip-rule="evenodd" d="M15.5752 8.50023H24.75C25.9926 8.50023 27 9.50759 27 10.7502C27 11.9929 25.9926 13.0002 24.75 13.0002H21.7826C21.922 13.293 22 13.6206 22 13.9664C22 14.9191 21.4079 15.7335 20.5716 16.0617C20.841 16.4326 21 16.8891 21 17.3827C21 18.3257 20.4198 19.1333 19.5969 19.4679C19.851 19.8322 20 20.2753 20 20.7532C20 21.9959 18.9926 23.0032 17.75 23.0032H8.24998C7.00734 23.0032 5.99999 21.9959 5.99999 20.7532C5.99999 20.6648 6.00508 20.5776 6.015 20.4919C6.00508 20.4014 5.99999 20.3095 5.99999 20.2164V17.3827V13.9664V10.8916L5.99999 10.8853C5.86791 10.0641 6.23739 9.21054 6.99182 8.7601L16.1056 3.31864C17.1164 2.71514 18.4259 3.06587 18.9998 4.09377C19.5506 5.08027 19.217 6.32589 18.2469 6.90508L15.5752 8.50023Z" fill="white"/>
<path d="M15.5752 8.50023L15.1907 7.85627L12.8561 9.25023H15.5752V8.50023ZM21.7826 13.0002V12.2502H20.5947L21.1054 13.3227L21.7826 13.0002ZM20.5716 16.0617L20.2976 15.3635L19.3947 15.7178L19.9648 16.5025L20.5716 16.0617ZM19.5969 19.4679L19.3144 18.7731L18.4447 19.1267L18.9817 19.8968L19.5969 19.4679ZM6.015 20.4919L6.76003 20.5781L6.76974 20.4942L6.76053 20.4102L6.015 20.4919ZM5.99999 10.8916L5.24999 10.8907V10.8916H5.99999ZM5.99999 10.8853L6.74999 10.8862L6.75007 10.8258L6.74048 10.7662L5.99999 10.8853ZM6.99182 8.7601L7.3763 9.40405H7.3763L6.99182 8.7601ZM16.1056 3.31864L15.7211 2.67468V2.67468L16.1056 3.31864ZM18.9998 4.09377L18.345 4.45937V4.45937L18.9998 4.09377ZM18.2469 6.90508L17.8624 6.26112V6.26112L18.2469 6.90508ZM24.75 7.75023H15.5752V9.25023H24.75V7.75023ZM27.75 10.7502C27.75 9.09337 26.4068 7.75023 24.75 7.75023V9.25023C25.5784 9.25023 26.25 9.9218 26.25 10.7502H27.75ZM24.75 13.7502C26.4068 13.7502 27.75 12.4071 27.75 10.7502H26.25C26.25 11.5787 25.5784 12.2502 24.75 12.2502V13.7502ZM21.7826 13.7502H24.75V12.2502H21.7826V13.7502ZM22.75 13.9664C22.75 13.5067 22.6461 13.0691 22.4597 12.6778L21.1054 13.3227C21.1979 13.5168 21.25 13.7345 21.25 13.9664H22.75ZM20.8455 16.7599C21.9593 16.3228 22.75 15.2379 22.75 13.9664H21.25C21.25 14.6003 20.8564 15.1442 20.2976 15.3635L20.8455 16.7599ZM21.75 17.3827C21.75 16.7255 21.5378 16.1157 21.1783 15.6209L19.9648 16.5025C20.1443 16.7496 20.25 17.0527 20.25 17.3827H21.75ZM19.8794 20.1626C20.9752 19.7171 21.75 18.6413 21.75 17.3827H20.25C20.25 18.0102 19.8644 18.5495 19.3144 18.7731L19.8794 20.1626ZM18.9817 19.8968C19.1509 20.1394 19.25 20.4336 19.25 20.7532H20.75C20.75 20.117 20.5511 19.525 20.2121 19.0389L18.9817 19.8968ZM19.25 20.7532C19.25 21.5817 18.5784 22.2532 17.75 22.2532V23.7532C19.4068 23.7532 20.75 22.4101 20.75 20.7532H19.25ZM17.75 22.2532H8.24998V23.7532H17.75V22.2532ZM8.24998 22.2532C7.42156 22.2532 6.74999 21.5817 6.74999 20.7532H5.24999C5.24999 22.4101 6.59313 23.7532 8.24998 23.7532V22.2532ZM6.74999 20.7532C6.74999 20.6937 6.75342 20.6353 6.76003 20.5781L5.26996 20.4058C5.25675 20.52 5.24999 20.636 5.24999 20.7532H6.74999ZM5.24999 20.2164C5.24999 20.3369 5.25657 20.4561 5.26946 20.5737L6.76053 20.4102C6.75358 20.3468 6.74999 20.2822 6.74999 20.2164H5.24999ZM5.24999 17.3827V20.2164H6.74999V17.3827H5.24999ZM5.24999 13.9664V17.3827H6.74999V13.9664H5.24999ZM5.24999 10.8916V13.9664H6.74999V10.8916H5.24999ZM5.24999 10.8844L5.24999 10.8907L6.74998 10.8926L6.74999 10.8862L5.24999 10.8844ZM6.60734 8.11615C5.58107 8.72889 5.08017 9.88935 5.25951 11.0044L6.74048 10.7662C6.65565 10.2388 6.8937 9.69219 7.3763 9.40405L6.60734 8.11615ZM15.7211 2.67468L6.60734 8.11615L7.3763 9.40405L16.49 3.96259L15.7211 2.67468ZM19.6547 3.72817C18.8747 2.33114 17.0949 1.85446 15.7211 2.67468L16.49 3.96259C17.1379 3.57581 17.9772 3.80059 18.345 4.45937L19.6547 3.72817ZM18.6314 7.54903C19.9498 6.76185 20.4032 5.06892 19.6547 3.72817L18.345 4.45937C18.6979 5.09161 18.4841 5.88992 17.8624 6.26112L18.6314 7.54903ZM15.9597 9.14418L18.6314 7.54903L17.8624 6.26112L15.1907 7.85627L15.9597 9.14418Z" fill="#333333"/>
<rect y="9" width="4" height="14" rx="1" fill="#333333"/>
</svg>
