<svg width="28" height="28" viewBox="0 0 28 28" fill="none" xmlns="http://www.w3.org/2000/svg">
<path fill-rule="evenodd" clip-rule="evenodd" d="M14.5547 4.18873L22.1094 9.84827C22.6658 10.2651 23 10.9668 23 11.7182V21.7526C23 22.9938 22.1046 24 21 24H17C16.4477 24 16 23.5523 16 23V18.3814C16 17.1402 15.1046 16.134 14 16.134C12.9456 16.134 12.0818 17.0508 12.0055 18.2137L12 18.3814V23C12 23.5523 11.5523 24 11 24H7C5.89543 24 5 22.9938 5 21.7526V11.7182C5 10.9668 5.3342 10.2651 5.8906 9.84827L13.4453 4.18873C13.7812 3.93709 14.2188 3.93709 14.5547 4.18873ZM14 6.272L7.08972 11.4489C7.05748 11.4731 7.0194 11.5443 7.00546 11.6412L7 11.7182V21.7526C7 21.8055 7.00452 21.8484 7.00968 21.8826L7.02323 21.9609C7.02581 21.9794 7.02517 21.9906 7.01742 21.996L7 22H10L10.0011 18.3161L10.0098 18.0827C10.1526 15.9082 11.8449 14.134 14 14.134C16.1959 14.134 17.8943 15.9678 17.9953 18.1736L18 18.3814V22H21C20.981 22 20.9751 21.9927 20.9754 21.9756L20.9971 21.8246L21 21.7526V11.7182C21 11.61 20.9684 11.5219 20.9351 11.4755L20.9103 11.4489L14 6.272Z" fill="#333333"/>
</svg>
