<svg width="40" height="40" viewBox="0 0 40 40" fill="none" xmlns="http://www.w3.org/2000/svg">
<circle cx="20" cy="20" r="20" fill="#D9F4ED"/>
<rect x="15.334" y="15" width="15" height="15" rx="3" fill="#61CBB5"/>
<path d="M10 13C10 11.3431 11.3431 10 13 10H23C24.6569 10 26 11.3431 26 13V23C26 24.6569 24.6569 26 23 26H13C11.3431 26 10 24.6569 10 23V13Z" fill="white"/>
<path d="M25 13C25 11.8954 24.1046 11 23 11H13C11.8954 11 11 11.8954 11 13V23C11 24.1046 11.8954 25 13 25H23C24.1046 25 25 24.1046 25 23V13ZM27 23C27 25.2091 25.2091 27 23 27H13C10.7909 27 9 25.2091 9 23V13C9 10.7909 10.7909 9 13 9H23C25.2091 9 27 10.7909 27 13V23Z" fill="#333333"/>
<rect x="17" y="19" width="6" height="2" rx="0.5" fill="#333333"/>
<rect x="13" y="15" width="2" height="2" rx="0.5" fill="#333333"/>
<rect x="17" y="15" width="6" height="2" rx="0.5" fill="#333333"/>
<rect x="13" y="19" width="2" height="2" rx="0.5" fill="#333333"/>
</svg>
