<svg width="40" height="40" viewBox="0 0 40 40" fill="none" xmlns="http://www.w3.org/2000/svg">
<circle cx="20" cy="20" r="20" fill="#D9F4ED"/>
<rect x="15.334" y="15" width="15" height="15" rx="3" fill="#61CBB5"/>
<rect x="10" y="10" width="16" height="16" rx="3" fill="white" stroke="#333333" stroke-width="2"/>
<path fill-rule="evenodd" clip-rule="evenodd" d="M14.5 15C15.0523 15 15.5 15.4477 15.5 16L15.5 21C15.5 21.5523 15.0523 22 14.5 22C13.9477 22 13.5 21.5523 13.5 21L13.5 16C13.5 15.4477 13.9477 15 14.5 15Z" fill="#333333"/>
<path fill-rule="evenodd" clip-rule="evenodd" d="M18 14C18.5523 14 19 14.4477 19 15L19 21C19 21.5523 18.5523 22 18 22C17.4477 22 17 21.5523 17 21L17 15C17 14.4477 17.4477 14 18 14Z" fill="#333333"/>
<path fill-rule="evenodd" clip-rule="evenodd" d="M21.5 16C22.0523 16 22.5 16.4477 22.5 17L22.5 21C22.5 21.5523 22.0523 22 21.5 22C20.9477 22 20.5 21.5523 20.5 21L20.5 17C20.5 16.4477 20.9477 16 21.5 16Z" fill="#333333"/>
</svg>
