<svg width="20" height="20" viewBox="0 0 20 20" fill="none" xmlns="http://www.w3.org/2000/svg">
<path d="M10 3C12.8353 3 15.1994 5.13676 15.833 8H16.5C18.1569 8 19.5 9.34315 19.5 11C19.5 12.6569 18.1569 14 16.5 14H16.0654C15.4427 15.29 13.7424 16.2004 11.708 16.3896C11.4349 16.7598 10.9953 17 10.5 17H9.5C8.67157 17 8 16.3284 8 15.5C8 14.6716 8.67157 14 9.5 14H10.5C11.134 14 11.6759 14.3933 11.8955 14.9492C13.1962 14.7667 14.2207 14.2338 14.667 13.6006V9.53711C14.667 6.67464 12.5674 4.37109 10 4.37109C7.49525 4.37109 5.43587 6.56406 5.33691 9.3291L5.33301 9.53711V14H3.5C1.84315 14 0.5 12.6569 0.5 11C0.5 9.34315 1.84315 8 3.5 8H4.16699C4.8006 5.13676 7.16474 3 10 3Z" fill="#02B585"/>
<path d="M8.2002 8.9873C8.69707 8.98752 9.09961 9.39077 9.09961 9.8877C9.0994 10.3844 8.69694 10.7869 8.2002 10.7871C7.70327 10.7871 7.30002 10.3846 7.2998 9.8877C7.2998 9.39064 7.70314 8.9873 8.2002 8.9873Z" fill="#02B585"/>
<path d="M11.7998 8.9873C12.2969 8.9873 12.7002 9.39064 12.7002 9.8877C12.7 10.3846 12.2967 10.7871 11.7998 10.7871C11.3029 10.7871 10.9006 10.3845 10.9004 9.8877C10.9004 9.39067 11.3028 8.98736 11.7998 8.9873Z" fill="#02B585"/>
</svg>
