<svg width="20" height="20" viewBox="0 0 20 20" fill="none" xmlns="http://www.w3.org/2000/svg">
<path fill-rule="evenodd" clip-rule="evenodd" d="M10 3C12.8353 3 15.1995 5.13675 15.8331 8H16.5C18.1569 8 19.5 9.34315 19.5 11C19.5 12.6569 18.1569 14 16.5 14H16.0656C15.4429 15.2901 13.7423 16.2006 11.7077 16.3897C11.4346 16.7599 10.9953 17 10.5 17H9.5C8.67157 17 8 16.3284 8 15.5C8 14.6716 8.67157 14 9.5 14H10.5C11.134 14 11.6761 14.3933 11.8956 14.9492C13.1963 14.7666 14.2204 14.2336 14.6667 13.6004V9.53714C14.6667 6.67466 12.5674 4.37143 10 4.37143C7.49525 4.37143 5.43602 6.56368 5.33706 9.32872L5.33333 9.53714V14H5.15347H4H3.5C1.84315 14 0.5 12.6569 0.5 11C0.5 9.34315 1.84315 8 3.5 8H4.16694C4.80054 5.13675 7.16474 3 10 3Z" fill="#02B585"/>
<circle cx="11.7999" cy="9.8873" r="0.9" fill="#02B585"/>
<circle cx="8.1998" cy="9.8873" r="0.9" fill="#02B585"/>
</svg>
