<svg width="40" height="40" viewBox="0 0 40 40" fill="none" xmlns="http://www.w3.org/2000/svg">
<circle cx="20" cy="20" r="20" fill="#F7DBDB"/>
<rect x="15.334" y="15" width="15" height="15" rx="3" fill="#FF7979"/>
<rect x="10" y="10" width="16" height="16" rx="3" fill="white" stroke="#333333" stroke-width="2"/>
<path fill-rule="evenodd" clip-rule="evenodd" d="M15.5 18C15.5 18.5523 15.0523 19 14.5 19C13.9477 19 13.5 18.5523 13.5 18C13.5 17.4477 13.9477 17 14.5 17C15.0523 17 15.5 17.4477 15.5 18ZM19 18C19 18.5523 18.5523 19 18 19C17.4477 19 17 18.5523 17 18C17 17.4477 17.4477 17 18 17C18.5523 17 19 17.4477 19 18ZM21.5 19C22.0523 19 22.5 18.5523 22.5 18C22.5 17.4477 22.0523 17 21.5 17C20.9477 17 20.5 17.4477 20.5 18C20.5 18.5523 20.9477 19 21.5 19Z" fill="#333333"/>
</svg>
