<svg width="20" height="20" viewBox="0 0 20 20" fill="none" xmlns="http://www.w3.org/2000/svg">
<path d="M10.5835 8.14226C10.8775 8.30967 10.8926 8.70703 10.6534 8.94623C10.447 9.15258 10.1217 9.16467 9.85699 9.04179C9.01861 8.65262 7.99131 8.80381 7.29974 9.49538L4.6857 12.1094C3.80064 12.9945 3.80064 14.4295 4.6857 15.3145C5.57077 16.1996 7.00574 16.1996 7.89081 15.3145L9.90389 13.3014C10.1252 13.0802 10.4839 13.0802 10.7052 13.3014C10.9264 13.5227 10.9264 13.8815 10.7052 14.1027L8.69208 16.1158C7.36448 17.4434 5.21202 17.4434 3.88443 16.1158C2.55683 14.7882 2.55683 12.6357 3.88442 11.3081L6.49846 8.6941C7.60545 7.58711 9.28595 7.40316 10.5835 8.14226Z" fill="#999999"/>
<path d="M9.67702 11.3341C9.38309 11.1666 9.36801 10.7693 9.6072 10.5301C9.81355 10.3237 10.1389 10.3116 10.4036 10.4345C11.2419 10.8237 12.2693 10.6725 12.9608 9.98093L15.5749 7.36689C16.4599 6.48182 16.4599 5.04684 15.5749 4.16178C14.6898 3.27671 13.2548 3.27671 12.3698 4.16178L10.3567 6.17486C10.1354 6.39613 9.77666 6.39613 9.55539 6.17486C9.33413 5.9536 9.33413 5.59485 9.55539 5.37358L11.5685 3.3605C12.8961 2.0329 15.0485 2.0329 16.3761 3.3605C17.7037 4.6881 17.7037 6.84057 16.3761 8.16817L13.7621 10.7822C12.6551 11.8892 10.9746 12.0731 9.67702 11.3341Z" fill="#999999"/>
<path fill-rule="evenodd" clip-rule="evenodd" d="M11.4113 3.20336C12.8257 1.78898 15.1189 1.78898 16.5333 3.20337C17.9476 4.61775 17.9476 6.91092 16.5333 8.3253L13.9192 10.9393C12.7397 12.1189 10.9494 12.3145 9.56703 11.5272C9.11948 11.2722 9.12954 10.6935 9.45006 10.373C9.74157 10.0814 10.1754 10.0836 10.4971 10.233C11.2536 10.5841 12.1802 10.4473 12.8037 9.82379L15.4177 7.20975C16.216 6.41147 16.216 5.1172 15.4177 4.31891C14.6194 3.52063 13.3252 3.52063 12.5269 4.31891L10.5138 6.332C10.2058 6.64005 9.70631 6.64005 9.39826 6.332C9.09021 6.02395 9.09021 5.5245 9.39826 5.21645L11.4113 3.20336ZM16.219 3.51764C14.9782 2.27682 12.9664 2.27682 11.7256 3.51763L9.71253 5.53072C9.57804 5.6652 9.57804 5.88324 9.71253 6.01773C9.84701 6.15221 10.0651 6.15221 10.1995 6.01773L12.2126 4.00464C13.1845 3.03279 14.7601 3.03279 15.732 4.00464C16.7038 4.97649 16.7038 6.55217 15.732 7.52402L13.118 10.1381C12.3583 10.8977 11.2303 11.0633 10.31 10.6361C10.1023 10.5397 9.88553 10.566 9.76433 10.6872C9.60647 10.8451 9.6467 11.061 9.787 11.141C10.9999 11.8318 12.5706 11.6595 13.605 10.6251L16.219 8.01103C17.4598 6.77021 17.4598 4.75845 16.219 3.51764ZM6.34133 8.53697C7.5209 7.35739 9.3112 7.1618 10.6935 7.94916C11.1411 8.20408 11.131 8.78284 10.8105 9.10336C10.519 9.39487 10.0851 9.3927 9.76342 9.24336C9.00694 8.89219 8.08038 9.029 7.45687 9.65251L4.84284 12.2666C4.04455 13.0648 4.04455 14.3591 4.84284 15.1574C5.64112 15.9557 6.93539 15.9557 7.73367 15.1574L9.74675 13.1443C10.0548 12.8363 10.5542 12.8363 10.8623 13.1443C11.1703 13.4524 11.1703 13.9518 10.8623 14.2599L8.84922 16.2729C7.43484 17.6873 5.14167 17.6873 3.72729 16.2729C2.31291 14.8586 2.31291 12.5654 3.72729 11.151L6.34133 8.53697ZM10.4736 8.33535C9.2607 7.64452 7.69 7.81683 6.6556 8.85124L4.04156 11.4653C2.80074 12.7061 2.80074 14.7179 4.04156 15.9587C5.28238 17.1995 7.29413 17.1995 8.53495 15.9587L10.548 13.9456C10.6825 13.8111 10.6825 13.5931 10.548 13.4586C10.4135 13.3241 10.1955 13.3241 10.061 13.4586L8.04794 15.4717C7.07609 16.4435 5.50042 16.4435 4.52857 15.4717C3.55672 14.4998 3.55672 12.9241 4.52857 11.9523L7.1426 9.33824C7.90223 8.57862 9.03029 8.41304 9.95055 8.84023C10.1582 8.93664 10.375 8.91029 10.4962 8.78909C10.6541 8.63123 10.6139 8.41527 10.4736 8.33535Z" fill="#999999"/>
</svg>
