<svg width="20" height="20" viewBox="0 0 20 20" fill="none" xmlns="http://www.w3.org/2000/svg">
<path fill-rule="evenodd" clip-rule="evenodd" d="M1 10C1 5.02941 5.02952 1 9.99989 1C14.9705 1 19 5.02941 19 10C19 14.9705 14.9705 19 9.99989 19C5.02952 19 1 14.9705 1 10ZM2.24777 9.25384C2.37209 7.94698 2.81929 6.73417 3.50875 5.69633C4.30796 5.83352 5.13335 5.94771 5.98061 6.03719C5.73697 7.02027 5.58465 8.11013 5.5382 9.25384H2.24777ZM6.33604 4.85477C5.66844 4.78828 5.01564 4.70608 4.37991 4.6092C5.2513 3.70115 6.34059 3.00372 7.56355 2.60115C7.17168 3.06827 6.84631 3.63125 6.58081 4.23817C6.49452 4.4357 6.41277 4.64142 6.33604 4.85477ZM6.75181 9.25384C6.80077 8.12561 6.9597 7.07127 7.20379 6.14774C8.26394 6.22777 9.35414 6.26944 10.4662 6.26944C11.2602 6.26944 12.043 6.24826 12.8115 6.20694C13.0469 7.11624 13.1999 8.14963 13.248 9.25384H6.75181ZM10.4662 5.05696C11.1295 5.05696 11.7839 5.04171 12.4276 5.01211C11.8301 3.49372 10.9637 2.53888 9.99989 2.53888C9.04698 2.53888 8.18971 3.47186 7.59292 4.96008C8.52738 5.02372 9.48689 5.05696 10.4662 5.05696ZM14.4616 9.25384C14.4165 8.14337 14.2715 7.08356 14.0401 6.12303C14.4491 6.0891 14.8534 6.04949 15.2526 6.00429C15.7011 5.9534 16.1436 5.89568 16.5789 5.83124C17.2187 6.83868 17.6334 8.00323 17.7522 9.25384H14.4616ZM13.692 4.93458C14.3862 4.88118 15.0659 4.81094 15.7289 4.7251C14.8402 3.76035 13.7109 3.02068 12.4362 2.60115C12.8281 3.06827 13.1532 3.63125 13.4187 4.23817C13.516 4.46017 13.607 4.69265 13.692 4.93458ZM4.37604 15.3869C5.24788 16.2969 6.33877 16.9958 7.56355 17.3988C7.17168 16.9317 6.84631 16.3686 6.58081 15.7617C6.49383 15.5629 6.41164 15.3557 6.33445 15.1409C5.66616 15.2075 5.01245 15.2899 4.37604 15.3869ZM3.50602 14.2997C2.76919 13.189 2.30948 11.8781 2.22614 10.4663H5.52909C5.56051 11.7102 5.71694 12.8966 5.9797 13.9585C5.13176 14.048 4.30568 14.1624 3.50602 14.2997ZM7.5911 15.0356C8.18789 16.5263 9.04607 17.4611 9.99989 17.4611C10.9646 17.4611 11.8317 16.5045 12.4292 14.9836C11.785 14.9539 11.1302 14.9386 10.4662 14.9386C9.48621 14.9386 8.52601 14.9718 7.5911 15.0356ZM12.8124 13.7887C12.0435 13.7474 11.2606 13.7261 10.4662 13.7261C9.35369 13.7261 8.26325 13.7679 7.20265 13.8479C6.93921 12.8494 6.77526 11.6983 6.74202 10.4663H13.2578C13.2252 11.674 13.0667 12.804 12.8124 13.7887ZM13.6933 15.0611C13.6079 15.3045 13.5164 15.5385 13.4187 15.7617C13.1532 16.3688 12.8279 16.9317 12.436 17.3988C13.7125 16.9787 14.8432 16.2376 15.7326 15.2709C15.0688 15.1849 14.3883 15.1145 13.6933 15.0611ZM16.5814 14.1647C15.7583 14.0427 14.9101 13.9448 14.041 13.8726C14.291 12.8329 14.4402 11.6767 14.4707 10.4663H17.7739C17.6937 11.8214 17.2672 13.0833 16.5814 14.1647Z" fill="#8092AA"/>
</svg>
