<svg width="24" height="24" viewBox="0 0 24 24" fill="none" xmlns="http://www.w3.org/2000/svg">
<path fill-rule="evenodd" clip-rule="evenodd" d="M8 2C5.79086 2 4 3.79086 4 6V18C4 20.2091 5.79086 22 8 22H16C18.2091 22 20 20.2091 20 18V17H18V18C18 19.1046 17.1046 20 16 20H8C6.89543 20 6 19.1046 6 18V6C6 4.89543 6.89543 4 8 4H16C17.1046 4 18 4.89543 18 6V7H20V6C20 3.79086 18.2091 2 16 2H8Z" fill="#333333"/>
<path d="M20.9684 12.7328C21.4147 12.3463 21.4147 11.6539 20.9684 11.2674L18.7997 9.38907C18.172 8.84538 17.1959 9.29125 17.1959 10.1217V13.8781C17.1959 14.7085 18.172 15.1545 18.7997 14.6109L20.9684 12.7328Z" fill="#333333"/>
<rect x="12" y="11" width="6" height="2" rx="0.5" fill="#333333"/>
</svg>
