<svg width="20" height="20" viewBox="0 0 20 20" fill="none" xmlns="http://www.w3.org/2000/svg">
<path d="M10.5838 8.14226C10.8777 8.30967 10.8928 8.70703 10.6536 8.94623C10.4473 9.15258 10.1219 9.16467 9.85723 9.04179C9.01886 8.65262 7.99155 8.80381 7.29998 9.49538L4.68595 12.1094C3.80088 12.9945 3.80088 14.4295 4.68595 15.3145C5.57101 16.1996 7.00598 16.1996 7.89105 15.3145L9.90413 13.3014C10.1254 13.0802 10.4841 13.0802 10.7054 13.3014C10.9267 13.5227 10.9267 13.8815 10.7054 14.1027L8.69233 16.1158C7.36473 17.4434 5.21227 17.4434 3.88467 16.1158C2.55707 14.7882 2.55707 12.6357 3.88467 11.3081L6.49871 8.6941C7.6057 7.58711 9.28619 7.40316 10.5838 8.14226Z" fill="#999999"/>
<path d="M9.67726 11.3341C9.38333 11.1666 9.36825 10.7693 9.60744 10.5301C9.81379 10.3237 10.1391 10.3116 10.4038 10.4345C11.2422 10.8237 12.2695 10.6725 12.9611 9.98093L15.5751 7.36689C16.4602 6.48182 16.4602 5.04684 15.5751 4.16178C14.69 3.27671 13.2551 3.27671 12.37 4.16178L10.3569 6.17486C10.1356 6.39613 9.7769 6.39613 9.55564 6.17486C9.33437 5.9536 9.33437 5.59485 9.55564 5.37358L11.5687 3.3605C12.8963 2.0329 15.0488 2.0329 16.3764 3.3605C17.704 4.6881 17.704 6.84057 16.3764 8.16817L13.7623 10.7822C12.6553 11.8892 10.9749 12.0731 9.67726 11.3341Z" fill="#999999"/>
<path fill-rule="evenodd" clip-rule="evenodd" d="M11.4116 3.20336C12.826 1.78898 15.1191 1.78898 16.5335 3.20337C17.9479 4.61775 17.9479 6.91092 16.5335 8.3253L13.9195 10.9393C12.7399 12.1189 10.9496 12.3145 9.56728 11.5272C9.11972 11.2722 9.12978 10.6935 9.45031 10.373C9.74181 10.0814 10.1757 10.0836 10.4974 10.233C11.2539 10.5841 12.1804 10.4473 12.8039 9.82379L15.418 7.20975C16.2162 6.41147 16.2162 5.1172 15.418 4.31891C14.6197 3.52063 13.3254 3.52063 12.5271 4.31891L10.514 6.332C10.206 6.64005 9.70655 6.64005 9.3985 6.332C9.09045 6.02395 9.09045 5.5245 9.3985 5.21645L11.4116 3.20336ZM16.2192 3.51764C14.9784 2.27682 12.9667 2.27682 11.7259 3.51763L9.71277 5.53072C9.57829 5.6652 9.57829 5.88324 9.71277 6.01773C9.84726 6.15221 10.0653 6.15221 10.1998 6.01773L12.2129 4.00464C13.1847 3.03279 14.7604 3.03279 15.7322 4.00464C16.7041 4.97649 16.7041 6.55217 15.7322 7.52402L13.1182 10.1381C12.3586 10.8977 11.2305 11.0633 10.3102 10.6361C10.1026 10.5397 9.88578 10.566 9.76458 10.6872C9.60672 10.8451 9.64694 11.061 9.78725 11.141C11.0001 11.8318 12.5708 11.6595 13.6052 10.6251L16.2192 8.01103C17.4601 6.77021 17.4601 4.75845 16.2192 3.51764ZM6.34157 8.53697C7.52115 7.35739 9.31144 7.1618 10.6938 7.94916C11.1413 8.20408 11.1313 8.78284 10.8107 9.10336C10.5192 9.39487 10.0854 9.3927 9.76366 9.24336C9.00718 8.89219 8.08063 9.029 7.45712 9.65251L4.84308 12.2666C4.0448 13.0648 4.0448 14.3591 4.84308 15.1574C5.64136 15.9557 6.93563 15.9557 7.73392 15.1574L9.747 13.1443C10.055 12.8363 10.5545 12.8363 10.8625 13.1443C11.1706 13.4524 11.1706 13.9518 10.8625 14.2599L8.84946 16.2729C7.43508 17.6873 5.14192 17.6873 3.72753 16.2729C2.31315 14.8586 2.31315 12.5654 3.72753 11.151L6.34157 8.53697ZM10.4738 8.33535C9.26094 7.64452 7.69025 7.81683 6.65584 8.85124L4.0418 11.4653C2.80099 12.7061 2.80099 14.7179 4.0418 15.9587C5.28262 17.1995 7.29438 17.1995 8.53519 15.9587L10.5483 13.9456C10.6828 13.8111 10.6828 13.5931 10.5483 13.4586C10.4138 13.3241 10.1957 13.3241 10.0613 13.4586L8.04819 15.4717C7.07634 16.4435 5.50066 16.4435 4.52881 15.4717C3.55696 14.4998 3.55696 12.9241 4.52881 11.9523L7.14285 9.33824C7.90247 8.57862 9.03054 8.41304 9.9508 8.84023C10.1585 8.93664 10.3753 8.91029 10.4965 8.78909C10.6543 8.63123 10.6141 8.41527 10.4738 8.33535Z" fill="#999999"/>
</svg>
