<svg width="20" height="20" viewBox="0 0 20 20" fill="none" xmlns="http://www.w3.org/2000/svg">
<path fill-rule="evenodd" clip-rule="evenodd" d="M7.33333 0.666504H16C17.1046 0.666504 18 1.56193 18 2.6665V17.3332C18 18.4377 17.1046 19.3332 16 19.3332H4C2.89543 19.3332 2 18.4377 2 17.3332V5.99984L7.33333 0.666504Z" fill="#C1E7DD"/>
<path fill-rule="evenodd" clip-rule="evenodd" d="M6 7.8335C6 7.55735 6.22386 7.3335 6.5 7.3335H13.5C13.7761 7.3335 14 7.55735 14 7.8335V8.16683C14 8.44297 13.7761 8.66683 13.5 8.66683H6.5C6.22386 8.66683 6 8.44297 6 8.16683V7.8335ZM6 10.5002C6 10.224 6.22386 10.0002 6.5 10.0002H13.5C13.7761 10.0002 14 10.224 14 10.5002V10.8335C14 11.1096 13.7761 11.3335 13.5 11.3335H6.5C6.22386 11.3335 6 11.1096 6 10.8335V10.5002ZM6.5 12.6668C6.22386 12.6668 6 12.8907 6 13.1668V13.5002C6 13.7763 6.22386 14.0002 6.5 14.0002H13.5C13.7761 14.0002 14 13.7763 14 13.5002V13.1668C14 12.8907 13.7761 12.6668 13.5 12.6668H6.5Z" fill="#02B585"/>
<path fill-rule="evenodd" clip-rule="evenodd" d="M2 5.99984H7.33333V0.666504" fill="#02B585"/>
</svg>
