<svg width="20" height="20" viewBox="0 0 20 20" fill="none" xmlns="http://www.w3.org/2000/svg">
<path d="M3.25 16.1543V3.8457C3.25023 2.46552 4.30187 1.25024 5.71387 1.25H8.14258C8.55679 1.25 8.89258 1.58579 8.89258 2C8.89258 2.41421 8.55679 2.75 8.14258 2.75H5.71387C5.23293 2.75025 4.75022 3.18744 4.75 3.8457V16.1543C4.75022 16.8126 5.23293 17.2497 5.71387 17.25H14.2861C14.7671 17.2497 15.2498 16.8126 15.25 16.1543V10.6348C15.25 10.2206 15.5858 9.88477 16 9.88477C16.4142 9.88477 16.75 10.2206 16.75 10.6348V16.1543C16.7498 17.5345 15.6981 18.7498 14.2861 18.75H5.71387C4.30187 18.7498 3.25023 17.5345 3.25 16.1543Z" fill="#555555"/>
<path d="M17 1C17.5523 1.00004 18 1.44774 18 2V7C18 7.55226 17.5523 7.99996 17 8C16.4477 8 16 7.55228 16 7V4.41406L11.8789 8.53516C11.4884 8.92568 10.8544 8.92568 10.4639 8.53516C10.0737 8.1447 10.0737 7.51155 10.4639 7.12109L14.585 3H12C11.4477 3 11 2.55228 11 2C11 1.44772 11.4477 1 12 1H17Z" fill="#999999"/>
</svg>
