<svg width="28" height="28" viewBox="0 0 28 28" fill="none" xmlns="http://www.w3.org/2000/svg">
<path fill-rule="evenodd" clip-rule="evenodd" d="M6 9C6 8.44772 6.44772 8 7 8H21C21.5523 8 22 8.44772 22 9C22 9.55228 21.5523 10 21 10H7C6.44772 10 6 9.55228 6 9ZM6 14C6 13.4477 6.44772 13 7 13H21C21.5523 13 22 13.4477 22 14C22 14.5523 21.5523 15 21 15H7C6.44772 15 6 14.5523 6 14ZM7 18C6.44772 18 6 18.4477 6 19C6 19.5523 6.44772 20 7 20H21C21.5523 20 22 19.5523 22 19C22 18.4477 21.5523 18 21 18H7Z" fill="#333333"/>
</svg>
