<svg width="24" height="24" viewBox="0 0 24 24" fill="none" xmlns="http://www.w3.org/2000/svg">
<path fill-rule="evenodd" clip-rule="evenodd" d="M2.5 7C4.98528 7 7 4.98528 7 2.5C7 2.04085 6.93123 1.59776 6.80344 1.18047C8.37577 0.423912 10.1384 0 12 0C18.6274 0 24 5.37258 24 12C24 18.6274 18.6274 24 12 24C5.37258 24 0 18.6274 0 12C0 10.1384 0.423912 8.37577 1.18047 6.80344C1.59776 6.93123 2.04085 7 2.5 7Z" fill="#D9F4ED"/>
<path d="M13 10.5L17 10.5" stroke="#61CBB5" stroke-width="1.5" stroke-linecap="round"/>
<path d="M7 13.5H17" stroke="#61CBB5" stroke-width="1.5" stroke-linecap="round"/>
<path d="M7 16.5L17 16.5" stroke="#61CBB5" stroke-width="1.5" stroke-linecap="round"/>
<path d="M7 8.78571L8.40268 10.2886C8.50671 10.4 8.68542 10.3932 8.78066 10.2742L11 7.5" stroke="#61CBB5" stroke-width="1.5" stroke-linecap="round"/>
<circle cx="2.5" cy="2.5" r="2.5" fill="#FF6666"/>
</svg>
