<svg width="20" height="20" viewBox="0 0 20 20" fill="none" xmlns="http://www.w3.org/2000/svg">
<path fill-rule="evenodd" clip-rule="evenodd" d="M12.4246 3.28268C12.2294 3.08741 11.9128 3.08742 11.7175 3.28268L11.0104 3.98978C10.8151 4.18505 10.8151 4.50163 11.0104 4.69689L15.3137 9.00019H1.5C1.22386 9.00019 1 9.22405 1 9.50019V10.5002C1 10.7763 1.22386 11.0002 1.5 11.0002H15.3137L11.0104 15.3035C10.8151 15.4988 10.8151 15.8153 11.0104 16.0106L11.7175 16.7177C11.9128 16.913 12.2294 16.913 12.4246 16.7177L18.7886 10.3537C18.9838 10.1585 18.9838 9.8419 18.7886 9.64664L12.4246 3.28268Z" fill="#333333"/>
</svg>
