<svg width="20" height="20" viewBox="0 0 20 20" fill="none" xmlns="http://www.w3.org/2000/svg">
<path d="M17.4999 3.5C17.4999 2.94772 17.0522 2.5 16.4999 2.5H11.4999C10.9477 2.5 10.4999 2.94772 10.4999 3.5C10.4999 4.05228 10.9477 4.5 11.4999 4.5H14.0856L9.42888 9.1567C9.03836 9.54723 9.03836 10.1804 9.42888 10.5709C9.8194 10.9614 10.4526 10.9614 10.8431 10.5709L15.4999 5.91406V8.5C15.4999 9.05228 15.9477 9.5 16.4999 9.5C17.0522 9.5 17.4999 9.05229 17.4999 8.5V3.5Z" fill="#555555"/>
<path d="M4.5 3.5C3.39543 3.5 2.5 4.39543 2.5 5.5V15.5C2.5 16.6046 3.39543 17.5 4.5 17.5H14.5C15.6046 17.5 16.5 16.6046 16.5 15.5V12.5C16.5 11.9477 16.0523 11.5 15.5 11.5C14.9477 11.5 14.5 11.9477 14.5 12.5V15.5H4.5V5.5L7.5 5.5C8.05228 5.5 8.5 5.05228 8.5 4.5C8.5 3.94772 8.05228 3.5 7.5 3.5H4.5Z" fill="#555555"/>
</svg>
