<svg width="24" height="24" viewBox="0 0 24 24" fill="none" xmlns="http://www.w3.org/2000/svg">
<circle cx="17.5" cy="9.5" r="2.5" fill="#FF6666"/>
<path fill-rule="evenodd" clip-rule="evenodd" d="M8.21133 20.5981C9.36613 21.2648 10.8344 21.0144 11.931 20.0889C12.2153 19.8489 12.1733 19.4214 11.8863 19.2557L7.5364 16.7443C7.24938 16.5786 6.85815 16.756 6.79251 17.1222C6.53937 18.5347 7.05667 19.9314 8.21133 20.5981Z" fill="#8092AA"/>
<path fill-rule="evenodd" clip-rule="evenodd" d="M16.0499 3.30811C15.6968 3.10428 15.1452 2.86047 14.559 3.0937C14.2761 3.20627 14.0927 3.39187 13.9821 3.53104C13.9312 3.59498 13.8863 3.66183 13.85 3.71986C11.4871 3.09341 8.9082 3.86033 7.67153 6.0023L6.81618 7.48381C6.38325 8.23367 5.57982 8.76267 4.54404 8.88054L4.53791 8.88126C3.91808 8.95568 3.34132 9.2949 3.01172 9.86578C2.37888 10.9619 2.95141 12.2257 3.90356 12.7754L13.9241 18.5608C14.8763 19.1105 16.2571 18.9746 16.89 17.8784C17.2215 17.3041 17.2233 16.6345 16.9764 16.0571L16.9739 16.0513C16.6575 15.3241 16.6166 14.5893 16.8107 13.9475C16.1268 13.8424 15.4938 13.5834 14.948 13.2069C14.5489 14.3704 14.6237 15.6602 15.1382 16.8452C15.1428 16.8562 15.1458 16.8654 15.1477 16.8728L15.1388 16.8748C15.0929 16.8839 15.0129 16.88 14.9241 16.8287L4.90356 11.0433C4.81484 10.9921 4.77152 10.9248 4.75643 10.8806L4.7535 10.8712C4.7592 10.8697 4.76617 10.8683 4.77455 10.8672C6.37351 10.684 7.76756 9.83599 8.54823 8.48381L9.40358 7.0023C10.1771 5.66257 12.0672 5.07261 13.9167 5.85063L14.4521 6.07587L14.5204 6.12769C15.1845 5.5405 16.0233 5.14643 16.9489 5.03341C16.9879 4.88465 17.0114 4.70012 16.981 4.49187C16.8898 3.86777 16.403 3.51197 16.0499 3.30811Z" fill="#8092AA"/>
</svg>
