<svg width="24" height="24" viewBox="0 0 24 24" fill="none" xmlns="http://www.w3.org/2000/svg">
<path d="M14.7832 9.80273C15.1682 9.40694 15.8013 9.39828 16.1973 9.7832C16.593 10.1682 16.6017 10.8014 16.2168 11.1973L11.8418 15.6973C11.6535 15.8908 11.395 16 11.125 16C10.855 16 10.5965 15.8908 10.4082 15.6973L7.7832 12.9971C7.39826 12.6011 7.40687 11.968 7.80273 11.583C8.19862 11.1981 8.83178 11.2068 9.2168 11.6025L11.125 13.5654L14.7832 9.80273Z" fill="#333333"/>
<path fill-rule="evenodd" clip-rule="evenodd" d="M16 2.5C16.5523 2.5 17 2.94772 17 3.5V4C19.2091 4 21 5.79086 21 8V17C21 19.2091 19.2091 21 17 21H7C4.79086 21 3 19.2091 3 17V8C3 5.79086 4.79086 4 7 4V3.5C7 2.94772 7.44772 2.5 8 2.5C8.55228 2.5 9 2.94772 9 3.5V4H15V3.5C15 2.94772 15.4477 2.5 16 2.5ZM5 8V17C5 18.1046 5.89543 19 7 19H17C18.1046 19 19 18.1046 19 17V8H5Z" fill="#333333"/>
</svg>
