<svg width="32" height="32" viewBox="0 0 32 32" fill="none" xmlns="http://www.w3.org/2000/svg">
<path d="M9.14648 13.5158L11.7223 12.8256L18.8311 4.19037C18.9488 4.04733 19.1083 3.94467 19.2873 3.89672L20.3 3.62535C21.0113 3.43476 21.7424 3.85687 21.933 4.56816L26.7643 22.5988C26.9549 23.3101 26.5328 24.0412 25.8215 24.2318L24.8088 24.5031C24.6298 24.5511 24.4403 24.5419 24.2669 24.4769L13.7928 20.553L11.217 21.2432L9.14648 13.5158Z" fill="#B0E0D4"/>
<path d="M12.7133 26.8254C12.84 27.2994 12.558 27.787 12.0839 27.914L11.0708 28.1855C10.6616 28.2951 10.2322 28.1002 10.0444 27.7204L7.35401 22.2792L6.49467 22.5095C5.54656 22.7633 4.57214 22.2007 4.31788 21.2527L3.16735 16.9589C2.91355 16.0107 3.47613 15.0363 4.42412 14.7821L9.14716 13.5165L12.7133 26.8254Z" fill="#02B585"/>
<path d="M23.6587 11.0092C23.9969 10.9186 24.3499 10.8956 24.697 10.9413C25.0442 10.987 25.3791 11.1007 25.6824 11.2758C25.9857 11.4509 26.2516 11.6841 26.4648 11.9619C26.6779 12.2397 26.8345 12.5569 26.9251 12.8951C27.0157 13.2333 27.0387 13.5862 26.993 13.9334C26.9473 14.2805 26.8336 14.6155 26.6585 14.9188C26.4834 15.222 26.2502 15.488 25.9724 15.7011C25.6946 15.9142 25.3774 16.0708 25.0392 16.1614L23.6587 11.0092Z" fill="#02B585"/>
</svg>
