<svg width="20" height="20" viewBox="0 0 20 20" fill="none" xmlns="http://www.w3.org/2000/svg">
<path d="M13.5 5.2296C13.5 3.44594 12.0289 2 10.2143 2H9.78571C7.97106 2 6.5 3.44594 6.5 5.2296V8" stroke="#333333" stroke-width="1.5" stroke-linecap="round"/>
<path d="M3.25 11C3.25 9.75736 4.25736 8.75 5.5 8.75H14.5C15.7426 8.75 16.75 9.75736 16.75 11V17C16.75 17.6904 16.1904 18.25 15.5 18.25H4.5C3.80964 18.25 3.25 17.6904 3.25 17V11Z" stroke="#333333" stroke-width="1.5"/>
<path fill-rule="evenodd" clip-rule="evenodd" d="M7.75 13.5C7.75 12.2574 8.75736 11.25 10 11.25C11.2426 11.25 12.25 12.2574 12.25 13.5C12.25 14.7426 11.2426 15.75 10 15.75C8.75736 15.75 7.75 14.7426 7.75 13.5ZM10.75 13.5C10.75 13.0858 10.4142 12.75 10 12.75C9.58579 12.75 9.25 13.0858 9.25 13.5C9.25 13.9142 9.58579 14.25 10 14.25C10.4142 14.25 10.75 13.9142 10.75 13.5Z" fill="#333333"/>
</svg>
