<svg width="20" height="20" viewBox="0 0 20 20" fill="none" xmlns="http://www.w3.org/2000/svg">
<path d="M11 15.25C11.4142 15.25 11.75 15.5858 11.75 16C11.75 16.4142 11.4142 16.75 11 16.75H9C8.58579 16.75 8.25 16.4142 8.25 16C8.25 15.5858 8.58579 15.25 9 15.25H11Z" fill="#333333"/>
<path fill-rule="evenodd" clip-rule="evenodd" d="M13 1C14.6569 1 16 2.34315 16 4V16C16 17.6569 14.6569 19 13 19H7C5.34315 19 4 17.6569 4 16V4C4 2.34315 5.34315 1 7 1H13ZM7 2.5C6.17157 2.5 5.5 3.17157 5.5 4V16C5.5 16.8284 6.17157 17.5 7 17.5H13C13.8284 17.5 14.5 16.8284 14.5 16V4C14.5 3.17157 13.8284 2.5 13 2.5H7Z" fill="#333333"/>
</svg>
