<svg width="28" height="28" viewBox="0 0 28 28" fill="none" xmlns="http://www.w3.org/2000/svg">
<path fill-rule="evenodd" clip-rule="evenodd" d="M14 2C19.5244 2 24 6.50671 24 12.0626C24 17.1422 20.9994 21.6795 15.1225 25.6494C14.5687 26.0235 13.8697 26.0935 13.2121 25.8231L13.0487 25.7484L12.87 25.6402L12.4894 25.3766C6.93209 21.4742 4.0653 17.0319 4 12.0626C4 6.10824 8.27288 2 14 2ZM14 4C9.36025 4 6 7.23078 5.99991 12.0494C6.05434 16.1854 8.44399 19.9871 13.2669 23.475L13.6332 23.736L13.9461 23.956L14.002 23.992L14.3734 23.7383C19.2494 20.3496 21.7525 16.6676 21.9825 12.6722L21.9957 12.3642L22 12.0626C22 7.60819 18.4167 4 14 4ZM14 8.28613C16.2198 8.28613 18 10.1512 18 12.4292C18 14.7072 16.2198 16.5723 14 16.5723C11.7802 16.5723 10 14.7072 10 12.4292C10 10.1512 11.7802 8.28613 14 8.28613ZM14 10.2861C12.9061 10.2861 12 11.2355 12 12.4292C12 13.6229 12.9061 14.5723 14 14.5723C15.0939 14.5723 16 13.6229 16 12.4292C16 11.2355 15.0939 10.2861 14 10.2861Z" fill="#333333"/>
</svg>
