<svg width="20" height="20" viewBox="0 0 20 20" fill="none" xmlns="http://www.w3.org/2000/svg">
<path fill-rule="evenodd" clip-rule="evenodd" d="M10 11.25C11.2426 11.25 12.25 12.2574 12.25 13.5C12.25 14.7426 11.2426 15.75 10 15.75C8.75736 15.75 7.75 14.7426 7.75 13.5C7.75 12.2574 8.75736 11.25 10 11.25ZM10 12.75C9.58579 12.75 9.25 13.0858 9.25 13.5C9.25 13.9142 9.58579 14.25 10 14.25C10.4142 14.25 10.75 13.9142 10.75 13.5C10.75 13.0858 10.4142 12.75 10 12.75Z" fill="#333333"/>
<path fill-rule="evenodd" clip-rule="evenodd" d="M10.2139 1.25C12.4305 1.25 14.2499 3.01954 14.25 5.22949C14.25 5.64371 13.9142 5.97949 13.5 5.97949C13.0858 5.97949 12.75 5.64371 12.75 5.22949C12.7499 3.87222 11.6265 2.75 10.2139 2.75H9.78613C8.3735 2.75 7.25006 3.87222 7.25 5.22949V8H14.5C16.1569 8 17.5 9.34315 17.5 11V17C17.5 18.1046 16.6046 19 15.5 19H4.5C3.39543 19 2.5 18.1046 2.5 17V11C2.5 9.34315 3.84315 8 5.5 8H5.75V5.22949C5.75006 3.01954 7.56954 1.25 9.78613 1.25H10.2139ZM5.5 9.5C4.67157 9.5 4 10.1716 4 11V17C4 17.2761 4.22386 17.5 4.5 17.5H15.5C15.7761 17.5 16 17.2761 16 17V11C16 10.1716 15.3284 9.5 14.5 9.5H5.5Z" fill="#333333"/>
</svg>
