<svg width="20" height="20" viewBox="0 0 20 20" fill="none" xmlns="http://www.w3.org/2000/svg">
<path fill-rule="evenodd" clip-rule="evenodd" d="M7.5 10.5C8.60457 10.5 9.5 11.3954 9.5 12.5V16C9.5 17.1046 8.60457 18 7.5 18H4C2.89543 18 2 17.1046 2 16V12.5C2 11.3954 2.89543 10.5 4 10.5H7.5ZM4.5 12C3.94772 12 3.5 12.4477 3.5 13V15.5C3.5 16.0523 3.94772 16.5 4.5 16.5H7C7.55228 16.5 8 16.0523 8 15.5V13C8 12.4477 7.55228 12 7 12H4.5Z" fill="#555555"/>
<path d="M15.5 13V15.5H13V13H15.5Z" fill="#555555"/>
<path fill-rule="evenodd" clip-rule="evenodd" d="M16 10.5C17.1046 10.5 18 11.3954 18 12.5V16C18 17.1046 17.1046 18 16 18H12.5C11.3954 18 10.5 17.1046 10.5 16V12.5C10.5 11.3954 11.3954 10.5 12.5 10.5H16ZM13 12C12.4477 12 12 12.4477 12 13V15.5C12 16.0523 12.4477 16.5 13 16.5H15.5C16.0523 16.5 16.5 16.0523 16.5 15.5V13C16.5 12.4477 16.0523 12 15.5 12H13Z" fill="#555555"/>
<path d="M7 7H4.5V4.5H7V7Z" fill="#555555"/>
<path fill-rule="evenodd" clip-rule="evenodd" d="M7.5 2C8.60457 2 9.5 2.89543 9.5 4V7.5C9.5 8.60457 8.60457 9.5 7.5 9.5H4C2.89543 9.5 2 8.60457 2 7.5V4C2 2.89543 2.89543 2 4 2H7.5ZM4.5 3.5C3.94772 3.5 3.5 3.94772 3.5 4.5V7C3.5 7.55228 3.94772 8 4.5 8H7C7.55228 8 8 7.55228 8 7V4.5C8 3.94772 7.55228 3.5 7 3.5H4.5Z" fill="#555555"/>
<path fill-rule="evenodd" clip-rule="evenodd" d="M16 2C17.1046 2 18 2.89543 18 4V7.5C18 8.60457 17.1046 9.5 16 9.5H12.5C11.3954 9.5 10.5 8.60457 10.5 7.5V4C10.5 2.89543 11.3954 2 12.5 2H16ZM13 3.5C12.4477 3.5 12 3.94772 12 4.5V7C12 7.55228 12.4477 8 13 8H15.5C16.0523 8 16.5 7.55228 16.5 7V4.5C16.5 3.94772 16.0523 3.5 15.5 3.5H13Z" fill="#555555"/>
</svg>
