<svg width="20" height="20" viewBox="0 0 20 20" fill="none" xmlns="http://www.w3.org/2000/svg">
<path fill-rule="evenodd" clip-rule="evenodd" d="M16 2C17.1046 2 18 2.89543 18 4V7.5C18 8.60457 17.1046 9.5 16 9.5H12.5C11.3954 9.5 10.5 8.60457 10.5 7.5V4C10.5 2.89543 11.3954 2 12.5 2H16ZM15.5 3.5C16.0523 3.5 16.5 3.94772 16.5 4.5V7C16.5 7.55228 16.0523 8 15.5 8H13C12.4477 8 12 7.55228 12 7V4.5C12 3.94772 12.4477 3.5 13 3.5H15.5Z" fill="#555555"/>
<path fill-rule="evenodd" clip-rule="evenodd" d="M7.5 10.5C8.60457 10.5 9.5 11.3954 9.5 12.5V16C9.5 17.1046 8.60457 18 7.5 18H4C2.89543 18 2 17.1046 2 16V12.5C2 11.3954 2.89543 10.5 4 10.5H7.5ZM7 12C7.55228 12 8 12.4477 8 13V15.5C8 16.0523 7.55228 16.5 7 16.5H4.5C3.94772 16.5 3.5 16.0523 3.5 15.5V13C3.5 12.4477 3.94772 12 4.5 12H7Z" fill="#555555"/>
<path fill-rule="evenodd" clip-rule="evenodd" d="M7.5 2C8.60457 2 9.5 2.89543 9.5 4V7.5C9.5 8.60457 8.60457 9.5 7.5 9.5H4C2.89543 9.5 2 8.60457 2 7.5V4C2 2.89543 2.89543 2 4 2H7.5ZM7 3.5C7.55228 3.5 8 3.94772 8 4.5V7C8 7.55228 7.55228 8 7 8H4.5C3.94772 8 3.5 7.55228 3.5 7V4.5C3.5 3.94772 3.94772 3.5 4.5 3.5H7Z" fill="#555555"/>
<rect width="2.5" height="2.5" transform="matrix(-1 0 0 1 7 4.5)" fill="#555555"/>
<path fill-rule="evenodd" clip-rule="evenodd" d="M16 10.5C17.1046 10.5 18 11.3954 18 12.5V16C18 17.1046 17.1046 18 16 18H12.5C11.3954 18 10.5 17.1046 10.5 16V12.5C10.5 11.3954 11.3954 10.5 12.5 10.5H16ZM15.5 12C16.0523 12 16.5 12.4477 16.5 13V15.5C16.5 16.0523 16.0523 16.5 15.5 16.5H13C12.4477 16.5 12 16.0523 12 15.5V13C12 12.4477 12.4477 12 13 12H15.5Z" fill="#555555"/>
<rect width="2.5" height="2.5" transform="matrix(-1 0 0 1 15.5 13)" fill="#555555"/>
</svg>
