<svg width="20" height="20" viewBox="0 0 20 20" fill="none" xmlns="http://www.w3.org/2000/svg">
<path opacity="0.2" d="M5.83301 9.99967C5.83301 7.69849 7.69849 5.83301 9.99967 5.83301C12.3009 5.83301 14.1663 7.69849 14.1663 9.99967C14.1663 12.3009 12.3009 14.1663 9.99967 14.1663C7.69849 14.1663 5.83301 12.3009 5.83301 9.99967Z" fill="#555555"/>
<path fill-rule="evenodd" clip-rule="evenodd" d="M9.99951 5.29167C7.39917 5.29167 5.29118 7.39966 5.29118 10C5.29118 12.6003 7.39917 14.7083 9.99951 14.7083C12.5999 14.7083 14.7078 12.6003 14.7078 10C14.7078 7.39966 12.5999 5.29167 9.99951 5.29167ZM6.37451 10C6.37451 7.99797 7.99748 6.375 9.99951 6.375C12.0015 6.375 13.6245 7.99797 13.6245 10C13.6245 12.002 12.0015 13.625 9.99951 13.625C7.99748 13.625 6.37451 12.002 6.37451 10Z" fill="#555555"/>
<path fill-rule="evenodd" clip-rule="evenodd" d="M9.99951 1.125C5.09798 1.125 1.12451 5.09847 1.12451 10C1.12451 14.9015 5.09798 18.875 9.99951 18.875C14.901 18.875 18.8745 14.9015 18.8745 10C18.8745 5.09847 14.901 1.125 9.99951 1.125ZM2.20785 10C2.20785 5.69678 5.69629 2.20833 9.99951 2.20833C14.3027 2.20833 17.7912 5.69678 17.7912 10C17.7912 14.3032 14.3027 17.7917 9.99951 17.7917C5.69629 17.7917 2.20785 14.3032 2.20785 10Z" fill="#555555"/>
</svg>
