<svg width="20" height="20" viewBox="0 0 20 20" fill="none" xmlns="http://www.w3.org/2000/svg">
<path fill-rule="evenodd" clip-rule="evenodd" d="M15.8333 1.875H4.16667C2.90101 1.875 1.875 2.90101 1.875 4.16667V6.66667C1.875 7.93232 2.90101 8.95833 4.16667 8.95833H15.8333C17.099 8.95833 18.125 7.93232 18.125 6.66667V4.16667C18.125 2.90101 17.099 1.875 15.8333 1.875ZM4.16667 3.125H15.8333C16.4086 3.125 16.875 3.59137 16.875 4.16667V6.66667C16.875 7.24196 16.4086 7.70833 15.8333 7.70833H4.16667C3.59137 7.70833 3.125 7.24196 3.125 6.66667V4.16667C3.125 3.59137 3.59137 3.125 4.16667 3.125ZM15.8333 11.0417H4.16667C2.90101 11.0417 1.875 12.0677 1.875 13.3333V15.8333C1.875 17.099 2.90101 18.125 4.16667 18.125H15.8333C17.099 18.125 18.125 17.099 18.125 15.8333V13.3333C18.125 12.0677 17.099 11.0417 15.8333 11.0417ZM4.16667 12.2917H15.8333C16.4086 12.2917 16.875 12.758 16.875 13.3333V15.8333C16.875 16.4086 16.4086 16.875 15.8333 16.875H4.16667C3.59137 16.875 3.125 16.4086 3.125 15.8333V13.3333C3.125 12.758 3.59137 12.2917 4.16667 12.2917Z" fill="#555555"/>
</svg>
