<svg width="20" height="20" viewBox="0 0 20 20" fill="none" xmlns="http://www.w3.org/2000/svg">
<path fill-rule="evenodd" clip-rule="evenodd" d="M7.77734 13.0557C8.86553 13.0557 9.78839 13.7521 10.1318 14.7227H17.2783C17.5542 14.723 17.7783 14.9467 17.7783 15.2227V15.8887C17.7783 16.1646 17.5542 16.3883 17.2783 16.3887H10.1318C9.78839 17.3592 8.86553 18.0557 7.77734 18.0557C6.68937 18.0555 5.76722 17.3591 5.42383 16.3887H2.72266C2.44651 16.3887 2.22168 16.1648 2.22168 15.8887V15.2217C2.22194 14.9458 2.44668 14.7227 2.72266 14.7227H5.42383C5.76722 13.7523 6.68937 13.0559 7.77734 13.0557ZM7.77734 14.7227C7.31733 14.7229 6.94434 15.0956 6.94434 15.5557C6.94434 16.0157 7.31733 16.3884 7.77734 16.3887C8.23758 16.3887 8.61133 16.0159 8.61133 15.5557C8.61133 15.0954 8.23758 14.7227 7.77734 14.7227Z" fill="#555555"/>
<path fill-rule="evenodd" clip-rule="evenodd" d="M13.333 7.5C14.4212 7.5 15.3441 8.19646 15.6875 9.16699H17.2783C17.5542 9.16732 17.7783 9.39105 17.7783 9.66699V10.333C17.7783 10.609 17.5542 10.8327 17.2783 10.833H15.6875C15.3441 11.8035 14.4212 12.5 13.333 12.5C12.245 12.4998 11.3229 11.8034 10.9795 10.833H2.72266C2.44651 10.833 2.22168 10.6092 2.22168 10.333V9.66602C2.22194 9.3901 2.44668 9.16699 2.72266 9.16699H10.9795C11.3229 8.19661 12.245 7.50021 13.333 7.5ZM13.333 9.16699C12.873 9.16726 12.5 9.53993 12.5 10C12.5 10.4601 12.873 10.8327 13.333 10.833C13.7932 10.833 14.167 10.4602 14.167 10C14.167 9.53976 13.7932 9.16699 13.333 9.16699Z" fill="#555555"/>
<path fill-rule="evenodd" clip-rule="evenodd" d="M6.66602 1.94434C7.75426 1.94434 8.6771 2.64072 9.02051 3.61133H17.2783C17.5542 3.61165 17.7783 3.83543 17.7783 4.11133V4.77734C17.7783 5.05329 17.5542 5.27702 17.2783 5.27734H9.02051C8.6771 6.24795 7.75426 6.94434 6.66602 6.94434C5.57798 6.94413 4.655 6.24782 4.31152 5.27734H2.72266C2.44654 5.27731 2.22168 5.05347 2.22168 4.77734V4.11035C2.222 3.8345 2.44674 3.61136 2.72266 3.61133H4.31152C4.655 2.64085 5.57798 1.94454 6.66602 1.94434ZM6.66602 3.61133C6.206 3.61159 5.83301 3.98426 5.83301 4.44434C5.83301 4.90441 6.206 5.27708 6.66602 5.27734C7.12625 5.27734 7.5 4.90457 7.5 4.44434C7.5 3.9841 7.12625 3.61133 6.66602 3.61133Z" fill="#555555"/>
</svg>
