<svg width="20" height="20" viewBox="0 0 20 20" fill="none" xmlns="http://www.w3.org/2000/svg">
<rect x="2.22217" y="3.61084" width="15.5556" height="1.66667" rx="0.5" fill="#555555"/>
<rect x="2.22217" y="9.1665" width="15.5556" height="1.66667" rx="0.5" fill="#555555"/>
<rect x="2.22217" y="14.7222" width="15.5556" height="1.66667" rx="0.5" fill="#555555"/>
<path d="M8.33333 4.4445C8.33333 5.36497 7.58714 6.11117 6.66667 6.11117C5.74619 6.11117 5 5.36497 5 4.4445C5 3.52402 5.74619 2.77783 6.66667 2.77783C7.58714 2.77783 8.33333 3.52402 8.33333 4.4445Z" fill="white"/>
<path fill-rule="evenodd" clip-rule="evenodd" d="M6.6665 3.611C6.20627 3.611 5.83317 3.9841 5.83317 4.44434C5.83317 4.90457 6.20627 5.27767 6.6665 5.27767C7.12674 5.27767 7.49984 4.90457 7.49984 4.44434C7.49984 3.9841 7.12674 3.611 6.6665 3.611ZM4.1665 4.44434C4.1665 3.06362 5.28579 1.94434 6.6665 1.94434C8.04722 1.94434 9.1665 3.06362 9.1665 4.44434C9.1665 5.82505 8.04722 6.94434 6.6665 6.94434C5.28579 6.94434 4.1665 5.82505 4.1665 4.44434Z" fill="#555555"/>
<path d="M14.9998 9.99967C14.9998 10.9201 14.2536 11.6663 13.3332 11.6663C12.4127 11.6663 11.6665 10.9201 11.6665 9.99967C11.6665 9.0792 12.4127 8.33301 13.3332 8.33301C14.2536 8.33301 14.9998 9.0792 14.9998 9.99967Z" fill="white"/>
<path fill-rule="evenodd" clip-rule="evenodd" d="M13.3335 9.16667C12.8733 9.16667 12.5002 9.53976 12.5002 10C12.5002 10.4602 12.8733 10.8333 13.3335 10.8333C13.7937 10.8333 14.1668 10.4602 14.1668 10C14.1668 9.53976 13.7937 9.16667 13.3335 9.16667ZM10.8335 10C10.8335 8.61929 11.9528 7.5 13.3335 7.5C14.7142 7.5 15.8335 8.61929 15.8335 10C15.8335 11.3807 14.7142 12.5 13.3335 12.5C11.9528 12.5 10.8335 11.3807 10.8335 10Z" fill="#555555"/>
<path d="M9.44466 15.5553C9.44466 16.4758 8.69847 17.222 7.77799 17.222C6.85752 17.222 6.11133 16.4758 6.11133 15.5553C6.11133 14.6349 6.85752 13.8887 7.77799 13.8887C8.69847 13.8887 9.44466 14.6349 9.44466 15.5553Z" fill="white"/>
<path fill-rule="evenodd" clip-rule="evenodd" d="M7.77783 14.7223C7.31759 14.7223 6.9445 15.0954 6.9445 15.5557C6.9445 16.0159 7.31759 16.389 7.77783 16.389C8.23807 16.389 8.61117 16.0159 8.61117 15.5557C8.61117 15.0954 8.23807 14.7223 7.77783 14.7223ZM5.27783 15.5557C5.27783 14.175 6.39712 13.0557 7.77783 13.0557C9.15854 13.0557 10.2778 14.175 10.2778 15.5557C10.2778 16.9364 9.15854 18.0557 7.77783 18.0557C6.39712 18.0557 5.27783 16.9364 5.27783 15.5557Z" fill="#555555"/>
</svg>
