<svg width="20" height="20" viewBox="0 0 20 20" fill="none" xmlns="http://www.w3.org/2000/svg">
<path fill-rule="evenodd" clip-rule="evenodd" d="M10.4051 17H9.59491C9.15361 17 8.77591 16.6847 8.69648 16.2504L8.5793 15.6043C8.0403 15.4679 7.52565 15.254 7.04417 14.9657L6.50213 15.3413C6.14757 15.586 5.64083 15.54 5.33678 15.236L4.764 14.6632C4.45174 14.3513 4.40761 13.861 4.6587 13.4979L5.03396 12.9561C4.74604 12.4743 4.53209 11.9594 4.39604 11.4207L3.74991 11.3035C3.3153 11.2244 3 10.8467 3 10.4051V9.59491C3 9.1533 3.3153 8.7753 3.74991 8.69678L4.39604 8.5793C4.53209 8.0403 4.74604 7.52565 5.03396 7.04387L4.6587 6.50213C4.40761 6.13874 4.45174 5.64874 4.764 5.33678L5.33678 4.764C5.64083 4.45996 6.14787 4.4137 6.50213 4.6587L7.04417 5.03426C7.52565 4.74604 8.04061 4.53209 8.5793 4.39574L8.69648 3.74991C8.77591 3.3153 9.15361 3 9.59491 3H10.4051C10.8464 3 11.2244 3.3153 11.3035 3.74961L11.421 4.39574C11.9597 4.53209 12.4743 4.74604 12.9561 5.03426L13.4979 4.6587C13.8524 4.4137 14.3595 4.45996 14.6632 4.764L15.2363 5.33678C15.5486 5.64874 15.5927 6.13874 15.3413 6.50213L14.966 7.04387C15.254 7.52565 15.4679 8.0403 15.6043 8.5793L16.2504 8.69648C16.6847 8.7753 17 9.1533 17 9.59491V10.4051C17 10.8467 16.6847 11.2244 16.2504 11.3032L15.6043 11.4207C15.4679 11.9594 15.254 12.4743 14.966 12.9561L15.3413 13.4979C15.5927 13.861 15.5486 14.3513 15.2363 14.6632L14.6632 15.236C14.491 15.4083 14.2615 15.5035 14.0174 15.5035C13.8311 15.5035 13.6516 15.4472 13.4982 15.3413L12.9561 14.9657C12.4747 15.254 11.9597 15.4679 11.421 15.6043L11.3035 16.2501C11.2244 16.6847 10.8464 17 10.4051 17ZM10 8C8.89714 8 8 8.89743 8 10C8 11.1026 8.89714 12 10 12C11.1029 12 12 11.1026 12 10C12 8.89743 11.1029 8 10 8Z" fill="#999999"/>
</svg>
