<svg width="24" height="24" viewBox="0 0 24 24" fill="none" xmlns="http://www.w3.org/2000/svg">
<path d="M17 12C17 11.4477 17.4477 11 18 11C18.5523 11 19 11.4477 19 12V19.8C19 19.9105 18.9105 20 18.8 20H17.2C17.0895 20 17 19.9105 17 19.8V12Z" fill="#333333"/>
<path d="M9 15C9 14.4477 9.44772 14 10 14C10.5523 14 11 14.4477 11 15V19.8C11 19.9105 10.9105 20 10.8 20H9.2C9.08954 20 9 19.9105 9 19.8V15Z" fill="#333333"/>
<path d="M5 17C5 16.4477 5.44772 16 6 16C6.55228 16 7 16.4477 7 17V19.8C7 19.9105 6.91046 20 6.8 20H5.2C5.08954 20 5 19.9105 5 19.8V17Z" fill="#333333"/>
<path d="M13 16C13 15.4477 13.4477 15 14 15C14.5523 15 15 15.4477 15 16V19.8C15 19.9105 14.9105 20 14.8 20H13.2C13.0895 20 13 19.9105 13 19.8V16Z" fill="#333333"/>
<path fill-rule="evenodd" clip-rule="evenodd" d="M20.4936 4.15469C20.5795 3.55162 20.1109 3.01252 19.5018 3.01367L16.542 3.01927C15.6852 3.02089 15.2271 4.02879 15.7892 4.67539L16.2961 5.25858L12.234 8.78963L10.2543 6.51221C9.85971 6.05834 9.17193 6.01025 8.71805 6.40479L4.04904 10.4634C3.63222 10.8258 3.58805 11.4574 3.95039 11.8742L4.06705 12.0084C4.42938 12.4252 5.061 12.4694 5.47781 12.1071L9.32502 8.76279L11.3048 11.0402C11.6993 11.4941 12.3871 11.5422 12.841 11.1476L17.7249 6.90221L18.3317 7.60021C18.8937 8.2468 19.9555 7.93331 20.0763 7.0851L20.4936 4.15469Z" fill="#333333"/>
</svg>
