<svg width="28" height="28" viewBox="0 0 28 28" fill="none" xmlns="http://www.w3.org/2000/svg">
<path fill-rule="evenodd" clip-rule="evenodd" d="M14.6366 2C15.7572 2 16.7249 2.76278 16.9968 3.83584L17.0323 3.99907L17.106 4.407L17.2745 4.46115C17.5362 4.55121 17.794 4.65217 18.0475 4.76387L18.4247 4.93947L18.584 5.022L18.9282 4.78382C19.779 4.19589 20.9317 4.22829 21.7517 4.82305L21.9014 4.94115L22.0348 5.06471L22.9352 5.96464C23.7242 6.75281 23.8714 7.9676 23.3148 8.9171L23.2155 9.07277L22.978 9.415L23.061 9.57595C23.1833 9.82524 23.295 10.0789 23.3959 10.3366L23.539 10.7262L23.592 10.893L24.0006 10.9677C25.0456 11.1573 25.8325 11.9967 25.9764 13.0237L25.9943 13.1965L26 13.3634V14.6366C26 15.7578 25.237 16.7253 24.1641 16.9964L24.0009 17.0318L23.592 17.105L23.5389 17.2739C23.4489 17.5356 23.348 17.7934 23.2363 18.0471L23.0609 18.4242L22.977 18.584L23.2156 18.9274C23.8132 19.7905 23.7843 20.9239 23.1808 21.7491L23.0609 21.9L22.9354 22.0352L22.035 22.9351C21.5766 23.3935 20.9616 23.6484 20.313 23.6484C19.8794 23.6484 19.4574 23.5334 19.0844 23.3152L18.9276 23.2155L18.584 22.977L18.4253 23.0603C18.1761 23.1827 17.9224 23.2945 17.6646 23.3955L17.2749 23.5387L17.106 23.592L17.0322 24.0007C16.842 25.0456 16.0028 25.8325 14.9762 25.9764L14.8035 25.9943L14.6366 26H13.3634C12.243 26 11.2759 25.2375 11.0033 24.1638L10.9677 24.0005L10.893 23.592L10.7257 23.5389C10.464 23.4488 10.2061 23.3478 9.95252 23.2361L9.57539 23.0605L9.415 22.977L9.07134 23.2165C8.22054 23.8037 7.06873 23.7714 6.24829 23.1767L6.09849 23.0587L5.96498 22.9351L5.06524 22.0354C4.27645 21.2473 4.12901 20.0322 4.68525 19.0829L4.78448 18.9272L5.021 18.584L4.93899 18.4239C4.81665 18.1746 4.70498 17.9208 4.60415 17.663L4.46107 17.2734L4.407 17.106L3.99931 17.0322C2.95424 16.8419 2.16744 16.0031 2.02362 14.9763L2.00566 14.8035L2 14.6366V13.3634C2 12.2418 2.76344 11.2738 3.83635 11.0035L3.99955 10.9682L4.407 10.894L4.46095 10.7267C4.55087 10.4651 4.65173 10.2072 4.76335 9.95357L4.93885 9.57627L5.021 9.415L4.78381 9.07181C4.18719 8.20833 4.21634 7.07567 4.81961 6.25097L4.93944 6.10009L5.06489 5.96498L5.96498 5.06489C6.74144 4.28844 7.97938 4.13908 8.91914 4.68679L9.07287 4.78455L9.415 5.022L9.5752 4.93967C9.82441 4.81726 10.0781 4.70549 10.3359 4.60454L10.7256 4.46126L10.893 4.407L10.9679 3.99864C11.1588 2.95398 11.9975 2.1674 13.0238 2.02361L13.1966 2.00566L13.3634 2H14.6366ZM14.6366 4H13.3634C13.1794 4 13.0188 4.11491 12.9562 4.28222L12.9355 4.35695L12.6366 6.00487L12.0128 6.16273C11.3675 6.32607 10.7473 6.56899 10.1597 6.88856L9.86875 7.05471L9.31556 7.38586L7.93454 6.42899C7.79828 6.33475 7.58789 6.33859 7.4446 6.42758L7.37919 6.47911L6.47876 7.37954C6.35136 7.50682 6.3177 7.69617 6.38593 7.85656L6.42856 7.93392L7.38504 9.31472L7.05462 9.86763C6.71884 10.4295 6.45556 11.0221 6.2673 11.6391L6.16337 12.0122L6.00587 12.6362L4.35623 12.9362C4.17549 12.9688 4.03831 13.1102 4.00683 13.2861L4 13.3634V14.6366C4 14.8209 4.11474 14.9814 4.2821 15.0439L4.35687 15.0644L6.0057 15.3635L6.16334 15.9877C6.32611 16.6322 6.56881 17.2524 6.88842 17.8408L7.05462 18.1324L7.38504 18.6853L6.42901 20.0654C6.32626 20.214 6.32705 20.4066 6.42315 20.5523L6.47911 20.6208L7.37919 21.5209C7.49611 21.6378 7.70372 21.6718 7.86039 21.6103L7.93383 21.5715L9.31556 20.6141L9.86875 20.9453C10.4455 21.2905 11.0556 21.5593 11.6922 21.749L12.0127 21.8372L12.6366 21.9951L12.9353 23.6421C12.9685 23.8239 13.1104 23.9616 13.2862 23.9931L13.3634 24H14.6366C14.8207 24 14.9814 23.8851 15.0439 23.7175L15.0645 23.6426L15.3642 21.9951L15.9876 21.8373C16.6329 21.6739 17.2532 21.431 17.8407 21.1114L18.1317 20.9453L18.6849 20.6141L20.0653 21.5706C20.1399 21.6221 20.224 21.6484 20.313 21.6484C20.4015 21.6484 20.4835 21.6236 20.5542 21.5759L20.621 21.5207L21.5217 20.6205C21.649 20.4933 21.6826 20.3039 21.6142 20.1435L21.5714 20.0661L20.615 18.6853L20.9454 18.1324C21.2809 17.571 21.5443 16.9781 21.733 16.3606L21.8373 15.9872L21.9951 15.3637L23.6435 15.064C23.8245 15.0311 23.9617 14.8897 23.9932 14.7138L24 14.6366V13.3634C24 13.179 23.8852 13.0184 23.7182 12.9561L23.6436 12.9356L21.9951 12.6366L21.8372 12.0127C21.6786 11.3857 21.4447 10.7821 21.1381 10.2083L20.9454 9.86763L20.615 9.31472L21.5711 7.93442C21.6741 7.78551 21.6734 7.59327 21.5774 7.4478L21.5216 7.37938L20.6205 6.47875C20.5038 6.36203 20.2963 6.32806 20.1398 6.38957L20.0664 6.42835L18.6852 7.38584L18.132 7.05486C17.5707 6.71912 16.9783 6.45567 16.361 6.26697L15.9876 6.16273L15.3642 6.00493L15.0646 4.35721C15.0316 4.17598 14.8897 4.03841 14.7138 4.00685L14.6366 4ZM14 10C16.2064 10 18 11.7937 18 14C18 16.2063 16.2064 18 14 18C11.7936 18 10 16.2063 10 14C10 11.7937 11.7936 10 14 10ZM14 12C12.8982 12 12 12.8983 12 14C12 15.1017 12.8982 16 14 16C15.1018 16 16 15.1017 16 14C16 12.8983 15.1018 12 14 12Z" fill="#333333"/>
</svg>
