<svg width="24" height="24" viewBox="0 0 24 24" fill="none" xmlns="http://www.w3.org/2000/svg">
<path fill-rule="evenodd" clip-rule="evenodd" d="M19.5 5.5V18.5C19.5 19.0523 19.0523 19.5 18.5 19.5C17.9477 19.5 17.5 19.0523 17.5 18.5V5.5C17.5 4.94772 17.9477 4.5 18.5 4.5C19.0523 4.5 19.5 4.94772 19.5 5.5ZM16 5.5C16 4.11929 17.1193 3 18.5 3C19.8807 3 21 4.11929 21 5.5V18.5C21 19.8807 19.8807 21 18.5 21C17.1193 21 16 19.8807 16 18.5V5.5ZM6.5 18.5V9.5C6.5 8.94772 6.05228 8.5 5.5 8.5C4.94772 8.5 4.5 8.94772 4.5 9.5V18.5C4.5 19.0523 4.94772 19.5 5.5 19.5C6.05228 19.5 6.5 19.0523 6.5 18.5ZM5.5 7C4.11929 7 3 8.11929 3 9.5V18.5C3 19.8807 4.11929 21 5.5 21C6.88071 21 8 19.8807 8 18.5V9.5C8 8.11929 6.88071 7 5.5 7ZM13 18.5V11.5C13 10.9477 12.5523 10.5 12 10.5C11.4477 10.5 11 10.9477 11 11.5V18.5C11 19.0523 11.4477 19.5 12 19.5C12.5523 19.5 13 19.0523 13 18.5ZM12 9C10.6193 9 9.5 10.1193 9.5 11.5V18.5C9.5 19.8807 10.6193 21 12 21C13.3807 21 14.5 19.8807 14.5 18.5V11.5C14.5 10.1193 13.3807 9 12 9Z" fill="#999999"/>
</svg>
