<svg width="32" height="32" viewBox="0 0 32 32" fill="none" xmlns="http://www.w3.org/2000/svg">
<path fill-rule="evenodd" clip-rule="evenodd" d="M17.2197 3.2002C17.5561 3.20028 17.8289 3.47417 17.8291 3.81055V5.29297C17.8293 5.58807 18.0414 5.83864 18.3291 5.9043C18.5671 5.95845 18.8027 6.02061 19.0342 6.09082C19.3163 6.17628 19.6248 6.06562 19.7725 5.81055L20.5127 4.5293C20.6809 4.23829 21.0534 4.13804 21.3447 4.30566L23.457 5.52441C23.7485 5.69261 23.8486 6.06592 23.6807 6.35742L22.9385 7.6416C22.7907 7.89716 22.8485 8.22052 23.0645 8.42188C23.2419 8.58739 23.4136 8.75902 23.5791 8.93652C23.7802 9.15218 24.103 9.21075 24.3584 9.06348L25.6445 8.32129C25.9358 8.15364 26.3083 8.25394 26.4766 8.54492L27.6963 10.6562C27.8645 10.9477 27.764 11.3209 27.4727 11.4893L26.1914 12.2285C25.9357 12.376 25.8242 12.6854 25.9102 12.9678C25.9807 13.1991 26.0432 13.434 26.0977 13.6719C26.1635 13.9598 26.4146 14.1719 26.71 14.1719H28.1904C28.5268 14.172 28.7996 14.4458 28.7998 14.7822V17.2197C28.7998 17.5563 28.527 17.829 28.1904 17.8291H26.71C26.4146 17.8291 26.1636 18.0421 26.0977 18.3301C26.0432 18.5677 25.9806 18.8022 25.9102 19.0332C25.8241 19.3155 25.9348 19.6249 26.1904 19.7725L27.4727 20.5117C27.7639 20.68 27.8633 21.0533 27.6953 21.3447L26.4766 23.4561C26.3082 23.7475 25.9351 23.847 25.6436 23.6787L24.3594 22.9375C24.1039 22.7901 23.7812 22.8488 23.5801 23.0645C23.4145 23.242 23.242 23.4135 23.0645 23.5791C22.8489 23.7802 22.7912 24.103 22.9385 24.3584L23.6807 25.6436C23.8488 25.935 23.7484 26.3082 23.457 26.4766L21.3467 27.6943C21.0552 27.8626 20.682 27.7631 20.5137 27.4717L19.7734 26.1914C19.6259 25.936 19.3174 25.8246 19.0352 25.9102C18.8034 25.9806 18.5674 26.0433 18.3291 26.0977C18.0414 26.1634 17.8292 26.4138 17.8291 26.709V28.1914C17.8291 28.528 17.5563 28.8007 17.2197 28.8008H14.7812C14.4447 28.8007 14.1719 28.528 14.1719 28.1914V26.709C14.1718 26.4137 13.9597 26.1624 13.6719 26.0967C13.434 26.0424 13.1991 25.9805 12.9678 25.9102C12.6853 25.8243 12.3761 25.9357 12.2285 26.1914L11.4893 27.4727C11.3209 27.7641 10.9477 27.8637 10.6562 27.6953L8.54492 26.4756C8.25395 26.3071 8.15416 25.9348 8.32227 25.6436L9.06348 24.3584C9.21046 24.103 9.15187 23.7803 8.93652 23.5791C8.75911 23.4134 8.58729 23.2412 8.42188 23.0635C8.22078 22.8477 7.89802 22.7899 7.64258 22.9375L6.3584 23.6787C6.0669 23.847 5.69374 23.7475 5.52539 23.4561L4.30664 21.3447C4.13865 21.0533 4.23803 20.68 4.5293 20.5117L5.81055 19.7725C6.06602 19.6249 6.17744 19.3155 6.0918 19.0332C6.02168 18.8022 5.95938 18.5677 5.90527 18.3301C5.83968 18.042 5.58838 17.8291 5.29297 17.8291H3.80957C3.473 17.829 3.2002 17.5563 3.2002 17.2197V14.7822C3.20043 14.4458 3.47315 14.172 3.80957 14.1719H5.29297C5.58836 14.1719 5.8395 13.9599 5.90527 13.6719C5.95953 13.4343 6.02152 13.1998 6.0918 12.9688C6.17769 12.6864 6.06709 12.3771 5.81152 12.2295L4.5293 11.4893C4.23794 11.3209 4.13746 10.9477 4.30566 10.6562L5.52539 8.54395C5.69376 8.25275 6.06701 8.15223 6.3584 8.32031L7.64355 9.0625C7.89898 9.21 8.22175 9.15228 8.42285 8.93652C8.58821 8.75902 8.76017 8.5874 8.9375 8.42188C9.15309 8.22058 9.21094 7.89706 9.06348 7.6416L8.32227 6.35742C8.15429 6.06591 8.25444 5.69261 8.5459 5.52441L10.6582 4.30566C10.9495 4.13804 11.322 4.2383 11.4902 4.5293L12.2295 5.80957C12.3771 6.06516 12.6863 6.17652 12.9688 6.09082C13.1997 6.02075 13.4344 5.95837 13.6719 5.9043C13.9596 5.83862 14.1717 5.5881 14.1719 5.29297V3.81055C14.1721 3.47416 14.4448 3.20027 14.7812 3.2002H17.2197ZM16.001 8.99023C12.1299 8.99044 8.99223 12.1289 8.99219 16C8.99219 19.8711 12.1299 23.0096 16.001 23.0098C19.8722 23.0098 23.0107 19.8713 23.0107 16C23.0107 12.1288 19.8722 8.99023 16.001 8.99023Z" fill="#B0E0D4"/>
<path d="M12.0518 8.27166C12.3068 8.12442 12.633 8.21203 12.7803 8.46698L15.3233 12.8713C15.5414 12.8243 15.7679 12.8 16 12.8C17.3935 12.8 18.5784 13.6907 19.0176 14.9338H24C24.2946 14.9338 24.5332 15.1724 24.5332 15.467V16.5334C24.5332 16.8279 24.2946 17.0666 24 17.0666H19.0176C18.5782 18.3093 17.3932 19.1994 16 19.1994C15.7681 19.1994 15.5422 19.174 15.3243 19.1271L12.7813 23.5334C12.6341 23.7884 12.3078 23.8758 12.0528 23.7287L11.1289 23.1955C10.8739 23.0483 10.7866 22.722 10.9336 22.467L13.5088 18.0051C13.0666 17.4563 12.7999 16.7598 12.7998 16.0002C12.7998 15.2406 13.0657 14.5431 13.5078 13.9943L10.9327 9.53338C10.7857 9.27836 10.873 8.95206 11.128 8.80487L12.0518 8.27166Z" fill="#02B585"/>
</svg>
