<svg width="20" height="20" viewBox="0 0 20 20" fill="none" xmlns="http://www.w3.org/2000/svg">
<path fill-rule="evenodd" clip-rule="evenodd" d="M9 1C13.4183 1 17 4.58172 17 9C17 10.8486 16.3703 12.5487 15.3174 13.9033L19.207 17.793L19.2754 17.8691C19.5957 18.2619 19.5731 18.8409 19.207 19.207C18.8409 19.5731 18.2619 19.5957 17.8691 19.2754L17.793 19.207L13.9033 15.3174C12.5487 16.3703 10.8486 17 9 17C4.58172 17 1 13.4183 1 9C1 4.58172 4.58172 1 9 1ZM9 3C5.68629 3 3 5.68629 3 9C3 12.3137 5.68629 15 9 15C12.3137 15 15 12.3137 15 9C15 5.68629 12.3137 3 9 3Z" fill="#555555"/>
</svg>
