<svg width="24" height="24" viewBox="0 0 24 24" fill="none" xmlns="http://www.w3.org/2000/svg">
<path d="M17 12C17 11.4477 17.4477 11 18 11C18.5523 11 19 11.4477 19 12V19.8C19 19.9105 18.9105 20 18.8 20H17.2C17.0895 20 17 19.9105 17 19.8V12Z" fill="#333333"/>
<path d="M9 15C9 14.4477 9.44772 14 10 14C10.5523 14 11 14.4477 11 15V19.8C11 19.9105 10.9105 20 10.8 20H9.2C9.08954 20 9 19.9105 9 19.8V15Z" fill="#333333"/>
<path d="M5 17C5 16.4477 5.44772 16 6 16C6.55228 16 7 16.4477 7 17V19.8C7 19.9105 6.91046 20 6.8 20H5.2C5.08954 20 5 19.9105 5 19.8V17Z" fill="#333333"/>
<path d="M13 16C13 15.4477 13.4477 15 14 15C14.5523 15 15 15.4477 15 16V19.8C15 19.9105 14.9105 20 14.8 20H13.2C13.0895 20 13 19.9105 13 19.8V16Z" fill="#333333"/>
<path fill-rule="evenodd" clip-rule="evenodd" d="M20.4931 4.1545C20.579 3.55143 20.1104 3.01233 19.5013 3.01349L16.5415 3.01908C15.6847 3.0207 15.2266 4.02861 15.7887 4.6752L16.2956 5.25839L12.2335 8.78945L10.2538 6.51202C9.85922 6.05815 9.17143 6.01006 8.71756 6.4046L4.04855 10.4632C3.63173 10.8256 3.58756 11.4572 3.94989 11.874L4.06656 12.0082C4.42889 12.425 5.06051 12.4692 5.47732 12.1069L9.32453 8.76261L11.3043 11.04C11.6989 11.4939 12.3866 11.542 12.8405 11.1475L17.7244 6.90202L18.3312 7.60002C18.8932 8.24662 19.955 7.93312 20.0758 7.08491L20.4931 4.1545Z" fill="#333333"/>
</svg>
