<svg width="28" height="28" viewBox="0 0 28 28" fill="none" xmlns="http://www.w3.org/2000/svg">
<path fill-rule="evenodd" clip-rule="evenodd" d="M10 15C11.5977 15 12.9037 16.2489 12.9949 17.8237L13 18V21C13 22.5977 11.7511 23.9037 10.1763 23.9949L10 24H7C5.40232 24 4.09634 22.7511 4.00509 21.1763L4 21V18C4 16.4023 5.24892 15.0963 6.82373 15.0051L7 15H10ZM21 15C22.5977 15 23.9037 16.2489 23.9949 17.8237L24 18V21C24 22.5977 22.7511 23.9037 21.1763 23.9949L21 24H18C16.4023 24 15.0963 22.7511 15.0051 21.1763L15 21V18C15 16.4023 16.2489 15.0963 17.8237 15.0051L18 15H21ZM10 17H7C6.48716 17 6.06449 17.386 6.00673 17.8834L6 18V21C6 21.5128 6.38604 21.9355 6.88338 21.9933L7 22H10C10.5128 22 10.9355 21.614 10.9933 21.1166L11 21V18C11 17.4872 10.614 17.0645 10.1166 17.0067L10 17ZM21 17H18C17.4872 17 17.0645 17.386 17.0067 17.8834L17 18V21C17 21.5128 17.386 21.9355 17.8834 21.9933L18 22H21C21.5128 22 21.9355 21.614 21.9933 21.1166L22 21V18C22 17.4872 21.614 17.0645 21.1166 17.0067L21 17ZM10 4C11.5977 4 12.9037 5.24892 12.9949 6.82373L13 7V10C13 11.5977 11.7511 12.9037 10.1763 12.9949L10 13H7C5.40232 13 4.09634 11.7511 4.00509 10.1763L4 10V7C4 5.40232 5.24892 4.09634 6.82373 4.00509L7 4H10ZM21 4C22.5977 4 23.9037 5.24892 23.9949 6.82373L24 7V10C24 11.5977 22.7511 12.9037 21.1763 12.9949L21 13H18C16.4023 13 15.0963 11.7511 15.0051 10.1763L15 10V7C15 5.40232 16.2489 4.09634 17.8237 4.00509L18 4H21ZM10 6H7C6.48716 6 6.06449 6.38604 6.00673 6.88338L6 7V10C6 10.5128 6.38604 10.9355 6.88338 10.9933L7 11H10C10.5128 11 10.9355 10.614 10.9933 10.1166L11 10V7C11 6.48716 10.614 6.06449 10.1166 6.00673L10 6ZM21 6H18C17.4872 6 17.0645 6.38604 17.0067 6.88338L17 7V10C17 10.5128 17.386 10.9355 17.8834 10.9933L18 11H21C21.5128 11 21.9355 10.614 21.9933 10.1166L22 10V7C22 6.48716 21.614 6.06449 21.1166 6.00673L21 6Z" fill="#333333"/>
</svg>
