<svg width="28" height="28" viewBox="0 0 28 28" fill="none" xmlns="http://www.w3.org/2000/svg">
<circle cx="14" cy="14" r="11" stroke="#333333" stroke-width="2"/>
<path fill-rule="evenodd" clip-rule="evenodd" d="M15.2656 16.1666V17.1089H13.067V15.7417C13.067 14.661 13.441 14.3433 14.3911 13.5365C14.4968 13.4468 14.6096 13.351 14.7298 13.2475C15.4134 12.6562 15.7829 12.3052 15.7829 11.4368C15.7829 10.5685 14.9885 9.84793 14.0647 9.84793C12.4758 9.84793 11.8845 11.6216 11.8845 11.6216L10 10.7532C10 10.7532 10.8868 7.7417 14.0647 7.7417C16.2818 7.7417 18 9.38604 18 11.4368C18 13.0627 17.1501 13.8387 15.9492 14.8918C15.3025 15.4646 15.2656 15.5015 15.2656 16.1666ZM15.6351 19.6585C15.6351 20.4715 14.9884 21.1181 14.1755 21.1181C13.3626 21.1181 12.7159 20.4715 12.7159 19.6585C12.7159 18.8456 13.3626 18.199 14.1755 18.199C14.9884 18.199 15.6351 18.8456 15.6351 19.6585Z" fill="#333333"/>
</svg>
