<svg width="20" height="20" viewBox="0 0 20 20" fill="none" xmlns="http://www.w3.org/2000/svg">
<path fill-rule="evenodd" clip-rule="evenodd" d="M10 2C14.4183 2 18 5.58172 18 10C18 14.4183 14.4183 18 10 18C5.58172 18 2 14.4183 2 10C2 5.58172 5.58172 2 10 2ZM10 3.5C6.41015 3.5 3.5 6.41015 3.5 10C3.5 13.5899 6.41015 16.5 10 16.5C13.5899 16.5 16.5 13.5899 16.5 10C16.5 6.41015 13.5899 3.5 10 3.5ZM10.7432 6.89823C10.6935 6.53215 10.3797 6.25 10 6.25C9.58579 6.25 9.25 6.58579 9.25 7V10.6L9.2573 10.7044C9.27664 10.842 9.33398 10.9723 9.42383 11.0801L11.4238 13.4801L11.501 13.5601C11.7737 13.8036 12.1909 13.8172 12.4801 13.5762L12.5601 13.499C12.8036 13.2263 12.8172 12.8091 12.5762 12.5199L10.75 10.328V7L10.7432 6.89823Z" fill="#8092AA"/>
</svg>
