<svg width="20" height="20" viewBox="0 0 20 20" fill="none" xmlns="http://www.w3.org/2000/svg">
<path fill-rule="evenodd" clip-rule="evenodd" d="M1.12451 5C1.12451 2.8599 2.85941 1.125 4.99951 1.125H14.9995C17.1396 1.125 18.8745 2.8599 18.8745 5V15C18.8745 17.1401 17.1396 18.875 14.9995 18.875H4.99951C2.85941 18.875 1.12451 17.1401 1.12451 15V5ZM4.99951 2.20833C3.45772 2.20833 2.20785 3.4582 2.20785 5V15C2.20785 16.5418 3.45772 17.7917 4.99951 17.7917H14.9995C16.5413 17.7917 17.7912 16.5418 17.7912 15V5C17.7912 3.4582 16.5413 2.20833 14.9995 2.20833H4.99951Z" fill="#555555"/>
<path d="M11.6662 5H12.4995V15H11.6662V5Z" fill="#555555"/>
<path d="M4.16618 5.83333V7.5H6.66618V14.1667H8.33285V7.5H10.8328V5.83333H4.16618Z" fill="#555555"/>
</svg>
