<svg width="20" height="20" viewBox="0 0 20 20" fill="none" xmlns="http://www.w3.org/2000/svg">
<path fill-rule="evenodd" clip-rule="evenodd" d="M10 2.25C7.92893 2.25 6.25 3.92893 6.25 6C6.25 8.07107 7.92893 9.75 10 9.75C12.0711 9.75 13.75 8.07107 13.75 6C13.75 3.92893 12.0711 2.25 10 2.25ZM10 3.75C11.2426 3.75 12.25 4.75736 12.25 6C12.25 7.24264 11.2426 8.25 10 8.25C8.75736 8.25 7.75 7.24264 7.75 6C7.75 4.75736 8.75736 3.75 10 3.75Z" fill="#333333"/>
<path d="M17.7458 15.7794C17.6299 12.706 15.1018 10.25 12 10.25H8L7.77944 10.2542C4.70602 10.3701 2.25 12.8982 2.25 16V17L2.25685 17.1018C2.30651 17.4678 2.6203 17.75 3 17.75C3.41421 17.75 3.75 17.4142 3.75 17V16L3.7549 15.7941C3.86231 13.5425 5.72183 11.75 8 11.75H12L12.2059 11.7549C14.4575 11.8623 16.25 13.7218 16.25 16V17L16.2568 17.1018C16.3065 17.4678 16.6203 17.75 17 17.75C17.4142 17.75 17.75 17.4142 17.75 17V16L17.7458 15.7794Z" fill="#333333"/>
</svg>
