<svg width="20" height="20" viewBox="0 0 20 20" fill="none" xmlns="http://www.w3.org/2000/svg">
<path fill-rule="evenodd" clip-rule="evenodd" d="M15.8345 4.16685C15.6138 3.94438 15.2565 3.94438 15.0358 4.16685L12.7421 6.4833C11.8324 5.98732 10.8168 5.72262 9.78304 5.7121C5.78622 5.7121 3.19515 9.80101 3.08663 9.97511C2.97112 10.1608 2.97112 10.3968 3.08663 10.5825C3.82679 11.698 4.75664 12.6724 5.83313 13.4606L4.29624 15.0128C4.14581 15.1552 4.08415 15.3691 4.13534 15.5708C4.18653 15.7726 4.34245 15.9302 4.54219 15.982C4.74192 16.0339 4.95376 15.9717 5.09493 15.8199L15.8345 4.97401C16.0552 4.7511 16.0552 4.38976 15.8345 4.16685ZM7.52207 10.2788C7.52207 9.01774 8.53434 7.99545 9.78304 7.99545C10.1847 7.99759 10.578 8.11092 10.9203 8.32311L7.84652 11.4268C7.63674 11.0811 7.52455 10.6842 7.52207 10.2788ZM14.9707 8C15.709 8.63613 16.3605 9.35971 16.9095 10.1535C17.0302 10.3382 17.0302 10.5731 16.9095 10.7579C16.796 10.9311 14.0881 15 9.91103 15C9.26192 14.9961 8.61732 14.8959 8 14.7029L14.9707 8Z" fill="#555555"/>
</svg>
