<svg width="20" height="20" viewBox="0 0 20 20" fill="none" xmlns="http://www.w3.org/2000/svg">
<path fill-rule="evenodd" clip-rule="evenodd" d="M10 5C6.81818 5 4.10091 7.07333 3 10C4.10091 12.9267 6.81818 15 10 15C13.1818 15 15.8991 12.9267 17 10C15.8991 7.07333 13.1818 5 10 5ZM10 13.3333C8.24364 13.3333 6.81818 11.84 6.81818 10C6.81818 8.16 8.24364 6.66667 10 6.66667C11.7564 6.66667 13.1818 8.16 13.1818 10C13.1818 11.84 11.7564 13.3333 10 13.3333ZM10 8C8.94364 8 8.09091 8.89333 8.09091 10C8.09091 11.1067 8.94364 12 10 12C11.0564 12 11.9091 11.1067 11.9091 10C11.9091 8.89333 11.0564 8 10 8Z" fill="#555555"/>
</svg>
