<svg width="24" height="24" viewBox="0 0 24 24" fill="none" xmlns="http://www.w3.org/2000/svg">
<path d="M15.9199 3C16.6375 3.00009 17.3002 3.38473 17.6562 4.00781L21.2363 8.27344C21.409 8.57562 21.5 8.91759 21.5 9.26562V19C21.5 20.1046 20.6046 21 19.5 21H4.5C3.39543 21 2.5 20.1046 2.5 19V9.26562C2.5 8.91759 2.59101 8.57562 2.76367 8.27344L6.34375 4.00781C6.69979 3.38473 7.36246 3.00009 8.08008 3H15.9199ZM4.5 19H19.5V11H14.5V11.5C14.5 12.8807 13.3807 14 12 14C10.6193 14 9.5 12.8807 9.5 11.5V11H4.5V19ZM4.72266 9H19.2773L15.9199 5H8.08008L4.72266 9Z" fill="#333333"/>
</svg>
