<svg width="28" height="28" viewBox="0 0 28 28" fill="none" xmlns="http://www.w3.org/2000/svg">
<path d="M18.9199 3C19.6375 3.00009 20.3002 3.38473 20.6562 4.00781L24.2363 10.2734C24.409 10.5756 24.5 10.9176 24.5 11.2656V23C24.5 24.1046 23.6046 25 22.5 25H5.5C4.39543 25 3.5 24.1046 3.5 23V11.2656C3.5 10.9176 3.59101 10.5756 3.76367 10.2734L7.34375 4.00781C7.69979 3.38473 8.36246 3.00009 9.08008 3H18.9199ZM5.5 23H22.5V12H17.5V12.5C17.5 14.433 15.933 16 14 16C12.067 16 10.5 14.433 10.5 12.5V12H5.5V23ZM6.22363 10H21.7764L18.9199 5H9.08008L6.22363 10Z" fill="#333333"/>
</svg>
