<svg width="28" height="28" viewBox="0 0 28 28" fill="none" xmlns="http://www.w3.org/2000/svg">
<path d="M4.5 23V11.2656C4.5 11.0915 4.54542 10.9205 4.63176 10.7694L8.21208 4.50386C8.39012 4.19229 8.72147 4 9.08032 4H18.9197C19.2785 4 19.6099 4.19229 19.7879 4.50386L23.3682 10.7694C23.4546 10.9205 23.5 11.0915 23.5 11.2656V23C23.5 23.5523 23.0523 24 22.5 24H5.5C4.94772 24 4.5 23.5523 4.5 23Z" stroke="#333333" stroke-width="2"/>
<line x1="4.5" y1="11" x2="23.5" y2="11" stroke="#333333" stroke-width="2"/>
<path d="M10.5 11H17.5V12.5C17.5 14.433 15.933 16 14 16C12.067 16 10.5 14.433 10.5 12.5V11Z" fill="#333333"/>
</svg>
