<svg width="28" height="28" viewBox="0 0 28 28" fill="none" xmlns="http://www.w3.org/2000/svg">
<path fill-rule="evenodd" clip-rule="evenodd" d="M13.9999 4C11.2385 4 8.9999 6.23858 8.9999 9C8.9999 11.7614 11.2385 14 13.9999 14C16.7613 14 18.9999 11.7614 18.9999 9C18.9999 6.23858 16.7613 4 13.9999 4ZM13.9999 6C15.6568 6 16.9999 7.34315 16.9999 9C16.9999 10.6569 15.6568 12 13.9999 12C12.343 12 10.9999 10.6569 10.9999 9C10.9999 7.34315 12.343 6 13.9999 6ZM18.2067 15C20.8111 15 23.0166 16.9204 23.3749 19.5L23.6839 21.7249C23.8359 22.8189 23.0721 23.829 21.9781 23.981C21.8869 23.9936 21.795 24 21.7029 24H6.29688C5.19231 24 4.29688 23.1046 4.29688 22C4.29688 21.908 4.30323 21.816 4.31589 21.7249L4.6249 19.5C4.98318 16.9204 7.18874 15 9.79309 15H18.2067ZM18.3909 17.0052L18.2067 17H9.79309C8.24877 17 6.93182 18.095 6.63638 19.5934L6.60588 19.7751L6.29688 22H21.7029L21.3939 19.7751C21.1815 18.2455 19.9157 17.0917 18.3909 17.0052Z" fill="#333333"/>
</svg>
