<svg width="20" height="20" viewBox="0 0 20 20" fill="none" xmlns="http://www.w3.org/2000/svg">
<path opacity="0.2" fill-rule="evenodd" clip-rule="evenodd" d="M16.8642 3.12598C17.772 4.03119 18.3337 5.28326 18.3337 6.66652V13.3332C18.3337 16.0946 16.0951 18.3332 13.3337 18.3332H6.66704C5.29368 18.3332 4.04965 17.7795 3.146 16.8832" fill="#555555"/>
<path d="M5.41565 4.72242C5.22413 4.4926 4.88258 4.46155 4.65276 4.65307C4.42294 4.84458 4.39189 5.18614 4.58341 5.41595L6.54118 7.76528V10.0692C6.54118 10.3683 6.78369 10.6108 7.08285 10.6108C7.382 10.6108 7.62451 10.3683 7.62451 10.0692V7.76531L9.58231 5.41595C9.77383 5.18614 9.74278 4.84458 9.51296 4.65307C9.28314 4.46155 8.94159 4.4926 8.75007 4.72242L7.08286 6.72308L5.41565 4.72242Z" fill="#555555"/>
<path d="M15.9578 11.1267C15.9578 10.8276 15.7153 10.585 15.4162 10.585C15.117 10.585 14.8745 10.8276 14.8745 11.1267V13.8631L12.3787 10.845C11.9557 10.3335 11.1245 10.6326 11.1245 11.2964V15.1864C11.1245 15.4856 11.367 15.7281 11.6662 15.7281C11.9653 15.7281 12.2078 15.4856 12.2078 15.1864V12.3384L14.7036 15.3564C15.1267 15.868 15.9578 15.5689 15.9578 14.905V11.1267Z" fill="#555555"/>
<path fill-rule="evenodd" clip-rule="evenodd" d="M6.66618 1.125C3.6056 1.125 1.12451 3.60609 1.12451 6.66667V13.3333C1.12451 14.6685 1.59673 15.8935 2.38326 16.8502L1.69983 17.5336C1.48829 17.7452 1.48829 18.0881 1.69983 18.2997C1.91136 18.5112 2.25433 18.5112 2.46586 18.2997L3.14929 17.6162C4.10604 18.4028 5.33096 18.875 6.66618 18.875H13.3328C16.3934 18.875 18.8745 16.3939 18.8745 13.3333V6.66667C18.8745 5.33145 18.4023 4.10652 17.6158 3.14978L18.2992 2.46635C18.5107 2.25482 18.5107 1.91185 18.2992 1.70032C18.0877 1.48878 17.7447 1.48878 17.5332 1.70032L16.8497 2.38375C15.893 1.59721 14.6681 1.125 13.3328 1.125H6.66618ZM16.0791 3.15435C15.3222 2.56165 14.3688 2.20833 13.3328 2.20833H6.66618C4.20391 2.20833 2.20785 4.2044 2.20785 6.66667V13.3333C2.20785 14.3693 2.56116 15.3227 3.15386 16.0796L16.0791 3.15435ZM3.91989 16.8457C4.67685 17.4384 5.63025 17.7917 6.66618 17.7917H13.3328C15.7951 17.7917 17.7912 15.7956 17.7912 13.3333V6.66667C17.7912 5.63074 17.4379 4.67734 16.8452 3.92038L3.91989 16.8457Z" fill="#555555"/>
</svg>
