<svg width="20" height="20" viewBox="0 0 20 20" fill="none" xmlns="http://www.w3.org/2000/svg">
<path opacity="0.2" fill-rule="evenodd" clip-rule="evenodd" d="M16.8645 3.12598C17.7722 4.03119 18.334 5.28326 18.334 6.66652V13.3332C18.334 16.0946 16.0954 18.3332 13.334 18.3332H6.66728C5.29393 18.3332 4.04989 17.7795 3.14624 16.8832" fill="#555555"/>
<path d="M5.41589 4.72242C5.22438 4.4926 4.88282 4.46155 4.653 4.65307C4.42319 4.84458 4.39214 5.18614 4.58365 5.41595L6.54142 7.76528V10.0692C6.54142 10.3683 6.78394 10.6108 7.08309 10.6108C7.38224 10.6108 7.62476 10.3683 7.62476 10.0692V7.76531L9.58256 5.41595C9.77407 5.18614 9.74302 4.84458 9.5132 4.65307C9.28339 4.46155 8.94183 4.4926 8.75032 4.72242L7.0831 6.72308L5.41589 4.72242Z" fill="#555555"/>
<path d="M15.9581 11.1267C15.9581 10.8276 15.7156 10.585 15.4164 10.585C15.1173 10.585 14.8748 10.8276 14.8748 11.1267V13.8631L12.379 10.845C11.9559 10.3335 11.1248 10.6326 11.1248 11.2964V15.1864C11.1248 15.4856 11.3673 15.7281 11.6664 15.7281C11.9656 15.7281 12.2081 15.4856 12.2081 15.1864V12.3384L14.7039 15.3564C15.1269 15.868 15.9581 15.5689 15.9581 14.905V11.1267Z" fill="#555555"/>
<path fill-rule="evenodd" clip-rule="evenodd" d="M6.66642 1.125C3.60584 1.125 1.12476 3.60609 1.12476 6.66667V13.3333C1.12476 14.6685 1.59697 15.8935 2.38351 16.8502L1.70007 17.5336C1.48854 17.7452 1.48854 18.0881 1.70007 18.2997C1.91161 18.5112 2.25457 18.5112 2.46611 18.2997L3.14954 17.6162C4.10628 18.4028 5.33121 18.875 6.66642 18.875H13.3331C16.3937 18.875 18.8748 16.3939 18.8748 13.3333V6.66667C18.8748 5.33145 18.4025 4.10652 17.616 3.14978L18.2994 2.46635C18.511 2.25482 18.511 1.91185 18.2994 1.70032C18.0879 1.48878 17.7449 1.48878 17.5334 1.70032L16.85 2.38375C15.8932 1.59721 14.6683 1.125 13.3331 1.125H6.66642ZM16.0794 3.15435C15.3224 2.56165 14.369 2.20833 13.3331 2.20833H6.66642C4.20415 2.20833 2.20809 4.2044 2.20809 6.66667V13.3333C2.20809 14.3693 2.5614 15.3227 3.1541 16.0796L16.0794 3.15435ZM3.92014 16.8457C4.67709 17.4384 5.6305 17.7917 6.66642 17.7917H13.3331C15.7954 17.7917 17.7914 15.7956 17.7914 13.3333V6.66667C17.7914 5.63074 17.4381 4.67734 16.8454 3.92038L3.92014 16.8457Z" fill="#555555"/>
</svg>
