<svg width="60" height="60" viewBox="0 0 60 60" fill="none" xmlns="http://www.w3.org/2000/svg">
<path d="M23.1097 7.95968C26.1878 2.68011 33.8122 2.68011 36.8903 7.95967L57.9014 43.9974C61.0035 49.3181 57.1676 56 51.011 56H8.98898C2.83243 56 -1.00346 49.3181 2.09864 43.9974L23.1097 7.95968Z" fill="#FEF4C2"/>
<path fill-rule="evenodd" clip-rule="evenodd" d="M29 26C28.4477 26 28 26.4477 28 27V36C28 37.1046 28.8954 38 30 38C31.1046 38 32 37.1046 32 36V27C32 26.4477 31.5523 26 31 26H29ZM30 44.6666C31.1046 44.6666 32 43.7712 32 42.6666C32 41.5621 31.1046 40.6666 30 40.6666C28.8954 40.6666 28 41.5621 28 42.6666C28 43.7712 28.8954 44.6666 30 44.6666Z" fill="#FFBB00"/>
</svg>
