<svg width="32" height="32" viewBox="0 0 32 32" fill="none" xmlns="http://www.w3.org/2000/svg">
<path d="M27.6126 25.5095H25.462V7.39581H27.6126V15.5902H29.3332V17.7467H27.6126V25.5098V25.5095ZM6.53738 12.1398H6.10725C5.65373 12.1398 5.28238 12.4917 5.24931 12.9381L5.24698 13.0024V22.2747C5.24698 22.7295 5.59796 23.1018 6.04313 23.135L6.10725 23.1373H6.53738C6.99089 23.1373 7.36225 22.7854 7.39531 22.339L7.39765 22.2747V13.0024C7.39765 12.5477 7.04666 12.1753 6.6015 12.1421L6.53738 12.1398ZM23.7418 8.04276V10.1989H20.301C19.9657 10.1989 19.6902 10.4554 19.6588 10.7836L19.6558 10.8459V22.0591C19.6558 22.3953 19.9116 22.6715 20.2389 22.703L20.301 22.706H23.7418V24.8625H20.301C18.7905 24.8625 17.5599 23.6614 17.5071 22.1599L17.5055 22.0594V10.8459C17.5055 9.33131 18.7034 8.09734 20.2008 8.04443L20.301 8.04276H23.7418ZM7.39765 6.5332V8.25841H9.97846V10.4146H8.08927C8.96357 10.943 9.54832 11.9041 9.54832 13.0024V22.2747C9.54832 23.942 8.20048 25.2935 6.53771 25.2935H6.10758C4.44482 25.2935 3.09697 23.942 3.09697 22.2747V13.0024C3.09697 11.9044 3.68173 10.943 4.55602 10.4149H2.6665V8.25841H5.24731V6.5332H7.39798H7.39765ZM13.8493 7.39581V15.5902H15.5699V17.7467H13.8493V25.5098H11.6987V7.39581H13.8493Z" fill="#02B585"/>
</svg>
