<svg width="24" height="24" viewBox="0 0 24 24" fill="none" xmlns="http://www.w3.org/2000/svg">
<path fill-rule="evenodd" clip-rule="evenodd" d="M16.2143 3.2998C17.4767 3.2998 18.5 4.32315 18.5 5.58552V12.4427C18.5 13.705 17.4767 14.7284 16.2143 14.7284H12.5603L9.48217 16.7805C7.96319 17.7931 5.92857 16.7042 5.92857 14.8786V14.7284H4.78571C3.52335 14.7284 2.5 13.705 2.5 12.4427V5.58552C2.5 4.32315 3.52335 3.2998 4.78571 3.2998H16.2143ZM16.2143 5.58552H4.78571V12.4427H8.21428V14.8786L11.8683 12.4427H16.2143V5.58552ZM12.821 15.5862L10.5 17.1336V17.9665C10.5 18.5188 10.9477 18.9665 11.5 18.9665H15.2583L17.4453 20.4245C18.1099 20.8675 19 20.3912 19 19.5925V18.9665H20.5C21.0523 18.9665 21.5 18.5188 21.5 17.9665V13.2998C21.5 12.7475 21.0523 12.2998 20.5 12.2998H19.3583V12.4434C19.3583 14.1791 17.9512 15.5862 16.2155 15.5862H12.821Z" fill="#333333"/>
</svg>
