<svg width="20" height="20" viewBox="0 0 20 20" fill="none" xmlns="http://www.w3.org/2000/svg">
<path fill-rule="evenodd" clip-rule="evenodd" d="M5.6129 4.2097L5.70711 4.29289L10 8.585L14.2929 4.29289C14.6834 3.90237 15.3166 3.90237 15.7071 4.29289C16.0676 4.65338 16.0953 5.22061 15.7903 5.6129L15.7071 5.70711L11.415 10L15.7071 14.2929C16.0976 14.6834 16.0976 15.3166 15.7071 15.7071C15.3466 16.0676 14.7794 16.0953 14.3871 15.7903L14.2929 15.7071L10 11.415L5.70711 15.7071C5.31658 16.0976 4.68342 16.0976 4.29289 15.7071C3.93241 15.3466 3.90468 14.7794 4.2097 14.3871L4.29289 14.2929L8.585 10L4.29289 5.70711C3.90237 5.31658 3.90237 4.68342 4.29289 4.29289C4.62334 3.96245 5.12751 3.91161 5.5114 4.14038L5.6129 4.2097Z" fill="#333333"/>
</svg>
