<svg width="14" height="14" viewBox="0 0 14 14" fill="none" xmlns="http://www.w3.org/2000/svg">
<path fill-rule="evenodd" clip-rule="evenodd" d="M11.8422 1.38343L12.605 2.14872C12.8597 2.40422 13 2.74415 13 3.10569C13 3.46723 12.8597 3.80716 12.605 4.06256L11.6706 5L9 2.32087L9.93445 1.38343C10.4437 0.872438 11.3323 0.871943 11.8422 1.38343ZM1.8094 9.61369L8.42273 3L11 5.57722L4.38609 12.1904C4.35282 12.2237 4.31116 12.2476 4.2653 12.2591L1.3231 12.9922C1.30231 12.9974 1.28096 13 1.26008 13C1.19192 13 1.12528 12.9729 1.07637 12.924C1.01173 12.8594 0.985708 12.7652 1.00764 12.6766L1.74066 9.73448C1.7521 9.6892 1.77612 9.64706 1.8094 9.61369Z" fill="#333333"/>
</svg>
