<svg width="24" height="24" viewBox="0 0 24 24" fill="none" xmlns="http://www.w3.org/2000/svg">
<g clip-path="url(#clip0_286_4498)">
<path fill-rule="evenodd" clip-rule="evenodd" d="M21.8693 8.97325C22.0455 8.78358 22.0484 8.4901 21.8693 8.30314C19.3187 5.63963 15.8404 4 12.0065 4C8.16813 4 4.6863 5.64339 2.13487 8.3123C1.9561 8.4993 1.95911 8.79256 2.13516 8.98212L3.2717 10.2058C3.4722 10.4216 3.81435 10.4175 4.02025 10.2068C6.09912 8.07924 8.9105 6.77361 12.0051 6.77361C15.0963 6.77361 17.9049 8.07636 19.9831 10.1997C20.1891 10.4102 20.531 10.4142 20.7314 10.1984L21.8693 8.97325ZM5.67023 12.0898C5.47559 12.2716 5.47292 12.5757 5.6542 12.7709L6.7975 14.0018C6.99098 14.2101 7.31798 14.214 7.53194 14.0267C8.75032 12.9607 10.3041 12.3217 11.9965 12.3217C13.6896 12.3217 15.244 12.9613 16.4627 14.0282C16.6766 14.2156 17.0037 14.2118 17.1972 14.0034L18.3418 12.7712C18.523 12.576 18.5204 12.2719 18.3257 12.0901C16.6307 10.5065 14.4182 9.54807 11.9978 9.54807C9.57757 9.54807 7.36521 10.5064 5.67023 12.0898ZM14.9198 16.4555C15.1383 16.2202 15.0815 15.842 14.7901 15.7075C13.934 15.3123 12.9911 15.0935 12.0007 15.0935C11.0088 15.0935 10.0646 15.3129 9.20751 15.7093C8.91621 15.844 8.85964 16.222 9.07805 16.4571L11.6318 19.2066C11.8296 19.4196 12.1667 19.4196 12.3645 19.2066L14.9198 16.4555Z" fill="url(#paint0_linear_286_4498)"/>
</g>
<defs>
<linearGradient id="paint0_linear_286_4498" x1="2.00195" y1="4" x2="12.002" y2="15" gradientUnits="userSpaceOnUse">
<stop offset="0.0001" stop-color="#66B9A2" stop-opacity="0.64"/>
<stop offset="1" stop-color="#38957E"/>
</linearGradient>
<clipPath id="clip0_286_4498">
<rect width="24" height="24" fill="white"/>
</clipPath>
</defs>
</svg>
