<svg width="24" height="24" viewBox="0 0 24 24" fill="none" xmlns="http://www.w3.org/2000/svg">
<path fill-rule="evenodd" clip-rule="evenodd" d="M4 12C4 7.58172 7.58172 4 12 4C16.4183 4 20 7.58172 20 12C20 16.4183 16.4183 20 12 20C7.58172 20 4 16.4183 4 12ZM12 2C6.47715 2 2 6.47715 2 12C2 17.5228 6.47715 22 12 22C17.5228 22 22 17.5228 22 12C22 6.47715 17.5228 2 12 2ZM12.5405 14.2252C12.8167 14.2252 13.0405 14.0013 13.0405 13.7252V13.4425C13.0405 12.89 13.0712 12.8593 13.6083 12.3836C14.6059 11.5088 15.3118 10.8642 15.3118 9.5137C15.3118 7.8102 13.8846 6.44434 12.043 6.44434C10.072 6.44434 9.16203 7.83897 8.82746 8.54559C8.72126 8.76987 8.83374 9.02285 9.05912 9.12671L9.725 9.43353C9.99554 9.5582 10.3204 9.42043 10.4776 9.16738C10.7429 8.74011 11.2393 8.19388 12.043 8.19388C12.8103 8.19388 13.4702 8.7924 13.4702 9.5137C13.4702 10.235 13.1633 10.5266 12.5955 11.0177C12.4956 11.1037 12.4019 11.1833 12.3141 11.2578C11.525 11.928 11.2142 12.1918 11.2142 13.0895V13.7252C11.2142 14.0013 11.4381 14.2252 11.7142 14.2252H12.5405ZM12.1351 17.5558C12.8103 17.5558 13.3475 17.0186 13.3475 16.3434C13.3475 15.6681 12.8103 15.131 12.1351 15.131C11.4598 15.131 10.9227 15.6681 10.9227 16.3434C10.9227 17.0186 11.4598 17.5558 12.1351 17.5558Z" fill="#333333"/>
</svg>
