<svg width="20" height="20" viewBox="0 0 20 20" fill="none" xmlns="http://www.w3.org/2000/svg">
<path fill-rule="evenodd" clip-rule="evenodd" d="M8 3H14C15.1046 3 16 3.89543 16 5V15C16 16.1046 15.1046 17 14 17H6C4.89543 17 4 16.1046 4 15V7L8 3ZM7 8.5C7 8.22386 7.22386 8 7.5 8H12.5C12.7761 8 13 8.22386 13 8.5C13 8.77614 12.7761 9 12.5 9H7.5C7.22386 9 7 8.77614 7 8.5ZM7 10.5C7 10.2239 7.22386 10 7.5 10H12.5C12.7761 10 13 10.2239 13 10.5C13 10.7761 12.7761 11 12.5 11H7.5C7.22386 11 7 10.7761 7 10.5ZM7.5 12C7.22386 12 7 12.2239 7 12.5C7 12.7761 7.22386 13 7.5 13H12.5C12.7761 13 13 12.7761 13 12.5C13 12.2239 12.7761 12 12.5 12H7.5Z" fill="#333333"/>
<path fill-rule="evenodd" clip-rule="evenodd" d="M4 7H8V3" fill="#333333"/>
</svg>
