<svg width="24" height="24" viewBox="0 0 24 24" fill="none" xmlns="http://www.w3.org/2000/svg">
<path fill-rule="evenodd" clip-rule="evenodd" d="M3.29141 15.8196C3.09487 16.0161 3.09487 16.3347 3.29141 16.5313L4.00313 17.243C4.19966 17.4395 4.51831 17.4395 4.71485 17.243L10.0527 11.9051L12.5438 14.3962C12.7403 14.5927 13.059 14.5927 13.2555 14.3962L14.3231 13.3286L17.8817 9.77002L19.3635 11.2519C19.6898 11.5782 20.2486 11.3698 20.2816 10.9095L20.6069 6.37747C20.6304 6.05019 20.3583 5.77811 20.031 5.80162L15.4993 6.12712C15.039 6.16018 14.8307 6.71899 15.157 7.04532L16.4582 8.34658L12.8996 11.9052L10.4086 9.41417C10.2121 9.21763 9.89342 9.21763 9.69689 9.41417L8.62936 10.4817L8.62931 10.4817L3.29141 15.8196Z" fill="#333333"/>
</svg>
