<svg width="24" height="24" viewBox="0 0 24 24" fill="none" xmlns="http://www.w3.org/2000/svg">
<rect x="5" y="4" width="14" height="16" rx="2" stroke="#333333" stroke-width="2"/>
<rect x="8" y="2" width="8" height="4" rx="1" fill="#333333"/>
<path fill-rule="evenodd" clip-rule="evenodd" d="M8.5 8.99988C8.22386 8.99988 8 9.22374 8 9.49988V10.4999C8 10.776 8.22386 10.9999 8.5 10.9999H15.5C15.7761 10.9999 16 10.776 16 10.4999V9.49988C16 9.22374 15.7761 8.99988 15.5 8.99988H8.5ZM8.5 11.9999C8.22386 11.9999 8 12.2237 8 12.4999V13.4999C8 13.776 8.22386 13.9999 8.5 13.9999H13.5C13.7761 13.9999 14 13.776 14 13.4999V12.4999C14 12.2237 13.7761 11.9999 13.5 11.9999H8.5Z" fill="#333333"/>
</svg>
