<svg width="20" height="20" viewBox="0 0 20 20" fill="none" xmlns="http://www.w3.org/2000/svg">
<path fill-rule="evenodd" clip-rule="evenodd" d="M9.16057 2.55475C9.35806 2.09141 9.89398 1.87581 10.3576 2.07319C10.5744 2.16549 10.747 2.33806 10.8394 2.55475L12.6015 6.68884L17.1587 7.04536C17.6611 7.08466 18.0365 7.52355 17.9972 8.02564C17.978 8.27014 17.8611 8.49663 17.6729 8.65398L14.2169 11.5428L15.2751 15.8715C15.3947 16.3608 15.0948 16.8543 14.6053 16.9738C14.3727 17.0306 14.1271 16.9937 13.9214 16.8712L9.99999 14.5339L6.07855 16.8712C5.64576 17.1291 5.08568 16.9876 4.82758 16.555C4.70494 16.3495 4.66806 16.104 4.72489 15.8715L5.78305 11.5428L2.32707 8.65398C1.94054 8.33087 1.88926 7.75577 2.21254 7.36945C2.36997 7.18132 2.59659 7.0645 2.84123 7.04536L7.39849 6.68884L9.16057 2.55475Z" fill="#333333"/>
</svg>
