<svg width="20" height="20" viewBox="0 0 20 20" fill="none" xmlns="http://www.w3.org/2000/svg">
<g clip-path="url(#clip0_286_2715)">
<path fill-rule="evenodd" clip-rule="evenodd" d="M12.9257 2.7491C13.1053 2.49768 13.4677 2.46769 13.6862 2.68617L17.068 6.06801C17.2865 6.28648 17.2565 6.64885 17.0051 6.82843L12.9107 9.75297C12.7118 9.89503 12.4394 9.87249 12.2665 9.69965L10.0545 7.48763C9.88169 7.3148 9.85914 7.04235 10.0012 6.84346L12.9257 2.7491ZM6.35741 7.13003C7.12739 6.74504 8.05733 6.89595 8.66605 7.50467L12.2495 11.0881C12.8582 11.6968 13.0091 12.6268 12.6241 13.3968L12.1735 14.298C12.0209 14.6032 11.6141 14.6693 11.3728 14.4279L8.70088 11.7561L4.83571 15.6212C4.64165 15.8153 4.32701 15.8153 4.13295 15.6212C3.93889 15.4272 3.93889 15.1125 4.13295 14.9185L7.99812 11.0533L5.32624 8.38141C5.08492 8.14009 5.15093 7.73327 5.45618 7.58065L6.35741 7.13003Z" fill="#333333"/>
</g>
<defs>
<clipPath id="clip0_286_2715">
<rect width="20" height="20" fill="white" transform="translate(0.000976562 0.000732422)"/>
</clipPath>
</defs>
</svg>
