<svg width="24" height="24" viewBox="0 0 24 24" fill="none" xmlns="http://www.w3.org/2000/svg">
<mask id="path-1-outside-1_286_4454" maskUnits="userSpaceOnUse" x="3" y="3" width="18" height="19" fill="black">
<rect fill="white" x="3" y="3" width="18" height="19"/>
<path d="M3 5.5C3 4.11929 4.11929 3 5.5 3H18.5C19.8807 3 21 4.11929 21 5.5V18.5C21 19.8807 19.8807 21 18.5 21H5.5C4.11929 21 3 19.8807 3 18.5V5.5Z"/>
</mask>
<path d="M3 5.5C3 4.11929 4.11929 3 5.5 3H18.5C19.8807 3 21 4.11929 21 5.5V18.5C21 19.8807 19.8807 21 18.5 21H5.5C4.11929 21 3 19.8807 3 18.5V5.5Z" fill="url(#paint0_linear_286_4454)"/>
<path d="M3 3H21H3ZM21 18.5C21 20.1569 19.6569 21.5 18 21.5H6C4.34315 21.5 3 20.1569 3 18.5C3 19.6046 4.11929 20.5 5.5 20.5H18.5C19.8807 20.5 21 19.6046 21 18.5ZM3 21V3V21ZM21 3V21V3Z" fill="#658FB4" mask="url(#path-1-outside-1_286_4454)"/>
<path d="M4 7C4 5.89543 4.89543 5 6 5H18C19.1046 5 20 5.89543 20 7V17C20 18.1046 19.1046 19 18 19H6C4.89543 19 4 18.1046 4 17V7Z" fill="url(#paint1_linear_286_4454)"/>
<path d="M4.22917 7C4.22917 6.022 5.022 5.22917 6 5.22917H18C18.978 5.22917 19.7708 6.022 19.7708 7V17C19.7708 17.978 18.978 18.7708 18 18.7708H6C5.022 18.7708 4.22917 17.978 4.22917 17V7Z" stroke="url(#paint2_linear_286_4454)" stroke-opacity="0.2" stroke-width="0.458338"/>
<path fill-rule="evenodd" clip-rule="evenodd" d="M16.5 12C16.2239 12 16 12.2239 16 12.5V16.5C16 16.7761 16.2239 17 16.5 17H17.5C17.7761 17 18 16.7761 18 16.5V12.5C18 12.2239 17.7761 12 17.5 12H16.5ZM13 14.5C13 14.2239 13.2239 14 13.5 14H14.5C14.7761 14 15 14.2239 15 14.5V16.5C15 16.7761 14.7761 17 14.5 17H13.5C13.2239 17 13 16.7761 13 16.5V14.5ZM10 15.5C10 15.2239 10.2239 15 10.5 15H11.5C11.7761 15 12 15.2239 12 15.5V16.5C12 16.7761 11.7761 17 11.5 17H10.5C10.2239 17 10 16.7761 10 16.5V15.5Z" fill="#8092AA"/>
<path fill-rule="evenodd" clip-rule="evenodd" d="M16.2806 7.2501C16.2909 7.10783 16.1726 6.98955 16.0303 6.99976L12.9096 7.22384C12.7095 7.23821 12.6189 7.48113 12.7608 7.62299L13.7544 8.61667L11.156 11.2151L9.83184 9.89086C9.56794 9.62696 9.14008 9.62696 8.87618 9.89086L5.72266 13.0444L6.67832 14.0001L9.35401 11.3244L10.6782 12.6486C10.9421 12.9125 11.37 12.9125 11.6339 12.6486L14.71 9.57238L15.6575 10.5199C15.7993 10.6618 16.0422 10.5712 16.0566 10.3711L16.2806 7.2501Z" fill="url(#paint3_linear_286_4454)"/>
<defs>
<linearGradient id="paint0_linear_286_4454" x1="3" y1="3" x2="21.0275" y2="20.9724" gradientUnits="userSpaceOnUse">
<stop stop-color="#9ABFE0"/>
<stop offset="1" stop-color="#769EC7"/>
</linearGradient>
<linearGradient id="paint1_linear_286_4454" x1="4" y1="7.625" x2="16.9758" y2="21.7735" gradientUnits="userSpaceOnUse">
<stop stop-color="white"/>
<stop offset="1" stop-color="#FFFBF4"/>
</linearGradient>
<linearGradient id="paint2_linear_286_4454" x1="12" y1="5" x2="12" y2="19" gradientUnits="userSpaceOnUse">
<stop stop-color="white"/>
<stop offset="1" stop-color="#98BBCA"/>
</linearGradient>
<linearGradient id="paint3_linear_286_4454" x1="9.2421" y1="4.65255" x2="12.7623" y2="11.692" gradientUnits="userSpaceOnUse">
<stop stop-color="#96CBFF"/>
<stop offset="1" stop-color="#3378FF"/>
</linearGradient>
</defs>
</svg>
