<svg width="25" height="25" viewBox="0 0 25 25" fill="none" xmlns="http://www.w3.org/2000/svg">
<circle cx="12" cy="12" r="9.75" fill="url(#paint0_linear_286_4471)" stroke="url(#paint1_linear_286_4471)" stroke-width="0.5"/>
<path fill-rule="evenodd" clip-rule="evenodd" d="M10.8536 11.7322C10.9474 11.6385 11.0001 11.5113 11.0001 11.3787V8.5C11.0001 8.22386 11.2239 8 11.5001 8H12.5001C12.7762 8 13.0001 8.22386 13.0001 8.5V12.2071C13.0001 12.3397 12.9474 12.4669 12.8536 12.5607L10.0607 15.3536C9.86547 15.5488 9.54889 15.5488 9.35363 15.3536L8.64652 14.6464C8.45126 14.4512 8.45126 14.1346 8.64652 13.9393L10.8536 11.7322Z" fill="white"/>
<circle cx="5" cy="12" r="1" fill="url(#paint2_linear_286_4471)"/>
<circle cx="12" cy="5" r="1" fill="url(#paint3_linear_286_4471)"/>
<circle cx="12" cy="19" r="1" fill="url(#paint4_linear_286_4471)" fill-opacity="0.5"/>
<ellipse cx="18.25" cy="18.25" rx="5.25" ry="5.24998" fill="url(#paint5_linear_286_4471)" stroke="#F9F9F9" stroke-width="1.17681"/>
<path fill-rule="evenodd" clip-rule="evenodd" d="M16.1591 17.9979C15.9639 17.8026 15.9639 17.486 16.1591 17.2907L17.841 15.6088C17.9791 15.4708 18.1778 15.4303 18.3515 15.4875C18.4234 15.5112 18.491 15.5517 18.5483 15.6089L20.2347 17.2953C20.43 17.4906 20.43 17.8072 20.2347 18.0024L20.2256 18.0115C20.0303 18.2068 19.7138 18.2068 19.5185 18.0115L18.7143 17.2074V20.4999C18.7143 20.776 18.4905 20.9999 18.2143 20.9999H18.1454C17.8693 20.9999 17.6454 20.776 17.6454 20.4999V17.2369L16.8754 18.007C16.6801 18.2022 16.3635 18.2022 16.1682 18.007L16.1591 17.9979Z" fill="#2D5274"/>
<defs>
<linearGradient id="paint0_linear_286_4471" x1="2.5" y1="-7" x2="15" y2="15.5" gradientUnits="userSpaceOnUse">
<stop offset="0.223865" stop-color="#BFD4ED"/>
<stop offset="1" stop-color="#426F9A"/>
</linearGradient>
<linearGradient id="paint1_linear_286_4471" x1="12" y1="2" x2="12" y2="22" gradientUnits="userSpaceOnUse">
<stop stop-color="white" stop-opacity="0.3"/>
<stop offset="1" stop-opacity="0.2"/>
</linearGradient>
<linearGradient id="paint2_linear_286_4471" x1="3.6875" y1="10.6875" x2="5.33333" y2="12.3333" gradientUnits="userSpaceOnUse">
<stop offset="0.223865" stop-color="white"/>
<stop offset="1" stop-color="#D3D3D3"/>
</linearGradient>
<linearGradient id="paint3_linear_286_4471" x1="10.6875" y1="3.6875" x2="12.3333" y2="5.33333" gradientUnits="userSpaceOnUse">
<stop offset="0.223865" stop-color="white"/>
<stop offset="1" stop-color="#D3D3D3"/>
</linearGradient>
<linearGradient id="paint4_linear_286_4471" x1="10.6875" y1="17.6875" x2="12.3333" y2="19.3333" gradientUnits="userSpaceOnUse">
<stop offset="0.223865" stop-color="white"/>
<stop offset="1" stop-color="#D3D3D3"/>
</linearGradient>
<linearGradient id="paint5_linear_286_4471" x1="12.9996" y1="12.9343" x2="23.6308" y2="23.5656" gradientUnits="userSpaceOnUse">
<stop stop-color="#F1F1F1"/>
<stop offset="1" stop-color="#A4AEBE"/>
</linearGradient>
</defs>
</svg>
