<svg width="24" height="24" viewBox="0 0 24 24" fill="none" xmlns="http://www.w3.org/2000/svg">
<g filter="url(#filter0_f_286_4549)">
<ellipse cx="13.5" cy="20" rx="7.5" ry="1" fill="#CCCCCC"/>
</g>
<path d="M12 19.6C12 18.7163 12.7163 18 13.6 18H17.4C18.2837 18 19 18.7163 19 19.6C19 19.8209 18.8209 20 18.6 20H12.4C12.1791 20 12 19.8209 12 19.6Z" fill="#1B7776"/>
<path d="M6.42773 4.1336C6.15159 3.65531 6.31547 3.04372 6.79376 2.76758C7.27205 2.49144 7.88364 2.65531 8.15979 3.1336L17.0499 18.5318L16.1839 19.0318C15.7056 19.308 15.094 19.1441 14.8179 18.6658L6.42773 4.1336Z" fill="url(#paint0_linear_286_4549)"/>
<path d="M18.8515 5.65181C19.8516 7.38401 15.4636 10.4644 12.2942 12.2942C9.12486 14.1241 4.26316 16.384 3.26308 14.6518C2.06738 12.5808 3.48959 6.98528 7.79423 4.5C12.0989 2.01472 17.6558 3.58081 18.8515 5.65181Z" fill="url(#paint1_linear_286_4549)"/>
<path fill-rule="evenodd" clip-rule="evenodd" d="M15.5092 10.228C14.4579 10.9884 13.3131 11.7059 12.2942 12.2942C11.2753 12.8825 10.0815 13.5152 8.89727 14.0454C8.63472 13.8264 8.39542 13.5414 8.18722 13.1808C7.0301 11.1765 5.88107 5.60453 7.79424 4.49996C9.70741 3.39539 13.9583 7.17653 15.1154 9.18077C15.3236 9.54139 15.4508 9.89113 15.5092 10.228Z" fill="url(#paint2_linear_286_4549)" fill-opacity="0.8"/>
<defs>
<filter id="filter0_f_286_4549" x="4.5" y="17.5" width="18" height="5" filterUnits="userSpaceOnUse" color-interpolation-filters="sRGB">
<feFlood flood-opacity="0" result="BackgroundImageFix"/>
<feBlend mode="normal" in="SourceGraphic" in2="BackgroundImageFix" result="shape"/>
<feGaussianBlur stdDeviation="0.75" result="effect1_foregroundBlur_286_4549"/>
</filter>
<linearGradient id="paint0_linear_286_4549" x1="6.79376" y1="2.76758" x2="16.1839" y2="19.0318" gradientUnits="userSpaceOnUse">
<stop stop-color="#2A9996"/>
<stop offset="1" stop-color="#1B7776"/>
</linearGradient>
<linearGradient id="paint1_linear_286_4549" x1="7.79423" y1="4.5" x2="12.2942" y2="12.2942" gradientUnits="userSpaceOnUse">
<stop stop-color="#5EDEBE"/>
<stop offset="1" stop-color="#32A88B"/>
</linearGradient>
<linearGradient id="paint2_linear_286_4549" x1="11" y1="10" x2="12.2942" y2="12.2942" gradientUnits="userSpaceOnUse">
<stop stop-color="white"/>
<stop offset="1" stop-color="white" stop-opacity="0.6"/>
</linearGradient>
</defs>
</svg>
