<svg width="240" height="150" viewBox="0 0 240 150" fill="none" xmlns="http://www.w3.org/2000/svg">
<rect width="240" height="140" fill="#F1F4F6"/>
<g filter="url(#filter0_d_286_5469)">
<rect x="45" y="8" width="120" height="30" rx="8" fill="white"/>
</g>
<rect x="64" y="23" width="50" height="6" rx="2" fill="#E3E8EB"/>
<rect opacity="0.3" x="64" y="15" width="27" height="4" rx="1" fill="#DDDDDD"/>
<g filter="url(#filter1_d_286_5469)">
<circle cx="39" cy="23" r="20" fill="url(#paint0_linear_286_5469)"/>
</g>
<path fill-rule="evenodd" clip-rule="evenodd" d="M48.2501 17.2951C48.3649 17.6931 48.1355 18.1088 47.7375 18.2237L46.2375 18.6567C45.8395 18.7716 45.4238 18.5421 45.3089 18.1441C45.194 17.7462 45.4235 17.3304 45.8215 17.2156L47.3215 16.7825C47.7194 16.6677 48.1352 16.8971 48.2501 17.2951ZM45.0293 21.2197C45.0293 20.8055 45.3651 20.4697 45.7793 20.4697H48.4177C48.8319 20.4697 49.1677 20.8055 49.1677 21.2197C49.1677 21.6339 48.8319 21.9697 48.4177 21.9697H45.7793C45.3651 21.9697 45.0293 21.6339 45.0293 21.2197ZM46.2375 23.7825C45.8395 23.6677 45.4238 23.8971 45.3089 24.2951C45.194 24.6931 45.4235 25.1088 45.8215 25.2237L47.3215 25.6567C47.7194 25.7716 48.1352 25.5421 48.2501 25.1441C48.3649 24.7462 48.1355 24.3304 47.7375 24.2156L46.2375 23.7825Z" fill="white"/>
<rect x="29" y="19" width="2" height="4" rx="1" fill="white"/>
<rect x="32" y="24" width="3" height="8" rx="1" fill="white"/>
<path fill-rule="evenodd" clip-rule="evenodd" d="M40 14.4704L31.3943 16.6042C30.573 16.8079 30 17.5115 30 18.3164V23.6836C30 24.4885 30.573 25.1921 31.3943 25.3958L40 27.5296V14.4704ZM41 27.7776L41.661 27.9415C42.844 28.2348 44 27.3886 44 26.2293V15.7707C44 14.6114 42.844 13.7652 41.661 14.0585L41 14.2224V27.7776Z" fill="white"/>
<circle opacity="0.5" cx="147" cy="22" r="8" fill="#8092AA"/>
<mask id="mask0_286_5469" style="mask-type:alpha" maskUnits="userSpaceOnUse" x="139" y="14" width="16" height="16">
<circle cx="147" cy="22" r="8" fill="#8898A7"/>
</mask>
<g mask="url(#mask0_286_5469)">
<path fill-rule="evenodd" clip-rule="evenodd" d="M147 22.9989C148.657 22.9989 150 21.6558 150 19.9989C150 18.342 148.657 16.9989 147 16.9989C145.343 16.9989 144 18.342 144 19.9989C144 21.6558 145.343 22.9989 147 22.9989ZM147 24.9984C143.686 24.9984 141 27.6847 141 30.9984V32.1095C141 32.6004 141.398 32.9984 141.889 32.9984H152.111C152.602 32.9984 153 32.6004 153 32.1095V30.9984C153 27.6847 150.314 24.9984 147 24.9984Z" fill="#E3E8EB"/>
</g>
<g filter="url(#filter2_d_286_5469)">
<rect x="68" y="45" width="132" height="89" rx="8" fill="url(#paint1_linear_286_5469)"/>
</g>
<rect x="99" y="57" width="47" height="6" rx="2" fill="#E3E8EB"/>
<rect x="99" y="69" width="31" height="6" rx="2" fill="#EAF5FF"/>
<rect x="86" y="92" width="96" height="8" rx="2" fill="#FFF7DD"/>
<rect x="86" y="114" width="96" height="8" rx="2" fill="#FFF7DD"/>
<rect x="86" y="92" width="70" height="8" rx="2" fill="#FFD335"/>
<rect x="86" y="114" width="24" height="8" rx="2" fill="#FFD335"/>
<rect opacity="0.3" x="86" y="83" width="24" height="4" rx="1" fill="#DDDDDD"/>
<rect opacity="0.3" x="86" y="105" width="24" height="4" rx="1" fill="#DDDDDD"/>
<path d="M88.9832 59.7452L89.8498 60.8555L89.687 60.8606C88.6366 60.8555 88.0588 60.1204 88.0588 58.7719C88.0588 57.4183 88.6366 56.6831 89.687 56.6831C90.7269 56.6831 91.3099 57.4183 91.3046 58.7719C91.3046 59.3904 91.1838 59.8821 90.9527 60.2319L90.5483 59.7452H88.9832ZM86 58.7719C86.0053 61.2003 87.6124 62.5437 89.687 62.5437C90.1492 62.5437 90.5903 62.4778 91 62.3409L91.5777 63H93.3634L92.2132 61.6515C92.9223 61.0127 93.3634 60.0444 93.3634 58.7719C93.3634 56.3283 91.7405 55 89.687 55C87.6124 55 86.0053 56.3283 86 58.7719Z" fill="#777777"/>
<path d="M94.9811 62.5539C95.5168 62.5539 95.9947 62.1179 96 61.5703C95.9947 61.033 95.5168 60.597 94.9811 60.597C94.4191 60.597 93.9569 61.033 93.9622 61.5703C93.9569 62.1179 94.4191 62.5539 94.9811 62.5539Z" fill="#777777"/>
<path d="M88.0316 74.8952L88.4556 73.5429H90.8471L91.2761 74.8952H93.2978L90.931 68H88.3767L86 74.8952H88.0316ZM88.8895 72.1714L89.6193 69.8571H89.6785L90.4132 72.1714H88.8895Z" fill="#3299FE"/>
<path d="M95.0434 75C95.5464 75 95.9951 74.5905 96 74.0762C95.9951 73.5714 95.5464 73.1619 95.0434 73.1619C94.5158 73.1619 94.0819 73.5714 94.0868 74.0762C94.0819 74.5905 94.5158 75 95.0434 75Z" fill="#3299FE"/>
<g filter="url(#filter3_d_286_5469)">
<circle cx="200" cy="58" r="20" fill="url(#paint2_linear_286_5469)"/>
</g>
<path fill-rule="evenodd" clip-rule="evenodd" d="M193 49C191.895 49 191 49.8954 191 51V65C191 66.1046 191.895 67 193 67H207C208.105 67 209 66.1046 209 65V51C209 49.8954 208.105 49 207 49H193ZM196.177 55C195.734 55 195.375 55.3358 195.375 55.75C195.375 56.1642 195.734 56.5 196.177 56.5H203.798C204.241 56.5 204.6 56.1642 204.6 55.75C204.6 55.3358 204.241 55 203.798 55H196.177ZM196.088 58C195.694 58 195.375 58.3358 195.375 58.75C195.375 59.1642 195.694 59.5 196.088 59.5H202.862C203.256 59.5 203.575 59.1642 203.575 58.75C203.575 58.3358 203.256 58 202.862 58H196.088ZM195.375 61.75C195.375 61.3358 195.69 61 196.079 61H200.821C201.21 61 201.525 61.3358 201.525 61.75C201.525 62.1642 201.21 62.5 200.821 62.5H196.079C195.69 62.5 195.375 62.1642 195.375 61.75Z" fill="white"/>
<path d="M197 46.5C196.172 46.5 195.5 47.1716 195.5 48V50C195.5 50.8284 196.172 51.5 197 51.5H203C203.828 51.5 204.5 50.8284 204.5 50V48C204.5 47.1716 203.828 46.5 203 46.5H197Z" fill="white" stroke="#FFBB00"/>
<defs>
<filter id="filter0_d_286_5469" x="37" y="8" width="136" height="46" filterUnits="userSpaceOnUse" color-interpolation-filters="sRGB">
<feFlood flood-opacity="0" result="BackgroundImageFix"/>
<feColorMatrix in="SourceAlpha" type="matrix" values="0 0 0 0 0 0 0 0 0 0 0 0 0 0 0 0 0 0 127 0" result="hardAlpha"/>
<feMorphology radius="8" operator="erode" in="SourceAlpha" result="effect1_dropShadow_286_5469"/>
<feOffset dy="8"/>
<feGaussianBlur stdDeviation="8"/>
<feComposite in2="hardAlpha" operator="out"/>
<feColorMatrix type="matrix" values="0 0 0 0 0 0 0 0 0 0 0 0 0 0 0 0 0 0 0.16 0"/>
<feBlend mode="normal" in2="BackgroundImageFix" result="effect1_dropShadow_286_5469"/>
<feBlend mode="normal" in="SourceGraphic" in2="effect1_dropShadow_286_5469" result="shape"/>
</filter>
<filter id="filter1_d_286_5469" x="11" y="3" width="56" height="60" filterUnits="userSpaceOnUse" color-interpolation-filters="sRGB">
<feFlood flood-opacity="0" result="BackgroundImageFix"/>
<feColorMatrix in="SourceAlpha" type="matrix" values="0 0 0 0 0 0 0 0 0 0 0 0 0 0 0 0 0 0 127 0" result="hardAlpha"/>
<feMorphology radius="8" operator="erode" in="SourceAlpha" result="effect1_dropShadow_286_5469"/>
<feOffset dy="12"/>
<feGaussianBlur stdDeviation="8"/>
<feComposite in2="hardAlpha" operator="out"/>
<feColorMatrix type="matrix" values="0 0 0 0 0 0 0 0 0 0 0 0 0 0 0 0 0 0 0.08 0"/>
<feBlend mode="normal" in2="BackgroundImageFix" result="effect1_dropShadow_286_5469"/>
<feBlend mode="normal" in="SourceGraphic" in2="effect1_dropShadow_286_5469" result="shape"/>
</filter>
<filter id="filter2_d_286_5469" x="60" y="45" width="148" height="105" filterUnits="userSpaceOnUse" color-interpolation-filters="sRGB">
<feFlood flood-opacity="0" result="BackgroundImageFix"/>
<feColorMatrix in="SourceAlpha" type="matrix" values="0 0 0 0 0 0 0 0 0 0 0 0 0 0 0 0 0 0 127 0" result="hardAlpha"/>
<feMorphology radius="8" operator="erode" in="SourceAlpha" result="effect1_dropShadow_286_5469"/>
<feOffset dy="8"/>
<feGaussianBlur stdDeviation="8"/>
<feComposite in2="hardAlpha" operator="out"/>
<feColorMatrix type="matrix" values="0 0 0 0 0 0 0 0 0 0 0 0 0 0 0 0 0 0 0.16 0"/>
<feBlend mode="normal" in2="BackgroundImageFix" result="effect1_dropShadow_286_5469"/>
<feBlend mode="normal" in="SourceGraphic" in2="effect1_dropShadow_286_5469" result="shape"/>
</filter>
<filter id="filter3_d_286_5469" x="172" y="38" width="56" height="60" filterUnits="userSpaceOnUse" color-interpolation-filters="sRGB">
<feFlood flood-opacity="0" result="BackgroundImageFix"/>
<feColorMatrix in="SourceAlpha" type="matrix" values="0 0 0 0 0 0 0 0 0 0 0 0 0 0 0 0 0 0 127 0" result="hardAlpha"/>
<feMorphology radius="8" operator="erode" in="SourceAlpha" result="effect1_dropShadow_286_5469"/>
<feOffset dy="12"/>
<feGaussianBlur stdDeviation="8"/>
<feComposite in2="hardAlpha" operator="out"/>
<feColorMatrix type="matrix" values="0 0 0 0 0 0 0 0 0 0 0 0 0 0 0 0 0 0 0.08 0"/>
<feBlend mode="normal" in2="BackgroundImageFix" result="effect1_dropShadow_286_5469"/>
<feBlend mode="normal" in="SourceGraphic" in2="effect1_dropShadow_286_5469" result="shape"/>
</filter>
<linearGradient id="paint0_linear_286_5469" x1="19" y1="3" x2="59" y2="43" gradientUnits="userSpaceOnUse">
<stop stop-color="#4FA7FD"/>
<stop offset="1" stop-color="#4E8FF0"/>
</linearGradient>
<linearGradient id="paint1_linear_286_5469" x1="134" y1="90" x2="200" y2="134" gradientUnits="userSpaceOnUse">
<stop stop-color="white"/>
<stop offset="1" stop-color="#F9F9F9"/>
</linearGradient>
<linearGradient id="paint2_linear_286_5469" x1="180" y1="38" x2="252.5" y2="107.5" gradientUnits="userSpaceOnUse">
<stop stop-color="#FFD335"/>
<stop offset="1" stop-color="#FF9900"/>
</linearGradient>
</defs>
</svg>
