<svg width="240" height="146" viewBox="0 0 240 146" fill="none" xmlns="http://www.w3.org/2000/svg">
<rect width="240" height="140" fill="#F1F4F6"/>
<g opacity="0.8">
<rect x="143" y="62" width="80" height="64" fill="#E3E8EB"/>
<rect x="139" y="62" width="88" height="4" rx="1" fill="white"/>
<rect x="139" y="92" width="88" height="4" rx="1" fill="white"/>
<rect x="139" y="122" width="88" height="4" rx="1" fill="#F7F9FA"/>
<path opacity="0.2" d="M147 75C147 74.4477 147.448 74 148 74H161C161.552 74 162 74.4477 162 75V92H147V75Z" fill="#8092AA"/>
<path opacity="0.2" d="M147 105C147 104.448 147.448 104 148 104H180C180.552 104 181 104.448 181 105V122H147V105Z" fill="#8092AA"/>
<path opacity="0.2" d="M185 105C185 104.448 185.448 104 186 104H218C218.552 104 219 104.448 219 105V122H185V105Z" fill="#8092AA"/>
<path opacity="0.2" d="M168 75C168 74.4477 168.448 74 169 74H182C182.552 74 183 74.4477 183 75V92H168V75Z" fill="#8092AA"/>
<path opacity="0.2" d="M188 84C188 81.7909 189.791 80 192 80H195C197.209 80 199 81.7909 199 84V92H188V84Z" fill="#8092AA"/>
<path opacity="0.2" d="M191 76.5C191 75.1193 192.119 74 193.5 74C194.881 74 196 75.1193 196 76.5V80H191V76.5Z" fill="#8092AA"/>
<path opacity="0.2" d="M204 78C204 77.4477 204.448 77 205 77H218C218.552 77 219 77.4477 219 78V92H204V78Z" fill="#8092AA"/>
</g>
<rect x="83" y="6" width="64" height="100" rx="8" fill="#D6E9FB"/>
<rect x="83" y="6" width="64" height="100" rx="8" fill="#3299FE"/>
<path d="M83 31H147V126C147 130.418 143.418 134 139 134H91C86.5817 134 83 130.418 83 126V31Z" fill="#EAEAEA"/>
<g filter="url(#filter0_d_286_5947)">
<rect x="73" y="50" width="84" height="80" rx="8" fill="url(#paint0_linear_286_5947)"/>
</g>
<g filter="url(#filter1_d_286_5947)">
<rect x="77" y="102" width="76" height="20" rx="10" fill="#3299FE"/>
<rect x="115.75" y="116" width="1.5" height="7" rx="0.5" transform="rotate(-180 115.75 116)" fill="white"/>
<path fill-rule="evenodd" clip-rule="evenodd" d="M114.47 107.47C114.763 107.177 115.237 107.177 115.53 107.47L118.53 110.47C118.823 110.763 118.823 111.237 118.53 111.53C118.237 111.823 117.763 111.823 117.47 111.53L115 109.061L112.53 111.53C112.237 111.823 111.763 111.823 111.47 111.53C111.177 111.237 111.177 110.763 111.47 110.47L114.47 107.47Z" fill="white"/>
</g>
<rect x="81" y="70" width="68" height="20" rx="4" fill="#F4F4F4"/>
<path d="M112.32 83.0781C113.598 83.0781 114.516 82.3828 114.508 81.4141C114.516 80.707 114.059 80.2031 113.227 80.1016V80.0547C113.859 79.9414 114.301 79.4922 114.297 78.8594C114.301 77.9648 113.516 77.2656 112.336 77.2656C111.176 77.2656 110.301 77.9414 110.281 78.9141H111.406C111.426 78.4805 111.836 78.1992 112.336 78.2031C112.836 78.1992 113.168 78.4961 113.164 78.9297C113.168 79.375 112.777 79.6797 112.219 79.6797H111.695V80.5469H112.219C112.883 80.5508 113.293 80.875 113.289 81.3359C113.293 81.793 112.891 82.1055 112.328 82.1094C111.781 82.1055 111.371 81.8281 111.352 81.4062H110.164C110.188 82.3945 111.078 83.0781 112.32 83.0781Z" fill="#333333"/>
<path d="M117.43 83.0781C118.707 83.0781 119.625 82.3828 119.617 81.4141C119.625 80.707 119.168 80.2031 118.336 80.1016V80.0547C118.969 79.9414 119.41 79.4922 119.406 78.8594C119.41 77.9648 118.625 77.2656 117.445 77.2656C116.285 77.2656 115.41 77.9414 115.391 78.9141H116.516C116.535 78.4805 116.945 78.1992 117.445 78.2031C117.945 78.1992 118.277 78.4961 118.273 78.9297C118.277 79.375 117.887 79.6797 117.328 79.6797H116.805V80.5469H117.328C117.992 80.5508 118.402 80.875 118.398 81.3359C118.402 81.793 118 82.1055 117.438 82.1094C116.891 82.1055 116.48 81.8281 116.461 81.4062H115.273C115.297 82.3945 116.188 83.0781 117.43 83.0781Z" fill="#333333"/>
<circle cx="139" cy="80" r="6" fill="white"/>
<path fill-rule="evenodd" clip-rule="evenodd" d="M139.6 77.6C139.6 77.2686 139.331 77 139 77C138.668 77 138.4 77.2686 138.4 77.6V79.4H136.6C136.269 79.4 136 79.6686 136 80C136 80.3314 136.269 80.6 136.6 80.6H138.4V82.4C138.4 82.7314 138.668 83 139 83C139.331 83 139.6 82.7314 139.6 82.4V80.6H141.4C141.731 80.6 142 80.3314 142 80C142 79.6686 141.731 79.4 141.4 79.4H139.6V77.6Z" fill="#333333"/>
<circle cx="91" cy="80" r="6" fill="white"/>
<path d="M88 79.9999C88 79.6685 88.2686 79.3999 88.6 79.3999H93.4C93.7314 79.3999 94 79.6685 94 79.9999C94 80.3313 93.7314 80.5999 93.4 80.5999H88.6C88.2686 80.5999 88 80.3313 88 79.9999Z" fill="#333333"/>
<rect x="81" y="58" width="24" height="4" rx="1" fill="#EAEAEA"/>
<rect x="87" y="18" width="56" height="28" rx="4" fill="white"/>
<rect x="107" y="22" width="16" height="4" rx="1" fill="#EAEAEA"/>
<path d="M110.508 30.3438H109.398L108 31.2344V32.2734L109.297 31.4609H109.328V36H110.508V30.3438Z" fill="#333333"/>
<path d="M114.016 36.0781C115.43 36.0781 116.289 35.0312 116.289 33.1719C116.289 31.3242 115.426 30.2656 114.016 30.2656C112.605 30.2656 111.742 31.3242 111.742 33.1719C111.742 35.0234 112.598 36.0781 114.016 36.0781ZM112.945 33.1719C112.945 31.8789 113.363 31.2305 114.016 31.2266C114.668 31.2305 115.09 31.8789 115.086 33.1719C115.09 34.4766 114.672 35.1094 114.016 35.1094C113.359 35.1094 112.938 34.4766 112.945 33.1719Z" fill="#333333"/>
<path d="M119.18 36.0781C120.453 36.0781 121.32 35.2617 121.32 34.1172C121.32 33.0312 120.547 32.2539 119.508 32.2578C119.012 32.2539 118.582 32.457 118.375 32.7344H118.328L118.484 31.3047H121V30.3438H117.516L117.211 33.6016H118.273C118.441 33.2852 118.738 33.125 119.164 33.125C119.758 33.1289 120.184 33.5469 120.18 34.1484C120.184 34.7383 119.766 35.1523 119.18 35.1484C118.688 35.1523 118.285 34.8477 118.258 34.4062H117.117C117.137 35.3828 118 36.0781 119.18 36.0781Z" fill="#333333"/>
<rect x="12" y="18" width="52.3636" height="72" rx="8" fill="white"/>
<path opacity="0.8" d="M57.8176 44.1818C57.8176 41.6031 57.3097 39.0497 56.3229 36.6673C55.3361 34.2849 53.8897 32.1202 52.0663 30.2968C50.2429 28.4734 48.0782 27.027 45.6958 26.0401C43.3134 25.0533 40.76 24.5454 38.1813 24.5454V44.1818H57.8176Z" fill="#406588"/>
<path opacity="0.8" d="M24.2963 58.0668C27.0425 60.813 30.5413 62.6832 34.3504 63.4408C38.1595 64.1985 42.1077 63.8096 45.6958 62.3234C49.2839 60.8372 52.3507 58.3203 54.5083 55.0912C56.666 51.862 57.8176 48.0655 57.8176 44.1818H38.1813L24.2963 58.0668Z" fill="#4DC9AA"/>
<path opacity="0.8" d="M38.1813 24.5454C34.2976 24.5454 30.5011 25.6971 27.2719 27.8547C24.0427 30.0124 21.5259 33.0792 20.0397 36.6673C18.5534 40.2553 18.1646 44.2036 18.9222 48.0126C19.6799 51.8217 21.5501 55.3206 24.2963 58.0668L38.1813 44.1818V24.5454Z" fill="#3299FE"/>
<circle cx="19.7969" cy="78.1592" r="0.75" stroke="#35485B"/>
<circle cx="23.25" cy="82.25" r="0.75" stroke="#35485B"/>
<rect x="18.8362" y="82.4672" width="6.29405" height="0.409103" rx="0.204551" transform="rotate(-45 18.8362 82.4672)" stroke="#35485B" stroke-width="0.409103"/>
<rect opacity="0.4" x="43.7266" y="35.3638" width="6.54545" height="3.27273" rx="1" fill="white"/>
<rect opacity="0.4" x="25" y="38" width="6.54545" height="3.27273" rx="1" fill="white"/>
<rect opacity="0.4" x="38.1816" y="50.7272" width="6.54545" height="3.27273" rx="1" fill="white"/>
<ellipse cx="47.9996" cy="72" rx="1.63636" ry="1.63636" fill="#3299FE"/>
<ellipse cx="47.9996" cy="76.9091" rx="1.63636" ry="1.63636" fill="#406588"/>
<ellipse cx="47.9996" cy="81.818" rx="1.63636" ry="1.63636" fill="#4DC9AA"/>
<rect opacity="0.2" x="51.2734" y="70.3635" width="6.54545" height="3.27273" rx="1" fill="#8092AA"/>
<rect opacity="0.2" x="51.2734" y="75.2727" width="6.54545" height="3.27273" rx="1" fill="#8092AA"/>
<rect opacity="0.2" x="51.2734" y="80.1816" width="6.54545" height="3.27273" rx="1" fill="#8092AA"/>
<rect x="203" y="76" width="17" height="3" rx="1" fill="#C0CCD5"/>
<rect x="195" y="107" width="14" height="3" rx="1.5" fill="#C0CCD5"/>
<rect x="157" y="107" width="14" height="3" rx="1.5" fill="#C0CCD5"/>
<circle opacity="0.5" cx="211.5" cy="84.5" r="3.5" fill="#C0CCD4"/>
<rect x="191" y="74" width="5" height="2" rx="0.5" fill="#C0CCD4"/>
<path opacity="0.5" d="M194 84.5C194 84.2239 194.224 84 194.5 84H198.5C198.776 84 199 84.2239 199 84.5V89.5C199 89.7761 198.776 90 198.5 90H194.5C194.224 90 194 89.7761 194 89.5V84.5Z" fill="#C0CCD4"/>
<defs>
<filter id="filter0_d_286_5947" x="65" y="50" width="100" height="96" filterUnits="userSpaceOnUse" color-interpolation-filters="sRGB">
<feFlood flood-opacity="0" result="BackgroundImageFix"/>
<feColorMatrix in="SourceAlpha" type="matrix" values="0 0 0 0 0 0 0 0 0 0 0 0 0 0 0 0 0 0 127 0" result="hardAlpha"/>
<feMorphology radius="8" operator="erode" in="SourceAlpha" result="effect1_dropShadow_286_5947"/>
<feOffset dy="8"/>
<feGaussianBlur stdDeviation="8"/>
<feComposite in2="hardAlpha" operator="out"/>
<feColorMatrix type="matrix" values="0 0 0 0 0 0 0 0 0 0 0 0 0 0 0 0 0 0 0.16 0"/>
<feBlend mode="normal" in2="BackgroundImageFix" result="effect1_dropShadow_286_5947"/>
<feBlend mode="normal" in="SourceGraphic" in2="effect1_dropShadow_286_5947" result="shape"/>
</filter>
<filter id="filter1_d_286_5947" x="73" y="102" width="84" height="28" filterUnits="userSpaceOnUse" color-interpolation-filters="sRGB">
<feFlood flood-opacity="0" result="BackgroundImageFix"/>
<feColorMatrix in="SourceAlpha" type="matrix" values="0 0 0 0 0 0 0 0 0 0 0 0 0 0 0 0 0 0 127 0" result="hardAlpha"/>
<feOffset dy="4"/>
<feGaussianBlur stdDeviation="2"/>
<feComposite in2="hardAlpha" operator="out"/>
<feColorMatrix type="matrix" values="0 0 0 0 0.247969 0 0 0 0 0.558247 0 0 0 0 0.8625 0 0 0 0.2 0"/>
<feBlend mode="normal" in2="BackgroundImageFix" result="effect1_dropShadow_286_5947"/>
<feBlend mode="normal" in="SourceGraphic" in2="effect1_dropShadow_286_5947" result="shape"/>
</filter>
<linearGradient id="paint0_linear_286_5947" x1="73" y1="50" x2="160.856" y2="125.514" gradientUnits="userSpaceOnUse">
<stop stop-color="white"/>
<stop offset="1" stop-color="#F9F9F9"/>
</linearGradient>
</defs>
</svg>
