<svg width="312" height="176" viewBox="0 0 312 176" fill="none" xmlns="http://www.w3.org/2000/svg">
<rect x="1" y="1" width="310" height="174" rx="7" fill="#F4F4F4"/>
<rect x="1" y="1" width="310" height="174" rx="7" stroke="#F4F4F4" stroke-width="2"/>
<g clip-path="url(#clip0_815_37981)">
<rect width="296" height="16" transform="translate(16 16)" fill="#D24726"/>
<rect width="296" height="144" transform="translate(16 32)" fill="white"/>
<path d="M28.5156 49.625V47.6875H37.7812V49.625H34.3125V59H31.9844V49.625H28.5156ZM41.5781 47.6875V59H39.2344V47.6875H41.5781ZM43.0469 49.625V47.6875H52.3125V49.625H48.8438V59H46.5156V49.625H43.0469ZM53.7656 59V47.6875H56.1094V57.0625H60.9844V59H53.7656ZM62.5 59V47.6875H70.0938V49.625H64.8438V52.375H69.7031V54.3125H64.8438V57.0625H70.1094V59H62.5Z" fill="#333333"/>
<path d="M238.33 61H236.035V53.9297H238.398C240.479 53.9297 241.729 55.2578 241.729 57.4551C241.729 59.6621 240.479 61 238.33 61ZM237.109 60.0625H238.271C239.873 60.0625 240.664 59.125 240.664 57.4551C240.664 55.7949 239.873 54.8672 238.33 54.8672H237.109V60.0625ZM243.193 61H242.051L244.59 53.9297H245.83L248.379 61H247.236L246.592 59.1348H243.838L243.193 61ZM244.15 58.2363H246.279L245.234 55.2188H245.186L244.15 58.2363ZM248.086 54.8574V53.9297H253.564V54.8574H251.367V61H250.293V54.8574H248.086ZM254.658 61V53.9297H259.092V54.8574H255.732V56.9961H258.857V57.9141H255.732V60.0723H259.131V61H254.658Z" fill="#999999"/>
<rect x="264" y="55" width="40" height="4" rx="1" fill="#EAEAEA"/>
<g clip-path="url(#clip1_815_37981)">
<rect width="284" height="20" transform="translate(28 71)" fill="#F4F4F4"/>
<circle cx="41.9977" cy="78.4001" r="2.4" fill="#CCCCCC"/>
<path d="M38.4023 85.2C38.4023 83.2118 40.0141 81.6 42.0023 81.6C43.9906 81.6 45.6023 83.2118 45.6023 85.2V85.4182C45.6023 85.6291 45.4314 85.8 45.2205 85.8H38.7842C38.5733 85.8 38.4023 85.6291 38.4023 85.4182V85.2Z" fill="#CCCCCC"/>
<g clip-path="url(#clip2_815_37981)">
<rect x="28" y="122.691" width="80" height="80" rx="20" transform="rotate(-12 28 122.691)" fill="#F4F4F4"/>
<circle cx="57.6536" cy="141.947" r="10" transform="rotate(-12 57.6536 141.947)" fill="white"/>
<path d="M67.5059 162.084C66.3653 161.436 65.0005 161.833 64.3602 162.999L55.8798 178.446C54.7924 180.427 56.4482 182.979 58.536 182.541L102.716 173.261C104.029 172.985 104.843 171.578 104.534 170.121L87.2883 149.536C86.0742 148.356 84.2237 148.701 83.528 150.236L73.85 165.691L67.5059 162.084Z" fill="white"/>
</g>
<g clip-path="url(#clip3_815_37981)">
<rect x="130.883" y="122.691" width="80" height="80" rx="20" transform="rotate(-12 130.883 122.691)" fill="#F4F4F4"/>
<circle cx="160.536" cy="141.947" r="10" transform="rotate(-12 160.536 141.947)" fill="white"/>
<path d="M170.389 162.084C169.248 161.436 167.883 161.833 167.243 162.999L158.763 178.446C157.675 180.427 159.331 182.979 161.419 182.541L205.599 173.261C206.912 172.985 207.726 171.578 207.416 170.121L190.171 149.536C188.957 148.356 187.107 148.701 186.411 150.236L176.733 165.691L170.389 162.084Z" fill="white"/>
</g>
<g clip-path="url(#clip4_815_37981)">
<rect x="233.77" y="122.691" width="80" height="80" rx="20" transform="rotate(-12 233.77 122.691)" fill="#F4F4F4"/>
<circle cx="263.423" cy="141.947" r="10" transform="rotate(-12 263.423 141.947)" fill="white"/>
<path d="M273.275 162.084C272.135 161.436 270.77 161.833 270.13 162.999L261.649 178.446C260.562 180.427 262.218 182.979 264.306 182.541L308.485 173.261C309.798 172.985 310.613 171.578 310.303 170.121L293.058 149.536C291.844 148.356 289.993 148.701 289.298 150.236L279.62 165.691L273.275 162.084Z" fill="white"/>
</g>
</g>
</g>
<defs>
<clipPath id="clip0_815_37981">
<path d="M16 20C16 17.7909 17.7909 16 20 16H312V176H16V20Z" fill="white"/>
</clipPath>
<clipPath id="clip1_815_37981">
<path d="M28 73C28 71.8954 28.8954 71 30 71H312V176H28V73Z" fill="white"/>
</clipPath>
<clipPath id="clip2_815_37981">
<rect width="80" height="80" fill="white" transform="translate(28 122.691) rotate(-12)"/>
</clipPath>
<clipPath id="clip3_815_37981">
<rect width="80" height="80" fill="white" transform="translate(130.883 122.691) rotate(-12)"/>
</clipPath>
<clipPath id="clip4_815_37981">
<rect width="80" height="80" fill="white" transform="translate(233.77 122.691) rotate(-12)"/>
</clipPath>
</defs>
</svg>
