<svg width="240" height="140" viewBox="0 0 240 140" fill="none" xmlns="http://www.w3.org/2000/svg">
<rect width="240" height="140" fill="#F1F4F6"/>
<rect x="17" y="16" width="192" height="124" rx="4" fill="url(#paint0_linear_286_5517)"/>
<circle cx="26" cy="25" r="3" fill="#406588"/>
<circle cx="35" cy="25" r="3" fill="#4DC9AA"/>
<circle cx="44" cy="25" r="3" fill="#3299FE"/>
<g opacity="0.8">
<path fill-rule="evenodd" clip-rule="evenodd" d="M62.1591 59.5409C51.5348 43.0142 39.5782 41.7746 35.2662 42.9641L34.7344 41.0361C40.0891 39.559 52.8658 41.3861 63.8415 58.4594C70.4634 68.7602 78.3046 72.8715 85.367 72.8127C92.4493 72.7537 99.0296 68.5022 103.138 61.4945C107.465 54.1121 112.6 49.8858 119.167 49.7504C125.621 49.6173 133.117 53.4618 142.153 61.2424C151.116 68.961 157.734 71.7479 164.317 69.6115C167.665 68.5248 171.125 66.1321 174.957 62.2149C178.787 58.3005 182.936 52.9193 187.673 45.9387L189.328 47.0617C184.565 54.0811 180.338 59.5748 176.387 63.6136C172.438 67.6496 168.711 70.2881 164.934 71.5139C157.266 74.0025 149.884 70.5394 140.848 62.758C131.883 55.0386 124.879 51.6331 119.208 51.75C113.651 51.8646 109.035 55.3883 104.863 62.5059C100.471 69.9982 93.3013 74.7467 85.3836 74.8126C77.4461 74.8788 69.0372 70.2401 62.1591 59.5409Z" fill="#3299FE"/>
<path d="M37 42C37 43.1046 36.1046 44 35 44C33.8954 44 33 43.1046 33 42C33 40.8954 33.8954 40 35 40C36.1046 40 37 40.8954 37 42Z" fill="#3299FE"/>
<path fill-rule="evenodd" clip-rule="evenodd" d="M39 42C39 44.2091 37.2091 46 35 46C32.7909 46 31 44.2091 31 42C31 39.7909 32.7909 38 35 38C37.2091 38 39 39.7909 39 42ZM35 44C36.1046 44 37 43.1046 37 42C37 40.8954 36.1046 40 35 40C33.8954 40 33 40.8954 33 42C33 43.1046 33.8954 44 35 44Z" fill="white"/>
<path d="M89 74C89 75.1046 88.1046 76 87 76C85.8954 76 85 75.1046 85 74C85 72.8954 85.8954 72 87 72C88.1046 72 89 72.8954 89 74Z" fill="#3299FE"/>
<path fill-rule="evenodd" clip-rule="evenodd" d="M91 74C91 76.2091 89.2091 78 87 78C84.7909 78 83 76.2091 83 74C83 71.7909 84.7909 70 87 70C89.2091 70 91 71.7909 91 74ZM87 76C88.1046 76 89 75.1046 89 74C89 72.8954 88.1046 72 87 72C85.8954 72 85 72.8954 85 74C85 75.1046 85.8954 76 87 76Z" fill="white"/>
<path d="M146 62C146 63.1046 145.105 64 144 64C142.895 64 142 63.1046 142 62C142 60.8954 142.895 60 144 60C145.105 60 146 60.8954 146 62Z" fill="#3299FE"/>
<path fill-rule="evenodd" clip-rule="evenodd" d="M148 62C148 64.2091 146.209 66 144 66C141.791 66 140 64.2091 140 62C140 59.7909 141.791 58 144 58C146.209 58 148 59.7909 148 62ZM144 64C145.105 64 146 63.1046 146 62C146 60.8954 145.105 60 144 60C142.895 60 142 60.8954 142 62C142 63.1046 142.895 64 144 64Z" fill="#E3E8EB"/>
<path d="M193 42C193 43.1046 192.105 44 191 44C189.895 44 189 43.1046 189 42C189 40.8954 189.895 40 191 40C192.105 40 193 40.8954 193 42Z" fill="#3299FE"/>
<path fill-rule="evenodd" clip-rule="evenodd" d="M195 42C195 44.2091 193.209 46 191 46C188.791 46 187 44.2091 187 42C187 39.7909 188.791 38 191 38C193.209 38 195 39.7909 195 42ZM191 44C192.105 44 193 43.1046 193 42C193 40.8954 192.105 40 191 40C189.895 40 189 40.8954 189 42C189 43.1046 189.895 44 191 44Z" fill="white"/>
<path fill-rule="evenodd" clip-rule="evenodd" d="M100.605 50.7345C99.5509 52.3934 98.5256 53.8874 97.52 54.9402C93.6986 58.9413 89.8473 61.2834 85.0579 61.3882C80.3387 61.4914 74.9063 59.4127 67.9194 55.1005C59.8444 50.1168 51.5767 51.0527 45.2382 53.2933C42.0703 54.4132 39.4096 55.8518 37.5403 57.012C36.6068 57.5913 35.8737 58.0993 35.3767 58.4602C35.1283 58.6406 34.9392 58.7841 34.8137 58.8811C34.751 58.9297 34.7042 58.9666 34.6739 58.9907L34.641 59.0171L34.6339 59.0228L34.6332 59.0234L34.6328 59.0237C34.2054 59.373 33.5756 59.3099 33.226 58.8826C32.8763 58.4551 32.9394 57.8251 33.3668 57.4754L34 58.2494C33.3668 57.4754 33.3672 57.4751 33.3677 57.4747L33.3689 57.4737L33.3726 57.4707L33.3847 57.4609L33.4281 57.4261C33.4655 57.3964 33.5196 57.3537 33.5898 57.2993C33.7304 57.1906 33.9358 57.0349 34.2015 56.8419C34.7327 56.4561 35.5061 55.9205 36.4857 55.3126C38.4424 54.0982 41.2342 52.5874 44.5716 51.4077C51.2438 49.0491 60.1984 47.985 68.9698 53.3986C75.8718 57.6584 80.8915 59.4788 85.0142 59.3887C89.0666 59.3 92.447 57.3561 96.0737 53.5589C96.9302 52.6621 97.8649 51.3177 98.9165 49.6621C99.4267 48.8588 99.9551 47.9977 100.509 47.0955L100.545 47.0367C101.11 46.1154 101.7 45.1538 102.316 44.1831C104.76 40.327 107.676 36.1953 111.25 33.6136C113.052 32.3117 115.052 31.3811 117.267 31.0935C119.489 30.8049 121.861 31.1726 124.386 32.3642C129.391 34.7264 135.023 40.3375 141.512 50.6198C147.903 60.7459 154.338 66.4393 160.336 69.3489C166.321 72.2521 171.948 72.4222 176.809 71.3633C181.688 70.3007 185.809 67.9957 188.723 65.9388C190.177 64.9126 191.322 63.9543 192.1 63.2554C192.489 62.9061 192.786 62.6221 192.983 62.4276C193.082 62.3303 193.156 62.2554 193.205 62.206C193.229 62.1812 193.246 62.1629 193.258 62.1512L193.269 62.1389L193.271 62.1369L193.271 62.1366L193.272 62.1364C193.65 61.7343 194.282 61.7147 194.685 62.0927C195.087 62.4708 195.107 63.1036 194.729 63.5062L194 62.8215C194.729 63.5062 194.728 63.5067 194.728 63.5073L194.726 63.5092L194.721 63.5148L194.702 63.534C194.687 63.5502 194.665 63.5732 194.636 63.6026C194.579 63.6614 194.495 63.7459 194.386 63.853C194.169 64.0673 193.85 64.3722 193.436 64.7434C192.61 65.4854 191.404 66.4943 189.877 67.5727C186.828 69.7251 182.46 72.1796 177.235 73.3175C171.993 74.4593 165.901 74.2712 159.464 71.1484C153.039 68.0321 146.349 62.0316 139.821 51.6872C133.391 41.4988 128.012 36.2869 123.532 34.1729C121.315 33.1264 119.327 32.8427 117.524 33.0768C115.714 33.3119 114.023 34.0782 112.421 35.2348C109.189 37.57 106.447 41.4014 104.005 45.2539C103.399 46.2104 102.815 47.1601 102.249 48.0826L102.209 48.1493C101.658 49.046 101.123 49.9182 100.605 50.7345Z" fill="#406588"/>
<path d="M37 57C37 58.1046 36.1046 59 35 59C33.8954 59 33 58.1046 33 57C33 55.8954 33.8954 55 35 55C36.1046 55 37 55.8954 37 57Z" fill="#406588"/>
<path fill-rule="evenodd" clip-rule="evenodd" d="M39 57C39 59.2091 37.2091 61 35 61C32.7909 61 31 59.2091 31 57C31 54.7909 32.7909 53 35 53C37.2091 53 39 54.7909 39 57ZM35 59C36.1046 59 37 58.1046 37 57C37 55.8954 36.1046 55 35 55C33.8954 55 33 55.8954 33 57C33 58.1046 33.8954 59 35 59Z" fill="white"/>
<path d="M89 60C89 61.1046 88.1046 62 87 62C85.8954 62 85 61.1046 85 60C85 58.8954 85.8954 58 87 58C88.1046 58 89 58.8954 89 60Z" fill="#406588"/>
<path fill-rule="evenodd" clip-rule="evenodd" d="M91 60C91 62.2091 89.2091 64 87 64C84.7909 64 83 62.2091 83 60C83 57.7909 84.7909 56 87 56C89.2091 56 91 57.7909 91 60ZM87 62C88.1046 62 89 61.1046 89 60C89 58.8954 88.1046 58 87 58C85.8954 58 85 58.8954 85 60C85 61.1046 85.8954 62 87 62Z" fill="white"/>
<path d="M141 48C141 49.1046 140.105 50 139 50C137.895 50 137 49.1046 137 48C137 46.8954 137.895 46 139 46C140.105 46 141 46.8954 141 48Z" fill="#406588"/>
<path fill-rule="evenodd" clip-rule="evenodd" d="M143 48C143 50.2091 141.209 52 139 52C136.791 52 135 50.2091 135 48C135 45.7909 136.791 44 139 44C141.209 44 143 45.7909 143 48ZM139 50C140.105 50 141 49.1046 141 48C141 46.8954 140.105 46 139 46C137.895 46 137 46.8954 137 48C137 49.1046 137.895 50 139 50Z" fill="white"/>
<path fill-rule="evenodd" clip-rule="evenodd" d="M34.0136 72.2248L34.0173 72.2247L34.0354 72.2246C34.0524 72.2245 34.0791 72.2244 34.1153 72.2245C34.1878 72.2248 34.2983 72.2258 34.4452 72.229C34.7389 72.2353 35.1777 72.2503 35.7471 72.2851C36.886 72.3546 38.5468 72.5032 40.6141 72.8194C44.7495 73.452 50.5046 74.7547 56.9598 77.4342C61.2189 79.202 64.423 80.6737 67.3013 81.9958C73.1783 84.6952 77.6969 86.7706 87.0637 89.4692C94.181 91.5197 102.946 91.7718 113.36 90.6502C123.782 89.5278 135.921 87.0217 149.817 83.5044C163.549 80.0284 174.514 80.5221 182.025 81.8714C185.782 82.5464 188.678 83.436 190.626 84.1522C191.6 84.5104 192.337 84.8251 192.826 85.0479C193.07 85.1592 193.252 85.2476 193.371 85.3069C193.431 85.3366 193.475 85.359 193.502 85.3733L193.532 85.3887L193.537 85.3915C193.537 85.3915 193.537 85.3916 193.537 85.3915C194.011 85.6471 194.602 85.4706 194.858 84.997C195.114 84.5233 194.937 83.9319 194.463 83.6761L194 84.5338C194.463 83.6761 194.463 83.6758 194.462 83.6755L194.461 83.6748L194.457 83.6726L194.444 83.6659L194.401 83.6431C194.364 83.6238 194.31 83.5965 194.241 83.562C194.102 83.4929 193.9 83.3948 193.634 83.2738C193.103 83.0318 192.321 82.6983 191.299 82.3224C189.254 81.5707 186.249 80.6494 182.37 79.9526C174.609 78.5583 163.362 78.0648 149.339 81.6144C135.479 85.1226 123.44 87.6037 113.151 88.7119C102.854 89.8208 94.3749 89.5467 87.6034 87.5958C78.3753 84.9372 74.0303 82.9403 68.2325 80.2756C65.3452 78.9485 62.0976 77.4559 57.7072 75.6336C51.0814 72.8833 45.1699 71.5441 40.9089 70.8923C38.7779 70.5663 37.058 70.4119 35.8659 70.3391C35.2698 70.3027 34.8054 70.2867 34.4873 70.2798C34.3283 70.2764 34.2058 70.2753 34.1217 70.275C34.0797 70.2748 34.0472 70.2749 34.0246 70.275L33.998 70.2752L33.9903 70.2753L33.9878 70.2754C33.9875 70.2754 33.9863 70.2754 34.0002 71.2501L33.9863 70.2754C33.448 70.283 33.0178 70.7256 33.0255 71.2639C33.0332 71.8021 33.4755 72.2322 34.0136 72.2248Z" fill="#FFDA75"/>
<path d="M37 71C37 72.1046 36.1046 73 35 73C33.8954 73 33 72.1046 33 71C33 69.8954 33.8954 69 35 69C36.1046 69 37 69.8954 37 71Z" fill="#FFDA75"/>
<path fill-rule="evenodd" clip-rule="evenodd" d="M39 71C39 73.2091 37.2091 75 35 75C32.7909 75 31 73.2091 31 71C31 68.7909 32.7909 67 35 67C37.2091 67 39 68.7909 39 71ZM35 73C36.1046 73 37 72.1046 37 71C37 69.8954 36.1046 69 35 69C33.8954 69 33 69.8954 33 71C33 72.1046 33.8954 73 35 73Z" fill="white"/>
<path d="M89 89C89 90.1046 88.1046 91 87 91C85.8954 91 85 90.1046 85 89C85 87.8954 85.8954 87 87 87C88.1046 87 89 87.8954 89 89Z" fill="#FFDA75"/>
<path fill-rule="evenodd" clip-rule="evenodd" d="M91 89C91 91.2091 89.2091 93 87 93C84.7909 93 83 91.2091 83 89C83 86.7909 84.7909 85 87 85C89.2091 85 91 86.7909 91 89ZM87 91C88.1046 91 89 90.1046 89 89C89 87.8954 88.1046 87 87 87C85.8954 87 85 87.8954 85 89C85 90.1046 85.8954 91 87 91Z" fill="white"/>
<path d="M146 84C146 85.1046 145.105 86 144 86C142.895 86 142 85.1046 142 84C142 82.8954 142.895 82 144 82C145.105 82 146 82.8954 146 84Z" fill="#4DC9AA"/>
<path fill-rule="evenodd" clip-rule="evenodd" d="M148 84C148 86.2091 146.209 88 144 88C141.791 88 140 86.2091 140 84C140 81.7909 141.791 80 144 80C146.209 80 148 81.7909 148 84ZM144 86C145.105 86 146 85.1046 146 84C146 82.8954 145.105 82 144 82C142.895 82 142 82.8954 142 84C142 85.1046 142.895 86 144 86Z" fill="#E3E8EB"/>
</g>
<g opacity="0.8">
<circle cx="35" cy="122" r="2" fill="#3299FE"/>
<circle cx="65" cy="122" r="2" fill="#406588"/>
<circle cx="95" cy="122" r="2" fill="#FFDA75"/>
<rect opacity="0.2" x="39" y="120" width="16" height="4" rx="1" fill="#8092AA"/>
<rect opacity="0.2" x="69" y="120" width="16" height="4" rx="1" fill="#8092AA"/>
<rect opacity="0.2" x="99" y="120" width="16" height="4" rx="1" fill="#8092AA"/>
</g>
<g filter="url(#filter0_d_286_5517)">
<path d="M115 62C115 57.5817 118.582 54 123 54H215C219.418 54 223 57.5817 223 62V98C223 102.418 219.418 106 215 106H123C118.582 106 115 102.418 115 98V62Z" fill="url(#paint1_linear_286_5517)"/>
</g>
<path d="M128.668 84H134.738V82.5469H131.117V82.5L132.406 81.2461C134.152 79.6641 134.621 78.873 134.621 77.9062C134.621 76.4355 133.414 75.3984 131.598 75.3984C129.811 75.3984 128.58 76.459 128.586 78.1172H130.262C130.256 77.3027 130.777 76.7988 131.574 76.8047C132.354 76.7988 132.922 77.2676 132.922 78.0234C132.922 78.6973 132.494 79.166 131.703 79.9219L128.656 82.7227L128.668 84Z" fill="#333333"/>
<path d="M139.285 84.1172C141.406 84.1172 142.695 82.5469 142.695 79.7578C142.695 76.9863 141.4 75.3984 139.285 75.3984C137.17 75.3984 135.875 76.9863 135.875 79.7578C135.875 82.5352 137.158 84.1172 139.285 84.1172ZM137.68 79.7578C137.68 77.8184 138.307 76.8457 139.285 76.8398C140.264 76.8457 140.897 77.8184 140.891 79.7578C140.897 81.7148 140.27 82.6641 139.285 82.6641C138.301 82.6641 137.668 81.7148 137.68 79.7578Z" fill="#333333"/>
<path d="M149.988 78.3438V81.9219C149.992 82.5742 149.531 83.043 148.824 83.0469C148.125 83.043 147.664 82.5742 147.66 81.9219V78.3438H146.488V82.0156C146.488 83.2539 147.418 84.082 148.824 84.0781C150.227 84.082 151.168 83.2539 151.168 82.0156V78.3438H149.988Z" fill="#333333"/>
<path d="M155.191 79.9609H156.316C156.301 78.9609 155.477 78.2656 154.223 78.2656C152.984 78.2656 152.078 78.9492 152.082 79.9766C152.082 80.8047 152.668 81.2812 153.621 81.5156L154.238 81.6641C154.855 81.8164 155.207 81.9961 155.207 82.3828C155.207 82.8047 154.809 83.0938 154.191 83.0938C153.566 83.0938 153.113 82.8047 153.074 82.2344H151.934C151.969 83.4492 152.84 84.082 154.207 84.0781C155.586 84.082 156.391 83.418 156.395 82.3828C156.391 81.4414 155.668 80.9492 154.699 80.7266L154.191 80.6016C153.703 80.4922 153.281 80.3086 153.285 79.8984C153.289 79.5234 153.621 79.25 154.215 79.25C154.789 79.25 155.145 79.5117 155.191 79.9609Z" fill="#333333"/>
<path d="M159.152 84C160.879 84 161.922 82.9336 161.918 81.1641C161.922 79.4023 160.879 78.3438 159.176 78.3438H157.16V84H159.152ZM158.332 82.9922V79.3516H159.113C160.184 79.3516 160.746 79.9062 160.746 81.1641C160.746 82.4336 160.184 82.9922 159.105 82.9922H158.332Z" fill="#333333"/>
<path d="M129.445 71H133.492V70.0312H131.078V70L131.938 69.1641C133.102 68.1094 133.414 67.582 133.414 66.9375C133.414 65.957 132.609 65.2656 131.398 65.2656C130.207 65.2656 129.387 65.9727 129.391 67.0781H130.508C130.504 66.5352 130.852 66.1992 131.383 66.2031C131.902 66.1992 132.281 66.5117 132.281 67.0156C132.281 67.4648 131.996 67.7773 131.469 68.2812L129.438 70.1484L129.445 71Z" fill="#8092AA"/>
<path d="M134.109 70H136.859V71H137.977V70H138.695V69.0547H137.977V65.3438H136.5L134.109 69.0703V70ZM135.297 69.0547V69.0078L136.82 66.6328H136.875V69.0547H135.297Z" fill="#8092AA"/>
<path d="M143.77 68.1719V69.9609C143.771 70.2871 143.541 70.5215 143.188 70.5234C142.838 70.5215 142.607 70.2871 142.605 69.9609V68.1719H142.02V70.0078C142.02 70.627 142.484 71.041 143.188 71.0391C143.889 71.041 144.359 70.627 144.359 70.0078V68.1719H143.77Z" fill="#8092AA"/>
<path d="M146.371 68.9805H146.934C146.926 68.4805 146.514 68.1328 145.887 68.1328C145.268 68.1328 144.814 68.4746 144.816 68.9883C144.816 69.4023 145.109 69.6406 145.586 69.7578L145.895 69.832C146.203 69.9082 146.379 69.998 146.379 70.1914C146.379 70.4023 146.18 70.5469 145.871 70.5469C145.559 70.5469 145.332 70.4023 145.313 70.1172H144.742C144.76 70.7246 145.195 71.041 145.879 71.0391C146.568 71.041 146.971 70.709 146.973 70.1914C146.971 69.7207 146.609 69.4746 146.125 69.3633L145.871 69.3008C145.627 69.2461 145.416 69.1543 145.418 68.9492C145.42 68.7617 145.586 68.625 145.883 68.625C146.17 68.625 146.348 68.7559 146.371 68.9805Z" fill="#8092AA"/>
<path d="M148.352 71C149.215 71 149.736 70.4668 149.734 69.582C149.736 68.7012 149.215 68.1719 148.363 68.1719H147.355V71H148.352ZM147.941 70.4961V68.6758H148.332C148.867 68.6758 149.148 68.9531 149.148 69.582C149.148 70.2168 148.867 70.4961 148.328 70.4961H147.941Z" fill="#8092AA"/>
<rect x="128" y="90" width="22" height="4" rx="2" fill="#DDDDDD"/>
<rect x="126" y="68" width="27" height="1" rx="0.5" fill="#FF6666"/>
<rect x="185" y="76" width="4.03448" height="9" fill="#777777"/>
<rect x="190.379" y="76" width="1.7931" height="9" fill="#777777"/>
<rect x="193.518" y="76" width="1.34483" height="9" fill="#777777"/>
<rect x="196.207" y="76" width="3.13793" height="9" fill="#777777"/>
<rect x="200.689" y="76" width="3.13793" height="9" fill="#777777"/>
<rect x="205.172" y="76" width="1.34483" height="9" fill="#777777"/>
<rect x="207.861" y="76" width="3.13793" height="9" fill="#777777"/>
<g filter="url(#filter1_d_286_5517)">
<rect x="152.199" y="98" width="70.8" height="24" rx="12" fill="#3299FE"/>
<rect opacity="0.6" x="177.398" y="107.6" width="34.8" height="4.8" rx="2" fill="#84C2FC"/>
<rect x="168.699" y="114.8" width="1.8" height="8.4" rx="0.5" transform="rotate(-180 168.699 114.8)" fill="white"/>
<path fill-rule="evenodd" clip-rule="evenodd" d="M167.269 104.67C167.562 104.377 168.037 104.377 168.33 104.67L171.93 108.27C172.222 108.563 172.222 109.037 171.93 109.33C171.637 109.623 171.162 109.623 170.869 109.33L167.799 106.261L164.73 109.33C164.437 109.623 163.962 109.623 163.669 109.33C163.376 109.037 163.376 108.563 163.669 108.27L167.269 104.67Z" fill="white"/>
</g>
<defs>
<filter id="filter0_d_286_5517" x="105" y="48" width="128" height="72" filterUnits="userSpaceOnUse" color-interpolation-filters="sRGB">
<feFlood flood-opacity="0" result="BackgroundImageFix"/>
<feColorMatrix in="SourceAlpha" type="matrix" values="0 0 0 0 0 0 0 0 0 0 0 0 0 0 0 0 0 0 127 0" result="hardAlpha"/>
<feOffset dy="4"/>
<feGaussianBlur stdDeviation="5"/>
<feComposite in2="hardAlpha" operator="out"/>
<feColorMatrix type="matrix" values="0 0 0 0 0 0 0 0 0 0 0 0 0 0 0 0 0 0 0.08 0"/>
<feBlend mode="normal" in2="BackgroundImageFix" result="effect1_dropShadow_286_5517"/>
<feBlend mode="normal" in="SourceGraphic" in2="effect1_dropShadow_286_5517" result="shape"/>
</filter>
<filter id="filter1_d_286_5517" x="148.199" y="98" width="78.8008" height="32" filterUnits="userSpaceOnUse" color-interpolation-filters="sRGB">
<feFlood flood-opacity="0" result="BackgroundImageFix"/>
<feColorMatrix in="SourceAlpha" type="matrix" values="0 0 0 0 0 0 0 0 0 0 0 0 0 0 0 0 0 0 127 0" result="hardAlpha"/>
<feOffset dy="4"/>
<feGaussianBlur stdDeviation="2"/>
<feComposite in2="hardAlpha" operator="out"/>
<feColorMatrix type="matrix" values="0 0 0 0 0.247969 0 0 0 0 0.558247 0 0 0 0 0.8625 0 0 0 0.2 0"/>
<feBlend mode="normal" in2="BackgroundImageFix" result="effect1_dropShadow_286_5517"/>
<feBlend mode="normal" in="SourceGraphic" in2="effect1_dropShadow_286_5517" result="shape"/>
</filter>
<linearGradient id="paint0_linear_286_5517" x1="17" y1="16" x2="209" y2="140" gradientUnits="userSpaceOnUse">
<stop stop-color="white"/>
<stop offset="1" stop-color="#F9F9F9"/>
</linearGradient>
<linearGradient id="paint1_linear_286_5517" x1="115" y1="54" x2="223" y2="106" gradientUnits="userSpaceOnUse">
<stop stop-color="white"/>
<stop offset="1" stop-color="#F9F9F9"/>
</linearGradient>
</defs>
</svg>
