<svg width="312" height="176" viewBox="0 0 312 176" fill="none" xmlns="http://www.w3.org/2000/svg">
<rect x="1" y="1" width="310" height="174" rx="7" fill="#F4F4F4"/>
<rect x="1" y="1" width="310" height="174" rx="7" stroke="#F4F4F4" stroke-width="2"/>
<g clip-path="url(#clip0_813_37615)">
<rect width="296" height="16" transform="translate(16 16)" fill="#219D45"/>
<rect width="296" height="144" transform="translate(16 32)" fill="white"/>
<path d="M28.5156 49.625V47.6875H37.7812V49.625H34.3125V59H31.9844V49.625H28.5156ZM41.5781 47.6875V59H39.2344V47.6875H41.5781ZM43.0469 49.625V47.6875H52.3125V49.625H48.8438V59H46.5156V49.625H43.0469ZM53.7656 59V47.6875H56.1094V57.0625H60.9844V59H53.7656ZM62.5 59V47.6875H70.0938V49.625H64.8438V52.375H69.7031V54.3125H64.8438V57.0625H70.1094V59H62.5Z" fill="#333333"/>
<g clip-path="url(#clip1_813_37615)">
<rect width="284" height="24" transform="translate(28 71)" fill="#F4F4F4"/>
<path d="M125.33 87H123.035V79.9297H125.398C127.479 79.9297 128.729 81.2578 128.729 83.4551C128.729 85.6621 127.479 87 125.33 87ZM124.109 86.0625H125.271C126.873 86.0625 127.664 85.125 127.664 83.4551C127.664 81.7949 126.873 80.8672 125.33 80.8672H124.109V86.0625ZM130.193 87H129.051L131.59 79.9297H132.83L135.379 87H134.236L133.592 85.1348H130.838L130.193 87ZM131.15 84.2363H133.279L132.234 81.2188H132.186L131.15 84.2363ZM135.086 80.8574V79.9297H140.564V80.8574H138.367V87H137.293V80.8574H135.086ZM141.658 87V79.9297H146.092V80.8574H142.732V82.9961H145.857V83.9141H142.732V86.0723H146.131V87H141.658Z" fill="#999999"/>
<path d="M202.893 84.7051H203.947L204.631 85.584C205.095 85.1445 205.383 84.4316 205.383 83.4648C205.383 81.7461 204.475 80.8184 203.264 80.8184C202.043 80.8184 201.135 81.7461 201.135 83.4648C201.135 85.1836 202.043 86.1113 203.264 86.1113C203.488 86.1113 203.698 86.082 203.898 86.0137L202.893 84.7051ZM206.447 83.4648C206.447 84.7637 205.998 85.7744 205.266 86.3945L206.223 87.6348H205.119L204.523 86.8535C204.143 87.0146 203.718 87.0977 203.264 87.0977C201.418 87.0977 200.07 85.7207 200.07 83.4648C200.07 81.1992 201.418 79.832 203.264 79.832C205.09 79.832 206.447 81.1992 206.447 83.4648ZM210.246 79.9297V87H209.162V81.0039H209.123L207.434 82.1074V81.082L209.191 79.9297H210.246Z" fill="#999999"/>
<path d="M273.16 84.7051H274.215L274.898 85.584C275.362 85.1445 275.65 84.4316 275.65 83.4648C275.65 81.7461 274.742 80.8184 273.531 80.8184C272.311 80.8184 271.402 81.7461 271.402 83.4648C271.402 85.1836 272.311 86.1113 273.531 86.1113C273.756 86.1113 273.966 86.082 274.166 86.0137L273.16 84.7051ZM276.715 83.4648C276.715 84.7637 276.266 85.7744 275.533 86.3945L276.49 87.6348H275.387L274.791 86.8535C274.41 87.0146 273.985 87.0977 273.531 87.0977C271.686 87.0977 270.338 85.7207 270.338 83.4648C270.338 81.1992 271.686 79.832 273.531 79.832C275.357 79.832 276.715 81.1992 276.715 83.4648ZM277.828 87V86.2188L280.279 83.748C281.051 82.9375 281.441 82.4883 281.441 81.873C281.441 81.1797 280.875 80.7305 280.133 80.7305C279.352 80.7305 278.844 81.2285 278.844 81.9805H277.828C277.818 80.6914 278.805 79.832 280.152 79.832C281.52 79.832 282.457 80.6914 282.467 81.8438C282.457 82.6348 282.086 83.2598 280.758 84.5684L279.322 86.0234V86.082H282.584V87H277.828Z" fill="#999999"/>
<circle cx="43.9969" cy="111.783" r="3.2" fill="#CCCCCC"/>
<path d="M39.2031 120.85C39.2031 118.199 41.3522 116.05 44.0031 116.05C46.6541 116.05 48.8031 118.199 48.8031 120.85V121.141C48.8031 121.422 48.5752 121.65 48.294 121.65H39.7122C39.4311 121.65 39.2031 121.422 39.2031 121.141V120.85Z" fill="#CCCCCC"/>
<path d="M61.3945 110.766V119.25H59.8594V112.254H59.8125L57.832 113.52V112.125L59.9297 110.766H61.3945Z" fill="#CCCCCC"/>
<rect x="107" y="109.25" width="55" height="4" rx="1" fill="#EAEAEA"/>
<rect x="178" y="109.25" width="55" height="4" rx="1" fill="#EAEAEA"/>
<rect x="178" y="117.25" width="22" height="4" rx="1" fill="#EAEAEA"/>
<rect x="249" y="109.25" width="55" height="4" rx="1" fill="#EAEAEA"/>
<rect x="249" y="117.25" width="22" height="4" rx="1" fill="#EAEAEA"/>
<circle cx="43.9969" cy="152.283" r="3.2" fill="#CCCCCC"/>
<path d="M39.2031 161.35C39.2031 158.699 41.3522 156.55 44.0031 156.55C46.6541 156.55 48.8031 158.699 48.8031 161.35V161.641C48.8031 161.922 48.5752 162.15 48.294 162.15H39.7122C39.4311 162.15 39.2031 161.922 39.2031 161.641V161.35Z" fill="#CCCCCC"/>
<path d="M57.0879 159.75V158.648L60.0879 155.754C60.9434 154.898 61.3887 154.395 61.3887 153.68C61.3887 152.895 60.7676 152.391 59.9355 152.391C59.0566 152.391 58.4941 152.941 58.5059 153.797H57.0527C57.041 152.191 58.248 151.148 59.9473 151.148C61.6816 151.148 62.8535 152.18 62.8535 153.609C62.8535 154.57 62.3848 155.344 60.7207 156.914L59.209 158.414V158.473H62.9824V159.75H57.0879Z" fill="#CCCCCC"/>
<rect x="107" y="149.75" width="55" height="4" rx="1" fill="#EAEAEA"/>
<rect x="178" y="149.75" width="55" height="4" rx="1" fill="#EAEAEA"/>
<rect x="178" y="157.75" width="22" height="4" rx="1" fill="#EAEAEA"/>
<rect x="249" y="149.75" width="55" height="4" rx="1" fill="#EAEAEA"/>
<rect x="249" y="157.75" width="22" height="4" rx="1" fill="#EAEAEA"/>
</g>
</g>
<defs>
<clipPath id="clip0_813_37615">
<path d="M16 20C16 17.7909 17.7909 16 20 16H312V176H16V20Z" fill="white"/>
</clipPath>
<clipPath id="clip1_813_37615">
<path d="M28 73C28 71.8954 28.8954 71 30 71H312V176H28V73Z" fill="white"/>
</clipPath>
</defs>
</svg>
