<svg width="240" height="142" viewBox="0 0 240 142" fill="none" xmlns="http://www.w3.org/2000/svg">
<rect width="240" height="140" fill="#F1F4F6"/>
<rect opacity="0.2" x="24" y="8" width="192" height="124" rx="4" fill="#8092AA"/>
<circle cx="33" cy="17" r="3" fill="#406588"/>
<circle cx="42" cy="17" r="3" fill="#4DC9AA"/>
<g filter="url(#filter0_d_286_5774)">
<rect x="16" y="26" width="208" height="110" rx="4" fill="#DDDDDD"/>
</g>
<mask id="mask0_286_5774" style="mask-type:alpha" maskUnits="userSpaceOnUse" x="16" y="26" width="208" height="110">
<rect x="16" y="26" width="208" height="110" rx="4" fill="#D9D9D9"/>
</mask>
<g mask="url(#mask0_286_5774)">
<rect x="14.1719" y="-42.8822" width="230.184" height="180.298" fill="#E2E8EF"/>
<path fill-rule="evenodd" clip-rule="evenodd" d="M65.8945 27.444L82.7053 0.685791L102.075 13.2832L84.0456 41.8835L65.8945 27.444Z" fill="#EFF4F8"/>
<path fill-rule="evenodd" clip-rule="evenodd" d="M86.0033 101.182L100.107 90.4463L101.722 93.6696L112.521 101.182L109.002 106.895L121.974 115.242L132.542 100.287L150.716 109.575L142.06 122.803L145.838 131.588V132.58H138.43L116.056 129.565L84.0664 102.776L86.0033 101.182Z" fill="#EFF4F8"/>
<path fill-rule="evenodd" clip-rule="evenodd" d="M187.133 92.2253L200.908 79.3346L230.985 105.322L226.154 114.21L215.631 107.996L187.133 92.2253Z" fill="#CFE8D1"/>
<path fill-rule="evenodd" clip-rule="evenodd" d="M79.577 103.857L95.2213 107.435L92.0844 113.88L89.6445 115.266L87.3991 120.106V122.003V124.328L72.2828 120.106L63.913 122.003L59.3224 119.158L55.8926 115.266L57.6303 111.371L79.577 103.857Z" fill="#EFF4F8"/>
<path fill-rule="evenodd" clip-rule="evenodd" d="M158.208 50.2101C158.208 50.2101 157.205 51.4334 156.936 52.1261C156.688 52.7638 155.026 52.9503 156.259 54.071C156.748 54.5147 158.204 53.6265 158.827 54.071C161.486 55.9684 169.583 61.1157 169.583 61.1157L157.537 76.29L134.152 64.461C134.152 64.461 139.536 48.1865 143.766 45.6808C147.995 43.1751 158.208 50.2101 158.208 50.2101Z" fill="#E8EAEB"/>
<path fill-rule="evenodd" clip-rule="evenodd" d="M102.071 9.62708L147.257 40.0959L134.149 61.2825L83.9805 42.868L102.071 9.62708Z" fill="#E8EAEB"/>
<path fill-rule="evenodd" clip-rule="evenodd" d="M65.8945 94.9193L75.9795 89.9774V62.3917L88.661 70.3306V76.4683L92.9095 90.8485L82.1525 101.72L65.8945 94.9193Z" fill="#EFF4F8"/>
<path fill-rule="evenodd" clip-rule="evenodd" d="M148.121 111.022L177.293 128.599L192.04 137.41L143.336 137.699L141.84 122.742L148.121 111.022Z" fill="#CFE8D1"/>
<path fill-rule="evenodd" clip-rule="evenodd" d="M41.6235 -11.3527L31.7088 -18.6992L23.8789 -19.4321L40.6256 -6.69536L36.7005 11.6227L61.394 29.7469L46.9293 49.1386L41.4758 44.4809L27.0278 59.9932V66.1033L41.4758 50.2037L44.344 52.6046L23.879 80.0404L28.5456 81.3455L47.9218 55.5996L80.8118 83.1318L77.8109 88.3294L70.1961 84.5178L52.2697 109.12L42.6874 105.965L27.0278 95.842V101.424L41.4758 110.329L93.5172 128.429L61.8595 136.055L53.8254 152.14L58.8925 163.485H62.7615L57.8156 152.14L65.5932 137.295L95.0659 130.147L120.687 110.329L206.459 162.333H215.198L198.116 152.923L124.215 107.651L147.504 91.1015L220.288 132.811L217.501 137.711H222.9L224.232 135.071L240.87 144.605L259.337 152.923V147.629L245.851 141.888L226.367 130.842L230.968 121.726L227.767 119.664L222.618 128.716L151.383 88.3294L162.1 68.0553L163.496 67.4893L255.718 71.8954L259.337 72.687V67.4893H249.222V36.0808H259.337V32.8595H249.222V-19.4321H245.851V32.8595H192.594V14.3743L206.459 -18.2534H203.033L189.968 12.6337V16.6647H163.496V-18.2534H158.81V58.4478V59.9932L117.548 33.6354L124.264 25.9155L120.77 24.2086L114.293 31.5563L99.0448 21.8156L104.192 13.6964L100.438 11.928L95.6258 19.6316L92.065 17.357L76.3949 15.1072L59.4596 1.93978V-18.2534H55.8216V-0.832304L45.063 -8.80416L47.2183 -18.4139L43.3543 -19.4306L41.6235 -11.3527ZM44.0123 -4.11956L40.899 9.76108L82.8412 40.098L93.2535 23.4294L90.4522 21.6252L74.0707 18.7415L44.0123 -4.11956ZM96.6391 25.61L86.3226 41.882L100.438 47.2762L111.244 35.0164L96.6391 25.61ZM114.514 37.1229L104.192 48.9884L134.127 61.2846L131.087 63.7102L102.341 52.1342L91.0366 70.6058L109.59 82.7698L106.559 85.7066L68.6367 60.4008L72.648 58.5498L73.1254 58.8628L81.2604 43.1686L65.5863 32.1282L50.4934 52.1827L86.7763 83.1717L80.8118 93.6705L71.7855 89.3342L56.9492 110.329L95.0659 124.318L120.687 103.984L145.229 87.2027L157.331 64.6995L114.514 37.1229ZM84.5692 44.9779L76.5904 61.1345L87.7865 68.4749L98.4126 50.5525L84.5692 44.9779ZM189.875 20H164V58.5294L169.329 64.1058L190.354 64.7988L189.875 20ZM192.611 36.2326H245.738V67.48L192.611 64.7079V36.2326Z" fill="#F6F7EF"/>
<path d="M31.7088 -18.6992L31.8577 -18.9001L31.8016 -18.9416L31.7321 -18.9481L31.7088 -18.6992ZM41.6235 -11.3527L41.4746 -11.1519L41.7866 -10.9207L41.8679 -11.3003L41.6235 -11.3527ZM23.8789 -19.4321L23.9022 -19.681L23.0315 -19.7625L23.7276 -19.2331L23.8789 -19.4321ZM40.6256 -6.69536L40.87 -6.64298L40.9033 -6.79823L40.7769 -6.89435L40.6256 -6.69536ZM36.7005 11.6227L36.4561 11.5703L36.4222 11.7285L36.5526 11.8242L36.7005 11.6227ZM61.394 29.7469L61.5944 29.8964L61.7451 29.6944L61.542 29.5453L61.394 29.7469ZM46.9293 49.1386L46.7669 49.3287L46.97 49.5022L47.1297 49.2881L46.9293 49.1386ZM41.4758 44.4809L41.6382 44.2908L41.4561 44.1352L41.2928 44.3105L41.4758 44.4809ZM27.0278 59.9932L26.8449 59.8228L26.7778 59.8948V59.9932H27.0278ZM27.0278 66.1033H26.7778V66.7501L27.2129 66.2714L27.0278 66.1033ZM41.4758 50.2037L41.6363 50.012L41.4522 49.8579L41.2908 50.0355L41.4758 50.2037ZM44.344 52.6046L44.5444 52.7541L44.6857 52.5646L44.5044 52.4129L44.344 52.6046ZM23.879 80.0404L23.6786 79.8909L23.4607 80.183L23.8117 80.2812L23.879 80.0404ZM28.5456 81.3455L28.4782 81.5863L28.6426 81.6322L28.7453 81.4958L28.5456 81.3455ZM47.9218 55.5996L48.0823 55.4079L47.8804 55.2389L47.7221 55.4493L47.9218 55.5996ZM80.8118 83.1318L81.0283 83.2568L81.1333 83.0749L80.9723 82.9401L80.8118 83.1318ZM77.8109 88.3294L77.699 88.553L77.9096 88.6584L78.0274 88.4544L77.8109 88.3294ZM70.1961 84.5178L70.308 84.2943L70.1187 84.1995L69.994 84.3706L70.1961 84.5178ZM52.2697 109.12L52.1915 109.357L52.3645 109.414L52.4718 109.267L52.2697 109.12ZM42.6874 105.965L42.5517 106.175L42.5787 106.192L42.6092 106.202L42.6874 105.965ZM27.0278 95.842L27.1636 95.632L26.7778 95.3827V95.842H27.0278ZM27.0278 101.424H26.7778V101.564L26.8967 101.637L27.0278 101.424ZM41.4758 110.329L41.3446 110.541L41.3679 110.556L41.3937 110.565L41.4758 110.329ZM93.5172 128.429L93.5758 128.672L94.4036 128.473L93.5993 128.193L93.5172 128.429ZM61.8595 136.055L61.801 135.812L61.6879 135.839L61.6359 135.943L61.8595 136.055ZM53.8254 152.14L53.6017 152.029L53.5489 152.134L53.5971 152.242L53.8254 152.14ZM58.8925 163.485L58.6642 163.587L58.7303 163.735H58.8925V163.485ZM62.7615 163.485V163.735H63.1432L62.9906 163.385L62.7615 163.485ZM57.8156 152.14L57.5941 152.024L57.5385 152.13L57.5864 152.24L57.8156 152.14ZM65.5932 137.295L65.5343 137.052L65.4243 137.079L65.3717 137.179L65.5932 137.295ZM95.0659 130.147L95.1248 130.39L95.1767 130.378L95.2188 130.345L95.0659 130.147ZM120.687 110.329L120.817 110.115L120.67 110.026L120.534 110.131L120.687 110.329ZM206.459 162.333L206.33 162.547L206.389 162.583H206.459V162.333ZM215.198 162.333V162.583L215.319 162.114L215.198 162.333ZM198.116 152.923L197.986 153.136L197.996 153.142L198.116 152.923ZM124.215 107.651L124.071 107.447L123.762 107.666L124.085 107.864L124.215 107.651ZM147.504 91.1015L147.628 90.8846L147.489 90.8051L147.359 90.8977L147.504 91.1015ZM220.288 132.811L220.505 132.934L220.629 132.718L220.412 132.594L220.288 132.811ZM217.501 137.711L217.284 137.587L217.071 137.961H217.501V137.711ZM222.9 137.711V137.961H223.054L223.123 137.823L222.9 137.711ZM224.232 135.071L224.357 134.854L224.128 134.723L224.009 134.959L224.232 135.071ZM240.87 144.605L240.746 144.822L240.756 144.828L240.767 144.833L240.87 144.605ZM259.337 152.923L259.235 153.151L259.587 153.31V152.923H259.337ZM259.337 147.629H259.587V147.463L259.435 147.398L259.337 147.629ZM245.851 141.888L245.727 142.105L245.74 142.112L245.753 142.118L245.851 141.888ZM226.367 130.842L226.144 130.729L226.037 130.942L226.244 131.059L226.367 130.842ZM230.968 121.726L231.191 121.839L231.293 121.638L231.104 121.516L230.968 121.726ZM227.767 119.664L227.902 119.453L227.68 119.31L227.55 119.54L227.767 119.664ZM222.618 128.716L222.494 128.933L222.712 129.056L222.835 128.839L222.618 128.716ZM151.383 88.3294L151.162 88.2126L151.049 88.4272L151.26 88.5469L151.383 88.3294ZM162.1 68.0553L162.006 67.8236L161.921 67.8578L161.879 67.9384L162.1 68.0553ZM163.496 67.4893L163.508 67.2396L163.453 67.237L163.402 67.2576L163.496 67.4893ZM255.718 71.8954L255.772 71.6512L255.751 71.6467L255.73 71.6457L255.718 71.8954ZM259.337 72.687L259.284 72.9312L259.587 72.9976V72.687H259.337ZM259.337 67.4893H259.587V67.2393H259.337V67.4893ZM249.222 67.4893H248.972V67.7393H249.222V67.4893ZM249.222 36.0808V35.8308H248.972V36.0808H249.222ZM259.337 36.0808V36.3308H259.587V36.0808H259.337ZM259.337 32.8595H259.587V32.6095H259.337V32.8595ZM249.222 32.8595H248.972V33.1095H249.222V32.8595ZM249.222 -19.4321H249.472V-19.6821H249.222V-19.4321ZM245.851 -19.4321V-19.6821H245.601V-19.4321H245.851ZM245.851 32.8595V33.1095H246.101V32.8595H245.851ZM192.594 32.8595H192.344V33.1095H192.594V32.8595ZM192.594 14.3743L192.364 14.2765L192.344 14.3233V14.3743H192.594ZM206.459 -18.2534L206.689 -18.1556L206.837 -18.5034H206.459V-18.2534ZM203.033 -18.2534V-18.5034H202.868L202.803 -18.3508L203.033 -18.2534ZM189.968 12.6337L189.738 12.5363L189.718 12.583V12.6337H189.968ZM189.968 16.6647V16.9147H190.218V16.6647H189.968ZM163.496 16.6647H163.246V16.9147H163.496V16.6647ZM163.496 -18.2534H163.746V-18.5034H163.496V-18.2534ZM158.81 -18.2534V-18.5034H158.56V-18.2534H158.81ZM158.81 59.9932L158.676 60.2039L159.06 60.4495V59.9932H158.81ZM117.548 33.6354L117.36 33.4714L117.169 33.6901L117.414 33.8461L117.548 33.6354ZM124.264 25.9155L124.453 26.0796L124.666 25.8338L124.374 25.6908L124.264 25.9155ZM120.77 24.2086L120.879 23.984L120.708 23.9003L120.582 24.0433L120.77 24.2086ZM114.293 31.5563L114.159 31.767L114.339 31.8823L114.481 31.7216L114.293 31.5563ZM99.0448 21.8156L98.8336 21.6817L98.7002 21.8921L98.9102 22.0263L99.0448 21.8156ZM104.192 13.6964L104.403 13.8303L104.555 13.591L104.299 13.4703L104.192 13.6964ZM100.438 11.928L100.544 11.7018L100.344 11.6072L100.226 11.7955L100.438 11.928ZM95.6258 19.6316L95.4912 19.8423L95.704 19.9782L95.8378 19.764L95.6258 19.6316ZM92.065 17.357L92.1996 17.1463L92.1541 17.1172L92.1006 17.1095L92.065 17.357ZM76.3949 15.1072L76.2414 15.3045L76.2937 15.3452L76.3593 15.3546L76.3949 15.1072ZM59.4596 1.93978H59.2096V2.06207L59.3062 2.13714L59.4596 1.93978ZM59.4596 -18.2534H59.7096V-18.5034H59.4596V-18.2534ZM55.8216 -18.2534V-18.5034H55.5716V-18.2534H55.8216ZM55.8216 -0.832304L55.6728 -0.631437L56.0716 -0.335909V-0.832304H55.8216ZM45.063 -8.80416L44.819 -8.85887L44.7834 -8.70014L44.9141 -8.60329L45.063 -8.80416ZM47.2183 -18.4139L47.4622 -18.3592L47.515 -18.5943L47.2819 -18.6556L47.2183 -18.4139ZM43.3543 -19.4306L43.418 -19.6724L43.1648 -19.7391L43.1099 -19.483L43.3543 -19.4306ZM40.899 9.76108L40.6551 9.70637L40.6191 9.8671L40.7525 9.96364L40.899 9.76108ZM44.0123 -4.11956L44.1636 -4.31855L43.8536 -4.55435L43.7683 -4.17428L44.0123 -4.11956ZM82.8412 40.098L82.6947 40.3005L82.9115 40.4573L83.0533 40.2304L82.8412 40.098ZM93.2535 23.4294L93.4655 23.5618L93.5961 23.3527L93.3888 23.2192L93.2535 23.4294ZM90.4522 21.6252L90.5876 21.415L90.5452 21.3877L90.4956 21.379L90.4522 21.6252ZM74.0707 18.7415L73.9193 18.9405L73.9676 18.9772L74.0273 18.9878L74.0707 18.7415ZM86.3226 41.882L86.1115 41.7481L85.9478 42.0063L86.2334 42.1155L86.3226 41.882ZM96.6391 25.61L96.7745 25.3998L96.5628 25.2635L96.428 25.4761L96.6391 25.61ZM100.438 47.2762L100.349 47.5097L100.511 47.5716L100.625 47.4415L100.438 47.2762ZM111.244 35.0164L111.431 35.1817L111.624 34.9636L111.379 34.8062L111.244 35.0164ZM104.192 48.9884L104.004 48.8243L103.775 49.0873L104.097 49.2197L104.192 48.9884ZM114.514 37.1229L114.65 36.9127L114.468 36.7956L114.326 36.9588L114.514 37.1229ZM134.127 61.2846L134.283 61.48L134.615 61.2149L134.222 61.0533L134.127 61.2846ZM131.087 63.7102L130.994 63.9421L131.129 63.9966L131.243 63.9056L131.087 63.7102ZM102.341 52.1342L102.434 51.9023L102.238 51.8233L102.127 52.0037L102.341 52.1342ZM91.0366 70.6058L90.8233 70.4753L90.6968 70.682L90.8995 70.8148L91.0366 70.6058ZM109.59 82.7698L109.764 82.9494L109.988 82.732L109.727 82.5608L109.59 82.7698ZM106.559 85.7066L106.42 85.9146L106.588 86.0266L106.733 85.8862L106.559 85.7066ZM68.6367 60.4008L68.532 60.1738L68.1265 60.3609L68.498 60.6088L68.6367 60.4008ZM72.648 58.5498L72.7851 58.3407L72.6692 58.2647L72.5433 58.3228L72.648 58.5498ZM73.1254 58.8628L72.9883 59.0718L73.2199 59.2237L73.3474 58.9778L73.1254 58.8628ZM81.2604 43.1686L81.4823 43.2837L81.5828 43.0899L81.4044 42.9642L81.2604 43.1686ZM65.5863 32.1282L65.7303 31.9238L65.5322 31.7843L65.3865 31.9779L65.5863 32.1282ZM50.4934 52.1827L50.2936 52.0324L50.1523 52.2202L50.331 52.3728L50.4934 52.1827ZM86.7763 83.1717L86.9937 83.2952L87.0957 83.1157L86.9387 82.9816L86.7763 83.1717ZM80.8118 93.6705L80.7035 93.8959L80.9139 93.9969L81.0291 93.794L80.8118 93.6705ZM71.7855 89.3342L71.8938 89.1088L71.7033 89.0173L71.5813 89.1899L71.7855 89.3342ZM56.9492 110.329L56.745 110.184L56.5567 110.451L56.8631 110.563L56.9492 110.329ZM95.0659 124.318L94.9798 124.552L95.1114 124.601L95.2213 124.513L95.0659 124.318ZM120.687 103.984L120.546 103.778L120.539 103.783L120.532 103.789L120.687 103.984ZM145.229 87.2027L145.37 87.4091L145.421 87.3747L145.449 87.3211L145.229 87.2027ZM157.331 64.6995L157.551 64.8179L157.66 64.6144L157.466 64.4893L157.331 64.6995ZM76.5904 61.1345L76.3663 61.0238L76.2683 61.2223L76.4534 61.3436L76.5904 61.1345ZM84.5692 44.9779L84.6626 44.746L84.4477 44.6595L84.3451 44.8672L84.5692 44.9779ZM87.7865 68.4749L87.6494 68.684L87.8681 68.8274L88.0015 68.6024L87.7865 68.4749ZM98.4126 50.5525L98.6276 50.68L98.7762 50.4294L98.506 50.3206L98.4126 50.5525ZM164 20V19.75H163.75V20H164ZM189.875 20L190.125 19.9973L190.122 19.75H189.875V20ZM164 58.5294H163.75V58.6296L163.819 58.7021L164 58.5294ZM169.329 64.1058L169.148 64.2785L169.219 64.3523L169.321 64.3557L169.329 64.1058ZM190.354 64.7988L190.346 65.0487L190.607 65.0573L190.604 64.7962L190.354 64.7988ZM245.738 36.2326H245.988V35.9826H245.738V36.2326ZM192.611 36.2326V35.9826H192.361V36.2326H192.611ZM245.738 67.48L245.725 67.7297L245.988 67.7434V67.48H245.738ZM192.611 64.7079H192.361V64.9452L192.598 64.9576L192.611 64.7079ZM31.56 -18.4983L41.4746 -11.1519L41.7723 -11.5536L31.8577 -18.9001L31.56 -18.4983ZM23.8556 -19.1832L31.6855 -18.4503L31.7321 -18.9481L23.9022 -19.681L23.8556 -19.1832ZM40.7769 -6.89435L24.0302 -19.6311L23.7276 -19.2331L40.4742 -6.49637L40.7769 -6.89435ZM36.945 11.6751L40.87 -6.64298L40.3811 -6.74774L36.4561 11.5703L36.945 11.6751ZM61.542 29.5453L36.8485 11.4211L36.5526 11.8242L61.2461 29.9484L61.542 29.5453ZM47.1297 49.2881L61.5944 29.8964L61.1937 29.5974L46.7289 48.9892L47.1297 49.2881ZM41.3134 44.671L46.7669 49.3287L47.0917 48.9485L41.6382 44.2908L41.3134 44.671ZM27.2108 60.1636L41.6587 44.6512L41.2928 44.3105L26.8449 59.8228L27.2108 60.1636ZM27.2778 66.1033V59.9932H26.7778V66.1033H27.2778ZM41.2908 50.0355L26.8428 65.9352L27.2129 66.2714L41.6608 50.3718L41.2908 50.0355ZM44.5044 52.4129L41.6363 50.012L41.3153 50.3953L44.1835 52.7963L44.5044 52.4129ZM24.0794 80.1899L44.5444 52.7541L44.1436 52.4551L23.6786 79.8909L24.0794 80.1899ZM28.6129 81.1047L23.9463 79.7996L23.8117 80.2812L28.4782 81.5863L28.6129 81.1047ZM47.7221 55.4493L28.3458 81.1952L28.7453 81.4958L48.1216 55.7499L47.7221 55.4493ZM80.9723 82.9401L48.0823 55.4079L47.7613 55.7913L80.6513 83.3235L80.9723 82.9401ZM78.0274 88.4544L81.0283 83.2568L80.5953 83.0068L77.5944 88.2044L78.0274 88.4544ZM70.0842 84.7414L77.699 88.553L77.9228 88.1059L70.308 84.2943L70.0842 84.7414ZM52.4718 109.267L70.3981 84.665L69.994 84.3706L52.0677 108.972L52.4718 109.267ZM42.6092 106.202L52.1915 109.357L52.3479 108.882L42.7656 105.727L42.6092 106.202ZM26.8921 96.0519L42.5517 106.175L42.8231 105.755L27.1636 95.632L26.8921 96.0519ZM27.2778 101.424V95.842H26.7778V101.424H27.2778ZM41.607 110.116L27.159 101.211L26.8967 101.637L41.3446 110.541L41.607 110.116ZM93.5993 128.193L41.5579 110.092L41.3937 110.565L93.4351 128.665L93.5993 128.193ZM61.9181 136.298L93.5758 128.672L93.4587 128.186L61.801 135.812L61.9181 136.298ZM54.049 152.252L62.0832 136.167L61.6359 135.943L53.6017 152.029L54.049 152.252ZM59.1208 163.383L54.0537 152.038L53.5971 152.242L58.6642 163.587L59.1208 163.383ZM62.7615 163.235H58.8925V163.735H62.7615V163.235ZM57.5864 152.24L62.5323 163.585L62.9906 163.385L58.0447 152.04L57.5864 152.24ZM65.3717 137.179L57.5941 152.024L58.037 152.256L65.8146 137.411L65.3717 137.179ZM95.007 129.904L65.5343 137.052L65.6521 137.538L95.1248 130.39L95.007 129.904ZM120.534 110.131L94.9129 129.95L95.2188 130.345L120.84 110.526L120.534 110.131ZM206.589 162.119L120.817 110.115L120.558 110.542L206.33 162.547L206.589 162.119ZM215.198 162.083H206.459V162.583H215.198V162.083ZM197.996 153.142L215.078 162.552L215.319 162.114L198.237 152.704L197.996 153.142ZM124.085 107.864L197.986 153.136L198.247 152.71L124.346 107.437L124.085 107.864ZM147.359 90.8977L124.071 107.447L124.36 107.854L147.649 91.3053L147.359 90.8977ZM220.412 132.594L147.628 90.8846L147.38 91.3184L220.164 133.028L220.412 132.594ZM220.071 132.687L217.284 137.587L217.718 137.834L220.505 132.934L220.071 132.687ZM217.501 137.961H222.9V137.461H217.501V137.961ZM223.123 137.823L224.456 135.184L224.009 134.959L222.677 137.598L223.123 137.823ZM240.994 144.389L224.357 134.854L224.108 135.288L240.746 144.822L240.994 144.389ZM259.44 152.695L240.973 144.378L240.767 144.833L259.235 153.151L259.44 152.695ZM259.087 147.629V152.923H259.587V147.629H259.087ZM245.753 142.118L259.239 147.859L259.435 147.398L245.949 141.658L245.753 142.118ZM226.244 131.059L245.727 142.105L245.974 141.67L226.491 130.624L226.244 131.059ZM226.591 130.954L231.191 121.839L230.745 121.614L226.144 130.729L226.591 130.954ZM231.104 121.516L227.902 119.453L227.631 119.874L230.833 121.937L231.104 121.516ZM227.55 119.54L222.4 128.592L222.835 128.839L227.984 119.787L227.55 119.54ZM151.26 88.5469L222.494 128.933L222.741 128.498L151.507 88.112L151.26 88.5469ZM161.879 67.9384L151.162 88.2126L151.605 88.4463L162.321 68.1721L161.879 67.9384ZM163.402 67.2576L162.006 67.8236L162.194 68.2869L163.59 67.721L163.402 67.2576ZM255.73 71.6457L163.508 67.2396L163.484 67.739L255.707 72.1452L255.73 71.6457ZM259.391 72.4428L255.772 71.6512L255.665 72.1397L259.284 72.9312L259.391 72.4428ZM259.087 67.4893V72.687H259.587V67.4893H259.087ZM249.222 67.7393H259.337V67.2393H249.222V67.7393ZM248.972 36.0808V67.4893H249.472V36.0808H248.972ZM259.337 35.8308H249.222V36.3308H259.337V35.8308ZM259.087 32.8595V36.0808H259.587V32.8595H259.087ZM249.222 33.1095H259.337V32.6095H249.222V33.1095ZM248.972 -19.4321V32.8595H249.472V-19.4321H248.972ZM245.851 -19.1821H249.222V-19.6821H245.851V-19.1821ZM246.101 32.8595V-19.4321H245.601V32.8595H246.101ZM192.594 33.1095H245.851V32.6095H192.594V33.1095ZM192.344 14.3743V32.8595H192.844V14.3743H192.344ZM206.229 -18.3511L192.364 14.2765L192.824 14.472L206.689 -18.1556L206.229 -18.3511ZM203.033 -18.0034H206.459V-18.5034H203.033V-18.0034ZM190.198 12.7311L203.264 -18.156L202.803 -18.3508L189.738 12.5363L190.198 12.7311ZM190.218 16.6647V12.6337H189.718V16.6647H190.218ZM163.496 16.9147H189.968V16.4147H163.496V16.9147ZM163.246 -18.2534V16.6647H163.746V-18.2534H163.246ZM158.81 -18.0034H163.496V-18.5034H158.81V-18.0034ZM159.06 58.4478V-18.2534H158.56V58.4478H159.06ZM159.06 59.9932V58.4478H158.56V59.9932H159.06ZM117.414 33.8461L158.676 60.2039L158.945 59.7825L117.683 33.4248L117.414 33.8461ZM124.075 25.7514L117.36 33.4714L117.737 33.7995L124.453 26.0796L124.075 25.7514ZM120.66 24.4332L124.154 26.1401L124.374 25.6908L120.879 23.984L120.66 24.4332ZM114.481 31.7216L120.957 24.3739L120.582 24.0433L114.106 31.391L114.481 31.7216ZM98.9102 22.0263L114.159 31.767L114.428 31.3456L99.1794 21.6049L98.9102 22.0263ZM103.981 13.5626L98.8336 21.6817L99.2559 21.9495L104.403 13.8303L103.981 13.5626ZM100.331 12.1542L104.086 13.9226L104.299 13.4703L100.544 11.7018L100.331 12.1542ZM95.8378 19.764L100.65 12.0604L100.226 11.7955L95.4138 19.4991L95.8378 19.764ZM91.9304 17.5677L95.4912 19.8423L95.7604 19.4209L92.1996 17.1463L91.9304 17.5677ZM76.3593 15.3546L92.0295 17.6045L92.1006 17.1095L76.4304 14.8597L76.3593 15.3546ZM59.3062 2.13714L76.2414 15.3045L76.5483 14.9098L59.6131 1.74241L59.3062 2.13714ZM59.2096 -18.2534V1.93978H59.7096V-18.2534H59.2096ZM55.8216 -18.0034H59.4596V-18.5034H55.8216V-18.0034ZM56.0716 -0.832304V-18.2534H55.5716V-0.832304H56.0716ZM44.9141 -8.60329L55.6728 -0.631437L55.9704 -1.03317L45.2118 -9.00502L44.9141 -8.60329ZM46.9744 -18.4686L44.819 -8.85887L45.3069 -8.74944L47.4622 -18.3592L46.9744 -18.4686ZM43.2907 -19.1889L47.1547 -18.1721L47.2819 -18.6556L43.418 -19.6724L43.2907 -19.1889ZM41.8679 -11.3003L43.5988 -19.3783L43.1099 -19.483L41.379 -11.4051L41.8679 -11.3003ZM41.143 9.81579L44.2562 -4.06485L43.7683 -4.17428L40.6551 9.70637L41.143 9.81579ZM82.9878 39.8954L41.0456 9.55851L40.7525 9.96364L82.6947 40.3005L82.9878 39.8954ZM93.0414 23.2969L82.6292 39.9655L83.0533 40.2304L93.4655 23.5618L93.0414 23.2969ZM90.3169 21.8354L93.1181 23.6396L93.3888 23.2192L90.5876 21.415L90.3169 21.8354ZM74.0273 18.9878L90.4089 21.8714L90.4956 21.379L74.114 18.4953L74.0273 18.9878ZM43.8609 -3.92058L73.9193 18.9405L74.222 18.5426L44.1636 -4.31855L43.8609 -3.92058ZM86.5338 42.0158L96.8503 25.7438L96.428 25.4761L86.1115 41.7481L86.5338 42.0158ZM100.527 47.0426L86.4119 41.6484L86.2334 42.1155L100.349 47.5097L100.527 47.0426ZM111.056 34.8511L100.25 47.1109L100.625 47.4415L111.431 35.1817L111.056 34.8511ZM96.5038 25.8202L111.108 35.2265L111.379 34.8062L96.7745 25.3998L96.5038 25.8202ZM104.381 49.1525L114.703 37.287L114.326 36.9588L104.004 48.8243L104.381 49.1525ZM134.222 61.0533L104.287 48.7572L104.097 49.2197L134.032 61.5158L134.222 61.0533ZM131.243 63.9056L134.283 61.48L133.971 61.0892L130.931 63.5148L131.243 63.9056ZM102.247 52.3661L130.994 63.9421L131.181 63.4783L102.434 51.9023L102.247 52.3661ZM91.2498 70.7363L102.554 52.2647L102.127 52.0037L90.8233 70.4753L91.2498 70.7363ZM109.727 82.5608L91.1736 70.3967L90.8995 70.8148L109.453 82.9789L109.727 82.5608ZM106.733 85.8862L109.764 82.9494L109.416 82.5903L106.385 85.5271L106.733 85.8862ZM68.498 60.6088L106.42 85.9146L106.698 85.4987L68.7755 60.1929L68.498 60.6088ZM72.5433 58.3228L68.532 60.1738L68.7415 60.6278L72.7528 58.7768L72.5433 58.3228ZM73.2625 58.6537L72.7851 58.3407L72.511 58.7589L72.9883 59.0718L73.2625 58.6537ZM81.0384 43.0536L72.9035 58.7477L73.3474 58.9778L81.4823 43.2837L81.0384 43.0536ZM65.4423 32.3326L81.1164 43.373L81.4044 42.9642L65.7303 31.9238L65.4423 32.3326ZM50.6931 52.333L65.786 32.2786L65.3865 31.9779L50.2936 52.0324L50.6931 52.333ZM86.9387 82.9816L50.6557 51.9926L50.331 52.3728L86.614 83.3618L86.9387 82.9816ZM81.0291 93.794L86.9937 83.2952L86.559 83.0482L80.5944 93.5471L81.0291 93.794ZM71.6772 89.5595L80.7035 93.8959L80.92 93.4452L71.8938 89.1088L71.6772 89.5595ZM57.1534 110.473L71.9897 89.4785L71.5813 89.1899L56.745 110.184L57.1534 110.473ZM95.152 124.083L57.0353 110.094L56.8631 110.563L94.9798 124.552L95.152 124.083ZM120.532 103.789L94.9105 124.122L95.2213 124.513L120.843 104.18L120.532 103.789ZM145.088 86.9964L120.546 103.778L120.828 104.191L145.37 87.4091L145.088 86.9964ZM157.11 64.5811L145.009 87.0843L145.449 87.3211L157.551 64.8179L157.11 64.5811ZM114.379 37.3331L157.195 64.9096L157.466 64.4893L114.65 36.9127L114.379 37.3331ZM76.8146 61.2452L84.7934 45.0886L84.3451 44.8672L76.3663 61.0238L76.8146 61.2452ZM87.9235 68.2659L76.7275 60.9255L76.4534 61.3436L87.6494 68.684L87.9235 68.2659ZM98.1975 50.425L87.5714 68.3474L88.0015 68.6024L98.6276 50.68L98.1975 50.425ZM84.4758 45.2098L98.3192 50.7844L98.506 50.3206L84.6626 44.746L84.4758 45.2098ZM164 20.25H189.875V19.75H164V20.25ZM164.25 58.5294V20H163.75V58.5294H164.25ZM169.51 63.9331L164.181 58.3567L163.819 58.7021L169.148 64.2785L169.51 63.9331ZM190.362 64.549L169.337 63.8559L169.321 64.3557L190.346 65.0487L190.362 64.549ZM189.625 20.0027L190.104 64.8015L190.604 64.7962L190.125 19.9973L189.625 20.0027ZM245.738 35.9826H192.611V36.4826H245.738V35.9826ZM245.988 67.48V36.2326H245.488V67.48H245.988ZM192.598 64.9576L245.725 67.7297L245.751 67.2304L192.624 64.4583L192.598 64.9576ZM192.361 36.2326V64.7079H192.861V36.2326H192.361Z" fill="#DCE3E7"/>
<path fill-rule="evenodd" clip-rule="evenodd" d="M47.4781 114.826L84.0615 106.787L84.0732 106.742L88.7863 109.417L113.209 130.281L138.515 133.536L226.373 122.117L245.213 87.966V80.0331L224.095 117.758L138.515 129.715L114.324 125.887L93.075 107.128L85.1272 102.778L85.1174 102.785L85.1188 102.78L46.2736 111.032L18.0471 126.971L29.912 82.0619L10.9062 69.5664V75.9461L23.8885 84.056L10.9062 135.569L47.4781 114.826Z" fill="#F7F5D8"/>
<path d="M84.0615 106.787L84.1151 107.031L84.2642 106.998L84.3032 106.85L84.0615 106.787ZM47.4781 114.826L47.4244 114.582L47.3876 114.59L47.3547 114.609L47.4781 114.826ZM84.0732 106.742L84.1966 106.525L83.9143 106.364L83.8315 106.678L84.0732 106.742ZM88.7863 109.417L88.9487 109.227L88.9305 109.212L88.9097 109.2L88.7863 109.417ZM113.209 130.281L113.047 130.472L113.103 130.52L113.177 130.529L113.209 130.281ZM138.515 133.536L138.484 133.784L138.516 133.788L138.548 133.784L138.515 133.536ZM226.373 122.117L226.406 122.365L226.531 122.349L226.592 122.238L226.373 122.117ZM245.213 87.966L245.432 88.0868L245.463 88.0304V87.966H245.213ZM245.213 80.0331H245.463V79.0746L244.995 79.9109L245.213 80.0331ZM224.095 117.758L224.13 118.006L224.253 117.989L224.314 117.881L224.095 117.758ZM138.515 129.715L138.476 129.962L138.513 129.967L138.55 129.962L138.515 129.715ZM114.324 125.887L114.158 126.074L114.213 126.123L114.285 126.134L114.324 125.887ZM93.075 107.128L93.2404 106.941L93.2195 106.923L93.195 106.909L93.075 107.128ZM85.1272 102.778L85.2472 102.558L85.1065 102.481L84.9778 102.577L85.1272 102.778ZM85.1174 102.785L84.8757 102.721L84.6937 103.412L85.2668 102.985L85.1174 102.785ZM85.1188 102.78L85.3605 102.843L85.4639 102.451L85.0668 102.535L85.1188 102.78ZM46.2736 111.032L46.2217 110.787L46.1841 110.795L46.1507 110.814L46.2736 111.032ZM18.0471 126.971L17.8054 126.907L17.6541 127.48L18.1701 127.188L18.0471 126.971ZM29.912 82.0619L30.1537 82.1258L30.1997 81.9519L30.0493 81.853L29.912 82.0619ZM10.9062 69.5664L11.0436 69.3575L10.6562 69.1028V69.5664H10.9062ZM10.9062 75.9461H10.6562V76.0847L10.7738 76.1582L10.9062 75.9461ZM23.8885 84.056L24.1309 84.1171L24.1754 83.9405L24.0209 83.844L23.8885 84.056ZM10.9062 135.569L10.6638 135.508L10.5209 136.075L11.0296 135.786L10.9062 135.569ZM84.0078 106.543L47.4244 114.582L47.5317 115.07L84.1151 107.031L84.0078 106.543ZM83.8315 106.678L83.8197 106.723L84.3032 106.85L84.315 106.806L83.8315 106.678ZM88.9097 109.2L84.1966 106.525L83.9498 106.959L88.6629 109.635L88.9097 109.2ZM113.371 130.091L88.9487 109.227L88.6239 109.607L113.047 130.472L113.371 130.091ZM138.547 133.288L113.241 130.034L113.177 130.529L138.484 133.784L138.547 133.288ZM226.341 121.869L138.483 133.288L138.548 133.784L226.406 122.365L226.341 121.869ZM244.994 87.8453L226.155 121.996L226.592 122.238L245.432 88.0868L244.994 87.8453ZM244.963 80.0331V87.966H245.463V80.0331H244.963ZM224.314 117.881L245.431 80.1552L244.995 79.9109L223.877 117.636L224.314 117.881ZM138.55 129.962L224.13 118.006L224.061 117.511L138.481 129.467L138.55 129.962ZM114.285 126.134L138.476 129.962L138.554 129.468L114.363 125.64L114.285 126.134ZM92.9095 107.316L114.158 126.074L114.489 125.7L93.2404 106.941L92.9095 107.316ZM85.0071 102.997L92.9549 107.348L93.195 106.909L85.2472 102.558L85.0071 102.997ZM85.2668 102.985L85.2765 102.978L84.9778 102.577L84.9681 102.584L85.2668 102.985ZM84.877 102.716L84.8757 102.721L85.3592 102.848L85.3605 102.843L84.877 102.716ZM46.3256 111.277L85.1707 103.024L85.0668 102.535L46.2217 110.787L46.3256 111.277ZM18.1701 127.188L46.3966 111.25L46.1507 110.814L17.9242 126.753L18.1701 127.188ZM29.6703 81.9981L17.8054 126.907L18.2888 127.034L30.1537 82.1258L29.6703 81.9981ZM10.7689 69.7753L29.7747 82.2708L30.0493 81.853L11.0436 69.3575L10.7689 69.7753ZM11.1562 75.9461V69.5664H10.6562V75.9461H11.1562ZM24.0209 83.844L11.0387 75.7341L10.7738 76.1582L23.756 84.2681L24.0209 83.844ZM11.1487 135.63L24.1309 84.1171L23.6461 83.995L10.6638 135.508L11.1487 135.63ZM47.3547 114.609L10.7829 135.351L11.0296 135.786L47.6014 115.044L47.3547 114.609Z" fill="#EDE4C5"/>
<path fill-rule="evenodd" clip-rule="evenodd" d="M203.996 101.316L209.02 93.1716L220.227 99.6552L214.677 107.362L203.996 101.316Z" fill="#E8EAEB"/>
</g>
<circle cx="51" cy="17" r="3" fill="#3299FE"/>
<path d="M16 30C16 27.7909 17.7909 26 20 26H72V136H20C17.7909 136 16 134.209 16 132V30Z" fill="white"/>
<rect opacity="0.3" x="22" y="32" width="36" height="8" rx="2" fill="#8092AA"/>
<rect opacity="0.2" x="22" y="46" width="16" height="6" rx="1" fill="#8092AA"/>
<g filter="url(#filter1_d_286_5774)">
<rect x="87" y="81.5" width="26" height="20" rx="4" fill="white"/>
<path d="M93.2734 91.3125C94.6875 91.3125 95.5469 90.2656 95.5469 88.4062C95.5469 86.5586 94.6836 85.5 93.2734 85.5C91.8633 85.5 91 86.5586 91 88.4062C91 90.2578 91.8555 91.3125 93.2734 91.3125ZM92.2031 88.4062C92.2031 87.1133 92.6211 86.4648 93.2734 86.4609C93.9258 86.4648 94.3477 87.1133 94.3438 88.4062C94.3477 89.7109 93.9297 90.3438 93.2734 90.3438C92.6172 90.3438 92.1953 89.7109 92.2031 88.4062Z" fill="#FF6666"/>
<rect x="91" y="94.3125" width="12" height="2" rx="1" fill="#EAEAEA"/>
<path d="M99.5528 105.106C99.737 105.474 100.263 105.474 100.447 105.106L103 100L97 100L99.5528 105.106Z" fill="white"/>
</g>
<g filter="url(#filter2_d_286_5774)">
<rect x="184" y="21" width="26" height="20" rx="4" fill="white"/>
<path d="M190.508 25.0781H189.398L188 25.9688V27.0078L189.297 26.1953H189.328V30.7344H190.508V25.0781Z" fill="#3299FE"/>
<path d="M193.883 25C192.605 24.9961 191.742 25.8242 191.742 26.961C191.75 28.0156 192.5 28.7813 193.516 28.7813C194.145 28.7813 194.703 28.4844 194.969 27.9844H195.016C195.012 29.1133 194.605 29.8047 193.836 29.8047C193.383 29.8047 193.059 29.5586 192.961 29.1406H191.805C191.918 30.0977 192.699 30.8125 193.836 30.8125C195.258 30.8125 196.168 29.6797 196.164 27.7578C196.164 25.7031 195.055 25.0039 193.883 25ZM192.891 26.9297C192.883 26.3672 193.312 25.9258 193.891 25.9219C194.469 25.9258 194.891 26.3828 194.898 26.9219C194.898 27.4649 194.457 27.9219 193.883 27.9219C193.301 27.9219 192.891 27.4883 192.891 26.9297Z" fill="#3299FE"/>
<rect x="188" y="34.8125" width="12" height="2" rx="1" fill="#EAEAEA"/>
<path d="M196.553 44.6056C196.737 44.9741 197.263 44.9741 197.447 44.6056L200 39.5L194 39.5L196.553 44.6056Z" fill="white"/>
</g>
<g filter="url(#filter3_d_286_5774)">
<rect x="175" y="70" width="26" height="20" rx="4" fill="white"/>
<path d="M181.508 74.0781H180.398L179 74.9688V76.0078L180.297 75.1953H180.328V79.7344H181.508V74.0781Z" fill="#3299FE"/>
<path d="M184.914 79.8125C186.191 79.8125 187.109 79.1172 187.102 78.1484C187.109 77.4414 186.652 76.9375 185.82 76.8359V76.7891C186.453 76.6758 186.895 76.2266 186.891 75.5938C186.895 74.6992 186.109 74 184.93 74C183.77 74 182.895 74.6758 182.875 75.6484H184C184.02 75.2148 184.43 74.9336 184.93 74.9375C185.43 74.9336 185.762 75.2305 185.758 75.6641C185.762 76.1094 185.371 76.4141 184.812 76.4141H184.289V77.2812H184.812C185.477 77.2852 185.887 77.6094 185.883 78.0703C185.887 78.5273 185.484 78.8398 184.922 78.8438C184.375 78.8398 183.965 78.5625 183.945 78.1406H182.758C182.781 79.1289 183.672 79.8125 184.914 79.8125Z" fill="#3299FE"/>
<rect x="179" y="83.8125" width="12" height="2" rx="1" fill="#EAEAEA"/>
<path d="M187.553 93.6056C187.737 93.9741 188.263 93.9741 188.447 93.6056L191 88.5L185 88.5L187.553 93.6056Z" fill="white"/>
</g>
<path d="M41.6641 52H42.8828L45.2656 47.3203V46.3438H41.2734V47.3047H44.0469V47.3438L41.6641 52Z" fill="#555555"/>
<path d="M45.5 51H48.25V52H49.3672V51H50.0859V50.0547H49.3672V46.3438H47.8906L45.5 50.0703V51ZM46.6875 50.0547V50.0078L48.2109 47.6328H48.2656V50.0547H46.6875Z" fill="#555555"/>
<rect x="31" y="68" width="26" height="3" rx="1" fill="#DDDDDD"/>
<circle cx="26.5" cy="69.5" r="2.5" fill="#DDDDDD"/>
<circle cx="26.5" cy="83.5" r="2.5" fill="#DDDDDD"/>
<circle cx="26.5" cy="97.5" r="2.5" fill="#EAEAEA"/>
<circle cx="26.5" cy="111.5" r="2.5" fill="#FFEFEF"/>
<rect x="31" y="82" width="19" height="3" rx="1" fill="#DDDDDD"/>
<rect x="31" y="96" width="19" height="3" rx="1" fill="#EAEAEA"/>
<rect x="31" y="110" width="19" height="3" rx="1" fill="#FFEFEF"/>
<circle cx="100" cy="112" r="3" fill="#FF6666"/>
<rect x="135" y="42" width="26" height="20" rx="4" fill="#555555"/>
<path d="M139 50.7344H141.75V51.7344H142.867V50.7344H143.586V49.7891H142.867V46.0781H141.391L139 49.8047V50.7344ZM140.188 49.7891V49.7422L141.711 47.3672H141.766V49.7891H140.188Z" fill="white"/>
<path d="M146.445 51.8125C147.723 51.8125 148.641 51.1172 148.633 50.1484C148.641 49.4414 148.184 48.9375 147.352 48.8359V48.7891C147.984 48.6758 148.426 48.2266 148.422 47.5938C148.426 46.6992 147.641 46 146.461 46C145.301 46 144.426 46.6758 144.406 47.6484H145.531C145.551 47.2148 145.961 46.9336 146.461 46.9375C146.961 46.9336 147.293 47.2305 147.289 47.6641C147.293 48.1094 146.902 48.4141 146.344 48.4141H145.82V49.2812H146.344C147.008 49.2852 147.418 49.6094 147.414 50.0703C147.418 50.5273 147.016 50.8398 146.453 50.8438C145.906 50.8398 145.496 50.5625 145.477 50.1406H144.289C144.312 51.1289 145.203 51.8125 146.445 51.8125Z" fill="white"/>
<rect x="139" y="55.8125" width="12" height="2" rx="1" fill="#777777"/>
<path d="M147.553 66.1056C147.737 66.4741 148.263 66.4741 148.447 66.1056L151 61L145 61L147.553 66.1056Z" fill="#555555"/>
<circle cx="148" cy="72.5" r="3" fill="#555555"/>
<circle cx="196" cy="51.5" r="3" fill="#3299FE"/>
<circle cx="188" cy="100.5" r="3" fill="#3299FE"/>
<defs>
<filter id="filter0_d_286_5774" x="12" y="24" width="216" height="118" filterUnits="userSpaceOnUse" color-interpolation-filters="sRGB">
<feFlood flood-opacity="0" result="BackgroundImageFix"/>
<feColorMatrix in="SourceAlpha" type="matrix" values="0 0 0 0 0 0 0 0 0 0 0 0 0 0 0 0 0 0 127 0" result="hardAlpha"/>
<feOffset dy="2"/>
<feGaussianBlur stdDeviation="2"/>
<feComposite in2="hardAlpha" operator="out"/>
<feColorMatrix type="matrix" values="0 0 0 0 0 0 0 0 0 0 0 0 0 0 0 0 0 0 0.08 0"/>
<feBlend mode="normal" in2="BackgroundImageFix" result="effect1_dropShadow_286_5774"/>
<feBlend mode="normal" in="SourceGraphic" in2="effect1_dropShadow_286_5774" result="shape"/>
</filter>
<filter id="filter1_d_286_5774" x="71" y="73.5" width="58" height="56.5" filterUnits="userSpaceOnUse" color-interpolation-filters="sRGB">
<feFlood flood-opacity="0" result="BackgroundImageFix"/>
<feColorMatrix in="SourceAlpha" type="matrix" values="0 0 0 0 0 0 0 0 0 0 0 0 0 0 0 0 0 0 127 0" result="hardAlpha"/>
<feOffset dy="8"/>
<feGaussianBlur stdDeviation="8"/>
<feComposite in2="hardAlpha" operator="out"/>
<feColorMatrix type="matrix" values="0 0 0 0 0.2 0 0 0 0 0.2 0 0 0 0 0.2 0 0 0 0.12 0"/>
<feBlend mode="normal" in2="BackgroundImageFix" result="effect1_dropShadow_286_5774"/>
<feBlend mode="normal" in="SourceGraphic" in2="effect1_dropShadow_286_5774" result="shape"/>
</filter>
<filter id="filter2_d_286_5774" x="168" y="13" width="58" height="56.5" filterUnits="userSpaceOnUse" color-interpolation-filters="sRGB">
<feFlood flood-opacity="0" result="BackgroundImageFix"/>
<feColorMatrix in="SourceAlpha" type="matrix" values="0 0 0 0 0 0 0 0 0 0 0 0 0 0 0 0 0 0 127 0" result="hardAlpha"/>
<feOffset dy="8"/>
<feGaussianBlur stdDeviation="8"/>
<feComposite in2="hardAlpha" operator="out"/>
<feColorMatrix type="matrix" values="0 0 0 0 0.2 0 0 0 0 0.2 0 0 0 0 0.2 0 0 0 0.12 0"/>
<feBlend mode="normal" in2="BackgroundImageFix" result="effect1_dropShadow_286_5774"/>
<feBlend mode="normal" in="SourceGraphic" in2="effect1_dropShadow_286_5774" result="shape"/>
</filter>
<filter id="filter3_d_286_5774" x="159" y="62" width="58" height="56.5" filterUnits="userSpaceOnUse" color-interpolation-filters="sRGB">
<feFlood flood-opacity="0" result="BackgroundImageFix"/>
<feColorMatrix in="SourceAlpha" type="matrix" values="0 0 0 0 0 0 0 0 0 0 0 0 0 0 0 0 0 0 127 0" result="hardAlpha"/>
<feOffset dy="8"/>
<feGaussianBlur stdDeviation="8"/>
<feComposite in2="hardAlpha" operator="out"/>
<feColorMatrix type="matrix" values="0 0 0 0 0.2 0 0 0 0 0.2 0 0 0 0 0.2 0 0 0 0.12 0"/>
<feBlend mode="normal" in2="BackgroundImageFix" result="effect1_dropShadow_286_5774"/>
<feBlend mode="normal" in="SourceGraphic" in2="effect1_dropShadow_286_5774" result="shape"/>
</filter>
</defs>
</svg>
