<svg width="312" height="176" viewBox="0 0 312 176" fill="none" xmlns="http://www.w3.org/2000/svg">
<rect x="1" y="1" width="310" height="174" rx="7" fill="#F4F4F4"/>
<rect x="1" y="1" width="310" height="174" rx="7" stroke="#F4F4F4" stroke-width="2"/>
<rect width="264" height="144" transform="translate(24 32)" fill="white"/>
<path d="M48.5156 61.625V59.6875H57.7812V61.625H54.3125V71H51.9844V61.625H48.5156ZM61.5781 59.6875V71H59.2344V59.6875H61.5781ZM63.0469 61.625V59.6875H72.3125V61.625H68.8438V71H66.5156V61.625H63.0469ZM73.7656 71V59.6875H76.1094V69.0625H80.9844V71H73.7656ZM82.5 71V59.6875H90.0938V61.625H84.8438V64.375H89.7031V66.3125H84.8438V69.0625H90.1094V71H82.5Z" fill="#333333"/>
<path d="M106.33 71H104.035V63.9297H106.398C108.479 63.9297 109.729 65.2578 109.729 67.4551C109.729 69.6621 108.479 71 106.33 71ZM105.109 70.0625H106.271C107.873 70.0625 108.664 69.125 108.664 67.4551C108.664 65.7949 107.873 64.8672 106.33 64.8672H105.109V70.0625ZM111.193 71H110.051L112.59 63.9297H113.83L116.379 71H115.236L114.592 69.1348H111.838L111.193 71ZM112.15 68.2363H114.279L113.234 65.2188H113.186L112.15 68.2363ZM116.086 64.8574V63.9297H121.564V64.8574H119.367V71H118.293V64.8574H116.086ZM122.658 71V63.9297H127.092V64.8574H123.732V66.9961H126.857V67.9141H123.732V70.0723H127.131V71H122.658Z" fill="#999999"/>
<rect x="132" y="65" width="40" height="4" rx="1" fill="#EAEAEA"/>
<mask id="path-5-outside-1_823_24725" maskUnits="userSpaceOnUse" x="48" y="90" width="216" height="45" fill="black">
<rect fill="white" x="48" y="90" width="216" height="45"/>
<path d="M48 95H264V135H48V95Z"/>
</mask>
<path d="M48 95H264V135H48V95Z" fill="#F9F9F9"/>
<path d="M48 95V100H264V95V90H48V95Z" fill="#EAEAEA" mask="url(#path-5-outside-1_823_24725)"/>
<rect x="60" y="107" width="100" height="4" rx="1" fill="#EAEAEA"/>
<rect x="60" y="119" width="50" height="4" rx="1" fill="#EAEAEA"/>
<mask id="path-9-inside-2_823_24725" fill="white">
<path d="M48 147H264V175H48V147Z"/>
</mask>
<path d="M48 147H264V175H48V147Z" fill="#F9F9F9"/>
<path d="M48 175H53V147H48H43V175H48Z" fill="#EAEAEA" mask="url(#path-9-inside-2_823_24725)"/>
<rect x="60" y="159" width="100" height="4" rx="1" fill="#EAEAEA"/>
<path d="M24 20C24 17.7909 25.7909 16 28 16H284C286.209 16 288 17.7909 288 20V32H24V20Z" fill="#E53935"/>
</svg>
