<svg width="312" height="176" viewBox="0 0 312 176" fill="none" xmlns="http://www.w3.org/2000/svg">
<rect x="1" y="1" width="310" height="174" rx="7" fill="#F4F4F4"/>
<rect x="1" y="1" width="310" height="174" rx="7" stroke="#F4F4F4" stroke-width="2"/>
<g clip-path="url(#clip0_813_37804)">
<rect width="296" height="16" transform="translate(16 16)" fill="#219D45"/>
<rect width="296" height="144" transform="translate(16 32)" fill="white"/>
<path d="M28.5156 49.625V47.6875H37.7812V49.625H34.3125V59H31.9844V49.625H28.5156ZM41.5781 47.6875V59H39.2344V47.6875H41.5781ZM43.0469 49.625V47.6875H52.3125V49.625H48.8438V59H46.5156V49.625H43.0469ZM53.7656 59V47.6875H56.1094V57.0625H60.9844V59H53.7656ZM62.5 59V47.6875H70.0938V49.625H64.8438V52.375H69.7031V54.3125H64.8438V57.0625H70.1094V59H62.5Z" fill="#333333"/>
<path d="M238.33 61H236.035V53.9297H238.398C240.479 53.9297 241.729 55.2578 241.729 57.4551C241.729 59.6621 240.479 61 238.33 61ZM237.109 60.0625H238.271C239.873 60.0625 240.664 59.125 240.664 57.4551C240.664 55.7949 239.873 54.8672 238.33 54.8672H237.109V60.0625ZM243.193 61H242.051L244.59 53.9297H245.83L248.379 61H247.236L246.592 59.1348H243.838L243.193 61ZM244.15 58.2363H246.279L245.234 55.2188H245.186L244.15 58.2363ZM248.086 54.8574V53.9297H253.564V54.8574H251.367V61H250.293V54.8574H248.086ZM254.658 61V53.9297H259.092V54.8574H255.732V56.9961H258.857V57.9141H255.732V60.0723H259.131V61H254.658Z" fill="#999999"/>
<rect x="264" y="55" width="40" height="4" rx="1" fill="#EAEAEA"/>
<g clip-path="url(#clip1_813_37804)">
<rect width="284" height="20" transform="translate(28 71)" fill="#F4F4F4"/>
<circle cx="41.9977" cy="78.4001" r="2.4" fill="#CCCCCC"/>
<path d="M38.4023 85.2C38.4023 83.2118 40.0141 81.6 42.0023 81.6C43.9906 81.6 45.6023 83.2118 45.6023 85.2V85.4182C45.6023 85.6291 45.4314 85.8 45.2205 85.8H38.7842C38.5733 85.8 38.4023 85.6291 38.4023 85.4182V85.2Z" fill="#CCCCCC"/>
<path d="M41.3105 105.955H42.3652L43.0488 106.834C43.5127 106.395 43.8008 105.682 43.8008 104.715C43.8008 102.996 42.8926 102.068 41.6816 102.068C40.4609 102.068 39.5527 102.996 39.5527 104.715C39.5527 106.434 40.4609 107.361 41.6816 107.361C41.9062 107.361 42.1162 107.332 42.3164 107.264L41.3105 105.955ZM44.8652 104.715C44.8652 106.014 44.416 107.024 43.6836 107.645L44.6406 108.885H43.5371L42.9414 108.104C42.5605 108.265 42.1357 108.348 41.6816 108.348C39.8359 108.348 38.4883 106.971 38.4883 104.715C38.4883 102.449 39.8359 101.082 41.6816 101.082C43.5078 101.082 44.8652 102.449 44.8652 104.715ZM48.6641 101.18V108.25H47.5801V102.254H47.541L45.8516 103.357V102.332L47.6094 101.18H48.6641Z" fill="#999999"/>
<rect x="70" y="102.25" width="100" height="4" rx="1" fill="#EAEAEA"/>
<path d="M41.3105 132.455H42.3652L43.0488 133.334C43.5127 132.895 43.8008 132.182 43.8008 131.215C43.8008 129.496 42.8926 128.568 41.6816 128.568C40.4609 128.568 39.5527 129.496 39.5527 131.215C39.5527 132.934 40.4609 133.861 41.6816 133.861C41.9062 133.861 42.1162 133.832 42.3164 133.764L41.3105 132.455ZM44.8652 131.215C44.8652 132.514 44.416 133.524 43.6836 134.145L44.6406 135.385H43.5371L42.9414 134.604C42.5605 134.765 42.1357 134.848 41.6816 134.848C39.8359 134.848 38.4883 133.471 38.4883 131.215C38.4883 128.949 39.8359 127.582 41.6816 127.582C43.5078 127.582 44.8652 128.949 44.8652 131.215ZM45.9785 134.75V133.969L48.4297 131.498C49.2012 130.688 49.5918 130.238 49.5918 129.623C49.5918 128.93 49.0254 128.48 48.2832 128.48C47.502 128.48 46.9941 128.979 46.9941 129.73H45.9785C45.9688 128.441 46.9551 127.582 48.3027 127.582C49.6699 127.582 50.6074 128.441 50.6172 129.594C50.6074 130.385 50.2363 131.01 48.9082 132.318L47.4727 133.773V133.832H50.7344V134.75H45.9785Z" fill="#999999"/>
<rect x="70" y="128.75" width="100" height="4" rx="1" fill="#EAEAEA"/>
</g>
<rect width="284" height="24" transform="translate(28 152)" fill="white"/>
<path d="M30 152.5H70C70.8284 152.5 71.5 153.172 71.5 154V175.5H28.5V154C28.5 153.172 29.1716 152.5 30 152.5Z" stroke="#219D45"/>
<circle cx="45.9977" cy="161.4" r="2.4" fill="#219D45"/>
<path d="M42.4023 168.2C42.4023 166.212 44.0141 164.6 46.0023 164.6C47.9906 164.6 49.6023 166.212 49.6023 168.2V168.418C49.6023 168.629 49.4314 168.8 49.2205 168.8H42.7842C42.5733 168.8 42.4023 168.629 42.4023 168.418V168.2Z" fill="#219D45"/>
<path d="M56.8828 161.344V167H55.7031V162.461H55.6719L54.375 163.273V162.234L55.7734 161.344H56.8828Z" fill="#333333"/>
<path d="M78 152.5H118C118.828 152.5 119.5 153.172 119.5 154V175.5H76.5V154C76.5 153.172 77.1716 152.5 78 152.5Z" stroke="#F4F4F4"/>
<circle cx="93.9977" cy="161.4" r="2.4" fill="#CCCCCC"/>
<path d="M90.4023 168.2C90.4023 166.212 92.0141 164.6 94.0023 164.6C95.9906 164.6 97.6023 166.212 97.6023 168.2V168.418C97.6023 168.629 97.4314 168.8 97.2205 168.8H90.7842C90.5733 168.8 90.4023 168.629 90.4023 168.418V168.2Z" fill="#CCCCCC"/>
<path d="M102.445 167L102.438 166.148L104.469 164.281C105 163.773 105.281 163.461 105.281 163.016C105.281 162.516 104.898 162.203 104.383 162.203C103.852 162.203 103.508 162.539 103.508 163.078H102.391C102.383 161.969 103.203 161.266 104.398 161.266C105.609 161.266 106.414 161.953 106.414 162.938C106.414 163.578 106.102 164.109 104.938 165.164L104.078 166V166.031H106.492V167H102.445Z" fill="#999999"/>
<path d="M126 152.5H166C166.828 152.5 167.5 153.172 167.5 154V175.5H124.5V154C124.5 153.172 125.172 152.5 126 152.5Z" stroke="#F4F4F4"/>
<circle cx="141.998" cy="161.4" r="2.4" fill="#CCCCCC"/>
<path d="M138.402 168.2C138.402 166.212 140.014 164.6 142.002 164.6C143.991 164.6 145.602 166.212 145.602 168.2V168.418C145.602 168.629 145.431 168.8 145.221 168.8H138.784C138.573 168.8 138.402 168.629 138.402 168.418V168.2Z" fill="#CCCCCC"/>
<path d="M152.539 167.078C151.297 167.078 150.406 166.391 150.383 165.406H151.57C151.594 165.828 152 166.109 152.547 166.109C153.109 166.109 153.516 165.789 153.508 165.336C153.516 164.875 153.102 164.547 152.438 164.547H151.914V163.68H152.438C152.992 163.68 153.383 163.375 153.383 162.93C153.383 162.5 153.055 162.203 152.555 162.203C152.055 162.203 151.641 162.484 151.625 162.914H150.5C150.516 161.938 151.398 161.266 152.555 161.266C153.734 161.266 154.523 161.961 154.516 162.859C154.523 163.492 154.078 163.945 153.445 164.055V164.102C154.273 164.203 154.734 164.711 154.727 165.414C154.734 166.383 153.812 167.078 152.539 167.078Z" fill="#999999"/>
</g>
<defs>
<clipPath id="clip0_813_37804">
<path d="M16 20C16 17.7909 17.7909 16 20 16H312V176H16V20Z" fill="white"/>
</clipPath>
<clipPath id="clip1_813_37804">
<path d="M28 73C28 71.8954 28.8954 71 30 71H312V144H28V73Z" fill="white"/>
</clipPath>
</defs>
</svg>
