<svg width="240" height="144" viewBox="0 0 240 144" fill="none" xmlns="http://www.w3.org/2000/svg">
<rect width="240" height="140" fill="#F1F4F6"/>
<g filter="url(#filter0_d_286_5225)">
<rect x="112" y="12" width="56" height="56" rx="8" fill="#F9F9F9"/>
</g>
<path fill-rule="evenodd" clip-rule="evenodd" d="M140 35C132.82 35 127 40.8203 127 48C127 49.6569 125.657 51 124 51C122.343 51 121 49.6569 121 48C121 37.5066 129.507 29 140 29C150.493 29 159 37.5066 159 48C159 49.6569 157.657 51 156 51C154.343 51 153 49.6569 153 48C153 40.8203 147.18 35 140 35Z" fill="#D1D1D1"/>
<path fill-rule="evenodd" clip-rule="evenodd" d="M140 35C132.82 35 127 40.8203 127 48C127 49.6569 125.657 51 124 51C122.343 51 121 49.6569 121 48C121 37.5066 129.507 29 140 29C147.422 29 153.845 33.2566 156.97 39.4482C157.717 40.9273 157.123 42.7316 155.644 43.4782C154.165 44.2248 152.361 43.6309 151.614 42.1518C149.47 37.9031 145.071 35 140 35Z" fill="#406588"/>
<g filter="url(#filter1_d_286_5225)">
<rect x="176" y="50" width="48" height="18" rx="4" fill="white"/>
</g>
<rect x="212" y="57" width="8" height="4" rx="2" fill="#3299FE"/>
<circle cx="185" cy="59" r="5" fill="#EAEAEA"/>
<mask id="mask0_286_5225" style="mask-type:alpha" maskUnits="userSpaceOnUse" x="180" y="54" width="10" height="10">
<circle cx="185" cy="59" r="5" fill="#EAEAEA"/>
</mask>
<g mask="url(#mask0_286_5225)">
<path fill-rule="evenodd" clip-rule="evenodd" d="M185 59.6254C186.036 59.6254 186.875 58.786 186.875 57.7504C186.875 56.7149 186.036 55.8754 185 55.8754C183.964 55.8754 183.125 56.7149 183.125 57.7504C183.125 58.786 183.964 59.6254 185 59.6254ZM185 60.8754C182.929 60.8754 181.25 62.5544 181.25 64.6254V65.3199C181.25 65.6267 181.499 65.8754 181.806 65.8754H188.194C188.501 65.8754 188.75 65.6267 188.75 65.3199V64.6254C188.75 62.5544 187.071 60.8754 185 60.8754Z" fill="#F9F9F9"/>
</g>
<rect x="193" y="57" width="12" height="4" rx="1" fill="#EAEAEA"/>
<rect x="26" y="8" width="64" height="100" rx="8" fill="#D6E9FB"/>
<path d="M26 26H90V124C90 128.418 86.4183 132 82 132H34C29.5817 132 26 128.418 26 124V26Z" fill="url(#paint0_linear_286_5225)"/>
<g filter="url(#filter2_d_286_5225)">
<rect x="16" y="22" width="84" height="96" rx="8" fill="url(#paint1_linear_286_5225)"/>
</g>
<circle cx="88" cy="34" r="4" fill="#E3E8EB"/>
<rect x="24" y="32" width="24" height="4" rx="1" fill="#8092AA"/>
<rect x="24" y="52" width="30" height="8" rx="1" fill="#E3E8EB"/>
<rect opacity="0.4" x="24" y="70" width="30" height="8" rx="1" fill="#E3E8EB"/>
<circle cx="71" cy="57" r="7" fill="#3299FE"/>
<circle opacity="0.4" cx="71" cy="75" r="7" fill="#3299FE"/>
<circle cx="87" cy="57" r="7" fill="#DDDDDD"/>
<circle opacity="0.4" cx="87" cy="75" r="7" fill="#DDDDDD"/>
<path d="M68.1328 54.3438L70.1953 57.9844V60H71.3672V57.9844L73.4297 54.3438H72.1094L70.8125 56.7812H70.7578L69.4531 54.3438H68.1328Z" fill="white"/>
<path d="M89.1953 54.3438H88.0312V57.9375H87.9766L85.5078 54.3438H84.4766V60H85.6484V56.4062H85.6953L88.1797 60H89.1953V54.3438Z" fill="white"/>
<rect x="25" y="94" width="69" height="20" rx="10" fill="#3299FE"/>
<path fill-rule="evenodd" clip-rule="evenodd" d="M65.4919 100.293C65.9362 100.698 65.9541 101.372 65.5319 101.799L59.2045 108.189C58.9933 108.402 58.6996 108.522 58.3931 108.52C58.0865 108.518 57.7944 108.395 57.5861 108.179L54.2957 104.771C53.8792 104.339 53.9059 103.666 54.3555 103.266C54.8051 102.866 55.5072 102.892 55.9238 103.323L58.4103 105.899L63.923 100.331C64.3452 99.905 65.0476 99.8878 65.4919 100.293Z" fill="white"/>
<g filter="url(#filter3_d_286_5225)">
<rect x="112" y="80" width="96" height="48" rx="8" fill="#D6E9FB"/>
</g>
<rect opacity="0.3" x="122" y="114" width="76" height="6" rx="2" fill="#3299FE"/>
<rect opacity="0.6" x="122" y="114" width="60" height="6" rx="2" fill="#3299FE"/>
<g opacity="0.6">
<ellipse opacity="0.65" cx="139.201" cy="94" rx="2.4" ry="2.4" fill="#3299FE"/>
<circle opacity="0.85" cx="132" cy="94" r="2.4" fill="#3299FE"/>
<ellipse cx="124.8" cy="94" rx="2.4" ry="2.4" fill="#3299FE"/>
</g>
<g opacity="0.7">
<path d="M167.188 104.156C169.766 104.156 171.625 102.797 171.625 100.953C171.625 99.5312 170.516 98.375 169.141 98.1562V98.0781C170.328 97.8438 171.195 96.8203 171.203 95.5781C171.195 93.8203 169.5 92.5312 167.188 92.5312C164.875 92.5312 163.18 93.8203 163.188 95.5781C163.18 96.8203 164.023 97.8438 165.25 98.0781V98.1562C163.844 98.375 162.75 99.5312 162.75 100.953C162.75 102.797 164.602 104.156 167.188 104.156ZM165.203 100.719C165.195 99.7344 166.039 99.0234 167.188 99.0156C168.336 99.0234 169.18 99.7422 169.172 100.719C169.18 101.688 168.383 102.367 167.188 102.359C165.992 102.367 165.195 101.688 165.203 100.719ZM165.484 95.8125C165.477 94.9297 166.172 94.3125 167.188 94.3125C168.195 94.3125 168.898 94.9297 168.906 95.8125C168.898 96.7188 168.18 97.3516 167.188 97.3594C166.188 97.3516 165.477 96.7188 165.484 95.8125Z" fill="#3299FE"/>
<path d="M177.484 104.156C180.062 104.156 181.922 102.797 181.922 100.953C181.922 99.5312 180.812 98.375 179.438 98.1562V98.0781C180.625 97.8438 181.492 96.8203 181.5 95.5781C181.492 93.8203 179.797 92.5312 177.484 92.5312C175.172 92.5312 173.477 93.8203 173.484 95.5781C173.477 96.8203 174.32 97.8438 175.547 98.0781V98.1562C174.141 98.375 173.047 99.5312 173.047 100.953C173.047 102.797 174.898 104.156 177.484 104.156ZM175.5 100.719C175.492 99.7344 176.336 99.0234 177.484 99.0156C178.633 99.0234 179.477 99.7422 179.469 100.719C179.477 101.688 178.68 102.367 177.484 102.359C176.289 102.367 175.492 101.688 175.5 100.719ZM175.781 95.8125C175.773 94.9297 176.469 94.3125 177.484 94.3125C178.492 94.3125 179.195 94.9297 179.203 95.8125C179.195 96.7188 178.477 97.3516 177.484 97.3594C176.484 97.3516 175.773 96.7188 175.781 95.8125Z" fill="#3299FE"/>
<path d="M186.5 98.3438C188.172 98.3438 189.102 97.125 189.109 95.3281C189.102 93.5391 188.195 92.2969 186.5 92.2969C184.852 92.2969 183.891 93.5391 183.891 95.3281C183.891 97.1094 184.805 98.3438 186.5 98.3438ZM185.484 95.3281C185.492 94.3672 185.836 93.6953 186.5 93.6875C187.203 93.6875 187.508 94.3516 187.516 95.3281C187.508 96.3047 187.172 96.9453 186.5 96.9531C185.844 96.9453 185.492 96.3047 185.484 95.3281ZM185.516 104H187.266L195.047 92.6875H193.297L185.516 104ZM191.531 101.359C191.531 103.141 192.445 104.375 194.125 104.375C195.812 104.375 196.742 103.156 196.75 101.359C196.742 99.5703 195.836 98.3359 194.125 98.3281C192.492 98.3359 191.531 99.5703 191.531 101.359ZM193.125 101.359C193.133 100.398 193.469 99.7266 194.125 99.7344C194.836 99.7188 195.148 100.383 195.156 101.359C195.148 102.336 194.812 102.984 194.125 102.984C193.484 102.984 193.133 102.336 193.125 101.359Z" fill="#3299FE"/>
</g>
<defs>
<filter id="filter0_d_286_5225" x="104" y="12" width="72" height="72" filterUnits="userSpaceOnUse" color-interpolation-filters="sRGB">
<feFlood flood-opacity="0" result="BackgroundImageFix"/>
<feColorMatrix in="SourceAlpha" type="matrix" values="0 0 0 0 0 0 0 0 0 0 0 0 0 0 0 0 0 0 127 0" result="hardAlpha"/>
<feMorphology radius="8" operator="erode" in="SourceAlpha" result="effect1_dropShadow_286_5225"/>
<feOffset dy="8"/>
<feGaussianBlur stdDeviation="8"/>
<feComposite in2="hardAlpha" operator="out"/>
<feColorMatrix type="matrix" values="0 0 0 0 0 0 0 0 0 0 0 0 0 0 0 0 0 0 0.16 0"/>
<feBlend mode="normal" in2="BackgroundImageFix" result="effect1_dropShadow_286_5225"/>
<feBlend mode="normal" in="SourceGraphic" in2="effect1_dropShadow_286_5225" result="shape"/>
</filter>
<filter id="filter1_d_286_5225" x="168" y="50" width="64" height="34" filterUnits="userSpaceOnUse" color-interpolation-filters="sRGB">
<feFlood flood-opacity="0" result="BackgroundImageFix"/>
<feColorMatrix in="SourceAlpha" type="matrix" values="0 0 0 0 0 0 0 0 0 0 0 0 0 0 0 0 0 0 127 0" result="hardAlpha"/>
<feMorphology radius="8" operator="erode" in="SourceAlpha" result="effect1_dropShadow_286_5225"/>
<feOffset dy="8"/>
<feGaussianBlur stdDeviation="8"/>
<feComposite in2="hardAlpha" operator="out"/>
<feColorMatrix type="matrix" values="0 0 0 0 0 0 0 0 0 0 0 0 0 0 0 0 0 0 0.25 0"/>
<feBlend mode="normal" in2="BackgroundImageFix" result="effect1_dropShadow_286_5225"/>
<feBlend mode="normal" in="SourceGraphic" in2="effect1_dropShadow_286_5225" result="shape"/>
</filter>
<filter id="filter2_d_286_5225" x="8" y="22" width="100" height="112" filterUnits="userSpaceOnUse" color-interpolation-filters="sRGB">
<feFlood flood-opacity="0" result="BackgroundImageFix"/>
<feColorMatrix in="SourceAlpha" type="matrix" values="0 0 0 0 0 0 0 0 0 0 0 0 0 0 0 0 0 0 127 0" result="hardAlpha"/>
<feMorphology radius="8" operator="erode" in="SourceAlpha" result="effect1_dropShadow_286_5225"/>
<feOffset dy="8"/>
<feGaussianBlur stdDeviation="8"/>
<feComposite in2="hardAlpha" operator="out"/>
<feColorMatrix type="matrix" values="0 0 0 0 0 0 0 0 0 0 0 0 0 0 0 0 0 0 0.16 0"/>
<feBlend mode="normal" in2="BackgroundImageFix" result="effect1_dropShadow_286_5225"/>
<feBlend mode="normal" in="SourceGraphic" in2="effect1_dropShadow_286_5225" result="shape"/>
</filter>
<filter id="filter3_d_286_5225" x="104" y="80" width="112" height="64" filterUnits="userSpaceOnUse" color-interpolation-filters="sRGB">
<feFlood flood-opacity="0" result="BackgroundImageFix"/>
<feColorMatrix in="SourceAlpha" type="matrix" values="0 0 0 0 0 0 0 0 0 0 0 0 0 0 0 0 0 0 127 0" result="hardAlpha"/>
<feMorphology radius="8" operator="erode" in="SourceAlpha" result="effect1_dropShadow_286_5225"/>
<feOffset dy="8"/>
<feGaussianBlur stdDeviation="8"/>
<feComposite in2="hardAlpha" operator="out"/>
<feColorMatrix type="matrix" values="0 0 0 0 0 0 0 0 0 0 0 0 0 0 0 0 0 0 0.16 0"/>
<feBlend mode="normal" in2="BackgroundImageFix" result="effect1_dropShadow_286_5225"/>
<feBlend mode="normal" in="SourceGraphic" in2="effect1_dropShadow_286_5225" result="shape"/>
</filter>
<linearGradient id="paint0_linear_286_5225" x1="58" y1="82.5" x2="133.098" y2="179.556" gradientUnits="userSpaceOnUse">
<stop stop-color="white"/>
<stop offset="1" stop-color="#F9F9F9"/>
</linearGradient>
<linearGradient id="paint1_linear_286_5225" x1="16" y1="22" x2="100" y2="118" gradientUnits="userSpaceOnUse">
<stop stop-color="white"/>
<stop offset="1" stop-color="#F9F9F9"/>
</linearGradient>
</defs>
</svg>
