<svg width="48" height="48" viewBox="0 0 48 48" fill="none" xmlns="http://www.w3.org/2000/svg">
<rect opacity="0.6" width="48" height="48" rx="16" fill="#EAF5FF"/>
<path d="M13 28.3999H24V41.3999L13 37.3999V28.3999Z" fill="#7FBFFE"/>
<path d="M35 28.3999H24V41.3999L35 37.3999V28.3999Z" fill="#3299FE"/>
<path d="M13.2 25.2L24 23.8V28.4L13.2 25.2Z" fill="#55A8FA"/>
<path d="M34.8 25.2L24 23.8V28.4L34.8 25.2Z" fill="#7EBDFC"/>
<path opacity="0.6" d="M13 7.6001H35L29.4 28.4001H18.6L13 7.6001Z" fill="url(#paint0_linear_286_6042)"/>
<path d="M21.0245 10.7207C21.1004 10.582 21.2996 10.582 21.3755 10.7207L22.3033 12.4171C22.3216 12.4507 22.3492 12.4783 22.3828 12.4966L24.0792 13.4244C24.2179 13.5003 24.2179 13.6995 24.0792 13.7754L22.3828 14.7032C22.3492 14.7215 22.3216 14.7491 22.3033 14.7827L21.3755 16.4791C21.2996 16.6178 21.1004 16.6178 21.0245 16.4791L20.0967 14.7827C20.0784 14.7491 20.0508 14.7215 20.0172 14.7032L18.3208 13.7754C18.1821 13.6995 18.1821 13.5003 18.3208 13.4244L20.0172 12.4966C20.0508 12.4783 20.0784 12.4507 20.0967 12.4171L21.0245 10.7207Z" fill="#3299FE"/>
<path d="M26.8241 17.1209C26.9 16.9822 27.0992 16.9822 27.1751 17.1209L27.82 18.3001C27.8384 18.3337 27.866 18.3613 27.8995 18.3796L29.0788 19.0246C29.2175 19.1004 29.2175 19.2997 29.0788 19.3755L27.8995 20.0205C27.866 20.0388 27.8384 20.0664 27.82 20.1L27.1751 21.2792C27.0992 21.4179 26.9 21.4179 26.8241 21.2792L26.1792 20.1C26.1608 20.0664 26.1332 20.0388 26.0997 20.0205L24.9204 19.3755C24.7817 19.2997 24.7817 19.1004 24.9204 19.0246L26.0997 18.3796C26.1332 18.3613 26.1608 18.3337 26.1792 18.3001L26.8241 17.1209Z" fill="#3299FE"/>
<path d="M13.2004 25.2L24.0004 28.4L20.8004 32.4L10.4004 28.8L13.2004 25.2Z" fill="#C2E1FF"/>
<path d="M34.7996 25.2L23.9996 28.4L27.1996 32.4L37.5996 28.8L34.7996 25.2Z" fill="#9FCEFC"/>
<defs>
<linearGradient id="paint0_linear_286_6042" x1="24" y1="7.6001" x2="24" y2="28.4001" gradientUnits="userSpaceOnUse">
<stop stop-color="#6FB5FB" stop-opacity="0"/>
<stop offset="0.988537" stop-color="#6FB5FB"/>
</linearGradient>
</defs>
</svg>
