<svg width="20" height="20" viewBox="0 0 20 20" fill="none" xmlns="http://www.w3.org/2000/svg">
<path fill-rule="evenodd" clip-rule="evenodd" d="M7 3C6.44772 3 6 3.44772 6 4V5H14V4C14 3.44772 13.5523 3 13 3H7ZM5 6C3.34315 6 2 7.34315 2 9V14C2 15.6569 3.34315 17 5 17H15C16.6569 17 18 15.6569 18 14V9C18 7.34315 16.6569 6 15 6H5ZM5 8C4.44772 8 4 8.44772 4 9C4 9.55228 4.44772 10 5 10C5.55228 10 6 9.55228 6 9C6 8.44772 5.55228 8 5 8ZM13.5 11.5C13.5 9.567 11.933 8 10 8C8.067 8 6.5 9.567 6.5 11.5C6.5 13.433 8.067 15 10 15C11.933 15 13.5 13.433 13.5 11.5ZM8 11.5C8 10.3954 8.89543 9.5 10 9.5C11.1046 9.5 12 10.3954 12 11.5C12 12.6046 11.1046 13.5 10 13.5C8.89543 13.5 8 12.6046 8 11.5Z" fill="#02B585"/>
</svg>
