<svg width="20" height="20" viewBox="0 0 20 20" fill="none" xmlns="http://www.w3.org/2000/svg">
<path fill-rule="evenodd" clip-rule="evenodd" d="M0 6C0 5.44772 0.447715 5 1 5H19C19.5523 5 20 5.44772 20 6C20 6.55228 19.5523 7 19 7H1C0.447715 7 0 6.55228 0 6ZM0 10C0 9.44772 0.447715 9 1 9H19C19.5523 9 20 9.44772 20 10C20 10.5523 19.5523 11 19 11H1C0.447715 11 0 10.5523 0 10ZM1 13C0.447715 13 0 13.4477 0 14C0 14.5523 0.447715 15 1 15H19C19.5523 15 20 14.5523 20 14C20 13.4477 19.5523 13 19 13H1Z" fill="#CDD6E4"/>
</svg>
