<svg width="28" height="28" viewBox="0 0 28 28" fill="none" xmlns="http://www.w3.org/2000/svg">
<path fill-rule="evenodd" clip-rule="evenodd" d="M13.7657 7.64322C14.1209 7.22033 14.0661 6.58954 13.6432 6.23432C13.2203 5.87909 12.5895 5.93394 12.2343 6.35683L8.743 10.5131L6.71421 8.44295C6.32765 8.0485 5.69452 8.04211 5.30007 8.42867C4.90562 8.81523 4.89923 9.44836 5.28579 9.84281L7.89298 12.5032C8.40961 13.0304 9.26813 12.9975 9.74288 12.4323L13.7657 7.64322ZM16.5 9.00003C15.9477 9.00003 15.5 9.44775 15.5 10C15.5 10.5523 15.9477 11 16.5 11L22.5 11C23.0523 11 23.5 10.5523 23.5 10C23.5 9.44775 23.0523 9.00003 22.5 9.00003L16.5 9.00003ZM5.5 15C4.94772 15 4.5 15.4477 4.5 16C4.5 16.5523 4.94772 17 5.5 17H22.5C23.0523 17 23.5 16.5523 23.5 16C23.5 15.4477 23.0523 15 22.5 15H5.5ZM4.5 22C4.5 21.4477 4.94772 21 5.5 21H22.5C23.0523 21 23.5 21.4477 23.5 22C23.5 22.5523 23.0523 23 22.5 23H5.5C4.94772 23 4.5 22.5523 4.5 22Z" fill="#333333"/>
</svg>
