<svg width="20" height="20" viewBox="0 0 20 20" fill="none" xmlns="http://www.w3.org/2000/svg">
<rect x="2.22217" y="3.61084" width="15.5556" height="1.66667" rx="0.5" fill="#555555"/>
<rect x="2.22217" y="9.1665" width="15.5556" height="1.66667" rx="0.5" fill="#555555"/>
<rect x="2.22217" y="14.7222" width="15.5556" height="1.66667" rx="0.5" fill="#555555"/>
<path d="M8.33333 4.4445C8.33333 5.36497 7.58714 6.11117 6.66667 6.11117C5.74619 6.11117 5 5.36497 5 4.4445C5 3.52402 5.74619 2.77783 6.66667 2.77783C7.58714 2.77783 8.33333 3.52402 8.33333 4.4445Z" fill="white"/>
<path fill-rule="evenodd" clip-rule="evenodd" d="M6.66675 3.611C6.20651 3.611 5.83341 3.9841 5.83341 4.44434C5.83341 4.90457 6.20651 5.27767 6.66675 5.27767C7.12699 5.27767 7.50008 4.90457 7.50008 4.44434C7.50008 3.9841 7.12699 3.611 6.66675 3.611ZM4.16675 4.44434C4.16675 3.06362 5.28604 1.94434 6.66675 1.94434C8.04746 1.94434 9.16675 3.06362 9.16675 4.44434C9.16675 5.82505 8.04746 6.94434 6.66675 6.94434C5.28604 6.94434 4.16675 5.82505 4.16675 4.44434Z" fill="#555555"/>
<path d="M15.0001 9.99967C15.0001 10.9201 14.2539 11.6663 13.3334 11.6663C12.4129 11.6663 11.6667 10.9201 11.6667 9.99967C11.6667 9.0792 12.4129 8.33301 13.3334 8.33301C14.2539 8.33301 15.0001 9.0792 15.0001 9.99967Z" fill="white"/>
<path fill-rule="evenodd" clip-rule="evenodd" d="M13.3333 9.16667C12.873 9.16667 12.4999 9.53976 12.4999 10C12.4999 10.4602 12.873 10.8333 13.3333 10.8333C13.7935 10.8333 14.1666 10.4602 14.1666 10C14.1666 9.53976 13.7935 9.16667 13.3333 9.16667ZM10.8333 10C10.8333 8.61929 11.9525 7.5 13.3333 7.5C14.714 7.5 15.8333 8.61929 15.8333 10C15.8333 11.3807 14.714 12.5 13.3333 12.5C11.9525 12.5 10.8333 11.3807 10.8333 10Z" fill="#555555"/>
<path d="M9.44442 15.5553C9.44442 16.4758 8.69823 17.222 7.77775 17.222C6.85728 17.222 6.11108 16.4758 6.11108 15.5553C6.11108 14.6349 6.85728 13.8887 7.77775 13.8887C8.69823 13.8887 9.44442 14.6349 9.44442 15.5553Z" fill="white"/>
<path fill-rule="evenodd" clip-rule="evenodd" d="M7.77783 14.7223C7.31759 14.7223 6.9445 15.0954 6.9445 15.5557C6.9445 16.0159 7.31759 16.389 7.77783 16.389C8.23807 16.389 8.61117 16.0159 8.61117 15.5557C8.61117 15.0954 8.23807 14.7223 7.77783 14.7223ZM5.27783 15.5557C5.27783 14.175 6.39712 13.0557 7.77783 13.0557C9.15854 13.0557 10.2778 14.175 10.2778 15.5557C10.2778 16.9364 9.15854 18.0557 7.77783 18.0557C6.39712 18.0557 5.27783 16.9364 5.27783 15.5557Z" fill="#555555"/>
</svg>
