<svg width="16" height="16" viewBox="0 0 16 16" fill="none" xmlns="http://www.w3.org/2000/svg">
<rect width="16" height="16" rx="8" fill="#FFBB00"/>
<path fill-rule="evenodd" clip-rule="evenodd" d="M8.0002 3.2002C10.6512 3.2002 12.8002 5.34923 12.8002 8.0002C12.8002 10.6512 10.6512 12.8002 8.0002 12.8002C5.34923 12.8002 3.2002 10.6512 3.2002 8.0002C3.2002 5.34923 5.34923 3.2002 8.0002 3.2002ZM8.0002 4.1002C5.84628 4.1002 4.1002 5.84628 4.1002 8.0002C4.1002 10.1541 5.84628 11.9002 8.0002 11.9002C10.1541 11.9002 11.9002 10.1541 11.9002 8.0002C11.9002 5.84628 10.1541 4.1002 8.0002 4.1002ZM8.44609 6.13913C8.41629 5.91949 8.22801 5.7502 8.0002 5.7502C7.75167 5.7502 7.5502 5.95167 7.5502 6.2002V8.3602L7.55457 8.42282C7.56618 8.5054 7.60058 8.58358 7.6545 8.64828L8.8545 10.0883L8.90082 10.1362C9.06442 10.2824 9.31471 10.2905 9.48828 10.1459L9.53624 10.0996C9.68236 9.93597 9.69053 9.68568 9.5459 9.51211L8.4502 8.197V6.2002L8.44609 6.13913Z" fill="white"/>
</svg>
