<svg xmlns="http://www.w3.org/2000/svg" width="20" height="20" viewBox="0 0 20 20" fill="none">
  <path d="M9.25 6.2C9.25 6.08954 9.33954 6 9.45 6H10.55C10.6605 6 10.75 6.08954 10.75 6.2V10.8C10.75 10.9105 10.6605 11 10.55 11H9.45C9.33954 11 9.25 10.9105 9.25 10.8V6.2Z" fill="#333333"/>
  <path d="M10.75 12.75C10.75 13.1642 10.4142 13.5 10 13.5C9.58579 13.5 9.25 13.1642 9.25 12.75C9.25 12.3358 9.58579 12 10 12C10.4142 12 10.75 12.3358 10.75 12.75Z" fill="#333333"/>
  <path fill-rule="evenodd" clip-rule="evenodd" d="M10 1.25C5.16751 1.25 1.25 5.16751 1.25 10C1.25 14.8325 5.16751 18.75 10 18.75C14.8325 18.75 18.75 14.8325 18.75 10C18.75 5.16751 14.8325 1.25 10 1.25ZM2.75 10C2.75 5.99594 5.99594 2.75 10 2.75C14.0041 2.75 17.25 5.99594 17.25 10C17.25 14.0041 14.0041 17.25 10 17.25C5.99594 17.25 2.75 14.0041 2.75 10Z" fill="#333333"/>
</svg>