<svg width="20" height="20" viewBox="0 0 20 20" fill="none" xmlns="http://www.w3.org/2000/svg">
<path d="M9.81707 3.12183L10.8777 4.18249L6.2919 8.76832C5.1537 9.90652 4.70858 11.0682 4.68364 12.0725C4.65857 13.0831 5.05605 13.9958 5.71185 14.6517C6.36767 15.3075 7.28043 15.705 8.29099 15.6799C9.29524 15.6549 10.4569 15.2099 11.5952 14.0716L15.4173 10.2495C16.0604 9.60627 16.2792 8.95252 16.2708 8.39198C16.2622 7.81908 16.0154 7.27755 15.6113 6.8735C15.2073 6.46945 14.6658 6.22266 14.0929 6.21404C13.5323 6.20565 12.8786 6.42443 12.2353 7.06754L7.6488 11.6541C7.39142 11.9115 7.32929 12.1434 7.33184 12.3121C7.3346 12.4931 7.41323 12.6725 7.55212 12.8114C7.69101 12.9503 7.87038 13.0289 8.05138 13.0317C8.22017 13.0342 8.45207 12.9721 8.70946 12.7147L14.0597 7.36447L15.1204 8.42513L9.77012 13.7754C9.25574 14.2897 8.64342 14.5415 8.02859 14.5322C7.42604 14.523 6.88285 14.2634 6.49146 13.8721C6.10007 13.4807 5.84047 12.9375 5.83131 12.3349C5.82201 11.7201 6.07377 11.1078 6.58814 10.5934L11.1747 6.00688C12.0749 5.10674 13.1091 4.69835 14.1156 4.71351C15.1101 4.72848 16.0154 5.15623 16.672 5.81284C17.3286 6.46945 17.7564 7.3747 17.7713 8.36919C17.7865 9.37579 17.3781 10.4099 16.478 11.3102L12.6559 15.1323C11.2861 16.502 9.77123 17.1425 8.32828 17.1783C6.89162 17.214 5.58631 16.6475 4.65119 15.7123C3.71606 14.7772 3.14951 13.4719 3.18518 12.0352C3.22102 10.5923 3.86151 9.07739 5.23124 7.70766L9.81707 3.12183Z" fill="#555555"/>
</svg>
