<svg xmlns="http://www.w3.org/2000/svg" width="20" height="20" viewBox="0 0 20 20" fill="none">
  <path fill-rule="evenodd" clip-rule="evenodd" d="M10 18C7.24268 18 5 15.7573 5 13V6C5 5.63135 5.29871 5.33337 5.66663 5.33337C6.03467 5.33337 6.33337 5.63135 6.33337 6V13C6.33337 15.0214 7.97803 16.6666 10 16.6666C12.022 16.6666 13.6666 15.0214 13.6666 13V5.66663C13.6666 4.38 12.62 3.33337 11.3334 3.33337C10.0466 3.33337 9 4.38 9 5.66663V12.3334C9 12.8846 9.44861 13.3334 10 13.3334C10.5514 13.3334 11 12.8846 11 12.3334V6C11 5.63135 11.2987 5.33337 11.6666 5.33337C12.0347 5.33337 12.3334 5.63135 12.3334 6V12.3334C12.3334 13.0677 11.9924 13.7239 11.4605 14.1519C11.0604 14.4738 10.5523 14.6666 10 14.6666C8.71338 14.6666 7.66663 13.62 7.66663 12.3334V5.66663C7.66663 3.64539 9.31128 2 11.3334 2C13.3553 2 15 3.64539 15 5.66663V13C15 15.7573 12.7573 18 10 18Z" fill="#333333"/>
</svg>