<svg width="20" height="20" viewBox="0 0 20 20" fill="none" xmlns="http://www.w3.org/2000/svg">
<rect x="2" y="2" width="16" height="16" rx="8" fill="#FFBB00"/>
<path fill-rule="evenodd" clip-rule="evenodd" d="M10.0002 5.2002C12.6512 5.2002 14.8002 7.34923 14.8002 10.0002C14.8002 12.6512 12.6512 14.8002 10.0002 14.8002C7.34923 14.8002 5.2002 12.6512 5.2002 10.0002C5.2002 7.34923 7.34923 5.2002 10.0002 5.2002ZM10.0002 6.1002C7.84628 6.1002 6.1002 7.84628 6.1002 10.0002C6.1002 12.1541 7.84628 13.9002 10.0002 13.9002C12.1541 13.9002 13.9002 12.1541 13.9002 10.0002C13.9002 7.84628 12.1541 6.1002 10.0002 6.1002ZM10.4461 8.13913C10.4163 7.91949 10.228 7.7502 10.0002 7.7502C9.75167 7.7502 9.5502 7.95167 9.5502 8.2002V10.3602L9.55457 10.4228C9.56618 10.5054 9.60058 10.5836 9.6545 10.6483L10.8545 12.0883L10.9008 12.1362C11.0644 12.2824 11.3147 12.2905 11.4883 12.1459L11.5362 12.0996C11.6824 11.936 11.6905 11.6857 11.5459 11.5121L10.4502 10.197V8.2002L10.4461 8.13913Z" fill="white"/>
</svg>
