<svg width="24" height="24" viewBox="0 0 24 24" fill="none" xmlns="http://www.w3.org/2000/svg">
<path fill-rule="evenodd" clip-rule="evenodd" d="M10 5H7C6.44772 5 6 5.44772 6 6V18C6 18.5523 6.44772 19 7 19H17C17.5523 19 18 18.5523 18 18V6C18 5.44772 17.5523 5 17 5H14V6.62963C14 6.83418 13.8342 7 13.6296 7H10.3704C10.1658 7 10 6.83418 10 6.62963V5ZM13.7324 3H17C18.6569 3 20 4.34315 20 6V18C20 19.6569 18.6569 21 17 21H7C5.34315 21 4 19.6569 4 18V6C4 4.34315 5.34315 3 7 3H10.2676C10.6134 2.4022 11.2597 2 12 2C12.7403 2 13.3866 2.4022 13.7324 3ZM15.6971 8.783C16.0931 9.16798 16.102 9.80108 15.717 10.1971L12.1622 13.8535C11.6616 14.3684 10.834 14.3666 10.3356 13.8495L8.27996 11.7165C7.89671 11.3189 7.9084 10.6858 8.30607 10.3026C8.70373 9.9193 9.33679 9.93099 9.72004 10.3287L11.2531 11.9194L14.283 8.80293C14.668 8.40694 15.3011 8.39802 15.6971 8.783Z" fill="#333333"/>
</svg>
