<svg width="36" height="36" viewBox="0 0 36 36" fill="none" xmlns="http://www.w3.org/2000/svg">
<path fill-rule="evenodd" clip-rule="evenodd" d="M4 5C4 4.44771 4.44772 4 5 4H31C31.5523 4 32 4.44772 32 5V31C32 31.5523 31.5523 32 31 32H5C4.44771 32 4 31.5523 4 31V5ZM13.3333 15.6667C14.622 15.6667 15.6667 14.622 15.6667 13.3333C15.6667 12.0447 14.622 11 13.3333 11C12.0447 11 11 12.0447 11 13.3333C11 14.622 12.0447 15.6667 13.3333 15.6667ZM28 28.5H7.5L13.7723 21.1823C14.1604 20.7296 14.856 20.7149 15.2628 21.151L18 24.0853L24.2154 16.6404C24.6299 16.1439 25.3994 16.1655 25.7854 16.6843L28.3023 20.0676C28.4307 20.2402 28.5 20.4495 28.5 20.6645V28C28.5 28.2761 28.2761 28.5 28 28.5Z" fill="#406588"/>
</svg>
