<svg width="20" height="20" viewBox="0 0 20 20" fill="none" xmlns="http://www.w3.org/2000/svg">
<g clip-path="url(#clip0_5056_108)">
<circle cx="10" cy="10" r="8" fill="#777777"/>
<path d="M11.1536 10.77L10.2736 8.36502C10.2303 8.25835 10.1853 8.13169 10.1386 7.98502C10.092 7.83835 10.0453 7.68002 9.99863 7.51002C9.9553 7.68002 9.9103 7.84002 9.86363 7.99002C9.81697 8.13669 9.77197 8.26502 9.72863 8.37502L8.85363 10.77H11.1536ZM13.5286 13.5H12.4886C12.372 13.5 12.277 13.4717 12.2036 13.415C12.1303 13.355 12.0753 13.2817 12.0386 13.195L11.4986 11.72H8.50363L7.96363 13.195C7.93697 13.2717 7.8853 13.3417 7.80863 13.405C7.73197 13.4684 7.63697 13.5 7.52363 13.5H6.47363L9.31863 6.27002H10.6886L13.5286 13.5Z" fill="white"/>
</g>
<defs>
<clipPath id="clip0_5056_108">
<rect width="16" height="16" fill="white" transform="translate(2 2)"/>
</clipPath>
</defs>
</svg>
