<svg width="20" height="20" viewBox="0 0 20 20" fill="none" xmlns="http://www.w3.org/2000/svg">
<path d="M10.25 6C10.5261 6 10.75 6.22386 10.75 6.5V9.25H13.5C13.7761 9.25 14 9.47386 14 9.75V10.25C14 10.5261 13.7761 10.75 13.5 10.75H10.75V13.5C10.75 13.7761 10.5261 14 10.25 14H9.75C9.47386 14 9.25 13.7761 9.25 13.5V10.75H6.5C6.22386 10.75 6 10.5261 6 10.25V9.75C6 9.47386 6.22386 9.25 6.5 9.25H9.25V6.5C9.25 6.22386 9.47386 6 9.75 6H10.25Z" fill="#333333"/>
<path fill-rule="evenodd" clip-rule="evenodd" d="M10 2C14.4183 2 18 5.58172 18 10C18 14.4183 14.4183 18 10 18C5.58172 18 2 14.4183 2 10C2 5.58172 5.58172 2 10 2ZM10 3.5C6.41015 3.5 3.5 6.41015 3.5 10C3.5 13.5899 6.41015 16.5 10 16.5C13.5899 16.5 16.5 13.5899 16.5 10C16.5 6.41015 13.5899 3.5 10 3.5Z" fill="#333333"/>
</svg>
