<svg width="20" height="20" viewBox="0 0 20 20" fill="none" xmlns="http://www.w3.org/2000/svg">
<path d="M9.02534 4.1875C9.45835 3.4375 10.5415 3.4375 10.9746 4.1875L16.8203 14.3125C17.2531 15.0624 16.7115 15.9999 15.8456 16H4.15424C3.28827 16 2.74675 15.0625 3.17963 14.3125L9.02534 4.1875ZM9.99995 13C9.58573 13 9.24995 13.3358 9.24995 13.75C9.24995 14.1642 9.58573 14.5 9.99995 14.5C10.4141 14.5 10.7499 14.1642 10.7499 13.75C10.7499 13.3358 10.4141 13 9.99995 13ZM9.49995 7C9.36188 7 9.24995 7.11193 9.24995 7.25V11.75C9.24995 11.8881 9.36188 12 9.49995 12H10.4999C10.638 12 10.7499 11.888 10.7499 11.75V7.25C10.7499 7.11195 10.638 7.00004 10.4999 7H9.49995Z" fill="#FFBB00"/>
</svg>
