<svg width="20" height="20" viewBox="0 0 20 20" fill="none" xmlns="http://www.w3.org/2000/svg">
<rect x="2" y="2" width="16" height="16" rx="8" fill="#4DC9AA"/>
<path fill-rule="evenodd" clip-rule="evenodd" d="M10.0002 5.19995C12.6512 5.19995 14.8002 7.34898 14.8002 9.99995C14.8002 12.6509 12.6512 14.8 10.0002 14.8C7.34923 14.8 5.2002 12.6509 5.2002 9.99995C5.2002 7.34898 7.34923 5.19995 10.0002 5.19995ZM10.0002 6.09995C7.84628 6.09995 6.1002 7.84604 6.1002 9.99995C6.1002 12.1539 7.84628 13.9 10.0002 13.9C12.1541 13.9 13.9002 12.1539 13.9002 9.99995C13.9002 7.84604 12.1541 6.09995 10.0002 6.09995ZM10.4461 8.13889C10.4163 7.91924 10.228 7.74995 10.0002 7.74995C9.75167 7.74995 9.5502 7.95142 9.5502 8.19995V10.36L9.55457 10.4226C9.56618 10.5052 9.60058 10.5833 9.6545 10.648L10.8545 12.088L10.9008 12.136C11.0644 12.2821 11.3147 12.2903 11.4883 12.1457L11.5362 12.0993C11.6824 11.9357 11.6905 11.6854 11.5459 11.5119L10.4502 10.1968V8.19995L10.4461 8.13889Z" fill="white"/>
</svg>
