<svg width="24" height="24" viewBox="0 0 24 24" fill="none" xmlns="http://www.w3.org/2000/svg">
<mask id="path-1-outside-1_7096_1233" maskUnits="userSpaceOnUse" x="2" y="2" width="20" height="21" fill="black">
<rect fill="white" x="2" y="2" width="20" height="21"/>
<path fill-rule="evenodd" clip-rule="evenodd" d="M12 20C16.4183 20 20 16.4183 20 12C20 7.58172 16.4183 4 12 4C7.58172 4 4 7.58172 4 12C4 14.0528 4.77314 15.9249 6.04412 17.3412L5.60528 19.83C5.53844 20.2091 5.907 20.5183 6.26869 20.3867L8.71008 19.4981C8.7853 19.4707 8.84848 19.4285 8.89874 19.3767C9.85245 19.7781 10.9003 20 12 20Z"/>
</mask>
<path d="M6.04412 17.3412L8.01373 17.6885L8.18276 16.7299L7.53263 16.0054L6.04412 17.3412ZM5.60528 19.83L3.63566 19.4827L3.63566 19.4827L5.60528 19.83ZM6.26869 20.3867L5.58465 18.5073L5.58464 18.5073L6.26869 20.3867ZM8.71008 19.4981L9.39412 21.3775L9.39413 21.3775L8.71008 19.4981ZM8.89874 19.3767L9.67465 17.5333L8.41424 17.0028L7.46253 17.9848L8.89874 19.3767ZM18 12C18 15.3137 15.3137 18 12 18V22C17.5228 22 22 17.5228 22 12H18ZM12 6C15.3137 6 18 8.68629 18 12H22C22 6.47715 17.5228 2 12 2V6ZM6 12C6 8.68629 8.68629 6 12 6V2C6.47715 2 2 6.47715 2 12H6ZM7.53263 16.0054C6.57819 14.9419 6 13.5408 6 12H2C2 14.5647 2.9681 16.908 4.5556 18.677L7.53263 16.0054ZM7.57489 20.1773L8.01373 17.6885L4.0745 16.9939L3.63566 19.4827L7.57489 20.1773ZM5.58464 18.5073C6.66971 18.1124 7.7754 19.0401 7.57489 20.1773L3.63566 19.4827C3.30148 21.378 5.14429 22.9243 6.95274 22.2661L5.58464 18.5073ZM8.02604 17.6187L5.58465 18.5073L6.95273 22.2661L9.39412 21.3775L8.02604 17.6187ZM7.46253 17.9848C7.621 17.8213 7.81435 17.6958 8.02604 17.6187L9.39413 21.3775C9.75625 21.2457 10.076 21.0358 10.3349 20.7686L7.46253 17.9848ZM12 18C11.1715 18 10.3872 17.8332 9.67465 17.5333L8.12283 21.22C9.31775 21.723 10.6291 22 12 22V18Z" fill="#333333" mask="url(#path-1-outside-1_7096_1233)"/>
<ellipse cx="11.1875" cy="9.48438" rx="1.1875" ry="1.48438" fill="#333333"/>
<ellipse cx="15.9375" cy="9.48438" rx="1.1875" ry="1.48438" fill="#333333"/>
<path d="M14.6053 12.9473C15.0994 12.9473 15.5169 13.367 15.3032 13.8125C15.2064 14.0142 15.0755 14.2002 14.9142 14.3615C14.5391 14.7366 14.0304 14.9473 13.5 14.9473C12.9696 14.9473 12.4609 14.7366 12.0858 14.3615C11.9245 14.2002 11.7936 14.0142 11.6968 13.8125C11.4831 13.367 11.9006 12.9473 12.3947 12.9473L13.5 12.9473H14.6053Z" fill="#333333"/>
</svg>
