<svg width="20" height="20" viewBox="0 0 20 20" fill="none" xmlns="http://www.w3.org/2000/svg">
<path d="M5.10156 3.2002C5.30157 2.93355 5.70137 2.93354 5.90137 3.2002L7.90137 5.86621C8.14858 6.19583 7.913 6.66699 7.50098 6.66699H6.50098V16.5C6.50087 16.776 6.27705 17 6.00098 17H5.00098C4.72495 16.9999 4.50109 16.776 4.50098 16.5V6.66699H3.50098C3.08902 6.66691 2.85437 6.1958 3.10156 5.86621L5.10156 3.2002ZM16.5 15C16.7761 15 17 15.2239 17 15.5V16.5C16.9999 16.7761 16.7761 17 16.5 17H10C9.72398 16.9999 9.50007 16.776 9.5 16.5V15.5C9.5 15.2239 9.72394 15.0001 10 15H16.5ZM15.5 11C15.7761 11 16 11.2239 16 11.5V12.5C15.9999 12.7761 15.7761 13 15.5 13H10C9.72398 12.9999 9.50007 12.776 9.5 12.5V11.5C9.5 11.2239 9.72394 11.0001 10 11H15.5ZM14.5 7C14.7761 7 15 7.22386 15 7.5V8.5C14.9999 8.77609 14.7761 9 14.5 9H10C9.72398 8.9999 9.50007 8.77603 9.5 8.5V7.5C9.5 7.22392 9.72394 7.0001 10 7H14.5ZM13.5 3C13.7761 3 14 3.22386 14 3.5V4.5C13.9999 4.77609 13.7761 5 13.5 5H10C9.72398 4.9999 9.50007 4.77603 9.5 4.5V3.5C9.5 3.22392 9.72394 3.0001 10 3H13.5Z" fill="#333333"/>
</svg>
