<svg width="20" height="20" viewBox="0 0 20 20" fill="none" xmlns="http://www.w3.org/2000/svg">
<path d="M17.2041 8.01074C18.2128 8.113 19 8.96435 19 10V16C19 17.1046 18.1046 18 17 18H9C7.96435 18 7.113 17.2128 7.01074 16.2041L7 16H14.5C15.8807 16 17 14.8807 17 13.5V8L17.2041 8.01074Z" fill="#333333"/>
<path d="M14 13.5V15H3V13.5H14ZM14.5 13V4C14.5 3.72386 14.2761 3.5 14 3.5H3C2.72386 3.5 2.5 3.72386 2.5 4V13C2.5 13.2761 2.72386 13.5 3 13.5V15L2.7959 14.9893C1.85435 14.8938 1.1062 14.1457 1.01074 13.2041L1 13V4C1 2.89543 1.89543 2 3 2H14C15.1046 2 16 2.89543 16 4V13C16 14.0357 15.2128 14.887 14.2041 14.9893L14 15V13.5C14.2761 13.5 14.5 13.2761 14.5 13Z" fill="#333333"/>
<path d="M8.5 5C8.91421 5 9.25 5.33579 9.25 5.75V7.75H11.25C11.6642 7.75 12 8.08579 12 8.5C12 8.91421 11.6642 9.25 11.25 9.25H9.25V11.25C9.25 11.6642 8.91421 12 8.5 12C8.08579 12 7.75 11.6642 7.75 11.25V9.25H5.75C5.33579 9.25 5 8.91421 5 8.5C5 8.08579 5.33579 7.75 5.75 7.75H7.75V5.75C7.75 5.33579 8.08579 5 8.5 5Z" fill="#333333"/>
</svg>
