<svg width="24" height="24" viewBox="0 0 24 24" fill="none" xmlns="http://www.w3.org/2000/svg">
<path d="M15.5 15C15.7761 15 16 15.2239 16 15.5V16.5C16 16.7761 15.7761 17 15.5 17H14.5C14.2239 17 14 16.7761 14 16.5V15.5C14 15.2239 14.2239 15 14.5 15H15.5Z" fill="#333333"/>
<path d="M12.5 11C12.7761 11 13 11.2239 13 11.5V12.5C13 12.7761 12.7761 13 12.5 13H8.5C8.22386 13 8 12.7761 8 12.5V11.5C8 11.2239 8.22386 11 8.5 11H12.5Z" fill="#333333"/>
<path d="M15.5 8C15.7761 8 16 8.22386 16 8.5V9.5C16 9.77614 15.7761 10 15.5 10H8.5C8.22386 10 8 9.77614 8 9.5V8.5C8 8.22386 8.22386 8 8.5 8H15.5Z" fill="#333333"/>
<path fill-rule="evenodd" clip-rule="evenodd" d="M15 2C15.5523 2 16 2.44772 16 3H17C18.6569 3 20 4.34315 20 6V18C20 19.6569 18.6569 21 17 21H7C5.34315 21 4 19.6569 4 18V6C4 4.34315 5.34315 3 7 3H8C8 2.44772 8.44772 2 9 2C9.55228 2 10 2.44772 10 3H14C14 2.44772 14.4477 2 15 2ZM7 5C6.44772 5 6 5.44772 6 6V18C6 18.5523 6.44772 19 7 19H17C17.5523 19 18 18.5523 18 18V6C18 5.44772 17.5523 5 17 5H16C16 5.55228 15.5523 6 15 6C14.4477 6 14 5.55228 14 5H10C10 5.55228 9.55228 6 9 6C8.44772 6 8 5.55228 8 5H7Z" fill="#333333"/>
</svg>
