<svg width="12" height="12" viewBox="0 0 12 12" fill="none" xmlns="http://www.w3.org/2000/svg">
<path fill-rule="evenodd" clip-rule="evenodd" d="M6.86108 1.6C6.86108 1.26863 6.5253 1 6.11108 1C5.69687 1 5.36108 1.26863 5.36108 1.6V5.13904H1.6C1.26863 5.13904 1 5.47482 1 5.88904C1 6.30325 1.26863 6.63904 1.6 6.63904H5.36108V10.4C5.36108 10.7314 5.69687 11 6.11108 11C6.5253 11 6.86108 10.7314 6.86108 10.4V6.63904H10.4C10.7314 6.63904 11 6.30325 11 5.88904C11 5.47482 10.7314 5.13904 10.4 5.13904H6.86108V1.6Z" fill="#333333"/>
</svg>
