<svg width="20" height="20" viewBox="0 0 20 20" fill="none" xmlns="http://www.w3.org/2000/svg">
<path d="M4 16H17.25V17H3V3H4V16Z" fill="#333333"/>
<path d="M11.5 3.25C12.3644 3.25 13.1785 3.59288 13.8916 4.18359C14.5996 4.77016 15.2093 5.60018 15.7061 6.59375C16.2043 7.59033 16.5915 8.75652 16.8535 10.0215C17.1157 11.2876 17.25 12.6388 17.25 14H15.75C15.75 12.7348 15.6251 11.4855 15.3848 10.3252C15.1442 9.16375 14.7945 8.12519 14.3643 7.26465C13.9325 6.40105 13.4398 5.7574 12.9346 5.33887C12.4346 4.92469 11.9487 4.75 11.5 4.75C11.0513 4.75 10.5654 4.92469 10.0654 5.33887C9.56022 5.7574 9.06754 6.40105 8.63574 7.26465C8.20548 8.12519 7.85579 9.16375 7.61523 10.3252C7.37492 11.4855 7.25 12.7348 7.25 14H5.75C5.75 12.6388 5.8843 11.2876 6.14648 10.0215C6.40847 8.75652 6.79566 7.59033 7.29395 6.59375C7.79073 5.60018 8.40035 4.77016 9.1084 4.18359C9.82153 3.59288 10.6356 3.25 11.5 3.25Z" fill="#333333"/>
<path d="M12.25 14H10.75V12.5H12.25V14Z" fill="#333333"/>
<path d="M12.25 11H10.75V9.5H12.25V11Z" fill="#333333"/>
<path d="M12.25 8H10.75V6.5H12.25V8Z" fill="#333333"/>
</svg>
