<svg width="20" height="20" viewBox="0 0 20 20" fill="none" xmlns="http://www.w3.org/2000/svg">
<circle cx="10" cy="10" r="8" fill="#406588"/>
<path d="M13.6027 9.95038C13.6027 10.4592 13.5179 10.9264 13.3483 11.352C13.1787 11.7776 12.9403 12.144 12.6331 12.4512C12.3259 12.7584 11.9563 12.9968 11.5243 13.1664C11.0923 13.336 10.6123 13.4208 10.0843 13.4208H7.43945V6.47998H10.0843C10.6123 6.47998 11.0923 6.56638 11.5243 6.73918C11.9563 6.90878 12.3259 7.14718 12.6331 7.45438C12.9403 7.75838 13.1787 8.12318 13.3483 8.54878C13.5179 8.97438 13.6027 9.44158 13.6027 9.95038ZM12.2779 9.95038C12.2779 9.56958 12.2267 9.22878 12.1243 8.92798C12.0251 8.62398 11.8795 8.36798 11.6875 8.15998C11.4987 7.94878 11.2683 7.78718 10.9963 7.67518C10.7275 7.56318 10.4235 7.50718 10.0843 7.50718H8.73545V12.3936H10.0843C10.4235 12.3936 10.7275 12.3376 10.9963 12.2256C11.2683 12.1136 11.4987 11.9536 11.6875 11.7456C11.8795 11.5344 12.0251 11.2784 12.1243 10.9776C12.2267 10.6736 12.2779 10.3312 12.2779 9.95038Z" fill="white"/>
</svg>
