<svg width="20" height="20" viewBox="0 0 20 20" fill="none" xmlns="http://www.w3.org/2000/svg">
<path d="M11.7742 8.17415C11.8717 8.07768 12.0294 8.07768 12.1268 8.17415L12.8211 8.86165C12.9199 8.95945 12.9199 9.11928 12.8211 9.21711L9.68147 12.3255C9.58405 12.422 9.42734 12.422 9.32991 12.3255L7.17952 10.1976C7.08088 10.0998 7.08095 9.93993 7.17952 9.84211L7.87483 9.15461C7.97226 9.05817 8.12897 9.05816 8.22639 9.15461L9.50569 10.4212L11.7742 8.17415Z" fill="#333333"/>
<path fill-rule="evenodd" clip-rule="evenodd" d="M8.40901 2.75227C9.28769 1.87359 10.7129 1.87359 11.5916 2.75227L17.2479 8.40852C18.1266 9.2872 18.1266 10.7125 17.2479 11.5911L11.5916 17.2474C10.7129 18.1261 9.28769 18.1261 8.40901 17.2474L2.75276 11.5911C1.87408 10.7125 1.87408 9.2872 2.75276 8.40852L8.40901 2.75227ZM10.5311 3.81282C10.2383 3.51999 9.76344 3.52012 9.47053 3.81282L3.81331 9.47004C3.52059 9.76295 3.52047 10.2378 3.81331 10.5306L9.47053 16.1868C9.76343 16.4797 10.2382 16.4797 10.5311 16.1868L16.1873 10.5306C16.4802 10.2377 16.4802 9.76294 16.1873 9.47004L10.5311 3.81282Z" fill="#333333"/>
</svg>
