<svg width="20" height="20" viewBox="0 0 20 20" fill="none" xmlns="http://www.w3.org/2000/svg">
<circle cx="10" cy="10" r="8" fill="#3299FE"/>
<path d="M12.9254 6.47998V13.4208H12.263C12.1606 13.4208 12.0742 13.4048 12.0038 13.3728C11.9366 13.3376 11.871 13.28 11.807 13.2L8.18302 8.57278C8.20222 8.78398 8.21182 8.97918 8.21182 9.15838V13.4208H7.07422V6.47998H7.75102C7.80542 6.47998 7.85182 6.48318 7.89022 6.48958C7.93182 6.49278 7.96702 6.50238 7.99582 6.51838C8.02782 6.53118 8.05822 6.55198 8.08702 6.58078C8.11582 6.60638 8.14782 6.64158 8.18302 6.68638L11.8214 11.3328C11.8118 11.2208 11.8038 11.1104 11.7974 11.0016C11.791 10.8928 11.7878 10.792 11.7878 10.6992V6.47998H12.9254Z" fill="white"/>
</svg>
