<svg width="24" height="24" viewBox="0 0 24 24" fill="none" xmlns="http://www.w3.org/2000/svg">
<path d="M14.6053 12.9473C15.0994 12.9473 15.5169 13.367 15.3032 13.8125C15.2064 14.0142 15.0755 14.2002 14.9142 14.3615C14.5391 14.7366 14.0304 14.9473 13.5 14.9473C12.9696 14.9473 12.4609 14.7366 12.0858 14.3615C11.9245 14.2002 11.7936 14.0142 11.6968 13.8125C11.4831 13.367 11.9006 12.9473 12.3947 12.9473H14.6053Z" fill="#333333"/>
<path fill-rule="evenodd" clip-rule="evenodd" d="M6.95274 22.2661L8.96953 21.532C9.92725 21.8363 10.946 22 12 22C17.5228 22 22 17.5228 22 12C22 6.47715 17.5228 2 12 2C6.47715 2 2 6.47715 2 12C2 14.1999 2.71228 16.2369 3.9168 17.8883L3.63566 19.4827C3.30148 21.378 5.14429 22.9243 6.95274 22.2661ZM5.60528 19.83C5.53844 20.2091 5.907 20.5183 6.26869 20.3867L8.71008 19.4981C8.7853 19.4707 8.84848 19.4285 8.89874 19.3767C9.85245 19.7781 10.9003 20 12 20C16.4183 20 20 16.4183 20 12C20 7.58172 16.4183 4 12 4C7.58172 4 4 7.58172 4 12C4 14.0528 4.77314 15.9249 6.04412 17.3412L5.60528 19.83Z" fill="#333333"/>
<path d="M12.5 9.5C12.5 10.3284 11.9404 11 11.25 11C10.5596 11 10 10.3284 10 9.5C10 8.67157 10.5596 8 11.25 8C11.9404 8 12.5 8.67157 12.5 9.5Z" fill="#333333"/>
<path d="M17.2002 9.5C17.2002 10.3284 16.6406 11 15.9502 11C15.2598 11 14.7002 10.3284 14.7002 9.5C14.7002 8.67157 15.2598 8 15.9502 8C16.6406 8 17.2002 8.67157 17.2002 9.5Z" fill="#333333"/>
</svg>
