<svg width="20" height="20" viewBox="0 0 20 20" fill="none" xmlns="http://www.w3.org/2000/svg">
<circle cx="10" cy="10" r="8" fill="#FF6666"/>
<path d="M9.72308 10.8608C9.77748 10.9632 9.82708 11.0704 9.87188 11.1824C9.91988 11.2912 9.96628 11.4016 10.0111 11.5136C10.0559 11.3984 10.1023 11.2848 10.1503 11.1728C10.1983 11.0608 10.2495 10.9536 10.3039 10.8512L12.3583 7.00645C12.3839 6.95845 12.4095 6.92005 12.4351 6.89125C12.4639 6.86245 12.4943 6.84165 12.5263 6.82885C12.5615 6.81605 12.5999 6.80805 12.6415 6.80485C12.6831 6.80165 12.7327 6.80005 12.7903 6.80005H13.7647V13.7408H12.6271V9.25765C12.6271 9.17445 12.6287 9.08325 12.6319 8.98405C12.6383 8.88485 12.6463 8.78405 12.6559 8.68165L10.5583 12.6176C10.5103 12.7072 10.4479 12.7776 10.3711 12.8288C10.2943 12.8768 10.2047 12.9008 10.1023 12.9008H9.92468C9.82228 12.9008 9.73268 12.8768 9.65588 12.8288C9.57908 12.7776 9.51668 12.7072 9.46868 12.6176L7.34228 8.66725C7.35508 8.77285 7.36308 8.87685 7.36628 8.97925C7.37268 9.07845 7.37588 9.17125 7.37588 9.25765V13.7408H6.23828V6.80005H7.21268C7.27028 6.80005 7.31988 6.80165 7.36148 6.80485C7.40308 6.80805 7.43988 6.81605 7.47188 6.82885C7.50708 6.84165 7.53908 6.86245 7.56788 6.89125C7.59668 6.92005 7.62388 6.95845 7.64948 7.00645L9.72308 10.8608Z" fill="white"/>
</svg>
