<svg width="20" height="20" viewBox="0 0 20 20" fill="none" xmlns="http://www.w3.org/2000/svg">
<g clip-path="url(#clip0_5056_112)">
<circle cx="10" cy="10" r="8" fill="#6979F8"/>
<path d="M14.6537 6.99292L12.6332 13.4999H11.5397L10.1177 9.05392C10.0787 8.94592 10.0427 8.81392 10.0097 8.65792C9.99166 8.73292 9.97366 8.80342 9.95566 8.86942C9.93766 8.93542 9.91816 8.99692 9.89716 9.05392L8.46166 13.4999H7.36366L5.34766 6.99292H6.36016C6.46516 6.99292 6.55216 7.01842 6.62116 7.06942C6.69316 7.11742 6.74116 7.18342 6.76516 7.26742L7.87216 11.1599C7.89616 11.2559 7.91866 11.3609 7.93966 11.4749C7.96366 11.5859 7.98766 11.7029 8.01166 11.8259C8.03566 11.6999 8.06116 11.5814 8.08816 11.4704C8.11816 11.3594 8.14966 11.2559 8.18266 11.1599L9.46066 7.26742C9.48466 7.19842 9.53116 7.13542 9.60016 7.07842C9.67216 7.02142 9.75916 6.99292 9.86116 6.99292H10.2167C10.3217 6.99292 10.4072 7.01842 10.4732 7.06942C10.5392 7.12042 10.5887 7.18642 10.6217 7.26742L11.8952 11.1599C11.9582 11.3459 12.0152 11.5604 12.0662 11.8034C12.1052 11.5664 12.1487 11.3519 12.1967 11.1599L13.3037 7.26742C13.3217 7.19242 13.3667 7.12792 13.4387 7.07392C13.5137 7.01992 13.6022 6.99292 13.7042 6.99292H14.6537Z" fill="white"/>
</g>
<defs>
<clipPath id="clip0_5056_112">
<rect width="16" height="16" fill="white" transform="translate(2 2)"/>
</clipPath>
</defs>
</svg>
