<svg width="20" height="20" viewBox="0 0 20 20" fill="none" xmlns="http://www.w3.org/2000/svg">
<path d="M4.5 3.75H10.5C10.9142 3.75 11.25 4.08579 11.25 4.5V16.25H4.5C4.08579 16.25 3.75 15.9142 3.75 15.5V4.5C3.75 4.08579 4.08579 3.75 4.5 3.75Z" stroke="black" stroke-width="1.5"/>
<rect x="6" y="6" width="1" height="1" rx="0.355556" fill="black"/>
<rect x="6" y="8" width="1" height="1" rx="0.355556" fill="black"/>
<rect x="8" y="6" width="1" height="1" rx="0.355556" fill="black"/>
<rect x="8" y="8" width="1" height="1" rx="0.355556" fill="black"/>
<path d="M12 6.75H15.5C15.9142 6.75 16.25 7.08579 16.25 7.5V15.5C16.25 15.9142 15.9142 16.25 15.5 16.25H11.25V7.5C11.25 7.08579 11.5858 6.75 12 6.75Z" stroke="black" stroke-width="1.5"/>
</svg>
