<svg width="24" height="24" viewBox="0 0 24 24" fill="none" xmlns="http://www.w3.org/2000/svg">
<path fill-rule="evenodd" clip-rule="evenodd" d="M3.5 6H5V15.5C5 15.7761 5.22386 16 5.5 16H20.5C20.7761 16 21 15.7761 21 15.5V14.5C21 14.2239 20.7761 14 20.5 14H7V4.5C7 4.22386 6.77614 4 6.5 4H3.5C3.22386 4 3 4.22386 3 4.5V5.5C3 5.77614 3.22386 6 3.5 6ZM7 17C6.44772 17 6 17.4477 6 18V19C6 19.5523 6.44772 20 7 20H8C8.55228 20 9 19.5523 9 19V18C9 17.4477 8.55228 17 8 17H7ZM17 18C17 17.4477 17.4477 17 18 17H19C19.5523 17 20 17.4477 20 18V19C20 19.5523 19.5523 20 19 20H18C17.4477 20 17 19.5523 17 19V18ZM8.5 5C8.22386 5 8 5.22386 8 5.5V6.5C8 6.77614 8.22386 7 8.5 7H17.5C17.7761 7 18 6.77614 18 6.5V5.5C18 5.22386 17.7761 5 17.5 5H8.5ZM11 8.5C11 8.22386 11.2239 8 11.5 8H20.5C20.7761 8 21 8.22386 21 8.5V9.5C21 9.77614 20.7761 10 20.5 10H11.5C11.2239 10 11 9.77614 11 9.5V8.5ZM8.5 11C8.22386 11 8 11.2239 8 11.5V12.5C8 12.7761 8.22386 13 8.5 13H17.5C17.7761 13 18 12.7761 18 12.5V11.5C18 11.2239 17.7761 11 17.5 11H8.5Z" fill="#333333"/>
</svg>
