<svg width="20" height="20" viewBox="0 0 20 20" fill="none" xmlns="http://www.w3.org/2000/svg">
<path fill-rule="evenodd" clip-rule="evenodd" d="M10.3945 6C12.1079 6 12.978 6.82715 12.9727 7.99805C12.978 8.91113 12.3765 9.48584 11.5762 9.66309V9.73828C12.4517 9.78125 13.2788 10.4795 13.2842 11.6289C13.2788 12.8643 12.355 13.7773 10.5986 13.7773H7.30078V6H10.3945ZM8.91211 12.4453H10.2764C11.2109 12.4507 11.6138 12.064 11.6084 11.4785C11.6138 10.8232 11.1143 10.3613 10.3193 10.3613H8.91211V12.4453ZM8.91211 9.25488H10.1582C10.835 9.26025 11.3452 8.87891 11.3398 8.25586C11.3452 7.69189 10.9263 7.31055 10.1904 7.31055H8.91211V9.25488Z" fill="black"/>
<path fill-rule="evenodd" clip-rule="evenodd" d="M10 2C14.4183 2 18 5.58172 18 10C18 14.4183 14.4183 18 10 18C5.58172 18 2 14.4183 2 10C2 5.58172 5.58172 2 10 2ZM10 3.5C6.41015 3.5 3.5 6.41015 3.5 10C3.5 13.5899 6.41015 16.5 10 16.5C13.5899 16.5 16.5 13.5899 16.5 10C16.5 6.41015 13.5899 3.5 10 3.5Z" fill="black"/>
</svg>
