<svg width="20" height="20" viewBox="0 0 20 20" fill="none" xmlns="http://www.w3.org/2000/svg">
<path d="M6.75 8C6.88807 8 7 8.11193 7 8.25V8.75C7 8.88807 6.88807 9 6.75 9H6.25C6.11193 9 6 8.88807 6 8.75V8.25C6 8.11193 6.11193 8 6.25 8H6.75Z" fill="black"/>
<path d="M8.75 8C8.88807 8 9 8.11193 9 8.25V8.75C9 8.88807 8.88807 9 8.75 9H8.25C8.11193 9 8 8.88807 8 8.75V8.25C8 8.11193 8.11193 8 8.25 8H8.75Z" fill="black"/>
<path d="M6.75 6C6.88807 6 7 6.11193 7 6.25V6.75C7 6.88807 6.88807 7 6.75 7H6.25C6.11193 7 6 6.88807 6 6.75V6.25C6 6.11193 6.11193 6 6.25 6H6.75Z" fill="black"/>
<path d="M8.75 6C8.88807 6 9 6.11193 9 6.25V6.75C9 6.88807 8.88807 7 8.75 7H8.25C8.11193 7 8 6.88807 8 6.75V6.25C8 6.11193 8.11193 6 8.25 6H8.75Z" fill="black"/>
<path fill-rule="evenodd" clip-rule="evenodd" d="M10.5 3C11.3284 3 12 3.67157 12 4.5V6H15.5C16.3284 6 17 6.67157 17 7.5V15.5C17 16.3284 16.3284 17 15.5 17H4.5C3.67157 17 3 16.3284 3 15.5V4.5C3 3.67157 3.67157 3 4.5 3H10.5ZM4.5 15.5H10.5V4.5H4.5V15.5ZM12 15.5H15.5V7.5H12V15.5Z" fill="black"/>
</svg>
