<svg width="20" height="20" viewBox="0 0 20 20" fill="none" xmlns="http://www.w3.org/2000/svg">
<path fill-rule="evenodd" clip-rule="evenodd" d="M14 3.5H6C4.61929 3.5 3.5 4.61929 3.5 6V14C3.5 15.3807 4.61929 16.5 6 16.5H14C15.3807 16.5 16.5 15.3807 16.5 14V6C16.5 4.61929 15.3807 3.5 14 3.5ZM6 2C3.79086 2 2 3.79086 2 6V14C2 16.2091 3.79086 18 6 18H14C16.2091 18 18 16.2091 18 14V6C18 3.79086 16.2091 2 14 2H6Z" fill="#333333"/>
<path d="M5.90909 6C5.40701 6 5 6.35817 5 6.8V13.2C5 13.6418 5.40701 14 5.90909 14H6.81818V6H5.90909Z" fill="#333333"/>
<path d="M11.3636 6H9.54545V14H11.3636V6Z" fill="#333333"/>
<path d="M13.1818 6H12.2727V14H13.1818V6Z" fill="#333333"/>
<path d="M7.72727 6H8.63636V14H7.72727V6Z" fill="#333333"/>
<path d="M15 6.8C15 6.35817 14.593 6 14.0909 6V14C14.593 14 15 13.6418 15 13.2V6.8Z" fill="#333333"/>
</svg>
