<svg width="24" height="24" viewBox="0 0 24 24" fill="none" xmlns="http://www.w3.org/2000/svg">
<path fill-rule="evenodd" clip-rule="evenodd" d="M8.21133 20.5981C9.36613 21.2648 10.8344 21.0144 11.931 20.0889C12.2153 19.8489 12.1733 19.4214 11.8863 19.2557L7.5364 16.7443C7.24938 16.5786 6.85815 16.756 6.79251 17.1222C6.53937 18.5347 7.05667 19.9314 8.21133 20.5981Z" fill="#333333"/>
<path fill-rule="evenodd" clip-rule="evenodd" d="M14.5591 3.09368C15.1453 2.86045 15.6969 3.10426 16.05 3.3081C16.4031 3.51196 16.8899 3.86775 16.9811 4.49185C17.0251 4.79312 16.9562 5.04476 16.891 5.21024C16.861 5.28632 16.8255 5.35871 16.7934 5.41925C18.5169 7.15207 19.1427 9.76911 17.906 11.9111L17.0507 13.3926C16.6172 14.1434 16.5618 15.1038 16.974 16.0513L16.9765 16.057L16.9765 16.057C17.2234 16.6345 17.2216 17.3041 16.8901 17.8784C16.2572 18.9745 14.8764 19.1105 13.9242 18.5608L3.90367 12.7754C2.95152 12.2257 2.37899 10.9619 3.01183 9.86576C3.34143 9.29488 3.91818 8.95566 4.53802 8.88125L4.54415 8.88051L4.54415 8.88053C5.57993 8.76266 6.38336 8.23365 6.81629 7.4838L7.67164 6.00229C8.90831 3.86031 11.4872 3.0934 13.8501 3.71984C13.8864 3.66181 13.9313 3.59496 13.9822 3.53103C14.0928 3.39185 14.2762 3.20625 14.5591 3.09368ZM14.4522 6.07585L13.9168 5.85062C12.0673 5.0726 10.1772 5.66255 9.40369 7.00229L8.54834 8.4838C7.76766 9.83597 6.37362 10.684 4.77466 10.8672C4.76628 10.8683 4.75931 10.8697 4.75361 10.8712C4.75441 10.874 4.75538 10.8771 4.75654 10.8805C4.77162 10.9248 4.81495 10.9921 4.90367 11.0433L14.9242 16.8287C15.0131 16.88 15.093 16.8839 15.1389 16.8748C15.1422 16.8741 15.1452 16.8735 15.1479 16.8728C15.1459 16.8654 15.1429 16.8562 15.1383 16.8452C14.5001 15.3752 14.5384 13.744 15.3186 12.3926L16.174 10.9111C16.9474 9.57149 16.5128 7.63918 14.9148 6.4268L14.4522 6.07585ZM15.1701 16.8642C15.1702 16.8642 15.1695 16.8648 15.1678 16.8658C15.1691 16.8646 15.17 16.8641 15.1701 16.8642ZM4.75014 10.8482C4.75024 10.8483 4.75026 10.8493 4.7499 10.8511C4.74985 10.8491 4.75003 10.8482 4.75014 10.8482Z" fill="#333333"/>
</svg>
