<svg width="20" height="20" viewBox="0 0 20 20" fill="none" xmlns="http://www.w3.org/2000/svg">
<path d="M11.5 3.75C12.1904 3.75 12.75 4.30964 12.75 5V6H16C17.1046 6 18 6.89543 18 8V14C18 15.1046 17.1046 16 16 16H4C2.89543 16 2 15.1046 2 14V8C2 6.89543 2.89543 6 4 6H7.25V5C7.25 4.30964 7.80964 3.75 8.5 3.75H11.5ZM4 7.5C3.72386 7.5 3.5 7.72386 3.5 8V14C3.5 14.2761 3.72386 14.5 4 14.5H16C16.2761 14.5 16.5 14.2761 16.5 14V8C16.5 7.72386 16.2761 7.5 16 7.5H4ZM11.6875 9C11.8601 9 12 9.13991 12 9.3125V10.1875C12 10.3601 11.8601 10.5 11.6875 10.5H8.3125C8.13991 10.5 8 10.3601 8 10.1875V9.3125C8 9.13991 8.13991 9 8.3125 9H11.6875ZM8.75 6H11.25V5.25H8.75V6Z" fill="#333333"/>
</svg>
