<svg width="24" height="24" viewBox="0 0 24 24" fill="none" xmlns="http://www.w3.org/2000/svg">
<circle cx="12" cy="12" r="10" fill="#EAEAEA"/>
<path fill-rule="evenodd" clip-rule="evenodd" d="M13.5919 10.4277C14.1466 9.96916 14.5 9.27585 14.5 8.5C14.5 7.11929 13.3807 6 12 6C10.6193 6 9.5 7.11929 9.5 8.5C9.5 9.27585 9.85342 9.96916 10.4081 10.4277C8.42714 11.098 7 12.985 7 15.208V16.6003C7 17.1893 7.4775 17.6668 8.06653 17.6668H15.9335C16.5225 17.6668 17 17.1893 17 16.6003V15.208C17 12.985 15.5729 11.098 13.5919 10.4277ZM14.4999 12.6666H12.8332V13.5H14.4999V12.6666Z" fill="#999999"/>
</svg>
