<svg width="20" height="20" viewBox="0 0 20 20" fill="none" xmlns="http://www.w3.org/2000/svg">
<path d="M9.01855 12.8584C9.67072 12.4908 10.4795 12.5167 11.1094 12.9365L13.7227 14.6787C14.0549 14.9002 14.5 14.662 14.5 14.2627V4.5H5.5V14.2627C5.5 14.662 5.94507 14.9002 6.27734 14.6787L8.89062 12.9365L9.01855 12.8584ZM16 14.2627C16 15.8101 14.3294 16.7529 13.0166 16.0049L12.8906 15.9268L10.2773 14.1846C10.1095 14.0727 9.89053 14.0727 9.72266 14.1846L7.10938 15.9268C5.78027 16.8128 4 15.8601 4 14.2627V4.5C4 3.67157 4.67157 3 5.5 3H14.5C15.3284 3 16 3.67157 16 4.5V14.2627Z" fill="black"/>
</svg>
