<svg width="24" height="24" viewBox="0 0 24 24" fill="none" xmlns="http://www.w3.org/2000/svg">
<path d="M8.15015 5.33674L2.27429 11.3384C1.90857 11.7119 1.90857 12.2877 2.27429 12.6613L8.15015 18.6629C8.33537 18.8521 8.63596 18.8641 8.83568 18.6903L9.60005 18.025C9.81704 17.8362 9.83032 17.5036 9.62907 17.2981L5.42107 13H21.5C21.7761 13 22 12.7761 22 12.5V11.5C22 11.2239 21.7761 11 21.5 11H5.42072L9.62907 6.70155C9.83032 6.496 9.81704 6.16345 9.60005 5.9746L8.83568 5.30936C8.63596 5.13555 8.33537 5.14755 8.15015 5.33674Z" fill="#333333"/>
</svg>
