<svg width="30" height="30" viewBox="0 0 30 30" fill="none" xmlns="http://www.w3.org/2000/svg">
<circle cx="15" cy="15" r="15" fill="#EAF5FF"/>
<path fill-rule="evenodd" clip-rule="evenodd" d="M20.9496 11.4C21.6952 11.4 22.2996 10.7955 22.2996 10.05C22.2996 9.30437 21.6952 8.69995 20.9496 8.69995C20.204 8.69995 19.5996 9.30437 19.5996 10.05C19.5996 10.7955 20.204 11.4 20.9496 11.4ZM18.7446 10.5H12.0996C11.2712 10.5 10.5996 11.1715 10.5996 12V18.9C10.5996 19.7284 11.2712 20.4 12.0996 20.4H17.3996C19.6087 20.4 21.3996 18.6091 21.3996 16.3999V12.2549C21.2542 12.2845 21.1037 12.3 20.9496 12.3C20.6873 12.3 20.4355 12.2551 20.2014 12.1726L18.7896 14.055C18.5659 14.3532 18.1428 14.4136 17.8446 14.19C17.5735 13.9866 17.4989 13.6185 17.6556 13.3291L17.7096 13.245L19.1217 11.3622C18.9396 11.1091 18.8089 10.8166 18.7446 10.5ZM12.3996 14.55H16.8996V15.45H12.3996V14.55ZM12.3996 16.35H15.0996V17.25H12.3996V16.35ZM20.4996 16.8H17.7996V19.5C19.2908 19.5 20.4996 18.2911 20.4996 16.8Z" fill="#84C2FC"/>
</svg>
