<svg width="20" height="20" viewBox="0 0 20 20" fill="none" xmlns="http://www.w3.org/2000/svg">
<path d="M17 4C17.5523 4 18 4.44772 18 5V15C18 15.5523 17.5523 16 17 16H3L2.89746 15.9951C2.42703 15.9472 2.05278 15.573 2.00488 15.1025L2 15V5C2 4.48232 2.39333 4.05621 2.89746 4.00488L3 4H17ZM3.5 14.5H9.25V7H3.5V14.5ZM10.75 14.5H16.5V7H10.75V14.5ZM7.5 10C7.63807 10 7.75 10.1119 7.75 10.25V10.75C7.75 10.8881 7.63807 11 7.5 11H5C4.86193 11 4.75 10.8881 4.75 10.75V10.25C4.75 10.1119 4.86193 10 5 10H7.5ZM7.5 8C7.63807 8 7.75 8.11193 7.75 8.25V8.75C7.75 8.88807 7.63807 9 7.5 9H5C4.86193 9 4.75 8.88807 4.75 8.75V8.25C4.75 8.11193 4.86193 8 5 8H7.5ZM15 8C15.1381 8 15.25 8.11193 15.25 8.25V8.75C15.25 8.88807 15.1381 9 15 9H12.5C12.3619 9 12.25 8.88807 12.25 8.75V8.25C12.25 8.11193 12.3619 8 12.5 8H15Z" fill="black"/>
</svg>
