<svg width="20" height="20" viewBox="0 0 20 20" fill="none" xmlns="http://www.w3.org/2000/svg">
<path d="M11.1689 10.25C11.4451 10.25 11.6689 10.4739 11.6689 10.75V11.25C11.6689 11.5261 11.4451 11.75 11.1689 11.75H8.83594C8.5598 11.75 8.33594 11.5261 8.33594 11.25V10.75C8.33594 10.4739 8.5598 10.25 8.83594 10.25H11.1689Z" fill="#333333"/>
<path fill-rule="evenodd" clip-rule="evenodd" d="M17.4971 2.75C18.3714 2.75 19.0809 3.45871 19.0811 4.33301V6.83301C19.0811 7.62125 18.5042 8.27319 17.75 8.39453V15.6152C17.75 16.2455 17.4326 16.8032 16.9531 17.1826C16.4779 17.5586 15.8635 17.75 15.25 17.75H4.75C4.13648 17.75 3.52208 17.5586 3.04688 17.1826C2.56741 16.8032 2.25 16.2455 2.25 15.6152V8.39551C1.49323 8.27649 0.914062 7.62318 0.914062 6.83301V4.33301C0.914238 3.45882 1.62288 2.75018 2.49707 2.75H17.4971ZM3.75 15.6152C3.75 15.7192 3.8011 15.8661 3.97754 16.0059C4.15872 16.1492 4.43526 16.25 4.75 16.25H15.25C15.5647 16.25 15.8413 16.1492 16.0225 16.0059C16.1989 15.8661 16.25 15.7192 16.25 15.6152V8.41699H3.75V15.6152ZM2.49707 4.25C2.4513 4.25018 2.41424 4.28724 2.41406 4.33301V6.83301C2.41406 6.87892 2.4512 6.91682 2.49707 6.91699H17.4971C17.5431 6.91699 17.5811 6.87903 17.5811 6.83301V4.33301C17.5809 4.28713 17.543 4.25 17.4971 4.25H2.49707Z" fill="#333333"/>
</svg>
