<svg width="24" height="24" viewBox="0 0 24 24" fill="none" xmlns="http://www.w3.org/2000/svg">
<path opacity="0.3" fill-rule="evenodd" clip-rule="evenodd" d="M12.5 7.00024C9.46243 7.00024 7 9.46268 7 12.5002C7 15.5378 9.46243 18.0002 12.5 18.0002H15C15 18.0002 15 18.0002 15 18.0002C15 18.0002 16.1058 20 18.1753 20C19.0832 20 18.9683 19.9038 18.6378 19.627C18.2579 19.3089 17.5931 18.7522 17.8683 17.8287C20.2439 17.2204 22 15.0654 22 12.5002C22 9.46268 19.5376 7.00024 16.5 7.00024H12.5Z" fill="#3299FE"/>
<rect x="2" y="4.00024" width="16" height="12" rx="6" fill="#3299FE"/>
<path fill-rule="evenodd" clip-rule="evenodd" d="M7 10.0002C7 10.5525 6.55228 11.0002 6 11.0002C5.44772 11.0002 5 10.5525 5 10.0002C5 9.44796 5.44772 9.00024 6 9.00024C6.55228 9.00024 7 9.44796 7 10.0002ZM11 10.0002C11 10.5525 10.5523 11.0002 10 11.0002C9.44772 11.0002 9 10.5525 9 10.0002C9 9.44796 9.44772 9.00024 10 9.00024C10.5523 9.00024 11 9.44796 11 10.0002ZM14 11.0002C14.5523 11.0002 15 10.5525 15 10.0002C15 9.44796 14.5523 9.00024 14 9.00024C13.4477 9.00024 13 9.44796 13 10.0002C13 10.5525 13.4477 11.0002 14 11.0002Z" fill="white"/>
</svg>
