<svg width="36" height="36" viewBox="0 0 36 36" fill="none" xmlns="http://www.w3.org/2000/svg">
<path fill-rule="evenodd" clip-rule="evenodd" d="M18 33C26.2843 33 33 26.2843 33 18C33 9.71573 26.2843 3 18 3C9.71573 3 3 9.71573 3 18C3 26.2843 9.71573 33 18 33ZM25.0061 14.4299C25.0842 14.508 25.0842 14.6347 25.0061 14.7128L16.1976 23.5213C16.1195 23.5994 15.9929 23.5994 15.9148 23.5213L15.2928 22.8994C15.2752 22.8902 15.2587 22.8782 15.2439 22.8634L10.323 17.9425C10.2449 17.8644 10.2449 17.7378 10.323 17.6597L11.8584 16.1242C11.9366 16.0461 12.0632 16.0461 12.1413 16.1242L16.0497 20.0327L23.1879 12.8945C23.266 12.8164 23.3926 12.8164 23.4707 12.8945L25.0061 14.4299Z" fill="#4DC9AA"/>
</svg>
