<svg width="24" height="24" viewBox="0 0 24 24" fill="none" xmlns="http://www.w3.org/2000/svg">
<rect x="16" y="8" width="3" height="2" rx="1" fill="#3299FE"/>
<path fill-rule="evenodd" clip-rule="evenodd" d="M18 5H17.6153L16.8439 3.07152C16.4642 2.12238 15.545 1.5 14.5227 1.5H9.47676C8.4545 1.5 7.53523 2.12238 7.15557 3.07152L6.38418 5H6C3.79086 5 2 6.79086 2 9V17C2 19.2091 3.79086 21 6 21H18C20.2091 21 22 19.2091 22 17V9C22 6.79086 20.2091 5 18 5ZM15.4512 3.62861L15.9997 5H7.99973L8.54829 3.62861C8.56619 3.58386 8.58708 3.54092 8.6107 3.5C8.78741 3.19372 9.11606 3 9.47676 3H14.5227C14.8834 3 15.2121 3.19372 15.3888 3.5C15.4124 3.54092 15.4333 3.58386 15.4512 3.62861ZM3.5 9C3.5 7.61929 4.61929 6.5 6 6.5H18C19.3807 6.5 20.5 7.61929 20.5 9V17C20.5 18.3807 19.3807 19.5 18 19.5H6C4.61929 19.5 3.5 18.3807 3.5 17V9ZM9.75 13C9.75 11.7574 10.7574 10.75 12 10.75C13.2426 10.75 14.25 11.7574 14.25 13C14.25 14.2426 13.2426 15.25 12 15.25C10.7574 15.25 9.75 14.2426 9.75 13ZM12 9.25C9.92893 9.25 8.25 10.9289 8.25 13C8.25 15.0711 9.92893 16.75 12 16.75C14.0711 16.75 15.75 15.0711 15.75 13C15.75 10.9289 14.0711 9.25 12 9.25Z" fill="#333333"/>
</svg>
