<svg width="20" height="20" viewBox="0 0 20 20" fill="none" xmlns="http://www.w3.org/2000/svg">
<path fill-rule="evenodd" clip-rule="evenodd" d="M14 3.5H6C4.61929 3.5 3.5 4.61929 3.5 6V14C3.5 15.3807 4.61929 16.5 6 16.5H14C15.3807 16.5 16.5 15.3807 16.5 14V6C16.5 4.61929 15.3807 3.5 14 3.5ZM6 2C3.79086 2 2 3.79086 2 6V14C2 16.2091 3.79086 18 6 18H14C16.2091 18 18 16.2091 18 14V6C18 3.79086 16.2091 2 14 2H6Z" fill="#333333"/>
<path fill-rule="evenodd" clip-rule="evenodd" d="M10.3904 12.512C10.1903 12.7622 9.80973 12.7622 9.60957 12.512L6.64988 8.81235C6.38797 8.48497 6.62106 8 7.04031 8L12.9597 8C13.3789 8 13.612 8.48497 13.3501 8.81235L10.3904 12.512Z" fill="#333333"/>
</svg>
