<svg width="20" height="20" viewBox="0 0 20 20" fill="none" xmlns="http://www.w3.org/2000/svg">
<g id="shopl/ic-checklist">
<path id="Union" fill-rule="evenodd" clip-rule="evenodd" d="M17 10C17 13.866 13.866 17 10 17C6.13401 17 3 13.866 3 10C3 6.13401 6.13401 3 10 3C13.866 3 17 6.13401 17 10ZM18.5 10C18.5 14.6944 14.6944 18.5 10 18.5C5.30558 18.5 1.5 14.6944 1.5 10C1.5 5.30558 5.30558 1.5 10 1.5C14.6944 1.5 18.5 5.30558 18.5 10ZM14.3144 8.49389C14.5872 8.18216 14.5556 7.70834 14.2439 7.43558C13.9322 7.16282 13.4583 7.1944 13.1856 7.50613L9.37501 11.8611L7.31444 9.50613C7.04168 9.1944 6.56786 9.16282 6.25613 9.43558C5.9444 9.70834 5.91282 10.1822 6.18558 10.4939L8.81058 13.4939C8.95299 13.6567 9.15874 13.75 9.37501 13.75C9.59128 13.75 9.79703 13.6567 9.93944 13.4939L14.3144 8.49389Z" fill="#333333"/>
</g>
</svg>
