<svg width="20" height="20" viewBox="0 0 20 20" fill="none" xmlns="http://www.w3.org/2000/svg">
<path fill-rule="evenodd" clip-rule="evenodd" d="M4.5 4C3.67157 4 3 4.67157 3 5.5C3 6.32843 3.67157 7 4.5 7C5.32843 7 6 6.32843 6 5.5C6 4.67157 5.32843 4 4.5 4ZM8 4C7.72386 4 7.5 4.22386 7.5 4.5V6.5C7.5 6.77614 7.72386 7 8 7H14.5C14.7761 7 15 6.77614 15 6.5V4.5C15 4.22386 14.7761 4 14.5 4H8ZM7.5 9C7.5 8.72386 7.72386 8.5 8 8.5H13.5C13.7761 8.5 14 8.72386 14 9V11C14 11.2761 13.7761 11.5 13.5 11.5H8C7.72386 11.5 7.5 11.2761 7.5 11V9ZM4.5 8.5C3.67157 8.5 3 9.17157 3 10C3 10.8284 3.67157 11.5 4.5 11.5C5.32843 11.5 6 10.8284 6 10C6 9.17157 5.32843 8.5 4.5 8.5ZM7.5 13.5C7.5 13.2239 7.72386 13 8 13H16.5C16.7761 13 17 13.2239 17 13.5V15.5C17 15.7761 16.7761 16 16.5 16H8C7.72386 16 7.5 15.7761 7.5 15.5V13.5ZM4.5 13C3.67157 13 3 13.6716 3 14.5C3 15.3284 3.67157 16 4.5 16C5.32843 16 6 15.3284 6 14.5C6 13.6716 5.32843 13 4.5 13Z" fill="#333333"/>
</svg>
