<svg width="20" height="20" viewBox="0 0 20 20" fill="none" xmlns="http://www.w3.org/2000/svg">
<path fill-rule="evenodd" clip-rule="evenodd" d="M4.75 6.5C5.57843 6.5 6.25 5.82843 6.25 5C6.25 4.17157 5.57843 3.5 4.75 3.5C3.92157 3.5 3.25 4.17157 3.25 5C3.25 5.82843 3.92157 6.5 4.75 6.5ZM4.75 11.5C5.57843 11.5 6.25 10.8284 6.25 10C6.25 9.17157 5.57843 8.5 4.75 8.5C3.92157 8.5 3.25 9.17157 3.25 10C3.25 10.8284 3.92157 11.5 4.75 11.5ZM6.25 15C6.25 15.8284 5.57843 16.5 4.75 16.5C3.92157 16.5 3.25 15.8284 3.25 15C3.25 14.1716 3.92157 13.5 4.75 13.5C5.57843 13.5 6.25 14.1716 6.25 15ZM8.25 4C7.97386 4 7.75 4.22386 7.75 4.5V5.5C7.75 5.77614 7.97386 6 8.25 6H16.25C16.5261 6 16.75 5.77614 16.75 5.5V4.5C16.75 4.22386 16.5261 4 16.25 4H8.25ZM7.75 9.5C7.75 9.22386 7.97386 9 8.25 9H16.25C16.5261 9 16.75 9.22386 16.75 9.5V10.5C16.75 10.7761 16.5261 11 16.25 11H8.25C7.97386 11 7.75 10.7761 7.75 10.5V9.5ZM8.25 14C7.97386 14 7.75 14.2239 7.75 14.5V15.5C7.75 15.7761 7.97386 16 8.25 16H16.25C16.5261 16 16.75 15.7761 16.75 15.5V14.5C16.75 14.2239 16.5261 14 16.25 14H8.25Z" fill="#333333"/>
</svg>
