<svg width="20" height="20" viewBox="0 0 20 20" fill="none" xmlns="http://www.w3.org/2000/svg">
<path fill-rule="evenodd" clip-rule="evenodd" d="M10 4C10.4142 4 10.75 4.33579 10.75 4.75V6.2627C12.9096 6.33215 14.4439 6.70424 15.4834 7.27051C16.6633 7.91339 17.2499 8.84153 17.25 9.82031C17.25 10.3204 17.0782 10.7948 16.7988 11.1963C16.7982 12.1754 16.7853 13.4525 16.5166 14.5703C16.2309 15.7583 15.5869 17.0315 14.1035 17.3945C12.9746 17.6708 11.4695 17.7998 10 17.7998C8.53052 17.7998 7.0254 17.6708 5.89648 17.3945C4.41307 17.0315 3.76907 15.7583 3.4834 14.5703C3.21467 13.4525 3.20086 12.1754 3.2002 11.1963C2.92106 10.7949 2.75 10.3202 2.75 9.82031C2.75008 8.84153 3.33673 7.91339 4.5166 7.27051C5.55614 6.70424 7.09042 6.33215 9.25 6.2627V4.75C9.25 4.33579 9.58579 4 10 4ZM6.6875 12.0518C6.06201 12.3918 5.40867 12.452 4.81738 12.3105C4.8416 12.9632 4.89943 13.6155 5.03906 14.1963C5.27518 15.1781 5.6742 15.6923 6.27734 15.8398C7.23538 16.0742 8.60003 16.2002 10 16.2002C11.4 16.2002 12.7646 16.0742 13.7227 15.8398C14.3258 15.6923 14.7248 15.1781 14.9609 14.1963C15.1006 13.6155 15.1574 12.9632 15.1816 12.3105C14.6029 12.4489 13.9648 12.3946 13.3516 12.0732C12.8002 12.5369 12.1623 12.75 11.5312 12.75C10.9788 12.75 10.4512 12.5841 10.0078 12.3115C9.59573 12.5774 9.10698 12.75 8.5625 12.75C7.92467 12.75 7.28737 12.5177 6.6875 12.0518ZM10 7.75C7.55979 7.75 6.07734 8.12805 5.2334 8.58789C4.41376 9.03457 4.25007 9.51714 4.25 9.82031C4.25 10.1337 4.4858 10.5411 4.9043 10.7559C5.26971 10.9433 5.75322 10.9677 6.2627 10.5322L6.79688 10.0762L7.28711 10.5791C7.80521 11.1104 8.24659 11.25 8.5625 11.25C8.88665 11.25 9.20165 11.1029 9.46289 10.835L10 10.2842L10.5371 10.835C10.7755 11.0794 11.1461 11.25 11.5312 11.25C11.8902 11.25 12.2981 11.103 12.6582 10.6416L13.1406 10.0225L13.7373 10.5322C14.2468 10.9677 14.7303 10.9433 15.0957 10.7559C15.5142 10.5411 15.75 10.1337 15.75 9.82031C15.7499 9.51714 15.5862 9.03457 14.7666 8.58789C13.9227 8.12805 12.4402 7.75 10 7.75Z" fill="#333333"/>
<path d="M10 1.5C10.4141 1.5 10.7498 2.46457 10.75 2.83301C10.75 3.2012 10.4142 3.5 10 3.5C9.58579 3.5 9.25 3.2012 9.25 2.83301C9.2502 2.46457 9.58591 1.5 10 1.5Z" fill="#333333"/>
</svg>
