<svg width="20" height="20" viewBox="0 0 20 20" fill="none" xmlns="http://www.w3.org/2000/svg">
<path fill-rule="evenodd" clip-rule="evenodd" d="M10 4.75C9.0335 4.75 8.25 5.5335 8.25 6.5C8.25 7.4665 9.0335 8.25 10 8.25C10.9665 8.25 11.75 7.4665 11.75 6.5C11.75 5.5335 10.9665 4.75 10 4.75ZM6.75 6.5C6.75 4.70507 8.20507 3.25 10 3.25C11.7949 3.25 13.25 4.70507 13.25 6.5C13.25 8.29493 11.7949 9.75 10 9.75C8.20507 9.75 6.75 8.29493 6.75 6.5ZM10 10.75C8.51931 10.75 7.12308 11.0795 6.07037 11.7296C5.00448 12.3879 4.25 13.4116 4.25 14.7347V15.4335C4.25 16.4367 5.06329 17.25 6.06653 17.25H12V15.75H6.06653C5.89171 15.75 5.75 15.6083 5.75 15.4335V14.7347C5.75 14.0589 6.11481 13.4652 6.85856 13.0059C7.6155 12.5384 8.71926 12.25 10 12.25V10.75ZM12.5 11C12.2239 11 12 11.2239 12 11.5V13H12.5234V12.4167C12.5234 12.2786 12.6354 12.1667 12.7734 12.1667H13.75C13.8881 12.1667 14 12.2786 14 12.4167V17.1C14 17.3209 13.8209 17.5 13.6 17.5C13.5448 17.5 13.5 17.5448 13.5 17.6V17.8333C13.5 17.9254 13.5746 18 13.6667 18H16.3333C16.4254 18 16.5 17.9254 16.5 17.8333V17.6C16.5 17.5448 16.4552 17.5 16.4 17.5C16.1791 17.5 16 17.3209 16 17.1V12.4167C16 12.2786 16.1119 12.1667 16.25 12.1667H17.25C17.3881 12.1667 17.5 12.2786 17.5 12.4167V13H18V11.5C18 11.2239 17.7761 11 17.5 11H12.5Z" fill="#333333"/>
</svg>
