<svg width="20" height="20" viewBox="0 0 20 20" fill="none" xmlns="http://www.w3.org/2000/svg">
<path d="M6.89392 7.79637C7.58047 7.72421 8.19553 8.22233 8.26773 8.90886C8.33989 9.59544 7.84181 10.2105 7.15524 10.2827C6.46876 10.3547 5.85358 9.85668 5.78143 9.17018C5.70932 8.48372 6.2075 7.86865 6.89392 7.79637Z" fill="#333333"/>
<path fill-rule="evenodd" clip-rule="evenodd" d="M7.8164 3.91403C8.15168 2.66422 9.37724 1.89016 10.6277 2.09261L10.8779 2.14683L15.7077 3.44107L15.9516 3.51952C17.1357 3.96971 17.8099 5.25353 17.475 6.50358L16.1816 11.3322L16.1022 11.5762C15.9204 12.0545 15.6012 12.4471 15.2047 12.7261L15.3332 13.9479C15.4775 15.3211 14.4813 16.5512 13.1082 16.6956L6.14653 17.4273L5.89074 17.4414C4.62373 17.4457 3.5342 16.4895 3.3989 15.2023L2.6672 8.24062C2.532 6.95343 3.39887 5.79154 4.63905 5.53236L4.89218 5.49299L11.8538 4.76129C13.2269 4.61697 14.4571 5.61321 14.6015 6.98627L14.9369 10.1777L16.026 6.11482C16.1689 5.58136 15.8524 5.03297 15.3189 4.89003L10.4902 3.59569C9.95678 3.45277 9.40842 3.76949 9.26536 4.30278L9.06334 5.05262L7.46687 5.22238L7.8164 3.91403ZM9.57585 13.6752C9.17711 14.2242 8.41261 14.3554 7.85408 13.9701L6.19704 12.8255L4.8834 14.5464C4.87056 14.5632 4.85725 14.5794 4.84332 14.5948L4.89068 15.0455C4.94841 15.5947 5.44047 15.9932 5.98973 15.9355L12.9514 15.2038C13.5006 15.146 13.8991 14.654 13.8414 14.1047L13.721 12.9597C13.6968 12.9421 13.6727 12.9231 13.6502 12.9023L11.5496 10.9569L9.57585 13.6752ZM5.04898 6.98477C4.49977 7.0425 4.10135 7.53463 4.15898 8.08382L4.61538 12.4261L5.1497 11.7268L5.2292 11.633C5.64682 11.1845 6.33775 11.102 6.85245 11.4565L8.5051 12.5966L10.5021 9.84744L10.589 9.74011C11.0186 9.26685 11.7423 9.1963 12.2559 9.5767L12.3623 9.66469L13.4839 10.7035L13.1097 7.14307C13.0519 6.59389 12.5598 6.19535 12.0106 6.25307L5.04898 6.98477Z" fill="#333333"/>
</svg>
