<svg width="20" height="20" viewBox="0 0 20 20" fill="none" xmlns="http://www.w3.org/2000/svg">
<g id="shopl/ic-camera">
<path id="Union" fill-rule="evenodd" clip-rule="evenodd" d="M7.5 2.5H12.5C13.0523 2.5 13.5 2.94772 13.5 3.5V4H6.5V3.5C6.5 2.94772 6.94772 2.5 7.5 2.5ZM5 4.12602V3.5C5 2.11929 6.11929 1 7.5 1H12.5C13.8807 1 15 2.11929 15 3.5V4.12602C16.7252 4.57006 18 6.13616 18 8V14C18 16.2091 16.2091 18 14 18H6C3.79086 18 2 16.2091 2 14V8C2 6.13616 3.27477 4.57006 5 4.12602ZM6 5.5C4.61929 5.5 3.5 6.61929 3.5 8V14C3.5 15.3807 4.61929 16.5 6 16.5H14C15.3807 16.5 16.5 15.3807 16.5 14V8C16.5 6.61929 15.3807 5.5 14 5.5H6ZM11.5 11C11.5 11.8284 10.8284 12.5 10 12.5C9.17157 12.5 8.5 11.8284 8.5 11C8.5 10.1716 9.17157 9.5 10 9.5C10.8284 9.5 11.5 10.1716 11.5 11ZM13 11C13 12.6569 11.6569 14 10 14C8.34315 14 7 12.6569 7 11C7 9.34315 8.34315 8 10 8C11.6569 8 13 9.34315 13 11ZM13 8C13 7.44772 13.4477 7 14 7C14.5523 7 15 7.44772 15 8C15 8.55228 14.5523 9 14 9C13.4477 9 13 8.55228 13 8Z" fill="#333333"/>
</g>
</svg>
