<svg width="20" height="20" viewBox="0 0 20 20" fill="none" xmlns="http://www.w3.org/2000/svg">
<path d="M10 11.5C10.2325 11.5 10.349 11.4998 10.4443 11.5254C10.703 11.5948 10.9052 11.797 10.9746 12.0557C11.0002 12.151 11 12.2675 11 12.5C11 12.7325 11.0002 12.849 10.9746 12.9443C10.9052 13.203 10.703 13.4052 10.4443 13.4746C10.349 13.5002 10.2325 13.5 10 13.5C9.76751 13.5 9.65104 13.5002 9.55566 13.4746C9.29698 13.4052 9.09477 13.203 9.02539 12.9443C8.99984 12.849 9 12.7325 9 12.5C9 12.2675 8.99984 12.151 9.02539 12.0557C9.09477 11.797 9.29698 11.5948 9.55566 11.5254C9.65104 11.4998 9.76751 11.5 10 11.5Z" fill="#333333"/>
<path d="M13 11.5C13.2325 11.5 13.349 11.4998 13.4443 11.5254C13.703 11.5948 13.9052 11.797 13.9746 12.0557C14.0002 12.151 14 12.2675 14 12.5C14 12.7325 14.0002 12.849 13.9746 12.9443C13.9052 13.203 13.703 13.4052 13.4443 13.4746C13.349 13.5002 13.2325 13.5 13 13.5C12.7675 13.5 12.651 13.5002 12.5557 13.4746C12.297 13.4052 12.0948 13.203 12.0254 12.9443C11.9998 12.849 12 12.7325 12 12.5C12 12.2675 11.9998 12.151 12.0254 12.0557C12.0948 11.797 12.297 11.5948 12.5557 11.5254C12.651 11.4998 12.7675 11.5 13 11.5Z" fill="#333333"/>
<path d="M13 8.5C13.2325 8.5 13.349 8.49984 13.4443 8.52539C13.703 8.59477 13.9052 8.79698 13.9746 9.05566C14.0002 9.15104 14 9.26751 14 9.5C14 9.73249 14.0002 9.84896 13.9746 9.94434C13.9052 10.203 13.703 10.4052 13.4443 10.4746C13.349 10.5002 13.2325 10.5 13 10.5C12.7675 10.5 12.651 10.5002 12.5557 10.4746C12.297 10.4052 12.0948 10.203 12.0254 9.94434C11.9998 9.84896 12 9.73249 12 9.5C12 9.26751 11.9998 9.15104 12.0254 9.05566C12.0948 8.79698 12.297 8.59477 12.5557 8.52539C12.651 8.49984 12.7675 8.5 13 8.5Z" fill="#333333"/>
<path fill-rule="evenodd" clip-rule="evenodd" d="M15 3C16.1046 3 17 3.89543 17 5V14L16.9961 14.1543C16.9184 15.6883 15.6883 16.9184 14.1543 16.9961L14 17H6C4.39489 17 3.08421 15.7394 3.00391 14.1543L3 14V5C3 3.89543 3.89543 3 5 3H15ZM4.5 14C4.5 14.8284 5.17157 15.5 6 15.5H14C14.8284 15.5 15.5 14.8284 15.5 14V7H4.5V14Z" fill="#333333"/>
</svg>
