<svg xmlns="http://www.w3.org/2000/svg" width="20" height="20" viewBox="0 0 20 20" fill="none">
    <path fill-rule="evenodd" clip-rule="evenodd" d="M6 3.5H14C15.3807 3.5 16.5 4.61929 16.5 6V14C16.5 15.3807 15.3807 16.5 14 16.5H6C4.61929 16.5 3.5 15.3807 3.5 14V6C3.5 4.61929 4.61929 3.5 6 3.5ZM2 6C2 3.79086 3.79086 2 6 2H14C16.2091 2 18 3.79086 18 6V14C18 16.2091 16.2091 18 14 18H6C3.79086 18 2 16.2091 2 14V6ZM14.0644 7.99389C14.3372 7.68216 14.3056 7.20834 13.9939 6.93558C13.6822 6.66282 13.2083 6.6944 12.9356 7.00613L9.12501 11.3611L7.06444 9.00613C6.79168 8.6944 6.31786 8.66282 6.00613 8.93558C5.6944 9.20834 5.66282 9.68216 5.93558 9.99389L8.56058 12.9939C8.70299 13.1567 8.90874 13.25 9.12501 13.25C9.34128 13.25 9.54703 13.1567 9.68944 12.9939L14.0644 7.99389Z" fill="#333333"/>
</svg>