<svg width="24" height="24" viewBox="0 0 24 24" fill="none" xmlns="http://www.w3.org/2000/svg">
<mask id="path-1-inside-1_3782_1622" fill="white">
<path fill-rule="evenodd" clip-rule="evenodd" d="M5.5 3C3.84315 3 2.5 4.34315 2.5 6V14C2.5 15.6569 3.84315 17 5.5 17H9.97518L14.0034 20.5807C14.9707 21.4405 16.4999 20.7538 16.4999 19.4596L16.5 17H18.5C20.1569 17 21.5 15.6569 21.5 14V6C21.5 4.34315 20.1569 3 18.5 3H5.5Z"/>
</mask>
<path d="M9.97518 17L11.3039 15.5052L10.7356 15H9.97518V17ZM14.0034 20.5807L12.6746 22.0755L12.6746 22.0755L14.0034 20.5807ZM16.4999 19.4596L18.4999 19.4596V19.4596L16.4999 19.4596ZM16.5 17V15H14.5L14.5 17L16.5 17ZM4.5 6C4.5 5.44772 4.94772 5 5.5 5V1C2.73858 1 0.5 3.23858 0.5 6H4.5ZM4.5 14V6H0.5V14H4.5ZM5.5 15C4.94772 15 4.5 14.5523 4.5 14H0.5C0.5 16.7614 2.73858 19 5.5 19V15ZM9.97518 15H5.5V19H9.97518V15ZM8.64644 18.4948L12.6746 22.0755L15.3321 19.0859L11.3039 15.5052L8.64644 18.4948ZM12.6746 22.0755C14.9318 24.0818 18.4999 22.4796 18.4999 19.4596L14.4999 19.4595C14.4999 19.0281 15.0097 18.7992 15.3321 19.0859L12.6746 22.0755ZM18.4999 19.4596L18.5 17L14.5 17L14.4999 19.4595L18.4999 19.4596ZM18.5 15H16.5V19H18.5V15ZM19.5 14C19.5 14.5523 19.0523 15 18.5 15V19C21.2614 19 23.5 16.7614 23.5 14H19.5ZM19.5 6V14H23.5V6H19.5ZM18.5 5C19.0523 5 19.5 5.44772 19.5 6H23.5C23.5 3.23858 21.2614 1 18.5 1V5ZM5.5 5H18.5V1H5.5V5Z" fill="#333333" mask="url(#path-1-inside-1_3782_1622)"/>
</svg>
