<svg width="36" height="36" viewBox="0 0 36 36" fill="none" xmlns="http://www.w3.org/2000/svg">
<path d="M4.5 6C4.5 5.17157 5.17157 4.5 6 4.5H16.5C17.3284 4.5 18 5.17157 18 6V31.5H6C5.17157 31.5 4.5 30.8284 4.5 30V6Z" fill="#2D89E4"/>
<path d="M18 10.5H30C30.8284 10.5 31.5 11.1716 31.5 12V30C31.5 30.8284 30.8284 31.5 30 31.5H18V10.5Z" fill="#EAF5FF"/>
<path d="M9.34961 15C9.57052 15 9.75 15.1795 9.75 15.4004V16.0996C9.75 16.3205 9.57052 16.5 9.34961 16.5H8.65039C8.42948 16.5 8.25 16.3205 8.25 16.0996V15.4004C8.25 15.1795 8.42948 15 8.65039 15H9.34961ZM13.8496 15C14.0705 15 14.25 15.1795 14.25 15.4004V16.0996C14.25 16.3205 14.0705 16.5 13.8496 16.5H13.1504C12.9295 16.5 12.75 16.3205 12.75 16.0996V15.4004C12.75 15.1795 12.9295 15 13.1504 15H13.8496ZM9.34961 11.25C9.57052 11.25 9.75 11.4295 9.75 11.6504V12.3496C9.75 12.5705 9.57052 12.75 9.34961 12.75H8.65039C8.42948 12.75 8.25 12.5705 8.25 12.3496V11.6504C8.25 11.4295 8.42948 11.25 8.65039 11.25H9.34961ZM13.8496 11.25C14.0705 11.25 14.25 11.4295 14.25 11.6504V12.3496C14.25 12.5705 14.0705 12.75 13.8496 12.75H13.1504C12.9295 12.75 12.75 12.5705 12.75 12.3496V11.6504C12.75 11.4295 12.9295 11.25 13.1504 11.25H13.8496ZM9.34961 7.5C9.57052 7.5 9.75 7.67948 9.75 7.90039V8.59961C9.75 8.82052 9.57052 9 9.34961 9H8.65039C8.42948 9 8.25 8.82052 8.25 8.59961V7.90039C8.25 7.67948 8.42948 7.5 8.65039 7.5H9.34961ZM13.8496 7.5C14.0705 7.5 14.25 7.67948 14.25 7.90039V8.59961C14.25 8.82052 14.0705 9 13.8496 9H13.1504C12.9295 9 12.75 8.82052 12.75 8.59961V7.90039C12.75 7.67948 12.9295 7.5 13.1504 7.5H13.8496Z" fill="white"/>
<path d="M22.8496 21C23.0705 21 23.25 21.1795 23.25 21.4004V22.0996C23.25 22.3205 23.0705 22.5 22.8496 22.5H22.1504C21.9295 22.5 21.75 22.3205 21.75 22.0996V21.4004C21.75 21.1795 21.9295 21 22.1504 21H22.8496ZM27.3496 21C27.5705 21 27.75 21.1795 27.75 21.4004V22.0996C27.75 22.3205 27.5705 22.5 27.3496 22.5H26.6504C26.4295 22.5 26.25 22.3205 26.25 22.0996V21.4004C26.25 21.1795 26.4295 21 26.6504 21H27.3496ZM22.8496 17.25C23.0705 17.25 23.25 17.4295 23.25 17.6504V18.3496C23.25 18.5705 23.0705 18.75 22.8496 18.75H22.1504C21.9295 18.75 21.75 18.5705 21.75 18.3496V17.6504C21.75 17.4295 21.9295 17.25 22.1504 17.25H22.8496ZM27.3496 17.25C27.5705 17.25 27.75 17.4295 27.75 17.6504V18.3496C27.75 18.5705 27.5705 18.75 27.3496 18.75H26.6504C26.4295 18.75 26.25 18.5705 26.25 18.3496V17.6504C26.25 17.4295 26.4295 17.25 26.6504 17.25H27.3496ZM22.8496 13.5C23.0705 13.5 23.25 13.6795 23.25 13.9004V14.5996C23.25 14.8205 23.0705 15 22.8496 15H22.1504C21.9295 15 21.75 14.8205 21.75 14.5996V13.9004C21.75 13.6795 21.9295 13.5 22.1504 13.5H22.8496ZM27.3496 13.5C27.5705 13.5 27.75 13.6795 27.75 13.9004V14.5996C27.75 14.8205 27.5705 15 27.3496 15H26.6504C26.4295 15 26.25 14.8205 26.25 14.5996V13.9004C26.25 13.6795 26.4295 13.5 26.6504 13.5H27.3496Z" fill="#2D89E4"/>
</svg>
