<svg width="20" height="20" viewBox="0 0 20 20" fill="none" xmlns="http://www.w3.org/2000/svg">
<path d="M12 11.5C12 11.2239 12.2239 11 12.5 11H17.5C17.7761 11 18 11.2239 18 11.5V13H17.5V12.4167C17.5 12.2786 17.3881 12.1667 17.25 12.1667H16.25C16.1119 12.1667 16 12.2786 16 12.4167V17.1C16 17.3209 16.1791 17.5 16.4 17.5C16.4552 17.5 16.5 17.5448 16.5 17.6V17.8333C16.5 17.9254 16.4254 18 16.3333 18H13.6667C13.5746 18 13.5 17.9254 13.5 17.8333V17.6C13.5 17.5448 13.5448 17.5 13.6 17.5C13.8209 17.5 14 17.3209 14 17.1V12.4167C14 12.2786 13.8881 12.1667 13.75 12.1667H12.7734C12.6354 12.1667 12.5234 12.2786 12.5234 12.4167V13H12V11.5Z" fill="#333333"/>
<path fill-rule="evenodd" clip-rule="evenodd" d="M8.25 6.5C8.25 5.5335 9.0335 4.75 10 4.75C10.9665 4.75 11.75 5.5335 11.75 6.5C11.75 7.4665 10.9665 8.25 10 8.25C9.0335 8.25 8.25 7.4665 8.25 6.5ZM10 3.25C8.20507 3.25 6.75 4.70507 6.75 6.5C6.75 8.29493 8.20507 9.75 10 9.75C11.7949 9.75 13.25 8.29493 13.25 6.5C13.25 4.70507 11.7949 3.25 10 3.25ZM6.07037 11.7296C7.12308 11.0795 8.51931 10.75 10 10.75V12.25C8.71926 12.25 7.6155 12.5384 6.85856 13.0059C6.11481 13.4652 5.75 14.0589 5.75 14.7347V15.4335C5.75 15.6083 5.89171 15.75 6.06653 15.75H12V17.25H6.06653C5.06329 17.25 4.25 16.4367 4.25 15.4335V14.7347C4.25 13.4116 5.00448 12.3879 6.07037 11.7296Z" fill="#333333"/>
</svg>
