<svg width="20" height="20" viewBox="0 0 20 20" fill="none" xmlns="http://www.w3.org/2000/svg">
<path d="M6 15C6.55228 15 7 15.4477 7 16C7 16.5523 6.55228 17 6 17C5.44772 17 5 16.5523 5 16C5 15.4477 5.44772 15 6 15Z" fill="#333333"/>
<path d="M14 15C14.5523 15 15 15.4477 15 16C15 16.5523 14.5523 17 14 17C13.4477 17 13 16.5523 13 16C13 15.4477 13.4477 15 14 15Z" fill="#333333"/>
<path fill-rule="evenodd" clip-rule="evenodd" d="M3.20508 1C3.44381 1 3.64996 1.16913 3.69629 1.40332L4.11426 3.51758L16.7949 3.5C17.104 3.49971 17.3398 3.7771 17.2891 4.08203L15.7051 13.582C15.6649 13.8231 15.4563 14 15.2119 14H4.78809C4.544 14 4.33548 13.8237 4.29492 13.583L4.25977 13.374L2.75977 4.39258L2.38477 2.5H1.5C1.22386 2.5 1 2.27614 1 2V1.5C1 1.22386 1.22386 1 1.5 1H3.20508ZM4.38574 5.0166L5.63574 12.5H14.3643L15.6133 5.00098L4.38574 5.0166Z" fill="#333333"/>
</svg>
