<svg width="20" height="20" viewBox="0 0 20 20" fill="none" xmlns="http://www.w3.org/2000/svg">
<path fill-rule="evenodd" clip-rule="evenodd" d="M10 3C10.8284 3 11.5 3.67157 11.5 4.5C11.5 5.27295 10.9153 5.90847 10.1641 5.99023C10.2058 6.01552 10.2424 6.04996 10.2666 6.09668C10.9201 7.35797 11.9769 8.21067 13.1846 8.3125L13.4287 8.32227C14.059 8.32224 14.6525 8.11609 15.1777 7.75391C14.7698 7.48582 14.5 7.02466 14.5 6.5C14.5 5.67157 15.1716 5 16 5C16.8284 5 17.5 5.67157 17.5 6.5C17.5 7.32843 16.8284 8 16 8C15.9422 8 15.8852 7.99563 15.8291 7.98926L14.3213 16.792C14.3033 16.8972 14.2211 16.9778 14.1191 16.9961L14.0752 17H5.9248C5.8185 16.9999 5.72586 16.9329 5.69043 16.8359L5.67871 16.792L4.16992 7.98926C4.11411 7.99556 4.0575 8 4 8C3.17157 8 2.5 7.32843 2.5 6.5C2.5 5.67157 3.17157 5 4 5C4.82843 5 5.5 5.67157 5.5 6.5C5.5 7.02495 5.22965 7.48589 4.82129 7.75391C5.34665 8.11637 5.94071 8.32224 6.57129 8.32227C7.88005 8.32227 9.03625 7.44223 9.7334 6.09668C9.75747 6.05022 9.7935 6.0155 9.83496 5.99023C9.08423 5.90803 8.5 5.27262 8.5 4.5C8.5 3.67157 9.17157 3 10 3ZM10 8.28125C9.11767 9.19974 7.94757 9.82227 6.57129 9.82227C6.37701 9.82226 6.18619 9.80872 5.99902 9.78418L6.97949 15.5H13.0205L14 9.78418C13.8131 9.80864 13.6227 9.82226 13.4287 9.82227C12.0524 9.82227 10.8823 9.19974 10 8.28125Z" fill="#333333"/>
</svg>
