<svg width="24" height="24" viewBox="0 0 24 24" fill="none" xmlns="http://www.w3.org/2000/svg">
<path d="M19.5 19C19.7761 19 20 19.2239 20 19.5V20.5C20 20.7761 19.7761 21 19.5 21H5.5C5.22386 21 5 20.7761 5 20.5V19.5C5 19.2239 5.22386 19 5.5 19H19.5Z" fill="#333333"/>
<path fill-rule="evenodd" clip-rule="evenodd" d="M13.6455 3.00195C15.9584 3.01496 17.2064 3.11861 17.9844 3.9502C18.5275 4.53077 18.6995 5.3164 18.707 6.52344C19.1732 6.54853 19.6333 6.6553 20.0654 6.8418C20.7282 7.12789 21.301 7.58942 21.7207 8.17676C22.1402 8.76405 22.3904 9.45522 22.4463 10.1748C22.5021 10.8944 22.361 11.6157 22.0371 12.2607C21.7131 12.9058 21.2191 13.451 20.6084 13.8359C19.9977 14.2208 19.293 14.4323 18.5713 14.4463C18.4439 14.4488 18.3168 14.4414 18.1904 14.4316C18.0972 15.0924 17.9654 15.5747 17.7285 15.9883L17.5693 16.2432C17.178 16.8209 16.641 17.2873 16.0107 17.5947C15.1808 17.9994 14.1206 18 12 18C10.0117 18 8.95562 17.9996 8.14746 17.666L7.98926 17.5947C7.26884 17.2434 6.66999 16.6837 6.27148 15.9883C5.92726 15.3873 5.80106 14.642 5.7002 13.4141L5.60059 12.0137L5.42676 9.39941C5.22684 6.40061 5.12644 4.90064 6.01562 3.9502C6.9048 2.99977 8.40777 3 11.4131 3H12.5869L13.6455 3.00195ZM11.4131 5C9.85227 5 8.88851 5.00501 8.19434 5.10059C7.56991 5.1866 7.48248 5.30869 7.47656 5.31641C7.47365 5.31952 7.3528 5.40577 7.30762 6.04688C7.25839 6.74586 7.31804 7.70815 7.42188 9.26562L7.59668 11.8799C7.66935 12.9699 7.71756 13.6712 7.7959 14.2031C7.87058 14.71 7.95223 14.8988 8.00684 14.9941C8.20607 15.3418 8.50508 15.6222 8.86523 15.7979C8.96398 15.846 9.15849 15.9152 9.66992 15.9561C10.2058 15.9988 10.9079 16 12 16C13.0921 16 13.7942 15.9988 14.3301 15.9561C14.8415 15.9152 15.036 15.846 15.1348 15.7979C15.4949 15.6222 15.7939 15.3418 15.9932 14.9941C16.0478 14.8988 16.1294 14.71 16.2041 14.2031C16.2824 13.6712 16.3307 12.9699 16.4033 11.8799L16.5781 9.26562C16.682 7.70815 16.7416 6.74586 16.6924 6.04688C16.6472 5.40577 16.5264 5.31952 16.5234 5.31641C16.5175 5.30869 16.4301 5.1866 15.8057 5.10059C15.1115 5.00501 14.1477 5 12.5869 5H11.4131ZM18.5732 9.39941L18.3994 12.0137L18.3682 12.4414C18.4227 12.4449 18.4774 12.4473 18.5322 12.4463C18.8898 12.4393 19.2394 12.3342 19.542 12.1436C19.8445 11.9528 20.0895 11.6829 20.25 11.3633C20.4105 11.0437 20.4798 10.6857 20.4521 10.3291C20.4244 9.97261 20.3007 9.62981 20.0928 9.33887C19.8848 9.04793 19.6008 8.81944 19.2725 8.67773C19.0678 8.58942 18.8503 8.53699 18.6299 8.52148C18.6124 8.79897 18.5938 9.09131 18.5732 9.39941Z" fill="#333333"/>
</svg>
