<svg width="24" height="24" viewBox="0 0 24 24" fill="none" xmlns="http://www.w3.org/2000/svg">
<path fill-rule="evenodd" clip-rule="evenodd" d="M5.69206 4.29031C5.30498 3.90323 4.67739 3.90323 4.29031 4.29031C3.90323 4.67738 3.90323 5.30495 4.29031 5.69203L10.5982 11.9998L4.29038 18.3076C3.90329 18.6946 3.90329 19.3222 4.29038 19.7093C4.67746 20.0964 5.30504 20.0964 5.69212 19.7093L12 13.4016L18.3078 19.7092C18.6949 20.0963 19.3224 20.0963 19.7095 19.7092C20.0966 19.3222 20.0966 18.6946 19.7095 18.3075L13.4017 11.9998L19.7096 5.69207C20.0967 5.305 20.0967 4.67743 19.7096 4.29035C19.3225 3.90328 18.6949 3.90328 18.3078 4.29035L12 10.5981L5.69206 4.29031Z" fill="#555555"/>
</svg>
