<svg width="20" height="20" viewBox="0 0 20 20" fill="none" xmlns="http://www.w3.org/2000/svg">
<path d="M7.5 13.25C8.32843 13.25 9 13.9216 9 14.75C9 15.5784 8.32843 16.25 7.5 16.25C6.67157 16.25 6 15.5784 6 14.75C6 13.9216 6.67157 13.25 7.5 13.25Z" fill="#333333"/>
<path d="M12.5 13.25C13.3284 13.25 14 13.9216 14 14.75C14 15.5784 13.3284 16.25 12.5 16.25C11.6716 16.25 11 15.5784 11 14.75C11 13.9216 11.6716 13.25 12.5 13.25Z" fill="#333333"/>
<path d="M7.5 8.5C8.32843 8.5 9 9.17157 9 10C9 10.8284 8.32843 11.5 7.5 11.5C6.67157 11.5 6 10.8284 6 10C6 9.17157 6.67157 8.5 7.5 8.5Z" fill="#333333"/>
<path d="M12.5 8.5C13.3284 8.5 14 9.17157 14 10C14 10.8284 13.3284 11.5 12.5 11.5C11.6716 11.5 11 10.8284 11 10C11 9.17157 11.6716 8.5 12.5 8.5Z" fill="#333333"/>
<path d="M7.5 3.75C8.32843 3.75 9 4.42157 9 5.25C9 6.07843 8.32843 6.75 7.5 6.75C6.67157 6.75 6 6.07843 6 5.25C6 4.42157 6.67157 3.75 7.5 3.75Z" fill="#333333"/>
<path d="M12.5 3.75C13.3284 3.75 14 4.42157 14 5.25C14 6.07843 13.3284 6.75 12.5 6.75C11.6716 6.75 11 6.07843 11 5.25C11 4.42157 11.6716 3.75 12.5 3.75Z" fill="#333333"/>
</svg>
