<svg width="20" height="20" viewBox="0 0 20 20" fill="none" xmlns="http://www.w3.org/2000/svg">
<circle cx="10" cy="10" r="8" fill="#333333"/>
<path fill-rule="evenodd" clip-rule="evenodd" d="M6.14159 7.34134C6.06348 7.26324 6.06348 7.1366 6.14159 7.0585L7.05874 6.14134C7.13685 6.06324 7.26348 6.06324 7.34159 6.14134L10.006 8.80577L12.6704 6.14134C12.7485 6.06324 12.8752 6.06324 12.9533 6.14134L13.8704 7.0585C13.9485 7.1366 13.9485 7.26324 13.8704 7.34134L11.206 10.0058L13.8587 12.6585C13.9368 12.7366 13.9368 12.8632 13.8587 12.9413L12.9416 13.8585C12.8635 13.9366 12.7368 13.9366 12.6587 13.8585L10.006 11.2058L7.35328 13.8585C7.27517 13.9366 7.14854 13.9366 7.07044 13.8585L6.15328 12.9413C6.07517 12.8632 6.07517 12.7366 6.15328 12.6585L8.80601 10.0058L6.14159 7.34134Z" fill="white"/>
</svg>
