<svg width="20" height="20" viewBox="0 0 20 20" fill="none" xmlns="http://www.w3.org/2000/svg">
<path fill-rule="evenodd" clip-rule="evenodd" d="M3.5 4.5C3.5 4.22386 3.72386 4 4 4H11.6667C11.9428 4 12.1667 4.22386 12.1667 4.5V5.5C12.1667 5.77614 11.9428 6 11.6667 6H4C3.72386 6 3.5 5.77614 3.5 5.5V4.5ZM3.5 9.5C3.5 9.22386 3.72386 9 4 9H16C16.2761 9 16.5 9.22386 16.5 9.5V10.5C16.5 10.7761 16.2761 11 16 11H4C3.72386 11 3.5 10.7761 3.5 10.5V9.5ZM4 14C3.72386 14 3.5 14.2239 3.5 14.5V15.5C3.5 15.7761 3.72386 16 4 16H14.9167C15.1928 16 15.4167 15.7761 15.4167 15.5V14.5C15.4167 14.2239 15.1928 14 14.9167 14H4Z" fill="#333333"/>
</svg>
