<svg width="20" height="20" viewBox="0 0 20 20" fill="none" xmlns="http://www.w3.org/2000/svg">
<path fill-rule="evenodd" clip-rule="evenodd" d="M11.9097 4.75936L10.2968 3.14645C10.1016 2.95118 9.785 2.95118 9.58974 3.14645L7.97685 4.75936C7.66187 5.07435 7.88495 5.61292 8.3304 5.61292H9.00154V8.99445H5.61287V8.33014C5.61287 7.88468 5.07431 7.6616 4.75933 7.97658L3.14645 9.5895C2.95118 9.78476 2.95118 10.1013 3.14645 10.2966L4.75933 11.9095C5.07431 12.2245 5.61287 12.0014 5.61287 11.556V10.9927H9.00154V14.3869H8.3304C7.88495 14.3869 7.66187 14.9255 7.97685 15.2405L9.58974 16.8534C9.785 17.0486 10.1016 17.0486 10.2968 16.8534L11.9097 15.2405C12.2247 14.9255 12.0016 14.3869 11.5562 14.3869H10.9977L10.9977 10.9927H14.3863V11.556C14.3863 12.0014 14.9249 12.2245 15.2399 11.9095L16.8527 10.2966C17.048 10.1013 17.048 9.78476 16.8527 9.5895L15.2399 7.97658C14.9249 7.6616 14.3863 7.88468 14.3863 8.33014V8.99445H10.9977L10.9977 5.61292H11.5562C12.0016 5.61292 12.2247 5.07435 11.9097 4.75936Z" fill="#333333"/>
</svg>
