<svg width="20" height="20" viewBox="0 0 20 20" fill="none" xmlns="http://www.w3.org/2000/svg">
<path d="M10 2C14.4183 2 18 5.58172 18 10C18 14.4183 14.4183 18 10 18C5.58172 18 2 14.4183 2 10C2 5.58172 5.58172 2 10 2ZM12.9531 6.1416C12.8751 6.06353 12.749 6.0636 12.6709 6.1416L10.0059 8.80566L7.3418 6.1416C7.26369 6.0635 7.1367 6.0635 7.05859 6.1416L6.1416 7.05859C6.06354 7.1367 6.06351 7.26371 6.1416 7.3418L8.80566 10.0059L6.15332 12.6582C6.07522 12.7363 6.07522 12.8633 6.15332 12.9414L7.07031 13.8584C7.14842 13.9365 7.27541 13.9365 7.35352 13.8584L10.0059 11.2061L12.6592 13.8584C12.7373 13.9363 12.8634 13.9364 12.9414 13.8584L13.8584 12.9414C13.9365 12.8633 13.9365 12.7363 13.8584 12.6582L11.2061 10.0059L13.8701 7.3418C13.9482 7.26369 13.9482 7.1367 13.8701 7.05859L12.9531 6.1416Z" fill="#333333"/>
</svg>
