<svg width="24" height="24" viewBox="0 0 24 24" fill="none" xmlns="http://www.w3.org/2000/svg">
<path fill-rule="evenodd" clip-rule="evenodd" d="M4 6C4 4.34315 5.34315 3 7 3H17C18.6569 3 20 4.34315 20 6V18C20 19.6569 18.6569 21 17 21H7C5.34315 21 4 19.6569 4 18V6ZM7 5C6.44772 5 6 5.44772 6 6V18C6 18.5523 6.44772 19 7 19H17C17.5523 19 18 18.5523 18 18V6C18 5.44772 17.5523 5 17 5H7Z" fill="#333333"/>
<path fill-rule="evenodd" clip-rule="evenodd" d="M8.84339 11.9067C8.76907 11.981 8.72006 12.0769 8.70333 12.1807L8.56734 13.0237C8.51307 13.3603 8.80406 13.6513 9.14058 13.597L9.98367 13.461C10.0874 13.4443 10.1833 13.3953 10.2576 13.3209L15.1746 8.40392C15.3699 8.20866 15.3699 7.89208 15.1746 7.69682L14.4675 6.98971C14.2723 6.79445 13.9557 6.79445 13.7604 6.98971L8.84339 11.9067ZM8.75 15C8.47386 15 8.25 15.2239 8.25 15.5V16C8.25 16.2761 8.47386 16.5 8.75 16.5H15.25C15.5261 16.5 15.75 16.2761 15.75 16V15.5C15.75 15.2239 15.5261 15 15.25 15H8.75Z" fill="#333333"/>
</svg>
