<svg width="20" height="20" viewBox="0 0 20 20" fill="none" xmlns="http://www.w3.org/2000/svg">
<path d="M13.25 12.5C13.25 11.6716 13.9216 11 14.75 11C15.5784 11 16.25 11.6716 16.25 12.5C16.25 13.3284 15.5784 14 14.75 14C13.9216 14 13.25 13.3284 13.25 12.5Z" fill="#333333"/>
<path d="M13.25 7.5C13.25 6.67157 13.9216 6 14.75 6C15.5784 6 16.25 6.67157 16.25 7.5C16.25 8.32843 15.5784 9 14.75 9C13.9216 9 13.25 8.32843 13.25 7.5Z" fill="#333333"/>
<path d="M8.5 12.5C8.5 11.6716 9.17157 11 10 11C10.8284 11 11.5 11.6716 11.5 12.5C11.5 13.3284 10.8284 14 10 14C9.17157 14 8.5 13.3284 8.5 12.5Z" fill="#333333"/>
<path d="M8.5 7.5C8.5 6.67157 9.17157 6 10 6C10.8284 6 11.5 6.67157 11.5 7.5C11.5 8.32843 10.8284 9 10 9C9.17157 9 8.5 8.32843 8.5 7.5Z" fill="#333333"/>
<path d="M3.75 12.5C3.75 11.6716 4.42157 11 5.25 11C6.07843 11 6.75 11.6716 6.75 12.5C6.75 13.3284 6.07843 14 5.25 14C4.42157 14 3.75 13.3284 3.75 12.5Z" fill="#333333"/>
<path d="M3.75 7.5C3.75 6.67157 4.42157 6 5.25 6C6.07843 6 6.75 6.67157 6.75 7.5C6.75 8.32843 6.07843 9 5.25 9C4.42157 9 3.75 8.32843 3.75 7.5Z" fill="#333333"/>
</svg>
