<svg width="20" height="20" viewBox="0 0 20 20" fill="none" xmlns="http://www.w3.org/2000/svg">
<g id="shopl/ic-detail-view">
<path id="Union" fill-rule="evenodd" clip-rule="evenodd" d="M14.5 2.5C15.6046 2.5 16.5 3.39543 16.5 4.5V10.1458C16.0672 9.75845 15.5589 9.45361 15 9.25606V4.5C15 4.25454 14.8231 4.05039 14.5899 4.00806L14.5 4H8.5V6.5C8.5 7.05228 8.05228 7.5 7.5 7.5H5V15.5C5 15.7455 5.17688 15.9496 5.41012 15.9919L5.5 16H9.75777C10.1802 16.631 10.758 17.1493 11.4364 17.5H5.5C4.39543 17.5 3.5 16.6046 3.5 15.5V6.91421C3.5 6.649 3.60536 6.39464 3.79289 6.20711L7.20711 2.79289C7.39464 2.60536 7.649 2.5 7.91421 2.5H14.5ZM13.5 15.5C14.6046 15.5 15.5 14.6046 15.5 13.5C15.5 12.3954 14.6046 11.5 13.5 11.5C12.3954 11.5 11.5 12.3954 11.5 13.5C11.5 14.6046 12.3954 15.5 13.5 15.5ZM13.5 17C14.1982 17 14.8487 16.7955 15.3948 16.4432C15.4172 16.4737 15.4421 16.5028 15.4697 16.5303L16.4697 17.5303C16.7626 17.8232 17.2374 17.8232 17.5303 17.5303C17.8232 17.2374 17.8232 16.7626 17.5303 16.4697L16.5303 15.4697C16.5028 15.4421 16.4737 15.4172 16.4432 15.3948C16.7955 14.8487 17 14.1982 17 13.5C17 11.567 15.433 10 13.5 10C11.567 10 10 11.567 10 13.5C10 15.433 11.567 17 13.5 17Z" fill="#333333"/>
</g>
</svg>
