<svg width="20" height="20" viewBox="0 0 20 20" fill="none" xmlns="http://www.w3.org/2000/svg">
<path fill-rule="evenodd" clip-rule="evenodd" d="M14.5 2.5C15.6046 2.5 16.5 3.39543 16.5 4.5V15.4998C16.5 16.6044 15.6046 17.4998 14.5 17.4998H11.4361L5.5 17.5C4.39543 17.5 3.5 16.6046 3.5 15.5V6.91421C3.5 6.649 3.60536 6.39464 3.79289 6.20711L7.20711 2.79289C7.39464 2.60536 7.649 2.5 7.91421 2.5H14.5ZM9.4999 16L14.5 15.9998L14.5899 15.9918C14.8231 15.9495 15 15.7453 15 15.4998V4.5C15 4.25454 14.8231 4.05039 14.5899 4.00806L14.5 4H8.5V6.5C8.5 7.05228 8.05228 7.5 7.5 7.5H5V15.5C5 15.7455 5.17688 15.9496 5.41012 15.9919L5.5 16H9.4999Z" fill="#333333"/>
</svg>
