<svg width="20" height="20" viewBox="0 0 20 20" fill="none" xmlns="http://www.w3.org/2000/svg">
<path d="M9.04297 12.5C10.1565 12.5001 10.7141 13.8463 9.92676 14.6338L8.06055 16.5H10.25C10.6642 16.5 11 16.8358 11 17.25C11 17.6642 10.6642 18 10.25 18H7.45703C6.34347 17.9999 5.78586 16.6537 6.57324 15.8662L8.43945 14H6.25C5.83579 14 5.5 13.6642 5.5 13.25C5.5 12.8358 5.83579 12.5 6.25 12.5H9.04297Z" fill="#333333"/>
<path d="M16.043 6.5C17.1565 6.50006 17.7141 7.84635 16.9268 8.63379L14.0605 11.5H17.25C17.6642 11.5 18 11.8358 18 12.25C18 12.6642 17.6642 13 17.25 13H13.457C12.3435 12.9999 11.7859 11.6537 12.5732 10.8662L15.4395 8H12.25C11.8358 8 11.5 7.66421 11.5 7.25C11.5 6.83579 11.8358 6.5 12.25 6.5H16.043Z" fill="#333333"/>
<path d="M9.29492 2.5C10.4138 2.50025 10.9602 3.8503 10.1768 4.63379L5.31055 9.5H10.5C10.9142 9.5 11.25 9.83579 11.25 10.25C11.25 10.6642 10.9142 11 10.5 11H4.70703C3.59347 10.9999 3.03585 9.65366 3.82324 8.86621L8.68945 4H3.5C3.08579 4 2.75 3.66421 2.75 3.25C2.75 2.83579 3.08579 2.5 3.5 2.5H9.29492Z" fill="#333333"/>
</svg>
