<svg width="20" height="20" viewBox="0 0 20 20" fill="none" xmlns="http://www.w3.org/2000/svg">
<g id="shopl/ic-delete-line">
<circle id="Oval" cx="10" cy="10" r="7.25" stroke="#333333" stroke-width="1.5"/>
<path id="Vector 113 (Stroke)" fill-rule="evenodd" clip-rule="evenodd" d="M6.82328 12.8233C6.62802 12.628 6.62802 12.3114 6.82328 12.1162L12.1162 6.82328C12.3114 6.62802 12.628 6.62802 12.8233 6.82328L13.1768 7.17683C13.3721 7.3721 13.3721 7.68868 13.1768 7.88394L7.88394 13.1768C7.68868 13.3721 7.3721 13.3721 7.17683 13.1768L6.82328 12.8233Z" fill="#333333"/>
<path id="Vector 114 (Stroke)" fill-rule="evenodd" clip-rule="evenodd" d="M7.17672 6.82328C7.37198 6.62802 7.68856 6.62802 7.88383 6.82328L13.1767 12.1162C13.372 12.3114 13.372 12.628 13.1767 12.8233L12.8232 13.1768C12.6279 13.3721 12.3113 13.3721 12.1161 13.1768L6.82317 7.88394C6.6279 7.68868 6.6279 7.3721 6.82317 7.17683L7.17672 6.82328Z" fill="#333333"/>
</g>
</svg>
