<svg width="20" height="20" viewBox="0 0 20 20" fill="none" xmlns="http://www.w3.org/2000/svg">
<path fill-rule="evenodd" clip-rule="evenodd" d="M13.5 2.5C14.6046 2.5 15.5 3.39543 15.5 4.5V6.78988C15.0196 6.6469 14.5176 6.55411 14 6.51758V4.5C14 4.25454 13.8231 4.05039 13.5899 4.00806L13.5 4H7.5V7.5H4V15.5C4 15.7455 4.17688 15.9496 4.41012 15.9919L4.5 16H6.95963C7.16409 16.5346 7.4322 17.0377 7.75469 17.5H4.5C3.39543 17.5 2.5 16.6046 2.5 15.5V7.5V6.5L6.5 2.5H7.5H13.5ZM18.5 13C18.5 16.0376 16.0376 18.5 13 18.5C9.96243 18.5 7.5 16.0376 7.5 13C7.5 9.96243 9.96243 7.5 13 7.5C16.0376 7.5 18.5 9.96243 18.5 13ZM13 10.5V13.293L14.8536 15.1464L14.1464 15.8536L12 13.7071V10.5H13Z" fill="#333333"/>
</svg>
