<svg width="24" height="24" viewBox="0 0 24 24" fill="none" xmlns="http://www.w3.org/2000/svg">
<path fill-rule="evenodd" clip-rule="evenodd" d="M11 3C11 2.72386 11.2239 2.5 11.5 2.5H12.5C12.7761 2.5 13 2.72386 13 3V15.0859L17.9394 10.1465C18.1347 9.95126 18.4513 9.95126 18.6465 10.1465L19.3536 10.8536C19.5489 11.0489 19.5489 11.3655 19.3536 11.5607L12.7072 18.2072C12.3167 18.5977 11.6835 18.5977 11.293 18.2072L4.64652 11.5607C4.45126 11.3655 4.45126 11.0489 4.64652 10.8536L5.35363 10.1465C5.54889 9.95126 5.86547 9.95126 6.06074 10.1465L11 15.0858V3ZM4 20C4 19.7239 4.22386 19.5 4.5 19.5H19.5C19.7761 19.5 20 19.7239 20 20V21C20 21.2761 19.7761 21.5 19.5 21.5H4.5C4.22386 21.5 4 21.2761 4 21V20Z" fill="#333333"/>
</svg>
