<svg width="20" height="20" viewBox="0 0 20 20" fill="none" xmlns="http://www.w3.org/2000/svg">
<path fill-rule="evenodd" clip-rule="evenodd" d="M9.29974 3.5C9.29974 3.22386 9.5236 3 9.79974 3H10.7997C11.0759 3 11.2997 3.22386 11.2997 3.5V10.6992L14.0799 7.8641C14.2759 7.66418 14.5979 7.6642 14.7939 7.86413L15.4566 8.54008C15.6472 8.73451 15.6472 9.04573 15.4566 9.24016L10.6568 14.1358C10.4608 14.3358 10.1388 14.3358 9.94275 14.1358L5.14297 9.24016C4.95234 9.04573 4.95234 8.73451 5.14297 8.54008L5.80568 7.86413C6.0017 7.6642 6.32367 7.66418 6.51971 7.8641L9.29974 10.6992V3.5ZM5.29974 15.5C5.29974 15.2239 5.5236 15 5.79974 15H14.7997C15.0759 15 15.2997 15.2239 15.2997 15.5V16.5C15.2997 16.7761 15.0759 17 14.7997 17H5.79974C5.5236 17 5.29974 16.7761 5.29974 16.5V15.5Z" fill="#333333"/>
</svg>
