<svg width="20" height="20" viewBox="0 0 20 20" fill="none" xmlns="http://www.w3.org/2000/svg">
<path fill-rule="evenodd" clip-rule="evenodd" d="M4.50084 3.49988C4.50084 3.22374 4.7247 2.99988 5.00084 2.99988H6.00084C6.27699 2.99988 6.50084 3.22374 6.50084 3.49988V13.3331H7.50084C7.91287 13.3331 8.14806 13.8035 7.90084 14.1331L5.90084 16.7998C5.70084 17.0665 5.30084 17.0665 5.10084 16.7998L3.10084 14.1331C2.85363 13.8035 3.08882 13.3331 3.50084 13.3331H4.50084V3.49988ZM13.4999 16.9999C13.7761 16.9999 13.9999 16.776 13.9999 16.4999V15.4999C13.9999 15.2237 13.7761 14.9999 13.4999 14.9999H9.99994C9.72379 14.9999 9.49994 15.2237 9.49994 15.4999V16.4999C9.49994 16.776 9.72379 16.9999 9.99994 16.9999H13.4999ZM14.4999 12.9999C14.7761 12.9999 14.9999 12.776 14.9999 12.4999V11.4999C14.9999 11.2237 14.7761 10.9999 14.4999 10.9999H9.99994C9.72379 10.9999 9.49994 11.2237 9.49994 11.4999V12.4999C9.49994 12.776 9.72379 12.9999 9.99994 12.9999H14.4999ZM9.99994 8.99988C9.72379 8.99988 9.49994 8.77602 9.49994 8.49988V7.49988C9.49994 7.22374 9.72379 6.99988 9.99994 6.99988H15.4999C15.7761 6.99988 15.9999 7.22374 15.9999 7.49988V8.49988C15.9999 8.77602 15.7761 8.99988 15.4999 8.99988H9.99994ZM16.4999 4.99988C16.7761 4.99988 16.9999 4.77602 16.9999 4.49988V3.49988C16.9999 3.22374 16.7761 2.99988 16.4999 2.99988H9.99994C9.72379 2.99988 9.49994 3.22374 9.49994 3.49988V4.49988C9.49994 4.77602 9.72379 4.99988 9.99994 4.99988H16.4999Z" fill="#333333"/>
</svg>
