<svg width="24" height="24" viewBox="0 0 24 24" fill="none" xmlns="http://www.w3.org/2000/svg">
<rect x="5" y="4" width="14" height="16" rx="2" stroke="#333333" stroke-width="2"/>
<rect x="5" y="11" width="14" height="2" fill="#333333"/>
<path d="M8 8.5C8 8.22386 8.22386 8 8.5 8H9.5C9.77614 8 10 8.22386 10 8.5V11H8V8.5Z" fill="#333333"/>
<path d="M8 16.5C8 16.2239 8.22386 16 8.5 16H9.5C9.77614 16 10 16.2239 10 16.5V19H8V16.5Z" fill="#333333"/>
<path d="M11 8.5C11 8.22386 11.2239 8 11.5 8H12.5C12.7761 8 13 8.22386 13 8.5V11H11V8.5Z" fill="#333333"/>
<path d="M11 16.5C11 16.2239 11.2239 16 11.5 16H12.5C12.7761 16 13 16.2239 13 16.5V19H11V16.5Z" fill="#333333"/>
<path d="M14 8.5C14 8.22386 14.2239 8 14.5 8H15.5C15.7761 8 16 8.22386 16 8.5V11H14V8.5Z" fill="#333333"/>
<path d="M14 16.5C14 16.2239 14.2239 16 14.5 16H15.5C15.7761 16 16 16.2239 16 16.5V19H14V16.5Z" fill="#333333"/>
</svg>
