<svg xmlns="http://www.w3.org/2000/svg" width="20" height="20" viewBox="0 0 20 20" fill="none">
  <path d="M6.82328 12.8233C6.62802 12.628 6.62802 12.3114 6.82328 12.1162L8.93934 10.0001L6.82317 7.88394C6.6279 7.68868 6.6279 7.3721 6.82317 7.17683L7.17672 6.82328C7.37198 6.62802 7.68856 6.62802 7.88383 6.82328L10 8.93945L12.1162 6.82328C12.3114 6.62802 12.628 6.62802 12.8233 6.82328L13.1768 7.17683C13.3721 7.3721 13.3721 7.68868 13.1768 7.88394L11.0607 10.0001L13.1767 12.1162C13.372 12.3114 13.372 12.628 13.1767 12.8233L12.8232 13.1768C12.6279 13.3721 12.3113 13.3721 12.1161 13.1768L10 11.0608L7.88394 13.1768C7.68868 13.3721 7.3721 13.3721 7.17683 13.1768L6.82328 12.8233Z" fill="#333333"/>
  <path fill-rule="evenodd" clip-rule="evenodd" d="M10 18C14.4183 18 18 14.4183 18 10C18 5.58172 14.4183 2 10 2C5.58172 2 2 5.58172 2 10C2 14.4183 5.58172 18 10 18ZM10 16.5C13.5899 16.5 16.5 13.5899 16.5 10C16.5 6.41015 13.5899 3.5 10 3.5C6.41015 3.5 3.5 6.41015 3.5 10C3.5 13.5899 6.41015 16.5 10 16.5Z" fill="#333333"/>
</svg>