<svg width="20" height="20" viewBox="0 0 20 20" fill="none" xmlns="http://www.w3.org/2000/svg">
<path d="M10.0002 1.75C11.9644 1.75 13.8649 2.45094 15.3586 3.72656C16.852 5.00219 17.8412 6.7691 18.1486 8.70898C18.4559 10.6491 18.0607 12.6357 17.0343 14.3105C16.008 15.9853 14.418 17.2397 12.55 17.8467C10.6819 18.4536 8.65765 18.3738 6.84294 17.6221C5.02828 16.8703 3.54131 15.4952 2.64958 13.7451C1.75796 11.995 1.51926 9.98409 1.9777 8.07422C2.41429 6.25569 3.45572 4.64208 4.92594 3.49512L4.46501 2.86035C4.29319 2.62386 4.45419 2.29107 4.74626 2.2793L7.46989 2.16895C7.73065 2.15867 7.91791 2.4173 7.82731 2.66211L6.88102 5.21875C6.77941 5.49253 6.41414 5.54286 6.24235 5.30664L5.80778 4.70898C4.62629 5.64521 3.78994 6.9528 3.43669 8.42383C3.06155 9.98649 3.25599 11.6325 3.98551 13.0645C4.71511 14.4964 5.93245 15.6213 7.41715 16.2363C8.90186 16.8513 10.5577 16.9164 12.0861 16.4199C13.6144 15.9234 14.9153 14.8973 15.755 13.5273C16.5948 12.1571 16.9185 10.5317 16.6672 8.94434C16.4157 7.35695 15.6061 5.91097 14.384 4.86719C13.1619 3.82353 11.6072 3.25 10.0002 3.25V1.75Z" fill="#333333"/>
<path d="M10.2502 5C10.5263 5 10.7502 5.22386 10.7502 5.5V9.25H14.5002C14.7763 9.25 15.0002 9.47386 15.0002 9.75V10.25C15.0002 10.5261 14.7763 10.75 14.5002 10.75H9.50016C9.36217 10.7499 9.25016 10.638 9.25016 10.5V5.5C9.25016 5.22392 9.4741 5.0001 9.75016 5H10.2502Z" fill="#333333"/>
</svg>
