<svg width="20" height="20" viewBox="0 0 20 20" fill="none" xmlns="http://www.w3.org/2000/svg">
<path fill-rule="evenodd" clip-rule="evenodd" d="M8.99998 3.5C8.99998 3.22386 9.22384 3 9.49998 3H10.5C10.7761 3 11 3.22386 11 3.5V10.6992L13.7801 7.8641C13.9761 7.66418 14.2981 7.6642 14.4941 7.86413L15.1568 8.54008C15.3474 8.73451 15.3474 9.04573 15.1568 9.24016L10.357 14.1358C10.161 14.3358 9.83898 14.3358 9.64295 14.1358L4.84316 9.24016C4.65254 9.04573 4.65254 8.73451 4.84316 8.54008L5.50587 7.86413C5.70189 7.6642 6.02387 7.66418 6.21991 7.8641L8.99998 10.6992V3.5ZM5 15.5C5 15.2239 5.22386 15 5.5 15H14.5C14.7761 15 15 15.2239 15 15.5V16.5C15 16.7761 14.7761 17 14.5 17H5.5C5.22386 17 5 16.7761 5 16.5V15.5Z" fill="#333333"/>
</svg>
