<svg width="24" height="24" viewBox="0 0 24 24" fill="none" xmlns="http://www.w3.org/2000/svg">
<path fill-rule="evenodd" clip-rule="evenodd" d="M7 3C5.34315 3 4 4.34315 4 6V18C4 19.6569 5.34315 21 7 21H17C18.6569 21 20 19.6569 20 18V6C20 4.34315 18.6569 3 17 3H7ZM6 6C6 5.44772 6.44772 5 7 5H17C17.5523 5 18 5.44772 18 6V11H16V8.5C16 8.22386 15.7761 8 15.5 8H14.5C14.2239 8 14 8.22386 14 8.5V11H13V8.5C13 8.22386 12.7761 8 12.5 8H11.5C11.2239 8 11 8.22386 11 8.5V11H10V8.5C10 8.22386 9.77614 8 9.5 8H8.5C8.22386 8 8 8.22386 8 8.5V11H6V6ZM6 13V18C6 18.5523 6.44772 19 7 19H8V16.5C8 16.2239 8.22386 16 8.5 16H9.5C9.77614 16 10 16.2239 10 16.5V19H11V16.5C11 16.2239 11.2239 16 11.5 16H12.5C12.7761 16 13 16.2239 13 16.5V19H14V16.5C14 16.2239 14.2239 16 14.5 16H15.5C15.7761 16 16 16.2239 16 16.5V19H17C17.5523 19 18 18.5523 18 18V13H6Z" fill="#333333"/>
</svg>
