<svg width="24" height="24" viewBox="0 0 24 24" fill="none" xmlns="http://www.w3.org/2000/svg">
<path fill-rule="evenodd" clip-rule="evenodd" d="M20 6H4V14H11C11.5523 14 12 14.4477 12 15V18H20V6ZM4 4C2.89543 4 2 4.89543 2 6V18C2 19.1046 2.89543 20 4 20H20C21.1046 20 22 19.1046 22 18V6C22 4.89543 21.1046 4 20 4H4ZM13.0674 13.396H16.3603C16.8057 13.396 17.0288 12.8574 16.7138 12.5424L15.7928 11.6214L18.3536 9.06058C18.5488 8.86532 18.5488 8.54874 18.3536 8.35348L17.6464 7.64637C17.4512 7.45111 17.1346 7.45111 16.9393 7.64637L14.3785 10.2072L13.4209 9.24955C13.106 8.93457 12.5674 9.15765 12.5674 9.6031V12.896C12.5674 13.1721 12.7912 13.396 13.0674 13.396Z" fill="#333333"/>
</svg>
