<svg width="24" height="24" viewBox="0 0 24 24" fill="none" xmlns="http://www.w3.org/2000/svg">
<path d="M18.6705 19.9375L17.9576 20.542L18.6705 19.9375ZM17.4565 18.8161L18.1117 19.4828L17.4565 18.8161ZM17.7301 18.8285L18.443 18.224L17.7301 18.8285ZM16.069 19.9222L15.4138 20.5888L16.069 19.9222ZM16.331 19.9222L16.9862 20.5888L16.331 19.9222ZM14.669 18.8039L14.0138 18.1372L14.669 18.8039ZM14.931 18.8039L15.5862 18.1372L14.931 18.8039ZM13.269 19.9222L12.6138 20.5888L13.269 19.9222ZM13.531 19.9222L14.1862 20.5888L13.531 19.9222ZM11.869 18.8039L11.2138 18.1372L11.869 18.8039ZM12.131 18.8039L11.4759 19.4705L12.131 18.8039ZM10.469 19.9222L9.8138 20.5888L10.469 19.9222ZM10.731 19.9222L10.0759 19.2555L10.731 19.9222ZM9.06897 18.8039L9.72414 19.4705L9.06897 18.8039ZM9.33103 18.8039L8.67586 19.4705L9.33103 18.8039ZM7.66897 19.9222L8.32414 19.2555L7.66897 19.9222ZM7.93103 19.9222L7.27586 19.2555L7.93103 19.9222ZM6.26988 18.8285L5.55696 18.224L6.26988 18.8285ZM6.5435 18.8161L7.19867 18.1494L6.5435 18.8161ZM5.32953 19.9375L6.04244 20.542L5.32953 19.9375ZM5.93472 5.86945C5.93472 5.35321 6.35321 4.93472 6.86945 4.93472V3.06528C5.32075 3.06528 4.06528 4.32075 4.06528 5.86945H5.93472ZM5.93472 19.8166V5.86945H4.06528V19.8166H5.93472ZM5.55696 18.224L4.61661 19.3329L6.04244 20.542L6.98279 19.4331L5.55696 18.224ZM8.32414 19.2555L7.19867 18.1494L5.88833 19.4828L7.0138 20.5888L8.32414 19.2555ZM8.4138 18.1372L7.27586 19.2555L8.5862 20.5888L9.72414 19.4705L8.4138 18.1372ZM11.1241 19.2555L9.9862 18.1372L8.67586 19.4705L9.8138 20.5888L11.1241 19.2555ZM11.2138 18.1372L10.0759 19.2555L11.3862 20.5888L12.5241 19.4705L11.2138 18.1372ZM13.9241 19.2555L12.7862 18.1372L11.4759 19.4705L12.6138 20.5888L13.9241 19.2555ZM14.0138 18.1372L12.8759 19.2555L14.1862 20.5888L15.3241 19.4705L14.0138 18.1372ZM16.7241 19.2555L15.5862 18.1372L14.2759 19.4705L15.4138 20.5888L16.7241 19.2555ZM16.8013 18.1494L15.6759 19.2555L16.9862 20.5888L18.1117 19.4828L16.8013 18.1494ZM19.3834 19.3329L18.443 18.224L17.0172 19.4331L17.9576 20.542L19.3834 19.3329ZM18.0653 5.86945V19.8166H19.9347V5.86945H18.0653ZM17.1306 4.93472C17.6468 4.93472 18.0653 5.35321 18.0653 5.86945H19.9347C19.9347 4.32075 18.6793 3.06528 17.1306 3.06528V4.93472ZM6.86945 4.93472H17.1306V3.06528H6.86945V4.93472ZM17.9576 20.542C18.633 21.3385 19.9347 20.8609 19.9347 19.8166H18.0653C18.0653 19.1204 18.9331 18.8019 19.3834 19.3329L17.9576 20.542ZM18.1117 19.4828C17.8017 19.7874 17.2983 19.7645 17.0172 19.4331L18.443 18.224C18.0214 17.7268 17.2663 17.6925 16.8013 18.1494L18.1117 19.4828ZM15.4138 20.5888C15.8502 21.0177 16.5498 21.0177 16.9862 20.5888L15.6759 19.2555C15.9668 18.9696 16.4332 18.9696 16.7241 19.2555L15.4138 20.5888ZM15.3241 19.4705C15.0332 19.7565 14.5668 19.7565 14.2759 19.4705L15.5862 18.1372C15.1498 17.7083 14.4502 17.7083 14.0138 18.1372L15.3241 19.4705ZM12.6138 20.5888C13.0502 21.0177 13.7498 21.0177 14.1862 20.5888L12.8759 19.2555C13.1668 18.9696 13.6332 18.9696 13.9241 19.2555L12.6138 20.5888ZM12.5241 19.4705C12.2332 19.7565 11.7668 19.7565 11.4759 19.4705L12.7862 18.1372C12.3498 17.7083 11.6502 17.7083 11.2138 18.1372L12.5241 19.4705ZM9.8138 20.5888C10.2502 21.0177 10.9498 21.0177 11.3862 20.5888L10.0759 19.2555C10.3668 18.9696 10.8332 18.9696 11.1241 19.2555L9.8138 20.5888ZM9.72414 19.4705C9.4332 19.7565 8.9668 19.7565 8.67586 19.4705L9.9862 18.1372C9.5498 17.7083 8.8502 17.7083 8.4138 18.1372L9.72414 19.4705ZM7.0138 20.5888C7.4502 21.0177 8.1498 21.0177 8.5862 20.5888L7.27586 19.2555C7.5668 18.9696 8.0332 18.9696 8.32414 19.2555L7.0138 20.5888ZM6.98279 19.4331C6.70173 19.7645 6.19829 19.7874 5.88833 19.4828L7.19867 18.1494C6.73373 17.6925 5.97856 17.7268 5.55696 18.224L6.98279 19.4331ZM4.06528 19.8166C4.06528 20.8609 5.36703 21.3385 6.04244 20.542L4.61661 19.3329C5.06689 18.8019 5.93472 19.1204 5.93472 19.8166H4.06528Z" fill="#333333"/>
<rect x="8" y="7" width="2" height="2" rx="0.5" fill="#333333"/>
<rect x="8" y="11" width="2" height="2" rx="0.5" fill="#333333"/>
<rect x="11" y="7" width="5" height="2" rx="0.5" fill="#333333"/>
<rect x="11" y="11" width="5" height="2" rx="0.5" fill="#333333"/>
</svg>
