<svg width="24" height="24" viewBox="0 0 24 24" fill="none" xmlns="http://www.w3.org/2000/svg">
<rect x="3" y="5" width="18" height="14" rx="1" stroke="#333333" stroke-width="2"/>
<path d="M4 14H11C11.5523 14 12 14.4477 12 15V18H4V14Z" fill="#333333"/>
<path fill-rule="evenodd" clip-rule="evenodd" d="M16.3603 13.396H13.0674C12.7912 13.396 12.5674 13.1721 12.5674 12.896V9.6031C12.5674 9.15765 13.106 8.93457 13.4209 9.24955L14.3785 10.2072L16.9393 7.64637C17.1346 7.45111 17.4512 7.45111 17.6464 7.64637L18.3536 8.35348C18.5488 8.54874 18.5488 8.86532 18.3536 9.06058L15.7928 11.6214L16.7138 12.5424C17.0288 12.8574 16.8057 13.396 16.3603 13.396Z" fill="#333333"/>
</svg>
