<svg width="24" height="24" viewBox="0 0 24 24" fill="none" xmlns="http://www.w3.org/2000/svg">
<path fill-rule="evenodd" clip-rule="evenodd" d="M5.93488 5.80417C5.93488 5.28794 6.35337 4.86945 6.8696 4.86945H17.1307C17.6469 4.86945 18.0654 5.28794 18.0654 5.80417V17.8689C17.6549 17.676 17.1477 17.7439 16.8015 18.0842L16.2002 18.6751L15.5864 18.0719C15.15 17.643 14.4504 17.643 14.014 18.0719L13.4002 18.6751L12.7864 18.0719C12.35 17.643 11.6504 17.643 11.2139 18.0719L10.6002 18.6751L9.98636 18.0719C9.54995 17.643 8.85035 17.643 8.41395 18.0719L7.80015 18.6751L7.19882 18.0842C6.85258 17.7439 6.3454 17.676 5.93488 17.8689V5.80417ZM17.9577 20.4767L17.5378 19.9816L16.9864 20.5236C16.55 20.9524 15.8504 20.9524 15.4139 20.5236L14.8002 19.9204L14.1864 20.5236C13.75 20.9524 13.0504 20.9524 12.6139 20.5236L12.0002 19.9204L11.3864 20.5236C10.95 20.9524 10.2504 20.9524 9.81395 20.5236L9.20015 19.9204L8.58636 20.5236C8.14995 20.9524 7.45035 20.9524 7.01395 20.5236L6.46247 19.9816L6.0426 20.4767C5.36719 21.2732 4.06543 20.7956 4.06543 19.7513V5.80417C4.06543 4.25547 5.3209 3 6.8696 3H17.1307C18.6794 3 19.9349 4.25547 19.9349 5.80417V19.7513C19.9349 20.7956 18.6331 21.2732 17.9577 20.4767ZM8 7.5C8 7.22386 8.22386 7 8.5 7H9.5C9.77614 7 10 7.22386 10 7.5V8.5C10 8.77614 9.77614 9 9.5 9H8.5C8.22386 9 8 8.77614 8 8.5V7.5ZM8 11.5C8 11.2239 8.22386 11 8.5 11H9.5C9.77614 11 10 11.2239 10 11.5V12.5C10 12.7761 9.77614 13 9.5 13H8.5C8.22386 13 8 12.7761 8 12.5V11.5ZM11.5 7C11.2239 7 11 7.22386 11 7.5V8.5C11 8.77614 11.2239 9 11.5 9H15.5C15.7761 9 16 8.77614 16 8.5V7.5C16 7.22386 15.7761 7 15.5 7H11.5ZM11 11.5C11 11.2239 11.2239 11 11.5 11H15.5C15.7761 11 16 11.2239 16 11.5V12.5C16 12.7761 15.7761 13 15.5 13H11.5C11.2239 13 11 12.7761 11 12.5V11.5Z" fill="#333333"/>
</svg>
