<svg width="20" height="20" viewBox="0 0 20 20" fill="none" xmlns="http://www.w3.org/2000/svg">
<path fill-rule="evenodd" clip-rule="evenodd" d="M16 4C17.1046 4 18 4.89543 18 6V14L17.9893 14.2041C17.887 15.2128 17.0357 16 16 16H4C2.96435 16 2.113 15.2128 2.01074 14.2041L2 14V6C2 4.89543 2.89543 4 4 4H16ZM10.7266 10.4023C10.2919 10.7128 9.70806 10.7128 9.27344 10.4023L3.5 6.27832V14C3.5 14.2761 3.72386 14.5 4 14.5H16C16.2761 14.5 16.5 14.2761 16.5 14V6.27832L10.7266 10.4023ZM10 9.07715L15.0098 5.5H4.99023L10 9.07715Z" fill="#333333"/>
</svg>
