<svg width="36" height="36" viewBox="0 0 36 36" fill="none" xmlns="http://www.w3.org/2000/svg">
<path fill-rule="evenodd" clip-rule="evenodd" d="M18 33C26.2843 33 33 26.2843 33 18C33 9.71573 26.2843 3 18 3C9.71573 3 3 9.71573 3 18C3 26.2843 9.71573 33 18 33ZM16.7142 12.6289C16.7142 12.5184 16.8038 12.4289 16.9142 12.4289H19.0857C19.1961 12.4289 19.2857 12.5184 19.2857 12.6289V19.9432C19.2857 20.0536 19.1961 20.1432 19.0857 20.1432H16.9142C16.8038 20.1432 16.7142 20.0536 16.7142 19.9432V12.6289ZM19.2857 23.1422C19.2857 23.8523 18.7101 24.4279 18 24.4279C17.2899 24.4279 16.7143 23.8523 16.7143 23.1422C16.7143 22.4321 17.2899 21.8565 18 21.8565C18.7101 21.8565 19.2857 22.4321 19.2857 23.1422Z" fill="#FF6666"/>
</svg>
