<svg width="30" height="30" viewBox="0 0 30 30" fill="none" xmlns="http://www.w3.org/2000/svg">
<circle cx="15" cy="15" r="15" fill="white"/>
<path fill-rule="evenodd" clip-rule="evenodd" d="M20.6492 8.44733L21.5392 9.34018C21.8363 9.63826 22 10.0348 22 10.4566C22 10.8784 21.8363 11.275 21.5392 11.573L20.449 12.6667L17.3333 9.54102L18.4235 8.44733C19.0177 7.85118 20.0544 7.8506 20.6492 8.44733ZM8.9443 18.0493L16.6599 10.3333L19.6667 13.3401L11.9504 21.0555C11.9116 21.0943 11.863 21.1222 11.8095 21.1356L8.37695 21.9909C8.3527 21.997 8.32778 22 8.30343 22C8.2239 22 8.14616 21.9684 8.0891 21.9114C8.01369 21.8359 7.98333 21.7261 8.00891 21.6227L8.8641 18.1902C8.87745 18.1374 8.90548 18.0882 8.9443 18.0493Z" fill="#3299FE"/>
</svg>
