<svg width="24" height="24" viewBox="0 0 24 24" fill="none" xmlns="http://www.w3.org/2000/svg">
<path fill-rule="evenodd" clip-rule="evenodd" d="M21.6198 9.25952C21.8674 10.1304 22 11.0497 22 12C22 17.5228 17.5228 22 12 22C6.47715 22 2 17.5228 2 12C2 6.47715 6.47715 2 12 2C12.9503 2 13.8696 2.13255 14.7405 2.38017C14.3928 2.94427 14.154 3.58265 14.0535 4.266C13.3982 4.09246 12.7099 4 12 4C7.58172 4 4 7.58172 4 12C4 16.4183 7.58172 20 12 20C16.4183 20 20 16.4183 20 12C20 11.2901 19.9075 10.6018 19.734 9.94651C20.4173 9.84598 21.0557 9.60721 21.6198 9.25952Z" fill="#333333"/>
<path fill-rule="evenodd" clip-rule="evenodd" d="M18.45 2C18.3395 2 18.25 2.08954 18.25 2.2V4.25H16.2C16.0895 4.25 16 4.33954 16 4.45V5.55C16 5.66046 16.0895 5.75 16.2 5.75H18.25V7.8C18.25 7.91046 18.3395 8 18.45 8H19.55C19.6605 8 19.75 7.91046 19.75 7.8V5.75H21.8C21.9105 5.75 22 5.66046 22 5.55V4.45C22 4.33954 21.9105 4.25 21.8 4.25H19.75V2.2C19.75 2.08954 19.6605 2 19.55 2H18.45Z" fill="#333333"/>
<path d="M9.66667 11.3333C10.311 11.3333 10.8333 10.811 10.8333 10.1667C10.8333 9.52233 10.311 9 9.66667 9C9.02233 9 8.5 9.52233 8.5 10.1667C8.5 10.811 9.02233 11.3333 9.66667 11.3333Z" fill="#333333"/>
<path d="M14.3333 11.3333C14.9777 11.3333 15.5 10.811 15.5 10.1667C15.5 9.52233 14.9777 9 14.3333 9C13.689 9 13.1667 9.52233 13.1667 10.1667C13.1667 10.811 13.689 11.3333 14.3333 11.3333Z" fill="#333333"/>
<path d="M9.7647 12.7598C9.9434 12.4918 10.3056 12.4193 10.5736 12.598C11.0518 12.9168 12.2995 13.3493 13.4265 12.598C13.6945 12.4193 14.0567 12.4918 14.2354 12.7598C14.4141 13.0279 14.3417 13.3901 14.0736 13.5688C12.4006 14.6841 10.615 14.0278 9.92649 13.5688C9.65843 13.3901 9.58599 13.0279 9.7647 12.7598Z" fill="#333333"/>
</svg>
