<svg width="20" height="20" viewBox="0 0 20 20" fill="none" xmlns="http://www.w3.org/2000/svg">
<path fill-rule="evenodd" clip-rule="evenodd" d="M15.6492 3.44733L16.5392 4.34018C16.8363 4.63826 17 5.03484 17 5.45664C17 5.87843 16.8363 6.27502 16.5392 6.57298L15.449 7.66667L12.3333 4.54102L13.4235 3.44733C14.0177 2.85118 15.0544 2.8506 15.6492 3.44733ZM3.9443 13.0493L11.6599 5.33333L14.6667 8.34009L6.95044 16.0555C6.91162 16.0943 6.86302 16.1222 6.80952 16.1356L3.37695 16.9909C3.3527 16.997 3.32778 17 3.30343 17C3.2239 17 3.14616 16.9684 3.0891 16.9114C3.01369 16.8359 2.98333 16.7261 3.00891 16.6227L3.8641 13.1902C3.87745 13.1374 3.90548 13.0882 3.9443 13.0493Z" fill="#333333"/>
</svg>
