<svg width="20" height="20" viewBox="0 0 20 20" fill="none" xmlns="http://www.w3.org/2000/svg">
<path fill-rule="evenodd" clip-rule="evenodd" d="M5.6142 14.1358L5.70258 13.3403L13.1087 5.93423L13.8158 6.64134L6.40969 14.0474L5.6142 14.1358ZM14.8764 7.702L7.22231 15.3561C7.14203 15.4364 7.03682 15.487 6.92397 15.4995L4.84808 15.7302C4.37039 15.7832 3.96676 15.3796 4.01984 14.9019L4.2505 12.826C4.26303 12.7132 4.3136 12.608 4.39388 12.5277L12.048 4.87357L13.4622 3.45936L13.639 3.28254C13.9319 2.98964 14.4068 2.98964 14.6997 3.28254L16.4675 5.0503C16.7604 5.3432 16.7603 5.81807 16.4675 6.11096L16.2906 6.28778L14.8764 7.702Z" fill="#333333"/>
</svg>
