<svg width="20" height="20" viewBox="0 0 20 20" fill="none" xmlns="http://www.w3.org/2000/svg">
<path fill-rule="evenodd" clip-rule="evenodd" d="M4.28108 4.45626C4.01296 4.09882 4.04275 3.59157 4.37046 3.26742C4.73094 2.91086 5.3154 2.91086 5.67589 3.26742L11.8297 9.35438L11.9191 9.45679C12.1872 9.81423 12.1574 10.3215 11.8297 10.6456L5.67589 16.7326L5.57236 16.821C5.21099 17.0862 4.69817 17.0567 4.37046 16.7326L4.28108 16.6302C4.01296 16.2727 4.04275 15.7655 4.37046 15.4413L9.87117 10L4.37046 4.55866L4.28108 4.45626ZM15.0001 3C14.503 3 14.1001 3.40294 14.1001 3.9V16.1C14.1001 16.5971 14.503 17 15.0001 17C15.4972 17 15.9001 16.5971 15.9001 16.1V3.9C15.9001 3.40294 15.4972 3 15.0001 3Z" fill="#333333"/>
</svg>
