<svg width="20" height="20" viewBox="0 0 20 20" fill="none" xmlns="http://www.w3.org/2000/svg">
<g id="shopl/ic-&#8;flexible-working">
<path id="Union" fill-rule="evenodd" clip-rule="evenodd" d="M10.0002 4.08325C6.73248 4.08325 4.0835 6.73223 4.0835 9.99992C4.0835 13.2676 6.73248 15.9166 10.0002 15.9166C10.6198 15.9166 11.2158 15.8216 11.7753 15.6459C12.1705 15.5218 12.5914 15.7415 12.7155 16.1367C12.8397 16.5319 12.6199 16.9529 12.2247 17.077C11.5215 17.2978 10.774 17.4166 10.0002 17.4166C5.90405 17.4166 2.5835 14.096 2.5835 9.99992C2.5835 5.90381 5.90405 2.58325 10.0002 2.58325C13.7189 2.58325 16.7972 5.31938 17.334 8.88845C17.3956 9.29805 17.1135 9.68005 16.7039 9.74166C16.2943 9.80327 15.9123 9.52116 15.8507 9.11155C15.4226 6.26552 12.9656 4.08325 10.0002 4.08325ZM10 6.25C10.4142 6.25 10.75 6.58579 10.75 7V10C10.75 10.1989 10.671 10.3897 10.5303 10.5303L8.53033 12.5303C8.23744 12.8232 7.76256 12.8232 7.46967 12.5303C7.17678 12.2374 7.17678 11.7626 7.46967 11.4697L9.25 9.68934V7C9.25 6.58579 9.58579 6.25 10 6.25ZM19.0644 11.4939C19.3372 11.1822 19.3056 10.7083 18.9939 10.4356C18.6822 10.1628 18.2083 10.1944 17.9356 10.5061L14.9635 13.9028L13.5303 12.4697C13.2374 12.1768 12.7626 12.1768 12.4697 12.4697C12.1768 12.7626 12.1768 13.2374 12.4697 13.5303L14.4697 15.5303C14.6164 15.6771 14.8175 15.7565 15.025 15.7496C15.2324 15.7427 15.4277 15.6501 15.5644 15.4939L19.0644 11.4939Z" fill="#333333"/>
</g>
</svg>
