<svg width="24" height="24" viewBox="0 0 24 24" fill="none" xmlns="http://www.w3.org/2000/svg">
<path fill-rule="evenodd" clip-rule="evenodd" d="M20 6H4V14H11C11.5523 14 12 14.4477 12 15V18H20V6ZM4 4C2.89543 4 2 4.89543 2 6V18C2 19.1046 2.89543 20 4 20H20C21.1046 20 22 19.1046 22 18V6C22 4.89543 21.1046 4 20 4H4ZM18 7.5H14.7071C14.2617 7.5 14.0386 8.03857 14.3536 8.35355L15.2746 9.27462L12.7138 11.8354C12.5186 12.0307 12.5186 12.3473 12.7138 12.5425L13.4209 13.2496C13.6162 13.4449 13.9328 13.4449 14.128 13.2496L16.6888 10.6888L17.6464 11.6464C17.9614 11.9614 18.5 11.7383 18.5 11.2929V8C18.5 7.72386 18.2761 7.5 18 7.5Z" fill="#333333"/>
</svg>
