<svg width="20" height="20" viewBox="0 0 20 20" fill="none" xmlns="http://www.w3.org/2000/svg">
<path d="M7 2.75C7.97933 2.75 8.81001 3.37657 9.11914 4.25H16.25C16.6642 4.25 17 4.58579 17 5C17 5.41421 16.6642 5.75 16.25 5.75H9.11914C8.81001 6.62343 7.97933 7.25 7 7.25C6.02067 7.25 5.18999 6.62343 4.88086 5.75H3.75C3.33579 5.75 3 5.41421 3 5C3 4.58579 3.33579 4.25 3.75 4.25H4.88086C5.18999 3.37657 6.02067 2.75 7 2.75ZM7 4.25C6.58579 4.25 6.25 4.58579 6.25 5C6.25 5.41421 6.58579 5.75 7 5.75C7.41421 5.75 7.75 5.41421 7.75 5C7.75 4.58579 7.41421 4.25 7 4.25Z" fill="#333333"/>
<path d="M13 7.75C13.9793 7.75 14.81 8.37657 15.1191 9.25H16.25C16.6642 9.25 17 9.58579 17 10C17 10.4142 16.6642 10.75 16.25 10.75H15.1191C14.81 11.6234 13.9793 12.25 13 12.25C12.0207 12.25 11.19 11.6234 10.8809 10.75H3.75C3.33579 10.75 3 10.4142 3 10C3 9.58579 3.33579 9.25 3.75 9.25H10.8809C11.19 8.37657 12.0207 7.75 13 7.75ZM13 9.25C12.5858 9.25 12.25 9.58579 12.25 10C12.25 10.4142 12.5858 10.75 13 10.75C13.4142 10.75 13.75 10.4142 13.75 10C13.75 9.58579 13.4142 9.25 13 9.25Z" fill="#333333"/>
<path d="M8 12.75C8.97933 12.75 9.81001 13.3766 10.1191 14.25H16.25C16.6642 14.25 17 14.5858 17 15C17 15.4142 16.6642 15.75 16.25 15.75H10.1191C9.81001 16.6234 8.97933 17.25 8 17.25C7.02067 17.25 6.18999 16.6234 5.88086 15.75H3.75C3.33579 15.75 3 15.4142 3 15C3 14.5858 3.33579 14.25 3.75 14.25H5.88086C6.18999 13.3766 7.02067 12.75 8 12.75ZM8 14.25C7.58579 14.25 7.25 14.5858 7.25 15C7.25 15.4142 7.58579 15.75 8 15.75C8.41421 15.75 8.75 15.4142 8.75 15C8.75 14.5858 8.41421 14.25 8 14.25Z" fill="#333333"/>
</svg>
