<svg width="20" height="20" viewBox="0 0 20 20" fill="none" xmlns="http://www.w3.org/2000/svg">
<rect x="3" y="4.25" width="14" height="1.5" rx="0.75" fill="#333333"/>
<rect x="3" y="9.25" width="14" height="1.5" rx="0.75" fill="#333333"/>
<rect x="3" y="14.25" width="14" height="1.5" rx="0.75" fill="#333333"/>
<path d="M8.5 5C8.5 5.82843 7.82843 6.5 7 6.5C6.17157 6.5 5.5 5.82843 5.5 5C5.5 4.17157 6.17157 3.5 7 3.5C7.82843 3.5 8.5 4.17157 8.5 5Z" fill="white"/>
<path fill-rule="evenodd" clip-rule="evenodd" d="M7 4.25C6.58579 4.25 6.25 4.58579 6.25 5C6.25 5.41421 6.58579 5.75 7 5.75C7.41421 5.75 7.75 5.41421 7.75 5C7.75 4.58579 7.41421 4.25 7 4.25ZM4.75 5C4.75 3.75736 5.75736 2.75 7 2.75C8.24264 2.75 9.25 3.75736 9.25 5C9.25 6.24264 8.24264 7.25 7 7.25C5.75736 7.25 4.75 6.24264 4.75 5Z" fill="#333333"/>
<path d="M14.5 10C14.5 10.8284 13.8284 11.5 13 11.5C12.1716 11.5 11.5 10.8284 11.5 10C11.5 9.17157 12.1716 8.5 13 8.5C13.8284 8.5 14.5 9.17157 14.5 10Z" fill="white"/>
<path fill-rule="evenodd" clip-rule="evenodd" d="M13 9.25C12.5858 9.25 12.25 9.58579 12.25 10C12.25 10.4142 12.5858 10.75 13 10.75C13.4142 10.75 13.75 10.4142 13.75 10C13.75 9.58579 13.4142 9.25 13 9.25ZM10.75 10C10.75 8.75736 11.7574 7.75 13 7.75C14.2426 7.75 15.25 8.75736 15.25 10C15.25 11.2426 14.2426 12.25 13 12.25C11.7574 12.25 10.75 11.2426 10.75 10Z" fill="#333333"/>
<path d="M9.5 15C9.5 15.8284 8.82843 16.5 8 16.5C7.17157 16.5 6.5 15.8284 6.5 15C6.5 14.1716 7.17157 13.5 8 13.5C8.82843 13.5 9.5 14.1716 9.5 15Z" fill="white"/>
<path fill-rule="evenodd" clip-rule="evenodd" d="M8 14.25C7.58579 14.25 7.25 14.5858 7.25 15C7.25 15.4142 7.58579 15.75 8 15.75C8.41421 15.75 8.75 15.4142 8.75 15C8.75 14.5858 8.41421 14.25 8 14.25ZM5.75 15C5.75 13.7574 6.75736 12.75 8 12.75C9.24264 12.75 10.25 13.7574 10.25 15C10.25 16.2426 9.24264 17.25 8 17.25C6.75736 17.25 5.75 16.2426 5.75 15Z" fill="#333333"/>
</svg>
