<svg width="20" height="20" viewBox="0 0 20 20" fill="none" xmlns="http://www.w3.org/2000/svg">
<path fill-rule="evenodd" clip-rule="evenodd" d="M3.48736 5.75356C2.67546 4.5937 3.50522 3 4.92101 3H15.0797C16.4955 3 17.3253 4.5937 16.5134 5.75356L12.2503 11.8436V15.1396C12.2503 15.6777 11.906 16.1553 11.3956 16.3255L9.39561 16.9921C8.5862 17.2619 7.75033 16.6595 7.75033 15.8063V11.8435L3.48736 5.75356ZM4.92101 4.5C4.71876 4.5 4.60022 4.72767 4.71621 4.89337L9.25033 11.3707V15.4594L10.7503 14.9594V11.3708L15.2845 4.89337C15.4005 4.72767 15.282 4.5 15.0797 4.5H4.92101Z" fill="#333333"/>
</svg>
