<svg width="24" height="24" viewBox="0 0 24 24" fill="none" xmlns="http://www.w3.org/2000/svg">
<rect x="3" y="5" width="18" height="14" rx="1" stroke="#333333" stroke-width="2"/>
<path d="M4 14H11C11.5523 14 12 14.4477 12 15V18H4V14Z" fill="#333333"/>
<path fill-rule="evenodd" clip-rule="evenodd" d="M14.7071 7.5H18C18.2761 7.5 18.5 7.72386 18.5 8V11.2929C18.5 11.7383 17.9614 11.9614 17.6464 11.6464L16.6888 10.6888L14.128 13.2496C13.9328 13.4449 13.6162 13.4449 13.4209 13.2496L12.7138 12.5425C12.5186 12.3473 12.5186 12.0307 12.7138 11.8354L15.2746 9.27462L14.3536 8.35355C14.0386 8.03857 14.2617 7.5 14.7071 7.5Z" fill="#333333"/>
</svg>
