<svg width="12" height="12" viewBox="0 0 12 12" fill="none" xmlns="http://www.w3.org/2000/svg">
<path fill-rule="evenodd" clip-rule="evenodd" d="M10.4189 2.64032C10.7117 2.34742 10.7117 1.87255 10.4189 1.57966C10.126 1.28676 9.65109 1.28676 9.3582 1.57966L5.99954 4.93831L2.64089 1.57966C2.348 1.28677 1.87313 1.28677 1.58023 1.57966C1.28734 1.87256 1.28734 2.34743 1.58023 2.64032L4.93888 5.99897L1.58002 9.35783C1.28713 9.65072 1.28713 10.1256 1.58002 10.4185C1.87291 10.7114 2.34779 10.7114 2.64068 10.4185L5.99954 7.05963L9.35841 10.4185C9.6513 10.7114 10.1262 10.7114 10.4191 10.4185C10.712 10.1256 10.712 9.65073 10.4191 9.35784L7.0602 5.99897L10.4189 2.64032Z" fill="#333333"/>
</svg>
