<svg width="20" height="20" viewBox="0 0 20 20" fill="none" xmlns="http://www.w3.org/2000/svg">
<path fill-rule="evenodd" clip-rule="evenodd" d="M3.5 3C3.22386 3 3 3.22386 3 3.5V8.5C3 8.77614 3.22386 9 3.5 9H8.5C8.77614 9 9 8.77614 9 8.5V3.5C9 3.22386 8.77614 3 8.5 3H3.5ZM11.5 11C11.2239 11 11 11.2239 11 11.5V16.5C11 16.7761 11.2239 17 11.5 17H16.5C16.7761 17 17 16.7761 17 16.5V11.5C17 11.2239 16.7761 11 16.5 11H11.5ZM3 11.5C3 11.2239 3.22386 11 3.5 11H8.5C8.77614 11 9 11.2239 9 11.5V16.5C9 16.7761 8.77614 17 8.5 17H3.5C3.22386 17 3 16.7761 3 16.5V11.5ZM11.5 3C11.2239 3 11 3.22386 11 3.5V8.5C11 8.77614 11.2239 9 11.5 9H16.5C16.7761 9 17 8.77614 17 8.5V3.5C17 3.22386 16.7761 3 16.5 3H11.5Z" fill="#333333"/>
</svg>
