<svg width="20" height="20" viewBox="0 0 20 20" fill="none" xmlns="http://www.w3.org/2000/svg">
<path d="M10.0005 2.58325C13.7191 2.58341 16.7977 5.31996 17.3345 8.88892C17.3958 9.29832 17.113 9.67987 16.7036 9.74146C16.2941 9.80291 15.9127 9.52106 15.8511 9.11157C15.423 6.26564 12.9657 4.08341 10.0005 4.08325C6.7328 4.08325 4.0835 6.73256 4.0835 10.0002C4.08367 13.2678 6.73291 15.9163 10.0005 15.9163C10.6199 15.9162 11.2157 15.8214 11.7749 15.6458C12.1701 15.5216 12.5912 15.7418 12.7153 16.137C12.8393 16.532 12.6201 16.9532 12.2251 17.0774C11.522 17.2982 10.7742 17.4162 10.0005 17.4163C5.90448 17.4163 2.58367 14.0962 2.5835 10.0002C2.5835 5.90413 5.90438 2.58325 10.0005 2.58325ZM17.936 10.5061C18.2088 10.1946 18.682 10.1631 18.9937 10.4358C19.3054 10.7085 19.3367 11.1817 19.064 11.4934L15.564 15.4934C15.4273 15.6496 15.2324 15.7424 15.0249 15.7493C14.8175 15.7562 14.616 15.6773 14.4692 15.5305L12.4692 13.5305C12.1766 13.2377 12.1767 12.7629 12.4692 12.47C12.7621 12.1771 13.2379 12.1771 13.5308 12.47L14.9634 13.9026L17.936 10.5061ZM10.0005 6.25024C10.4145 6.25051 10.7505 6.58619 10.7505 7.00024V10.0002C10.7504 10.199 10.6713 10.3899 10.5308 10.5305L8.53076 12.5305C8.23787 12.8234 7.76213 12.8234 7.46924 12.5305C7.17659 12.2377 7.17675 11.7629 7.46924 11.47L9.25049 9.6897V7.00024C9.25049 6.58603 9.58627 6.25024 10.0005 6.25024Z" fill="#333333"/>
</svg>
