<svg width="20" height="20" viewBox="0 0 20 20" fill="none" xmlns="http://www.w3.org/2000/svg">
<path fill-rule="evenodd" clip-rule="evenodd" d="M15.7189 4.45626C15.987 4.09882 15.9573 3.59157 15.6295 3.26742C15.2691 2.91086 14.6846 2.91086 14.3241 3.26742L8.17026 9.35438L8.08089 9.45679C7.81276 9.81423 7.84255 10.3215 8.17026 10.6456L14.3241 16.7326L14.4276 16.821C14.789 17.0862 15.3018 17.0567 15.6295 16.7326L15.7189 16.6302C15.987 16.2727 15.9573 15.7655 15.6295 15.4413L10.1288 10L15.6295 4.55866L15.7189 4.45626ZM5.0001 3C4.50304 3 4.1001 3.40294 4.1001 3.9V16.1C4.1001 16.5971 4.50304 17 5.0001 17C5.49715 17 5.9001 16.5971 5.9001 16.1V3.9C5.9001 3.40294 5.49715 3 5.0001 3Z" fill="#333333"/>
</svg>
