<svg width="20" height="20" viewBox="0 0 20 20" fill="none" xmlns="http://www.w3.org/2000/svg">
<path fill-rule="evenodd" clip-rule="evenodd" d="M3.95824 3.00023L3.95802 3L3.95779 3.00023H3.00001V3.958L3 3.95802L3.00001 3.95803V8.19378H4.35485V5.31287L7.47074 8.42876L8.42876 7.47074L5.31308 4.35507H8.19356V3.00023H3.95824ZM11.8064 4.35484H15.6451V8.19355H16.9999V3H11.8064V4.35484ZM8.1936 15.6452L4.35489 15.6452L4.35489 11.8065H3.00006L3.00006 17H8.1936V15.6452ZM16.042 17L16.0418 16.9998H11.8064V15.6449H14.6869L11.5712 12.5293L12.5293 11.5712L15.6451 14.6871V11.8062H17V16.042L17 16.042L17 16.042V16.9998H16.0422L16.042 17Z" fill="#333333"/>
</svg>
