<svg width="20" height="20" viewBox="0 0 20 20" fill="none" xmlns="http://www.w3.org/2000/svg">
<path d="M5.75 14C5.88807 14 6 14.1119 6 14.25V15.75C6 15.8881 5.88807 16 5.75 16H2.25C2.11193 16 2 15.8881 2 15.75V14.25C2 14.1119 2.11193 14 2.25 14H5.75Z" fill="#333333"/>
<path d="M11.75 14C11.8881 14 12 14.1119 12 14.25V15.75C12 15.8881 11.8881 16 11.75 16H8.25C8.11193 16 8 15.8881 8 15.75V14.25C8 14.1119 8.11193 14 8.25 14H11.75Z" fill="#333333"/>
<path d="M17.75 14C17.8881 14 18 14.1119 18 14.25V15.75C18 15.8881 17.8881 16 17.75 16H14.25C14.1119 16 14 15.8881 14 15.75V14.25C14 14.1119 14.1119 14 14.25 14H17.75Z" fill="#333333"/>
<path d="M5.75 10.75C5.88807 10.75 6 10.8619 6 11V12.5C6 12.6381 5.88807 12.75 5.75 12.75H2.25C2.11193 12.75 2 12.6381 2 12.5V11C2 10.8619 2.11193 10.75 2.25 10.75H5.75Z" fill="#333333"/>
<path d="M11.75 10.75C11.8881 10.75 12 10.8619 12 11V12.5C12 12.6381 11.8881 12.75 11.75 12.75H8.25C8.11193 12.75 8 12.6381 8 12.5V11C8 10.8619 8.11193 10.75 8.25 10.75H11.75Z" fill="#333333"/>
<path d="M17.75 10.75C17.8881 10.75 18 10.8619 18 11V12.5C18 12.6381 17.8881 12.75 17.75 12.75H14.25C14.1119 12.75 14 12.6381 14 12.5V11C14 10.8619 14.1119 10.75 14.25 10.75H17.75Z" fill="#333333"/>
<path d="M11.75 7.25977C11.888 7.25977 11.9999 7.3718 12 7.50977V9.00977C12 9.14784 11.8881 9.25977 11.75 9.25977H8.25C8.11193 9.25977 8 9.14784 8 9.00977V7.50977C8.00012 7.3718 8.11201 7.25977 8.25 7.25977H11.75Z" fill="#333333"/>
<path d="M17.75 7.25977C17.888 7.25977 17.9999 7.3718 18 7.50977V9.00977C18 9.14784 17.8881 9.25977 17.75 9.25977H14.25C14.1119 9.25977 14 9.14784 14 9.00977V7.50977C14.0001 7.3718 14.112 7.25977 14.25 7.25977H17.75Z" fill="#333333"/>
<path d="M11.75 4C11.8881 4 12 4.11193 12 4.25V5.75C12 5.88807 11.8881 6 11.75 6H8.25C8.11193 6 8 5.88807 8 5.75V4.25C8 4.11193 8.11193 4 8.25 4H11.75Z" fill="#333333"/>
</svg>
