<svg width="24" height="24" viewBox="0 0 24 24" fill="none" xmlns="http://www.w3.org/2000/svg">
<mask id="path-1-outside-1_286_4568" maskUnits="userSpaceOnUse" x="3" y="3" width="18" height="19" fill="black">
<rect fill="white" x="3" y="3" width="18" height="19"/>
<path d="M3 5.5C3 4.11929 4.11929 3 5.5 3H18.5C19.8807 3 21 4.11929 21 5.5V18.5C21 19.8807 19.8807 21 18.5 21H5.5C4.11929 21 3 19.8807 3 18.5V5.5Z"/>
</mask>
<path d="M3 5.5C3 4.11929 4.11929 3 5.5 3H18.5C19.8807 3 21 4.11929 21 5.5V18.5C21 19.8807 19.8807 21 18.5 21H5.5C4.11929 21 3 19.8807 3 18.5V5.5Z" fill="url(#paint0_linear_286_4568)"/>
<path d="M3 3H21H3ZM21 18.5C21 20.1569 19.6569 21.5 18 21.5H6C4.34315 21.5 3 20.1569 3 18.5C3 19.6046 4.11929 20.5 5.5 20.5H18.5C19.8807 20.5 21 19.6046 21 18.5ZM3 21V3V21ZM21 3V21V3Z" fill="#8092AA" mask="url(#path-1-outside-1_286_4568)"/>
<path d="M4 5.25C4 4.83579 4.33579 4.5 4.75 4.5H19.25C19.6642 4.5 20 4.83579 20 5.25V17.625C20 18.6605 19.1605 19.5 18.125 19.5H5.875C4.83947 19.5 4 18.6605 4 17.625V5.25Z" fill="url(#paint1_linear_286_4568)"/>
<path d="M4.1875 5.25C4.1875 4.93934 4.43934 4.6875 4.75 4.6875H19.25C19.5607 4.6875 19.8125 4.93934 19.8125 5.25V17.625C19.8125 18.557 19.057 19.3125 18.125 19.3125H5.875C4.94302 19.3125 4.1875 18.557 4.1875 17.625V5.25Z" stroke="url(#paint2_linear_286_4568)" stroke-opacity="0.2" stroke-width="0.375"/>
<path d="M3 5.5C3 4.11929 4.11929 3 5.5 3H18.5C19.8807 3 21 4.11929 21 5.5V8H3V5.5Z" fill="url(#paint3_linear_286_4568)"/>
<circle cx="7.75" cy="5.75" r="0.75" fill="white" stroke="url(#paint4_linear_286_4568)" stroke-width="0.1875"/>
<circle cx="16.25" cy="5.75" r="0.75" fill="white" stroke="url(#paint5_linear_286_4568)" stroke-width="0.1875"/>
<path fill-rule="evenodd" clip-rule="evenodd" d="M8 10.375C8 10.1679 8.16789 10 8.375 10H9.625C9.83211 10 10 10.1679 10 10.375V11.625C10 11.8321 9.83211 12 9.625 12H8.375C8.16789 12 8 11.8321 8 11.625V10.375ZM8 13.375C8 13.1679 8.16789 13 8.375 13H9.625C9.83211 13 10 13.1679 10 13.375V14.625C10 14.8321 9.83211 15 9.625 15H8.375C8.16789 15 8 14.8321 8 14.625V13.375ZM11.375 10C11.1679 10 11 10.1679 11 10.375V11.625C11 11.8321 11.1679 12 11.375 12H12.625C12.8321 12 13 11.8321 13 11.625V10.375C13 10.1679 12.8321 10 12.625 10H11.375ZM11 13.375C11 13.1679 11.1679 13 11.375 13H12.625C12.8321 13 13 13.1679 13 13.375V14.625C13 14.8321 12.8321 15 12.625 15H11.375C11.1679 15 11 14.8321 11 14.625V13.375ZM14.375 13C14.1679 13 14 13.1679 14 13.375V14.625C14 14.8321 14.1679 15 14.375 15H15.625C15.8321 15 16 14.8321 16 14.625V13.375C16 13.1679 15.8321 13 15.625 13H14.375Z" fill="url(#paint6_linear_286_4568)"/>
<rect x="14" y="10" width="2" height="2" rx="0.375" fill="#8092AA"/>
<defs>
<linearGradient id="paint0_linear_286_4568" x1="3" y1="3" x2="21.0275" y2="20.9724" gradientUnits="userSpaceOnUse">
<stop stop-color="#D0DBE6"/>
<stop offset="1" stop-color="#B0BCC8"/>
</linearGradient>
<linearGradient id="paint1_linear_286_4568" x1="4" y1="7.3125" x2="17.9526" y2="21.5119" gradientUnits="userSpaceOnUse">
<stop stop-color="white"/>
<stop offset="1" stop-color="#FFFBF4"/>
</linearGradient>
<linearGradient id="paint2_linear_286_4568" x1="12" y1="4.5" x2="12" y2="19.5" gradientUnits="userSpaceOnUse">
<stop stop-color="white"/>
<stop offset="1" stop-color="#CAC598"/>
</linearGradient>
<linearGradient id="paint3_linear_286_4568" x1="10.9286" y1="3" x2="11.9436" y2="8.01142" gradientUnits="userSpaceOnUse">
<stop stop-color="#FFDE62"/>
<stop offset="1" stop-color="#FFBD0C"/>
</linearGradient>
<linearGradient id="paint4_linear_286_4568" x1="7.1875" y1="4.8125" x2="8.5" y2="6.6875" gradientUnits="userSpaceOnUse">
<stop stop-color="#FFC700"/>
<stop offset="1" stop-color="#FFEBB6"/>
</linearGradient>
<linearGradient id="paint5_linear_286_4568" x1="15.6875" y1="4.8125" x2="17" y2="6.6875" gradientUnits="userSpaceOnUse">
<stop stop-color="#FFC700"/>
<stop offset="1" stop-color="#FFEBB6"/>
</linearGradient>
<linearGradient id="paint6_linear_286_4568" x1="9.75" y1="9.1875" x2="12" y2="15.75" gradientUnits="userSpaceOnUse">
<stop stop-color="#97AFC4"/>
<stop offset="1" stop-color="#C1D0DE"/>
</linearGradient>
</defs>
</svg>
