<svg width="25" height="25" viewBox="0 0 25 25" fill="none" xmlns="http://www.w3.org/2000/svg">
<path fill-rule="evenodd" clip-rule="evenodd" d="M18 0H7V5L12.5 8L18 5V0Z" fill="#3299FE"/>
<path fill-rule="evenodd" clip-rule="evenodd" d="M14 0V6.455L12.5 7L11 6.455V0H14Z" fill="white"/>
<path d="M13.7493 4.44863L15.4583 5.85731C15.7604 6.1063 16.13 6.25934 16.5193 6.29688L18.7238 6.50901C19.6599 6.59919 20.4006 7.33995 20.4908 8.27596L20.7031 10.4805C20.7407 10.8701 20.8937 11.2397 21.1427 11.5416L22.5514 13.2506C23.1495 13.9762 23.1495 15.0237 22.5514 15.7494L21.1427 17.4584C20.8937 17.7602 20.7407 18.1298 20.7031 18.5194L20.4908 20.724C20.4006 21.66 19.6599 22.4008 18.7238 22.4909L16.5193 22.7033C16.1297 22.7408 15.7604 22.8939 15.4583 23.1426L13.7493 24.5515C13.0239 25.1495 11.9761 25.1495 11.2505 24.5515L9.54173 23.1426C9.23965 22.8939 8.87004 22.7408 8.48045 22.7033L6.27615 22.4909C5.34015 22.4008 4.59916 21.66 4.50921 20.724L4.29686 18.5194C4.25933 18.1298 4.10629 17.7602 3.85729 17.4584L2.44862 15.7494C1.85046 15.024 1.85046 13.9762 2.44862 13.2506L3.85729 11.5418C4.10629 11.2397 4.25933 10.8701 4.29686 10.4805L4.50899 8.27596C4.59916 7.34018 5.33993 6.59919 6.27593 6.50923L8.48045 6.29688C8.87004 6.25934 9.23965 6.1063 9.5415 5.85731L11.2505 4.44863C11.9761 3.85046 13.0239 3.85046 13.7493 4.44863Z" fill="#EE9046"/>
<circle cx="12.5" cy="14.5" r="8.5" fill="#F9A059"/>
<circle cx="12.5" cy="14.5" r="5.5" fill="#F9A059" stroke="#D07731"/>
<path d="M13.4261 13.4718L12.5 11.5L11.5729 13.4718L9.5 13.7905L10.9981 15.3271L10.6449 17.5L12.5 16.4753L14.3551 17.5L14.0019 15.3271L15.5 13.7905L13.4261 13.4718Z" fill="#D07731"/>
<path fill-rule="evenodd" clip-rule="evenodd" d="M9.3003 17.6642L15.6642 11.3003C14.8513 10.4964 13.7336 10 12.5 10C10.0147 10 8 12.0147 8 14.5C8 15.7336 8.49638 16.8513 9.3003 17.6642Z" fill="white" fill-opacity="0.2"/>
</svg>
