<svg width="20" height="20" viewBox="0 0 20 20" fill="none" xmlns="http://www.w3.org/2000/svg">
<path d="M11.0708 1.38454L12.5357 2.59198C12.7946 2.8054 13.1114 2.93658 13.4451 2.96876L15.3347 3.15058C16.137 3.22787 16.772 3.86282 16.8493 4.66511L17.0313 6.55471C17.0634 6.88865 17.1946 7.20546 17.408 7.4642L18.6155 8.92904C19.1282 9.55104 19.1282 10.4489 18.6155 11.0709L17.408 12.5358C17.1946 12.7945 17.0634 13.1113 17.0313 13.4452L16.8493 15.3348C16.772 16.1371 16.137 16.7721 15.3347 16.8494L13.4451 17.0314C13.1112 17.0636 12.7946 17.1947 12.5357 17.408L11.0708 18.6156C10.449 19.1281 9.55097 19.1281 8.92898 18.6156L7.46434 17.408C7.20541 17.1947 6.88861 17.0636 6.55467 17.0314L4.66527 16.8494C3.86299 16.7721 3.22786 16.1371 3.15075 15.3348L2.96874 13.4452C2.93656 13.1113 2.80539 12.7945 2.59196 12.5358L1.38453 11.0709C0.871822 10.4491 0.871822 9.55104 1.38453 8.92904L2.59196 7.46439C2.80539 7.20546 2.93656 6.88865 2.96874 6.55471L3.15056 4.66511C3.22786 3.86301 3.86279 3.22787 4.66508 3.15077L6.55467 2.96876C6.88861 2.93658 7.20541 2.8054 7.46415 2.59198L8.92898 1.38454C9.55097 0.871821 10.449 0.871821 11.0708 1.38454Z" fill="#DDDDDD"/>
<circle cx="10" cy="10" r="7.5" fill="#E5E5E5"/>
<path d="M15 10C15 12.7614 12.7614 15 10 15C7.23858 15 5 12.7614 5 10C5 7.23858 7.23858 5 10 5C12.7614 5 15 7.23858 15 10Z" fill="#F0EFEF"/>
<path fill-rule="evenodd" clip-rule="evenodd" d="M10 5.5C7.51472 5.5 5.5 7.51472 5.5 10C5.5 12.4853 7.51472 14.5 10 14.5C12.4853 14.5 14.5 12.4853 14.5 10C14.5 7.51472 12.4853 5.5 10 5.5ZM4.5 10C4.5 6.96243 6.96243 4.5 10 4.5C13.0376 4.5 15.5 6.96243 15.5 10C15.5 13.0376 13.0376 15.5 10 15.5C6.96243 15.5 4.5 13.0376 4.5 10Z" fill="#C4C4C4"/>
<path d="M10.9261 8.97178L10 7L9.07292 8.97178L7 9.29046L8.49811 10.8271L8.14489 13L10 11.9753L11.8551 13L11.5019 10.8271L13 9.29046L10.9261 8.97178Z" fill="#C4C4C4"/>
<path d="M7.18749 13L13 7.18749C12.2575 6.45331 11.2368 6 10.1101 6C7.84017 6 6 7.84017 6 10.1101C6 11.2368 6.45331 12.2575 7.18749 13Z" fill="white" fill-opacity="0.4"/>
</svg>
