<svg width="24" height="24" viewBox="0 0 24 24" fill="none" xmlns="http://www.w3.org/2000/svg">
<path fill-rule="evenodd" clip-rule="evenodd" d="M5.5 8C5.5 6.89543 6.39543 6 7.5 6C8.60457 6 9.5 6.89543 9.5 8C9.5 9.10457 8.60457 10 7.5 10C6.39543 10 5.5 9.10457 5.5 8ZM7.5 4C5.29086 4 3.5 5.79086 3.5 8C3.5 10.2091 5.29086 12 7.5 12C9.70914 12 11.5 10.2091 11.5 8C11.5 5.79086 9.70914 4 7.5 4ZM20.5001 20H15.0003V18H20.0001V17C20.0001 15.8954 19.1046 15 18.0001 15H15.0001C14.8635 15 14.7302 15.0137 14.6014 15.0397C14.3235 14.3882 13.9112 13.8078 13.3994 13.3331C13.8896 13.1189 14.4309 13 15.0001 13H18.0001C20.2092 13 22.0001 14.7909 22.0001 17V18.5C22.0001 19.3284 21.3285 20 20.5001 20ZM16.5 6C15.3954 6 14.5 6.89543 14.5 8C14.5 9.10457 15.3954 10 16.5 10C17.6046 10 18.5 9.10457 18.5 8C18.5 6.89543 17.6046 6 16.5 6ZM12.5 8C12.5 5.79086 14.2909 4 16.5 4C18.7091 4 20.5 5.79086 20.5 8C20.5 10.2091 18.7091 12 16.5 12C14.2909 12 12.5 10.2091 12.5 8ZM6 13C3.79086 13 2 14.7909 2 17V18.5C2 19.3284 2.67157 20 3.5 20H11.5C12.3284 20 13 19.3284 13 18.5V17C13 14.7909 11.2091 13 9 13H6ZM4 17C4 15.8954 4.89543 15 6 15H9C10.1046 15 11 15.8954 11 17V18H4V17Z" fill="#333333"/>
</svg>
