<svg width="24" height="24" viewBox="0 0 24 24" fill="none" xmlns="http://www.w3.org/2000/svg">
<g id="shopl/ic-gradient-doc">
<path id="Rectangle 3186" d="M18 3H6C4.34315 3 3 4.34315 3 6V18C3 19.6569 4.34315 21 6 21H12H18C19.6569 21 21 19.6569 21 18V6C21 4.34315 19.6569 3 18 3Z" fill="url(#paint0_linear_5444_8734)"/>
<path id="Rectangle 3535" d="M7 4.25H15.5C17.5711 4.25 19.25 5.92893 19.25 8V13V17.5C19.25 18.7426 18.2426 19.75 17 19.75H7C5.75736 19.75 4.75 18.7426 4.75 17.5V6.5C4.75 5.25736 5.75736 4.25 7 4.25Z" fill="url(#paint1_linear_5444_8734)" stroke="#C3C3C3" stroke-width="0.5"/>
<path id="Vector 117" d="M7 13.9988C10.75 13.0028 12.625 7.52427 10.75 7.0263C8.68329 6.47741 8.7165 14.7167 11.5 13.4988C12.5 13.0612 14 11.4988 14 11.4988C14 11.4988 13.4477 12.9465 14 13.4988C14.5 13.9988 15.5 13.5 16.5 12.5" stroke="url(#paint2_linear_5444_8734)" stroke-linecap="round" stroke-linejoin="round"/>
<rect id="Rectangle 3541" x="6" y="16" width="4" height="1" rx="0.5" fill="#D9D9D9"/>
<path id="Rectangle 3536" d="M15.5 4C17.7091 4 19.5 5.79086 19.5 8H16.5C15.9477 8 15.5 7.55228 15.5 7V4Z" fill="#C3C3C3"/>
<path id="Rectangle 3539" d="M19 16V11.5L20.9995 9.5V15.5L19 17.5V16Z" fill="white"/>
<path id="Rectangle 3540" d="M15.9467 16.3843C15.9817 16.1804 16.079 15.9925 16.2252 15.8462L21.718 10.3535C21.9133 10.1582 22.2298 10.1582 22.4251 10.3535L23.1322 11.0606C23.3275 11.2558 23.3275 11.5724 23.1322 11.7677L17.6394 17.2605C17.4932 17.4067 17.3052 17.504 17.1014 17.539L16.056 17.7183C15.886 17.7475 15.7382 17.5997 15.7674 17.4296L15.9467 16.3843Z" fill="url(#paint3_linear_5444_8734)"/>
</g>
<defs>
<linearGradient id="paint0_linear_5444_8734" x1="3" y1="3" x2="21.0275" y2="20.9724" gradientUnits="userSpaceOnUse">
<stop stop-color="#9E9E9E"/>
<stop offset="1" stop-color="#434343"/>
</linearGradient>
<linearGradient id="paint1_linear_5444_8734" x1="4.5" y1="7" x2="19.2929" y2="20.2315" gradientUnits="userSpaceOnUse">
<stop stop-color="white"/>
<stop offset="1" stop-color="#FFFBF4"/>
</linearGradient>
<linearGradient id="paint2_linear_5444_8734" x1="7.5" y1="5" x2="15" y2="16" gradientUnits="userSpaceOnUse">
<stop stop-color="#A4A4A4"/>
<stop offset="1" stop-color="#595959"/>
</linearGradient>
<linearGradient id="paint3_linear_5444_8734" x1="17.6508" y1="15.1923" x2="18.9877" y2="16.1712" gradientUnits="userSpaceOnUse">
<stop stop-color="#666666"/>
<stop offset="1" stop-color="#222222"/>
</linearGradient>
</defs>
</svg>
