<svg width="20" height="20" viewBox="0 0 20 20" fill="none" xmlns="http://www.w3.org/2000/svg">
<circle cx="10" cy="10" r="8.5" fill="#FFD45F"/>
<path d="M15.5 10C15.5 13.0376 13.0376 15.5 10 15.5C6.96243 15.5 4.5 13.0376 4.5 10C4.5 6.96243 6.96243 4.5 10 4.5C13.0376 4.5 15.5 6.96243 15.5 10Z" fill="#FFE458"/>
<path fill-rule="evenodd" clip-rule="evenodd" d="M10 5C7.23858 5 5 7.23858 5 10C5 12.7614 7.23858 15 10 15C12.7614 15 15 12.7614 15 10C15 7.23858 12.7614 5 10 5ZM4 10C4 6.68629 6.68629 4 10 4C13.3137 4 16 6.68629 16 10C16 13.3137 13.3137 16 10 16C6.68629 16 4 13.3137 4 10Z" fill="#FFC321"/>
<path d="M6.80025 13.1641L13.1641 6.80025C12.3512 5.99636 11.2336 5.5 10 5.5C7.51472 5.5 5.5 7.51472 5.5 10C5.5 11.2336 5.99636 12.3512 6.80025 13.1641Z" fill="white" fill-opacity="0.3"/>
</svg>
