<svg width="20" height="20" viewBox="0 0 20 20" fill="none" xmlns="http://www.w3.org/2000/svg">
<path fill-rule="evenodd" clip-rule="evenodd" d="M5 3.5C4.72386 3.5 4.5 3.72386 4.5 4V14C4.5 14.2761 4.72386 14.5 5 14.5H6.5C6.77614 14.5 7 14.2761 7 14V4C7 3.72386 6.77614 3.5 6.5 3.5H5ZM9.25 9.69995C8.97386 9.69995 8.75 9.92381 8.75 10.2V14C8.75 14.2761 8.97386 14.5 9.25 14.5H10.75C11.0261 14.5 11.25 14.2761 11.25 14V10.2C11.25 9.92381 11.0261 9.69995 10.75 9.69995H9.25ZM13 7.80003C13 7.52388 13.2239 7.30003 13.5 7.30003H15C15.2761 7.30003 15.5 7.52388 15.5 7.80003V14C15.5 14.2762 15.2761 14.5 15 14.5H13.5C13.2239 14.5 13 14.2762 13 14V7.80003ZM3.2 15.5C3.08954 15.5 3 15.5895 3 15.7V16.3C3 16.4105 3.08954 16.5 3.2 16.5H16.8C16.9105 16.5 17 16.4105 17 16.3V15.7C17 15.5895 16.9105 15.5 16.8 15.5H3.2Z" fill="#333333"/>
</svg>
