<svg width="24" height="24" viewBox="0 0 24 24" fill="none" xmlns="http://www.w3.org/2000/svg">
<path fill-rule="evenodd" clip-rule="evenodd" d="M10.9941 3.34291L4.61605 8.23427C4.22676 8.53281 4 8.98577 4 9.46482V19.4265C4 20.2955 4.73198 21 5.63492 21H18.3651C19.268 21 20 20.2955 20 19.4265V9.46306C20 8.98501 19.7742 8.53289 19.3863 8.23429L13.0342 3.34469C12.438 2.88577 11.5912 2.88503 10.9941 3.34291ZM9.07438 15.8921C8.68192 15.8921 8.36377 16.2103 8.36377 16.6028C8.36377 16.9952 8.68192 17.3134 9.07438 17.3134H14.9259C15.3183 17.3134 15.6365 16.9952 15.6365 16.6028C15.6365 16.2103 15.3183 15.8921 14.9259 15.8921H9.07438Z" fill="#333333"/>
</svg>
