<svg width="24" height="24" viewBox="0 0 24 24" fill="none" xmlns="http://www.w3.org/2000/svg">
<path d="M4 6.49976C4 5.11904 5.11929 3.99976 6.5 3.99976H17.5C18.8807 3.99976 20 5.11904 20 6.49976V19.4998C20 20.8805 18.8807 21.9998 17.5 21.9998H6.5C5.11929 21.9998 4 20.8805 4 19.4998V6.49976Z" fill="url(#paint0_linear_286_4437)"/>
<path d="M4 3.99976H20H4ZM20 19.4998C20 21.0876 18.7128 22.3748 17.125 22.3748H6.875C5.28718 22.3748 4 21.0876 4 19.4998C4 20.6734 5.11929 21.6248 6.5 21.6248H17.5C18.8807 21.6248 20 20.6734 20 19.4998ZM4 21.9998V3.99976V21.9998ZM20 3.99976V21.9998V3.99976Z" fill="#395F77"/>
<path d="M6 6.99988C6 5.89531 6.89543 4.99988 8 4.99988H16C17.1046 4.99988 18 5.89531 18 6.99988V16.9999C18 18.1044 17.1046 18.9999 16 18.9999H8C6.89543 18.9999 6 18.1044 6 16.9999V6.99988Z" fill="url(#paint1_linear_286_4437)"/>
<path d="M6 4.99988H18H6ZM18 16.9999C18 18.2207 17.0103 19.2104 15.7895 19.2104H8.21053C6.98969 19.2104 6 18.2207 6 16.9999C6 17.9882 6.89543 18.7894 8 18.7894H16C17.1046 18.7894 18 17.9882 18 16.9999ZM6 18.9999V4.99988V18.9999ZM18 4.99988V18.9999V4.99988Z" fill="#B6C8D3"/>
<rect x="9" y="3" width="6" height="2.5" rx="1" fill="url(#paint2_linear_286_4437)"/>
<path fill-rule="evenodd" clip-rule="evenodd" d="M8.5 8.49988C8.5 8.22374 8.72386 7.99988 9 7.99988H15C15.2761 7.99988 15.5 8.22374 15.5 8.49988C15.5 8.77602 15.2761 8.99988 15 8.99988H9C8.72386 8.99988 8.5 8.77602 8.5 8.49988ZM8.5 10.4999C8.5 10.2237 8.72386 9.99988 9 9.99988H15C15.2761 9.99988 15.5 10.2237 15.5 10.4999C15.5 10.776 15.2761 10.9999 15 10.9999H9C8.72386 10.9999 8.5 10.776 8.5 10.4999ZM9 11.9999C8.72386 11.9999 8.5 12.2237 8.5 12.4999C8.5 12.776 8.72386 12.9999 9 12.9999H15C15.2761 12.9999 15.5 12.776 15.5 12.4999C15.5 12.2237 15.2761 11.9999 15 11.9999H9Z" fill="#8092AA"/>
<defs>
<linearGradient id="paint0_linear_286_4437" x1="12" y1="0.0622562" x2="20.7333" y2="21.7038" gradientUnits="userSpaceOnUse">
<stop stop-color="#5291CC"/>
<stop offset="1" stop-color="#1864AC"/>
</linearGradient>
<linearGradient id="paint1_linear_286_4437" x1="12" y1="1.93738" x2="18.9705" y2="18.5937" gradientUnits="userSpaceOnUse">
<stop stop-color="white"/>
<stop offset="0.619792" stop-color="#F8FAFF"/>
<stop offset="1" stop-color="#D9E2EB"/>
</linearGradient>
<linearGradient id="paint2_linear_286_4437" x1="12" y1="3" x2="12.7647" y2="6.05882" gradientUnits="userSpaceOnUse">
<stop stop-color="#6291BD"/>
<stop offset="1" stop-color="#346089"/>
</linearGradient>
</defs>
</svg>
