<svg width="24" height="24" viewBox="0 0 24 24" fill="none" xmlns="http://www.w3.org/2000/svg">
<mask id="path-1-inside-1_286_4535" fill="white">
<path fill-rule="evenodd" clip-rule="evenodd" d="M7.64199 3.97027C8.12947 3.12593 8.98346 2.55799 9.95012 2.43525L15.7734 1.69588C17.1612 1.51967 18.4956 2.29011 19.0369 3.58009L21.3082 8.99287C21.6853 9.89139 21.6204 10.9149 21.1329 11.7593L16.6811 19.4701C15.3895 21.7073 12.5303 22.4747 10.2951 21.1842L4.89871 18.0686C2.66345 16.7781 1.89851 13.9183 3.19016 11.6811L7.64199 3.97027ZM14.9939 7.62132C15.7038 7.62132 16.2793 7.04584 16.2793 6.33596C16.2793 5.62607 15.7038 5.05059 14.9939 5.05059C14.284 5.05059 13.7086 5.62607 13.7086 6.33595C13.7086 7.04584 14.284 7.62132 14.9939 7.62132Z"/>
</mask>
<path fill-rule="evenodd" clip-rule="evenodd" d="M7.64199 3.97027C8.12947 3.12593 8.98346 2.55799 9.95012 2.43525L15.7734 1.69588C17.1612 1.51967 18.4956 2.29011 19.0369 3.58009L21.3082 8.99287C21.6853 9.89139 21.6204 10.9149 21.1329 11.7593L16.6811 19.4701C15.3895 21.7073 12.5303 22.4747 10.2951 21.1842L4.89871 18.0686C2.66345 16.7781 1.89851 13.9183 3.19016 11.6811L7.64199 3.97027ZM14.9939 7.62132C15.7038 7.62132 16.2793 7.04584 16.2793 6.33596C16.2793 5.62607 15.7038 5.05059 14.9939 5.05059C14.284 5.05059 13.7086 5.62607 13.7086 6.33595C13.7086 7.04584 14.284 7.62132 14.9939 7.62132Z" fill="url(#paint0_linear_286_4535)"/>
<path d="M9.95012 2.43525L10.0131 2.93127L9.95012 2.43525ZM7.64199 3.97027L8.07501 4.22027L7.64199 3.97027ZM15.7734 1.69588L15.7104 1.19986L15.7734 1.69588ZM19.0369 3.58009L18.5759 3.77356L18.5759 3.77356L19.0369 3.58009ZM21.3082 8.99287L20.8472 9.18634L21.3082 8.99287ZM21.1329 11.7593L20.6999 11.5093L21.1329 11.7593ZM16.6811 19.4701L17.1141 19.7201L16.6811 19.4701ZM10.2951 21.1842L10.5451 20.7512L10.2951 21.1842ZM4.89871 18.0686L4.64871 18.5016L4.89871 18.0686ZM3.19016 11.6811L3.62317 11.9311L3.62317 11.9311L3.19016 11.6811ZM16.2793 6.33596L15.7793 6.33595L15.7793 6.33596L16.2793 6.33596ZM14.9939 5.05059L14.9939 4.55059L14.9939 5.05059ZM9.88714 1.93924C8.76537 2.08167 7.77453 2.7407 7.20898 3.72027L8.07501 4.22027C8.48441 3.51117 9.20155 3.03431 10.0131 2.93127L9.88714 1.93924ZM15.7104 1.19986L9.88714 1.93924L10.0131 2.93127L15.8364 2.19189L15.7104 1.19986ZM19.498 3.38662C18.8698 1.88954 17.321 0.995359 15.7104 1.19986L15.8364 2.19189C17.0014 2.04397 18.1215 2.69067 18.5759 3.77356L19.498 3.38662ZM21.7693 8.7994L19.498 3.38662L18.5759 3.77356L20.8472 9.18634L21.7693 8.7994ZM21.5659 12.0093C22.1315 11.0297 22.2068 9.8421 21.7693 8.7994L20.8472 9.18634C21.1637 9.94068 21.1093 10.8002 20.6999 11.5093L21.5659 12.0093ZM17.1141 19.7201L21.5659 12.0093L20.6999 11.5093L16.2481 19.2201L17.1141 19.7201ZM10.0451 21.6172C12.5198 23.046 15.6846 22.1961 17.1141 19.7201L16.2481 19.2201C15.0943 21.2185 12.5408 21.9034 10.5451 20.7512L10.0451 21.6172ZM4.64871 18.5016L10.0451 21.6172L10.5451 20.7512L5.14871 17.6356L4.64871 18.5016ZM2.75714 11.4311C1.32763 13.9071 2.17395 17.0728 4.64871 18.5016L5.14871 17.6356C3.15295 16.4833 2.46939 13.9295 3.62317 11.9311L2.75714 11.4311ZM7.20898 3.72027L2.75714 11.4311L3.62317 11.9311L8.07501 4.22027L7.20898 3.72027ZM15.7793 6.33596C15.7793 6.7697 15.4277 7.12132 14.9939 7.12132L14.9939 8.12132C15.98 8.12132 16.7793 7.32198 16.7793 6.33595L15.7793 6.33596ZM14.9939 5.55059C15.4277 5.55059 15.7793 5.90221 15.7793 6.33595L16.7793 6.33596C16.7793 5.34993 15.98 4.55059 14.9939 4.55059L14.9939 5.55059ZM14.2086 6.33596C14.2086 5.90221 14.5602 5.55059 14.9939 5.55059L14.9939 4.55059C14.0079 4.55059 13.2086 5.34993 13.2086 6.33595L14.2086 6.33596ZM14.9939 7.12132C14.5602 7.12132 14.2086 6.7697 14.2086 6.33596L13.2086 6.33595C13.2086 7.32198 14.0079 8.12132 14.9939 8.12132L14.9939 7.12132Z" fill="url(#paint1_linear_286_4535)" mask="url(#path-1-inside-1_286_4535)"/>
<path fill-rule="evenodd" clip-rule="evenodd" d="M11.4439 10.4177C11.4439 11.0659 10.9184 11.5913 10.2703 11.5913C9.62215 11.5913 9.09672 11.0659 9.09672 10.4177C9.09672 9.76957 9.62215 9.24414 10.2703 9.24414C10.9184 9.24414 11.4439 9.76957 11.4439 10.4177ZM13.185 16.0998C13.185 16.748 12.6596 17.2734 12.0114 17.2734C11.3633 17.2734 10.8379 16.748 10.8379 16.0998C10.8379 15.4517 11.3633 14.9262 12.0114 14.9262C12.6596 14.9262 13.185 15.4517 13.185 16.0998ZM8.28728 13.2128C7.86978 13.3247 7.62203 13.7538 7.73389 14.1713C7.84576 14.5888 8.27489 14.8366 8.69238 14.7247L13.9839 13.3068C14.4014 13.195 14.6492 12.7658 14.5373 12.3484C14.4254 11.9309 13.9963 11.6831 13.5788 11.795L8.28728 13.2128Z" fill="url(#paint2_linear_286_4535)"/>
<defs>
<linearGradient id="paint0_linear_286_4535" x1="7.20184" y1="1.02912" x2="19.2748" y2="23.2278" gradientUnits="userSpaceOnUse">
<stop stop-color="#86EFDC"/>
<stop offset="1" stop-color="#6DBBA8"/>
</linearGradient>
<linearGradient id="paint1_linear_286_4535" x1="13.3413" y1="-0.550306" x2="13.8232" y2="23.5716" gradientUnits="userSpaceOnUse">
<stop stop-color="white" stop-opacity="0.25"/>
<stop offset="1" stop-color="#41ACAB"/>
</linearGradient>
<linearGradient id="paint2_linear_286_4535" x1="11.1356" y1="9.24414" x2="11.1356" y2="17.2734" gradientUnits="userSpaceOnUse">
<stop stop-color="#17706F"/>
<stop offset="1" stop-color="#208684"/>
</linearGradient>
</defs>
</svg>
