<svg width="25" height="25" viewBox="0 0 25 25" fill="none" xmlns="http://www.w3.org/2000/svg">
<path fill-rule="evenodd" clip-rule="evenodd" d="M3.59961 6.00111L8.81792 10.6678L12.6554 4.44556L16.4702 10.6678L21.5996 6.00111L19.5996 18.4456H5.59961L3.59961 6.00111Z" fill="#FFCC00"/>
<path fill-rule="evenodd" clip-rule="evenodd" d="M12.5996 4.53638L8.81792 10.6682L3.59961 6.00148L5.59961 18.4459H12.5996V4.53638Z" fill="#FFD933"/>
<rect x="5.59961" y="18.4456" width="14" height="3" fill="#FFCC00"/>
<rect x="5.59961" y="21.4456" width="14" height="1" fill="#FF5757"/>
<circle cx="3.59961" cy="5.44556" r="1" fill="#FFCC00"/>
<circle cx="12.5996" cy="3.6001" r="1" fill="#FFCC00"/>
<circle cx="21.3994" cy="5.44556" r="1" fill="#FFCC00"/>
<path d="M9.2416 14.6395L10.5638 15.9956L10.251 17.9198L10.0859 18.935L10.9863 18.4377L12.5996 17.5465L14.213 18.4377L15.1133 18.935L14.9482 17.9198L14.6355 15.9956L15.9576 14.6395L16.6359 13.9438L15.6755 13.7963L13.865 13.5181L13.0522 11.7874L12.5998 10.8244L12.1471 11.7873L11.3334 13.5181L9.52364 13.7963L8.56341 13.9439L9.2416 14.6395Z" fill="#F64C4C" stroke="#FFBA00"/>
<path fill-rule="evenodd" clip-rule="evenodd" d="M11.6725 13.9718L12.5996 12V15L11.0921 15.8614L11.0977 15.8271L9.59961 14.2905L11.6725 13.9718Z" fill="white" fill-opacity="0.3"/>
</svg>
