<svg width="20" height="20" viewBox="0 0 20 20" fill="none" xmlns="http://www.w3.org/2000/svg">
<rect x="3.5" y="3.5" width="13" height="13" fill="#88D4E2"/>
<path fill-rule="evenodd" clip-rule="evenodd" d="M10 1L19 10L10 19L1 10L10 1Z" fill="#AAF6FD"/>
<path fill-rule="evenodd" clip-rule="evenodd" d="M19 10L10 19L1 10H19Z" fill="#8BE8F4"/>
<path fill-rule="evenodd" clip-rule="evenodd" d="M10 1V10H1L10 1Z" fill="#C1FAFF"/>
<path d="M10.4238 5.73535L12.9238 9.73535L13.0898 10L12.9238 10.2646L10.4238 14.2646L10 14.9434L9.57617 14.2646L7.07617 10.2646L6.91016 10L7.07617 9.73535L9.57617 5.73535L10 5.05664L10.4238 5.73535Z" fill="#8C4CF6" stroke="white"/>
<path fill-rule="evenodd" clip-rule="evenodd" d="M10 6L7.5 10H10V6Z" fill="white" fill-opacity="0.5"/>
<path fill-rule="evenodd" clip-rule="evenodd" d="M10 6L12.5 10H10V6Z" fill="white" fill-opacity="0.25"/>
<path fill-rule="evenodd" clip-rule="evenodd" d="M10 14L7.5 10H10V14Z" fill="white" fill-opacity="0.15"/>
<circle cx="19" cy="10" r="1" fill="#8BE8F4"/>
<circle cx="1" cy="10" r="1" fill="#8BE8F4"/>
<circle cx="10" cy="1" r="1" fill="#8BE8F4"/>
<circle cx="10" cy="19" r="1" fill="#8BE8F4"/>
</svg>
