<svg width="24" height="24" viewBox="0 0 24 24" fill="none" xmlns="http://www.w3.org/2000/svg">
<mask id="path-1-outside-1_286_4558" maskUnits="userSpaceOnUse" x="4" y="2" width="16" height="19" fill="black">
<rect fill="white" x="4" y="2" width="16" height="19"/>
<path d="M4 4.5C4 3.11929 5.11929 2 6.5 2H17.5C18.8807 2 20 3.11929 20 4.5V17.5C20 18.8807 18.8807 20 17.5 20H6.5C5.11929 20 4 18.8807 4 17.5V4.5Z"/>
</mask>
<path d="M4 4.5C4 3.11929 5.11929 2 6.5 2H17.5C18.8807 2 20 3.11929 20 4.5V17.5C20 18.8807 18.8807 20 17.5 20H6.5C5.11929 20 4 18.8807 4 17.5V4.5Z" fill="url(#paint0_linear_286_4558)"/>
<path d="M4 2H20H4ZM20 17.5C20 19.1569 18.6569 20.5 17 20.5H7C5.34315 20.5 4 19.1569 4 17.5C4 18.6046 5.11929 19.5 6.5 19.5H17.5C18.8807 19.5 20 18.6046 20 17.5ZM4 20V2V20ZM20 2V20V2Z" fill="#6D78CD" mask="url(#path-1-outside-1_286_4558)"/>
<path opacity="0.8" d="M5 6.5C5 5.67157 5.67157 5 6.5 5H17.5C18.3284 5 19 5.67157 19 6.5V8.5C19 9.32843 18.3284 10 17.5 10H6.5C5.67157 10 5 9.32843 5 8.5V6.5Z" fill="url(#paint1_linear_286_4558)"/>
<path opacity="0.8" d="M5 13.5C5 12.6716 5.67157 12 6.5 12H17.5C18.3284 12 19 12.6716 19 13.5V15.5C19 16.3284 18.3284 17 17.5 17H6.5C5.67157 17 5 16.3284 5 15.5V13.5Z" fill="url(#paint2_linear_286_4558)"/>
<rect width="6" height="3" rx="0.5" transform="matrix(-1 0 0 1 14 6.5)" fill="url(#paint3_linear_286_4558)"/>
<rect width="2" height="3" rx="0.5" transform="matrix(-1 0 0 1 10 13.5)" fill="url(#paint4_linear_286_4558)"/>
<rect width="5" height="3" rx="0.5" transform="matrix(-1 0 0 1 16 13.5)" fill="url(#paint5_linear_286_4558)"/>
<defs>
<linearGradient id="paint0_linear_286_4558" x1="4" y1="2" x2="21.8968" y2="17.8596" gradientUnits="userSpaceOnUse">
<stop stop-color="#C7E3FF"/>
<stop offset="1" stop-color="#8A97E0"/>
</linearGradient>
<linearGradient id="paint1_linear_286_4558" x1="5" y1="5.9375" x2="8.05445" y2="14.0973" gradientUnits="userSpaceOnUse">
<stop stop-color="#2C2C2C"/>
<stop offset="1" stop-color="#626262"/>
</linearGradient>
<linearGradient id="paint2_linear_286_4558" x1="5" y1="12.9375" x2="8.05445" y2="21.0973" gradientUnits="userSpaceOnUse">
<stop stop-color="#2C2C2C"/>
<stop offset="1" stop-color="#626262"/>
</linearGradient>
<linearGradient id="paint3_linear_286_4558" x1="3" y1="0" x2="3" y2="3" gradientUnits="userSpaceOnUse">
<stop stop-color="#E4EDFF"/>
<stop offset="1" stop-color="#AAB8D2"/>
</linearGradient>
<linearGradient id="paint4_linear_286_4558" x1="1" y1="0" x2="1" y2="3" gradientUnits="userSpaceOnUse">
<stop stop-color="#E4EDFF"/>
<stop offset="1" stop-color="#AAB8D2"/>
</linearGradient>
<linearGradient id="paint5_linear_286_4558" x1="2.5" y1="0" x2="2.5" y2="3" gradientUnits="userSpaceOnUse">
<stop stop-color="#E4EDFF"/>
<stop offset="1" stop-color="#AAB8D2"/>
</linearGradient>
</defs>
</svg>
