<svg width="24" height="24" viewBox="0 0 24 24" fill="none" xmlns="http://www.w3.org/2000/svg">
<path d="M7.90072 12.8882C8.70092 12.6738 9.52343 13.1487 9.73784 13.9489L11.2908 19.7444C11.5052 20.5446 11.0303 21.3671 10.2301 21.5816C9.42989 21.796 8.60739 21.3211 8.39297 20.5209L6.84006 14.7253C6.62565 13.9251 7.10052 13.1026 7.90072 12.8882Z" fill="url(#paint0_linear_286_4525)"/>
<path d="M17.5 8.5C18.8807 8.5 20 9.61929 20 11C20 12.3807 18.8807 13.5 17.5 13.5C16.1193 13.5 15 12.3807 15 11C15 9.61929 16.1193 8.5 17.5 8.5Z" fill="url(#paint1_linear_286_4525)"/>
<path d="M4 9.30005C4 7.64319 5.34315 6.30005 7 6.30005V15.3C5.34315 15.3 4 13.9569 4 12.3V9.30005Z" fill="url(#paint2_linear_286_4525)"/>
<path d="M7 6.33333L16 4V18L7 15.2778V6.33333Z" fill="url(#paint3_linear_286_4525)"/>
<path d="M16 18V4L15 4.26V17.7L16 18Z" fill="url(#paint4_linear_286_4525)"/>
<path d="M16 4C16 3.72386 16.2239 3.5 16.5 3.5H17.5C17.7761 3.5 18 3.72386 18 4V18C18 18.2761 17.7761 18.5 17.5 18.5H16.5C16.2239 18.5 16 18.2761 16 18V4Z" fill="url(#paint5_linear_286_4525)"/>
<defs>
<linearGradient id="paint0_linear_286_4525" x1="9.63103" y1="16.4481" x2="6.96149" y2="21.1588" gradientUnits="userSpaceOnUse">
<stop stop-color="#0881F8"/>
<stop offset="0.286458" stop-color="#2592FD"/>
<stop offset="1" stop-color="#0F85F9"/>
</linearGradient>
<linearGradient id="paint1_linear_286_4525" x1="16.6667" y1="9.125" x2="20.8333" y2="11.625" gradientUnits="userSpaceOnUse">
<stop stop-color="#0680F8"/>
<stop offset="1" stop-color="#3299FE"/>
</linearGradient>
<linearGradient id="paint2_linear_286_4525" x1="5.5" y1="6.30005" x2="5.5" y2="15.3" gradientUnits="userSpaceOnUse">
<stop offset="0.0880226" stop-color="#057FF7"/>
<stop offset="0.578967" stop-color="#2F98FF"/>
<stop offset="1" stop-color="#057FF7"/>
</linearGradient>
<linearGradient id="paint3_linear_286_4525" x1="11.1087" y1="4.38889" x2="11.5354" y2="17.9989" gradientUnits="userSpaceOnUse">
<stop offset="0.0001" stop-color="#CCE5FD"/>
<stop offset="0.483147" stop-color="#D0E3FF"/>
<stop offset="1" stop-color="#A6D1FD"/>
</linearGradient>
<linearGradient id="paint4_linear_286_4525" x1="15.5" y1="3.41667" x2="15.5" y2="18" gradientUnits="userSpaceOnUse">
<stop stop-color="white" stop-opacity="0.2"/>
<stop offset="0.34902" stop-color="white"/>
<stop offset="1" stop-color="white" stop-opacity="0.2"/>
</linearGradient>
<linearGradient id="paint5_linear_286_4525" x1="16.8888" y1="5.61538" x2="17.0368" y2="18.4996" gradientUnits="userSpaceOnUse">
<stop stop-color="#CDE5FE"/>
<stop offset="0.53125" stop-color="#DFEDFF"/>
<stop offset="1" stop-color="#AED5FE"/>
</linearGradient>
</defs>
</svg>
