<svg width="24" height="24" viewBox="0 0 24 24" fill="none" xmlns="http://www.w3.org/2000/svg">
<circle cx="12" cy="12.5002" r="10" fill="#4F5DC8"/>
<circle cx="12" cy="12.0002" r="10" fill="url(#paint0_linear_286_4583)"/>
<ellipse cx="12" cy="12" rx="7.50004" ry="7.5" fill="url(#paint1_linear_286_4583)"/>
<ellipse opacity="0.8" cx="12" cy="12" rx="5" ry="4.99997" fill="url(#paint2_radial_286_4583)"/>
<ellipse cx="12" cy="11.7505" rx="1.75" ry="1.74999" fill="#4C5BD1"/>
<path d="M15.137 15.6732C15.3294 15.8713 15.6436 15.8736 15.8389 15.6783L16.5534 14.9638C16.7457 14.7715 16.7513 14.4584 16.5658 14.2593L13.2548 10.7037C12.889 10.3109 12.2827 10.2811 11.881 10.6362L11.7963 10.7111C11.3648 11.0926 11.3396 11.7641 11.7413 12.1775L15.137 15.6732Z" fill="url(#paint3_linear_286_4583)"/>
<path fill-rule="evenodd" clip-rule="evenodd" d="M18.656 2.56378C18.6044 2.6154 18.582 2.6894 18.5963 2.76098L18.7833 3.69595L11.6066 10.8726C11.2656 11.2136 11.2656 11.7665 11.6066 12.1076C11.9477 12.4486 12.5006 12.4486 12.8416 12.1076L20.0346 4.91467L20.9288 5.09352C21.0004 5.10784 21.0744 5.08543 21.126 5.03382L22.4526 3.7073C22.5643 3.59558 22.524 3.40587 22.3766 3.34915L20.9968 2.81846C20.9391 2.79628 20.8935 2.75072 20.8714 2.69306L20.3407 1.31327C20.284 1.16581 20.0942 1.12555 19.9825 1.23726L18.656 2.56378Z" fill="url(#paint4_linear_286_4583)"/>
<defs>
<linearGradient id="paint0_linear_286_4583" x1="4.72727" y1="3.81843" x2="20.1818" y2="20.6366" gradientUnits="userSpaceOnUse">
<stop stop-color="#96A0EE"/>
<stop offset="1" stop-color="#6773CF"/>
</linearGradient>
<linearGradient id="paint1_linear_286_4583" x1="10.3334" y1="9.49532" x2="19.9167" y2="21.1667" gradientUnits="userSpaceOnUse">
<stop stop-color="white"/>
<stop offset="0.690561" stop-color="#CFDEEC"/>
<stop offset="1" stop-color="white"/>
</linearGradient>
<radialGradient id="paint2_radial_286_4583" cx="0" cy="0" r="1" gradientUnits="userSpaceOnUse" gradientTransform="translate(10.75 10.3333) rotate(54.4622) scale(7.16858 7.16859)">
<stop stop-color="#7391FC"/>
<stop offset="1" stop-color="#6773CF"/>
</radialGradient>
<linearGradient id="paint3_linear_286_4583" x1="10.7807" y1="11.4997" x2="15.694" y2="13.7878" gradientUnits="userSpaceOnUse">
<stop stop-opacity="0.3"/>
<stop offset="1" stop-opacity="0"/>
</linearGradient>
<linearGradient id="paint4_linear_286_4583" x1="16.8937" y1="2.94238" x2="21.2581" y2="7.74714" gradientUnits="userSpaceOnUse">
<stop stop-color="#8593FF"/>
<stop offset="0.848958" stop-color="#4251C5"/>
<stop offset="1" stop-color="#98A0DD"/>
</linearGradient>
</defs>
</svg>
