<svg width="20" height="20" viewBox="0 0 20 20" fill="none" xmlns="http://www.w3.org/2000/svg">
<path fill-rule="evenodd" clip-rule="evenodd" d="M7 11C9.76129 11 11.9998 12.2357 12 14.2344C12 15.2093 11.2093 16 10.2344 16H3.76562C2.79066 16 2 15.2093 2 14.2344C2.00022 12.2357 4.23871 11 7 11ZM7 12.5C5.81949 12.5 4.86201 12.7675 4.25293 13.1436C3.67042 13.5033 3.5001 13.8823 3.5 14.2344C3.5 14.3809 3.61909 14.5 3.76562 14.5H10.2344C10.3809 14.5 10.5 14.3809 10.5 14.2344C10.4999 13.8823 10.3296 13.5033 9.74707 13.1436C9.13799 12.7675 8.18051 12.5 7 12.5Z" fill="#333333"/>
<path d="M14 12C16.2091 12 18 12.9888 18 14.5879C17.9999 15.3677 17.3677 15.9999 16.5879 16H12.9814C13.3094 15.4909 13.5 14.8849 13.5 14.2344C13.4999 13.4163 13.2663 12.6985 12.8799 12.0908C13.2354 12.0316 13.6111 12 14 12Z" fill="#333333"/>
<path fill-rule="evenodd" clip-rule="evenodd" d="M7 4C8.65685 4 10 5.34315 10 7C10 8.65685 8.65685 10 7 10C5.34315 10 4 8.65685 4 7C4 5.34315 5.34315 4 7 4ZM7 5.5C6.17157 5.5 5.5 6.17157 5.5 7C5.5 7.82843 6.17157 8.5 7 8.5C7.82843 8.5 8.5 7.82843 8.5 7C8.5 6.17157 7.82843 5.5 7 5.5Z" fill="#333333"/>
<path d="M14 6C15.1046 6 16 6.89543 16 8C16 9.10457 15.1046 10 14 10C12.8954 10 12 9.10457 12 8C12 6.89543 12.8954 6 14 6Z" fill="#333333"/>
</svg>
