<svg width="20" height="20" viewBox="0 0 20 20" fill="none" xmlns="http://www.w3.org/2000/svg">
<path d="M5.5 14C5.77614 14 6 14.2239 6 14.5V16.5C6 16.7761 5.77614 17 5.5 17H3.5C3.22386 17 3 16.7761 3 16.5V14.5C3 14.2239 3.22386 14 3.5 14H5.5Z" fill="#333333"/>
<path d="M11 14C11.2761 14 11.5 14.2239 11.5 14.5V16.5C11.5 16.7761 11.2761 17 11 17H9C8.72386 17 8.5 16.7761 8.5 16.5V14.5C8.5 14.2239 8.72386 14 9 14H11Z" fill="#333333"/>
<path d="M16.5 14C16.7761 14 17 14.2239 17 14.5V16.5C17 16.7761 16.7761 17 16.5 17H14.5C14.2239 17 14 16.7761 14 16.5V14.5C14 14.2239 14.2239 14 14.5 14H16.5Z" fill="#333333"/>
<path d="M5.5 8.5C5.77614 8.5 6 8.72386 6 9V11C6 11.2761 5.77614 11.5 5.5 11.5H3.5C3.22386 11.5 3 11.2761 3 11V9C3 8.72386 3.22386 8.5 3.5 8.5H5.5Z" fill="#333333"/>
<path d="M11 8.5C11.2761 8.5 11.5 8.72386 11.5 9V11C11.5 11.2761 11.2761 11.5 11 11.5H9C8.72386 11.5 8.5 11.2761 8.5 11V9C8.5 8.72386 8.72386 8.5 9 8.5H11Z" fill="#333333"/>
<path d="M16.5 8.5C16.7761 8.5 17 8.72386 17 9V11C17 11.2761 16.7761 11.5 16.5 11.5H14.5C14.2239 11.5 14 11.2761 14 11V9C14 8.72386 14.2239 8.5 14.5 8.5H16.5Z" fill="#333333"/>
<path d="M5.5 3C5.77614 3 6 3.22386 6 3.5V5.5C6 5.77614 5.77614 6 5.5 6H3.5C3.22386 6 3 5.77614 3 5.5V3.5C3 3.22386 3.22386 3 3.5 3H5.5Z" fill="#333333"/>
<path d="M11 3C11.2761 3 11.5 3.22386 11.5 3.5V5.5C11.5 5.77614 11.2761 6 11 6H9C8.72386 6 8.5 5.77614 8.5 5.5V3.5C8.5 3.22386 8.72386 3 9 3H11Z" fill="#333333"/>
<path d="M16.5 3C16.7761 3 17 3.22386 17 3.5V5.5C17 5.77614 16.7761 6 16.5 6H14.5C14.2239 6 14 5.77614 14 5.5V3.5C14 3.22386 14.2239 3 14.5 3H16.5Z" fill="#333333"/>
</svg>
