<svg width="24" height="24" viewBox="0 0 24 24" fill="none" xmlns="http://www.w3.org/2000/svg">
<path fill-rule="evenodd" clip-rule="evenodd" d="M11.9735 4C15.4899 4 18.3894 6.72019 18.9309 10.2651H19.5148C21.2448 10.2651 22.6473 11.6676 22.6473 13.3976C22.6473 15.1276 21.2448 16.5301 19.5148 16.5301H18.6963C18.095 17.6817 16.7129 18.5495 14.9943 18.9293C14.7702 19.4755 14.233 19.8602 13.606 19.8602H11.3852C10.5568 19.8602 9.88518 19.1886 9.88518 18.3602V18.2277C9.88518 17.3993 10.5567 16.7277 11.3852 16.7277H13.606C14.111 16.7277 14.5576 16.9772 14.8295 17.3596C16.2458 17.0081 17.2466 16.2687 17.4264 15.4788V10.8549C17.1419 7.87509 14.799 5.56625 11.9735 5.56625C9.1481 5.56625 6.80526 7.87497 6.52065 10.8547V16.4784C6.52065 16.507 6.49751 16.5301 6.46896 16.5301H4.43231C2.70228 16.5301 1.2998 15.1276 1.2998 13.3976C1.2998 11.6676 2.70228 10.2651 4.43231 10.2651H5.01615C5.5576 6.72019 8.45715 4 11.9735 4ZM15 11.875C15 12.4273 14.5523 12.875 14 12.875C13.4477 12.875 13 12.4273 13 11.875C13 11.3227 13.4477 10.875 14 10.875C14.5523 10.875 15 11.3227 15 11.875ZM10 12.875C10.5523 12.875 11 12.4273 11 11.875C11 11.3227 10.5523 10.875 10 10.875C9.44771 10.875 9 11.3227 9 11.875C9 12.4273 9.44771 12.875 10 12.875Z" fill="#333333"/>
</svg>
