<svg xmlns="http://www.w3.org/2000/svg" width="20" height="20" viewBox="0 0 20 20" fill="none">
  <path d="M10.7488 11.6022V11.0387C10.7488 10.6409 10.7709 10.6188 11.1576 10.2762C11.8759 9.64641 12.3841 9.18232 12.3841 8.20994C12.3841 6.98343 11.3565 6 10.0305 6C8.13 6 7.59961 7.80111 7.59961 7.80111L8.72668 8.32044C8.72668 8.32044 9.08027 7.25967 10.0305 7.25967C10.583 7.25967 11.0582 7.69061 11.0582 8.20994C11.0582 8.72928 10.8372 8.93923 10.4283 9.29282C10.3565 9.35475 10.289 9.41203 10.2258 9.4657C9.65758 9.94821 9.43386 10.1382 9.43386 10.7845V11.6022H10.7488Z" fill="#333333"/>
  <path d="M10.0968 14C10.583 14 10.9698 13.6132 10.9698 13.127C10.9698 12.6408 10.583 12.2541 10.0968 12.2541C9.61065 12.2541 9.22391 12.6408 9.22391 13.127C9.22391 13.6132 9.61065 14 10.0968 14Z" fill="#333333"/>
  <path fill-rule="evenodd" clip-rule="evenodd" d="M18 10C18 14.4183 14.4183 18 10 18C5.58172 18 2 14.4183 2 10C2 5.58172 5.58172 2 10 2C14.4183 2 18 5.58172 18 10ZM16.5 10C16.5 13.5899 13.5899 16.5 10 16.5C6.41015 16.5 3.5 13.5899 3.5 10C3.5 6.41015 6.41015 3.5 10 3.5C13.5899 3.5 16.5 6.41015 16.5 10Z" fill="#333333"/>
</svg>