<svg width="20" height="20" viewBox="0 0 20 20" fill="none" xmlns="http://www.w3.org/2000/svg">
<path d="M9.50391 3.28401C9.81125 3.10846 10.1887 3.10846 10.4961 3.28401L16.4961 6.71272C16.8076 6.89073 16.9999 7.22215 17 7.58088V16.0008L16.9951 16.1033C16.9471 16.5737 16.5729 16.948 16.1025 16.9959L16 17.0008H4C3.48238 17.0008 3.05629 16.6074 3.00488 16.1033L3 16.0008V7.58088C3.00009 7.22215 3.19245 6.89073 3.50391 6.71272L9.50391 3.28401ZM4.5 7.87092V15.5008H9.25V10.2508C9.25 10.1127 9.36193 10.0008 9.5 10.0008H10.5C10.6381 10.0008 10.75 10.1127 10.75 10.2508V15.5008H15.5V7.87092L10 4.72834L4.5 7.87092Z" fill="#333333"/>
</svg>
