<svg width="24" height="24" viewBox="0 0 24 24" fill="none" xmlns="http://www.w3.org/2000/svg">
<mask id="path-1-inside-1_286_3870" fill="white">
<path fill-rule="evenodd" clip-rule="evenodd" d="M4.61605 8.23427L10.9941 3.34291C11.5912 2.88503 12.438 2.88577 13.0342 3.34469L19.3863 8.23429C19.7742 8.53289 20 8.98501 20 9.46306V19.4265C20 20.2955 19.268 21 18.3651 21H5.63492C4.73198 21 4 20.2955 4 19.4265V9.46482C4 8.98577 4.22676 8.53281 4.61605 8.23427Z"/>
</mask>
<path d="M4.61605 8.23427L3.39895 6.64724L3.39895 6.64724L4.61605 8.23427ZM10.9941 3.34291L12.2112 4.92994L12.2112 4.92994L10.9941 3.34291ZM13.0342 3.34469L11.8142 4.92953L13.0342 3.34469ZM19.3863 8.23429L18.1663 9.81913L18.1663 9.81913L19.3863 8.23429ZM4 19.4265H2H4ZM5.83314 9.8213L12.2112 4.92994L9.77701 1.75588L3.39895 6.64724L5.83314 9.8213ZM12.2112 4.92994C12.1445 4.98113 12.0725 5.00005 12.0127 5C11.953 4.99995 11.881 4.9809 11.8142 4.92953L14.2541 1.75985C12.9398 0.748146 11.093 0.746614 9.77701 1.75588L12.2112 4.92994ZM11.8142 4.92953L18.1663 9.81913L20.6062 6.64945L14.2541 1.75985L11.8142 4.92953ZM18.1663 9.81913C18.0762 9.74976 18 9.62296 18 9.46306H22C22 8.34707 21.4722 7.31602 20.6062 6.64945L18.1663 9.81913ZM18 9.46306V19.4265H22V9.46306H18ZM18 19.4265C18 19.1194 18.2364 19 18.3651 19V23C20.2997 23 22 21.4716 22 19.4265H18ZM18.3651 19H5.63492V23H18.3651V19ZM5.63492 19C5.76363 19 6 19.1194 6 19.4265H2C2 21.4716 3.70033 23 5.63492 23V19ZM6 19.4265V9.46482H2V19.4265H6ZM6 9.46482C6 9.62507 5.92348 9.75202 5.83315 9.8213L3.39895 6.64724C2.53004 7.3136 2 8.34646 2 9.46482H6Z" fill="#333333" mask="url(#path-1-inside-1_286_3870)"/>
</svg>
