<svg width="20" height="20" viewBox="0 0 20 20" fill="none" xmlns="http://www.w3.org/2000/svg">
<path fill-rule="evenodd" clip-rule="evenodd" d="M5.75 5.76473V8.25H7.25V3.5H2.5V5L4.40948 5.00028C3.22203 6.32714 2.5 8.07925 2.5 10C2.5 13.7911 5.31288 16.9253 8.96544 17.4292C8.50501 16.8983 8.13626 16.2858 7.88383 15.6162C5.61433 14.7606 4 12.5688 4 10C4 8.34689 4.66854 6.84993 5.75 5.76473ZM10 2.5C13.7911 2.5 16.9253 5.31288 17.4292 8.96544C16.8983 8.50501 16.2858 8.13626 15.6162 7.88383C14.7606 5.61433 12.5688 4 10 4C9.83162 4 9.66487 4.00694 9.5 4.02054V2.5164C9.66526 2.50552 9.83199 2.5 10 2.5ZM18.5 13.5C18.5 16.2614 16.2614 18.5 13.5 18.5C10.7386 18.5 8.5 16.2614 8.5 13.5C8.5 10.7386 10.7386 8.5 13.5 8.5C16.2614 8.5 18.5 10.7386 18.5 13.5ZM14 10.5V13.293L15.8536 15.1464L15.1464 15.8536L13 13.7071V10.5H14Z" fill="#333333"/>
</svg>
