<svg width="20" height="20" viewBox="0 0 20 20" fill="none" xmlns="http://www.w3.org/2000/svg">
<path opacity="0.8" fill-rule="evenodd" clip-rule="evenodd" d="M10 18C14.4183 18 18 14.4183 18 10C18 5.58172 14.4183 2 10 2C5.58172 2 2 5.58172 2 10C2 14.4183 5.58172 18 10 18ZM10.913 12.335V11.672C10.913 11.204 10.939 11.178 11.394 10.775C12.239 10.034 12.837 9.488 12.837 8.344C12.837 6.901 11.628 5.744 10.068 5.744C7.832 5.744 7.208 7.863 7.208 7.863L8.534 8.474C8.534 8.474 8.95 7.226 10.068 7.226C10.718 7.226 11.277 7.733 11.277 8.344C11.277 8.955 11.017 9.202 10.536 9.618C10.4514 9.69086 10.3721 9.75825 10.2977 9.82138L10.2977 9.82139C9.6292 10.3891 9.366 10.6126 9.366 11.373V12.335H10.913ZM10.146 15.156C10.718 15.156 11.173 14.701 11.173 14.129C11.173 13.557 10.718 13.102 10.146 13.102C9.574 13.102 9.119 13.557 9.119 14.129C9.119 14.701 9.574 15.156 10.146 15.156Z" fill="#CCCCCC"/>
</svg>
