<svg width="24" height="24" viewBox="0 0 24 24" fill="none" xmlns="http://www.w3.org/2000/svg">
<path fill-rule="evenodd" clip-rule="evenodd" d="M10.9941 3.34278C11.5912 2.88498 12.438 2.88585 13.0342 3.34473L19.3867 8.23438C19.7744 8.53294 19.9999 8.98505 20 9.4629V19.4268C19.9999 20.2956 19.268 20.9999 18.3652 21H5.63477C4.73197 20.9999 4.00012 20.2956 4 19.4268V9.46485C4.00001 8.98581 4.22693 8.53292 4.61621 8.23438L10.9941 3.34278ZM6 9.69239V19H11V12.5C11 12.2239 11.2239 12 11.5 12H12.5C12.7761 12 13 12.2239 13 12.5V19H18V9.69141L12.0117 5.08106L6 9.69239Z" fill="#333333"/>
</svg>
