<svg width="20" height="20" viewBox="0 0 20 20" fill="none" xmlns="http://www.w3.org/2000/svg">
<path d="M8.43922 2.1532C9.99092 1.84465 11.5996 2.00381 13.0613 2.60925C14.5229 3.21476 15.7722 4.24006 16.6511 5.55554C17.5302 6.87109 17.9997 8.41768 17.9998 9.99988H16.4002C16.4001 8.73413 16.0243 7.49664 15.3211 6.44421C14.6617 5.45745 13.7419 4.67461 12.6658 4.18152L12.449 4.08679C11.2796 3.60244 9.99213 3.47566 8.75074 3.72253C7.5095 3.96951 6.36932 4.57962 5.47438 5.47448L5.30934 5.64538C4.50431 6.51251 3.95396 7.58737 3.72242 8.75085C3.47549 9.99229 3.60232 11.2797 4.08668 12.4491C4.57107 13.6185 5.39166 14.6179 6.4441 15.3212C7.49656 16.0244 8.734 16.4003 9.99977 16.4003V17.9999L9.70387 17.994C8.32382 17.9429 6.98031 17.5356 5.80446 16.8114L5.55543 16.6512C4.32209 15.8271 3.34369 14.6778 2.72731 13.3329L2.60914 13.0614C2.04145 11.6908 1.86651 10.1912 2.10133 8.73034L2.15309 8.43933C2.4618 6.88756 3.22377 5.46142 4.34254 4.34265C5.39131 3.29395 6.71003 2.55884 8.14918 2.21667L8.43922 2.1532Z" fill="#333333"/>
<path d="M17.6091 11.3632C17.7582 11.305 17.9228 11.4003 17.947 11.5585L18.2244 13.37C18.2561 13.5773 18.0339 13.7297 17.8523 13.6249L17.4988 13.4198L16.2302 15.618C15.9769 16.0559 15.4165 16.206 14.9783 15.953L13.6072 15.161L12.3152 17.3993L11.0164 16.6493L12.6004 13.9061C12.8534 13.4679 13.414 13.3174 13.8523 13.5702L15.2234 14.3622L16.2 12.6698L15.8679 12.4784C15.6863 12.3735 15.7067 12.1053 15.9021 12.0292L17.6091 11.3632Z" fill="#333333"/>
<path fill-rule="evenodd" clip-rule="evenodd" d="M10.5261 6.36706C10.715 6.38456 10.8983 6.41488 11.075 6.46081L11.074 6.46179C11.3605 6.53488 11.6578 6.63791 11.9636 6.77136L12.0984 6.82995L12.0418 6.9657L11.6414 7.93054L11.5838 8.06823L11.4461 8.01159C11.1832 7.90432 10.9484 7.82253 10.7429 7.76452C10.5441 7.70843 10.3392 7.67964 10.1297 7.67956C9.99295 7.67956 9.88358 7.70199 9.7986 7.74011C9.71402 7.77817 9.65339 7.82835 9.6111 7.88757L9.58571 7.93542C9.56406 7.98597 9.55159 8.0461 9.55153 8.11804C9.55153 8.22028 9.58131 8.30231 9.63746 8.37097L9.6941 8.42761C9.75861 8.48506 9.84704 8.54561 9.96266 8.6073C10.1235 8.69308 10.326 8.79602 10.5691 8.91491C10.8742 9.05918 11.137 9.21084 11.3533 9.36999L11.5154 9.4989C11.6681 9.63397 11.7928 9.78754 11.8875 9.95886C12.0171 10.1936 12.0779 10.4765 12.0779 10.7997C12.0779 11.1685 11.9863 11.4978 11.7996 11.7811C11.6127 12.0645 11.3425 12.2809 10.9988 12.4325L10.9978 12.4335C10.8531 12.4958 10.6953 12.5428 10.5261 12.578V13.9999H9.40114V12.6317C9.32075 12.6249 9.24038 12.6183 9.1609 12.6073C8.96446 12.5792 8.77152 12.5398 8.58571 12.4891L8.58082 12.4882C8.39988 12.4316 8.22607 12.3626 8.06129 12.2831L7.97633 12.243V10.7675L8.18629 10.8583C8.45984 10.9763 8.74213 11.0863 9.03199 11.1884L9.24489 11.2499C9.45732 11.3022 9.66796 11.328 9.87574 11.328C10.0659 11.3279 10.2039 11.3018 10.2966 11.2596L10.3689 11.2235C10.4316 11.1862 10.4729 11.1434 10.4988 11.0995L10.5017 11.0946C10.5444 11.0285 10.5681 10.9505 10.5681 10.8573C10.5681 10.7499 10.5319 10.662 10.4568 10.5868L10.4539 10.5839C10.3706 10.496 10.2518 10.4098 10.0935 10.328L10.0896 10.326C10.007 10.2808 9.91796 10.2336 9.82301 10.1854L9.51735 10.036C9.37826 9.96925 9.22801 9.89081 9.06813 9.80261L9.06422 9.80066C8.89733 9.70279 8.73652 9.58475 8.58278 9.44812L8.57887 9.44421C8.42361 9.29491 8.29577 9.11714 8.19606 8.91198C8.09127 8.69624 8.04176 8.44305 8.04176 8.15905C8.04182 7.78736 8.12709 7.46111 8.30348 7.18738C8.48386 6.91097 8.73625 6.70098 9.05446 6.55945L9.05543 6.55847C9.16475 6.51081 9.28026 6.47151 9.40114 6.4403V4.99988H10.5261V6.36706ZM10.9382 12.2958C10.8945 12.3146 10.8489 12.3313 10.8025 12.3475C10.8071 12.346 10.8126 12.3452 10.8172 12.3436L10.9382 12.2958ZM11.6736 11.6991C11.6551 11.7271 11.6353 11.7545 11.615 11.7811L11.6736 11.6991ZM11.7556 10.0311C11.8106 10.1306 11.8511 10.242 11.8797 10.3641C11.8661 10.3058 11.8515 10.2494 11.8318 10.1962L11.7556 10.0311ZM10.5047 9.05066C10.5644 9.0789 10.6224 9.10792 10.6785 9.13659L10.5047 9.05066ZM10.783 7.61999L10.6228 7.58093C10.6044 7.57709 10.5856 7.57456 10.5672 7.57116C10.6394 7.58465 10.7119 7.59997 10.783 7.61999ZM11.2742 6.6737C11.2654 6.67098 11.2566 6.66759 11.2478 6.66491L11.0369 6.60632C11.1151 6.62627 11.1942 6.64901 11.2742 6.6737Z" fill="#333333"/>
</svg>
