<svg width="20" height="20" viewBox="0 0 20 20" fill="none" xmlns="http://www.w3.org/2000/svg">
<path fill-rule="evenodd" clip-rule="evenodd" d="M12.2702 13.7103C12.3936 13.5802 12.5775 13.5249 12.75 13.5736C14.1056 13.9563 15 14.6138 15 15.3606C15 16.5422 12.7614 17.5 10 17.5C7.23858 17.5 5 16.5422 5 15.3606C5 14.6145 5.89269 13.9576 7.24601 13.5747C7.42033 13.5254 7.60581 13.5827 7.73116 13.7135C8.3742 14.3844 9.13038 15.0757 10 15.7885C10.8163 15.1194 11.5327 14.4692 12.1491 13.8379L12.2702 13.7103ZM10.0017 2.5C12.8405 2.5 15 4.94952 15 7.65127C15 9.45244 13.3339 11.7353 10.0017 14.5C6.66722 11.7353 5 9.45244 5 7.65127C5 4.94952 7.16282 2.5 10.0017 2.5ZM10.0049 5.05267C8.74316 5.05267 7.72034 6.05391 7.72034 7.28899C7.72034 8.52408 8.74316 9.52531 10.0049 9.52531C11.2666 9.52531 12.2894 8.52408 12.2894 7.28899C12.2894 6.05391 11.2666 5.05267 10.0049 5.05267Z" fill="#333333"/>
</svg>
