<svg width="20" height="20" viewBox="0 0 20 20" fill="none" xmlns="http://www.w3.org/2000/svg">
<path fill-rule="evenodd" clip-rule="evenodd" d="M14 4C15.1046 4 16 4.89543 16 6V14C16 15.1046 15.1046 16 14 16H6C4.89543 16 4 15.1046 4 14V6C4 4.89543 4.89543 4 6 4H14ZM12 6.5359C11.5559 6.27948 10.9968 6.40247 10.6981 6.80429L10.634 6.90192L10.4137 7.28092C10.2788 7.26056 10.1406 7.25 10 7.25L9.79049 7.25786L9.58526 7.28107L9.36603 6.90192C9.08988 6.42363 8.47829 6.25976 8 6.5359C7.55587 6.79232 7.38285 7.33797 7.58149 7.79756L7.63397 7.90192L7.85277 8.28173C7.7234 8.44318 7.61187 8.61953 7.52116 8.80781L7.43749 8.99994L7 9C6.44772 9 6 9.44772 6 10C6 10.5128 6.38604 10.9355 6.88338 10.9933L7 11L7.43778 11.0008C7.5142 11.1963 7.61235 11.3809 7.72927 11.5517L7.85232 11.7177L7.63397 12.0981L7.58149 12.2024C7.38285 12.662 7.55587 13.2077 8 13.4641C8.44413 13.7205 9.00319 13.5975 9.30189 13.1957L9.36603 13.0981L9.58626 12.7191C9.72121 12.7394 9.85937 12.75 10 12.75L10.209 12.7422L10.4137 12.7191L10.634 13.0981C10.9101 13.5764 11.5217 13.7402 12 13.4641C12.4441 13.2077 12.6172 12.662 12.4185 12.2024L12.366 12.0981L12.1477 11.7177C12.2768 11.5565 12.3881 11.3805 12.4787 11.1926L12.5622 11.0008L13 11C13.5523 11 14 10.5523 14 10C14 9.48716 13.614 9.06449 13.1166 9.00673L13 9L12.5625 8.99994C12.486 8.80406 12.3877 8.61909 12.2705 8.44804L12.1472 8.28173L12.366 7.90192L12.4185 7.79756C12.6172 7.33797 12.4441 6.79232 12 6.5359ZM10 9C10.5523 9 11 9.44772 11 10C11 10.5523 10.5523 11 10 11C9.44772 11 9 10.5523 9 10C9 9.44772 9.44772 9 10 9Z" fill="#333333"/>
</svg>
