<svg width="24" height="24" viewBox="0 0 24 24" fill="none" xmlns="http://www.w3.org/2000/svg">
<path d="M10.0488 2.19232C11.9886 1.80649 13.9999 2.00381 15.8271 2.76068C17.6543 3.51755 19.2156 4.79987 20.3144 6.44427C21.4132 8.08875 21.9999 10.0221 21.9999 11.9999H19.9999C19.9999 10.4177 19.5304 8.87118 18.6513 7.5556C17.8272 6.32227 16.6779 5.34386 15.333 4.72748L15.0615 4.60931C13.5998 4.00385 11.9911 3.84466 10.4394 4.15326C8.88758 4.46194 7.46153 5.22393 6.34272 6.34271C5.22392 7.46151 4.46196 8.88757 4.15327 10.4394C3.84465 11.9912 4.00386 13.5997 4.60932 15.0615C5.21483 16.5232 6.24009 17.7723 7.55561 18.6513C8.8712 19.5304 10.4177 19.9999 11.9999 19.9999V21.9999C10.0221 21.9999 8.08877 21.4132 6.44428 20.3144C4.79986 19.2156 3.51756 17.6543 2.76069 15.8271C2.00382 13.9998 1.80648 11.9886 2.19233 10.0488C2.57823 8.1091 3.53022 6.32708 4.92866 4.92865C6.3271 3.53023 8.10911 2.57821 10.0488 2.19232Z" fill="#333333"/>
<path d="M21.1308 13.6357C21.3097 13.5659 21.508 13.6802 21.5371 13.8701L21.8701 16.0439C21.9082 16.2927 21.6407 16.4754 21.4228 16.3495L20.8691 16.0292L19.3476 18.666C19.0852 19.1201 18.504 19.2758 18.0498 19.0136L16.2744 17.9882L14.6494 20.8027L13.3505 20.0527L15.2499 16.7626C15.5123 16.3083 16.0944 16.1526 16.5488 16.415L18.3232 17.4394L19.5703 15.2792L19.041 14.9736C18.8235 14.8476 18.8478 14.526 19.082 14.4345L21.1308 13.6357Z" fill="#333333"/>
<path fill-rule="evenodd" clip-rule="evenodd" d="M12.5966 8.47552C12.8091 8.49514 13.015 8.52931 13.2138 8.58099L13.2128 8.58197C13.5353 8.6642 13.8695 8.7794 14.2138 8.92963L14.3652 8.99603L13.7871 10.3896L13.6318 10.3261C13.3358 10.2053 13.0721 10.1121 12.8408 10.0468C12.6168 9.98366 12.3863 9.95211 12.1503 9.95209C11.9964 9.95211 11.8739 9.97746 11.7783 10.0204C11.6802 10.0646 11.6112 10.1229 11.5634 10.1923C11.5239 10.2583 11.5009 10.3411 11.5009 10.4462C11.501 10.5608 11.5338 10.6524 11.5966 10.7294L11.6601 10.7929C11.7328 10.8578 11.8322 10.9263 11.9628 10.996C12.1439 11.0926 12.3717 11.2079 12.6455 11.3417L12.8945 11.4648C13.1332 11.5894 13.344 11.7193 13.5263 11.8535C13.7835 12.0381 13.9858 12.2595 14.1279 12.5165C14.2737 12.7806 14.3427 13.0983 14.3427 13.4619C14.3427 13.8769 14.2395 14.2475 14.0292 14.5663C13.8189 14.8853 13.5157 15.1292 13.1289 15.2997C12.9658 15.37 12.7874 15.4232 12.5966 15.4628V17.0624H11.331V15.5244C11.2404 15.5167 11.1501 15.5085 11.0605 15.496C10.8395 15.4644 10.6231 15.4202 10.414 15.3632L10.4081 15.3613C10.2046 15.2976 10.0096 15.2213 9.82416 15.1318L9.72846 15.0859V13.4267L9.96381 13.5283C10.2717 13.6611 10.5897 13.7845 10.916 13.8994L11.1552 13.9687C11.3944 14.0277 11.6312 14.0566 11.8652 14.0566C12.079 14.0566 12.2335 14.0277 12.3378 13.9804L12.3408 13.9785C12.4578 13.9275 12.5276 13.8657 12.5664 13.7997L12.5693 13.7939C12.6175 13.7194 12.6435 13.6315 12.6435 13.5263C12.6434 13.4055 12.603 13.3072 12.5185 13.2226L12.5156 13.2197C12.4219 13.1208 12.2885 13.0236 12.1103 12.9316L12.1064 12.9296C11.9199 12.8274 11.7047 12.7188 11.4619 12.6035L11.4609 12.6025C11.3045 12.5274 11.1358 12.44 10.956 12.3408L10.9521 12.3388C10.7643 12.2287 10.5841 12.096 10.4111 11.9423L10.4052 11.9374C10.2308 11.7695 10.0876 11.5684 9.97553 11.3378C9.85773 11.0952 9.80272 10.8114 9.80268 10.4921C9.80268 10.0739 9.89727 9.70638 10.0956 9.39838L10.0966 9.3974C10.2997 9.08614 10.583 8.85063 10.9414 8.69135C11.0644 8.63767 11.1951 8.59369 11.331 8.55853V6.93744H12.5966V8.47552ZM10.8623 14.0595C10.9466 14.0871 11.0312 14.112 11.1152 14.1328L10.8623 14.0595ZM13.9804 12.5976L13.9023 12.4697C13.895 12.4589 13.8864 12.449 13.8789 12.4384C13.9154 12.49 13.95 12.5426 13.9804 12.5976ZM9.99995 10.8613C10.0018 10.8718 10.0048 10.8821 10.0068 10.8925C9.99547 10.8335 9.98634 10.7724 9.98041 10.7089L9.99995 10.8613ZM10.4746 9.20013C10.4448 9.22899 10.4161 9.25902 10.3886 9.28998C10.4213 9.25316 10.4552 9.21836 10.4912 9.18451C10.4856 9.18972 10.48 9.19485 10.4746 9.20013Z" fill="#333333"/>
</svg>
