<svg width="20" height="20" viewBox="0 0 20 20" fill="none" xmlns="http://www.w3.org/2000/svg">
<path fill-rule="evenodd" clip-rule="evenodd" d="M8.5 8.25L8.977 8.409L11.5 11.571V16.25H11.4876L8.5 15.0981V8.25ZM7.50092 8.25L7.5 15.098L4.5 16.25V9.58441L7.50092 8.25ZM15.5 8.25V14.9156L12.5 16.25V11.662L14.977 8.483L15.5 8.25ZM12 3.75C13.3807 3.75 14.5 4.86929 14.5 6.25C14.5 6.78027 14.3349 7.27199 14.0533 7.67655L13.9421 7.82316L12.0033 10.549L10.0572 7.82316C9.70895 7.39431 9.5 6.84656 9.5 6.25C9.5 4.86929 10.6193 3.75 12 3.75ZM12 5.25C11.4477 5.25 11 5.69772 11 6.25C11 6.80228 11.4477 7.25 12 7.25C12.5523 7.25 13 6.80228 13 6.25C13 5.69772 12.5523 5.25 12 5.25Z" fill="#333333"/>
</svg>
