<svg width="20" height="20" viewBox="0 0 20 20" fill="none" xmlns="http://www.w3.org/2000/svg">
<path d="M6 9C6.55228 9 7 9.44772 7 10C7 10.5523 6.55228 11 6 11C5.44772 11 5 10.5523 5 10C5 9.44772 5.44772 9 6 9Z" fill="#333333"/>
<path d="M10 9C10.5523 9 11 9.44772 11 10C11 10.5523 10.5523 11 10 11C9.44772 11 9 10.5523 9 10C9 9.44772 9.44772 9 10 9Z" fill="#333333"/>
<path d="M14 9C14.5523 9 15 9.44772 15 10C15 10.5523 14.5523 11 14 11C13.4477 11 13 10.5523 13 10C13 9.44772 13.4477 9 14 9Z" fill="#333333"/>
<path fill-rule="evenodd" clip-rule="evenodd" d="M13 5C14.8692 5 15.8038 5.00042 16.5 5.40234C16.9559 5.66561 17.3344 6.04408 17.5977 6.5C17.9996 7.19615 18 8.13077 18 10C18 11.8692 17.9996 12.8038 17.5977 13.5L17.4941 13.667C17.239 14.0487 16.8991 14.3672 16.5 14.5977L16.3662 14.6689C15.6831 15 14.7522 15 13 15H7C5.13077 15 4.19615 14.9996 3.5 14.5977C3.10093 14.3672 2.76096 14.0487 2.50586 13.667L2.40234 13.5C2.00042 12.8038 2 11.8692 2 10C2 8.24784 2.00002 7.3169 2.33105 6.63379L2.40234 6.5C2.63279 6.10093 2.95133 5.76096 3.33301 5.50586L3.5 5.40234C4.19615 5.00042 5.13077 5 7 5H13ZM7 6.5C6.03778 6.5 5.41622 6.50127 4.94531 6.54395C4.49515 6.58476 4.33172 6.65399 4.25 6.70117C4.02204 6.8328 3.8328 7.02204 3.70117 7.25C3.65399 7.33172 3.58476 7.49515 3.54395 7.94531C3.50127 8.41622 3.5 9.03778 3.5 10C3.5 10.9622 3.50127 11.5838 3.54395 12.0547C3.58476 12.5049 3.65399 12.6683 3.70117 12.75C3.8328 12.978 4.02204 13.1672 4.25 13.2988C4.33172 13.346 4.49515 13.4152 4.94531 13.4561C5.41622 13.4987 6.03778 13.5 7 13.5H13C13.9622 13.5 14.5838 13.4987 15.0547 13.4561C15.5049 13.4152 15.6683 13.346 15.75 13.2988C15.978 13.1672 16.1672 12.978 16.2988 12.75C16.346 12.6683 16.4152 12.5049 16.4561 12.0547C16.4987 11.5838 16.5 10.9622 16.5 10C16.5 9.03778 16.4987 8.41622 16.4561 7.94531C16.4152 7.49515 16.346 7.33172 16.2988 7.25C16.1672 7.02204 15.978 6.8328 15.75 6.70117C15.6683 6.65399 15.5049 6.58476 15.0547 6.54395C14.5838 6.50127 13.9622 6.5 13 6.5H7Z" fill="#333333"/>
</svg>
