<svg width="20" height="20" viewBox="0 0 20 20" fill="none" xmlns="http://www.w3.org/2000/svg">
<path fill-rule="evenodd" clip-rule="evenodd" d="M12 3C14.2091 3 16 4.79086 16 7V13C16 15.2091 14.2091 17 12 17H8C5.79086 17 4 15.2091 4 13V7C4 4.79086 5.79086 3 8 3H12ZM12 4.5H8C6.67452 4.5 5.58996 5.53154 5.50532 6.83562L5.5 7V13C5.5 14.3255 6.53154 15.41 7.83562 15.4947L8 15.5H12C13.3255 15.5 14.41 14.4685 14.4947 13.1644L14.5 13V7C14.5 5.67452 13.4685 4.58996 12.1644 4.50532L12 4.5ZM11 7C11 7.55228 10.5523 8 10 8C9.44772 8 9 7.55228 9 7C9 6.44772 9.44772 6 10 6C10.5523 6 11 6.44772 11 7ZM8.5 13V14H9.5H10.5H11.5V13H11V9.5C11 9.22386 10.7761 9 10.5 9H9.5H8.5V10H9V13H8.5Z" fill="#333333"/>
</svg>
