<svg width="20" height="20" viewBox="0 0 20 20" fill="none" xmlns="http://www.w3.org/2000/svg">
<path fill-rule="evenodd" clip-rule="evenodd" d="M10.5 6.75C10.5 8.13071 9.38071 9.25 8 9.25C6.61929 9.25 5.5 8.13071 5.5 6.75C5.5 5.36929 6.61929 4.25 8 4.25C9.38071 4.25 10.5 5.36929 10.5 6.75ZM3.5 13.75C3.5 12.0931 4.84315 10.75 6.5 10.75H9.5C11.1569 10.75 12.5 12.0931 12.5 13.75V14.75C12.5 15.3023 12.0523 15.75 11.5 15.75H4.5C3.94772 15.75 3.5 15.3023 3.5 14.75V13.75ZM12 9.25C11.5446 9.25 11.1176 9.12823 10.7499 8.91547C11.2197 8.31971 11.5 7.56759 11.5 6.75C11.5 5.93241 11.2197 5.18029 10.7499 4.58453C11.1176 4.37177 11.5446 4.25 12 4.25C13.3807 4.25 14.5 5.36929 14.5 6.75C14.5 8.13071 13.3807 9.25 12 9.25ZM15.5 15.75H13.1989C13.3872 15.5165 13.5 15.2185 13.5 14.8938V14.0719C13.5 12.6492 12.993 11.408 12.023 10.75H13.5C15.1569 10.75 16.5 12.0931 16.5 13.75V14.75C16.5 15.3023 16.0523 15.75 15.5 15.75Z" fill="#333333"/>
</svg>
