<svg width="20" height="20" viewBox="0 0 20 20" fill="none" xmlns="http://www.w3.org/2000/svg">
<path fill-rule="evenodd" clip-rule="evenodd" d="M9.24558 3.26671L4.46203 7.0711C4.17007 7.3033 4 7.6556 4 8.02819V15.7762C4 16.4521 4.54898 17 5.22619 17H14.7738C15.451 17 16 16.4521 16 15.7762V8.02683C16 7.65501 15.8306 7.30336 15.5397 7.07112L10.7756 3.26809C10.3285 2.91115 9.69337 2.91058 9.24558 3.26671ZM7.82543 13.0273C7.52018 13.0273 7.27273 13.2748 7.27273 13.58C7.27273 13.8853 7.52018 14.1327 7.82543 14.1327H12.1746C12.4798 14.1327 12.7273 13.8853 12.7273 13.58C12.7273 13.2748 12.4798 13.0273 12.1746 13.0273H7.82543ZM8.5 8.02732H11.5V11.0273H8.5V8.02732Z" fill="#333333"/>
</svg>
