<svg width="20" height="20" viewBox="0 0 20 20" fill="none" xmlns="http://www.w3.org/2000/svg">
<path fill-rule="evenodd" clip-rule="evenodd" d="M3.5 5.5C3.5 4.94772 3.94772 4.5 4.5 4.5H13.5C14.0523 4.5 14.5 4.94772 14.5 5.5V5.55001C14.6616 5.51722 14.8288 5.5 15 5.5C16.3807 5.5 17.5 6.61929 17.5 8C17.5 9.38071 16.3807 10.5 15 10.5C14.7904 10.5 14.5869 10.4742 14.3924 10.4256C13.9747 12.1885 12.3905 13.5 10.5 13.5H7.5C5.29086 13.5 3.5 11.7091 3.5 9.5V5.5ZM14.5 7.13378V8.86622C14.6471 8.9513 14.8179 9 15 9C15.5523 9 16 8.55228 16 8C16 7.44772 15.5523 7 15 7C14.8179 7 14.6471 7.0487 14.5 7.13378ZM5 14.5C4.72386 14.5 4.5 14.7239 4.5 15V15.5C4.5 16.0523 4.94772 16.5 5.5 16.5H13.5C14.0523 16.5 14.5 16.0523 14.5 15.5V15C14.5 14.7239 14.2761 14.5 14 14.5H5Z" fill="#333333"/>
</svg>
