<svg width="24" height="24" viewBox="0 0 24 24" fill="none" xmlns="http://www.w3.org/2000/svg">
<path fill-rule="evenodd" clip-rule="evenodd" d="M3.5 6.5C3.5 4.84315 4.84315 3.5 6.5 3.5H17.5C19.1569 3.5 20.5 4.84315 20.5 6.5V17.5C20.5 19.1569 19.1569 20.5 17.5 20.5H6.5C4.84315 20.5 3.5 19.1569 3.5 17.5V6.5ZM6.5 5.5C5.94772 5.5 5.5 5.94772 5.5 6.5V17.5C5.5 18.0523 5.94772 18.5 6.5 18.5H17.5C18.0523 18.5 18.5 18.0523 18.5 17.5V6.5C18.5 5.94772 18.0523 5.5 17.5 5.5H14V7.5C14 7.77614 13.7761 8 13.5 8H10.5C10.2239 8 10 7.77614 10 7.5V5.5H6.5ZM9 11.5C9 11.2239 9.22386 11 9.5 11H14.5C14.7761 11 15 11.2239 15 11.5V12.5C15 12.7761 14.7761 13 14.5 13H9.5C9.22386 13 9 12.7761 9 12.5V11.5Z" fill="#333333"/>
</svg>
