<svg width="20" height="20" viewBox="0 0 20 20" fill="none" xmlns="http://www.w3.org/2000/svg">
<path fill-rule="evenodd" clip-rule="evenodd" d="M5 4.5C5 3.67157 5.67157 3 6.5 3H13.5C14.3284 3 15 3.67157 15 4.5V16.5C15 17.3284 14.3284 18 13.5 18H6.5C5.67157 18 5 17.3284 5 16.5V4.5ZM8.5 16.2C8.5 16.0895 8.58954 16 8.7 16H11.3C11.4105 16 11.5 16.0895 11.5 16.2V16.8C11.5 16.9105 11.4105 17 11.3 17H8.7C8.58954 17 8.5 16.9105 8.5 16.8V16.2ZM7 4.5C6.72386 4.5 6.5 4.72386 6.5 5V14.5C6.5 14.7761 6.72386 15 7 15H13C13.2761 15 13.5 14.7761 13.5 14.5V5C13.5 4.72386 13.2761 4.5 13 4.5H7Z" fill="#333333"/>
</svg>
