<svg width="20" height="20" viewBox="0 0 20 20" fill="none" xmlns="http://www.w3.org/2000/svg">
<path fill-rule="evenodd" clip-rule="evenodd" d="M11.1582 11.7977L9.20447 9.86312C8.93184 9.59185 8.93184 9.152 9.20447 8.88073C9.4771 8.60946 9.91919 8.60946 10.1918 8.88073L11.6916 10.3649L15.854 6.19681C16.1162 5.9344 16.5412 5.9344 16.8034 6.19681C17.0655 6.45922 17.0655 6.88468 16.8034 7.14713L12.1533 11.8044C12.0323 11.9255 11.8766 11.9907 11.7182 12L11.6107 11.9999C11.446 11.9903 11.2841 11.9229 11.1582 11.7977Z" fill="#333333"/>
<path fill-rule="evenodd" clip-rule="evenodd" d="M6.5 2.5C5.67157 2.5 5 3.17157 5 4V16C5 16.8284 5.67157 17.5 6.5 17.5H13.5C14.3284 17.5 15 16.8284 15 16V11.0761L13.5 12.5784V14C13.5 14.2761 13.2761 14.5 13 14.5H7C6.72386 14.5 6.5 14.2761 6.5 14V4.5C6.5 4.22386 6.72386 4 7 4H13C13.2761 4 13.5 4.22386 13.5 4.5V6.43111L14.7926 5.13673C14.8587 5.07058 14.928 5.00958 15 4.95373V4C15 3.17157 14.3284 2.5 13.5 2.5H6.5ZM8.7 15.5C8.58954 15.5 8.5 15.5895 8.5 15.7V16.3C8.5 16.4105 8.58954 16.5 8.7 16.5H11.3C11.4105 16.5 11.5 16.4105 11.5 16.3V15.7C11.5 15.5895 11.4105 15.5 11.3 15.5H8.7Z" fill="#333333"/>
</svg>
