<svg width="20" height="20" viewBox="0 0 20 20" fill="none" xmlns="http://www.w3.org/2000/svg">
<path fill-rule="evenodd" clip-rule="evenodd" d="M12.7362 6.35306L9.33338 3L5.7421 6.53878L4.94572 7.32352L3.5 8.74811L4.94572 10.1727L8.60421 13.7777L8.82981 14H3.5V15H9.84464L10.8595 16H5.5V17H11.8743L11.8748 17.0004H15.5421L15.5425 17H16.5V16V15.3536C16.5064 15.2611 16.5064 15.1683 16.5 15.0759V15H16.4933C16.4458 14.5573 16.2509 14.1275 15.9086 13.7901L11.1867 9.1373L12.7362 6.35306ZM4.5 12H3.5V13H4.5V12ZM3.5 16H4.5V17H3.5V16Z" fill="#333333"/>
</svg>
