<svg width="20" height="20" viewBox="0 0 20 20" fill="none" xmlns="http://www.w3.org/2000/svg">
<path fill-rule="evenodd" clip-rule="evenodd" d="M12.1538 4C12.4512 4 12.6923 4.24421 12.6923 4.54545V5.09091H15.9231C16.5178 5.09091 17 5.57933 17 6.18182V14.9091C17 15.5116 16.5178 16 15.9231 16H4.07692C3.48215 16 3 15.5116 3 14.9091V6.18182C3 5.57933 3.48215 5.09091 4.07692 5.09091H7.30769V4.54545C7.30769 4.24421 7.54877 4 7.84615 4H12.1538ZM7.5 8C6.67157 8 6 8.67157 6 9.5C6 10.3284 6.67157 11 7.5 11C6.11929 11 5 11.7396 5 12.6519V13H10V12.6519C10 11.7396 8.88071 11 7.5 11C8.32843 11 9 10.3284 9 9.5C9 8.67157 8.32843 8 7.5 8ZM11 10H14V11H11V10ZM14 12H11V13H14V12ZM11 8H14V9H11V8Z" fill="#333333"/>
</svg>
