<svg width="12" height="12" viewBox="0 0 12 12" fill="none" xmlns="http://www.w3.org/2000/svg">
<path d="M6.5 5.25C6.63807 5.25 6.75 5.36193 6.75 5.5V8.5C6.75 8.63807 6.63807 8.75 6.5 8.75H5.5C5.36193 8.75 5.25 8.63807 5.25 8.5V5.5C5.25 5.36193 5.36193 5.25 5.5 5.25H6.5Z" fill="#333333"/>
<path d="M6 3.25C6.41421 3.25 6.75 3.58579 6.75 4C6.75 4.41421 6.41421 4.75 6 4.75C5.58579 4.75 5.25 4.41421 5.25 4C5.25 3.58579 5.58579 3.25 6 3.25Z" fill="#333333"/>
<path fill-rule="evenodd" clip-rule="evenodd" d="M6 0.5C9.03757 0.5 11.5 2.96243 11.5 6C11.5 9.03757 9.03757 11.5 6 11.5C2.96243 11.5 0.5 9.03757 0.5 6C0.5 2.96243 2.96243 0.5 6 0.5ZM6 2C3.79086 2 2 3.79086 2 6C2 8.20914 3.79086 10 6 10C8.20914 10 10 8.20914 10 6C10 3.79086 8.20914 2 6 2Z" fill="#333333"/>
</svg>
