<svg width="20" height="20" viewBox="0 0 20 20" fill="none" xmlns="http://www.w3.org/2000/svg">
<path fill-rule="evenodd" clip-rule="evenodd" d="M12 7C12.3226 7 12.6381 7.03056 12.9437 7.08894C12.3425 5.77981 10.9169 4.8284 9.2136 4.75461L9 4.75V3.25C11.9054 3.25 14.3313 5.21419 14.7012 7.79171C15.042 8.0109 15.3544 8.27035 15.6317 8.56335L11.9638 12.4896L10.0523 10.5041C9.81157 10.2535 9.42123 10.2535 9.18053 10.5041C8.93982 10.7547 8.93982 11.161 9.18053 11.4116L11.4929 13.8131C11.604 13.9287 11.747 13.991 11.8924 13.9999L11.9873 14C12.1271 13.9914 12.2646 13.9311 12.3715 13.8193L16.3626 9.55527C16.7685 10.2781 17 11.112 17 12C17 14.7614 14.7614 17 12 17C10.2228 17 8.66208 16.0727 7.77537 14.6756C5.20258 14.2359 3.25 11.9012 3.25 9.10165C3.25 7.62005 3.80079 6.23361 4.74594 5.20016L4 5.2V4H7V7H5.8V6.27139C5.13728 7.02491 4.75 8.02687 4.75 9.10165C4.75 10.802 5.71101 12.256 7.08046 12.8982C7.02761 12.6068 7 12.3066 7 12C7 9.23859 9.2386 7 12 7Z" fill="#333333"/>
</svg>
