<svg width="20" height="20" viewBox="0 0 20 20" fill="none" xmlns="http://www.w3.org/2000/svg">
<path d="M10 2C14.4183 2 18 5.58172 18 10C18 14.4183 14.4183 18 10 18C5.58172 18 2 14.4183 2 10C2 5.58172 5.58172 2 10 2ZM13.7656 7.23438C13.4533 6.92202 12.9472 6.92215 12.6348 7.23438L9.2002 10.6689L7.36523 8.83398C7.05285 8.52202 6.54668 8.52189 6.23438 8.83398C5.92196 9.1464 5.92196 9.6534 6.23438 9.96582L8.63477 12.3652C8.94719 12.6777 9.45321 12.6777 9.76562 12.3652L13.7656 8.36523C14.0778 8.0528 14.078 7.54673 13.7656 7.23438Z" fill="#333333"/>
</svg>
