<svg width="20" height="20" viewBox="0 0 20 20" fill="none" xmlns="http://www.w3.org/2000/svg">
<path fill-rule="evenodd" clip-rule="evenodd" d="M10 18C14.4183 18 18 14.4183 18 10C18 5.58172 14.4183 2 10 2C5.58172 2 2 5.58172 2 10C2 14.4183 5.58172 18 10 18ZM13.7657 8.36569C14.0781 8.05327 14.0781 7.54673 13.7657 7.23431C13.4533 6.9219 12.9467 6.9219 12.6343 7.23431L9.2 10.6686L7.36569 8.83431C7.05327 8.5219 6.54673 8.5219 6.23431 8.83431C5.9219 9.14673 5.9219 9.65327 6.23431 9.96569L8.63431 12.3657C8.94673 12.6781 9.45327 12.6781 9.76569 12.3657L13.7657 8.36569Z" fill="#333333"/>
</svg>
