<svg width="20" height="20" viewBox="0 0 20 20" fill="none" xmlns="http://www.w3.org/2000/svg">
<path fill-rule="evenodd" clip-rule="evenodd" d="M14.8063 3.75C16.1159 3.75 17.1619 4.83399 17.2435 6.17699L17.2486 6.34615V14.6538C17.2486 16.017 16.2549 17.1555 14.9686 17.2444L14.8063 17.25H7.19091C5.88136 17.25 4.83532 16.166 4.75373 14.823L4.74861 14.6538V12.5H6.24861V14.6538C6.24861 15.2318 6.62942 15.6858 7.0909 15.7437L7.19091 15.75H14.8063C15.2778 15.75 15.69 15.3346 15.7429 14.7757L15.7486 14.6538V6.34615C15.7486 5.76818 15.3678 5.31422 14.9063 5.25626L14.8063 5.25V3.75ZM9.68306 2.5L14.4986 7.50651L9.68306 12.5011V9.50434L9.50261 9.46937L9.32376 9.44464L9.17427 9.42956L9.00224 9.41779L8.8091 9.4112L8.5963 9.41165L8.36526 9.421L8.11742 9.44112C7.98954 9.45419 7.85589 9.47199 7.71728 9.49558L7.4337 9.5508C5.98511 9.86857 4.0944 10.8351 2.5675 13.5L2.53589 13.2687L2.51571 13.0414L2.50145 12.7476L2.5 12.3944L2.50953 12.1296L2.52984 11.8438L2.56295 11.5392C2.73043 10.2335 3.28442 8.49222 4.88708 7.01179L5.19761 6.73562L5.30724 6.64966L5.45437 6.54457L5.63947 6.42515C5.67351 6.40432 5.70916 6.38309 5.74641 6.36156L5.98936 6.22963C6.73296 5.85022 7.94805 5.44246 9.68306 5.49674V2.5Z" fill="#333333"/>
</svg>
