<svg width="20" height="20" viewBox="0 0 20 20" fill="none" xmlns="http://www.w3.org/2000/svg">
<path fill-rule="evenodd" clip-rule="evenodd" d="M7 6C7 4.34315 8.34315 3 10 3C11.6569 3 13 4.34315 13 6V9.5625C13 9.80412 12.8041 10 12.5625 10H7.4375C7.19588 10 7 9.80412 7 9.5625V6ZM5.12637 11.1771C5.04588 11.3212 5 11.4872 5 11.664V12.164C5 12.7163 5.44772 13.164 6 13.164H9.25V14.1554H6.5L6.37219 14.1619C5.86052 14.2139 5.44008 14.5744 5.29993 15.0545C5.11803 15.1884 5 15.404 5 15.6472V16.1764C5 16.5826 5.32924 16.9118 5.73537 16.9118H6.26463C6.67076 16.9118 7 16.5826 7 16.1764V15.655H13V16.1764C13 16.5826 13.3292 16.9118 13.7354 16.9118H14.2646C14.6708 16.9118 15 16.5826 15 16.1764V15.6472C15 15.404 14.882 15.1884 14.7001 15.0545C14.5484 14.535 14.0685 14.1554 13.5 14.1554H10.75V13.164H14C14.5523 13.164 15 12.7163 15 12.164V11.664C15 11.533 14.9748 11.4078 14.929 11.2931L14.929 9.402L15.5711 9.40265V9.38446C15.6239 9.39652 15.6789 9.40289 15.7354 9.40289H16.2646C16.6708 9.40289 17 9.07365 17 8.66752V8.64055C17 8.23442 16.6708 7.90518 16.2646 7.90518H15.7354C15.6789 7.90518 15.6239 7.91155 15.5711 7.9236V7.90265H14.6789C14.0317 7.90265 13.4994 8.39452 13.4354 9.02484L13.4289 9.15265V10.664H6.62654V9.15265L6.62009 9.02484C6.55607 8.39452 6.02375 7.90265 5.37654 7.90265H4.37346V7.91318C4.33795 7.90791 4.30161 7.90518 4.26463 7.90518H3.73537C3.32924 7.90518 3 8.23442 3 8.64055V8.66752C3 9.07365 3.32924 9.40289 3.73537 9.40289H4.26463C4.30161 9.40289 4.33795 9.40016 4.37346 9.39489V9.40265L5.126 9.402L5.12637 11.1771Z" fill="#333333"/>
</svg>
