<svg width="20" height="20" viewBox="0 0 20 20" fill="none" xmlns="http://www.w3.org/2000/svg">
<path d="M7 10.5C8.10457 10.5 9 10.9944 9 11.7939C8.99996 12.1839 8.68387 12.5 8.29395 12.5H5.70605C5.31613 12.5 5.00004 12.1839 5 11.7939C5 10.9944 5.89543 10.5 7 10.5Z" fill="#333333"/>
<path d="M14.5 10.5C14.7761 10.5 15 10.7239 15 11V11.5C15 11.7761 14.7761 12 14.5 12H11.5C11.2239 12 11 11.7761 11 11.5V11C11 10.7239 11.2239 10.5 11.5 10.5H14.5Z" fill="#333333"/>
<path d="M7 7.5C7.55228 7.5 8 7.94772 8 8.5C8 9.05228 7.55228 9.5 7 9.5C6.44772 9.5 6 9.05228 6 8.5C6 7.94772 6.44772 7.5 7 7.5Z" fill="#333333"/>
<path d="M14.5 8C14.7761 8 15 8.22386 15 8.5V9C15 9.27614 14.7761 9.5 14.5 9.5H11.5C11.2239 9.5 11 9.27614 11 9V8.5C11 8.22386 11.2239 8 11.5 8H14.5Z" fill="#333333"/>
<path fill-rule="evenodd" clip-rule="evenodd" d="M16 4C17.1046 4 18 4.89543 18 6V14L17.9893 14.2041C17.887 15.2128 17.0357 16 16 16H4C2.96435 16 2.113 15.2128 2.01074 14.2041L2 14V6C2 4.89543 2.89543 4 4 4H16ZM4 5.5C3.72386 5.5 3.5 5.72386 3.5 6V14C3.5 14.2761 3.72386 14.5 4 14.5H16C16.2761 14.5 16.5 14.2761 16.5 14V6C16.5 5.72386 16.2761 5.5 16 5.5H4Z" fill="#333333"/>
</svg>
