<svg width="20" height="20" viewBox="0 0 20 20" fill="none" xmlns="http://www.w3.org/2000/svg">
<path fill-rule="evenodd" clip-rule="evenodd" d="M3 4C3 3.44772 3.44772 3 4 3H16C16.5523 3 17 3.44772 17 4V16C17 16.5523 16.5523 17 16 17H4C3.44772 17 3 16.5523 3 16L3 4ZM7.66667 8.83333C8.311 8.83333 8.83333 8.311 8.83333 7.66667C8.83333 7.02233 8.311 6.5 7.66667 6.5C7.02233 6.5 6.5 7.02233 6.5 7.66667C6.5 8.311 7.02233 8.83333 7.66667 8.83333ZM14.75 15.25H4.75L7.52228 12.0156C7.91038 11.5628 8.60598 11.5482 9.01276 11.9843L10 13.0426L12.7013 9.80698C13.1157 9.31055 13.8852 9.33212 14.2712 9.85097L15.0523 10.9009C15.1807 11.0734 15.25 11.2828 15.25 11.4978V14.75C15.25 15.0261 15.0261 15.25 14.75 15.25Z" fill="#333333"/>
</svg>
