<svg width="20" height="20" viewBox="0 0 20 20" fill="none" xmlns="http://www.w3.org/2000/svg">
<path fill-rule="evenodd" clip-rule="evenodd" d="M7.0833 3C7.52628 3 7.89237 3.28728 7.95031 3.66002L7.9583 3.76364V4.78182H12.0417V3.76364C12.0417 3.34189 12.4335 3 12.9167 3C13.3597 3 13.7258 3.28728 13.7837 3.66002L13.7917 3.76364V4.78182H16.05C16.5747 4.78182 17 5.20715 17 5.73182V6.76727V7.90454V16.0327C17 16.5669 16.5038 17 15.8917 17H4.10833C3.49622 17 3 16.5669 3 16.0327V7.90455V6.76727V5.73182C3 5.20715 3.42533 4.78182 3.95 4.78182H6.2083V3.76364C6.2083 3.34189 6.60005 3 7.0833 3ZM15.25 8.85455H4.75V15.4727H15.25V8.85455ZM7.86663 10.8909C7.75617 10.8909 7.66663 10.9805 7.66663 11.0909V12.7273C7.66663 12.8377 7.75617 12.9273 7.86663 12.9273H12.1333C12.2437 12.9273 12.3333 12.8377 12.3333 12.7273V11.0909C12.3333 10.9805 12.2437 10.8909 12.1333 10.8909H7.86663Z" fill="#333333"/>
</svg>
