<svg width="24" height="24" viewBox="0 0 24 24" fill="none" xmlns="http://www.w3.org/2000/svg">
<path fill-rule="evenodd" clip-rule="evenodd" d="M4 12C4 7.58172 7.58172 4 12 4C16.4183 4 20 7.58172 20 12C20 16.4183 16.4183 20 12 20C7.58172 20 4 16.4183 4 12ZM12 2C6.47715 2 2 6.47715 2 12C2 17.5228 6.47715 22 12 22C17.5228 22 22 17.5228 22 12C22 6.47715 17.5228 2 12 2ZM13 8C13 8.55228 12.5523 9 12 9C11.4477 9 11 8.55228 11 8C11 7.44772 11.4477 7 12 7C12.5523 7 13 7.44772 13 8ZM10 10.75C10 10.3358 10.3358 10 10.75 10H12.25C12.6642 10 13 10.3358 13 10.75V14.5H13.25C13.6642 14.5 14 14.8358 14 15.25C14 15.6642 13.6642 16 13.25 16H12.25H10.75C10.3358 16 10 15.6642 10 15.25C10 14.8358 10.3358 14.5 10.75 14.5H11.5V11.5H10.75C10.3358 11.5 10 11.1642 10 10.75Z" fill="#333333"/>
</svg>
