<svg width="18" height="18" viewBox="0 0 18 18" fill="none" xmlns="http://www.w3.org/2000/svg">
<path fill-rule="evenodd" clip-rule="evenodd" d="M13 5.5V2.5H5V5.5L6.4251 6.21311C4.972 7.08779 4 8.68038 4 10.5C4 13.2614 6.23858 15.5 9 15.5C11.7614 15.5 14 13.2614 14 10.5C14 8.68038 13.028 7.08779 11.5749 6.21311L13 5.5ZM5.5 10.5C5.5 8.567 7.067 7 9 7C10.933 7 12.5 8.567 12.5 10.5C12.5 12.433 10.933 14 9 14C7.067 14 5.5 12.433 5.5 10.5ZM11.5 10.5C11.5 9.11929 10.3807 8 9 8C7.61929 8 6.5 9.11929 6.5 10.5C6.5 11.8807 7.61929 13 9 13C10.3807 13 11.5 11.8807 11.5 10.5Z" fill="#333333"/>
<path opacity="0.5" fill-rule="evenodd" clip-rule="evenodd" d="M9.99993 2.5L10.0004 5.60011C9.67714 5.53446 9.34256 5.5 8.99993 5.5C8.65714 5.5 8.32241 5.53449 7.99902 5.6002L7.99993 2.5H9.99993Z" fill="white"/>
</svg>
