<svg width="20" height="20" viewBox="0 0 20 20" fill="none" xmlns="http://www.w3.org/2000/svg">
<path fill-rule="evenodd" clip-rule="evenodd" d="M6 3C4.89543 3 4 3.89543 4 5V9.25H9.18917L8.46967 8.53033C8.2034 8.26406 8.1792 7.8474 8.39705 7.55379L8.46967 7.46967C8.73594 7.2034 9.1526 7.1792 9.44621 7.39705L9.53033 7.46967L11.5303 9.46967C11.7966 9.73594 11.8208 10.1526 11.6029 10.4462L11.5303 10.5303L9.53033 12.5303C9.23744 12.8232 8.76256 12.8232 8.46967 12.5303C8.2034 12.2641 8.1792 11.8474 8.39705 11.5538L8.46967 11.4697L9.18917 10.75H4V15C4 16.1046 4.89543 17 6 17H14C15.1046 17 16 16.1046 16 15V5C16 3.89543 15.1046 3 14 3H6Z" fill="#333333"/>
</svg>
