<svg width="20" height="20" viewBox="0 0 20 20" fill="none" xmlns="http://www.w3.org/2000/svg">
<path fill-rule="evenodd" clip-rule="evenodd" d="M9.75 4C6.57436 4 4 6.57436 4 9.75C4 12.9256 6.57436 15.5 9.75 15.5C12.9256 15.5 15.5 12.9256 15.5 9.75C15.5 6.57436 12.9256 4 9.75 4ZM9.75 5.5C12.0972 5.5 14 7.40279 14 9.75C14 12.0972 12.0972 14 9.75 14C7.40279 14 5.5 12.0972 5.5 9.75C5.5 7.40279 7.40279 5.5 9.75 5.5Z" fill="#333333"/>
<path fill-rule="evenodd" clip-rule="evenodd" d="M4 9.75C4 6.57436 6.57436 4 9.75 4C12.6714 4 15.084 6.17873 15.4515 9H15.75C16.1642 9 16.5 9.33579 16.5 9.75C16.5 10.1297 16.2178 10.4435 15.8518 10.4932L15.75 10.5H14.75H12.6555C12.3225 11.7939 11.1479 12.75 9.75 12.75C8.09315 12.75 6.75 11.4069 6.75 9.75C6.75 8.09315 8.09315 6.75 9.75 6.75C11.1479 6.75 12.3225 7.70608 12.6555 9H13.934C13.5798 7.01049 11.8413 5.5 9.75 5.5C7.40279 5.5 5.5 7.40279 5.5 9.75C5.5 12.0972 7.40279 14 9.75 14C10.1642 14 10.5 14.3358 10.5 14.75C10.5 15.1642 10.1642 15.5 9.75 15.5C6.57436 15.5 4 12.9256 4 9.75Z" fill="#333333"/>
</svg>
