<svg width="20" height="20" viewBox="0 0 20 20" fill="none" xmlns="http://www.w3.org/2000/svg">
<path d="M10 2C14.4179 2.00021 17.999 5.58207 17.999 10C17.999 14.4179 14.4178 17.9988 10 17.999C5.58197 17.999 2.00005 14.418 2 10C2 5.58194 5.58194 2 10 2ZM10 3.5C6.41032 3.5 3.5 6.41032 3.5 10C3.50005 13.5896 6.41036 16.5 10 16.5C13.5895 16.4998 16.499 13.5895 16.499 10C16.499 6.41045 13.5895 3.50021 10 3.5ZM10.7012 13.5498C10.7011 13.6602 10.6114 13.75 10.501 13.75H9.20117V8.75H10.7012V13.5498ZM9.95117 6.25C10.3653 6.25002 10.7011 6.58589 10.7012 7C10.7012 7.41418 10.3653 7.74998 9.95117 7.75C9.53698 7.75 9.20117 7.41419 9.20117 7C9.20125 6.58587 9.53703 6.25 9.95117 6.25Z" fill="#333333"/>
</svg>
