<svg width="24" height="24" viewBox="0 0 24 24" fill="none" xmlns="http://www.w3.org/2000/svg">
<path fill-rule="evenodd" clip-rule="evenodd" d="M12.0026 2.6001C11.5962 2.6001 11.0258 2.66561 10.656 3.13385C10.4773 3.36001 10.4143 3.59954 10.3891 3.7686C10.3738 3.871 10.3694 3.97296 10.3683 4.05021C7.99028 4.66986 6.1262 6.62526 6.1262 9.09506L6.1262 10.8196C6.1262 11.7204 5.67724 12.6102 4.81403 13.2488L4.81402 13.2488L4.80943 13.2522C4.324 13.6159 4.00537 14.1799 4.00537 14.8168C4.00537 15.2037 4.11471 15.5471 4.29826 15.8359L7.68268 12.4514C7.87782 11.9356 7.98192 11.3861 7.98192 10.8196L7.98192 9.09506C7.98192 7.48644 9.37407 5.99207 11.4118 5.7352L12.0028 5.66069L12.5936 5.73519C13.1036 5.79951 13.5733 5.94142 13.9908 6.14328L15.3516 4.78251C14.8297 4.45892 14.2505 4.21014 13.6371 4.05026C13.6359 3.97297 13.6316 3.87094 13.6163 3.76845C13.591 3.59934 13.5279 3.35984 13.3493 3.13372C12.9794 2.66563 12.4091 2.6001 12.0026 2.6001ZM17.7658 8.05641L16.0235 9.7988V10.8196C16.0235 12.3649 16.7982 13.7854 18.0781 14.7335C18.1155 14.7618 18.1319 14.786 18.1382 14.798C18.1443 14.8094 18.1443 14.8148 18.1443 14.8168C18.1443 14.8199 18.144 14.8245 18.1396 14.8335C18.1347 14.8437 18.123 14.8622 18.0984 14.8837C18.0479 14.9278 17.9572 14.9715 17.8349 14.9715H10.8508L8.99506 16.8272H17.8349C18.9094 16.8272 20 16.0387 20 14.8168C20 14.1763 19.6782 13.6136 19.1895 13.2474L19.1895 13.2473L19.1848 13.2439C18.329 12.6108 17.8792 11.7214 17.8792 10.8196V9.09506C17.8792 8.73721 17.84 8.39016 17.7658 8.05641ZM4.18118 18.1136C3.93961 17.872 3.93961 17.4804 4.18117 17.2388L17.5331 3.88691C17.7746 3.64534 18.1663 3.64534 18.4078 3.8869L18.9551 4.43414C19.1967 4.67571 19.1967 5.06736 18.9551 5.30893L5.60322 18.6608C5.36165 18.9024 4.96999 18.9024 4.72842 18.6608L4.18118 18.1136ZM15.0393 19.0223C14.5496 20.3796 13.3969 21.3358 12.0561 21.3358C10.7155 21.3358 9.5628 20.3797 9.07308 19.0223C8.94611 18.6704 9.19759 18.3192 9.53084 18.3192H14.5815C14.9147 18.3192 15.1662 18.6704 15.0393 19.0223Z" fill="#333333"/>
</svg>
