<svg width="20" height="20" viewBox="0 0 20 20" fill="none" xmlns="http://www.w3.org/2000/svg">
<path fill-rule="evenodd" clip-rule="evenodd" d="M3.5 4C2.67157 4 2 4.67157 2 5.5V14.5C2 15.3284 2.67157 16 3.5 16H16.5C17.3284 16 18 15.3284 18 14.5V5.5C18 4.67157 17.3284 4 16.5 4H3.5ZM2.99258 6.72982L9.36634 10.979C9.75023 11.2349 10.2503 11.2349 10.6342 10.979L17.008 6.72982C17.0999 6.66855 17.1247 6.54438 17.0635 6.45247L16.6514 5.83438C16.5901 5.74247 16.466 5.71764 16.374 5.77891L10.1112 9.95412C10.044 9.99891 9.95653 9.99891 9.88935 9.95412L3.62652 5.77891C3.53462 5.71764 3.41045 5.74247 3.34917 5.83438L2.93711 6.45247C2.87584 6.54438 2.90068 6.66855 2.99258 6.72982Z" fill="#333333"/>
</svg>
