<svg width="24" height="24" viewBox="0 0 24 24" fill="none" xmlns="http://www.w3.org/2000/svg">
<path fill-rule="evenodd" clip-rule="evenodd" d="M5.5 10.6212C5.5 6.94924 8.4252 4 12 4C15.5748 4 18.5 6.94924 18.5 10.6212C18.5 13.3695 17.2338 15.5044 15.7407 17.0749C14.3256 18.5633 12.7503 19.495 12.0119 19.8846C11.2714 19.4959 9.69004 18.5651 8.26942 17.0768C6.7706 15.5065 5.5 13.3714 5.5 10.6212ZM12 2C7.29052 2 3.5 5.87502 3.5 10.6212C3.5 14.0422 5.09388 16.6465 6.82267 18.4577C8.54501 20.2621 10.45 21.3347 11.2278 21.7306C11.723 21.9827 12.3047 21.9823 12.7997 21.7291C13.5757 21.3321 15.474 20.258 17.1901 18.453C18.9126 16.6413 20.5 14.0381 20.5 10.6212C20.5 5.87502 16.7095 2 12 2ZM16.217 9.87576C16.602 9.47976 16.5931 8.84666 16.1971 8.46169C15.8011 8.07672 15.168 8.08566 14.783 8.48166L11.1281 12.2412L9.22006 10.2612C8.83682 9.86356 8.20376 9.85186 7.80608 10.2351C7.40841 10.6183 7.39671 11.2514 7.77995 11.6491L10.1782 14.1376C10.6943 14.6732 11.5514 14.6751 12.0698 14.1418L16.217 9.87576Z" fill="#333333"/>
</svg>
