<svg width="20" height="20" viewBox="0 0 20 20" fill="none" xmlns="http://www.w3.org/2000/svg">
<path d="M10.417 8.3997C10.711 8.56712 10.726 8.96448 10.4869 9.20367C10.2805 9.41003 9.95518 9.42211 9.69048 9.29924C8.85211 8.91006 7.8248 9.06126 7.13324 9.75283L4.5192 12.3669C3.63413 13.2519 3.63413 14.6869 4.5192 15.572C5.40426 16.457 6.83924 16.457 7.7243 15.572L9.73738 13.5589C9.95865 13.3376 10.3174 13.3376 10.5387 13.5589C10.7599 13.7802 10.7599 14.1389 10.5387 14.3602L8.52558 16.3733C7.19798 17.7009 5.04552 17.7009 3.71792 16.3733C2.39032 15.0457 2.39032 12.8932 3.71792 11.5656L6.33196 8.95155C7.43895 7.84456 9.11944 7.66061 10.417 8.3997Z" fill="#333333"/>
<path d="M9.51051 11.5915C9.21658 11.4241 9.2015 11.0267 9.44069 10.7875C9.64705 10.5812 9.97237 10.5691 10.2371 10.692C11.0754 11.0811 12.1027 10.9299 12.7943 10.2384L15.4084 7.62433C16.2934 6.73927 16.2934 5.30429 15.4084 4.41922C14.5233 3.53416 13.0883 3.53416 12.2032 4.41922L10.1902 6.43231C9.9689 6.65358 9.61016 6.65357 9.38889 6.43231C9.16762 6.21104 9.16762 5.8523 9.38889 5.63103L11.402 3.61795C12.7296 2.29035 14.882 2.29035 16.2096 3.61795C17.5372 4.94555 17.5372 7.09801 16.2096 8.42561L13.5956 11.0397C12.4886 12.1466 10.8081 12.3306 9.51051 11.5915Z" fill="#333333"/>
<path fill-rule="evenodd" clip-rule="evenodd" d="M11.2448 3.46081C12.6592 2.04643 14.9524 2.04643 16.3668 3.46081C17.7811 4.8752 17.7811 7.16836 16.3668 8.58275L13.7527 11.1968C12.5731 12.3764 10.7829 12.572 9.40053 11.7846C8.95297 11.5297 8.96303 10.9509 9.28356 10.6304C9.57506 10.3389 10.0089 10.3411 10.3306 10.4904C11.0871 10.8416 12.0137 10.7048 12.6372 10.0812L15.2512 7.4672C16.0495 6.66892 16.0495 5.37464 15.2512 4.57636C14.4529 3.77808 13.1587 3.77808 12.3604 4.57636L10.3473 6.58944C10.0392 6.89749 9.5398 6.89749 9.23175 6.58944C8.92371 6.28139 8.9237 5.78195 9.23175 5.4739L11.2448 3.46081ZM16.0525 3.77508C14.8117 2.53427 12.7999 2.53426 11.5591 3.77508L9.54602 5.78817C9.41154 5.92265 9.41154 6.14069 9.54602 6.27517C9.68051 6.40966 9.89855 6.40966 10.033 6.27517L12.0461 4.26209C13.018 3.29024 14.5936 3.29024 15.5655 4.26209C16.5373 5.23394 16.5373 6.80962 15.5655 7.78147L12.9514 10.3955C12.1918 11.1551 11.0638 11.3207 10.1435 10.8935C9.93581 10.7971 9.71903 10.8235 9.59783 10.9447C9.43997 11.1025 9.4802 11.3185 9.6205 11.3984C10.8334 12.0892 12.404 11.9169 13.4385 10.8825L16.0525 8.26848C17.2933 7.02766 17.2933 5.0159 16.0525 3.77508ZM6.17482 8.79442C7.3544 7.61484 9.14469 7.41925 10.527 8.20661C10.9746 8.46153 10.9645 9.04028 10.644 9.36081C10.3525 9.65231 9.91862 9.65014 9.59692 9.5008C8.84043 9.14964 7.91388 9.28645 7.29037 9.90996L4.67633 12.524C3.87805 13.3223 3.87805 14.6166 4.67633 15.4148C5.47461 16.2131 6.76889 16.2131 7.56717 15.4148L9.58025 13.4018C9.8883 13.0937 10.3877 13.0937 10.6958 13.4018C11.0038 13.7098 11.0038 14.2093 10.6958 14.5173L8.68271 16.5304C7.26833 17.9448 4.97517 17.9448 3.56079 16.5304C2.14641 15.116 2.1464 12.8228 3.56079 11.4085L6.17482 8.79442ZM10.307 8.5928C9.0942 7.90197 7.5235 8.07428 6.48909 9.10868L3.87506 11.7227C2.63424 12.9635 2.63424 14.9753 3.87506 16.2161C5.11587 17.4569 7.12763 17.4569 8.36844 16.2161L10.3815 14.203C10.516 14.0686 10.516 13.8505 10.3815 13.716C10.247 13.5815 10.029 13.5815 9.89452 13.716L7.88144 15.7291C6.90959 16.701 5.33391 16.701 4.36206 15.7291C3.39021 14.7573 3.39021 13.1816 4.36206 12.2097L6.9761 9.59569C7.73572 8.83607 8.86379 8.67049 9.78405 9.09768C9.99174 9.19409 10.2085 9.16774 10.3297 9.04654C10.4876 8.88868 10.4474 8.67271 10.307 8.5928Z" fill="#333333"/>
</svg>
