<svg width="24" height="24" viewBox="0 0 24 24" fill="none" xmlns="http://www.w3.org/2000/svg">
<path fill-rule="evenodd" clip-rule="evenodd" d="M6.42916 4.25008C6.29109 4.01094 6.37303 3.70514 6.61217 3.56707L7.4782 3.06707C7.71734 2.929 8.02314 3.01094 8.16121 3.25008L9.12038 4.91142C11.1619 4.04752 13.3653 3.98986 15.2059 4.31406C16.2828 4.50372 17.27 4.82945 18.0682 5.23076C18.8304 5.61396 19.5519 6.13202 19.9265 6.78089C20.3827 7.57098 20.2293 8.40996 19.9001 9.08352C19.5767 9.74537 19.0247 10.3895 18.3915 10.9882C17.3318 11.99 15.8798 13.0163 14.3468 13.9542L17.6585 19.6901L15.9264 20.6901L12.6172 14.9585C10.9788 15.8607 9.29022 16.6485 7.83682 17.0819C7.00176 17.331 6.16791 17.487 5.43305 17.4361C4.68517 17.3843 3.88189 17.0977 3.42574 16.3076C3.05112 15.6588 2.96326 14.7748 3.01251 13.9232C3.06408 13.0312 3.2756 12.0134 3.64977 10.986C4.30926 9.17523 5.5131 7.2335 7.37676 5.89137L6.42916 4.25008ZM5.00916 14.0386C4.9677 14.7557 5.07562 15.1653 5.15779 15.3076L5.15788 15.3078C5.16014 15.313 5.20491 15.4155 5.57115 15.4409C5.95799 15.4676 6.52537 15.386 7.26521 15.1654C7.53206 15.0858 7.81147 14.9912 8.10101 14.8833C7.67227 13.8024 7.31278 12.4275 7.15024 11.1371C7.05451 10.377 7.02011 9.59555 7.09852 8.88459C6.40109 9.73458 5.88007 10.7065 5.52901 11.6704C5.21399 12.5354 5.0483 13.3617 5.00916 14.0386ZM12.3942 12.7881C11.5681 13.265 10.7371 13.7088 9.93871 14.0921C9.59713 13.215 9.27899 12.0339 9.13455 10.8871C9.03456 10.0932 9.02756 9.38636 9.12186 8.85456C9.22182 8.29092 9.39345 8.13531 9.4473 8.10422C9.50115 8.07313 9.72173 8.00229 10.2598 8.19756C10.7675 8.38179 11.3762 8.7413 12.0137 9.22484C12.9441 9.93053 13.8163 10.8073 14.4053 11.5465C13.7707 11.9676 13.0919 12.3853 12.3942 12.7881ZM17.0176 9.53484C16.7261 9.8104 16.3946 10.093 16.0313 10.3788C15.3072 9.45347 14.2779 8.432 13.2223 7.63134C12.5433 7.11628 11.8032 6.65368 11.0765 6.3683C12.3455 6.06317 13.6663 6.07368 14.859 6.28375C15.7656 6.44342 16.564 6.71309 17.1698 7.01764C17.8116 7.3403 18.1123 7.63857 18.1945 7.78089L18.1946 7.78106C18.198 7.78562 18.2644 7.87564 18.1032 8.20549C17.933 8.55389 17.5786 9.00445 17.0176 9.53484Z" fill="#333333"/>
<path d="M9 20.6129C9 19.7221 9.72212 19 10.6129 19H19.3871C20.2779 19 21 19.7221 21 20.6129C21 20.8267 20.8267 21 20.6129 21H9.3871C9.17331 21 9 20.8267 9 20.6129Z" fill="#333333"/>
</svg>
