<svg width="36" height="36" viewBox="0 0 36 36" fill="none" xmlns="http://www.w3.org/2000/svg">
<path fill-rule="evenodd" clip-rule="evenodd" d="M18 4.5C20.7614 4.50001 23 6.73858 23 9.5V15H25.7402C27.7562 15 28.7641 15.0002 29.5342 15.3926C30.2116 15.7377 30.7623 16.2884 31.1074 16.9658C31.4997 17.7359 31.5 18.7438 31.5 20.7598V23.2402C31.5 24.2292 31.4995 24.9756 31.4531 25.5703L28.2695 20.3203L28.125 20.0996C26.5748 17.8957 23.1559 17.9693 21.7305 20.3203L16.5332 28.8916C16.5116 28.9272 16.4929 28.9642 16.4727 29H10.2598C8.2438 29 7.23586 28.9997 6.46582 28.6074C5.78844 28.2623 5.23772 27.7116 4.89258 27.0342C4.50025 26.2641 4.5 25.2562 4.5 23.2402V20.7598C4.5 18.7438 4.50025 17.7359 4.89258 16.9658C5.23772 16.2884 5.78844 15.7377 6.46582 15.3926C7.23586 15.0003 8.2438 15 10.2598 15H13V9.5C13 6.73858 15.2386 4.50001 18 4.5ZM18 7.2002C16.7298 7.2002 15.7002 8.22975 15.7002 9.5V14.7998H20.2998V9.5C20.2998 8.22975 19.2702 7.2002 18 7.2002Z" fill="#333333"/>
<path d="M23.4402 21.3567C24.1331 20.2142 25.8653 20.2143 26.5584 21.3567L31.7556 29.929C32.4482 31.0716 31.5825 32.4999 30.197 32.5003H19.8025C18.4167 32.5002 17.5511 31.0718 18.2439 29.929L23.4402 21.3567ZM24.9998 29.5003C24.5857 29.5004 24.2498 29.8361 24.2498 30.2503C24.2499 30.6642 24.5858 31.0001 24.9998 31.0003C25.4138 31.0001 25.7496 30.6642 25.7498 30.2503C25.7498 29.8361 25.4139 29.5004 24.9998 29.5003ZM24.7498 23.5003C24.4738 23.5004 24.2498 23.7242 24.2498 24.0003V28.0003C24.2499 28.2762 24.4739 28.5001 24.7498 28.5003H25.2498C25.5257 28.5001 25.7496 28.2762 25.7498 28.0003V24.0003C25.7498 23.7242 25.5258 23.5004 25.2498 23.5003H24.7498Z" fill="#FF6666"/>
</svg>
