<svg width="20" height="20" viewBox="0 0 20 20" fill="none" xmlns="http://www.w3.org/2000/svg">
<path d="M8.39359 3.17285C8.84722 3.04892 9.31121 3.31666 9.4307 3.77148L9.53715 4.17871C12.1276 3.82262 14.636 4.95789 16.0469 7.01367C16.4385 7.58432 16.0807 8.32123 15.4131 8.50391L10.9893 9.71387L12.2276 14.4326C12.2448 14.4981 12.2533 14.5639 12.2549 14.6289C13.9542 14.8125 15.4181 15.4163 16.2373 15.999C16.7506 16.3641 16.4267 16.8573 15.7969 16.8574H6.65043C6.01939 16.8573 5.69062 16.3603 6.20316 15.9922C7.06448 15.3737 8.6481 14.7339 10.5098 14.5986L9.34574 10.1641L4.81547 11.4043C4.13872 11.5895 3.44934 11.1217 3.51176 10.4229C3.73849 7.88627 5.40645 5.59554 7.88871 4.61133L7.78715 4.22168C7.66774 3.76656 7.93975 3.29705 8.39359 3.17285Z" fill="#333333"/>
</svg>
