<svg width="20" height="20" viewBox="0 0 20 20" fill="none" xmlns="http://www.w3.org/2000/svg">
<path d="M3 4.5C3 4.22386 3.22386 4 3.5 4H16.5C16.7761 4 17 4.22386 17 4.5V5.5C17 5.77614 16.7761 6 16.5 6H3.5C3.22386 6 3 5.77614 3 5.5V4.5Z" fill="#333333"/>
<path d="M3 9.5C3 9.22386 3.22386 9 3.5 9H16.5C16.7761 9 17 9.22386 17 9.5V10.5C17 10.7761 16.7761 11 16.5 11H3.5C3.22386 11 3 10.7761 3 10.5V9.5Z" fill="#333333"/>
<path d="M3.5 14C3.22386 14 3 14.2239 3 14.5V15.5C3 15.7761 3.22386 16 3.5 16H16.5C16.7761 16 17 15.7761 17 15.5V14.5C17 14.2239 16.7761 14 16.5 14H3.5Z" fill="#333333"/>
</svg>
