<svg width="20" height="20" viewBox="0 0 20 20" fill="none" xmlns="http://www.w3.org/2000/svg">
<rect width="20" height="20" fill="#DDDDDD"/>
<g id="Shopl">
<path d="M-5710 -2008C-5710 -2009.1 -5709.1 -2010 -5708 -2010H13888C13889.1 -2010 13890 -2009.1 13890 -2008V2788C13890 2789.1 13889.1 2790 13888 2790H-5708C-5709.1 2790 -5710 2789.1 -5710 2788V-2008Z" fill="#D6E9FB"/>
<g id="Iconography / Small">
<rect width="2000" height="4000" transform="translate(-510 -1610)" fill="white"/>
<rect id="Rectangle 299" opacity="0.8" x="-30" y="-30" width="80" height="80" rx="16" fill="#F9F9F9"/>
<g id="shopl/ic-list-move">
<path id="Combined Shape" fill-rule="evenodd" clip-rule="evenodd" d="M2 4.5C2 4.22386 2.22386 4 2.5 4H17.5C17.7761 4 18 4.22386 18 4.5V5.5C18 5.77614 17.7761 6 17.5 6H2.5C2.22386 6 2 5.77614 2 5.5V4.5ZM2 9.5C2 9.22386 2.22386 9 2.5 9H17.5C17.7761 9 18 9.22386 18 9.5V10.5C18 10.7761 17.7761 11 17.5 11H2.5C2.22386 11 2 10.7761 2 10.5V9.5ZM2.5 14C2.22386 14 2 14.2239 2 14.5V15.5C2 15.7761 2.22386 16 2.5 16H17.5C17.7761 16 18 15.7761 18 15.5V14.5C18 14.2239 17.7761 14 17.5 14H2.5Z" fill="#333333"/>
</g>
</g>
</g>
</svg>
