<svg width="24" height="24" viewBox="0 0 24 24" fill="none" xmlns="http://www.w3.org/2000/svg">
<path fill-rule="evenodd" clip-rule="evenodd" d="M12 2.7998C17.081 2.79987 21.2002 6.91899 21.2002 12C21.2002 17.0809 17.081 21.2001 12 21.2002C6.91918 21.2002 2.7998 17.0809 2.7998 12C2.7998 6.91895 6.91918 2.7998 12 2.7998ZM12.4658 17.1387C11.5877 17.1387 10.7258 17.1661 9.88379 17.2178C10.1532 17.8284 10.4665 18.32 10.8047 18.668C11.1884 19.0627 11.5933 19.2607 12 19.2607C12.4113 19.2607 12.8204 19.0581 13.208 18.6543C13.5494 18.2986 13.8636 17.7958 14.1338 17.1729C13.5852 17.1513 13.0286 17.1387 12.4658 17.1387ZM15.8271 17.2734C15.7555 17.4689 15.6815 17.659 15.6016 17.8418C15.4279 18.2389 15.2273 18.6195 14.999 18.9697C15.8623 18.5977 16.6432 18.0711 17.3057 17.4229C16.8211 17.3652 16.3281 17.3138 15.8271 17.2734ZM8.20117 17.3564C7.72799 17.4055 7.26273 17.4648 6.80566 17.5293C7.44225 18.1275 8.18278 18.6146 8.99609 18.9658C8.76905 18.6168 8.57037 18.2371 8.39746 17.8418C8.32881 17.6849 8.26373 17.5228 8.20117 17.3564ZM4.44238 12.666C4.55103 13.9158 4.96179 15.0787 5.60254 16.0811C6.29458 15.9648 7.00585 15.8661 7.7334 15.7852C7.51179 14.8224 7.37536 13.7674 7.33594 12.666H4.44238ZM16.6631 12.666C16.6249 13.7325 16.4954 14.7555 16.2861 15.6934C17.0328 15.7595 17.7638 15.8452 18.4766 15.9482C19.0706 14.9761 19.4545 13.8618 19.5586 12.666H16.6631ZM8.9502 12.666C8.99231 13.7414 9.13523 14.7482 9.35645 15.6367C10.3687 15.5644 11.4074 15.5264 12.4658 15.5264C13.2064 15.5264 13.9374 15.5452 14.6562 15.5811C14.8697 14.7061 15.0086 13.719 15.0498 12.666H8.9502ZM5.60742 7.91504C5.01309 8.84314 4.61719 9.90845 4.47461 11.0537H7.34863C7.39986 10.0518 7.53098 9.09217 7.73438 8.20996C7.00825 8.12916 6.29833 8.03104 5.60742 7.91504ZM9.35742 8.3584C9.15484 9.17043 9.01734 10.0815 8.96289 11.0537H15.0361C14.9828 10.1033 14.8515 9.21123 14.6562 8.41309C13.9375 8.44894 13.2063 8.46973 12.4658 8.46973C11.4078 8.46972 10.3694 8.43071 9.35742 8.3584ZM18.4746 8.04688C18.0801 8.10384 17.6804 8.15718 17.2754 8.20312C16.9488 8.24011 16.6183 8.2713 16.2852 8.30078C16.4768 9.15791 16.6019 10.086 16.6514 11.0537H19.5254C19.3896 9.96222 19.0234 8.9436 18.4746 8.04688ZM12 4.73926C11.5937 4.73926 11.19 4.93721 10.8066 5.33105C10.4689 5.67808 10.156 6.1683 9.88672 6.77734C10.7279 6.82885 11.5888 6.85741 12.4658 6.85742C13.0279 6.85742 13.5838 6.84371 14.1318 6.82227C13.8619 6.20092 13.548 5.69955 13.207 5.34473C12.8197 4.94169 12.4109 4.7393 12 4.73926ZM15 5.0293C15.2284 5.37968 15.4278 5.76103 15.6016 6.1582C15.681 6.33954 15.755 6.52784 15.8262 6.72168C16.3259 6.68138 16.8174 6.62964 17.3008 6.57227C16.6395 5.92634 15.861 5.40038 15 5.0293ZM8.99707 5.03223C8.18515 5.38269 7.44659 5.87011 6.81055 6.4668C7.26661 6.53113 7.73093 6.5888 8.20312 6.6377C8.26505 6.47329 8.32971 6.31329 8.39746 6.1582C8.57067 5.76224 8.76954 5.38169 8.99707 5.03223Z" fill="#333333"/>
</svg>
