<svg width="20" height="20" viewBox="0 0 20 20" fill="none" xmlns="http://www.w3.org/2000/svg">
<path fill-rule="evenodd" clip-rule="evenodd" d="M13 10C13 11.6569 11.6569 13 10 13C8.34315 13 7 11.6569 7 10C7 8.34315 8.34315 7 10 7C11.6569 7 13 8.34315 13 10ZM11.7 10C11.7 10.9389 10.9389 11.7 10 11.7C9.06112 11.7 8.3 10.9389 8.3 10C8.3 9.06112 9.06112 8.3 10 8.3C10.9389 8.3 11.7 9.06112 11.7 10Z" fill="#333333"/>
<path fill-rule="evenodd" clip-rule="evenodd" d="M19 10C19 14.9706 14.9706 19 10 19C5.02944 19 1 14.9706 1 10C1 5.02944 5.02944 1 10 1C14.9706 1 19 5.02944 19 10ZM9.3501 17.673V15H10.6501V17.6729C14.3842 17.3608 17.3609 14.3841 17.673 10.65H15V9.34998H17.673C17.3608 5.61592 14.3841 2.63921 10.6501 2.32706V5H9.3501V2.32704C5.69968 2.63211 2.77304 5.48371 2.35204 9.09998H5V10.4H2.31021C2.50725 14.2505 5.53297 17.354 9.3501 17.673Z" fill="#333333"/>
</svg>
