<svg width="20" height="20" viewBox="0 0 20 20" fill="none" xmlns="http://www.w3.org/2000/svg">
<path fill-rule="evenodd" clip-rule="evenodd" d="M3 3.5C3 3.22386 3.22386 3 3.5 3H16.5C16.7761 3 17 3.22386 17 3.5V5.5C17 5.77614 16.7761 6 16.5 6H3.5C3.22386 6 3 5.77614 3 5.5V3.5ZM3 9C3 8.72386 3.22386 8.5 3.5 8.5H16.5C16.7761 8.5 17 8.72386 17 9V11C17 11.2761 16.7761 11.5 16.5 11.5H3.5C3.22386 11.5 3 11.2761 3 11V9ZM3.5 14C3.22386 14 3 14.2239 3 14.5V16.5C3 16.7761 3.22386 17 3.5 17H16.5C16.7761 17 17 16.7761 17 16.5V14.5C17 14.2239 16.7761 14 16.5 14H3.5Z" fill="#333333"/>
</svg>
