<svg width="24" height="24" viewBox="0 0 24 24" fill="none" xmlns="http://www.w3.org/2000/svg">
<path fill-rule="evenodd" clip-rule="evenodd" d="M9.5 7.5C9.5 6.11929 10.6193 5 12 5C13.3807 5 14.5 6.11929 14.5 7.5C14.5 8.88071 13.3807 10 12 10C10.6193 10 9.5 8.88071 9.5 7.5ZM12 3C9.51472 3 7.5 5.01472 7.5 7.5C7.5 9.98528 9.51472 12 12 12C14.4853 12 16.5 9.98528 16.5 7.5C16.5 5.01472 14.4853 3 12 3ZM9 13C6.23858 13 4 15.2386 4 18V19.5C4 20.3284 4.67157 21 5.5 21H18.5C19.3284 21 20 20.3284 20 19.5V18C20 15.2386 17.7614 13 15 13H9ZM6 18C6 16.3431 7.34315 15 9 15H15C16.6569 15 18 16.3431 18 18V19H6V18Z" fill="#333333"/>
</svg>
