<svg width="20" height="20" viewBox="0 0 20 20" fill="none" xmlns="http://www.w3.org/2000/svg">
<path fill-rule="evenodd" clip-rule="evenodd" d="M15 3C16.1046 3 17 3.89543 17 5V12.5859L16.9951 12.6846C16.9724 12.9135 16.8711 13.1289 16.707 13.293L13.293 16.707L13.2197 16.7734C13.0672 16.8985 12.8809 16.9756 12.6846 16.9951L12.5859 17H5L4.7959 16.9893C3.85435 16.8938 3.1062 16.1457 3.01074 15.2041L3 15V5C3 3.89543 3.89543 3 5 3H15ZM5 4.5C4.72386 4.5 4.5 4.72386 4.5 5V15C4.5 15.2761 4.72386 15.5 5 15.5H12V13.5C12 12.6716 12.6716 12 13.5 12H15.5V5C15.5 4.72386 15.2761 4.5 15 4.5H5Z" fill="black"/>
</svg>
