<svg width="20" height="20" viewBox="0 0 20 20" fill="none" xmlns="http://www.w3.org/2000/svg">
<path d="M10 2.75C11.4352 2.75 12.4361 2.75202 13.1914 2.85352C13.9252 2.95217 14.3141 3.13242 14.5908 3.40918C14.8676 3.68594 15.0478 4.07482 15.1465 4.80859C15.248 5.5639 15.25 6.56485 15.25 8V12C15.25 13.4352 15.248 14.4361 15.1465 15.1914C15.0478 15.9252 14.8676 16.3141 14.5908 16.5908C14.3141 16.8676 13.9252 17.0478 13.1914 17.1465C12.4361 17.248 11.4352 17.25 10 17.25C8.56485 17.25 7.5639 17.248 6.80859 17.1465C6.07482 17.0478 5.68594 16.8676 5.40918 16.5908C5.13242 16.3141 4.95217 15.9252 4.85352 15.1914C4.75202 14.4361 4.75 13.4352 4.75 12V8C4.75 6.56485 4.75202 5.5639 4.85352 4.80859C4.95217 4.07482 5.13242 3.68594 5.40918 3.40918C5.68594 3.13242 6.07482 2.95217 6.80859 2.85352C7.5639 2.75202 8.56485 2.75 10 2.75Z" stroke="#333333" stroke-width="1.5"/>
<circle cx="10" cy="14" r="1" fill="#333333"/>
</svg>
