<svg width="20" height="20" viewBox="0 0 20 20" fill="none" xmlns="http://www.w3.org/2000/svg">
<path fill-rule="evenodd" clip-rule="evenodd" d="M9.99899 2.5C11.2719 2.50001 12.4934 3.00617 13.3935 3.90625C14.2934 4.80629 14.7987 6.0271 14.7988 7.2998C14.7988 8.4701 14.2913 9.66729 13.6064 10.75H14.3232C15.0386 10.7501 15.6824 11.1854 15.9482 11.8496L17.1474 14.8496C17.6072 15.999 16.7612 17.2497 15.5234 17.25H4.47653C3.23872 17.2497 2.39276 15.999 2.85251 14.8496L4.05173 11.8496C4.31752 11.1854 4.96135 10.7501 5.67673 10.75H6.39157C5.7066 9.66731 5.19919 8.47007 5.19919 7.2998C5.19927 6.10632 5.64399 4.95858 6.44138 4.07812L6.60544 3.90625C7.50556 3.0062 8.72608 2.50003 9.99899 2.5ZM5.67673 12.25C5.57464 12.2501 5.48324 12.3124 5.44528 12.4072L4.24509 15.4072C4.17946 15.5713 4.29992 15.7497 4.47653 15.75H15.5234C15.7 15.7497 15.8205 15.5713 15.7549 15.4072L14.5547 12.4072C14.5167 12.3124 14.4253 12.2501 14.3232 12.25H12.5009C11.7397 13.1637 10.9664 13.9038 10.4843 14.3359L10.375 14.4062C10.2599 14.4675 10.1307 14.5 9.99899 14.5C9.86752 14.5 9.73894 14.4673 9.62399 14.4062L9.51364 14.3359C9.03187 13.9038 8.25842 13.1638 7.49704 12.25H5.67673ZM9.99899 4.13672C9.16007 4.13675 8.35493 4.46933 7.76169 5.0625C7.16849 5.6557 6.836 6.46091 6.83591 7.2998C6.83591 8.21154 7.35255 9.34417 8.21872 10.5234C8.80164 11.317 9.4611 12.0207 9.99899 12.5469C10.537 12.0207 11.1972 11.3173 11.7802 10.5234C12.6462 9.34427 13.1631 8.21165 13.1631 7.2998C13.163 6.4609 12.8295 5.6557 12.2363 5.0625C11.643 4.46936 10.8379 4.13673 9.99899 4.13672ZM9.99997 5C11.1045 5.00002 12 5.89544 12 7C12 8.10456 11.1045 8.99998 9.99997 9C8.8954 9 7.99997 8.10457 7.99997 7C7.99997 5.89543 8.8954 5 9.99997 5ZM9.99997 6.5C9.72383 6.5 9.49997 6.72386 9.49997 7C9.49997 7.27614 9.72383 7.5 9.99997 7.5C10.2761 7.49998 10.5 7.27613 10.5 7C10.5 6.72387 10.2761 6.50002 9.99997 6.5Z" fill="#333333"/>
</svg>
