<svg width="20" height="20" viewBox="0 0 20 20" fill="none" xmlns="http://www.w3.org/2000/svg">
<g id="shopl/ic-move-solid">
<g id="Vector">
<path d="M3 7.8C3 6.11984 3 5.27976 3.32698 4.63803C3.6146 4.07354 4.07354 3.6146 4.63803 3.32698C5.27976 3 6.11984 3 7.8 3H12.2C13.8802 3 14.7202 3 15.362 3.32698C15.9265 3.6146 16.3854 4.07354 16.673 4.63803C17 5.27976 17 6.11984 17 7.8V12.2C17 13.8802 17 14.7202 16.673 15.362C16.3854 15.9265 15.9265 16.3854 15.362 16.673C14.7202 17 13.8802 17 12.2 17H7.8C6.11984 17 5.27976 17 4.63803 16.673C4.07354 16.3854 3.6146 15.9265 3.32698 15.362C3 14.7202 3 13.8802 3 12.2V7.8Z" fill="#555555"/>
<path d="M11.1396 5C10.8635 5 10.6396 5.22386 10.6396 5.5V5.85484C10.6396 6.13098 10.8635 6.35484 11.1396 6.35484H12.6871L9.92473 9.11719C9.72946 9.31245 9.72947 9.62903 9.92473 9.82429L10.1756 10.0752C10.3709 10.2705 10.6875 10.2705 10.8827 10.0752L13.645 7.31292V8.86022C13.645 9.13636 13.8689 9.36021 14.145 9.36021H14.4999C14.776 9.36021 14.9999 9.13636 14.9999 8.86021V5.5C14.9999 5.22386 14.776 5 14.4999 5H11.1396Z" fill="white"/>
</g>
</g>
</svg>
