<svg width="20" height="20" viewBox="0 0 20 20" fill="none" xmlns="http://www.w3.org/2000/svg">
<path fill-rule="evenodd" clip-rule="evenodd" d="M7.87255 4.63C7.87255 4.35386 8.0964 4.13 8.37255 4.13H14.3725H15.3725C15.6487 4.13 15.8725 4.35386 15.8725 4.63V5.63V11.63C15.8725 11.9061 15.6487 12.13 15.3725 12.13H14.3725C14.0964 12.13 13.8725 11.9061 13.8725 11.63V7.54419L5.69054 15.7262C5.49528 15.9215 5.1787 15.9215 4.98344 15.7262L4.27633 15.0191C4.08107 14.8238 4.08107 14.5072 4.27633 14.312L12.4583 6.13H8.37255C8.0964 6.13 7.87255 5.90615 7.87255 5.63V4.63Z" fill="#333333"/>
</svg>
