<svg width="20" height="20" viewBox="0 0 20 20" fill="none" xmlns="http://www.w3.org/2000/svg">
<path fill-rule="evenodd" clip-rule="evenodd" d="M10 4.25C9.0335 4.25 8.25 5.0335 8.25 6C8.25 6.9665 9.0335 7.75 10 7.75C10.9665 7.75 11.75 6.9665 11.75 6C11.75 5.0335 10.9665 4.25 10 4.25ZM6.75 6C6.75 4.20507 8.20507 2.75 10 2.75C11.7949 2.75 13.25 4.20507 13.25 6C13.25 7.79493 11.7949 9.25 10 9.25C8.20507 9.25 6.75 7.79493 6.75 6ZM6.07037 11.2296C7.12308 10.5795 8.51931 10.25 10 10.25C11.4807 10.25 12.8769 10.5795 13.9296 11.2296C14.9955 11.8879 15.75 12.9116 15.75 14.2347V14.9335C15.75 15.9367 14.9367 16.75 13.9335 16.75H6.06653C5.06329 16.75 4.25 15.9367 4.25 14.9335V14.2347C4.25 12.9116 5.00448 11.8879 6.07037 11.2296ZM6.85856 12.5059C6.11481 12.9652 5.75 13.5589 5.75 14.2347V14.9335C5.75 15.1083 5.89171 15.25 6.06653 15.25H13.9335C14.1083 15.25 14.25 15.1083 14.25 14.9335V14.2347C14.25 13.5589 13.8852 12.9652 13.1414 12.5059C12.3845 12.0384 11.2807 11.75 10 11.75C8.71926 11.75 7.6155 12.0384 6.85856 12.5059Z" fill="#333333"/>
</svg>
