<svg width="20" height="20" viewBox="0 0 20 20" fill="none" xmlns="http://www.w3.org/2000/svg">
<path fill-rule="evenodd" clip-rule="evenodd" d="M10 18C14.4183 18 18 14.4183 18 10C18 5.58172 14.4183 2 10 2C5.58172 2 2 5.58172 2 10C2 14.4183 5.58172 18 10 18ZM12.7001 7.17871C12.9556 7.29669 13.1876 7.46962 13.3831 7.68761C13.5787 7.9055 13.7338 8.16421 13.8397 8.44895C13.9455 8.73369 14 9.03889 14 9.3471C14 9.65532 13.9455 9.96052 13.8397 10.2453C13.7338 10.53 13.5787 10.7887 13.3831 11.0066L12.9774 11.4588L9.9999 14L7.02235 11.4588L6.61667 11.0066C6.22182 10.5665 6 9.96953 6 9.3471C6 8.72467 6.22182 8.12774 6.61667 7.68761C7.01152 7.24749 7.54705 7.00023 8.10544 7.00023C8.66384 7.00023 9.19937 7.24749 9.59422 7.68761L9.9999 8.13981L10.4056 7.68761C10.6011 7.46962 10.8331 7.29669 11.0886 7.17871C11.344 7.06073 11.6178 7 11.8944 7C12.1709 7 12.4447 7.06073 12.7001 7.17871Z" fill="#FF9D9D"/>
</svg>
