<svg width="20" height="20" viewBox="0 0 20 20" fill="none" xmlns="http://www.w3.org/2000/svg">
<path d="M12.569 5.61028C12.569 10.1336 12.5218 12.948 13.4389 13.4395C15.1787 14.3717 16.6803 12.4975 16.9185 10.8297C17.3113 8.08094 16.4836 3.00024 9.95927 3.00024C7.7845 3.00025 3 4.30511 3 10.8294C3 13.4392 4.73982 17.0037 9.95927 17.0037C11.9323 17.0037 13.004 16.5688 13.8739 16.1338M6.91459 9.95982C6.91459 5.61027 12.569 5.61027 12.569 9.95982C12.569 11.2647 12.395 13.4395 9.95927 13.4395C7.52353 13.4395 6.91459 11.1197 6.91459 9.95982Z" stroke="#333333" stroke-width="1.56584"/>
</svg>
