<svg width="20" height="20" viewBox="0 0 20 20" fill="none" xmlns="http://www.w3.org/2000/svg">
<path d="M13.5 6C13.776 6.00003 13.9999 6.22398 14 6.5V10.6934C14 10.9695 13.7761 11.1933 13.5 11.1934H13.1455C12.8694 11.1934 12.6455 10.9695 12.6455 10.6934V8.3125L9.88281 11.0752C9.68757 11.2704 9.37105 11.2704 9.17578 11.0752L8.9248 10.8242C8.72956 10.629 8.72955 10.3124 8.9248 10.1172L11.6865 7.35547H9.30664C9.03063 7.35547 8.80686 7.13143 8.80664 6.85547V6.5C8.80676 6.22396 9.03057 6 9.30664 6H13.5Z" fill="#333333"/>
<path fill-rule="evenodd" clip-rule="evenodd" d="M13.3125 3.00488C14.2877 3.02021 14.881 3.0819 15.3623 3.32715C15.9265 3.61472 16.3853 4.07347 16.6729 4.6377C16.9998 5.27941 17 6.11978 17 7.7998V12.2002L16.9951 13.3125C16.9798 14.2877 16.9181 14.881 16.6729 15.3623L16.5576 15.5684C16.2694 16.0383 15.8562 16.4211 15.3623 16.6729L15.2393 16.7305C14.7793 16.9281 14.2066 16.9811 13.3125 16.9951L12.2002 17H7.7998L6.6875 16.9951C5.79344 16.9811 5.22075 16.9281 4.76074 16.7305L4.6377 16.6729C4.14381 16.4211 3.73057 16.0383 3.44238 15.5684L3.32715 15.3623C3.0819 14.881 3.02021 14.2877 3.00488 13.3125L3 12.2002V7.7998C3 6.22468 3.00007 5.38795 3.26953 4.76074L3.32715 4.6377C3.57888 4.14381 3.96166 3.73057 4.43164 3.44238L4.6377 3.32715C5.11902 3.0819 5.71225 3.02021 6.6875 3.00488L7.7998 3H12.2002L13.3125 3.00488ZM7.7998 4.5C6.93534 4.5 6.37708 4.50144 5.95215 4.53613C5.54542 4.56936 5.39365 4.6253 5.31934 4.66309C5.03709 4.8069 4.8069 5.03709 4.66309 5.31934C4.6253 5.39365 4.56936 5.54542 4.53613 5.95215C4.50144 6.37708 4.5 6.93534 4.5 7.7998V12.2002C4.5 13.0647 4.50144 13.6229 4.53613 14.0479C4.56936 14.4546 4.6253 14.6063 4.66309 14.6807L4.72168 14.7842C4.8658 15.0191 5.07239 15.2111 5.31934 15.3369L5.3916 15.3682C5.48447 15.4016 5.64643 15.4389 5.95215 15.4639C6.37708 15.4986 6.93534 15.5 7.7998 15.5H12.2002C13.0647 15.5 13.6229 15.4986 14.0479 15.4639C14.4546 15.4306 14.6063 15.3747 14.6807 15.3369L14.7842 15.2783C15.0191 15.1342 15.2111 14.9276 15.3369 14.6807L15.3682 14.6084C15.4016 14.5155 15.4389 14.3536 15.4639 14.0479C15.4986 13.6229 15.5 13.0647 15.5 12.2002V7.7998C15.5 6.93534 15.4986 6.37708 15.4639 5.95215C15.4389 5.64643 15.4016 5.48447 15.3682 5.3916L15.3369 5.31934C15.2111 5.07239 15.0191 4.8658 14.7842 4.72168L14.6807 4.66309C14.6063 4.6253 14.4546 4.56936 14.0479 4.53613C13.6229 4.50144 13.0647 4.5 12.2002 4.5H7.7998Z" fill="#333333"/>
</svg>
