<svg width="20" height="20" viewBox="0 0 20 20" fill="none" xmlns="http://www.w3.org/2000/svg">
<path d="M11.75 14C11.8881 14 12 14.1119 12 14.25V15.75C12 15.8881 11.8881 16 11.75 16H2.25C2.11193 16 2 15.8881 2 15.75V14.25C2 14.1119 2.11193 14 2.25 14H11.75Z" fill="#333333"/>
<path d="M17.75 11C17.8881 11 18 11.1119 18 11.25V12.75C18 12.8881 17.8881 13 17.75 13H2.25C2.11193 13 2 12.8881 2 12.75V11.25C2 11.1119 2.11193 11 2.25 11H17.75Z" fill="#333333"/>
<path d="M11.75 7C11.8881 7 12 7.11193 12 7.25V8.75C12 8.88807 11.8881 9 11.75 9H2.25C2.11193 9 2 8.88807 2 8.75V7.25C2 7.11193 2.11193 7 2.25 7H11.75Z" fill="#333333"/>
<path d="M17.75 4C17.8881 4 18 4.11193 18 4.25V5.75C18 5.88807 17.8881 6 17.75 6H2.25C2.11193 6 2 5.88807 2 5.75V4.25C2 4.11193 2.11193 4 2.25 4H17.75Z" fill="#333333"/>
</svg>
