<svg width="20" height="20" viewBox="0 0 20 20" fill="none" xmlns="http://www.w3.org/2000/svg">
<path fill-rule="evenodd" clip-rule="evenodd" d="M8.86398 3.5C8.86398 3.22386 9.08784 3 9.36398 3H15.364H16.364C16.6401 3 16.864 3.22386 16.864 3.5V4.5V10.5C16.864 10.7761 16.6401 11 16.364 11H15.364C15.0878 11 14.864 10.7761 14.864 10.5V6.41418L4.56066 16.7175C4.3654 16.9128 4.04882 16.9128 3.85355 16.7175L3.14645 16.0104C2.95118 15.8151 2.95118 15.4986 3.14645 15.3033L13.4497 5H9.36398C9.08784 5 8.86398 4.77614 8.86398 4.5V3.5Z" fill="#333333"/>
</svg>
