<svg width="20" height="20" viewBox="0 0 20 20" fill="none" xmlns="http://www.w3.org/2000/svg">
<path d="M9.99899 2.5C11.2719 2.5 12.4934 3.00618 13.3935 3.90625C14.2934 4.80629 14.7987 6.0271 14.7988 7.2998C14.7988 8.4701 14.2913 9.66729 13.6064 10.75H14.3232C15.0386 10.7501 15.6824 11.1854 15.9482 11.8496L17.1474 14.8496C17.6072 15.999 16.7612 17.2497 15.5234 17.25H4.47653C3.23874 17.2497 2.39277 15.999 2.8525 14.8496L4.05172 11.8496C4.3175 11.1854 4.96135 10.7501 5.67672 10.75H6.39157C5.7066 9.66732 5.19918 8.47006 5.19918 7.2998C5.19927 6.10633 5.644 4.95858 6.44137 4.07812L6.60543 3.90625C7.50555 3.0062 8.72608 2.50003 9.99899 2.5ZM5.67672 12.25C5.57464 12.2501 5.48322 12.3124 5.44528 12.4072L4.24508 15.4072C4.17947 15.5713 4.29994 15.7497 4.47653 15.75H15.5234C15.7 15.7497 15.8205 15.5713 15.7548 15.4072L14.5547 12.4072C14.5167 12.3124 14.4253 12.2501 14.3232 12.25H12.5019C11.7405 13.1639 10.9665 13.9038 10.4843 14.3359L10.375 14.4062C10.2598 14.4675 10.1307 14.5 9.99899 14.5C9.86753 14.5 9.73892 14.4673 9.62399 14.4062L9.51364 14.3359C9.03186 13.9038 8.2584 13.1638 7.49703 12.25H5.67672ZM9.99899 4.13672C9.16007 4.13675 8.35492 4.46933 7.76168 5.0625C7.16849 5.6557 6.83599 6.46091 6.8359 7.2998C6.8359 8.21154 7.35256 9.34418 8.21871 10.5234C8.80163 11.317 9.4611 12.0207 9.99899 12.5469C10.537 12.0207 11.1972 11.3173 11.7802 10.5234C12.6462 9.34427 13.163 8.21165 13.163 7.2998C13.163 6.4609 12.8295 5.6557 12.2363 5.0625C11.643 4.46937 10.8379 4.13672 9.99899 4.13672ZM9.99996 5C11.1045 5 12 5.89543 12 7C12 8.10457 11.1045 9 9.99996 9C8.89541 8.99998 7.99996 8.10456 7.99996 7C7.99996 5.89544 8.89541 5.00002 9.99996 5ZM9.99996 6.5C9.72383 6.50002 9.49996 6.72387 9.49996 7C9.49996 7.27613 9.72383 7.49998 9.99996 7.5C10.2761 7.5 10.5 7.27614 10.5 7C10.5 6.72386 10.2761 6.5 9.99996 6.5Z" fill="#333333"/>
</svg>
