<svg width="20" height="20" viewBox="0 0 20 20" fill="none" xmlns="http://www.w3.org/2000/svg">
<path fill-rule="evenodd" clip-rule="evenodd" d="M2.59131 2.87113C2.80419 2.73279 3.0726 2.71153 3.3046 2.81464L7.51535 4.68609L12.2215 2.80364C12.384 2.73864 12.5641 2.73252 12.7307 2.78636L17.2307 4.2409C17.5402 4.34097 17.75 4.62921 17.75 4.95455V16C17.75 16.2399 17.6353 16.4653 17.4413 16.6064C17.2473 16.7476 16.9976 16.7874 16.7693 16.7136L12.5239 15.3414L7.77306 17.1985C7.58852 17.2707 7.38294 17.2668 7.20121 17.1879L2.70121 15.2334C2.42724 15.1144 2.25 14.8442 2.25 14.5455V3.5C2.25 3.24612 2.37844 3.00948 2.59131 2.87113ZM11.75 4.60778L8.25 6.00778L8.25 15.4016L11.75 14.0334L11.75 4.60778ZM13.25 4.53063L13.25 13.9997L16.25 14.9694V5.50033L13.25 4.53063ZM3.75 4.65407L6.75 5.98741L6.75 15.3566L3.75 14.0535V4.65407Z" fill="#333333"/>
</svg>
