<svg width="20" height="20" viewBox="0 0 20 20" fill="none" xmlns="http://www.w3.org/2000/svg">
<path d="M10 13C10.5523 13 11 13.4477 11 14C11 14.5523 10.5523 15 10 15C9.44772 15 9 14.5523 9 14C9 13.4477 9.44772 13 10 13Z" fill="#333333"/>
<path fill-rule="evenodd" clip-rule="evenodd" d="M10 2C12.8284 2 14.2424 2.00023 15.1211 2.87891C15.9998 3.75759 16 5.17157 16 8V12C16 14.8284 15.9998 16.2424 15.1211 17.1211C14.2424 17.9998 12.8284 18 10 18C7.17157 18 5.75759 17.9998 4.87891 17.1211C4.00023 16.2424 4 14.8284 4 12V8C4 5.17157 4.00023 3.75759 4.87891 2.87891C5.75759 2.00023 7.17157 2 10 2ZM10 3.5C8.54346 3.5 7.60195 3.50342 6.9082 3.59668C6.25759 3.68415 6.05364 3.82527 5.93945 3.93945C5.82527 4.05364 5.68415 4.25759 5.59668 4.9082C5.50342 5.60195 5.5 6.54346 5.5 8V12C5.5 13.4565 5.50342 14.398 5.59668 15.0918C5.68415 15.7424 5.82527 15.9464 5.93945 16.0605C6.05364 16.1747 6.25759 16.3158 6.9082 16.4033C7.60195 16.4966 8.54346 16.5 10 16.5C11.4565 16.5 12.398 16.4966 13.0918 16.4033C13.7424 16.3158 13.9464 16.1747 14.0605 16.0605C14.1747 15.9464 14.3158 15.7424 14.4033 15.0918C14.4966 14.398 14.5 13.4565 14.5 12V8C14.5 6.54346 14.4966 5.60195 14.4033 4.9082C14.3158 4.25759 14.1747 4.05364 14.0605 3.93945C13.9464 3.82527 13.7424 3.68415 13.0918 3.59668C12.398 3.50342 11.4565 3.5 10 3.5Z" fill="#333333"/>
</svg>
