<svg width="20" height="20" viewBox="0 0 20 20" fill="none" xmlns="http://www.w3.org/2000/svg">
<path d="M6 7C6.55228 7 7 7.44772 7 8C7 8.55228 6.55228 9 6 9C5.44772 9 5 8.55228 5 8C5 7.44772 5.44772 7 6 7Z" fill="#333333"/>
<path d="M14.25 7.25C14.5261 7.25 14.75 7.47386 14.75 7.75V10C14.75 10.2761 14.5261 10.5 14.25 10.5H13.75C13.4739 10.5 13.25 10.2761 13.25 10V8.75H12C11.7239 8.75 11.5 8.52614 11.5 8.25V7.75C11.5 7.47386 11.7239 7.25 12 7.25H14.25Z" fill="#333333"/>
<path fill-rule="evenodd" clip-rule="evenodd" d="M14.2061 4.00488C16.3194 4.11211 18 5.85996 18 8V14L17.9893 14.2041C17.887 15.2128 17.0357 16 16 16H4C2.96435 16 2.113 15.2128 2.01074 14.2041L2 14V8C2 5.79086 3.79086 4 6 4H14L14.2061 4.00488ZM6 5.5C4.61929 5.5 3.5 6.61929 3.5 8V14C3.5 14.2761 3.72386 14.5 4 14.5H8.5V8C8.5 6.61929 7.38071 5.5 6 5.5ZM9.12109 5.5C9.67042 6.18492 10 7.0537 10 8V14.5H16C16.2761 14.5 16.5 14.2761 16.5 14V8C16.5 6.61929 15.3807 5.5 14 5.5H9.12109Z" fill="#333333"/>
</svg>
