<svg width="20" height="20" viewBox="0 0 20 20" fill="none" xmlns="http://www.w3.org/2000/svg">
<path fill-rule="evenodd" clip-rule="evenodd" d="M5.18364 3.85018C6.82303 2.5751 8.7466 2.21729 9.95948 2.21729C13.4584 2.21729 15.57 3.6006 16.7034 5.47978C17.8001 7.29807 17.906 9.45532 17.6938 10.9404C17.5518 11.9346 17.0401 12.9945 16.2658 13.6915C15.8719 14.0461 15.3856 14.3277 14.8232 14.4298C14.25 14.5339 13.6511 14.4413 13.0693 14.1295C12.7202 13.9424 12.4924 13.6382 12.3376 13.3155C12.1857 13.473 12.0108 13.6175 11.8098 13.7431C11.3051 14.0585 10.6877 14.2223 9.95948 14.2223C8.43966 14.2223 7.44285 13.475 6.86131 12.5519C6.30628 11.6709 6.13188 10.6457 6.13188 9.95978C6.13188 8.69596 6.54678 7.67527 7.23773 6.9666C7.92277 6.26399 8.83525 5.9147 9.742 5.9147C10.458 5.9147 11.1776 6.13249 11.7859 6.57004C11.7859 6.46488 11.786 6.35878 11.7861 6.25176C11.7862 6.04145 11.7863 5.82757 11.7863 5.61024H13.3521C13.3521 5.8228 13.352 6.03114 13.3519 6.23523C13.351 8.22099 13.3503 9.80498 13.4408 10.9765C13.4908 11.6234 13.5656 12.094 13.6644 12.414C13.7434 12.67 13.8117 12.7451 13.8214 12.756C14.104 12.9044 14.3412 12.9259 14.5434 12.8892C14.7593 12.85 14.9895 12.7336 15.2182 12.5277C15.6893 12.1037 16.0475 11.3926 16.1437 10.719C16.3242 9.45527 16.2126 7.69778 15.3626 6.28852C14.5493 4.94016 12.9848 3.78312 9.95948 3.78312C8.99758 3.78312 7.44152 4.07775 6.14496 5.08617C4.88602 6.06535 3.78312 7.78462 3.78312 10.8294C3.78312 11.9752 4.16786 13.3229 5.10644 14.3736C6.02681 15.404 7.54337 16.2208 9.95948 16.2208C11.7864 16.2208 12.7384 15.8263 13.5239 15.4335L14.2242 16.8341C13.2699 17.3112 12.0786 17.7866 9.95948 17.7866C7.15613 17.7866 5.19306 16.8211 3.93864 15.4167C2.70246 14.0328 2.21729 12.2932 2.21729 10.8294C2.21729 7.34981 3.50664 5.1545 5.18364 3.85018ZM8.35887 8.05971C7.98961 8.43844 7.69771 9.04882 7.69771 9.95978C7.69771 10.4337 7.82778 11.1484 8.18615 11.7172C8.51801 12.244 9.04354 12.6565 9.95948 12.6565C10.4491 12.6565 10.7669 12.5484 10.9799 12.4153C11.1929 12.2821 11.3531 12.0915 11.4753 11.8431C11.7362 11.3132 11.7863 10.6062 11.7863 9.95978C11.7863 9.04882 11.4944 8.43844 11.1251 8.05971C10.75 7.67494 10.2488 7.48054 9.742 7.48054C9.23515 7.48054 8.73402 7.67494 8.35887 8.05971Z" fill="#333333"/>
</svg>
