<svg width="24" height="24" viewBox="0 0 24 24" fill="none" xmlns="http://www.w3.org/2000/svg">
<g clip-path="url(#clip0_286_3580)">
<rect width="24" height="24" rx="12" fill="#EAEAEA"/>
<path d="M14.8211 7.92698C14.8211 6.81191 13.6476 6.08667 12.6503 6.58534L7.18766 9.31665C4.97651 10.4222 4.97651 13.5776 7.18765 14.6832L12.6503 17.4145C13.6476 17.9132 14.8211 17.188 14.8211 16.0729V7.92698Z" fill="#333333"/>
<path d="M18.4711 11.9998C18.4711 10.5362 17.2846 9.34979 15.8211 9.34979V10.6498L15.9511 10.656C16.6357 10.7214 17.1711 11.2981 17.1711 11.9998C17.1711 12.7454 16.5667 13.3498 15.8211 13.3498V14.6498L15.9887 14.6446C17.3742 14.5581 18.4711 13.4071 18.4711 11.9998Z" fill="#333333"/>
</g>
<defs>
<clipPath id="clip0_286_3580">
<rect width="24" height="24" fill="white"/>
</clipPath>
</defs>
</svg>
