<svg width="24" height="24" viewBox="0 0 24 24" fill="none" xmlns="http://www.w3.org/2000/svg">
<mask id="path-1-inside-1_286_3763" fill="white">
<path fill-rule="evenodd" clip-rule="evenodd" d="M15.8913 2.46108C15.6246 2.53255 15.4663 2.80672 15.5377 3.07346L15.6671 3.55642L3.34893 9.00014C2.44718 9.39864 1.97034 10.3948 2.22551 11.3471L3.665 16.7194C3.91524 17.6533 4.79767 18.2744 5.76121 18.195L6.49887 18.1342L7.24055 20.9022C7.31202 21.1689 7.58619 21.3272 7.85292 21.2557L8.81885 20.9969C9.08558 20.9254 9.24387 20.6512 9.1724 20.3845L8.52466 17.9671L19.2906 17.0794L19.42 17.5623C19.4915 17.8291 19.7657 17.9874 20.0324 17.9159L20.9983 17.6571C21.265 17.5856 21.4233 17.3114 21.3519 17.0447L17.4696 2.55582C17.3981 2.28908 17.1239 2.13079 16.8572 2.20226L15.8913 2.46108Z"/>
</mask>
<path d="M15.8913 2.46108L16.4089 4.39293L15.8913 2.46108ZM15.6671 3.55642L16.4756 5.38575L18.0423 4.69336L17.599 3.03878L15.6671 3.55642ZM3.34893 9.00014L2.54051 7.17081L3.34893 9.00014ZM5.76121 18.195L5.59686 16.2018L5.59685 16.2018L5.76121 18.195ZM6.49887 18.1342L8.43072 17.6165L7.99857 16.0037L6.33451 16.1409L6.49887 18.1342ZM7.85292 21.2557L8.37056 23.1876L7.85292 21.2557ZM8.81885 20.9969L8.30121 19.065L8.81885 20.9969ZM9.1724 20.3845L11.1043 19.8669L9.1724 20.3845ZM8.52466 17.9671L8.3603 15.9739L5.97278 16.1708L6.59281 18.4848L8.52466 17.9671ZM19.2906 17.0794L21.2225 16.5617L20.7903 14.9489L19.1262 15.0861L19.2906 17.0794ZM16.8572 2.20226L16.3396 0.270412L16.8572 2.20226ZM17.4696 2.55582C17.684 3.35602 17.2091 4.17852 16.4089 4.39293L15.3736 0.529232C14.04 0.886586 13.2485 2.25743 13.6059 3.59109L17.4696 2.55582ZM17.599 3.03878L17.4696 2.55582L13.6059 3.59109L13.7353 4.07406L17.599 3.03878ZM14.8587 1.72709L2.54051 7.17081L4.15736 10.8295L16.4756 5.38575L14.8587 1.72709ZM2.54051 7.17081C0.737013 7.96782 -0.216674 9.96017 0.293654 11.8647L4.15736 10.8295L4.15736 10.8295L2.54051 7.17081ZM0.293654 11.8647L1.73315 17.237L5.59686 16.2018L4.15736 10.8295L0.293654 11.8647ZM1.73315 17.237C2.23361 19.1048 3.99847 20.3471 5.92557 20.1882L5.59685 16.2018L5.59686 16.2018L1.73315 17.237ZM5.92557 20.1882L6.66323 20.1274L6.33451 16.1409L5.59686 16.2018L5.92557 20.1882ZM4.56702 18.6518L5.3087 21.4198L9.1724 20.3845L8.43072 17.6165L4.56702 18.6518ZM5.3087 21.4198C5.66605 22.7535 7.03689 23.5449 8.37056 23.1876L7.33528 19.3239C8.13548 19.1094 8.95799 19.5843 9.1724 20.3845L5.3087 21.4198ZM8.37056 23.1876L9.33649 22.9287L8.30121 19.065L7.33528 19.3239L8.37056 23.1876ZM9.33649 22.9287C10.6702 22.5714 11.4616 21.2005 11.1043 19.8669L7.24055 20.9022C7.02614 20.102 7.50101 19.2794 8.30121 19.065L9.33649 22.9287ZM11.1043 19.8669L10.4565 17.4495L6.59281 18.4848L7.24055 20.9022L11.1043 19.8669ZM8.68902 19.9604L19.455 19.0726L19.1262 15.0861L8.3603 15.9739L8.68902 19.9604ZM21.3519 17.0447L21.2225 16.5617L17.3588 17.597L17.4882 18.08L21.3519 17.0447ZM19.5148 15.984C20.315 15.7696 21.1375 16.2445 21.3519 17.0447L17.4882 18.08C17.8455 19.4136 19.2164 20.2051 20.55 19.8477L19.5148 15.984ZM20.4807 15.7252L19.5148 15.984L20.55 19.8477L21.516 19.5889L20.4807 15.7252ZM19.42 17.5623C19.2056 16.7621 19.6805 15.9396 20.4807 15.7252L21.516 19.5889C22.8496 19.2316 23.6411 17.8607 23.2837 16.5271L19.42 17.5623ZM15.5377 3.07346L19.42 17.5623L23.2837 16.5271L19.4014 2.03818L15.5377 3.07346ZM17.3748 4.13412C16.5746 4.34853 15.7521 3.87366 15.5377 3.07346L19.4014 2.03818C19.0441 0.704514 17.6732 -0.0869417 16.3396 0.270412L17.3748 4.13412ZM16.4089 4.39293L17.3748 4.13412L16.3396 0.270412L15.3736 0.529232L16.4089 4.39293Z" fill="#333333" mask="url(#path-1-inside-1_286_3763)"/>
<path d="M6.56007 9.39507C6.4886 9.12834 6.64689 8.85417 6.91363 8.7827L7.87955 8.52388C8.14629 8.45241 8.42045 8.6107 8.49193 8.87743L10.5625 16.6048C10.6339 16.8716 10.4757 17.1457 10.2089 17.2172L9.243 17.476C8.97627 17.5475 8.7021 17.3892 8.63063 17.1225L6.56007 9.39507Z" fill="#333333"/>
</svg>
