<svg width="24" height="24" viewBox="0 0 24 24" fill="none" xmlns="http://www.w3.org/2000/svg">
<path fill-rule="evenodd" clip-rule="evenodd" d="M2.5 7C4.98528 7 7 4.98528 7 2.5C7 2.04085 6.93123 1.59776 6.80344 1.18047C8.37577 0.423912 10.1384 0 12 0C18.6274 0 24 5.37258 24 12C24 18.6274 18.6274 24 12 24C5.37258 24 0 18.6274 0 12C0 10.1384 0.423912 8.37577 1.18047 6.80344C1.59776 6.93123 2.04085 7 2.5 7Z" fill="#D9F4ED"/>
<circle cx="2.5" cy="2.5" r="2.5" fill="#FF6666"/>
<path d="M10 10L14 10" stroke="#61CBB5" stroke-width="1.5" stroke-linecap="round"/>
<path d="M10 13L14 13" stroke="#61CBB5" stroke-width="1.5" stroke-linecap="round"/>
<path fill-rule="evenodd" clip-rule="evenodd" d="M5.25 8C5.25 6.48122 6.48122 5.25 8 5.25H16C17.5188 5.25 18.75 6.48122 18.75 8V16C18.75 17.5188 17.5188 18.75 16 18.75H8C6.48122 18.75 5.25 17.5188 5.25 16V8ZM8 6.75C7.30964 6.75 6.75 7.30964 6.75 8V16C6.75 16.6904 7.30964 17.25 8 17.25H16C16.6904 17.25 17.25 16.6904 17.25 16V8C17.25 7.30964 16.6904 6.75 16 6.75H8Z" fill="#61CBB5"/>
</svg>
