<svg width="20" height="20" viewBox="0 0 20 20" fill="none" xmlns="http://www.w3.org/2000/svg">
<path fill-rule="evenodd" clip-rule="evenodd" d="M18 10C18 14.4183 14.4183 18 10 18C5.58172 18 2 14.4183 2 10C2 5.58172 5.58172 2 10 2C14.4183 2 18 5.58172 18 10ZM17 10C17 13.866 13.866 17 10 17C8.2469 17 6.64432 16.3555 5.41624 15.2906L15.2906 5.41624C16.3555 6.64432 17 8.2469 17 10ZM4.70915 14.5835L14.5835 4.70915C13.3555 3.64436 11.753 3 10 3C6.13401 3 3 6.13401 3 10C3 11.753 3.64436 13.3555 4.70915 14.5835Z" fill="#DDDDDD"/>
</svg>
