<svg width="24" height="24" viewBox="0 0 24 24" fill="none" xmlns="http://www.w3.org/2000/svg">
<path fill-rule="evenodd" clip-rule="evenodd" d="M15.5379 3.07341L15.6673 3.55637L3.34908 9.00009C2.44734 9.3986 1.97049 10.3948 2.22566 11.3471L3.66516 16.7193C3.91539 17.6532 4.79782 18.2744 5.76137 18.1949L6.49902 18.1341L7.2407 20.9021C7.31217 21.1688 7.58634 21.3271 7.85308 21.2557L8.819 20.9968C9.08573 20.9254 9.24402 20.6512 9.17255 20.3845L8.52481 17.9671L19.2908 17.0793L19.4202 17.5623C19.4916 17.829 19.7658 17.9873 20.0325 17.9159L20.9985 17.657C21.2652 17.5856 21.4235 17.3114 21.352 17.0447L17.4697 2.55577C17.3983 2.28904 17.1241 2.13075 16.8574 2.20222L15.8914 2.46104C15.6247 2.53251 15.4664 2.80668 15.5379 3.07341ZM5.59701 16.2017L8.32334 15.9769L6.64905 9.72835L4.15751 10.8294L5.59701 16.2017ZM8.50038 8.9102L10.3491 15.8099L18.7647 15.1159L16.1912 5.51146L8.50038 8.9102Z" fill="#333333"/>
</svg>
