<svg width="24" height="24" viewBox="0 0 24 24" fill="none" xmlns="http://www.w3.org/2000/svg">
<path fill-rule="evenodd" clip-rule="evenodd" d="M20.416 8.12404C20.2181 7.82717 19.7819 7.82717 19.584 8.12404L17.5182 11.2226C17.2967 11.5549 17.5349 12 17.9343 12L22.0657 12C22.4651 12 22.7033 11.5549 22.4818 11.2226L20.416 8.12404Z" fill="#333333"/>
<path fill-rule="evenodd" clip-rule="evenodd" d="M12.8822 3.04347C10.81 2.83938 8.73115 3.3601 6.99987 4.51691C5.26859 5.67372 3.99197 7.39504 3.38754 9.38758C2.78311 11.3801 2.88826 13.5206 3.68509 15.4443C4.48191 17.368 5.9211 18.9559 7.75743 19.9374C9.59377 20.919 11.7136 21.2334 13.7558 20.8272C15.798 20.421 17.6362 19.3192 18.9571 17.7097C20.278 16.1001 21 14.0823 21 12.0001H19C19 13.6196 18.4385 15.189 17.4111 16.4409C16.3837 17.6928 14.954 18.5497 13.3656 18.8656C11.7773 19.1816 10.1285 18.937 8.70023 18.1736C7.27197 17.4102 6.1526 16.1751 5.53285 14.6789C4.91309 13.1827 4.83131 11.5179 5.30142 9.96814C5.77153 8.41839 6.76446 7.07959 8.11101 6.17985C9.45756 5.28011 11.0744 4.87511 12.6861 5.03384C14.2978 5.19258 15.8046 5.90524 16.9497 7.05039L18.364 5.63617C16.8916 4.16384 14.9543 3.24756 12.8822 3.04347ZM10.8767 11.3274C10.8767 11.46 10.824 11.5872 10.7302 11.681L8.18852 14.2227C7.99326 14.4179 7.99326 14.7345 8.18852 14.9298L9.07042 15.8117C9.26568 16.0069 9.58226 16.0069 9.77752 15.8117L12.9774 12.6118C13.0712 12.518 13.1238 12.3908 13.1238 12.2582V8.00555C13.1238 7.72941 12.9 7.50555 12.6238 7.50555H11.3767C11.1005 7.50555 10.8767 7.72941 10.8767 8.00555V11.3274Z" fill="#333333"/>
</svg>
