<svg width="20" height="20" viewBox="0 0 20 20" fill="none" xmlns="http://www.w3.org/2000/svg">
<path fill-rule="evenodd" clip-rule="evenodd" d="M11.1431 2.38095C11.1431 2.17056 10.9725 2 10.7621 2H9.23829C9.0279 2 8.85734 2.17056 8.85734 2.38095V3.30534C8.85734 3.48995 8.72465 3.64679 8.54472 3.68814C8.39607 3.72229 8.24937 3.76157 8.10482 3.80576C7.9284 3.8597 7.73527 3.79018 7.64304 3.63042L7.18103 2.83021C7.07583 2.648 6.84285 2.58557 6.66064 2.69077L5.34098 3.45267C5.15878 3.55787 5.09635 3.79086 5.20154 3.97306L5.66449 4.77491C5.75669 4.93459 5.72042 5.13651 5.58556 5.26225C5.47429 5.36599 5.36668 5.47361 5.26295 5.58488C5.13721 5.71976 4.93528 5.75603 4.77559 5.66384L3.97352 5.20076C3.79131 5.09556 3.55832 5.15799 3.45313 5.3402L2.69122 6.65985C2.58602 6.84206 2.64845 7.07505 2.83066 7.18025L3.63127 7.64248C3.79102 7.73471 3.86054 7.92782 3.80662 8.10423C3.7624 8.2489 3.72311 8.39571 3.68894 8.54448C3.64762 8.72443 3.49077 8.85714 3.30614 8.85714H2.38095C2.17056 8.85714 2 9.0277 2 9.2381V10.7619C2 10.9723 2.17056 11.1429 2.38095 11.1429H3.30616C3.49079 11.1429 3.64764 11.2756 3.68896 11.4555C3.72313 11.6043 3.76243 11.7511 3.80665 11.8958C3.86058 12.0722 3.79107 12.2653 3.63131 12.3576L2.83084 12.8197C2.64864 12.9249 2.58621 13.1579 2.69141 13.3401L3.45331 14.6598C3.55851 14.842 3.79149 14.9044 3.9737 14.7992L4.77568 14.3362C4.93537 14.244 5.1373 14.2803 5.26304 14.4151C5.36674 14.5264 5.47431 14.6339 5.58555 14.7376C5.72041 14.8634 5.75667 15.0653 5.66448 15.225L5.20154 16.0268C5.09635 16.209 5.15877 16.442 5.34098 16.5472L6.66064 17.3091C6.84285 17.4143 7.07583 17.3519 7.18103 17.1697L7.64302 16.3695C7.73526 16.2097 7.92838 16.1402 8.1048 16.1941C8.24936 16.2383 8.39606 16.2776 8.54472 16.3118C8.72465 16.3531 8.85734 16.51 8.85734 16.6946V17.619C8.85734 17.8294 9.0279 18 9.23829 18H10.7621C10.9725 18 11.1431 17.8294 11.1431 17.619V16.6949C11.1431 16.5103 11.2758 16.3534 11.4558 16.3121C11.6048 16.2779 11.7519 16.2385 11.8969 16.1942C12.0733 16.1403 12.2664 16.2098 12.3587 16.3695L12.8206 17.1696C12.9258 17.3518 13.1588 17.4143 13.341 17.3091L14.6606 16.5472C14.8428 16.442 14.9053 16.209 14.8001 16.0268L14.3372 15.2251C14.245 15.0654 14.2813 14.8635 14.4162 14.7378C14.5273 14.6341 14.6348 14.5267 14.7385 14.4155C14.8642 14.2807 15.0661 14.2444 15.2258 14.3366L16.0272 14.7993C16.2094 14.9045 16.4424 14.8421 16.5476 14.6599L17.3095 13.3402C17.4147 13.158 17.3523 12.925 17.1701 12.8198L16.3704 12.3581C16.2106 12.2659 16.1411 12.0727 16.1951 11.8963C16.2393 11.7515 16.2787 11.6045 16.3129 11.4555C16.3542 11.2756 16.5111 11.1429 16.6957 11.1429H17.619C17.8294 11.1429 18 10.9723 18 10.7619V9.2381C18 9.0277 17.8294 8.85714 17.6191 8.85714H16.6957C16.5111 8.85714 16.3542 8.72443 16.3129 8.54448C16.2787 8.39554 16.2394 8.24856 16.1951 8.10373C16.1412 7.92732 16.2107 7.73419 16.3704 7.64195L17.1703 7.18015C17.3525 7.07496 17.4149 6.84197 17.3097 6.65976L16.5478 5.34011C16.4426 5.1579 16.2096 5.09547 16.0274 5.20067L15.2259 5.66343C15.0662 5.75562 14.8643 5.71936 14.7386 5.5845C14.6349 5.47332 14.5274 5.36579 14.4162 5.26213C14.2813 5.13638 14.245 4.93446 14.3372 4.77478L14.8001 3.9731C14.9053 3.79089 14.8428 3.5579 14.6606 3.45271L13.341 2.6908C13.1588 2.58561 12.9258 2.64803 12.8206 2.83024L12.3586 3.63036C12.2664 3.79012 12.0733 3.85964 11.8969 3.80571C11.7519 3.7614 11.6048 3.72204 11.4558 3.68782C11.2758 3.64651 11.1431 3.48965 11.1431 3.305V2.38095ZM10.0007 14.381C12.4203 14.381 14.3817 12.4195 14.3817 10C14.3817 7.58048 12.4203 5.61906 10.0007 5.61906C7.58121 5.61906 5.61979 7.58048 5.61979 10C5.61979 12.4195 7.58121 14.381 10.0007 14.381Z" fill="#3299FE"/>
<path fill-rule="evenodd" clip-rule="evenodd" d="M9.5769 8.04465C9.71325 8.0153 9.85475 7.99984 9.99987 7.99984C10.8707 7.99984 11.6115 8.55638 11.8861 9.33317H14.9999C15.184 9.33317 15.3332 9.48241 15.3332 9.66651V10.3332C15.3332 10.5173 15.184 10.6665 14.9999 10.6665H11.8861C11.6115 11.4433 10.8707 11.9998 9.99987 11.9998C9.85488 11.9998 9.71349 11.9844 9.57726 11.9551L7.9879 14.708C7.89586 14.8674 7.69199 14.922 7.53256 14.83L6.95521 14.4966C6.79578 14.4046 6.74116 14.2007 6.8332 14.0413L8.44221 11.2544C8.16552 10.9113 7.99987 10.4749 7.99987 9.99984C7.99987 9.52489 8.16542 9.08861 8.44197 8.74556L6.8328 5.95839C6.74075 5.79896 6.79538 5.59509 6.95481 5.50305L7.53216 5.16971C7.69159 5.07767 7.89545 5.13229 7.9875 5.29172L9.5769 8.04465Z" fill="#84C2FC"/>
</svg>
