<svg width="20" height="20" viewBox="0 0 20 20" fill="none" xmlns="http://www.w3.org/2000/svg">
<path d="M8.5 3C8.77614 3 9 3.22386 9 3.5V5.5C9 5.77614 8.77614 6 8.5 6H6.5V9.5H11V9C11 8.72386 11.2239 8.5 11.5 8.5H16.5C16.7761 8.5 17 8.72386 17 9V11C17 11.2761 16.7761 11.5 16.5 11.5H11.5C11.2239 11.5 11 11.2761 11 11V10.5H6.5V15H11V14.5C11 14.2239 11.2239 14 11.5 14H16.5C16.7761 14 17 14.2239 17 14.5V16.5C17 16.7761 16.7761 17 16.5 17H11.5C11.2239 17 11 16.7761 11 16.5V16H6.25C5.83579 16 5.5 15.6642 5.5 15.25V6H3.5C3.22386 6 3 5.77614 3 5.5V3.5C3 3.22386 3.22386 3 3.5 3H8.5Z" fill="#333333"/>
</svg>
