<svg width="20" height="20" viewBox="0 0 20 20" fill="none" xmlns="http://www.w3.org/2000/svg">
<path d="M14.5 6.75C16.9004 6.75 18.7499 8.83134 18.75 11.2754C18.75 13.5013 17.5096 15.4042 15.333 16.9805C14.9178 17.2811 14.3896 17.3311 13.9219 17.125L13.9082 17.1191L13.8945 17.1123L13.8369 17.084L13.7969 17.0645L13.7588 17.04L13.6963 16.999L13.6768 16.9863L13.6572 16.9727L13.5205 16.8701C12.7551 16.2939 12.1129 15.6744 11.6045 15.0137C11.9554 14.5989 12.2668 14.1762 12.541 13.7471C12.9753 14.4067 13.5942 15.0482 14.418 15.6689L14.5 15.7295C16.4032 14.3368 17.25 12.8481 17.25 11.2754C17.2499 9.55038 15.9666 8.25 14.5 8.25C14.3173 8.25 14.1395 8.26718 13.9678 8.29883C13.9207 7.79034 13.8187 7.29797 13.667 6.82715C13.9343 6.77671 14.2125 6.75 14.5 6.75Z" fill="#333333"/>
<path fill-rule="evenodd" clip-rule="evenodd" d="M7 6.5C8.38739 6.5 9.5 7.62541 9.5 9C9.5 10.3746 8.38739 11.5 7 11.5C5.61261 11.5 4.5 10.3746 4.5 9C4.5 7.62541 5.61261 6.5 7 6.5ZM7 8C6.44603 8 6 8.44883 6 9C6 9.55117 6.44603 10 7 10C7.55397 10 8 9.55117 8 9C8 8.44883 7.55397 8 7 8Z" fill="#333333"/>
<path fill-rule="evenodd" clip-rule="evenodd" d="M7 3.30762C10.1815 3.30774 12.7686 5.86704 12.7686 9.03418C12.7685 11.8977 11.0394 14.3529 7.95312 16.4072C7.47336 16.7266 6.87669 16.7771 6.33984 16.5596L6.32715 16.5547L6.31543 16.5498L6.23242 16.5117L6.19629 16.4961L6.16211 16.4756L6.07129 16.4209L6.05371 16.4102L6.03613 16.3984L5.84277 16.2666L5.83887 16.2646C2.91308 14.2401 1.2677 11.835 1.23047 9.04297V9.03418C1.23047 5.65879 3.72439 3.30762 7 3.30762ZM7 4.69238C4.46038 4.69238 2.61523 6.4519 2.61523 9.03418C2.64776 11.2098 3.9125 13.2464 6.62305 15.123L6.79785 15.2422L6.8418 15.2686L6.85938 15.2764C6.99019 15.3294 7.10395 15.3098 7.18652 15.2549C10.0672 13.3373 11.3847 11.253 11.3848 9.03418C11.3848 6.64249 9.42764 4.6925 7 4.69238Z" fill="#333333"/>
</svg>
