<svg width="24" height="24" viewBox="0 0 24 24" fill="none" xmlns="http://www.w3.org/2000/svg">
<path d="M17.5 15C17.6381 15 17.75 15.1119 17.75 15.25V16.6895L18.8535 17.793C18.9511 17.8906 18.9511 18.0489 18.8535 18.1465L18.1465 18.8535C18.0489 18.9511 17.8906 18.9511 17.793 18.8535L16.3232 17.3838C16.2764 17.3369 16.25 17.2733 16.25 17.207V15.25C16.25 15.1119 16.3619 15 16.5 15H17.5Z" fill="#333333"/>
<path fill-rule="evenodd" clip-rule="evenodd" d="M17 11.5C20.0376 11.5 22.5 13.9624 22.5 17C22.5 20.0376 20.0376 22.5 17 22.5C13.9624 22.5 11.5 20.0376 11.5 17C11.5 13.9624 13.9624 11.5 17 11.5ZM17 13.5C15.067 13.5 13.5 15.067 13.5 17C13.5 18.933 15.067 20.5 17 20.5C18.933 20.5 20.5 18.933 20.5 17C20.5 15.067 18.933 13.5 17 13.5Z" fill="#333333"/>
<path d="M7 18C7.82843 18 8.5 18.6716 8.5 19.5C8.5 20.3284 7.82843 21 7 21C6.17157 21 5.5 20.3284 5.5 19.5C5.5 18.6716 6.17157 18 7 18Z" fill="#333333"/>
<path d="M4.91602 2.5C5.15708 2.5 5.36338 2.67213 5.40723 2.90918L5.98047 6H20.1025C20.4156 6.00012 20.6516 6.28507 20.5938 6.59277L19.8408 10.6025C19.237 10.334 18.5886 10.1487 17.9092 10.0605L18.2959 8H6.40625L7.79492 14H10.6748C10.3794 14.6218 10.1733 15.2938 10.0723 16H6.60254C6.37002 16 6.1679 15.8397 6.11523 15.6133L4.17383 7.22559L4.16895 7.2041L4.16504 7.18164L3.66797 4.5H2.5C2.22386 4.5 2 4.27614 2 4V3C2 2.72386 2.22386 2.5 2.5 2.5H4.91602Z" fill="#333333"/>
</svg>
