<svg width="36" height="36" viewBox="0 0 36 36" fill="none" xmlns="http://www.w3.org/2000/svg">
<circle cx="18" cy="18" r="15" fill="#F4F4F4"/>
<path fill-rule="evenodd" clip-rule="evenodd" d="M14.25 13C14.25 10.9289 15.9289 9.25 18 9.25C20.0711 9.25 21.75 10.9289 21.75 13V13.5C21.75 13.7761 21.5261 14 21.25 14H20.75C20.4739 14 20.25 13.7761 20.25 13.5V13C20.25 11.7574 19.2426 10.75 18 10.75C16.7574 10.75 15.75 11.7574 15.75 13V16H22C23.1046 16 24 16.8954 24 18V24C24 25.1046 23.1046 26 22 26H14C12.8954 26 12 25.1046 12 24V18C12 16.8954 12.8954 16 14 16H14.25V13ZM19 21C19 21.5523 18.5523 22 18 22C17.4477 22 17 21.5523 17 21C17 20.4477 17.4477 20 18 20C18.5523 20 19 20.4477 19 21ZM15 22C15.5523 22 16 21.5523 16 21C16 20.4477 15.5523 20 15 20C14.4477 20 14 20.4477 14 21C14 21.5523 14.4477 22 15 22ZM22 21C22 21.5523 21.5523 22 21 22C20.4477 22 20 21.5523 20 21C20 20.4477 20.4477 20 21 20C21.5523 20 22 20.4477 22 21Z" fill="#CCCCCC"/>
<mask id="path-3-outside-1_286_5142" maskUnits="userSpaceOnUse" x="21" y="21" width="14" height="14" fill="black">
<rect fill="white" x="21" y="21" width="14" height="14"/>
<path fill-rule="evenodd" clip-rule="evenodd" d="M28 33C30.7614 33 33 30.7614 33 28C33 25.2386 30.7614 23 28 23C25.2386 23 23 25.2386 23 28C23 30.7614 25.2386 33 28 33ZM27.25 25.25C27.25 24.8358 27.5858 24.5 28 24.5C28.4142 24.5 28.75 24.8358 28.75 25.25V28.25C28.75 28.6642 28.4142 29 28 29C27.5858 29 27.25 28.6642 27.25 28.25V25.25ZM28.75 30.75C28.75 31.1642 28.4142 31.5 28 31.5C27.5858 31.5 27.25 31.1642 27.25 30.75C27.25 30.3358 27.5858 30 28 30C28.4142 30 28.75 30.3358 28.75 30.75Z"/>
</mask>
<path fill-rule="evenodd" clip-rule="evenodd" d="M28 33C30.7614 33 33 30.7614 33 28C33 25.2386 30.7614 23 28 23C25.2386 23 23 25.2386 23 28C23 30.7614 25.2386 33 28 33ZM27.25 25.25C27.25 24.8358 27.5858 24.5 28 24.5C28.4142 24.5 28.75 24.8358 28.75 25.25V28.25C28.75 28.6642 28.4142 29 28 29C27.5858 29 27.25 28.6642 27.25 28.25V25.25ZM28.75 30.75C28.75 31.1642 28.4142 31.5 28 31.5C27.5858 31.5 27.25 31.1642 27.25 30.75C27.25 30.3358 27.5858 30 28 30C28.4142 30 28.75 30.3358 28.75 30.75Z" fill="#FF6666"/>
<path d="M31 28C31 29.6569 29.6569 31 28 31V35C31.866 35 35 31.866 35 28H31ZM28 25C29.6569 25 31 26.3431 31 28H35C35 24.134 31.866 21 28 21V25ZM25 28C25 26.3431 26.3431 25 28 25V21C24.134 21 21 24.134 21 28H25ZM28 31C26.3431 31 25 29.6569 25 28H21C21 31.866 24.134 35 28 35V31ZM28 22.5C26.4812 22.5 25.25 23.7312 25.25 25.25H29.25C29.25 25.9404 28.6904 26.5 28 26.5V22.5ZM30.75 25.25C30.75 23.7312 29.5188 22.5 28 22.5V26.5C27.3096 26.5 26.75 25.9404 26.75 25.25H30.75ZM30.75 28.25V25.25H26.75V28.25H30.75ZM28 31C29.5188 31 30.75 29.7688 30.75 28.25H26.75C26.75 27.5596 27.3096 27 28 27V31ZM25.25 28.25C25.25 29.7688 26.4812 31 28 31V27C28.6904 27 29.25 27.5596 29.25 28.25H25.25ZM25.25 25.25V28.25H29.25V25.25H25.25ZM28 33.5C29.5188 33.5 30.75 32.2688 30.75 30.75H26.75C26.75 30.0596 27.3096 29.5 28 29.5V33.5ZM25.25 30.75C25.25 32.2688 26.4812 33.5 28 33.5V29.5C28.6904 29.5 29.25 30.0596 29.25 30.75H25.25ZM28 28C26.4812 28 25.25 29.2312 25.25 30.75H29.25C29.25 31.4404 28.6904 32 28 32V28ZM30.75 30.75C30.75 29.2312 29.5188 28 28 28V32C27.3096 32 26.75 31.4404 26.75 30.75H30.75Z" fill="white" mask="url(#path-3-outside-1_286_5142)"/>
</svg>
