<svg width="24" height="24" viewBox="0 0 24 24" fill="none" xmlns="http://www.w3.org/2000/svg">
<rect x="3" y="3" width="18" height="18" rx="4" fill="#EAEAEA"/>
<path d="M14.0604 10.2871C14.3003 9.89247 14.7522 9.90725 14.9783 10.3164L17.9998 17.2158C17.9998 17.6494 17.7379 18.0009 17.4158 18L6.58186 17.9688C6.06986 17.9673 5.8088 17.1404 6.16291 16.6426L8.92365 12.7598C9.13215 12.4666 9.47242 12.4369 9.70783 12.6904L11.0174 14.0996L14.0604 10.2871ZM9.24983 6C10.3543 6.0001 11.2498 6.89549 11.2498 8C11.2498 9.10451 10.3543 9.9999 9.24983 10C8.14526 10 7.24983 9.10457 7.24983 8C7.24983 6.89543 8.14526 6 9.24983 6Z" fill="white"/>
</svg>
