<svg width="20" height="20" viewBox="0 0 20 20" fill="none" xmlns="http://www.w3.org/2000/svg">
<g id="shopl/ic-photo">
<path id="Rectangle 20 (Stroke)" fill-rule="evenodd" clip-rule="evenodd" d="M16 4H4C3.72386 4 3.5 4.22386 3.5 4.5V15.5C3.5 15.7761 3.72386 16 4 16H16C16.2761 16 16.5 15.7761 16.5 15.5V4.5C16.5 4.22386 16.2761 4 16 4ZM4 2.5C2.89543 2.5 2 3.39543 2 4.5V15.5C2 16.6046 2.89543 17.5 4 17.5H16C17.1046 17.5 18 16.6046 18 15.5V4.5C18 3.39543 17.1046 2.5 16 2.5H4Z" fill="#333333"/>
<path id="Union" fill-rule="evenodd" clip-rule="evenodd" d="M8.5 9.5C9.32843 9.5 10 8.82843 10 8C10 7.17157 9.32843 6.5 8.5 6.5C7.67157 6.5 7 7.17157 7 8C7 8.82843 7.67157 9.5 8.5 9.5ZM3.5 15.5V13.1899L5.5 11.4756L7.65326 13.3213C8.4776 14.0279 9.71512 13.9477 10.4414 13.1407L13.5 9.7423L16.5 13.0756V15.5C16.5 15.7762 16.2761 16 16 16H4C3.72386 16 3.5 15.7762 3.5 15.5ZM18 15.5V12.5L14.2433 8.32591C13.8461 7.88453 13.1539 7.88453 12.7567 8.32591L9.32649 12.1373C9.14491 12.339 8.83553 12.3591 8.62945 12.1824L6.15079 10.0578C5.7763 9.73686 5.2237 9.73686 4.84921 10.0578L2 12.5V15.5C2 16.6046 2.89543 17.5 4 17.5H16C17.1046 17.5 18 16.6046 18 15.5Z" fill="#333333"/>
</g>
</svg>
