<svg width="24" height="24" viewBox="0 0 24 24" fill="none" xmlns="http://www.w3.org/2000/svg">
<path fill-rule="evenodd" clip-rule="evenodd" d="M7 4C5.89543 4 5 4.89543 5 6V7.17071C3.83481 7.58254 3 8.69378 3 10V18C3 19.6569 4.34315 21 6 21H18C19.6569 21 21 19.6569 21 18V10C21 8.34315 19.6569 7 18 7H17V6C17 4.89543 16.1046 4 15 4H7ZM15 7V6H10V7H15ZM8.5 7V6H7V7H8.5ZM6 9C5.44772 9 5 9.44772 5 10V18C5 18.5523 5.44772 19 6 19H18C18.5523 19 19 18.5523 19 18V10C19 9.44772 18.5523 9 18 9H17H6ZM14.5 12C14.2239 12 14 12.2239 14 12.5V14.5C14 14.7761 14.2239 15 14.5 15H16.5C16.7761 15 17 14.7761 17 14.5V12.5C17 12.2239 16.7761 12 16.5 12H14.5Z" fill="#333333"/>
</svg>
