<svg width="20" height="20" viewBox="0 0 20 20" fill="none" xmlns="http://www.w3.org/2000/svg">
<path d="M6.27697 9.33075C5.33327 7.8114 4.73359 6.12193 4.63316 4.41788C4.61692 4.14233 4.84184 3.91815 5.11786 3.91774L7.03967 3.91492C7.27854 3.91457 7.4843 4.08323 7.53083 4.31753L8.10167 7.19197C8.13418 7.35571 8.08284 7.52488 7.9648 7.64292L6.27697 9.33075ZM6.27697 9.33075C7.24312 10.8862 8.56985 12.2634 10.0906 13.2953M10.0906 13.2953C11.7173 14.3992 13.5659 15.108 15.4326 15.2174C15.7081 15.2335 15.9322 15.0086 15.9326 14.7327L15.9355 12.7826C15.9358 12.5566 15.7845 12.3585 15.5664 12.2993L12.3224 11.419C12.1495 11.372 11.9646 11.4213 11.8379 11.548L10.0906 13.2953Z" stroke="black" stroke-width="1.5"/>
</svg>
