<svg width="20" height="20" viewBox="0 0 20 20" fill="none" xmlns="http://www.w3.org/2000/svg">
<path d="M15 3C16.1046 3 17 3.89543 17 5V14C17 15.6051 15.7394 16.9158 14.1543 16.9961L14 17H6C4.34315 17 3 15.6569 3 14V5C3 3.89543 3.89543 3 5 3H15ZM4.5 14C4.5 14.8284 5.17157 15.5 6 15.5H14C14.8284 15.5 15.5 14.8284 15.5 14V7H4.5V14ZM9.5 11C9.77614 11 10 11.2239 10 11.5V12C10 12.2761 9.77614 12.5 9.5 12.5H6.5C6.22386 12.5 6 12.2761 6 12V11.5C6 11.2239 6.22386 11 6.5 11H9.5ZM13.5 8.5C13.7761 8.5 14 8.72386 14 9V9.5C14 9.77614 13.7761 10 13.5 10H6.5C6.22386 10 6 9.77614 6 9.5V9C6 8.72386 6.22386 8.5 6.5 8.5H13.5Z" fill="#333333"/>
</svg>
