<svg width="20" height="20" viewBox="0 0 20 20" fill="none" xmlns="http://www.w3.org/2000/svg">
<path fill-rule="evenodd" clip-rule="evenodd" d="M16.2442 4.85647C16.1712 3.95711 15.4182 3.25 14.5 3.25H8.5L8.35647 3.2558C7.45711 3.32881 6.75 4.08183 6.75 5V5.75H8.25V5L8.2566 4.94268C8.28251 4.83223 8.38165 4.75 8.5 4.75H14.5L14.5573 4.7566C14.6678 4.78251 14.75 4.88165 14.75 5V12L14.7434 12.0573C14.7175 12.1678 14.6183 12.25 14.5 12.25H14.25V13.75H14.5L14.6435 13.7442C15.5429 13.6712 16.25 12.9182 16.25 12V5L16.2442 4.85647ZM13.4942 7.85647C13.4212 6.95711 12.6682 6.25 11.75 6.25H5.75L5.60647 6.2558C4.70711 6.32881 4 7.08183 4 8V15L4.0058 15.1435C4.07881 16.0429 4.83183 16.75 5.75 16.75H11.75L11.8935 16.7442C12.7929 16.6712 13.5 15.9182 13.5 15V8L13.4942 7.85647Z" fill="#555555"/>
</svg>
