<svg width="24" height="24" viewBox="0 0 24 24" fill="none" xmlns="http://www.w3.org/2000/svg">
<path fill-rule="evenodd" clip-rule="evenodd" d="M17.8724 5.51805C18.4372 5.56939 18.8847 6.01686 18.936 6.58163L19.4209 11.9158C19.4525 12.263 19.3282 12.6063 19.0817 12.8528L12.4449 19.4894C11.9862 19.9482 11.2423 19.9482 10.7835 19.4894L4.96436 13.6703C4.50558 13.2116 4.50558 12.4677 4.96436 12.009L11.6011 5.37238C11.8476 5.12585 12.1909 5.00156 12.5381 5.03313L17.8724 5.51805ZM20.9278 6.40056C20.7891 4.8743 19.5798 3.66503 18.0535 3.52628L12.7192 3.04136C11.7809 2.95606 10.8531 3.29195 10.1869 3.95818L3.55013 10.5948C2.31029 11.8346 2.31029 13.8447 3.55013 15.0845L9.36931 20.9036C10.6092 22.1434 12.6193 22.1434 13.8592 20.9036L20.4959 14.267C21.1621 13.6008 21.498 12.673 21.4127 11.7347L20.9278 6.40056ZM13.7083 10.5597C14.2941 11.1455 15.2439 11.1455 15.8297 10.5597C16.4155 9.97393 16.4155 9.02419 15.8297 8.43841C15.2439 7.85263 14.2941 7.85263 13.7083 8.43841C13.1225 9.02419 13.1225 9.97393 13.7083 10.5597Z" fill="#333333"/>
</svg>
