<svg width="24" height="24" viewBox="0 0 24 24" fill="none" xmlns="http://www.w3.org/2000/svg">
<path d="M5 8C5 6.89543 5.89543 6 7 6H17C18.1046 6 19 6.89543 19 8V9H5V8Z" fill="#DDDDDD"/>
<path fill-rule="evenodd" clip-rule="evenodd" d="M7 5.25H17C18.5188 5.25 19.75 6.48122 19.75 8V17C19.75 18.5188 18.5188 19.75 17 19.75H7C5.48122 19.75 4.25 18.5188 4.25 17V8C4.25 6.48122 5.48122 5.25 7 5.25ZM17 6.75H7C6.30964 6.75 5.75 7.30964 5.75 8V17C5.75 17.6904 6.30964 18.25 7 18.25H17C17.6904 18.25 18.25 17.6904 18.25 17V8C18.25 7.30964 17.6904 6.75 17 6.75Z" fill="#333333"/>
<rect x="8" y="11" width="8" height="2" rx="1" fill="#999999"/>
<rect x="8" y="14" width="4" height="2" rx="1" fill="#999999"/>
</svg>
