<svg width="12" height="12" viewBox="0 0 12 12" fill="none" xmlns="http://www.w3.org/2000/svg">
<path d="M2.25 4.75C2.94036 4.75 3.5 5.30964 3.5 6C3.5 6.69036 2.94036 7.25 2.25 7.25C1.55964 7.25 1 6.69036 1 6C1 5.30964 1.55964 4.75 2.25 4.75Z" fill="#333333"/>
<path d="M6 4.75C6.69036 4.75 7.25 5.30964 7.25 6C7.25 6.69036 6.69036 7.25 6 7.25C5.30964 7.25 4.75 6.69036 4.75 6C4.75 5.30964 5.30964 4.75 6 4.75Z" fill="#333333"/>
<path d="M9.75 4.75C10.4404 4.75 11 5.30964 11 6C11 6.69036 10.4404 7.25 9.75 7.25C9.05964 7.25 8.5 6.69036 8.5 6C8.5 5.30964 9.05964 4.75 9.75 4.75Z" fill="#333333"/>
</svg>
