<svg width="20" height="20" viewBox="0 0 20 20" fill="none" xmlns="http://www.w3.org/2000/svg">
<path fill-rule="evenodd" clip-rule="evenodd" d="M14.9 9.66215C14.9 10.9485 15.5069 12.1627 16.5652 12.9935C16.8439 13.2151 17 13.5296 17 13.8624C17 14.4898 16.4505 15 15.7749 15H4.22495C3.54948 15 3 14.4898 3 13.8624C3 13.5296 3.15612 13.2151 3.42836 12.9986C4.49309 12.1627 5.09999 10.9485 5.09999 9.66215V7.84998C5.09999 5.56269 6.92903 3.66923 9.29998 3.35205V2.64996C9.29998 2.29052 9.61362 2 9.99994 2C10.3864 2 10.7 2.29052 10.7 2.64996V3.35205C13.0702 3.66923 14.9 5.56269 14.9 7.84998V9.66215ZM13 16C12.7159 17.1393 11.4788 18 10 18C8.52131 18 7.28423 17.1393 7 16H13Z" fill="#333333"/>
</svg>
