<svg width="20" height="20" viewBox="0 0 20 20" fill="none" xmlns="http://www.w3.org/2000/svg">
<path fill-rule="evenodd" clip-rule="evenodd" d="M7.5 2.5H14.5C15.6046 2.5 16.5 3.39543 16.5 4.5V15.5C16.5 16.6046 15.6046 17.5 14.5 17.5H5.5C4.39543 17.5 3.5 16.6046 3.5 15.5V6.5L7.5 2.5ZM10 7.5C7.95455 7.5 6.20773 8.744 5.5 10.5C6.20773 12.256 7.95455 13.5 10 13.5C12.0455 13.5 13.7923 12.256 14.5 10.5C13.7923 8.744 12.0455 7.5 10 7.5ZM10 12.5C8.87091 12.5 7.95455 11.604 7.95455 10.5C7.95455 9.396 8.87091 8.5 10 8.5C11.1291 8.5 12.0455 9.396 12.0455 10.5C12.0455 11.604 11.1291 12.5 10 12.5ZM8.77273 10.5C8.77273 9.836 9.32091 9.3 10 9.3C10.6791 9.3 11.2273 9.836 11.2273 10.5C11.2273 11.164 10.6791 11.7 10 11.7C9.32091 11.7 8.77273 11.164 8.77273 10.5Z" fill="#333333"/>
<path opacity="0.5" fill-rule="evenodd" clip-rule="evenodd" d="M3.5 6.5H7.5V2.5" fill="white"/>
</svg>
