<svg width="20" height="20" viewBox="0 0 20 20" fill="none" xmlns="http://www.w3.org/2000/svg">
<path d="M7.14966 3.16968C7.66177 3.21439 8.09521 3.56984 8.23951 4.06323L8.26587 4.17163L8.83716 7.04565C8.91846 7.455 8.78949 7.87848 8.49439 8.17358L7.23853 9.42847C7.99536 10.5227 8.94286 11.5092 10.009 12.3142L11.3069 11.0173C11.5841 10.7401 11.9732 10.611 12.3557 10.6619L12.5188 10.6951L15.7629 11.575C16.3081 11.723 16.6856 12.2191 16.6848 12.7839L16.6819 14.7332C16.6809 15.4107 16.1232 16.0084 15.3889 15.9656C13.364 15.8469 11.3869 15.0814 9.66919 13.9158C8.06241 12.8254 6.66201 11.3719 5.6399 9.72632C4.64176 8.11933 3.99299 6.31038 3.88404 4.46167C3.84087 3.72719 4.43868 3.16875 5.11646 3.16772L7.03833 3.16479L7.14966 3.16968ZM11.2883 13.157C12.5253 13.8632 13.8534 14.3184 15.1819 14.4451L15.1838 12.9724L12.2659 12.1794L11.2883 13.157ZM5.40455 4.66675C5.51579 5.83191 5.87902 6.9977 6.44361 8.10229L7.33912 7.20581L6.83423 4.66479L5.40455 4.66675Z" fill="#333333"/>
</svg>
