<svg width="20" height="20" viewBox="0 0 20 20" fill="none" xmlns="http://www.w3.org/2000/svg">
<path fill-rule="evenodd" clip-rule="evenodd" d="M10 3C6.69179 3 4 5.61674 4 8.83332C4 10.399 4.63048 11.8696 5.77306 12.9719L9.78673 16.9134C9.84298 16.9689 9.91973 17 10 17C10.0803 17 10.157 16.969 10.2133 16.9134L14.2252 12.9739C15.3695 11.8696 16 10.399 16 8.83332C16 5.61674 13.3082 3 10 3ZM10 11C8.6212 11 7.5 9.87849 7.5 8.50001C7.5 7.12151 8.6212 6 10 6C11.3788 6 12.5 7.12151 12.5 8.49999C12.5 9.87846 11.3788 11 10 11Z" fill="#333333"/>
</svg>
