<svg width="20" height="20" viewBox="0 0 20 20" fill="none" xmlns="http://www.w3.org/2000/svg">
<path d="M11.3447 6.71973C11.6376 6.42683 12.1124 6.42683 12.4053 6.71973C12.6982 7.01262 12.6982 7.48738 12.4053 7.78027L9.90527 10.2803C9.61238 10.5732 9.13762 10.5732 8.84473 10.2803L7.59473 9.03027C7.30183 8.73738 7.30183 8.26262 7.59473 7.96973C7.88762 7.67683 8.36238 7.67683 8.65527 7.96973L9.375 8.68945L11.3447 6.71973Z" fill="#333333"/>
<path fill-rule="evenodd" clip-rule="evenodd" d="M10 2.5C11.5913 2.5 13.117 3.13259 14.2422 4.25781C15.3674 5.38303 16 6.9087 16 8.5C16 12.2447 11.8462 16.145 10.4512 17.3496L10.3486 17.4141C10.2416 17.4702 10.122 17.5 10 17.5L9.87891 17.4902C9.79949 17.4772 9.72262 17.4515 9.65137 17.4141L9.54883 17.3496C8.15377 16.145 4 12.2447 4 8.5C4 7.00818 4.55519 5.57329 5.55176 4.47266L5.75781 4.25781C6.88303 3.13259 8.4087 2.5 10 2.5ZM10 4C8.80653 4 7.66227 4.47445 6.81836 5.31836C5.97445 6.16227 5.5 7.30653 5.5 8.5C5.5 9.8666 6.28666 11.4464 7.44531 12.9688C8.31726 14.1144 9.29708 15.0912 10 15.7383C10.7029 15.0912 11.6827 14.1144 12.5547 12.9688C13.7133 11.4464 14.5 9.8666 14.5 8.5C14.5 7.30653 14.0256 6.16227 13.1816 5.31836C12.3377 4.47445 11.1935 4 10 4Z" fill="#333333"/>
</svg>
