<svg width="24" height="24" viewBox="0 0 24 24" fill="none" xmlns="http://www.w3.org/2000/svg">
<circle cx="12" cy="12" r="10" fill="#333333"/>
<path fill-rule="evenodd" clip-rule="evenodd" d="M13 7.5C13 7.22386 12.7761 7 12.5 7H11.5C11.2239 7 11 7.22386 11 7.5L11 11H7.5C7.22386 11 7 11.2239 7 11.5V12.5C7 12.7761 7.22386 13 7.5 13H11L11 16.5C11 16.7761 11.2239 17 11.5 17H12.5C12.7761 17 13 16.7761 13 16.5V13H16.5C16.7761 13 17 12.7761 17 12.5V11.5C17 11.2239 16.7761 11 16.5 11H13V7.5Z" fill="white"/>
</svg>
