<svg width="20" height="20" viewBox="0 0 20 20" fill="none" xmlns="http://www.w3.org/2000/svg">
<path fill-rule="evenodd" clip-rule="evenodd" d="M16 5H4C3.72386 5 3.5 5.22386 3.5 5.5V14.5C3.5 14.7761 3.72386 15 4 15H16C16.2761 15 16.5 14.7761 16.5 14.5V5.5C16.5 5.22386 16.2761 5 16 5ZM4 3.5C2.89543 3.5 2 4.39543 2 5.5V14.5C2 15.6046 2.89543 16.5 4 16.5H16C17.1046 16.5 18 15.6046 18 14.5V5.5C18 4.39543 17.1046 3.5 16 3.5H4Z" fill="#333333"/>
<path fill-rule="evenodd" clip-rule="evenodd" d="M8.5 9.5C9.32843 9.5 10 8.82843 10 8C10 7.17157 9.32843 6.5 8.5 6.5C7.67157 6.5 7 7.17157 7 8C7 8.82843 7.67157 9.5 8.5 9.5ZM3.5 14.5V13.1899L5.5 11.4756L7.65326 13.3213C8.4776 14.0279 9.71512 13.9477 10.4414 13.1407L13.5 9.7423L16.5 13.0756V14.5C16.5 14.7762 16.2761 15 16 15H4C3.72386 15 3.5 14.7762 3.5 14.5ZM18 14.5V12.5L14.2433 8.32591C13.8461 7.88453 13.1539 7.88453 12.7567 8.32591L9.32649 12.1373C9.14491 12.339 8.83553 12.3591 8.62945 12.1824L6.15079 10.0578C5.7763 9.73686 5.2237 9.73686 4.84921 10.0578L2 12.5V14.5C2 15.6046 2.89543 16.5 4 16.5H16C17.1046 16.5 18 15.6046 18 14.5Z" fill="#333333"/>
</svg>
