<svg width="20" height="20" viewBox="0 0 20 20" fill="none" xmlns="http://www.w3.org/2000/svg">
<path d="M15 2C15.5523 2 16 2.44772 16 3V13.7354L14.9971 12.9463C14.3688 12.4515 13.5001 12.9507 13.5 13.8066V14.25H10.75C10.1977 14.25 9.75 14.6977 9.75 15.25V17H5C4.44772 17 4 16.5523 4 16V3C4 2.44772 4.44772 2 5 2H15Z" fill="#FF6666"/>
<path d="M10.25 8.25C11.4926 8.25002 12.5 9.25737 12.5 10.5C12.5 10.9142 12.1642 11.25 11.75 11.25H7.25C6.83581 11.25 6.50004 10.9142 6.5 10.5C6.5 9.25736 7.50736 8.25 8.75 8.25H10.25ZM9.5 4.5C10.3284 4.50002 11 5.17159 11 6C11 6.82838 10.3284 7.49998 9.5 7.5C8.6716 7.5 8.00004 6.82839 8 6C8 5.17157 8.67157 4.5 9.5 4.5Z" fill="#F9EBEB"/>
<path d="M14.5 15.0281C14.5001 14.6001 14.9349 14.35 15.249 14.5974L16.7998 15.8191C17.0667 16.0293 17.0667 16.4702 16.7998 16.6804L15.249 17.9021C14.9349 18.1495 14.5 17.8995 14.5 17.4714V16.9997H11.5C11.2239 16.9997 11 16.7759 11 16.4997V15.9997C11.0002 15.7237 11.224 15.4997 11.5 15.4997H14.5V15.0281Z" fill="#FF6666"/>
</svg>
