<svg width="24" height="24" viewBox="0 0 24 24" fill="none" xmlns="http://www.w3.org/2000/svg">
<path fill-rule="evenodd" clip-rule="evenodd" d="M8 3C8 2.44772 8.44772 2 9 2H15C15.5523 2 16 2.44772 16 3H17C18.6569 3 20 4.34315 20 6V18C20 19.6569 18.6569 21 17 21H7C5.34315 21 4 19.6569 4 18V6C4 4.34315 5.34315 3 7 3H8ZM9 6C8.44772 6 8 5.55228 8 5H7C6.44772 5 6 5.44772 6 6V18C6 18.5523 6.44772 19 7 19H17C17.5523 19 18 18.5523 18 18V6C18 5.44772 17.5523 5 17 5H16C16 5.55228 15.5523 6 15 6H9ZM8 9.49988C8 9.22374 8.22386 8.99988 8.5 8.99988H15.5C15.7761 8.99988 16 9.22374 16 9.49988V10.4999C16 10.776 15.7761 10.9999 15.5 10.9999H8.5C8.22386 10.9999 8 10.776 8 10.4999V9.49988ZM8 12.4999C8 12.2237 8.22386 11.9999 8.5 11.9999H13.5C13.7761 11.9999 14 12.2237 14 12.4999V13.4999C14 13.776 13.7761 13.9999 13.5 13.9999H8.5C8.22386 13.9999 8 13.776 8 13.4999V12.4999Z" fill="#333333"/>
</svg>
