<svg width="20" height="20" viewBox="0 0 20 20" fill="none" xmlns="http://www.w3.org/2000/svg">
<path d="M10.793 7.14648C10.8906 7.04888 11.0489 7.04888 11.1465 7.14648L11.8535 7.85352C11.9511 7.95114 11.9511 8.10941 11.8535 8.20703L8.67676 11.3838C8.57913 11.4814 8.42087 11.4814 8.32324 11.3838L6.14648 9.20703C6.04888 9.1094 6.04888 8.95114 6.14648 8.85352L6.85352 8.14648C6.95114 8.04888 7.10941 8.04888 7.20703 8.14648L8.5 9.43945L10.793 7.14648Z" fill="#333333"/>
<path fill-rule="evenodd" clip-rule="evenodd" d="M9 2.5C12.5899 2.5 15.5 5.41015 15.5 9C15.5 10.5246 14.9727 11.9247 14.0938 13.0332L15.8535 14.793C15.9511 14.8906 15.9511 15.0489 15.8535 15.1465L15.1465 15.8535C15.0489 15.9511 14.8906 15.9511 14.793 15.8535L13.0332 14.0938C11.9247 14.9727 10.5246 15.5 9 15.5C5.41015 15.5 2.5 12.5899 2.5 9C2.5 5.41015 5.41015 2.5 9 2.5ZM9 4.125C6.30761 4.125 4.125 6.30761 4.125 9C4.125 11.6924 6.30761 13.875 9 13.875C11.6924 13.875 13.875 11.6924 13.875 9C13.875 6.30761 11.6924 4.125 9 4.125Z" fill="#333333"/>
</svg>
