<svg width="20" height="20" viewBox="0 0 20 20" fill="none" xmlns="http://www.w3.org/2000/svg">
<path d="M14.5 2C15.3284 2 16 2.67157 16 3.5V16.5C16 17.3284 15.3284 18 14.5 18H5.5C4.67157 18 4 17.3284 4 16.5V3.5C4 2.67157 4.67157 2 5.5 2H14.5ZM5.5 16.5H14.5V3.5H5.5V16.5ZM9.5 13.5C9.77614 13.5 10 13.7239 10 14V14.5C10 14.7761 9.77614 15 9.5 15H7C6.72386 15 6.5 14.7761 6.5 14.5V14C6.5 13.7239 6.72386 13.5 7 13.5H9.5ZM13 10.5C13.2761 10.5 13.5 10.7239 13.5 11V11.5C13.5 11.7761 13.2761 12 13 12H7C6.72386 12 6.5 11.7761 6.5 11.5V11C6.5 10.7239 6.72386 10.5 7 10.5H13ZM8.5 7C9.60457 7 10.5 7.49439 10.5 8.29395C10.5 8.68387 10.1839 8.99996 9.79395 9H7.20605C6.81613 8.99996 6.50004 8.68387 6.5 8.29395C6.5 7.49439 7.39543 7 8.5 7ZM8.5 4.5C9.05228 4.5 9.5 4.94772 9.5 5.5C9.5 6.05228 9.05228 6.5 8.5 6.5C7.94772 6.5 7.5 6.05228 7.5 5.5C7.5 4.94772 7.94772 4.5 8.5 4.5Z" fill="#333333"/>
</svg>
