<svg xmlns="http://www.w3.org/2000/svg" width="20" height="20" viewBox="0 0 20 20" fill="none">
  <path d="M8.99965 2.5C8.99965 2.22386 9.22351 2 9.49965 2H10.4996C10.7758 2 10.9996 2.22386 10.9996 2.5V8.26774L15.9944 5.38403C16.2335 5.24596 16.5393 5.3279 16.6774 5.56705L17.1774 6.43307C17.3155 6.67222 17.2335 6.97801 16.9944 7.11608L11.9998 9.99973L16.9953 12.8839C17.2345 13.022 17.3164 13.3278 17.1783 13.5669L16.6783 14.433C16.5403 14.6721 16.2345 14.754 15.9953 14.616L10.9996 11.7317V17.5C10.9996 17.7761 10.7758 18 10.4996 18H9.49965C9.22351 18 8.99965 17.7761 8.99965 17.5V11.7318L4.00399 14.6161C3.76484 14.7542 3.45905 14.6722 3.32098 14.4331L2.82098 13.567C2.68291 13.3279 2.76484 13.0221 3.00399 12.884L7.99975 9.99973L3.00493 7.11597C2.76578 6.9779 2.68384 6.6721 2.82191 6.43295L3.32191 5.56693C3.45999 5.32778 3.76578 5.24584 4.00493 5.38392L8.99965 8.26762V2.5Z" fill="#333333"/>
</svg>