<svg width="20" height="20" viewBox="0 0 20 20" fill="none" xmlns="http://www.w3.org/2000/svg">
<path fill-rule="evenodd" clip-rule="evenodd" d="M2.25 8.5V4.5C2.25 4.22386 2.47386 4 2.75 4H3.25C3.52614 4 3.75 4.22386 3.75 4.5V8.5C3.75 9.74264 4.75736 10.75 6 10.75H15.5C15.7761 10.75 16 10.9739 16 11.25V11.75C16 12.0261 15.7761 12.25 15.5 12.25H6C3.92893 12.25 2.25 10.5711 2.25 8.5Z" fill="#333333"/>
<path fill-rule="evenodd" clip-rule="evenodd" d="M15.5858 11.8839C15.7811 11.6886 15.7811 11.372 15.5858 11.1768L12.8233 8.41421C12.628 8.21895 12.628 7.90237 12.8233 7.70711L13.1768 7.35355C13.3721 7.15829 13.6887 7.15829 13.8839 7.35355L17.7072 11.1768C17.9024 11.372 17.9024 11.6886 17.7072 11.8839L13.8839 15.7071C13.6887 15.9024 13.3721 15.9024 13.1768 15.7071L12.8233 15.3536C12.628 15.1583 12.628 14.8417 12.8233 14.6464L15.5858 11.8839Z" fill="#333333"/>
</svg>
