<svg width="20" height="20" viewBox="0 0 20 20" fill="none" xmlns="http://www.w3.org/2000/svg">
<path fill-rule="evenodd" clip-rule="evenodd" d="M15.1334 5.24283C13.8306 3.837 11.9888 3 10 3C6.13401 3 3 6.13401 3 10C3 13.866 6.13401 17 10 17C13.0795 17 15.7555 14.9954 16.6689 12.1332C16.7529 11.8701 16.5862 11.5989 16.3178 11.534L15.2028 11.2641C15.0843 11.2355 14.9646 11.3068 14.9333 11.4247C14.3082 13.5968 12.3083 15.1333 10 15.1333C7.16494 15.1333 4.86667 12.8351 4.86667 10C4.86667 7.16494 7.16494 4.86667 10 4.86667C11.5634 4.86667 13.0021 5.57118 13.9607 6.73333H11.9001C11.6239 6.73333 11.4001 6.95719 11.4001 7.23333V8.1C11.4001 8.37614 11.6239 8.6 11.9001 8.6H16.5001C16.7762 8.6 17.0001 8.37614 17.0001 8.1V3.5C17.0001 3.22386 16.7762 3 16.5001 3H15.6334C15.3572 3 15.1334 3.22386 15.1334 3.5V5.24283Z" fill="#333333"/>
</svg>
