<svg width="20" height="20" viewBox="0 0 20 20" fill="none" xmlns="http://www.w3.org/2000/svg">
<path fill-rule="evenodd" clip-rule="evenodd" d="M6 6.75C5.30964 6.75 4.75 7.30964 4.75 8V12C4.75 12.6904 5.30964 13.25 6 13.25C6.41421 13.25 6.75 13.5858 6.75 14C6.75 14.4142 6.41421 14.75 6 14.75C4.48122 14.75 3.25 13.5188 3.25 12V8C3.25 6.48122 4.48122 5.25 6 5.25H11.0081C11.4223 5.25 11.7581 5.58579 11.7581 6C11.7581 6.41421 11.4223 6.75 11.0081 6.75H6ZM13.25 6C13.25 5.58579 13.5858 5.25 14 5.25C15.5188 5.25 16.75 6.48122 16.75 8V12C16.75 13.5188 15.5188 14.75 14 14.75H8.99827C8.58406 14.75 8.24827 14.4142 8.24827 14C8.24827 13.5858 8.58406 13.25 8.99827 13.25H14C14.6904 13.25 15.25 12.6904 15.25 12V8C15.25 7.30964 14.6904 6.75 14 6.75C13.5858 6.75 13.25 6.41421 13.25 6Z" fill="#333333"/>
<path fill-rule="evenodd" clip-rule="evenodd" d="M10.0289 3.96825C9.73523 3.67614 9.26035 3.67742 8.96825 3.97109C8.67614 4.26477 8.67742 4.73964 8.97109 5.03175L9.94455 6L8.97109 6.96825C8.67742 7.26036 8.67614 7.73523 8.96825 8.02891C9.26035 8.32258 9.73523 8.32386 10.0289 8.03175L11.5367 6.53203C11.5366 6.53215 11.5368 6.53191 11.5367 6.53203C11.83 6.23989 11.8318 5.76465 11.5398 5.47109C11.5393 5.47062 11.5389 5.47014 11.5384 5.46967C11.5379 5.4692 11.5375 5.46872 11.537 5.46825M11.537 5.46825L10.0289 3.96825L11.537 5.46825Z" fill="#333333"/>
<path d="M9.97917 11.9682C10.2728 11.6761 10.7477 11.6774 11.0398 11.9711C11.3319 12.2648 11.3307 12.7396 11.037 13.0318L10.0635 14L11.037 14.9682C11.3307 15.2604 11.3319 15.7352 11.0398 16.0289C10.7477 16.3226 10.2728 16.3239 9.97917 16.0318L8.47137 14.532C8.47125 14.5319 8.47149 14.5321 8.47137 14.532C8.40795 14.4689 8.35754 14.3965 8.32145 14.32C8.19062 14.0425 8.2394 13.7012 8.46825 13.4711C8.46872 13.4706 8.4692 13.4701 8.46967 13.4697" fill="#333333"/>
<path d="M9.97917 11.9682L8.47149 13.4679L9.97917 11.9682Z" fill="#333333"/>
</svg>
