<svg width="24" height="24" viewBox="0 0 24 24" fill="none" xmlns="http://www.w3.org/2000/svg">
<path fill-rule="evenodd" clip-rule="evenodd" d="M8.21133 20.5981C9.36613 21.2648 10.8344 21.0144 11.931 20.0889C12.2153 19.8489 12.1733 19.4214 11.8863 19.2557L7.5364 16.7443C7.24938 16.5786 6.85815 16.756 6.79251 17.1222C6.53937 18.5347 7.05667 19.9314 8.21133 20.5981Z" fill="#333333"/>
<path fill-rule="evenodd" clip-rule="evenodd" d="M21.5915 16.8666C22.3035 16.5106 22.3035 15.4946 21.5915 15.1386L15.4008 12.0433C14.6627 11.6742 13.8316 12.3409 14.0317 13.1415L14.6057 15.4376L19.1722 15.4376C19.4656 15.4376 19.7035 15.6754 19.7035 15.9688L19.7035 16.0985C19.7035 16.3919 19.4656 16.6297 19.1722 16.6297L14.5902 16.6297L14.0317 18.8637C13.8316 19.6643 14.6627 20.331 15.4008 19.9619L21.5915 16.8666Z" fill="#333333"/>
<path fill-rule="evenodd" clip-rule="evenodd" d="M16.05 3.30785C15.6969 3.10402 15.1453 2.86021 14.5591 3.09344C14.2762 3.20601 14.0928 3.39161 13.9822 3.53078C13.9313 3.59472 13.8864 3.66157 13.8501 3.7196C11.4872 3.09315 8.90831 3.86007 7.67164 6.00204L6.81629 7.48355C6.38336 8.23341 5.57993 8.76241 4.54415 8.88029L4.54415 8.88027L4.53802 8.881C3.91818 8.95542 3.34143 9.29464 3.01183 9.86552C2.37899 10.9616 2.95152 12.2254 3.90367 12.7751L12.7678 17.8929L13.2408 16.0008L13.1987 15.8322L4.90367 11.0431C4.81495 10.9919 4.77162 10.9246 4.75654 10.8803L4.75361 10.8709C4.75931 10.8695 4.76628 10.868 4.77466 10.867C6.37362 10.6837 7.76766 9.83573 8.54834 8.48355L9.40369 7.00204C10.1772 5.66231 12.0673 5.07235 13.9168 5.85037L14.4522 6.07561L14.9148 6.42656C16.4698 7.60634 16.9232 9.46786 16.2337 10.8016L18.023 11.6962C19.1 9.59621 18.4597 7.09434 16.7934 5.419C16.8255 5.35847 16.861 5.28608 16.891 5.21C16.9562 5.04452 17.0251 4.79288 16.9811 4.49161C16.8899 3.86751 16.4031 3.51171 16.05 3.30785ZM17.3085 12.9458L15.5165 12.0497L15.3186 12.3924C14.7832 13.3198 14.5972 14.3791 14.7395 15.4276H16.7692C16.6043 14.692 16.7124 13.9783 17.0507 13.3924L17.3085 12.9458ZM17.1349 16.637H15.053C15.0799 16.7067 15.1084 16.776 15.1383 16.845C15.1429 16.8559 15.1459 16.8651 15.1479 16.8726L15.1389 16.8745C15.093 16.8836 15.0131 16.8797 14.9242 16.8285L14.5927 16.637H14.5632L14.0638 18.6347C15.0069 19.0951 16.2875 18.9218 16.8901 17.8781C17.1149 17.4888 17.1881 17.0556 17.1349 16.637ZM15.1701 16.8639C15.1702 16.864 15.1695 16.8646 15.1677 16.8656C15.1691 16.8643 15.17 16.8639 15.1701 16.8639ZM4.75014 10.848C4.75024 10.848 4.75026 10.849 4.7499 10.8508C4.74985 10.8488 4.75003 10.8479 4.75014 10.848Z" fill="#333333"/>
</svg>
