<svg width="24" height="24" viewBox="0 0 24 24" fill="none" xmlns="http://www.w3.org/2000/svg">
<path fill-rule="evenodd" clip-rule="evenodd" d="M13.3456 4C11.6888 4 10.3456 5.34315 10.3456 7C10.3456 8.65685 11.6888 10 13.3456 10C15.0025 10 16.3456 8.65685 16.3456 7C16.3456 5.34315 15.0025 4 13.3456 4ZM8.34565 7C8.34565 4.23858 10.5842 2 13.3456 2C16.1071 2 18.3456 4.23858 18.3456 7C18.3456 9.76142 16.1071 12 13.3456 12C10.5842 12 8.34565 9.76142 8.34565 7ZM12.7548 14.493C12.9961 13.6452 12.1661 12.8858 11.3431 13.2014L4.18674 15.9455C3.33346 16.2727 3.25693 17.4501 4.06065 17.885L6.36585 19.1324L9.83847 15.3367C10.0249 15.133 10.3411 15.1189 10.5449 15.3053L10.7811 15.5214C10.9848 15.7078 10.9989 16.0241 10.8125 16.2278L7.32814 20.0363L8.73569 22.1622C9.2402 22.9241 10.4061 22.7434 10.6563 21.8645L12.7548 14.493ZM12.6081 22C12.4761 22 12.3802 21.8742 12.4153 21.7469L12.8567 20.1438C12.8806 20.057 12.9595 19.9969 13.0495 19.9969H18.6602C18.6602 17.2311 16.7738 14.9891 14.4467 14.9891C14.3607 14.9891 14.2984 14.9072 14.3212 14.8243L14.7798 13.1586C14.8051 13.0665 14.8925 13.0047 14.9876 13.015C17.992 13.3396 20.3456 16.3416 20.3456 19.9969V20.4591C20.3456 21.3101 19.7652 22 19.0492 22H12.6081Z" fill="#333333"/>
</svg>
