<svg width="20" height="20" viewBox="0 0 20 20" fill="none" xmlns="http://www.w3.org/2000/svg">
<circle cx="10.25" cy="10" r="8.5" fill="#D6E9FB"/>
<path d="M14.375 7.31885C14.3752 6.1254 15.4756 5.23594 16.6426 5.48584L17.2676 5.61963C18.1319 5.80485 18.7498 6.5687 18.75 7.45264V10.1802C18.75 11.3738 17.6495 12.264 16.4824 12.0142L16.3838 11.9927C15.2287 13.3108 12.7795 14.9911 9.25781 14.6704C9.10213 14.9212 8.80933 15.0751 8.49219 15.0298L7.85156 14.938C7.47056 14.8835 7.1875 14.5572 7.1875 14.1724C7.18777 13.7019 7.60455 13.3402 8.07031 13.4067L8.71094 13.4985C9.0187 13.5425 9.25942 13.7649 9.3418 14.0513C12.3945 14.3189 14.5577 12.9752 15.6797 11.8315C14.9095 11.586 14.375 10.8686 14.375 10.0464V7.31885ZM10.1914 9.35693C10.4385 9.35693 10.6438 9.55912 10.5947 9.80127C10.508 10.2287 10.2973 10.6249 9.98438 10.938C9.56489 11.3575 8.99559 11.5933 8.40234 11.5933C7.80911 11.5933 7.2398 11.3575 6.82031 10.938C6.5074 10.6249 6.29664 10.2287 6.20996 9.80127C6.16087 9.55912 6.36621 9.35693 6.61328 9.35693H10.1914ZM6.27539 5.44385C6.86219 5.44385 7.33789 6.03847 7.33789 6.77197C7.33782 7.5054 6.86215 8.1001 6.27539 8.1001C5.68863 8.1001 5.21297 7.5054 5.21289 6.77197C5.21289 6.03847 5.68859 5.44385 6.27539 5.44385ZM10.5254 5.44385C11.1122 5.44385 11.5879 6.03847 11.5879 6.77197C11.5878 7.5054 11.1121 8.1001 10.5254 8.1001C9.93863 8.1001 9.46297 7.5054 9.46289 6.77197C9.46289 6.03847 9.93859 5.44385 10.5254 5.44385Z" fill="#3299FE"/>
</svg>
