<svg width="20" height="20" viewBox="0 0 20 20" fill="none" xmlns="http://www.w3.org/2000/svg">
<path fill-rule="evenodd" clip-rule="evenodd" d="M2 4.5V8.5C2 10.5711 3.67893 12.25 5.75 12.25H15.2197L12.8233 14.6464C12.628 14.8417 12.628 15.1583 12.8233 15.3536L13.1768 15.7071C13.3721 15.9024 13.6887 15.9024 13.8839 15.7071L17.7072 11.8839C17.9024 11.6886 17.9024 11.372 17.7072 11.1768L13.8839 7.35355C13.6887 7.15829 13.3721 7.15829 13.1768 7.35355L12.8233 7.70711C12.628 7.90237 12.628 8.21895 12.8233 8.41421L15.1591 10.75H5.75C4.50736 10.75 3.5 9.74264 3.5 8.5V4.5C3.5 4.22386 3.27614 4 3 4H2.5C2.22386 4 2 4.22386 2 4.5Z" fill="#333333"/>
</svg>
