<svg width="24" height="24" viewBox="0 0 24 24" fill="none" xmlns="http://www.w3.org/2000/svg">
<path fill-rule="evenodd" clip-rule="evenodd" d="M5.3175 16.4812C5.91221 14.6975 8.17731 14.1635 9.50696 15.4929C10.8363 16.8226 10.3015 19.0868 8.5177 19.6814L6.51282 20.3503C5.36174 20.7338 4.26604 19.6381 4.64953 18.487L5.3175 16.4812ZM8.09289 16.907C7.81455 16.6289 7.3405 16.7408 7.21594 17.114L6.88098 18.1189L7.88489 17.7839C8.25824 17.6595 8.37095 17.1853 8.09289 16.907Z" fill="#333333"/>
<path fill-rule="evenodd" clip-rule="evenodd" d="M17.882 5.00363C17.9795 5.00569 18.0771 5.01116 18.1749 5.01731C18.2162 5.01991 18.2576 5.0208 18.2989 5.02414C18.443 5.03574 18.5873 5.05139 18.7316 5.07199C18.8368 5.08706 18.938 5.11442 19.0343 5.15109C19.0895 5.1722 19.1429 5.1968 19.1945 5.22434C19.5841 5.43173 19.8647 5.81462 19.9298 6.27024C19.9712 6.56037 19.9919 6.8506 19.9972 7.13938C19.9979 7.17717 19.9971 7.21492 19.9972 7.25266C19.9974 7.35121 19.9962 7.44946 19.9923 7.54758C19.9905 7.59387 19.9882 7.64007 19.9855 7.68625C19.9792 7.7918 19.9701 7.89685 19.9591 8.00168C19.9552 8.03914 19.9519 8.07663 19.9474 8.11399C19.9335 8.22886 19.9161 8.343 19.8966 8.45676C19.8919 8.48441 19.888 8.51219 19.8829 8.53977C19.8311 8.82182 19.7632 9.10003 19.6779 9.37277C19.6729 9.38879 19.6673 9.40464 19.6622 9.42063C19.6252 9.53597 19.585 9.65014 19.5421 9.7634C19.5225 9.81533 19.5004 9.86624 19.4796 9.9177C19.4521 9.98546 19.4242 10.053 19.3947 10.1198C19.3641 10.189 19.3327 10.2577 19.2999 10.3259C19.2759 10.3759 19.2519 10.4259 19.2267 10.4753C19.1876 10.552 19.1465 10.6276 19.1046 10.7029C19.0795 10.7478 19.0535 10.7922 19.0275 10.8366C18.984 10.9109 18.9399 10.9846 18.8937 11.0573C18.8722 11.0911 18.8503 11.1245 18.8282 11.1579C18.6332 11.4535 18.4168 11.7361 18.1769 12.0017L18.2599 12.3025C18.6444 13.8155 18.5693 15.4416 17.9855 16.9597L17.5587 18.0661C16.9597 19.6235 14.9997 20.0848 13.7706 19.0046L13.6544 18.8952L12.0011 17.2409L12.0001 17.2429L6.10657 11.3464L5.99719 11.2302C4.91744 10.0011 5.37849 8.042 6.93567 7.44309L8.04211 7.01633C9.55984 6.43264 11.1856 6.35678 12.6984 6.74094L12.9991 6.82395C13.3719 6.48725 13.7767 6.19443 14.2062 5.94699C14.2303 5.93307 14.2541 5.91863 14.2784 5.905C14.3587 5.86003 14.4398 5.81688 14.5216 5.77512C14.5673 5.75179 14.6132 5.72908 14.6593 5.70676C14.7372 5.6691 14.8154 5.63213 14.8947 5.59738C14.937 5.57878 14.9799 5.56144 15.0226 5.54367C15.1041 5.5098 15.1859 5.47681 15.2687 5.44602C15.3171 5.42796 15.3663 5.41223 15.4152 5.39524C15.7058 5.29428 16.0026 5.21152 16.3048 5.14914C16.3419 5.14146 16.3789 5.13279 16.4161 5.1257C16.5017 5.10948 16.5877 5.0958 16.6739 5.08274C16.7269 5.07468 16.7799 5.06616 16.8331 5.0593C16.9071 5.0498 16.9814 5.04204 17.0558 5.03488C17.1243 5.02826 17.193 5.0229 17.2618 5.01828C17.3337 5.0135 17.4056 5.01013 17.4777 5.00754C17.5482 5.00498 17.6188 5.00407 17.6896 5.00363C17.7536 5.00326 17.8177 5.00225 17.882 5.00363ZM13.5441 15.9558L15.0695 17.4812C15.2638 17.6749 15.5928 17.6048 15.6915 17.3484L15.6925 17.3474L16.1183 16.2409L16.1993 16.0163C16.4736 15.2029 16.554 14.354 16.4562 13.529L13.5441 15.9558ZM17.7169 7.00266C16.4702 7.00651 15.2663 7.47119 14.34 8.30832L14.2306 8.40598C14.0945 8.53628 13.9652 8.67527 13.8429 8.82199L10.464 12.8757L12.1232 14.5349L16.1779 11.1579C16.3687 10.9989 16.5443 10.8253 16.7072 10.6433C17.4037 9.86559 17.838 8.89571 17.9611 7.86984C17.9949 7.58634 18.0052 7.29868 17.9904 7.00949C17.899 7.0048 17.8079 7.00242 17.7169 7.00266ZM11.4708 8.54367C10.5701 8.43715 9.64046 8.54484 8.75989 8.88352L7.65246 9.3093C7.39618 9.40822 7.32677 9.7381 7.52063 9.93234L9.04407 11.4558L11.4708 8.54367Z" fill="#333333"/>
</svg>
