<svg width="20" height="20" viewBox="0 0 20 20" fill="none" xmlns="http://www.w3.org/2000/svg">
<circle cx="9" cy="9" r="5.6875" stroke="#333333" stroke-width="1.625"/>
<path d="M15.8535 14.7929C15.9511 14.8906 15.9511 15.0489 15.8535 15.1465L15.1465 15.8535C15.0489 15.9511 14.8906 15.9511 14.7929 15.8535L12.1465 13.2071C12.0489 13.1094 12.0489 12.9511 12.1465 12.8535L12.8535 12.1465C12.9511 12.0489 13.1094 12.0489 13.2071 12.1465L15.8535 14.7929Z" fill="#333333"/>
<path d="M11.8535 7.8535C11.9511 7.95113 11.9511 8.10942 11.8535 8.20705L8.67678 11.3838C8.57915 11.4814 8.42085 11.4814 8.32322 11.3838L6.1465 9.20705C6.04887 9.10942 6.04887 8.95113 6.1465 8.8535L6.8535 8.1465C6.95113 8.04887 7.10942 8.04887 7.20705 8.1465L8.5 9.43945L10.7929 7.1465C10.8906 7.04887 11.0489 7.04887 11.1465 7.1465L11.8535 7.8535Z" fill="#333333"/>
</svg>
