<svg width="20" height="20" viewBox="0 0 20 20" fill="none" xmlns="http://www.w3.org/2000/svg">
<path fill-rule="evenodd" clip-rule="evenodd" d="M11.3604 3.07139C11.8001 2.89647 12.2138 3.07933 12.4786 3.23221C12.7434 3.3851 13.1085 3.65195 13.1769 4.12002C13.2099 4.34598 13.1582 4.5347 13.1093 4.65881C13.0868 4.71587 13.0602 4.77017 13.0362 4.81557C14.2858 6.07207 14.7661 7.94847 13.9583 9.52346L12.6164 8.85249C13.1335 7.85221 12.7934 6.45607 11.6272 5.57123L11.2802 5.30802L10.8787 5.1391C9.49158 4.55558 8.07397 4.99805 7.49385 6.00285L6.85234 7.11398C6.26681 8.12815 5.22122 8.76417 4.02196 8.90155L4.0234 8.90137L3.934 8.15672L4.0188 8.90191L4.02196 8.90155C4.01573 8.90236 4.01054 8.90341 4.00629 8.90451L4.00849 8.91154C4.0198 8.94474 4.0523 8.99521 4.11884 9.03363L10.3401 12.6255L10.3717 12.7519L10.017 14.171L3.36884 10.3327C2.65473 9.92037 2.22532 8.97255 2.69996 8.15046C2.94716 7.72229 3.37972 7.46788 3.8446 7.41207L3.8492 7.41152L3.8492 7.41153C4.62603 7.32313 5.22861 6.92637 5.5533 6.36398L6.19482 5.25285C7.12232 3.64637 9.05649 3.07118 10.8287 3.54101C10.8559 3.49749 10.8896 3.44735 10.9277 3.3994C11.0107 3.29502 11.1483 3.15582 11.3604 3.07139ZM12.0784 9.7886L13.4225 10.4606L13.4056 10.49L16.6356 12.105C17.1695 12.3719 17.1695 13.1339 16.6356 13.4009L11.9925 15.7224C11.4389 15.9993 10.8156 15.4992 10.9657 14.8988L11.0064 14.7358C11.0006 14.733 10.9947 14.7302 10.9889 14.7273L11.3635 13.2291H11.3831L11.3846 13.2233H14.8211C15.0411 13.2233 15.2195 13.0449 15.2195 12.8248V12.7276C15.2195 12.5076 15.0411 12.3292 14.8211 12.3292H11.3962L10.9657 10.6071C10.8156 10.0067 11.4389 9.50664 11.9925 9.78344L12.0615 9.81794L12.0784 9.7886ZM4.00369 8.88729C4.00376 8.88732 4.00378 8.88808 4.00351 8.88945C4.00347 8.88795 4.00361 8.88726 4.00369 8.88729ZM6.59991 16.1995C7.466 16.6996 8.56718 16.5118 9.38965 15.8177C9.60288 15.6377 9.5714 15.3171 9.35615 15.1928L6.09371 13.3092C5.87845 13.1849 5.58502 13.318 5.5358 13.5927C5.34594 14.6521 5.73391 15.6996 6.59991 16.1995Z" fill="#333333"/>
</svg>
