<svg width="24" height="24" viewBox="0 0 24 24" fill="none" xmlns="http://www.w3.org/2000/svg">
<path d="M12.628 3.00002C12.7683 3.00002 12.9285 2.99908 13.0684 3.00979C13.1825 3.01853 13.322 3.0369 13.4727 3.08498L13.627 3.14455C13.8732 3.25499 14.0892 3.42434 14.2549 3.63869L14.3233 3.73342L14.4063 3.87697C14.4786 4.01821 14.5197 4.15279 14.5469 4.26369C14.5802 4.39942 14.606 4.55766 14.6289 4.69533C14.6463 4.79941 14.657 4.86555 14.666 4.91408C14.6704 4.93769 14.6734 4.95137 14.6748 4.95803C14.7254 5.13419 14.927 5.21801 15.0879 5.12893L15.125 5.10354C15.1654 5.07581 15.2202 5.03765 15.3057 4.97658C15.4195 4.89525 15.5492 4.80105 15.669 4.72854C15.7995 4.64954 15.977 4.55803 16.2022 4.51272C16.4676 4.45931 16.742 4.47262 17.001 4.5508L17.1104 4.58791L17.2617 4.65529C17.4024 4.72791 17.5137 4.81417 17.6006 4.88869C17.707 4.97998 17.8199 5.09329 17.919 5.1924L18.8076 6.08205L18.9619 6.23733C19.0141 6.2911 19.0658 6.34553 19.1113 6.39846C19.1856 6.4847 19.2715 6.59687 19.3447 6.7383L19.4131 6.89065C19.523 7.17998 19.5494 7.49535 19.4883 7.79885C19.4429 8.02353 19.3514 8.20173 19.2725 8.33205C19.2 8.45186 19.1058 8.58136 19.0244 8.69533C18.962 8.78281 18.9235 8.8362 18.8946 8.87795C18.8832 8.89435 18.8761 8.90502 18.8721 8.91115C18.7832 9.07153 18.8662 9.27441 19.043 9.32522C19.0303 9.32157 19.0347 9.32381 19.085 9.33303C19.1342 9.34205 19.1998 9.35265 19.3047 9.37014C19.4425 9.3931 19.6006 9.41887 19.7363 9.45217C19.8841 9.48843 20.0743 9.54886 20.2656 9.6758C20.525 9.84828 20.7294 10.0905 20.8555 10.3711C20.9493 10.5803 20.9786 10.7785 20.9903 10.9307C21.001 11.0705 21 11.2308 21 11.3711V12.6289C21 12.7692 21.001 12.9295 20.9903 13.0694C20.9786 13.2215 20.9493 13.4187 20.8555 13.628C20.7279 13.9117 20.523 14.1528 20.2666 14.3233C20.0769 14.4494 19.8879 14.51 19.7393 14.5469C19.6026 14.5808 19.4439 14.6067 19.3047 14.6299C19.1982 14.6477 19.1323 14.6589 19.0821 14.668C19.0621 14.6716 19.0492 14.6733 19.042 14.6748C18.8663 14.7253 18.7817 14.9275 18.8711 15.0889C18.875 15.0949 18.883 15.1058 18.8955 15.124C18.9238 15.1651 18.9618 15.2194 19.0235 15.3057C19.1048 15.4196 19.199 15.5492 19.2715 15.669C19.3307 15.7668 19.3967 15.8911 19.4453 16.042L19.4873 16.2022L19.5059 16.3164C19.5354 16.5456 19.5159 16.7785 19.4492 17L19.4121 17.1104C19.3299 17.3264 19.2095 17.4874 19.1104 17.6026C19.0648 17.6555 19.0132 17.7099 18.961 17.7637L18.8067 17.919L17.918 18.8086C17.8189 18.9077 17.706 19.021 17.5996 19.1123C17.4838 19.2117 17.3238 19.3315 17.1094 19.4131C16.8556 19.5096 16.5828 19.5413 16.3155 19.5069L16.2012 19.4883C15.9761 19.443 15.7985 19.3515 15.668 19.2725C15.5482 19.2 15.4186 19.1058 15.3047 19.0244C15.2184 18.9628 15.1641 18.9248 15.1231 18.8965C15.1048 18.8839 15.0939 18.876 15.0879 18.8721C14.9278 18.7834 14.7258 18.866 14.6748 19.043C14.6775 19.0335 14.6751 19.0406 14.666 19.0889C14.6571 19.1365 14.646 19.2021 14.6289 19.3047C14.606 19.4424 14.5802 19.6006 14.5469 19.7363C14.5197 19.8473 14.4786 19.9818 14.4063 20.1231L14.3233 20.2666C14.1723 20.4936 13.9677 20.6776 13.7305 20.8047L13.627 20.8555C13.4179 20.9492 13.2206 20.9786 13.0684 20.9903C12.9285 21.001 12.7683 21 12.628 21H11.3711C11.2308 21 11.0705 21.001 10.9307 20.9903C10.8166 20.9815 10.6771 20.9631 10.5264 20.9151L10.3721 20.8555C10.1259 20.745 9.90984 20.5757 9.74416 20.3613L9.6758 20.2666C9.54859 20.0751 9.48844 19.8843 9.45217 19.7363C9.41889 19.6006 9.39309 19.4424 9.37014 19.3047C9.35282 19.2008 9.34198 19.1357 9.33303 19.0869C9.32385 19.037 9.32175 19.0319 9.32522 19.044C9.27446 18.8674 9.0717 18.7841 8.91115 18.8731C8.90545 18.8767 8.89399 18.8848 8.87404 18.8985C8.83362 18.9262 8.77876 18.9644 8.69338 19.0254C8.58062 19.106 8.45092 19.2001 8.33205 19.2725C8.20249 19.3513 8.02408 19.4445 7.7969 19.4903C7.48935 19.5519 7.17385 19.5226 6.88869 19.4141C6.67496 19.3325 6.51423 19.2126 6.39846 19.1133C6.29204 19.022 6.17935 18.9088 6.0801 18.8096L5.19143 17.9209C5.09222 17.8217 4.979 17.709 4.88772 17.6026C4.78837 17.4867 4.66852 17.3272 4.58693 17.1133C4.47647 16.823 4.45085 16.507 4.51174 16.2041C4.55704 15.979 4.64854 15.8014 4.72756 15.6709C4.80007 15.5512 4.89429 15.4215 4.97561 15.3076C5.03663 15.2222 5.07494 15.1673 5.10256 15.127C5.11744 15.1052 5.12555 15.0932 5.12893 15.0879L5.15432 15.0264C5.18937 14.9007 5.13351 14.7652 5.01955 14.7012L4.95803 14.6758C4.96903 14.679 4.96342 14.6762 4.91408 14.667C4.86555 14.658 4.7995 14.6473 4.69533 14.6299C4.55611 14.6067 4.39743 14.5808 4.26076 14.5469C4.11212 14.51 3.92319 14.4494 3.73342 14.3233C3.47709 14.1528 3.2721 13.9127 3.14455 13.6289C3.0507 13.4197 3.02144 13.2215 3.00979 13.0694C2.99909 12.9295 3.00002 12.7692 3.00002 12.6289V11.3711L3.001 11.1504C3.00219 11.0755 3.00445 11.0005 3.00979 10.9307C3.02144 10.7785 3.05071 10.5803 3.14455 10.3711C3.27066 10.0905 3.47405 9.84828 3.73342 9.6758C3.92472 9.54886 4.1159 9.48843 4.26369 9.45217C4.39944 9.41887 4.55754 9.3931 4.69533 9.37014C4.79922 9.35282 4.86436 9.34199 4.91311 9.33303C4.96301 9.32385 4.96824 9.32173 4.95608 9.32522C5.13196 9.27456 5.21512 9.07313 5.126 8.91213C5.12227 8.90632 5.11419 8.89385 5.10061 8.87404C5.0729 8.83365 5.03462 8.77873 4.97365 8.69338C4.89233 8.57952 4.79812 8.44986 4.72561 8.3301C4.66638 8.23226 4.60037 8.10792 4.55178 7.95705L4.50979 7.7969C4.44881 7.49381 4.47455 7.17896 4.58498 6.88869L4.65236 6.73733C4.72496 6.59673 4.81122 6.48535 4.88576 6.39846C4.97704 6.29208 5.09032 6.17925 5.18947 6.0801L6.07912 5.19143L6.23342 5.03811C6.28702 4.98597 6.34195 4.93513 6.39455 4.88967C6.50905 4.79073 6.66908 4.66859 6.88576 4.58596C7.17628 4.47543 7.49206 4.45029 7.79397 4.51076C8.01923 4.55609 8.19786 4.64772 8.32815 4.72658C8.44793 4.79911 8.57765 4.89336 8.69143 4.97463C8.77723 5.03592 8.83222 5.07452 8.87307 5.10256C8.89424 5.11709 8.90665 5.12542 8.91213 5.12893C9.07268 5.21768 9.27341 5.13423 9.32424 4.95803L9.33303 4.91408C9.34203 4.86554 9.35279 4.79944 9.37014 4.69533C9.39309 4.55764 9.41889 4.39942 9.45217 4.26369C9.48844 4.11578 9.54859 3.92492 9.6758 3.73342C9.84826 3.47408 10.0907 3.2708 10.3721 3.14455C10.5812 3.05081 10.7785 3.02145 10.9307 3.00979C11.0705 2.99908 11.2308 3.00002 11.3711 3.00002H12.628ZM11.3467 5.00002C11.3454 5.00764 11.3441 5.01545 11.3428 5.02346C11.3285 5.109 11.3144 5.1957 11.2988 5.27834L11.2461 5.51076C10.8401 6.92147 9.22902 7.58892 7.94436 6.87893C7.81604 6.80792 7.67211 6.70358 7.52932 6.60158C7.52269 6.59685 7.51609 6.59241 7.50979 6.58791L7.49318 6.60549L6.60354 7.49416C6.59769 7.50001 6.59151 7.50521 6.58596 7.51076C6.59071 7.51742 6.59559 7.52425 6.60061 7.53127C6.70252 7.67396 6.80471 7.81479 6.87502 7.94143C7.58758 9.22662 6.92019 10.8416 5.50686 11.2471C5.36634 11.2874 5.18987 11.3151 5.02346 11.3428C5.01545 11.3441 5.00764 11.3454 5.00002 11.3467V12.6524C5.00769 12.6536 5.01539 12.6559 5.02346 12.6572C5.19468 12.6858 5.3697 12.7134 5.51076 12.7539L5.64065 12.7959C6.91908 13.2457 7.5273 14.7122 6.94143 15.9346L6.87893 16.0567C6.80824 16.1843 6.70593 16.325 6.60256 16.4697C6.59771 16.4765 6.59252 16.4828 6.58791 16.4893L7.51076 17.4121C7.51727 17.4075 7.52441 17.4034 7.53127 17.3985C7.67336 17.297 7.8152 17.1936 7.9424 17.1231C9.22806 16.4111 10.842 17.0806 11.2471 18.4932C11.2873 18.6337 11.315 18.81 11.3428 18.9766C11.3441 18.9843 11.3455 18.9917 11.3467 18.999C11.3546 18.999 11.3628 19 11.3711 19H12.628C12.636 19 12.6438 18.999 12.6514 18.999C12.6526 18.9917 12.655 18.9843 12.6563 18.9766C12.6853 18.8023 12.713 18.6316 12.753 18.4922C13.158 17.0803 14.7707 16.41 16.0567 17.1221C16.1849 17.1931 16.3296 17.2995 16.4668 17.3975C16.4734 17.4022 16.48 17.4067 16.4863 17.4112C16.4919 17.4056 16.4981 17.4004 16.5039 17.3946L17.3926 16.5049L17.4092 16.4863C17.4049 16.4804 17.401 16.474 17.3965 16.4678C17.2983 16.3304 17.1931 16.1865 17.1221 16.0586L17.1211 16.0576C16.4099 14.7731 17.0774 13.1587 18.4903 12.753C18.632 12.7123 18.8137 12.6844 18.9766 12.6572C18.9843 12.656 18.9917 12.6536 18.999 12.6524C18.999 12.6447 19 12.6369 19 12.6289V11.3711C19 11.3628 18.999 11.3546 18.999 11.3467C18.9917 11.3455 18.9843 11.3441 18.9766 11.3428C18.811 11.3152 18.633 11.2874 18.4922 11.2471C17.0797 10.8421 16.4098 9.22828 17.1221 7.9424C17.1935 7.81366 17.3026 7.666 17.3975 7.53322C17.4021 7.52675 17.4058 7.51985 17.4102 7.51369L17.3936 7.49612L16.5049 6.60647C16.4989 6.60045 16.493 6.59459 16.4873 6.58889C16.4809 6.59349 16.4746 6.59868 16.4678 6.60354C16.3968 6.65423 16.3261 6.70566 16.2569 6.75295L16.0567 6.87893C14.7718 7.59016 13.1588 6.92272 12.753 5.51076C12.7126 5.37018 12.6849 5.19519 12.6563 5.02346C12.6549 5.01539 12.6527 5.00769 12.6514 5.00002H11.3467Z" fill="#333333"/>
<path d="M12.1777 8.57617C13.9891 8.66824 15.4297 10.1658 15.4297 12L15.4248 12.1768C15.3327 13.988 13.8351 15.4286 12.001 15.4287L11.8242 15.4238C10.0714 15.3349 8.66624 13.9296 8.57715 12.1768L8.57227 12C8.57227 10.1065 10.1074 8.57129 12.001 8.57129L12.1777 8.57617ZM12.001 10.5713C11.212 10.5713 10.5723 11.211 10.5723 12C10.5723 12.7889 11.212 13.4287 12.001 13.4287C12.7898 13.4286 13.4296 12.7889 13.4297 12C13.4297 11.2111 12.7899 10.5714 12.001 10.5713Z" fill="#333333"/>
</svg>
