<svg width="24" height="24" viewBox="0 0 24 24" fill="none" xmlns="http://www.w3.org/2000/svg">
<rect x="17" y="11" width="2" height="9" rx="0.5" fill="#333333"/>
<rect x="9" y="14" width="2" height="6" rx="0.5" fill="#333333"/>
<rect x="5" y="16" width="2" height="4" rx="0.5" fill="#333333"/>
<rect x="13" y="15" width="2" height="5" rx="0.5" fill="#333333"/>
<path fill-rule="evenodd" clip-rule="evenodd" d="M20.5691 3.62296C20.6151 3.30022 20.3643 3.01171 20.0383 3.01233L15.5243 3.02086C15.0658 3.02173 14.8206 3.56113 15.1214 3.90716L16.296 5.2583L12.2338 8.78938L10.2541 6.51196C9.85953 6.05809 9.17174 6.01 8.71786 6.40454L3.67149 10.7912C3.46308 10.9724 3.441 11.2882 3.62217 11.4966L4.3949 12.3855C4.57606 12.5939 4.89187 12.616 5.10028 12.4348L9.32484 8.76254L11.3046 11.04C11.6992 11.4938 12.3869 11.5419 12.8408 11.1474L17.7248 6.90193L18.999 8.36778C19.2998 8.71381 19.868 8.54604 19.9327 8.09211L20.5691 3.62296Z" fill="#333333"/>
</svg>
