<svg width="20" height="20" viewBox="0 0 20 20" fill="none" xmlns="http://www.w3.org/2000/svg">
<path fill-rule="evenodd" clip-rule="evenodd" d="M5.80101 3C5.52486 3 5.30101 3.22386 5.30101 3.5V13.3333H4.3012C3.88918 13.3333 3.65399 13.8036 3.9012 14.1333L5.9012 16.7999C6.1012 17.0666 6.5012 17.0666 6.7012 16.7999L8.7012 14.1333C8.94841 13.8036 8.71322 13.3333 8.3012 13.3333H7.30101V3.5C7.30101 3.22386 7.07715 3 6.80101 3H5.80101ZM13.9575 6.25021L13.3493 4.63152L12.7412 6.25021H13.9575ZM14.4641 7.59857L14.8726 8.68578C14.92 8.81199 15.0407 8.89557 15.1755 8.89557H15.7755C15.9973 8.89557 16.1533 8.67748 16.0818 8.46753L14.498 3.82208C14.1244 2.72614 12.5743 2.72613 12.2007 3.82208L10.6169 8.46753C10.5453 8.67748 10.7014 8.89557 10.9232 8.89557H11.5232C11.658 8.89557 11.7787 8.81199 11.8261 8.68578L12.2346 7.59857H14.4641ZM11.191 11.5001C11.0166 11.5001 10.8752 11.6415 10.8752 11.8159V12.5001C10.8752 12.6745 11.0166 12.8159 11.191 12.8159H13.7675L11.1908 15.7607C10.759 16.2542 11.1094 17.0264 11.7651 17.0264H15.5594C15.7338 17.0264 15.8752 16.885 15.8752 16.7106V16.0264C15.8752 15.852 15.7338 15.7106 15.5594 15.7106H12.983L15.5597 12.7658C15.9915 12.2724 15.641 11.5001 14.9854 11.5001H11.191Z" fill="#333333"/>
</svg>
