<svg width="20" height="20" viewBox="0 0 20 20" fill="none" xmlns="http://www.w3.org/2000/svg">
<path fill-rule="evenodd" clip-rule="evenodd" d="M8.39857 15.5556C8.4699 15.6944 8.5053 15.9068 8.57609 16.3315C8.61567 16.569 8.63546 16.6878 8.69472 16.7769C8.74695 16.8554 8.82034 16.9176 8.90641 16.9562C9.00405 17 9.12443 17 9.3652 17H10.6348C10.8756 17 10.996 17 11.0936 16.9562C11.1797 16.9176 11.253 16.8554 11.3053 16.7769C11.3645 16.6878 11.3843 16.569 11.4239 16.3315C11.4946 15.9074 11.53 15.6953 11.6011 15.5567C11.8247 15.1211 12.3307 14.9115 12.7968 15.0614C12.9452 15.1091 13.1201 15.2341 13.4701 15.484C13.666 15.624 13.764 15.694 13.8689 15.7151C13.9614 15.7337 14.0572 15.7257 14.1454 15.6922C14.2454 15.6541 14.3305 15.569 14.5008 15.3987L15.3985 14.501C15.5688 14.3308 15.6539 14.2456 15.692 14.1456C15.7255 14.0575 15.7335 13.9616 15.7149 13.8691C15.6937 13.7642 15.6238 13.6663 15.4838 13.4703C15.2337 13.1202 15.1087 12.9451 15.061 12.7967C14.9113 12.3307 15.1208 11.8249 15.5561 11.6013C15.6948 11.53 15.9071 11.4947 16.3315 11.4239L16.3315 11.4239C16.569 11.3843 16.6878 11.3645 16.7769 11.3053C16.8554 11.253 16.9176 11.1797 16.9562 11.0936C17 10.996 17 10.8756 17 10.6348V9.3652C17 9.12443 17 9.00405 16.9562 8.90641C16.9176 8.82034 16.8554 8.74695 16.7769 8.69472C16.6878 8.63546 16.569 8.61567 16.3315 8.57609C15.9068 8.5053 15.6944 8.4699 15.5557 8.39864C15.1204 8.17502 14.9109 7.66922 15.0606 7.20329C15.1083 7.05481 15.2333 6.87972 15.4835 6.52955C15.6234 6.33363 15.6934 6.23566 15.7145 6.13075C15.7331 6.03827 15.7252 5.94242 15.6916 5.85426C15.6535 5.75424 15.5684 5.66912 15.3982 5.49887L14.5004 4.60113L14.5004 4.60113C14.3302 4.43088 14.245 4.34576 14.145 4.30769C14.0569 4.27413 13.961 4.2662 13.8685 4.2848C13.7636 4.30591 13.6657 4.37589 13.4697 4.51583C13.12 4.76562 12.9452 4.89051 12.797 4.9382C12.3308 5.0882 11.8246 4.87851 11.601 4.44281C11.5299 4.30427 11.4946 4.09234 11.4239 3.66848C11.3843 3.43099 11.3645 3.31224 11.3053 3.22313C11.253 3.14458 11.1797 3.08241 11.0936 3.0438C10.996 3 10.8756 3 10.6348 3H9.3652C9.12443 3 9.00405 3 8.90641 3.0438C8.82034 3.08241 8.74695 3.14458 8.69472 3.22313C8.63546 3.31224 8.61567 3.43099 8.57609 3.66848L8.57609 3.66849C8.50535 4.09291 8.46998 4.30512 8.39873 4.44383C8.17511 4.87916 7.66928 5.08868 7.20333 4.93898C7.05487 4.89128 6.87976 4.7662 6.52955 4.51605C6.33363 4.3761 6.23567 4.30613 6.13075 4.28502C6.03828 4.26642 5.94242 4.27435 5.85426 4.30791C5.75424 4.34598 5.66912 4.4311 5.49887 4.60135L4.60113 5.49909L4.60113 5.49909C4.43088 5.66934 4.34576 5.75446 4.30769 5.85448C4.27413 5.94264 4.2662 6.03849 4.2848 6.13097C4.30591 6.23588 4.37589 6.33384 4.51583 6.52977C4.76586 6.87981 4.89088 7.05484 4.93858 7.20318C5.08843 7.66925 4.87883 8.17529 4.4433 8.39889C4.30468 8.47005 4.09261 8.5054 3.66848 8.57609C3.43099 8.61567 3.31224 8.63546 3.22313 8.69472C3.14458 8.74695 3.08241 8.82034 3.0438 8.90641C3 9.00405 3 9.12443 3 9.3652V10.6348C3 10.8756 3 10.996 3.0438 11.0936C3.08241 11.1797 3.14458 11.253 3.22313 11.3053C3.31224 11.3645 3.43099 11.3843 3.66848 11.4239C4.09225 11.4945 4.30414 11.5299 4.44266 11.6009C4.87842 11.8245 5.08813 12.3308 4.93809 12.797C4.8904 12.9452 4.76542 13.1202 4.51546 13.4701C4.37552 13.666 4.30555 13.764 4.28444 13.8689C4.26583 13.9614 4.27376 14.0572 4.30732 14.1454C4.34539 14.2454 4.43052 14.3305 4.60076 14.5008L5.4985 15.3985L5.49851 15.3985C5.66876 15.5688 5.75388 15.6539 5.85389 15.692C5.94205 15.7255 6.03791 15.7335 6.13039 15.7149C6.2353 15.6937 6.33326 15.6238 6.52918 15.4838C6.87966 15.2335 7.05491 15.1083 7.20348 15.0606C7.6693 14.9111 8.17494 15.1205 8.39857 15.5556ZM10 13C11.6569 13 13 11.6569 13 10C13 8.34315 11.6569 7 10 7C8.34315 7 7 8.34315 7 10C7 11.6569 8.34315 13 10 13Z" fill="#333333"/>
</svg>
