<svg width="20" height="20" viewBox="0 0 20 20" fill="none" xmlns="http://www.w3.org/2000/svg">
<path fill-rule="evenodd" clip-rule="evenodd" d="M15.033 2.27842C14.6617 1.90719 14.0599 1.90719 13.6886 2.27842L11.6722 4.29489C11.4852 4.48185 11.3924 4.72732 11.3938 4.97237C11.3095 4.96879 11.2245 4.9716 11.1394 4.98105L6.17257 5.53292C5.50628 5.60695 4.94954 6.07371 4.76037 6.71687L2.06977 15.8649C1.69825 17.1281 2.87188 18.3018 4.13506 17.9302L13.2831 15.2396C13.9263 15.0505 14.393 14.4937 14.467 13.8274L15.0189 8.86061C15.0284 8.77553 15.0312 8.69052 15.0276 8.60624C15.2727 8.60761 15.5181 8.51481 15.7051 8.32783L17.7216 6.31136C18.0928 5.94014 18.0928 5.33827 17.7216 4.96705L15.033 2.27842ZM11.2968 6.39819C11.3686 6.39022 11.4401 6.4153 11.4911 6.46634L13.5336 8.50886C13.5847 8.55991 13.6098 8.63139 13.6018 8.70315L13.0499 13.67C13.0393 13.7651 12.9727 13.8447 12.8808 13.8717L4.26706 16.4052L8.0177 12.6545C8.74674 13.0851 9.70148 12.9871 10.3279 12.3608C11.0703 11.6183 11.0703 10.4146 10.3279 9.67213C9.58542 8.92968 8.38168 8.92968 7.63924 9.67213C7.01284 10.2985 6.91493 11.2533 7.34553 11.9824L3.59479 15.7331L6.12829 7.11919C6.15531 7.02732 6.23485 6.96064 6.33003 6.95006L11.2968 6.39819Z" fill="#333333"/>
</svg>
