<svg width="20" height="20" viewBox="0 0 20 20" fill="none" xmlns="http://www.w3.org/2000/svg">
<path d="M9.7555 3.13811C9.90764 3.05261 10.0936 3.05258 10.2457 3.13811L17.2262 7.06487C17.3957 7.1606 17.4802 7.33048 17.4801 7.50041H17.4996V13.7504H15.9996V8.62444L15.2506 9.04631V13.2328C15.2505 13.6506 15.0416 14.0411 14.694 14.2729L10.694 16.9399C10.2743 17.2195 9.727 17.2194 9.30726 16.9399L5.30726 14.2729C4.95962 14.0411 4.75075 13.6506 4.75062 13.2328V9.04729L2.77503 7.93596C2.4356 7.74479 2.43573 7.25615 2.77503 7.06487L9.7555 3.13811ZM10.2457 11.8627L10.1871 11.891C10.0677 11.939 9.93354 11.9389 9.81409 11.891L9.7555 11.8627L6.25062 9.89104V13.099L10.0006 15.599L13.7506 13.099V9.89006L10.2457 11.8627ZM5.05921 7.49944L10.0006 10.2787L14.941 7.49944L10.0006 4.72112L5.05921 7.49944Z" fill="#333333"/>
</svg>
