<svg width="20" height="20" viewBox="0 0 20 20" fill="none" xmlns="http://www.w3.org/2000/svg">
<rect x="4" y="17" width="12" height="1.5" rx="0.75" fill="#333333"/>
<path d="M13 6C13 6.70487 12.7569 7.35296 12.35 7.86501C11.9151 8.41221 11.5 9.02907 11.5 9.72802V9.72802C11.5 10.734 12.2622 11.5762 13.2632 11.6763L14.699 11.8199C15.7214 11.9221 16.5 12.7825 16.5 13.81V14C16.5 14.5523 16.0523 15 15.5 15H4.5C3.94772 15 3.5 14.5523 3.5 14V13.81C3.5 12.7825 4.27859 11.9221 5.30099 11.8199L6.73681 11.6763C7.73775 11.5762 8.5 10.734 8.5 9.72802V9.72802C8.5 9.02907 8.08487 8.41221 7.65001 7.86501C7.24309 7.35296 7 6.70487 7 6C7 4.34315 8.34315 3 10 3C11.6569 3 13 4.34315 13 6Z" stroke="#333333" stroke-width="1.5"/>
</svg>
