<svg xmlns="http://www.w3.org/2000/svg" width="20" height="20" viewBox="0 0 20 20" fill="none">
    <path d="M5 17.75C5 17.3358 5.33579 17 5.75 17H14.5357C14.9499 17 15.2857 17.3358 15.2857 17.75C15.2857 18.1642 14.9499 18.5 14.5357 18.5H5.75C5.33579 18.5 5 18.1642 5 17.75Z" fill="#333333"/>
    <path fill-rule="evenodd" clip-rule="evenodd" d="M6.25 6C6.25 3.92893 7.92893 2.25 10 2.25C12.0711 2.25 13.75 3.92893 13.75 6C13.75 6.88034 13.4457 7.69168 12.9372 8.33163C12.501 8.88051 12.25 9.31411 12.25 9.72802C12.25 10.3486 12.7203 10.8683 13.3378 10.93L14.7736 11.0736C16.1794 11.2142 17.25 12.3972 17.25 13.81V14C17.25 14.9665 16.4665 15.75 15.5 15.75H4.5C3.5335 15.75 2.75 14.9665 2.75 14V13.81C2.75 12.3972 3.82056 11.2142 5.22637 11.0736L6.66219 10.93C7.27973 10.8683 7.75 10.3486 7.75 9.72802C7.75 9.31411 7.49903 8.88051 7.06284 8.33163C6.55428 7.69168 6.25 6.88034 6.25 6ZM10 3.75C8.75736 3.75 7.75 4.75736 7.75 6C7.75 6.5294 7.9319 7.01424 8.23718 7.39839C8.6707 7.94391 9.25 8.74404 9.25 9.72802C9.25 11.1193 8.19578 12.2842 6.81144 12.4226L5.37562 12.5662C4.73662 12.6301 4.25 13.1678 4.25 13.81V14C4.25 14.1381 4.36193 14.25 4.5 14.25H15.5C15.6381 14.25 15.75 14.1381 15.75 14V13.81C15.75 13.1678 15.2634 12.6301 14.6244 12.5662L13.1886 12.4226C11.8042 12.2842 10.75 11.1193 10.75 9.72802C10.75 8.74404 11.3293 7.94391 11.7628 7.39839C12.0681 7.01424 12.25 6.5294 12.25 6C12.25 4.75736 11.2426 3.75 10 3.75Z" fill="#333333"/>
</svg>