<svg width="24" height="24" viewBox="0 0 24 24" fill="none" xmlns="http://www.w3.org/2000/svg">
<path d="M13.3271 12.5977C13.5951 12.4193 13.9571 12.4919 14.1357 12.7598C14.3144 13.0278 14.2417 13.3897 13.9736 13.5684C12.3006 14.6836 10.5157 14.0274 9.82715 13.5684C9.55909 13.3897 9.48633 13.0278 9.66504 12.7598C9.84365 12.4919 10.2056 12.4193 10.4736 12.5977C10.9518 12.9164 12.2002 13.349 13.3271 12.5977Z" fill="#333333"/>
<path d="M9.56738 9C10.2116 9.00018 10.7334 9.52277 10.7334 10.167C10.7332 10.8111 10.2115 11.3328 9.56738 11.333C8.92316 11.333 8.40057 10.8112 8.40039 10.167C8.40039 9.52266 8.92305 9 9.56738 9Z" fill="#333333"/>
<path d="M14.2334 9C14.8777 9 15.4004 9.52266 15.4004 10.167C15.4002 10.8112 14.8776 11.333 14.2334 11.333C13.5893 11.3328 13.0676 10.8111 13.0674 10.167C13.0674 9.52277 13.5892 9.00018 14.2334 9Z" fill="#333333"/>
<path fill-rule="evenodd" clip-rule="evenodd" d="M12 2C17.5228 2 22 6.47715 22 12C22 17.5228 17.5228 22 12 22C6.47715 22 2 17.5228 2 12C2 6.47715 6.47715 2 12 2ZM12 4C7.58172 4 4 7.58172 4 12C4 16.4183 7.58172 20 12 20C16.4183 20 20 16.4183 20 12C20 7.58172 16.4183 4 12 4Z" fill="#333333"/>
</svg>
