<svg width="20" height="20" viewBox="0 0 20 20" fill="none" xmlns="http://www.w3.org/2000/svg">
<path d="M8.43082 3.48528C9.07275 2.18459 10.9276 2.1846 11.5695 3.48528L12.7912 5.96086C12.8276 6.03449 12.8983 6.08576 12.9797 6.09758L15.7111 6.49406C17.1465 6.70264 17.7195 8.46698 16.6808 9.47942L14.7043 11.4062C14.6454 11.4636 14.6181 11.5468 14.632 11.6279L15.0988 14.3486C15.3437 15.778 13.8435 16.8682 12.5597 16.1933L10.1164 14.9081C10.0437 14.87 9.95666 14.87 9.88395 14.9081L7.44059 16.1933C6.15682 16.8682 4.65658 15.778 4.90153 14.3486L5.36832 11.6279C5.38223 11.5468 5.35492 11.4636 5.29606 11.4062L3.3195 9.47942C2.28084 8.46698 2.85384 6.70264 4.28922 6.49406L7.02067 6.09758C7.10199 6.08576 7.17269 6.03449 7.20914 5.96086L8.43082 3.48528ZM10.2248 4.14836C10.133 3.96283 9.86731 3.96283 9.77555 4.14836L8.55387 6.62395C8.29896 7.14045 7.80648 7.49913 7.23649 7.58196L4.50504 7.97844C4.29999 8.00824 4.21799 8.26057 4.36637 8.4052L6.34293 10.332C6.75536 10.734 6.9432 11.3131 6.84586 11.8808L6.38004 14.6015C6.34502 14.8057 6.55894 14.9616 6.74235 14.8652L9.18571 13.581C9.69552 13.313 10.3048 13.313 10.8146 13.581L13.258 14.8652C13.4414 14.9616 13.6553 14.8057 13.6203 14.6015L13.1545 11.8808C13.0571 11.3131 13.245 10.734 13.6574 10.332L15.6339 8.4052C15.7823 8.26056 15.7003 8.00824 15.4953 7.97844L12.7638 7.58196C12.1938 7.49913 11.7014 7.14045 11.4464 6.62395L10.2248 4.14836Z" fill="#333333"/>
</svg>
