<svg width="20" height="20" viewBox="0 0 20 20" fill="none" xmlns="http://www.w3.org/2000/svg">
<path d="M14.8853 3.099L3.37519 8.93707C2.85883 9.22947 2.87968 9.97416 3.41162 10.2377L6.326 11.6817C6.51199 11.7739 6.73559 11.7415 6.88784 11.6004L12.0249 6.83976C12.1343 6.74409 12.3 6.74922 12.4031 6.85146C12.5084 6.95579 12.5113 7.12403 12.4097 7.2319L8.3427 12.3259C8.20123 12.5031 8.12418 12.7231 8.12418 12.9499V15.657C8.12418 16.1202 8.69954 16.3344 9.00244 15.984L10.7303 13.9852L14.2908 15.7997C14.7394 16.0284 15.2829 15.758 15.3658 15.2648L15.9893 3.86097C16.0925 3.24742 15.4303 2.79039 14.8853 3.099Z" fill="#333333"/>
</svg>
