<svg width="20" height="20" viewBox="0 0 20 20" fill="none" xmlns="http://www.w3.org/2000/svg">
<g id="shopl/ic-scan">
<path id="Rectangle 3537 (Stroke)" fill-rule="evenodd" clip-rule="evenodd" d="M2.25 4.25C2.25 2.73122 3.48122 1.5 5 1.5H8C8.41421 1.5 8.75 1.83579 8.75 2.25C8.75 2.66421 8.41421 3 8 3H5C4.30964 3 3.75 3.55964 3.75 4.25V6.25C3.75 6.66421 3.41421 7 3 7C2.58579 7 2.25 6.66421 2.25 6.25V4.25Z" fill="black"/>
<path id="Rectangle 3537 (Stroke)_2" fill-rule="evenodd" clip-rule="evenodd" d="M17.75 4.25C17.75 2.73122 16.5188 1.5 15 1.5H12C11.5858 1.5 11.25 1.83579 11.25 2.25C11.25 2.66421 11.5858 3 12 3H15C15.6904 3 16.25 3.55964 16.25 4.25V6.25C16.25 6.66421 16.5858 7 17 7C17.4142 7 17.75 6.66421 17.75 6.25V4.25Z" fill="black"/>
<path id="Rectangle 3537 (Stroke)_3" fill-rule="evenodd" clip-rule="evenodd" d="M2.25 14.75C2.25 16.2688 3.48122 17.5 5 17.5H8C8.41421 17.5 8.75 17.1642 8.75 16.75C8.75 16.3358 8.41421 16 8 16H5C4.30964 16 3.75 15.4404 3.75 14.75V12.75C3.75 12.3358 3.41421 12 3 12C2.58579 12 2.25 12.3358 2.25 12.75V14.75Z" fill="black"/>
<path id="Rectangle 3537 (Stroke)_4" fill-rule="evenodd" clip-rule="evenodd" d="M17.75 14.75C17.75 16.2688 16.5188 17.5 15 17.5H12C11.5858 17.5 11.25 17.1642 11.25 16.75C11.25 16.3358 11.5858 16 12 16H15C15.6904 16 16.25 15.4404 16.25 14.75V12.75C16.25 12.3358 16.5858 12 17 12C17.4142 12 17.75 12.3358 17.75 12.75V14.75Z" fill="black"/>
<path id="Line 461 (Stroke)" fill-rule="evenodd" clip-rule="evenodd" d="M1.75 9.5C1.75 9.08579 2.08579 8.75 2.5 8.75H17.5C17.9142 8.75 18.25 9.08579 18.25 9.5C18.25 9.91421 17.9142 10.25 17.5 10.25H2.5C2.08579 10.25 1.75 9.91421 1.75 9.5Z" fill="black"/>
</g>
</svg>
