<svg width="20" height="20" viewBox="0 0 20 20" fill="none" xmlns="http://www.w3.org/2000/svg">
<path d="M9.10326 3.81698C9.47008 3.07374 10.5299 3.07374 10.8967 3.81699L12.1185 6.29249C12.2641 6.58763 12.5457 6.7922 12.8714 6.83953L15.6033 7.2365C16.4235 7.35568 16.751 8.36365 16.1575 8.94219L14.1807 10.8691C13.945 11.0988 13.8375 11.4298 13.8931 11.7542L14.3598 14.4751C14.4999 15.292 13.6424 15.9149 12.9088 15.5293L10.4653 14.2446C10.174 14.0915 9.82598 14.0915 9.53466 14.2446L7.09119 15.5293C6.35756 15.9149 5.50013 15.292 5.64024 14.4751L6.1069 11.7542C6.16254 11.4298 6.05499 11.0988 5.81931 10.8691L3.8425 8.94219C3.24898 8.36365 3.57649 7.35568 4.39671 7.2365L7.12859 6.83953C7.4543 6.7922 7.73587 6.58763 7.88153 6.29249L9.10326 3.81698Z" stroke="#333333" stroke-width="1.5"/>
</svg>
