<svg width="20" height="20" viewBox="0 0 20 20" fill="none" xmlns="http://www.w3.org/2000/svg">
<path fill-rule="evenodd" clip-rule="evenodd" d="M10.3181 2.73487C10.3181 2.45872 10.5422 2.23319 10.8177 2.25099C12.3186 2.34793 13.7629 2.87997 14.9713 3.78731C16.3134 4.79497 17.2921 6.21106 17.7603 7.82269C18.2286 9.43431 18.161 11.1544 17.5677 12.7243C16.9745 14.2942 15.8877 15.6292 14.4707 16.5284C13.0537 17.4277 11.3831 17.8427 9.71 17.711C8.03691 17.5793 6.45177 16.9081 5.19289 15.7982C3.93401 14.6884 3.06941 13.1999 2.72908 11.5565C2.399 9.96257 2.57938 8.30653 3.24248 6.8228L2.15829 6.24633C1.81483 6.06371 1.8135 5.57201 2.15595 5.38755L5.34951 3.66735C5.65547 3.50254 6.03064 3.70202 6.0651 4.04784L6.4248 7.65734C6.46337 8.0444 6.05499 8.31824 5.71154 8.13562L4.61506 7.55262C4.11955 8.71441 3.99001 10.0018 4.24688 11.2421C4.51914 12.5569 5.21082 13.7477 6.21792 14.6356C7.22503 15.5234 8.49314 16.0604 9.83161 16.1658C11.1701 16.2711 12.5066 15.9391 13.6402 15.2197C14.7738 14.5003 15.6432 13.4323 16.1178 12.1764C16.5924 10.9205 16.6465 9.54442 16.2719 8.25512C15.8973 6.96582 15.1143 5.83295 14.0407 5.02682C13.1007 4.32107 11.9824 3.89914 10.8175 3.80501C10.5423 3.78277 10.3181 3.56101 10.3181 3.28487V2.73487ZM9.89859 9.7171C9.89859 9.8497 9.84591 9.97688 9.75215 10.0706L7.47182 12.351C7.27655 12.5462 7.27655 12.8628 7.47182 13.0581L7.82537 13.4116C8.02063 13.6069 8.33721 13.6069 8.53248 13.4116L11.2521 10.692C11.3459 10.5982 11.3986 10.471 11.3986 10.3384V6.73486C11.3986 6.45872 11.1747 6.23486 10.8986 6.23486H10.3986C10.1224 6.23486 9.89859 6.45872 9.89859 6.73486V9.7171Z" fill="#333333"/>
</svg>
