<svg width="20" height="20" viewBox="0 0 20 20" fill="none" xmlns="http://www.w3.org/2000/svg">
<g id="shopl/ic-staggered-working">
<path id="Union" fill-rule="evenodd" clip-rule="evenodd" d="M2.25 5C2.25 4.0335 3.0335 3.25 4 3.25H13C13.9665 3.25 14.75 4.0335 14.75 5V7C14.75 7.08488 14.744 7.16835 14.7323 7.25H17C17.9665 7.25 18.75 8.0335 18.75 9V11C18.75 11.9665 17.9665 12.75 17 12.75H16.7323C16.744 12.8317 16.75 12.9151 16.75 13V15C16.75 15.9665 15.9665 16.75 15 16.75H5C4.0335 16.75 3.25 15.9665 3.25 15V13C3.25 12.0335 4.0335 11.25 5 11.25H6.26772C6.25604 11.1683 6.25 11.0849 6.25 11V9C6.25 8.91512 6.25604 8.83165 6.26772 8.75H4C3.0335 8.75 2.25 7.9665 2.25 7V5ZM8 11.25H15H17C17.1381 11.25 17.25 11.1381 17.25 11V9C17.25 8.86193 17.1381 8.75 17 8.75H13H8C7.86193 8.75 7.75 8.86193 7.75 9V11C7.75 11.1381 7.86193 11.25 8 11.25ZM15 12.75H8H5C4.86193 12.75 4.75 12.8619 4.75 13V15C4.75 15.1381 4.86193 15.25 5 15.25H15C15.1381 15.25 15.25 15.1381 15.25 15V13C15.25 12.8619 15.1381 12.75 15 12.75ZM13.25 7C13.25 7.13807 13.1381 7.25 13 7.25H8H4C3.86193 7.25 3.75 7.13807 3.75 7V5C3.75 4.86193 3.86193 4.75 4 4.75H13C13.1381 4.75 13.25 4.86193 13.25 5V7Z" fill="#333333"/>
</g>
</svg>
