<svg width="24" height="24" viewBox="0 0 24 24" fill="none" xmlns="http://www.w3.org/2000/svg">
<path d="M4.28688 13.4907L4.84062 12.658L4.84062 12.658L4.28688 13.4907ZM4.05632 13.2185L4.96871 12.8092L4.96871 12.8092L4.05632 13.2185ZM4.05632 10.7814L4.96871 11.1907L4.96871 11.1907L4.05632 10.7814ZM4.28688 10.5092L3.73315 9.67653H3.73315L4.28688 10.5092ZM5.48989 7.59966L4.50954 7.79692L4.50954 7.79692L5.48989 7.59966ZM5.51931 7.24417L6.4539 7.5999L6.4539 7.5999L5.51931 7.24417ZM5.89659 6.78724L5.18948 6.08014L5.18948 6.08014L5.89659 6.78724ZM7.24259 5.52089L7.59832 6.45547L7.59833 6.45547L7.24259 5.52089ZM7.59809 5.49146L7.79534 4.51111L7.79534 4.51111L7.59809 5.49146ZM10.5088 4.28688L9.67613 3.73315L9.67612 3.73315L10.5088 4.28688ZM10.781 4.05632L10.3717 3.14392L10.3717 3.14392L10.781 4.05632ZM13.2181 4.05632L12.8088 4.96871V4.96871L13.2181 4.05632ZM13.4903 4.28688L14.323 3.73315L14.323 3.73315L13.4903 4.28688ZM16.3994 5.49302L16.5967 6.47337V6.47337L16.3994 5.49302ZM16.7549 5.52244L16.3992 6.45703V6.45703L16.7549 5.52244ZM17.2118 5.89973L17.9189 5.19262V5.19262L17.2118 5.89973ZM18.1009 6.7888L18.8818 6.1641L18.8472 6.12085L18.808 6.08169L18.1009 6.7888ZM18.1009 6.78881L17.32 7.4135L17.3546 7.45675L17.3938 7.49591L18.1009 6.78881ZM18.4782 7.24572L17.5436 7.60146L17.5436 7.60146L18.4782 7.24572ZM18.5076 7.60122L19.488 7.79848L19.488 7.79847L18.5076 7.60122ZM19.7131 10.5092L20.2669 9.67653L20.2668 9.67653L19.7131 10.5092ZM19.9437 10.7814L20.8561 10.3721L19.9437 10.7814ZM19.9437 13.2185L19.0313 12.8092V12.8092L19.9437 13.2185ZM19.7131 13.4907L20.2668 14.3234V14.3234L19.7131 13.4907ZM18.5067 16.3996L17.5263 16.5969L17.5263 16.5969L18.5067 16.3996ZM18.4773 16.7551L19.4119 17.1108L19.4119 17.1108L18.4773 16.7551ZM16.754 18.4784L16.3983 17.5438L16.3983 17.5438L16.754 18.4784ZM16.3985 18.5078L16.5958 17.5275L16.5957 17.5275L16.3985 18.5078ZM13.6428 19.1405L12.6564 18.9761V18.9761L13.6428 19.1405ZM13.4903 19.7131L14.323 20.2669L14.323 20.2668L13.4903 19.7131ZM13.2181 19.9437L13.6274 20.8561L13.6274 20.8561L13.2181 19.9437ZM10.781 19.9437L10.3717 20.8561L10.3717 20.8561L10.781 19.9437ZM10.5088 19.7131L9.67613 20.2668L9.67613 20.2669L10.5088 19.7131ZM7.59993 18.5094L7.40267 17.529L7.40267 17.529L7.59993 18.5094ZM7.24443 18.4799L6.88869 19.4145L6.88869 19.4145L7.24443 18.4799ZM6.7875 18.1027L6.0804 18.8098L6.0804 18.8098L6.7875 18.1027ZM5.89843 17.2136L5.19132 17.9207L5.19133 17.9207L5.89843 17.2136ZM5.52115 16.7567L4.58656 17.1124L4.58656 17.1124L5.52115 16.7567ZM5.49173 16.4012L6.47208 16.5984L6.47208 16.5984L5.49173 16.4012ZM15.5725 17.9973L16.0572 17.1226L15.5725 17.9973ZM13.6428 19.1405L14.6292 19.3049L13.6428 19.1405ZM13.7135 18.7674L14.6747 19.0431L13.7135 18.7674ZM13.6428 4.85947L12.6564 5.02387V5.02387L13.6428 4.85947ZM13.7139 5.2345L12.7527 5.51069L13.7139 5.2345ZM15.8867 5.79005L16.4679 6.60379V6.60379L15.8867 5.79005ZM15.5722 6.00427L15.0879 5.12938L15.5722 6.00427ZM19.1405 13.6432L18.9761 12.6568H18.9761L19.1405 13.6432ZM18.7655 13.7142L19.0416 14.6754L18.7655 13.7142ZM18.2097 15.8869L17.3959 16.4681L17.3959 16.4681L18.2097 15.8869ZM17.9957 15.5728L17.1209 16.0573L17.9957 15.5728ZM4.85948 13.6432L5.02387 12.6568H5.02387L4.85948 13.6432ZM5.23477 13.7144L5.51139 12.7534L5.23477 13.7144ZM5.78876 15.8884L4.97503 15.3072H4.97503L5.78876 15.8884ZM6.00426 15.5721L5.12915 15.0882L6.00426 15.5721ZM10.2022 11.0095L11.0449 11.5479L10.2022 11.0095ZM10.0301 11.425L9.05355 11.2098L10.0301 11.425ZM5.23114 10.2863L4.95559 9.325L5.23114 10.2863ZM5.78692 8.1124L6.60065 7.53116H6.60065L5.78692 8.1124ZM6.00132 8.42691L6.87589 7.94202L6.00132 8.42691ZM11.425 10.0301L11.2098 9.05355L11.425 10.0301ZM11.0095 10.2022L11.5479 11.0449L11.0095 10.2022ZM13.9699 11.429L14.9464 11.2137L13.9699 11.429ZM13.7978 11.0136L14.6406 10.4753L13.7978 11.0136ZM8.42736 6.00414L8.91131 5.12905L8.42736 6.00414ZM10.3563 4.85948L11.3427 5.02387V5.02387L10.3563 4.85948ZM10.2851 5.23462L11.2461 5.5112L10.2851 5.23462ZM8.11266 18.2123L7.53142 17.3986L7.53142 17.3986L8.11266 18.2123ZM8.42661 17.9984L8.9114 18.873L8.42661 17.9984ZM13.4141 10.5873L14.1213 9.88021L13.4141 10.5873ZM12.9847 10.2011L13.5218 9.35757L12.9847 10.2011ZM12.5729 10.0306L12.7897 9.05434L12.5729 10.0306ZM13.7978 12.9863L12.9551 12.448L13.7978 12.9863ZM13.9699 12.5709L12.9933 12.3557L13.9699 12.5709ZM12.5724 13.9695L12.7887 14.9459L12.5724 13.9695ZM13.4139 13.4128L14.121 14.1199L13.4139 13.4128ZM12.9851 13.7986L13.5225 14.6419L12.9851 13.7986ZM11.011 13.7981L10.4731 14.6411L11.011 13.7981ZM11.4254 13.9697L11.2097 14.9462L11.4254 13.9697ZM18.2106 8.11395L17.3969 7.53271V7.53271L18.2106 8.11395ZM17.9974 8.42682L18.872 8.91163L17.9974 8.42682ZM19.1405 10.3567L18.9761 11.3431H18.9761L19.1405 10.3567ZM18.7675 10.2861L18.4919 11.2473L18.7675 10.2861ZM10.2019 12.989L11.0449 12.451L10.2019 12.989ZM10.0303 12.5746L9.05381 12.7903L10.0303 12.5746ZM3.73315 14.3234C3.9247 14.4507 4.11525 14.5113 4.26332 14.5476C4.39918 14.5809 4.55723 14.6066 4.69508 14.6296L5.02387 12.6568C4.94544 12.6437 4.8865 12.6339 4.83615 12.6247C4.78586 12.6156 4.757 12.6094 4.73996 12.6052C4.70671 12.5971 4.76364 12.6068 4.84062 12.658L3.73315 14.3234ZM3.14392 13.6278C3.27078 13.9106 3.47506 14.1517 3.73315 14.3234L4.84062 12.658C4.89673 12.6953 4.94113 12.7477 4.96871 12.8092L3.14392 13.6278ZM3 12.6286C3 12.7684 2.99934 12.9285 3.00989 13.068C3.02138 13.22 3.04976 13.4179 3.14392 13.6278L4.96871 12.8092C5.00655 12.8935 5.00677 12.9513 5.00419 12.9171C5.00287 12.8996 5.00152 12.8702 5.00077 12.8191C5.00002 12.7679 5 12.7081 5 12.6286H3ZM3 11.3713V12.6286H5V11.3713H3ZM3.14392 10.3721C3.04976 10.582 3.02138 10.7799 3.00989 10.9319C2.99934 11.0714 3 11.2315 3 11.3713H5C5 11.2918 5.00002 11.232 5.00077 11.1808C5.00152 11.1297 5.00287 11.1002 5.00419 11.0827C5.00677 11.0486 5.00655 11.1064 4.96871 11.1907L3.14392 10.3721ZM3.73315 9.67653C3.47506 9.84816 3.27078 10.0893 3.14392 10.3721L4.96871 11.1907C4.94113 11.2522 4.89673 11.3046 4.84062 11.3419L3.73315 9.67653ZM4.69508 9.3703C4.55723 9.39328 4.39918 9.41895 4.26332 9.45229C4.11525 9.48862 3.9247 9.54915 3.73315 9.67653L4.84062 11.3419C4.76364 11.3931 4.70671 11.4028 4.73996 11.3947C4.757 11.3905 4.78586 11.3843 4.83615 11.3752C4.8865 11.366 4.94544 11.3562 5.02387 11.3431L4.69508 9.3703ZM4.50954 7.79692C4.55491 8.02244 4.64685 8.19997 4.72586 8.33037C4.79835 8.45001 4.89196 8.57992 4.97319 8.69363L6.60065 7.53116C6.55444 7.46646 6.51972 7.41782 6.49059 7.37574C6.46149 7.33372 6.44545 7.30894 6.43636 7.29393C6.41862 7.26466 6.452 7.31177 6.47024 7.40241L4.50954 7.79692ZM4.58472 6.88843C4.47447 7.1781 4.4484 7.49305 4.50954 7.79692L6.47024 7.40241C6.48353 7.46847 6.47786 7.53694 6.4539 7.5999L4.58472 6.88843ZM5.18948 6.08014C5.09067 6.17895 4.97698 6.2917 4.8858 6.3978C4.78643 6.51343 4.66656 6.67344 4.58472 6.88844L6.4539 7.5999C6.42101 7.68631 6.38033 7.7273 6.40264 7.70134C6.41408 7.68803 6.43397 7.66622 6.46958 7.62956C6.50523 7.59284 6.54748 7.55057 6.6037 7.49435L5.18948 6.08014ZM5.18949 6.08013L5.18948 6.08014L6.6037 7.49435L6.6037 7.49435L5.18949 6.08013ZM6.07856 5.19106L5.18949 6.08013L6.6037 7.49435L7.49277 6.60528L6.07856 5.19106ZM6.88686 4.5863C6.67186 4.66813 6.51186 4.78801 6.39622 4.88738C6.29013 4.97856 6.17737 5.09225 6.07856 5.19106L7.49277 6.60528C7.54899 6.54905 7.59127 6.50681 7.62798 6.47116C7.66465 6.43555 7.68645 6.41565 7.69976 6.40422C7.72572 6.38191 7.68473 6.42259 7.59832 6.45547L6.88686 4.5863ZM7.79534 4.51111C7.49148 4.44997 7.17653 4.47604 6.88686 4.5863L7.59833 6.45547C7.53536 6.47944 7.46689 6.48511 7.40083 6.47182L7.79534 4.51111ZM8.69206 4.97476C8.57834 4.89354 8.44843 4.79993 8.32879 4.72744C8.1984 4.64843 8.02086 4.55649 7.79534 4.51111L7.40083 6.47182C7.3102 6.45358 7.26308 6.42019 7.29236 6.43793C7.30736 6.44703 7.33214 6.46307 7.37416 6.49216C7.41624 6.5213 7.46488 6.55601 7.52958 6.60223L8.69206 4.97476ZM9.67612 3.73315C9.54874 3.9247 9.48822 4.11525 9.45188 4.26332C9.41854 4.39918 9.39287 4.55723 9.3699 4.69508L11.3427 5.02387C11.3558 4.94544 11.3656 4.8865 11.3748 4.83615C11.3839 4.78586 11.3901 4.757 11.3943 4.73996C11.4024 4.70671 11.3927 4.76363 11.3415 4.84062L9.67612 3.73315ZM10.3717 3.14392C10.0889 3.27078 9.84776 3.47506 9.67613 3.73315L11.3415 4.84062C11.3042 4.89673 11.2518 4.94113 11.1903 4.96871L10.3717 3.14392ZM11.3709 3C11.2311 3 11.071 2.99934 10.9315 3.00989C10.7795 3.02138 10.5816 3.04976 10.3717 3.14392L11.1903 4.96871C11.1059 5.00655 11.0482 5.00677 11.0823 5.00419C11.0998 5.00287 11.1293 5.00152 11.1804 5.00077C11.2316 5.00002 11.2914 5 11.3709 5V3ZM12.6282 3H11.3709V5H12.6282V3ZM13.6274 3.14392C13.4175 3.04976 13.2196 3.02138 13.0676 3.00989C12.9281 2.99934 12.768 3 12.6282 3V5C12.7077 5 12.7675 5.00002 12.8187 5.00077C12.8698 5.00152 12.8992 5.00287 12.9167 5.00419C12.9509 5.00677 12.8931 5.00655 12.8088 4.96871L13.6274 3.14392ZM14.323 3.73315C14.1513 3.47506 13.9102 3.27078 13.6274 3.14392L12.8088 4.96871C12.7473 4.94114 12.6949 4.89673 12.6576 4.84062L14.323 3.73315ZM14.6292 4.69508C14.6062 4.55723 14.5805 4.39918 14.5472 4.26332C14.5109 4.11525 14.4503 3.9247 14.323 3.73315L12.6576 4.84062C12.6064 4.76363 12.5967 4.70671 12.6048 4.73996C12.609 4.757 12.6152 4.78586 12.6243 4.83615C12.6335 4.8865 12.6433 4.94544 12.6564 5.02387L14.6292 4.69508ZM16.2022 4.51267C15.9766 4.55804 15.7991 4.64998 15.6687 4.72899C15.5491 4.80149 15.4192 4.89509 15.3054 4.97632L16.4679 6.60379C16.5326 6.55757 16.5813 6.52285 16.6233 6.49372C16.6654 6.46463 16.6901 6.44858 16.7051 6.43949C16.7344 6.42175 16.6873 6.45514 16.5967 6.47337L16.2022 4.51267ZM17.1107 4.58786C16.821 4.4776 16.506 4.45153 16.2022 4.51267L16.5967 6.47337C16.5306 6.48666 16.4621 6.481 16.3992 6.45703L17.1107 4.58786ZM17.9189 5.19262C17.8201 5.0938 17.7074 4.98011 17.6013 4.88894C17.4857 4.78957 17.3256 4.66969 17.1107 4.58786L16.3992 6.45703C16.3128 6.42414 16.2718 6.38346 16.2977 6.40577C16.3111 6.41721 16.3329 6.43711 16.3695 6.47271C16.4062 6.50837 16.4485 6.55061 16.5047 6.60683L17.9189 5.19262ZM18.808 6.08169L17.9189 5.19262L16.5047 6.60683L17.3938 7.4959L18.808 6.08169ZM18.8818 6.16411L18.8818 6.1641L17.32 7.41349L17.32 7.4135L18.8818 6.16411ZM19.4128 6.88999C19.3309 6.67499 19.2111 6.51499 19.1117 6.39936C19.0205 6.29326 18.9068 6.18051 18.808 6.0817L17.3938 7.49591C17.45 7.55213 17.4923 7.59441 17.5279 7.63112C17.5635 7.66779 17.5834 7.68959 17.5949 7.7029C17.6172 7.72886 17.5765 7.68787 17.5436 7.60146L19.4128 6.88999ZM19.488 7.79847C19.5491 7.49461 19.523 7.17966 19.4128 6.88999L17.5436 7.60146C17.5196 7.53849 17.514 7.47002 17.5273 7.40396L19.488 7.79847ZM19.0243 8.69519C19.1055 8.58148 19.1992 8.45157 19.2716 8.33192C19.3507 8.20153 19.4426 8.02399 19.488 7.79848L17.5273 7.40396C17.5455 7.31333 17.5789 7.26621 17.5611 7.29549C17.5521 7.3105 17.536 7.33527 17.5069 7.37729C17.4778 7.41937 17.4431 7.46801 17.3969 7.53271L19.0243 8.69519ZM20.2668 9.67653C20.0753 9.54915 19.8848 9.48862 19.7367 9.45229C19.6008 9.41895 19.4428 9.39328 19.3049 9.3703L18.9761 11.3431C19.0546 11.3562 19.1135 11.366 19.1639 11.3752C19.2141 11.3843 19.243 11.3905 19.26 11.3947C19.2933 11.4028 19.2364 11.3931 19.1594 11.3419L20.2668 9.67653ZM20.8561 10.3721C20.7292 10.0893 20.5249 9.84816 20.2669 9.67653L19.1594 11.3419C19.1033 11.3046 19.0589 11.2522 19.0313 11.1907L20.8561 10.3721ZM21 11.3713C21 11.2315 21.0007 11.0714 20.9901 10.9319C20.9786 10.7799 20.9502 10.582 20.8561 10.3721L19.0313 11.1907C18.9934 11.1064 18.9932 11.0486 18.9958 11.0827C18.9971 11.1002 18.9985 11.1297 18.9992 11.1808C19 11.232 19 11.2918 19 11.3713H21ZM21 12.6286V11.3713H19V12.6286H21ZM20.8561 13.6278C20.9502 13.4179 20.9786 13.22 20.9901 13.068C21.0007 12.9285 21 12.7684 21 12.6286H19C19 12.7081 19 12.7679 18.9992 12.8191C18.9985 12.8702 18.9971 12.8996 18.9958 12.9171C18.9932 12.9513 18.9934 12.8935 19.0313 12.8092L20.8561 13.6278ZM20.2668 14.3234C20.5249 14.1517 20.7292 13.9106 20.8561 13.6278L19.0313 12.8092C19.0589 12.7477 19.1033 12.6953 19.1594 12.658L20.2668 14.3234ZM19.3049 14.6296C19.4428 14.6066 19.6008 14.5809 19.7367 14.5476C19.8848 14.5113 20.0753 14.4507 20.2668 14.3234L19.1594 12.658C19.2364 12.6068 19.2933 12.5971 19.26 12.6052C19.243 12.6094 19.2141 12.6156 19.1639 12.6247C19.1135 12.6339 19.0546 12.6437 18.9761 12.6568L19.3049 14.6296ZM19.487 16.2024C19.4417 15.9768 19.3497 15.7993 19.2707 15.6689C19.1982 15.5493 19.1046 15.4194 19.0234 15.3056L17.3959 16.4681C17.4421 16.5328 17.4769 16.5815 17.506 16.6235C17.5351 16.6656 17.5511 16.6903 17.5602 16.7053C17.578 16.7346 17.5446 16.6875 17.5263 16.5969L19.487 16.2024ZM19.4119 17.1108C19.5221 16.8212 19.5482 16.5062 19.487 16.2024L17.5263 16.5969C17.5131 16.5308 17.5187 16.4623 17.5427 16.3994L19.4119 17.1108ZM18.8071 17.9191C18.9059 17.8203 19.0196 17.7076 19.1108 17.6015C19.2102 17.4858 19.33 17.3258 19.4119 17.1108L17.5427 16.3994C17.5756 16.313 17.6163 16.272 17.5939 16.2979C17.5825 16.3112 17.5626 16.3331 17.527 16.3697C17.4913 16.4064 17.4491 16.4487 17.3929 16.5049L18.8071 17.9191ZM17.918 18.8082L18.8071 17.9191L17.3929 16.5049L16.5038 17.394L17.918 18.8082ZM17.1097 19.413C17.3247 19.3311 17.4847 19.2113 17.6004 19.1119C17.7065 19.0207 17.8192 18.907 17.918 18.8082L16.5038 17.394C16.4476 17.4502 16.4053 17.4925 16.3686 17.5281C16.3319 17.5637 16.3101 17.5836 16.2968 17.5951C16.2709 17.6174 16.3118 17.5767 16.3983 17.5438L17.1097 19.413ZM16.2012 19.4882C16.5051 19.5493 16.8201 19.5232 17.1097 19.413L16.3983 17.5438C16.4612 17.5198 16.5297 17.5142 16.5958 17.5275L16.2012 19.4882ZM15.3045 19.0245C15.4182 19.1057 15.5482 19.1993 15.6678 19.2718C15.7982 19.3509 15.9757 19.4428 16.2012 19.4882L16.5957 17.5275C16.6864 17.5457 16.7335 17.5791 16.7042 17.5613C16.6892 17.5523 16.6644 17.5362 16.6224 17.5071C16.5803 17.478 16.5317 17.4433 16.467 17.397L15.3045 19.0245ZM14.6292 19.3049L14.6292 19.3049L12.6564 18.9761L12.6564 18.9761L14.6292 19.3049ZM14.323 20.2668C14.4503 20.0753 14.5109 19.8848 14.5472 19.7367C14.5805 19.6008 14.6062 19.4428 14.6292 19.3049L12.6564 18.9761C12.6433 19.0546 12.6335 19.1135 12.6243 19.1639C12.6152 19.2141 12.609 19.243 12.6048 19.26C12.5967 19.2933 12.6064 19.2364 12.6576 19.1594L14.323 20.2668ZM13.6274 20.8561C13.9102 20.7292 14.1513 20.5249 14.323 20.2669L12.6576 19.1594C12.6949 19.1033 12.7473 19.0589 12.8088 19.0313L13.6274 20.8561ZM12.6282 21C12.768 21 12.9281 21.0007 13.0676 20.9901C13.2196 20.9786 13.4175 20.9502 13.6274 20.8561L12.8088 19.0313C12.8931 18.9934 12.9509 18.9932 12.9167 18.9958C12.8992 18.9971 12.8698 18.9985 12.8187 18.9992C12.7675 19 12.7077 19 12.6282 19V21ZM11.3709 21H12.6282V19H11.3709V21ZM10.3717 20.8561C10.5816 20.9502 10.7795 20.9786 10.9315 20.9901C11.071 21.0007 11.2311 21 11.3709 21V19C11.2914 19 11.2316 19 11.1804 18.9992C11.1293 18.9985 11.0998 18.9971 11.0823 18.9958C11.0482 18.9932 11.106 18.9934 11.1903 19.0313L10.3717 20.8561ZM9.67613 20.2669C9.84776 20.5249 10.0889 20.7292 10.3717 20.8561L11.1903 19.0313C11.2518 19.0589 11.3042 19.1033 11.3415 19.1594L9.67613 20.2669ZM9.3699 19.3049C9.39287 19.4428 9.41854 19.6008 9.45188 19.7367C9.48822 19.8848 9.54875 20.0753 9.67613 20.2668L11.3415 19.1594C11.3927 19.2364 11.4024 19.2933 11.3943 19.26C11.3901 19.243 11.3839 19.2141 11.3748 19.1639C11.3656 19.1135 11.3558 19.0546 11.3427 18.9761L9.3699 19.3049ZM7.53142 17.3986C7.46672 17.4448 7.41808 17.4795 7.376 17.5087C7.33398 17.5378 7.3092 17.5538 7.2942 17.5629C7.26492 17.5806 7.31204 17.5473 7.40267 17.529L7.79718 19.4897C8.0227 19.4443 8.20024 19.3524 8.33063 19.2734C8.45027 19.2009 8.58018 19.1073 8.6939 19.0261L7.53142 17.3986ZM7.40267 17.529C7.46873 17.5157 7.53719 17.5214 7.60017 17.5454L6.88869 19.4145C7.17837 19.5248 7.49332 19.5509 7.79718 19.4897L7.40267 17.529ZM7.60017 17.5454C7.68658 17.5783 7.72756 17.6189 7.7016 17.5966C7.68829 17.5852 7.66649 17.5653 7.62982 17.5297C7.59311 17.494 7.55083 17.4518 7.49461 17.3956L6.0804 18.8098C6.17921 18.9086 6.29197 19.0223 6.39806 19.1135C6.51369 19.2128 6.6737 19.3327 6.88869 19.4145L7.60017 17.5454ZM7.49461 17.3956L6.60554 16.5065L5.19133 17.9207L6.0804 18.8098L7.49461 17.3956ZM6.60554 16.5065C6.54932 16.4503 6.50708 16.408 6.47142 16.3713C6.43581 16.3346 6.41592 16.3128 6.40448 16.2995C6.38217 16.2735 6.42285 16.3145 6.45573 16.4009L4.58656 17.1124C4.6684 17.3274 4.78827 17.4874 4.88764 17.603C4.97882 17.7091 5.09251 17.8219 5.19132 17.9207L6.60554 16.5065ZM6.45573 16.4009C6.4797 16.4639 6.48537 16.5324 6.47208 16.5984L4.51138 16.2039C4.45024 16.5078 4.4763 16.8227 4.58656 17.1124L6.45573 16.4009ZM6.47208 16.5984C6.45384 16.6891 6.42046 16.7362 6.4382 16.7069C6.44729 16.6919 6.46333 16.6671 6.49243 16.6251C6.52156 16.583 6.55628 16.5344 6.60249 16.4697L4.97503 15.3072C4.8938 15.4209 4.80019 15.5508 4.7277 15.6705C4.64869 15.8009 4.55675 15.9784 4.51138 16.2039L6.47208 16.5984ZM16.467 17.397C16.3281 17.2979 16.1851 17.1935 16.0572 17.1226L15.0878 18.872C15.0772 18.8661 15.0825 18.8681 15.124 18.8967C15.1647 18.9247 15.2186 18.9632 15.3045 19.0245L16.467 17.397ZM14.6292 19.3049C14.6466 19.2005 14.6575 19.135 14.6665 19.0863C14.6757 19.0366 14.6781 19.0314 14.6747 19.0431L12.7523 18.4916C12.7119 18.6321 12.6845 18.8074 12.6564 18.9761L14.6292 19.3049ZM16.0572 17.1226C14.7716 16.4103 13.1576 17.0788 12.7523 18.4916L14.6747 19.0431C14.7254 18.8665 14.9271 18.783 15.0878 18.872L16.0572 17.1226ZM12.6564 5.02387C12.6847 5.1935 12.7122 5.3696 12.7527 5.51069L14.675 4.95832C14.6783 4.97013 14.676 4.96492 14.6667 4.91485C14.6577 4.8659 14.6467 4.79999 14.6292 4.69508L12.6564 5.02387ZM15.3054 4.97632C15.2192 5.03791 15.1651 5.07652 15.1243 5.10461C15.0826 5.13329 15.0773 5.13528 15.0879 5.12938L16.0566 6.87917C16.185 6.80809 16.3285 6.70334 16.4679 6.60379L15.3054 4.97632ZM12.7527 5.51069C13.1584 6.92248 14.7714 7.59059 16.0566 6.87917L15.0879 5.12938C14.9273 5.21831 14.7257 5.13479 14.675 4.95832L12.7527 5.51069ZM18.9761 12.6568C18.8065 12.6851 18.6304 12.7126 18.4895 12.7531L19.0416 14.6754C19.0298 14.6788 19.035 14.6764 19.0851 14.6671C19.1341 14.6581 19.2 14.6471 19.3049 14.6296L18.9761 12.6568ZM19.0234 15.3056C18.9619 15.2195 18.9233 15.1655 18.8953 15.1247C18.8666 15.0831 18.8646 15.0777 18.8705 15.0884L17.1209 16.0573C17.1919 16.1855 17.2965 16.3289 17.3959 16.4681L19.0234 15.3056ZM18.4895 12.7531C17.0774 13.1587 16.4091 14.772 17.1209 16.0573L18.8705 15.0884C18.7816 14.9277 18.8651 14.7261 19.0416 14.6754L18.4895 12.7531ZM4.69508 14.6296C4.80002 14.6471 4.86584 14.6581 4.91475 14.6671C4.9647 14.6763 4.96991 14.6787 4.95815 14.6753L5.51139 12.7534C5.36979 12.7126 5.19349 12.6851 5.02387 12.6568L4.69508 14.6296ZM6.60249 16.4697C6.7027 16.3294 6.80807 16.185 6.87938 16.056L5.12915 15.0882C5.1351 15.0774 5.1331 15.0828 5.10419 15.1248C5.0759 15.1659 5.03701 15.2204 4.97503 15.3072L6.60249 16.4697ZM4.95815 14.6753C5.1345 14.7261 5.21795 14.9276 5.12915 15.0882L6.87938 16.056C7.5898 14.7713 6.92218 13.1595 5.51139 12.7534L4.95815 14.6753ZM9.87745 9.87745C9.70372 10.0512 9.50714 10.2401 9.35954 10.4711L11.0449 11.5479C11.0405 11.5548 11.0437 11.547 11.0811 11.5063C11.1242 11.4594 11.1837 11.3996 11.2917 11.2917L9.87745 9.87745ZM11 11.9991C11 11.8453 11.0002 11.7601 11.0029 11.6958C11.0052 11.6396 11.0086 11.6317 11.0067 11.6402L9.05355 11.2098C8.99452 11.4777 9 11.7518 9 11.9991H11ZM9.35954 10.4711C9.21493 10.6974 9.11135 10.9475 9.05355 11.2098L11.0067 11.6402C11.0139 11.6074 11.0269 11.5761 11.0449 11.5479L9.35954 10.4711ZM5.02387 11.3431C5.19184 11.3151 5.36642 11.2878 5.50668 11.2476L4.95559 9.325C4.96724 9.32166 4.96208 9.32401 4.91262 9.33314C4.86418 9.34208 4.79899 9.35298 4.69508 9.3703L5.02387 11.3431ZM4.97319 8.69363C5.03487 8.77999 5.07364 8.83432 5.10183 8.87527C5.13072 8.91723 5.13271 8.92257 5.12675 8.91181L6.87589 7.94202C6.80512 7.81437 6.7004 7.6708 6.60065 7.53116L4.97319 8.69363ZM5.50668 11.2476C6.91995 10.8425 7.58877 9.2278 6.87589 7.94202L5.12675 8.91181C5.21586 9.07253 5.13225 9.27437 4.95559 9.325L5.50668 11.2476ZM11.9969 9C11.7507 9 11.4776 8.99454 11.2098 9.05355L11.6402 11.0067C11.632 11.0085 11.6399 11.0052 11.6954 11.0029C11.7592 11.0002 11.8438 11 11.9969 11V9ZM11.2917 11.2917C11.3996 11.1837 11.4594 11.1242 11.5063 11.0811C11.547 11.0437 11.5548 11.0405 11.5479 11.0449L10.4711 9.35954C10.2401 9.50714 10.0512 9.70372 9.87745 9.87745L11.2917 11.2917ZM11.2098 9.05355C10.9475 9.11135 10.6974 9.21493 10.4711 9.35954L11.5479 11.0449C11.5761 11.0269 11.6074 11.0139 11.6402 11.0067L11.2098 9.05355ZM15 12C15 11.7542 15.0055 11.4815 14.9464 11.2137L12.9933 11.6442C12.9915 11.6362 12.9948 11.644 12.9971 11.6993C12.9998 11.7629 13 11.8472 13 12H15ZM12.707 11.2944C12.8155 11.4028 12.8753 11.463 12.9186 11.5101C12.9564 11.5512 12.9596 11.5591 12.9551 11.5519L14.6406 10.4753C14.4929 10.2441 14.2957 10.0546 14.1213 9.88021L12.707 11.2944ZM14.9464 11.2137C14.8886 10.9515 14.7851 10.7016 14.6406 10.4753L12.9551 11.5519C12.9731 11.5802 12.9861 11.6115 12.9933 11.6442L14.9464 11.2137ZM7.52958 6.60223C7.66999 6.70252 7.81449 6.80794 7.94341 6.87924L8.91131 5.12905C8.9221 5.13502 8.91672 5.13302 8.87463 5.10405C8.83348 5.07574 8.77891 5.0368 8.69206 4.97476L7.52958 6.60223ZM9.3699 4.69508C9.35242 4.79997 9.34141 4.86578 9.33238 4.91467C9.32316 4.9646 9.32077 4.9698 9.32416 4.95805L11.2461 5.5112C11.2869 5.36965 11.3144 5.19343 11.3427 5.02387L9.3699 4.69508ZM7.94341 6.87924C9.22818 7.58976 10.8401 6.92209 11.2461 5.5112L9.32416 4.95805C9.2734 5.13441 9.07191 5.21787 8.91131 5.12905L7.94341 6.87924ZM11.3427 18.9761C11.3147 18.808 11.2873 18.6332 11.2471 18.4928L9.32455 19.0441C9.32121 19.0325 9.32356 19.0376 9.3327 19.0872C9.34165 19.1356 9.35256 19.2009 9.3699 19.3049L11.3427 18.9761ZM8.6939 19.0261C8.78005 18.9645 8.83419 18.9259 8.87501 18.8978C8.91676 18.8691 8.92209 18.8671 8.9114 18.873L7.94182 17.1237C7.81404 17.1946 7.67071 17.2991 7.53142 17.3986L8.6939 19.0261ZM11.2471 18.4928C10.8419 17.0798 9.22748 16.4111 7.94182 17.1237L8.9114 18.873C9.0721 18.7839 9.2739 18.8675 9.32455 19.0441L11.2471 18.4928ZM14.1213 9.88021C13.9456 9.70459 13.7548 9.50594 13.5218 9.35757L12.4477 11.0447C12.4405 11.0401 12.4485 11.0434 12.4898 11.0814C12.5373 11.125 12.5979 11.1852 12.707 11.2944L14.1213 9.88021ZM11.9969 11C12.1511 11 12.2363 11.0002 12.3006 11.0029C12.3565 11.0053 12.3644 11.0086 12.3562 11.0068L12.7897 9.05434C12.52 8.99446 12.2449 9 11.9969 9V11ZM13.5218 9.35757C13.2973 9.21464 13.0495 9.11202 12.7897 9.05434L12.3562 11.0068C12.3887 11.014 12.4196 11.0268 12.4477 11.0447L13.5218 9.35757ZM14.121 14.1199C14.2955 13.9454 14.4929 13.7558 14.6406 13.5246L12.9551 12.448C12.9596 12.4408 12.9564 12.4487 12.9186 12.4898C12.8752 12.5371 12.8153 12.5972 12.7068 12.7057L14.121 14.1199ZM13 12C13 12.1527 12.9998 12.237 12.9971 12.3007C12.9948 12.3559 12.9915 12.3638 12.9933 12.3557L14.9464 12.7862C15.0055 12.5184 15 12.2457 15 12H13ZM14.6406 13.5246C14.7851 13.2984 14.8886 13.0484 14.9464 12.7862L12.9933 12.3557C12.9861 12.3885 12.9731 12.4197 12.9551 12.448L14.6406 13.5246ZM11.998 15C12.2453 15 12.5195 15.0055 12.7887 14.9459L12.356 12.9932C12.3642 12.9914 12.3563 12.9947 12.3006 12.9971C12.2366 12.9998 12.1517 13 11.998 13V15ZM12.7068 12.7057C12.5978 12.8148 12.5373 12.875 12.4898 12.9186C12.4485 12.9566 12.4405 12.9598 12.4477 12.9552L13.5225 14.6419C13.755 14.4937 13.9456 14.2954 14.121 14.1199L12.7068 12.7057ZM12.7887 14.9459C13.0492 14.8881 13.2975 14.7853 13.5225 14.6419L12.4477 12.9552C12.4196 12.9732 12.3886 12.986 12.356 12.9932L12.7887 14.9459ZM9.87795 14.122C10.0521 14.2962 10.2414 14.4933 10.4731 14.6411L11.549 12.9551C11.556 12.9596 11.5481 12.9563 11.5073 12.9189C11.4603 12.8757 11.4004 12.8161 11.2922 12.7078L9.87795 14.122ZM11.998 13C11.8448 13 11.7601 12.9998 11.6963 12.9971C11.6408 12.9948 11.6329 12.9915 11.6411 12.9933L11.2097 14.9462C11.478 15.0055 11.7515 15 11.998 15V13ZM10.4731 14.6411C10.6989 14.7852 10.9482 14.8884 11.2097 14.9462L11.6411 12.9933C11.6084 12.9861 11.5772 12.9731 11.549 12.9551L10.4731 14.6411ZM17.3969 7.53271C17.2978 7.6714 17.1936 7.81428 17.1228 7.94201L18.872 8.91163C18.8661 8.92223 18.8681 8.91692 18.8967 8.87545C18.9246 8.83484 18.963 8.78099 19.0243 8.69519L17.3969 7.53271ZM19.3049 9.3703C19.2006 9.35291 19.135 9.34195 19.0864 9.33297C19.0366 9.32378 19.0314 9.32142 19.0431 9.32479L18.4919 11.2473C18.6323 11.2876 18.8074 11.315 18.9761 11.3431L19.3049 9.3703ZM17.1228 7.94201C16.4101 9.2277 17.0788 10.8421 18.4919 11.2473L19.0431 9.32479C18.8665 9.27414 18.7829 9.07234 18.872 8.91163L17.1228 7.94201ZM11.2922 12.7078C11.1839 12.5996 11.1243 12.5397 11.0811 12.4927C11.0437 12.4519 11.0404 12.444 11.0449 12.451L9.35889 13.5269C9.50674 13.7586 9.7038 13.9479 9.87795 14.122L11.2922 12.7078ZM9 11.9991C9 12.2471 8.9945 12.5218 9.05381 12.7903L11.0067 12.3589C11.0086 12.3674 11.0053 12.3595 11.0029 12.3032C11.0002 12.2388 11 12.1533 11 11.9991H9ZM11.0449 12.451C11.0269 12.4228 11.0139 12.3916 11.0067 12.3589L9.05381 12.7903C9.11157 13.0518 9.21484 13.3011 9.35889 13.5269L11.0449 12.451Z" fill="#333333"/>
<circle cx="12.0008" cy="11.9999" r="2.42857" stroke="#333333" stroke-width="2"/>
</svg>
