<svg width="24" height="24" viewBox="0 0 24 24" fill="none" xmlns="http://www.w3.org/2000/svg">
<circle cx="12" cy="12" r="9" stroke="#333333" stroke-width="2"/>
<path d="M9.56657 11.3333C10.2109 11.3333 10.7332 10.811 10.7332 10.1667C10.7332 9.52233 10.2109 9 9.56657 9C8.92224 9 8.3999 9.52233 8.3999 10.1667C8.3999 10.811 8.92224 11.3333 9.56657 11.3333Z" fill="#333333"/>
<path d="M14.2332 11.3333C14.8776 11.3333 15.3999 10.811 15.3999 10.1667C15.3999 9.52233 14.8776 9 14.2332 9C13.5889 9 13.0666 9.52233 13.0666 10.1667C13.0666 10.811 13.5889 11.3333 14.2332 11.3333Z" fill="#333333"/>
<path d="M9.6646 12.7598C9.84331 12.4918 10.2055 12.4193 10.4735 12.598C10.9517 12.9168 12.1994 13.3493 13.3264 12.598C13.5944 12.4193 13.9566 12.4918 14.1353 12.7598C14.314 13.0279 14.2416 13.3901 13.9735 13.5688C12.3005 14.6841 10.5149 14.0278 9.82639 13.5688C9.55833 13.3901 9.4859 13.0279 9.6646 12.7598Z" fill="#333333"/>
</svg>
