<svg width="20" height="20" viewBox="0 0 20 20" fill="none" xmlns="http://www.w3.org/2000/svg">
<path fill-rule="evenodd" clip-rule="evenodd" d="M6.00098 3C5.72483 3 5.50098 3.22386 5.50098 3.5V13.3333H4.50091C4.08889 13.3333 3.85369 13.8036 4.10091 14.1333L6.10091 16.7999C6.30091 17.0666 6.70091 17.0666 6.90091 16.7999L8.90091 14.1333C9.14812 13.8036 8.91293 13.3333 8.50091 13.3333H7.50098V3.5C7.50098 3.22386 7.27712 3 7.00098 3H6.00098ZM14.1575 14.2502L13.5493 12.6315L12.9412 14.2502H14.1575ZM14.6641 15.5986L15.0725 16.6858C15.1199 16.812 15.2406 16.8956 15.3755 16.8956H15.9754C16.1972 16.8956 16.3533 16.6775 16.2817 16.4675L14.698 11.8221C14.3243 10.7261 12.7743 10.7261 12.4006 11.8221L10.8169 16.4675C10.7453 16.6775 10.9014 16.8956 11.1232 16.8956H11.7231C11.858 16.8956 11.9787 16.812 12.0261 16.6858L12.4346 15.5986H14.6641ZM11.391 3.00012C11.2166 3.00012 11.0752 3.14151 11.0752 3.31591V4.00012C11.0752 4.17452 11.2166 4.31591 11.391 4.31591H13.9675L11.3907 7.26072C10.959 7.75417 11.3094 8.52642 11.9651 8.52642H15.7594C15.9338 8.52642 16.0752 8.38504 16.0752 8.21063V7.52642C16.0752 7.35202 15.9338 7.21063 15.7594 7.21063H13.1829L15.7597 4.26582C16.1914 3.77238 15.841 3.00012 15.1853 3.00012H11.391Z" fill="#333333"/>
</svg>
