<svg width="24" height="24" viewBox="0 0 24 24" fill="none" xmlns="http://www.w3.org/2000/svg">
<path fill-rule="evenodd" clip-rule="evenodd" d="M20.0383 3.01233C20.3643 3.01171 20.6151 3.30022 20.5691 3.62296L19.9327 8.09211C19.868 8.54604 19.2998 8.71381 18.999 8.36778L17.7248 6.90193L12.8408 11.1474C12.3869 11.5419 11.6992 11.4938 11.3046 11.04L9.32484 8.76254L5.10028 12.4348C4.89187 12.616 4.57606 12.5939 4.3949 12.3855L3.62217 11.4966C3.441 11.2882 3.46308 10.9724 3.67149 10.7912L8.71786 6.40454C9.17174 6.01 9.85953 6.05809 10.2541 6.51196L12.2338 8.78938L16.296 5.2583L15.1214 3.90716C14.8206 3.56113 15.0658 3.02173 15.5243 3.02086L20.0383 3.01233ZM17 11.5C17 11.2239 17.2239 11 17.5 11H18.5C18.7761 11 19 11.2239 19 11.5V19.5C19 19.7761 18.7761 20 18.5 20H17.5C17.2239 20 17 19.7761 17 19.5V11.5ZM9 14.5C9 14.2239 9.22386 14 9.5 14H10.5C10.7761 14 11 14.2239 11 14.5V19.5C11 19.7761 10.7761 20 10.5 20H9.5C9.22386 20 9 19.7761 9 19.5V14.5ZM5.5 16C5.22386 16 5 16.2239 5 16.5V19.5C5 19.7761 5.22386 20 5.5 20H6.5C6.77614 20 7 19.7761 7 19.5V16.5C7 16.2239 6.77614 16 6.5 16H5.5ZM13 15.5C13 15.2239 13.2239 15 13.5 15H14.5C14.7761 15 15 15.2239 15 15.5V19.5C15 19.7761 14.7761 20 14.5 20H13.5C13.2239 20 13 19.7761 13 19.5V15.5Z" fill="#333333"/>
</svg>
