<svg width="20" height="20" viewBox="0 0 20 20" fill="none" xmlns="http://www.w3.org/2000/svg">
<path d="M11.75 14.5C11.8881 14.5 12 14.6119 12 14.75V15.75C12 15.8881 11.8881 16 11.75 16H2.25C2.11193 16 2 15.8881 2 15.75V14.75C2 14.6119 2.11193 14.5 2.25 14.5H11.75Z" fill="#333333"/>
<path d="M17.75 11.5C17.8881 11.5 18 11.6119 18 11.75V12.75C18 12.8881 17.8881 13 17.75 13H2.25C2.11193 13 2 12.8881 2 12.75V11.75C2 11.6119 2.11193 11.5 2.25 11.5H17.75Z" fill="#333333"/>
<path fill-rule="evenodd" clip-rule="evenodd" d="M17.5 4C17.7761 4 18 4.22386 18 4.5V9.5C18 9.74171 17.8286 9.94371 17.6006 9.99023L17.5 10H2.5L2.39941 9.99023C2.20392 9.95034 2.04966 9.79608 2.00977 9.60059L2 9.5V4.5C2 4.22386 2.22386 4 2.5 4H17.5ZM3.5 8.5H16.5V5.5H3.5V8.5Z" fill="#333333"/>
</svg>
