<svg width="20" height="20" viewBox="0 0 20 20" fill="none" xmlns="http://www.w3.org/2000/svg">
<path fill-rule="evenodd" clip-rule="evenodd" d="M9.6499 2.73487C9.6499 2.45872 9.4258 2.23319 9.15023 2.25099C7.64938 2.34793 6.20511 2.87997 4.99665 3.78731C3.65457 4.79497 2.67585 6.21106 2.20763 7.82269C1.73941 9.43431 1.80699 11.1544 2.40021 12.7243C2.99344 14.2942 4.08024 15.6292 5.49725 16.5284C6.91425 17.4277 8.58487 17.8427 10.258 17.711C11.9311 17.5793 13.5162 16.9081 14.7751 15.7982C16.034 14.6884 16.8986 13.1999 17.2389 11.5565C17.5689 9.96265 17.3886 8.30668 16.7256 6.82301L17.8102 6.24633C18.1536 6.06371 18.155 5.57201 17.8125 5.38755L14.6189 3.66735C14.313 3.50254 13.9378 3.70202 13.9033 4.04784L13.5436 7.65734C13.5051 8.0444 13.9135 8.31824 14.2569 8.13562L15.353 7.55283C15.8484 8.71457 15.9779 10.0019 15.7211 11.2421C15.4488 12.5569 14.7571 13.7477 13.75 14.6356C12.7429 15.5234 11.4748 16.0604 10.1364 16.1658C8.79788 16.2711 7.46138 15.9391 6.32778 15.2197C5.19418 14.5003 4.32473 13.4323 3.85015 12.1764C3.37557 10.9205 3.32151 9.54442 3.69608 8.25512C4.07066 6.96582 4.85363 5.83295 5.9273 5.02682C6.86727 4.32107 7.98558 3.89914 9.15044 3.80501C9.42568 3.78277 9.6499 3.56101 9.6499 3.28487V2.73487ZM9.56464 9.71711C9.56464 9.84971 9.51196 9.97689 9.41819 10.0707L7.13786 12.351C6.9426 12.5463 6.9426 12.8628 7.13786 13.0581L7.49142 13.4116C7.68668 13.6069 8.00326 13.6069 8.19852 13.4116L10.9182 10.692C11.012 10.5982 11.0646 10.471 11.0646 10.3384V6.73487C11.0646 6.45873 10.8408 6.23487 10.5646 6.23487H10.0646C9.7885 6.23487 9.56464 6.45873 9.56464 6.73487V9.71711Z" fill="#333333"/>
</svg>
