<svg width="20" height="20" viewBox="0 0 20 20" fill="none" xmlns="http://www.w3.org/2000/svg">
<path fill-rule="evenodd" clip-rule="evenodd" d="M3.34457 3.34444C6.47091 0.218519 11.5392 0.218519 14.6653 3.34444C17.5636 6.24356 17.7742 10.813 15.297 13.9545L18.7221 17.3795C19.0926 17.7502 19.0926 18.3513 18.7221 18.722C18.3509 19.0927 17.7504 19.0927 17.3799 18.722L13.9547 15.2969C10.8131 17.7748 6.2438 17.5642 3.34457 14.6651C0.218477 11.5392 0.218477 6.4707 3.34457 3.34444ZM13.2552 4.75865C10.9089 2.41256 7.10523 2.41256 4.7584 4.75865C2.4126 7.10461 2.4126 10.9084 4.7584 13.2547C7.10523 15.6009 10.9089 15.6009 13.2552 13.2547C15.6008 10.9084 15.6008 7.10461 13.2552 4.75865Z" fill="#333333"/>
</svg>
