<svg width="20" height="20" viewBox="0 0 20 20" fill="none" xmlns="http://www.w3.org/2000/svg">
<path d="M17.75 15C17.8881 15 18 15.1119 18 15.25V15.75C18 15.8881 17.8881 16 17.75 16H2.25C2.11193 16 2 15.8881 2 15.75V15.25C2 15.1119 2.11193 15 2.25 15H17.75ZM17.75 13C17.8881 13 18 13.1119 18 13.25V13.75C18 13.8881 17.8881 14 17.75 14H2.25C2.11193 14 2 13.8881 2 13.75V13.25C2 13.1119 2.11193 13 2.25 13H17.75ZM17.5 4C17.7761 4 18 4.22386 18 4.5V11.5C18 11.7417 17.8286 11.9437 17.6006 11.9902L17.5 12H2.5L2.39941 11.9902C2.17145 11.9437 2 11.7417 2 11.5V4.5C2 4.22386 2.22386 4 2.5 4H17.5ZM3.5 10.5H16.5V5.5H3.5V10.5ZM10 6.5C10.2321 6.5 10.3482 6.50027 10.4453 6.51562C10.9802 6.60034 11.3997 7.01982 11.4844 7.55469C11.4997 7.65182 11.5 7.7679 11.5 8C11.5 8.2321 11.4997 8.34819 11.4844 8.44531C11.3997 8.98018 10.9802 9.39966 10.4453 9.48438C10.3482 9.49973 10.2321 9.5 10 9.5C9.7679 9.5 9.65181 9.49973 9.55469 9.48438C9.01982 9.39966 8.60034 8.98018 8.51562 8.44531C8.50027 8.34819 8.5 8.2321 8.5 8C8.5 7.7679 8.50027 7.65182 8.51562 7.55469C8.60034 7.01982 9.01982 6.60034 9.55469 6.51562C9.65181 6.50027 9.7679 6.5 10 6.5ZM6 7.25C6.41421 7.25 6.75 7.58579 6.75 8C6.75 8.41421 6.41421 8.75 6 8.75C5.58579 8.75 5.25 8.41421 5.25 8C5.25 7.58579 5.58579 7.25 6 7.25ZM14 7.25C14.4142 7.25 14.75 7.58579 14.75 8C14.75 8.41421 14.4142 8.75 14 8.75C13.5858 8.75 13.25 8.41421 13.25 8C13.25 7.58579 13.5858 7.25 14 7.25Z" fill="#333333"/>
</svg>
