<svg width="24" height="24" viewBox="0 0 24 24" fill="none" xmlns="http://www.w3.org/2000/svg">
<path fill-rule="evenodd" clip-rule="evenodd" d="M15 4.5C15 4.22386 15.2239 4 15.5 4H16.5C16.7761 4 17 4.22386 17 4.5V5H18C19.6569 5 21 6.34315 21 8V17C21 18.6569 19.6569 20 18 20H6C4.34315 20 3 18.6569 3 17V8C3 6.34315 4.34315 5 6 5H7V4.5C7 4.22386 7.22386 4 7.5 4H8.5C8.77614 4 9 4.22386 9 4.5V5H15V4.5ZM6 7C5.44772 7 5 7.44772 5 8V9H19V8C19 7.44772 18.5523 7 18 7H6ZM5 17V11H19V17C19 17.5523 18.5523 18 18 18H6C5.44772 18 5 17.5523 5 17ZM8.5 13C8.22386 13 8 13.2239 8 13.5V14.5C8 14.7761 8.22386 15 8.5 15H15.5C15.7761 15 16 14.7761 16 14.5V13.5C16 13.2239 15.7761 13 15.5 13H8.5Z" fill="#333333"/>
</svg>
