<svg width="20" height="20" viewBox="0 0 20 20" fill="none" xmlns="http://www.w3.org/2000/svg">
<path fill-rule="evenodd" clip-rule="evenodd" d="M9.25273 2.92405C8.65689 2.5576 8.01596 2.54717 7.44017 2.82459C6.91291 3.07864 6.48635 3.54866 6.14951 4.06588C5.46958 5.10996 4.97257 6.62931 4.74542 8.16208C4.56612 9.37202 4.54413 10.6629 4.77423 11.8027C3.95911 12.6367 3.11812 13.3221 2.35258 13.7343C1.98788 13.9307 1.85142 14.3856 2.0478 14.7503C2.24418 15.115 2.69902 15.2514 3.06373 15.055C3.80425 14.6563 4.57306 14.0688 5.31926 13.3686C5.53293 13.7628 5.80547 14.1201 6.14953 14.4113C6.69839 14.876 7.38744 15.1363 8.19629 15.1447C9.40429 15.1571 10.4311 14.8019 11.2832 14.239C11.3214 14.2903 11.3614 14.3402 11.4035 14.3886C11.8132 14.86 12.3807 15.1447 13.0793 15.1447C14.2539 15.1447 15.0054 14.3835 15.4453 13.688C15.644 13.9635 15.8713 14.2325 16.1112 14.4637C16.3678 14.7107 16.6788 14.9536 17.0186 15.0904C17.4029 15.2451 17.8398 15.0591 17.9945 14.6748C18.1492 14.2906 17.9631 13.8537 17.5789 13.699C17.4933 13.6645 17.3439 13.5683 17.1518 13.3833C16.9683 13.2065 16.781 12.9828 16.6152 12.7445C16.4487 12.5054 16.3164 12.2696 16.2334 12.074C16.1849 11.9598 16.1645 11.8857 16.1554 11.8465C16.1571 11.8331 16.1586 11.8189 16.1598 11.8043L16.1599 11.8029C16.1615 11.7841 16.1675 11.7122 16.1567 11.6274L16.1565 11.6256C16.1542 11.6042 16.1351 11.4291 16.0073 11.2619C15.9213 11.1493 15.751 10.9982 15.4886 10.9707C15.2444 10.9451 15.0652 11.0429 14.9822 11.1004C14.8422 11.1973 14.7722 11.3187 14.7601 11.3397L14.759 11.3417C14.7353 11.382 14.7198 11.4168 14.7119 11.4354L14.6716 11.5298L14.6582 11.6316C14.6528 11.6723 14.6496 11.7132 14.6482 11.754C14.6418 11.7813 14.6336 11.8143 14.6232 11.8525C14.5688 12.0529 14.4703 12.3426 14.321 12.6342C13.9994 13.2625 13.5867 13.6447 13.0793 13.6447C12.8294 13.6447 12.67 13.5592 12.5356 13.4046C12.4995 13.3631 12.4642 13.315 12.43 13.2602C12.5847 13.0939 12.7306 12.9209 12.8676 12.7432C13.8956 11.4099 14.4696 9.76557 14.6551 8.46714C14.7695 7.66634 14.7276 6.95489 14.44 6.43906C14.2868 6.16443 14.0531 5.92944 13.7338 5.80747C13.417 5.68643 13.0948 5.70679 12.8166 5.79738C12.2861 5.97002 11.8357 6.41481 11.5 6.93897C11.1516 7.48309 10.8726 8.19385 10.723 9.03522C10.5129 10.2164 10.4283 11.6306 10.6742 12.7867L10.6832 12.828C9.99948 13.3432 9.18049 13.6547 8.21176 13.6447C7.73544 13.6398 7.38803 13.4945 7.11869 13.2665C6.84638 13.036 6.61514 12.6869 6.44127 12.2143C7.29207 11.2606 8.07292 10.201 8.69612 9.16683C9.40406 7.99199 9.95027 6.78269 10.1516 5.73087C10.3452 4.72004 10.2615 3.54445 9.25273 2.92405ZM7.41135 8.39264C7.02759 9.0295 6.58549 9.6666 6.11042 10.2727C6.09235 9.66936 6.13364 9.02691 6.22922 8.38197C6.43632 6.98447 6.881 5.69133 7.40647 4.88445C7.67234 4.4762 7.91442 4.26112 8.09126 4.17592C8.21956 4.1141 8.3182 4.11027 8.46693 4.20174C8.64081 4.30868 8.84041 4.60254 8.67839 5.44882C8.52422 6.2541 8.07606 7.28955 7.41135 8.39264ZM13.1702 8.25501C13.0377 9.18206 12.6605 10.3334 12.0251 11.3336C12.0145 10.6775 12.081 9.96604 12.1998 9.29788C12.3197 8.62403 12.535 8.10422 12.7632 7.74785C12.9249 7.4954 13.0719 7.35578 13.1717 7.28451C13.2121 7.44225 13.243 7.7452 13.1702 8.25501ZM4.75 17C4.33579 17 4 17.3358 4 17.75C4 18.1642 4.33579 18.5 4.75 18.5H16V18C16 17.4477 15.5523 17 15 17H4.75Z" fill="#333333"/>
</svg>
