<svg width="20" height="20" viewBox="0 0 20 20" fill="none" xmlns="http://www.w3.org/2000/svg">
<rect x="2" y="2" width="16" height="16" rx="3" fill="#EAF5FF"/>
<path d="M4.82795 9.19413C5.17112 9.46649 5.60314 9.60752 6.11205 9.61322C6.56611 9.61892 6.98675 9.48617 7.36096 9.21894C7.70738 8.95043 7.86913 8.62345 7.86913 8.19052C7.87608 7.77243 7.70916 7.43704 7.35874 7.16496C7.08152 6.95848 6.77369 6.85067 6.44398 6.84497C6.06607 6.83841 5.80895 6.80191 5.61393 6.63464C5.45085 6.5247 5.43326 6.31665 5.43326 6.23223C5.43976 6.11801 5.46475 5.97398 5.60285 5.86204C5.75129 5.73285 5.92398 5.67182 6.1153 5.68152C6.44738 5.69848 6.71544 5.8917 6.87113 6.22624H7.75676C7.73887 5.85149 7.58274 5.53093 7.29221 5.27297C6.98098 4.99662 6.5837 4.85645 6.11146 4.85645C5.67234 4.86215 5.28422 4.99419 4.95821 5.24873C4.63057 5.51083 4.46423 5.83994 4.46423 6.22695C4.46423 6.65403 4.62879 6.97887 4.95318 7.19262C5.2993 7.4205 5.63863 7.50948 5.86233 7.54398C5.92369 7.5534 5.98564 7.56053 6.04566 7.56751C6.29391 7.59618 6.52826 7.62313 6.74471 7.7961L6.75137 7.80223C6.87438 7.94083 6.92332 8.05135 6.92125 8.1851C6.91859 8.36078 6.86551 8.48741 6.749 8.59564C6.59819 8.73582 6.37183 8.81296 6.11146 8.81296C5.89722 8.81296 5.69629 8.74993 5.51399 8.62545C5.36613 8.52434 5.28274 8.37775 5.26574 8.18938H4.31934C4.33723 8.60277 4.50814 8.94087 4.82795 9.19455V9.19413Z" fill="#3299FE"/>
<path fill-rule="evenodd" clip-rule="evenodd" d="M6.0945 13.3768C6.7415 13.3768 7.266 12.8523 7.266 12.2053C7.266 11.5583 6.7415 11.0338 6.0945 11.0338C5.4475 11.0338 4.923 11.5583 4.923 12.2053C4.923 12.8523 5.4475 13.3768 6.0945 13.3768ZM6.0945 14.2998C7.25126 14.2998 8.189 13.3621 8.189 12.2053C8.189 11.0486 7.25126 10.1108 6.0945 10.1108C4.93774 10.1108 4 11.0486 4 12.2053C4 13.3621 4.93774 14.2998 6.0945 14.2998Z" fill="#3299FE"/>
<path d="M10.7109 10.1108C11.8675 10.1111 12.8047 11.049 12.8047 12.2056C12.8045 13.362 11.8673 14.2991 10.7109 14.2993C10.277 14.2993 9.8734 14.1678 9.53906 13.9419V15.7534H8.61621V12.2749H8.62012C8.61936 12.2518 8.61622 12.2288 8.61621 12.2056C8.61621 11.0488 9.55418 10.1108 10.7109 10.1108ZM10.7109 11.0337C10.0639 11.0337 9.53906 11.5586 9.53906 12.2056C9.53929 12.8524 10.0641 13.3765 10.7109 13.3765C11.3576 13.3762 11.8816 12.8522 11.8818 12.2056C11.8818 11.5587 11.3577 11.0339 10.7109 11.0337Z" fill="#3299FE"/>
<rect x="13.2314" y="9.64697" width="0.923001" height="4.68595" fill="#3299FE"/>
<path d="M9.53906 6.07861C9.81988 5.91181 10.1468 5.81405 10.4971 5.81396C11.5362 5.81396 12.3789 6.65669 12.3789 7.6958V9.61279H11.4561V7.6958C11.4561 7.16644 11.0264 6.73682 10.4971 6.73682C9.96792 6.73707 9.53906 7.1666 9.53906 7.6958V9.61377H8.61621V4.21729H9.53906V6.07861Z" fill="#3299FE"/>
<ellipse cx="15.4323" cy="13.7643" rx="0.568001" ry="0.567994" fill="#3299FE"/>
</svg>
