<svg width="24" height="24" viewBox="0 0 24 24" fill="none" xmlns="http://www.w3.org/2000/svg">
<path d="M4 6C4 4.89543 4.89543 4 6 4H18C19.1046 4 20 4.89543 20 6V11C20 12.1046 19.1046 13 18 13H6C4.89543 13 4 12.1046 4 11V6Z" stroke="#333333" stroke-width="2"/>
<path d="M7 8.18421L8.70184 9.83231C8.79848 9.9259 8.95184 9.92623 9.04889 9.83307L12 7" stroke="#333333" stroke-width="2" stroke-linecap="round"/>
<rect x="4" y="16" width="2" height="2" rx="0.5" fill="#333333"/>
<rect x="7" y="16" width="13" height="2" rx="0.5" fill="#333333"/>
<rect x="7" y="19" width="13" height="2" rx="0.5" fill="#333333"/>
<rect x="4" y="19" width="2" height="2" rx="0.5" fill="#333333"/>
</svg>
