<svg width="20" height="20" viewBox="0 0 20 20" fill="none" xmlns="http://www.w3.org/2000/svg">
<path d="M13.7139 6C13.8717 6 14 6.12834 14 6.28613V7.21387C14 7.37166 13.8717 7.5 13.7139 7.5H10.75V13.7139C10.75 13.8717 10.6217 14 10.4639 14H9.53613C9.37834 14 9.25 13.8717 9.25 13.7139V7.5H6.28613C6.12834 7.5 6 7.37166 6 7.21387V6.28613C6 6.12834 6.12834 6 6.28613 6H13.7139Z" fill="black"/>
<path fill-rule="evenodd" clip-rule="evenodd" d="M14 2C16.2091 2 18 3.79086 18 6V14C18 16.2091 16.2091 18 14 18H6C3.79086 18 2 16.2091 2 14V6C2 3.79086 3.79086 2 6 2H14ZM6 3.5C4.61929 3.5 3.5 4.61929 3.5 6V14C3.5 15.3807 4.61929 16.5 6 16.5H14C15.3807 16.5 16.5 15.3807 16.5 14V6C16.5 4.61929 15.3807 3.5 14 3.5H6Z" fill="black"/>
</svg>
