<svg width="20" height="20" viewBox="0 0 20 20" fill="none" xmlns="http://www.w3.org/2000/svg">
<path d="M9.00029 8.99967C9.27626 8.99987 9.49956 9.2239 9.49957 9.49991L9.50035 13.5004C9.50008 13.7763 9.276 13.9996 9.00011 13.9997L8.50025 14.0002C8.22411 14.0002 8 13.776 8 13.4998L8.00009 9.5004C8.00009 9.22442 8.22353 9.00031 8.49946 9.00006L9.00029 8.99967Z" fill="#333333"/>
<path d="M11.5003 9.00025C11.7761 9.00043 11.9994 9.22368 11.9996 9.49952L11.9994 13.4999C11.9994 13.776 11.7761 14.0002 11.5001 14.0003L11.0003 13.9998C10.7243 13.9998 10.5002 13.7763 10.5 13.5004L10.5002 9.50001C10.5002 9.224 10.7236 8.99988 10.9995 8.99966L11.5003 9.00025Z" fill="#333333"/>
<path fill-rule="evenodd" clip-rule="evenodd" d="M14.2812 6.00009C15.1901 6.00013 15.8903 6.80234 15.7676 7.70288L14.5409 16.703L14.5157 16.8398C14.3701 17.4681 13.8357 17.9337 13.1935 17.9931L13.0544 18.0001L6.94568 18.0002C6.24282 18 5.64089 17.5131 5.48472 16.8402L5.45888 16.7029L4.23274 7.70321C4.11759 6.85878 4.72534 6.09976 5.5509 6.00847L5.71876 5.9996L14.2812 6.00009ZM5.71915 7.50005L6.94529 16.4998L13.0549 16.4997L14.2808 7.49947L5.71915 7.50005Z" fill="#333333"/>
<path d="M11.6229 2.28389C11.8975 2.31276 12.0968 2.55879 12.0679 2.83342L12.0156 3.33068L15.4965 3.69653C15.7711 3.72539 15.9703 3.97143 15.9415 4.24606L15.8892 4.74332C15.8603 5.01795 15.6143 5.21718 15.3397 5.18831L4.39992 4.0385C4.1253 4.00963 3.92606 3.7636 3.95493 3.48897L4.00719 2.99171C4.03606 2.71708 4.28209 2.51785 4.55672 2.54672L8.03754 2.91257L8.08981 2.41531C8.11867 2.14068 8.3647 1.94144 8.63933 1.97031L11.6229 2.28389Z" fill="#333333"/>
</svg>
