<svg width="20" height="20" viewBox="0 0 20 20" fill="none" xmlns="http://www.w3.org/2000/svg">
<path fill-rule="evenodd" clip-rule="evenodd" d="M16.9987 4.20779L17 9.32348C17.0001 9.6435 16.873 9.95043 16.6467 10.1767L10.1767 16.6467C9.70565 17.1178 8.94191 17.1178 8.47085 16.6467L3.35329 11.5291C2.88224 11.0581 2.88224 10.2943 3.35329 9.82329L9.82329 3.35329C10.0496 3.12701 10.3565 2.99992 10.6765 3L15.7922 3.00127C16.4582 3.00203 16.998 3.54185 16.9987 4.20779ZM14.325 5.675C13.8694 5.21939 13.1307 5.21939 12.6751 5.675C12.2195 6.13061 12.2195 6.8693 12.6751 7.32491C13.1307 7.78053 13.8694 7.78053 14.325 7.32491C14.7807 6.8693 14.7807 6.13061 14.325 5.675Z" fill="#333333"/>
</svg>
