<svg width="20" height="20" viewBox="0 0 20 20" fill="none" xmlns="http://www.w3.org/2000/svg">
<path d="M10.25 5C10.5261 5 10.75 5.22386 10.75 5.5V9.25H14.5C14.7761 9.25 15 9.47386 15 9.75V10.25C15 10.5261 14.7761 10.75 14.5 10.75H9.5C9.36193 10.75 9.25 10.6381 9.25 10.5V5.5C9.25 5.22386 9.47386 5 9.75 5H10.25Z" fill="#333333"/>
<path fill-rule="evenodd" clip-rule="evenodd" d="M10 2C14.4183 2 18 5.58172 18 10C18 14.4183 14.4183 18 10 18C5.58172 18 2 14.4183 2 10C2 5.58172 5.58172 2 10 2ZM10 3.5C6.41015 3.5 3.5 6.41015 3.5 10C3.5 13.5899 6.41015 16.5 10 16.5C13.5899 16.5 16.5 13.5899 16.5 10C16.5 6.41015 13.5899 3.5 10 3.5Z" fill="#333333"/>
</svg>
