<svg width="20" height="20" viewBox="0 0 20 20" fill="none" xmlns="http://www.w3.org/2000/svg">
<path d="M7.5 14C7.77614 14 8.00582 14.2276 7.9375 14.4951C7.91402 14.587 7.88411 14.6776 7.84766 14.7656C7.74715 15.0082 7.59971 15.2284 7.41406 15.4141C7.22841 15.5997 7.00817 15.7471 6.76562 15.8477C6.52297 15.9482 6.26264 16 6 16C5.73736 16 5.47703 15.9482 5.23438 15.8477C4.99183 15.7471 4.77159 15.5997 4.58594 15.4141C4.40029 15.2284 4.25285 15.0082 4.15234 14.7656C4.11589 14.6776 4.08598 14.587 4.0625 14.4951C3.99418 14.2276 4.22386 14 4.5 14H7.5Z" fill="black"/>
<path d="M15.5 14C15.7761 14 16.0058 14.2276 15.9375 14.4951C15.914 14.587 15.8841 14.6776 15.8477 14.7656C15.7471 15.0082 15.5997 15.2284 15.4141 15.4141C15.2284 15.5997 15.0082 15.7471 14.7656 15.8477C14.523 15.9482 14.2626 16 14 16C13.7374 16 13.477 15.9482 13.2344 15.8477C12.9918 15.7471 12.7716 15.5997 12.5859 15.4141C12.4003 15.2284 12.2529 15.0082 12.1523 14.7656C12.1159 14.6776 12.086 14.587 12.0625 14.4951C11.9942 14.2276 12.2239 14 12.5 14H15.5Z" fill="black"/>
<path fill-rule="evenodd" clip-rule="evenodd" d="M12 4C12.5523 4 13 4.44772 13 5V5.5H14.9404L15.0635 5.50781C15.3484 5.54315 15.6068 5.70004 15.7695 5.94141L17.8291 8.99707C17.9403 9.16216 18 9.3566 18 9.55566V12C18 12.5177 17.6067 12.9438 17.1025 12.9951L17 13H3L2.89746 12.9951C2.42703 12.9472 2.05278 12.573 2.00488 12.1025L2 12V5C2 4.44772 2.44772 4 3 4H12ZM3.5 11.5H11.5V5.5H3.5V11.5ZM13 11.5H16.5V9.70801L14.6738 7H13V11.5Z" fill="black"/>
</svg>
