<svg width="20" height="20" viewBox="0 0 20 20" fill="none" xmlns="http://www.w3.org/2000/svg">
<path fill-rule="evenodd" clip-rule="evenodd" d="M14.9502 6.75C15.2449 6.75025 15.4752 7.00445 15.4473 7.29785L14.5859 16.3447C14.5371 16.8578 14.1062 17.2498 13.5908 17.25H6.40918C5.8938 17.2498 5.46195 16.8578 5.41309 16.3447L4.55176 7.29785C4.52384 7.00446 4.75514 6.75023 5.0498 6.75H14.9502ZM8 10C7.86211 10.0002 7.75 10.1121 7.75 10.25V13.75C7.75 13.8879 7.86211 13.9998 8 14H9C9.13787 13.9998 9.25 13.8879 9.25 13.75V10.25C9.25 10.1121 9.13787 10.0002 9 10H8ZM11 10C10.8621 10.0002 10.75 10.1121 10.75 10.25V13.75C10.75 13.8879 10.8621 13.9998 11 14H12C12.1379 13.9998 12.25 13.888 12.25 13.75V10.25C12.25 10.112 12.1379 10.0002 12 10H11Z" fill="#333333"/>
<path d="M11.5 2.75C11.7761 2.75 12 2.97386 12 3.25V3.75H15.5C15.7761 3.75 16 3.97386 16 4.25V4.75C16 5.02614 15.7761 5.25 15.5 5.25H4.5C4.22386 5.25 4 5.02614 4 4.75V4.25C4 3.97386 4.22386 3.75 4.5 3.75H8V3.25C8 2.97386 8.22386 2.75 8.5 2.75H11.5Z" fill="#333333"/>
</svg>
