<svg width="20" height="20" viewBox="0 0 20 20" fill="none" xmlns="http://www.w3.org/2000/svg">
<path d="M17.5 14C17.7761 14 18 14.2239 18 14.5V15.5C18 15.7761 17.7761 16 17.5 16H6.5C6.22386 16 6 15.7761 6 15.5V14.5C6 14.2239 6.22386 14 6.5 14H17.5Z" fill="#333333"/>
<path d="M13.5 9C13.7761 9 14 9.22386 14 9.5V10.5C14 10.7761 13.7761 11 13.5 11H2.5C2.22386 11 2 10.7761 2 10.5V9.5C2 9.22386 2.22386 9 2.5 9H13.5Z" fill="#333333"/>
<path d="M17.5 4C17.7761 4 18 4.22386 18 4.5V5.5C18 5.77614 17.7761 6 17.5 6H6.5C6.22386 6 6 5.77614 6 5.5V4.5C6 4.22386 6.22386 4 6.5 4H17.5Z" fill="#333333"/>
</svg>
