<svg width="24" height="24" viewBox="0 0 24 24" fill="none" xmlns="http://www.w3.org/2000/svg">
<path fill-rule="evenodd" clip-rule="evenodd" d="M4 7.5C4 5.01472 6.01472 3 8.5 3H15.5C17.9853 3 20 5.01472 20 7.5C20 9.98528 17.9853 12 15.5 12H8.5C6.01472 12 4 9.98528 4 7.5ZM8.5 5C7.11929 5 6 6.11929 6 7.5C6 8.88071 7.11929 10 8.5 10H15.5C16.8807 10 18 8.88071 18 7.5C18 6.11929 16.8807 5 15.5 5H8.5ZM17 7.50024C17 8.32867 16.3284 9.00024 15.5 9.00024C14.6716 9.00024 14 8.32867 14 7.50024C14 6.67182 14.6716 6.00024 15.5 6.00024C16.3284 6.00024 17 6.67182 17 7.50024ZM4 17.5C4 15.0147 6.01472 13 8.5 13H15.5C17.9853 13 20 15.0147 20 17.5C20 19.9853 17.9853 22 15.5 22H8.5C6.01472 22 4 19.9853 4 17.5ZM8.5 15C7.11929 15 6 16.1193 6 17.5C6 18.8807 7.11929 20 8.5 20H15.5C16.8807 20 18 18.8807 18 17.5C18 16.1193 16.8807 15 15.5 15H8.5ZM10 17.5C10 18.3284 9.32843 19 8.5 19C7.67157 19 7 18.3284 7 17.5C7 16.6716 7.67157 16 8.5 16C9.32843 16 10 16.6716 10 17.5Z" fill="#333333"/>
</svg>
