<svg width="24" height="24" viewBox="0 0 24 24" fill="none" xmlns="http://www.w3.org/2000/svg">
<path d="M5.5 19C5.77614 19 6 19.2239 6 19.5V20.5C6 20.7761 5.77614 21 5.5 21H4.5C4.22386 21 4 20.7761 4 20.5V19.5C4 19.2239 4.22386 19 4.5 19H5.5Z" fill="#333333"/>
<path d="M19.5 19C19.7761 19 20 19.2239 20 19.5V20.5C20 20.7761 19.7761 21 19.5 21H7.5C7.22386 21 7 20.7761 7 20.5V19.5C7 19.2239 7.22386 19 7.5 19H19.5Z" fill="#333333"/>
<path d="M5.5 16C5.77614 16 6 16.2239 6 16.5V17.5C6 17.7761 5.77614 18 5.5 18H4.5C4.22386 18 4 17.7761 4 17.5V16.5C4 16.2239 4.22386 16 4.5 16H5.5Z" fill="#333333"/>
<path d="M19.5 16C19.7761 16 20 16.2239 20 16.5V17.5C20 17.7761 19.7761 18 19.5 18H7.5C7.22386 18 7 17.7761 7 17.5V16.5C7 16.2239 7.22386 16 7.5 16H19.5Z" fill="#333333"/>
<path d="M11.3076 6.27832C11.706 5.89606 12.3393 5.90928 12.7217 6.30762C13.1039 6.70604 13.0907 7.33928 12.6924 7.72168L9.74121 10.5547C9.25598 11.0203 8.48897 11.0186 8.00586 10.5508L6.30469 8.90234C5.90797 8.51816 5.89712 7.88503 6.28125 7.48828C6.6654 7.09161 7.29856 7.08181 7.69531 7.46582L8.87695 8.61035L11.3076 6.27832Z" fill="#333333"/>
<path fill-rule="evenodd" clip-rule="evenodd" d="M18 3C19.6569 3 21 4.34315 21 6V11C21 12.6569 19.6569 14 18 14H6C4.34315 14 3 12.6569 3 11V6C3 4.34315 4.34315 3 6 3H18ZM6 5C5.44772 5 5 5.44772 5 6V11C5 11.5523 5.44772 12 6 12H18C18.5523 12 19 11.5523 19 11V6C19 5.44772 18.5523 5 18 5H6Z" fill="#333333"/>
</svg>
