<svg width="20" height="20" viewBox="0 0 20 20" fill="none" xmlns="http://www.w3.org/2000/svg">
<path d="M4 3.5C4 3.22386 4.22386 3 4.5 3H15.5C15.7761 3 16 3.22386 16 3.5V6.15C16 6.3433 15.8433 6.5 15.65 6.5C15.5005 6.5 15.3674 6.40498 15.3189 6.26351L14.9158 5.08784C14.8465 4.88574 14.6565 4.75 14.4429 4.75H11.7C11.4239 4.75 11.2 4.97386 11.2 5.25V13.56C11.2 14.3553 11.8447 15 12.64 15C12.8388 15 13 15.1612 13 15.36V15.5C13 15.7761 12.7761 16 12.5 16H7.5C7.22386 16 7 15.7761 7 15.5V15.36C7 15.1612 7.16118 15 7.36 15C8.15529 15 8.8 14.3553 8.8 13.56V5.25C8.8 4.97386 8.57614 4.75 8.3 4.75H5.55714C5.3435 4.75 5.15346 4.88574 5.08417 5.08784L4.68108 6.26351C4.63258 6.40498 4.49955 6.5 4.35 6.5C4.1567 6.5 4 6.3433 4 6.15V3.5Z" fill="#333333"/>
</svg>
