<svg width="24" height="24" viewBox="0 0 24 24" fill="none" xmlns="http://www.w3.org/2000/svg">
<path fill-rule="evenodd" clip-rule="evenodd" d="M18.9773 6.31499C18.6118 5.86698 18.204 5.45483 17.7601 5.08463L16.3384 6.50637C16.7924 6.86541 17.2009 7.27952 17.5537 7.73864L18.9773 6.31499ZM18.3481 9.04635L19.8317 7.56265C20.5754 8.87223 21 10.3866 21 12.0002C21 16.9708 16.9706 21.0002 12 21.0002C7.02944 21.0002 3 16.9708 3 12.0002C3 7.02968 7.02944 3.00024 12 3.00024C13.6493 3.00024 15.195 3.4439 16.5243 4.21837L15.0465 5.69618C14.1255 5.25026 13.0919 5.00024 12 5.00024C8.13401 5.00024 5 8.13425 5 12.0002C5 15.8662 8.13401 19.0002 12 19.0002C15.866 19.0002 19 15.8662 19 12.0002C19 10.9448 18.7664 9.94383 18.3481 9.04635ZM16.1224 9.16998C15.7931 8.6912 15.3825 8.27265 14.9105 7.93422L13.4638 9.38099C13.9768 9.66829 14.3967 10.1019 14.6671 10.6253L16.1224 9.16998ZM14.9703 12.4242L16.7997 10.5947C16.9301 11.0406 17 11.5122 17 12.0002C17 14.7617 14.7614 17.0002 12 17.0002C9.23858 17.0002 7 14.7617 7 12.0002C7 9.23882 9.23858 7.00024 12 7.00024C12.5264 7.00024 13.0338 7.08159 13.5103 7.2324L11.7306 9.01218C10.2 9.14841 9 10.4342 9 12.0002C9 13.6571 10.3431 15.0002 12 15.0002C13.5129 15.0002 14.7643 13.8803 14.9703 12.4242Z" fill="#333333"/>
<path fill-rule="evenodd" clip-rule="evenodd" d="M18.7058 3.09403C18.6542 3.14564 18.6318 3.21964 18.6461 3.29122L18.7899 4.01015L11.4174 11.3826C11.0764 11.7236 11.0764 12.2766 11.4174 12.6176C11.7585 12.9587 12.3114 12.9587 12.6524 12.6176L19.8684 5.40171L20.9787 5.62377C21.0503 5.63808 21.1243 5.61568 21.1759 5.56406L22.5024 4.23754C22.6141 4.12582 22.5739 3.93611 22.4264 3.87939L21.0466 3.3487C20.9889 3.32653 20.9434 3.28096 20.9212 3.22331L20.3905 1.84351C20.3338 1.69605 20.1441 1.65579 20.0324 1.76751L18.7058 3.09403Z" fill="#333333"/>
</svg>
