<svg width="20" height="20" viewBox="0 0 20 20" fill="none" xmlns="http://www.w3.org/2000/svg">
<path d="M12.9257 2.74919C13.1052 2.49777 13.4676 2.46778 13.6861 2.68626L17.0679 6.0681C17.2864 6.28657 17.2564 6.64893 17.005 6.82852L12.9106 9.75306C12.7117 9.89512 12.4393 9.87257 12.2665 9.69974L10.0544 7.48772C9.88159 7.31489 9.85905 7.04244 10.0011 6.84355L12.9257 2.74919Z" fill="#333333"/>
<path d="M6.35731 7.13012C7.12729 6.74513 8.05723 6.89604 8.66595 7.50476L12.2494 11.0882C12.8581 11.6969 13.009 12.6269 12.624 13.3969L12.1734 14.2981C12.0208 14.6033 11.614 14.6694 11.3727 14.428L8.70078 11.7561L4.83561 15.6213C4.64155 15.8154 4.32691 15.8154 4.13285 15.6213C3.93879 15.4273 3.93879 15.1126 4.13285 14.9186L7.99802 11.0534L5.32614 8.3815C5.08482 8.14018 5.15084 7.73336 5.45608 7.58073L6.35731 7.13012Z" fill="#333333"/>
</svg>
