<svg width="24" height="24" viewBox="0 0 24 24" fill="none" xmlns="http://www.w3.org/2000/svg">
<path fill-rule="evenodd" clip-rule="evenodd" d="M18.6461 3.29122C18.6318 3.21964 18.6542 3.14564 18.7058 3.09403L20.0324 1.76751C20.1441 1.65579 20.3338 1.69605 20.3905 1.84351L20.9212 3.22331C20.9434 3.28096 20.9889 3.32653 21.0466 3.3487L22.4264 3.8794C22.5739 3.93611 22.6141 4.12583 22.5024 4.23754L21.1759 5.56406C21.1243 5.61568 21.0503 5.63808 20.9787 5.62377L19.8684 5.40171L18.9673 6.30277C18.9707 6.30684 18.974 6.31092 18.9773 6.31499L17.5537 7.73864C17.5505 7.73445 17.5473 7.73025 17.544 7.72607L16.1133 9.15678C16.1163 9.16117 16.1194 9.16557 16.1224 9.16998L14.6671 10.6253C14.6646 10.6204 14.662 10.6155 14.6594 10.6106L12.6524 12.6176C12.3114 12.9587 11.7585 12.9587 11.4174 12.6176C11.0764 12.2766 11.0764 11.7236 11.4174 11.3826L18.7899 4.01015L18.6461 3.29122ZM19.8317 7.56265L18.3481 9.04635C18.7664 9.94383 19 10.9448 19 12.0002C19 15.8662 15.866 19.0002 12 19.0002C8.13401 19.0002 5 15.8662 5 12.0002C5 8.13425 8.13401 5.00025 12 5.00025C13.0919 5.00025 14.1255 5.25027 15.0465 5.69618L16.5243 4.21837C15.195 3.4439 13.6493 3.00025 12 3.00025C7.02944 3.00025 3 7.02968 3 12.0002C3 16.9708 7.02944 21.0002 12 21.0002C16.9706 21.0002 21 16.9708 21 12.0002C21 10.3866 20.5754 8.87223 19.8317 7.56265ZM16.7997 10.5947L14.9703 12.4242C14.7643 13.8803 13.5129 15.0002 12 15.0002C10.3431 15.0002 9 13.6571 9 12.0002C9 10.4342 10.2 9.14841 11.7306 9.01218L13.5103 7.2324C13.0338 7.08159 12.5264 7.00025 12 7.00025C9.23858 7.00025 7 9.23882 7 12.0002C7 14.7617 9.23858 17.0002 12 17.0002C14.7614 17.0002 17 14.7617 17 12.0002C17 11.5123 16.9301 11.0406 16.7997 10.5947Z" fill="#333333"/>
</svg>
