<svg width="24" height="24" viewBox="0 0 24 24" fill="none" xmlns="http://www.w3.org/2000/svg">
<path fill-rule="evenodd" clip-rule="evenodd" d="M3 6C3 4.34315 4.34315 3 6 3H18C19.6569 3 21 4.34315 21 6V11C21 12.6569 19.6569 14 18 14H6C4.34315 14 3 12.6569 3 11V6ZM6 5C5.44772 5 5 5.44772 5 6V11C5 11.5523 5.44772 12 6 12H18C18.5523 12 19 11.5523 19 11V6C19 5.44772 18.5523 5 18 5H6Z" fill="#333333"/>
<path d="M7 8.18421L8.70184 9.83231C8.79848 9.9259 8.95184 9.92623 9.04889 9.83307L12 7" stroke="#333333" stroke-width="2" stroke-linecap="round"/>
<rect x="4" y="16" width="2" height="2" rx="0.5" fill="#333333"/>
<rect x="7" y="16" width="13" height="2" rx="0.5" fill="#333333"/>
<rect x="7" y="19" width="13" height="2" rx="0.5" fill="#333333"/>
<rect x="4" y="19" width="2" height="2" rx="0.5" fill="#333333"/>
</svg>
