<svg width="20" height="20" viewBox="0 0 20 20" fill="none" xmlns="http://www.w3.org/2000/svg">
<path fill-rule="evenodd" clip-rule="evenodd" d="M8 3C7.44772 3 7 3.44772 7 4V5H5C4.44772 5 4 5.44772 4 6C4 6.55228 4.44772 7 5 7H15C15.5523 7 16 6.55228 16 6C16 5.44772 15.5523 5 15 5H13V4C13 3.44772 12.5523 3 12 3H8ZM11 5H9V4H11V5ZM5.2 8C5.08954 8 5 8.06512 5 8.14545V14C5 14.6025 5 16 6.5 16H13.5C15 16 15 14.6025 15 14V8.14545C15 8.06512 14.9105 8 14.8 8H5.2ZM8.8 14C8.91046 14 9 13.9105 9 13.8V9.2C9 9.08954 8.91046 9 8.8 9H8.2C8.08954 9 8 9.08954 8 9.2V13.8C8 13.9105 8.08954 14 8.2 14H8.8ZM12 13.8C12 13.9105 11.9105 14 11.8 14H11.2C11.0895 14 11 13.9105 11 13.8V9.2C11 9.08954 11.0895 9 11.2 9H11.8C11.9105 9 12 9.08954 12 9.2V13.8Z" fill="#333333"/>
</svg>
