<svg width="20" height="20" viewBox="0 0 20 20" fill="none" xmlns="http://www.w3.org/2000/svg">
<rect x="2.75" y="4.75" width="14.5" height="10.5" rx="2.25" stroke="#333333" stroke-width="1.5"/>
<path d="M13.4507 12.25C12.4255 12.25 11.6936 11.6784 11.6846 10.871H12.8459C12.8549 11.131 13.1059 11.3185 13.4567 11.3185C13.8045 11.3185 14.0434 11.122 14.0434 10.8407C14.0434 10.5625 13.7682 10.3659 13.366 10.3629H12.9245V9.56452H13.366C13.7319 9.56452 13.986 9.36794 13.983 9.09274C13.986 8.82661 13.7713 8.63911 13.4628 8.63911C13.1271 8.63911 12.8822 8.83266 12.8761 9.10484H11.7753C11.7783 8.30948 12.4799 7.75 13.4628 7.75C14.4245 7.75 15.0989 8.28831 15.0959 9.02016C15.0989 9.51008 14.7239 9.84577 14.2067 9.90323V9.93952C14.9023 10.0181 15.2622 10.3992 15.2592 10.9375C15.2622 11.7056 14.5122 12.25 13.4507 12.25Z" fill="#333333"/>
<path d="M7.87551 12.1895V11.3609L9.50253 9.99395C9.83519 9.7127 10.0378 9.50706 10.0408 9.18952C10.0378 8.84778 9.79588 8.63911 9.46019 8.63911C9.12148 8.63911 8.88862 8.85383 8.89164 9.22581H7.79689C7.79386 8.3125 8.45314 7.75 9.46019 7.75C10.4975 7.75 11.1598 8.28528 11.1598 9.09274C11.1598 9.60081 10.9088 10.0272 9.91987 10.8589L9.47834 11.2399V11.2641H11.2082V12.1895H7.87551Z" fill="#333333"/>
<path d="M6.96749 7.81055V12.1896H5.81225V8.87506H5.78805L4.82031 9.45571V8.46982L5.90297 7.81055H6.96749Z" fill="#333333"/>
</svg>
