<svg width="20" height="20" viewBox="0 0 20 20" fill="none" xmlns="http://www.w3.org/2000/svg">
<path d="M13.4629 7.75C14.4245 7.75004 15.0987 8.28868 15.0957 9.02051C15.0985 9.51015 14.7239 9.84579 14.207 9.90332V9.93945C14.9024 10.0182 15.2618 10.3993 15.2588 10.9375C15.2618 11.7055 14.5124 12.2498 13.4512 12.25C12.426 12.25 11.6937 11.6785 11.6846 10.8711H12.8457C12.8548 11.1311 13.1063 11.3184 13.457 11.3184C13.8046 11.3183 14.0429 11.1219 14.043 10.8408C14.043 10.5626 13.7683 10.3664 13.3662 10.3633H12.9248V9.56445H13.3662C13.732 9.56439 13.9864 9.36791 13.9834 9.09277C13.9864 8.82667 13.7713 8.63871 13.4629 8.63867C13.1273 8.63867 12.8822 8.8325 12.876 9.10449H11.7754C11.7786 8.30931 12.4802 7.75 13.4629 7.75Z" fill="#333333"/>
<path d="M6.96777 12.1895H5.8125V8.875H5.78809L4.82031 9.45605V8.46973L5.90332 7.81055H6.96777V12.1895Z" fill="#333333"/>
<path d="M9.45996 7.75C10.4973 7.75 11.1602 8.28531 11.1602 9.09277C11.1601 9.60078 10.9086 10.0269 9.91992 10.8584L9.47852 11.2402V11.2637H11.208V12.1895H7.87598V11.3613L9.50293 9.99414C9.83551 9.71295 10.038 9.50695 10.041 9.18945C10.038 8.84776 9.79563 8.63867 9.45996 8.63867C9.12144 8.63877 8.88867 8.85383 8.8916 9.22559H7.79688C7.79396 8.31248 8.45312 7.75009 9.45996 7.75Z" fill="#333333"/>
<path fill-rule="evenodd" clip-rule="evenodd" d="M15 4C16.6569 4 18 5.34315 18 7V13C18 14.6569 16.6569 16 15 16H5C3.34315 16 2 14.6569 2 13V7C2 5.34315 3.34315 4 5 4H15ZM5 5.5C4.17157 5.5 3.5 6.17157 3.5 7V13C3.5 13.8284 4.17157 14.5 5 14.5H15C15.8284 14.5 16.5 13.8284 16.5 13V7C16.5 6.17157 15.8284 5.5 15 5.5H5Z" fill="#333333"/>
</svg>
