<svg width="20" height="20" viewBox="0 0 20 20" fill="none" xmlns="http://www.w3.org/2000/svg">
<path d="M10 12C11.6567 12 12.9997 12.7413 13 13.9404C13 14.5254 12.5254 15 11.9404 15H8.05957C7.47459 15 7 14.5254 7 13.9404C7.00028 12.7413 8.34332 12 10 12Z" fill="#333333"/>
<path d="M10 8C10.8284 8 11.5 8.67157 11.5 9.5C11.5 10.3284 10.8284 11 10 11C9.17157 11 8.5 10.3284 8.5 9.5C8.5 8.67157 9.17157 8 10 8Z" fill="#333333"/>
<path fill-rule="evenodd" clip-rule="evenodd" d="M12.7998 4C13.9199 4 14.4804 3.99979 14.9082 4.21777C15.2845 4.40951 15.5905 4.71554 15.7822 5.0918C16.0002 5.51962 16 6.08009 16 7.2002V14.7998C16 15.9199 16.0002 16.4804 15.7822 16.9082L15.7051 17.0459C15.5129 17.3592 15.2374 17.6145 14.9082 17.7822L14.7402 17.8535C14.3311 17.9995 13.7798 18 12.7998 18H7.2002L6.45801 17.9971C5.91644 17.9886 5.55193 17.9578 5.25977 17.8535L5.0918 17.7822C4.76256 17.6145 4.48707 17.3592 4.29492 17.0459L4.21777 16.9082C3.99979 16.4804 4 15.9199 4 14.7998V7.2002C4 6.08009 3.99979 5.51962 4.21777 5.0918C4.40951 4.71554 4.71554 4.40951 5.0918 4.21777C5.41263 4.0543 5.80803 4.01315 6.45801 4.00293L7.2002 4H9.25V2.25C9.25 2.11193 9.36193 2 9.5 2H10.5C10.6381 2 10.75 2.11193 10.75 2.25V4H12.7998ZM7.2002 5.5C6.61556 5.5 6.26702 5.50138 6.00879 5.52246C5.76805 5.54213 5.74065 5.57139 5.77344 5.55469C5.67936 5.60262 5.60262 5.67936 5.55469 5.77344C5.57139 5.74065 5.54213 5.76805 5.52246 6.00879C5.50138 6.26702 5.5 6.61556 5.5 7.2002V14.7998C5.5 15.3844 5.50138 15.733 5.52246 15.9912C5.54213 16.232 5.57139 16.2594 5.55469 16.2266C5.60262 16.3206 5.67936 16.3974 5.77344 16.4453C5.74065 16.4286 5.76805 16.4579 6.00879 16.4775C6.26702 16.4986 6.61556 16.5 7.2002 16.5H12.7998C13.3844 16.5 13.733 16.4986 13.9912 16.4775C14.232 16.4579 14.2594 16.4286 14.2266 16.4453C14.3206 16.3974 14.3974 16.3206 14.4453 16.2266C14.4286 16.2594 14.4579 16.232 14.4775 15.9912C14.4986 15.733 14.5 15.3844 14.5 14.7998V7.2002C14.5 6.61556 14.4986 6.26702 14.4775 6.00879C14.4579 5.76805 14.4286 5.74065 14.4453 5.77344C14.3974 5.67936 14.3206 5.60262 14.2266 5.55469C14.2594 5.57139 14.232 5.54213 13.9912 5.52246C13.8622 5.51193 13.7107 5.50586 13.5186 5.50293L12.7998 5.5H7.2002Z" fill="#333333"/>
</svg>
