<svg width="12" height="12" viewBox="0 0 12 12" fill="none" xmlns="http://www.w3.org/2000/svg">
<path d="M10.5 7C10.7761 7 11 7.22386 11 7.5V9.5C11 9.89783 10.8419 10.2792 10.5605 10.5605C10.2792 10.8419 9.89783 11 9.5 11H2.5C2.10218 11 1.72076 10.8419 1.43945 10.5605C1.15815 10.2792 1 9.89782 1 9.5V7.5C1 7.22386 1.22386 7 1.5 7C1.77614 7 2 7.22386 2 7.5V9.5C2 9.63261 2.05272 9.75975 2.14648 9.85352C2.24025 9.94728 2.36739 10 2.5 10H9.5C9.63261 10 9.75975 9.94728 9.85352 9.85352C9.94728 9.75975 10 9.63261 10 9.5V7.5C10 7.22386 10.2239 7 10.5 7Z" fill="#333333"/>
<path d="M6.01562 1.00098C6.03625 1.00164 6.05672 1.00363 6.07715 1.00684C6.0907 1.00894 6.10402 1.01148 6.11719 1.01465C6.13539 1.01904 6.15318 1.02479 6.1709 1.03125C6.18031 1.03468 6.19008 1.03705 6.19922 1.04102C6.20309 1.0427 6.2071 1.04411 6.21094 1.0459L6.2793 1.08496C6.2814 1.08638 6.28308 1.0884 6.28516 1.08984C6.30909 1.10653 6.33217 1.12514 6.35352 1.14648L8.85352 3.64648C9.04878 3.84175 9.04878 4.15825 8.85352 4.35352C8.65825 4.54878 8.34175 4.54878 8.14648 4.35352L6.5 2.70703V7.5C6.5 7.77614 6.27614 8 6 8C5.72386 8 5.5 7.77614 5.5 7.5V2.70703L3.85352 4.35352C3.65825 4.54878 3.34175 4.54878 3.14648 4.35352C2.95122 4.15825 2.95122 3.84175 3.14648 3.64648L5.64648 1.14648L5.72461 1.08203C5.74996 1.06529 5.77633 1.05069 5.80371 1.03906C5.80748 1.03745 5.81161 1.03667 5.81543 1.03516C5.84061 1.02519 5.86638 1.01743 5.89258 1.01172C5.90092 1.00989 5.90948 1.00922 5.91797 1.00781C5.94067 1.00407 5.96338 1.00157 5.98633 1.00098C5.99088 1.00085 5.99542 1 6 1C6.00524 1 6.01043 1.00082 6.01562 1.00098Z" fill="#333333"/>
</svg>
