<svg width="20" height="20" viewBox="0 0 20 20" fill="none" xmlns="http://www.w3.org/2000/svg">
<path d="M10 3C12.8089 3 14.2138 2.99971 15.2227 3.67383C15.6593 3.96562 16.0344 4.34068 16.3262 4.77734C17.0003 5.78624 17 7.19108 17 10C17 12.8089 17.0003 14.2138 16.3262 15.2227L16.2129 15.3828C15.9396 15.7513 15.6049 16.0707 15.2227 16.3262L15.0283 16.4443C14.0324 16.9999 12.6335 17 10 17C7.3665 17 5.96758 16.9999 4.97168 16.4443L4.77734 16.3262C4.39511 16.0707 4.06038 15.7513 3.78711 15.3828L3.67383 15.2227C2.99971 14.2138 3 12.8089 3 10C3 7.19108 2.99971 5.78624 3.67383 4.77734C3.96562 4.34068 4.34068 3.96562 4.77734 3.67383C5.78624 2.99971 7.19108 3 10 3ZM10 4.5C8.56432 4.5 7.60004 4.50142 6.86523 4.57617C6.15616 4.64834 5.82819 4.7761 5.61133 4.9209C5.33835 5.10329 5.10329 5.33835 4.9209 5.61133C4.7761 5.82819 4.64834 6.15616 4.57617 6.86523C4.50142 7.60004 4.5 8.56432 4.5 10C4.5 11.4357 4.50142 12.4 4.57617 13.1348C4.64834 13.8438 4.7761 14.1718 4.9209 14.3887C5.10329 14.6616 5.33835 14.8967 5.61133 15.0791C5.82819 15.2239 6.15616 15.3517 6.86523 15.4238C7.60004 15.4986 8.56432 15.5 10 15.5C11.4357 15.5 12.4 15.4986 13.1348 15.4238C13.8438 15.3517 14.1718 15.2239 14.3887 15.0791C14.6616 14.8967 14.8967 14.6616 15.0791 14.3887C15.2239 14.1718 15.3517 13.8438 15.4238 13.1348C15.4986 12.4 15.5 11.4357 15.5 10C15.5 8.56432 15.4986 7.60004 15.4238 6.86523C15.3517 6.15616 15.2239 5.82819 15.0791 5.61133C14.8967 5.33835 14.6616 5.10329 14.3887 4.9209C14.1718 4.7761 13.8438 4.64834 13.1348 4.57617C12.4 4.50142 11.4357 4.5 10 4.5ZM10 10.5C12.2091 10.5 14 11.4888 14 13.0879C13.9999 13.8677 13.3677 14.4999 12.5879 14.5H7.41211C6.63226 14.4999 6.00008 13.8677 6 13.0879C6 11.4888 7.79086 10.5 10 10.5ZM10 5.5C11.1046 5.5 12 6.39543 12 7.5C12 8.60457 11.1046 9.5 10 9.5C8.89543 9.5 8 8.60457 8 7.5C8 6.39543 8.89543 5.5 10 5.5Z" fill="#333333"/>
</svg>
