<svg width="20" height="20" viewBox="0 0 20 20" fill="none" xmlns="http://www.w3.org/2000/svg">
<path fill-rule="evenodd" clip-rule="evenodd" d="M4 5H16C16.2761 5 16.5 5.22386 16.5 5.5V14.5C16.5 14.7761 16.2761 15 16 15H4C3.72386 15 3.5 14.7761 3.5 14.5V5.5C3.5 5.22386 3.72386 5 4 5ZM2 5.5C2 4.39543 2.89543 3.5 4 3.5H16C17.1046 3.5 18 4.39543 18 5.5V14.5C18 15.6046 17.1046 16.5 16 16.5H4C2.89543 16.5 2 15.6046 2 14.5V5.5ZM12 10.433C12.3333 10.2406 12.3333 9.75944 12 9.56699L9 7.83494C8.66667 7.64249 8.25 7.88305 8.25 8.26795V11.732C8.25 12.117 8.66667 12.3575 9 12.1651L12 10.433Z" fill="#333333"/>
</svg>
