<svg width="30" height="30" viewBox="0 0 30 30" fill="none" xmlns="http://www.w3.org/2000/svg">
<circle cx="15" cy="15" r="15" fill="#4DC95F"/>
<path fill-rule="evenodd" clip-rule="evenodd" d="M22 15C22 18.866 18.866 22 15 22C13.5224 22 12.1517 21.5422 11.0221 20.7606L8.18843 21.8403L9.26498 19.0147C8.46784 17.8781 8 16.4937 8 15C8 11.134 11.134 8 15 8C18.866 8 22 11.134 22 15ZM17.3198 15.677C17.5023 15.7432 18.481 16.2224 18.68 16.3215C18.7189 16.3409 18.7552 16.3584 18.7889 16.3746C18.9277 16.4413 19.0215 16.4864 19.0615 16.553C19.1113 16.6356 19.1113 17.0322 18.9454 17.495C18.7795 17.9578 17.9843 18.3801 17.6018 18.4369C17.2588 18.488 16.8249 18.5093 16.3481 18.3585C16.059 18.2672 15.6882 18.1453 15.2133 17.9411C13.3474 17.1393 12.0864 15.3397 11.8478 14.9991C11.831 14.9752 11.8193 14.9585 11.8128 14.9499L11.8112 14.9477C11.7057 14.8077 11 13.8705 11 12.9005C11 11.988 11.4505 11.5096 11.6578 11.2895C11.672 11.2744 11.685 11.2606 11.6967 11.2479C11.8791 11.0496 12.0948 11 12.2275 11C12.3602 11 12.493 11.0012 12.609 11.007C12.6233 11.0077 12.6382 11.0076 12.6536 11.0075C12.7696 11.0068 12.9142 11.006 13.0568 11.347C13.1118 11.4785 13.1924 11.6736 13.2773 11.8793C13.4484 12.294 13.6373 12.7517 13.6706 12.818C13.7204 12.9171 13.7536 13.0328 13.6872 13.165C13.6773 13.1848 13.6681 13.2035 13.6593 13.2213C13.6094 13.3227 13.5728 13.3972 13.4882 13.4955C13.455 13.534 13.4208 13.5755 13.3865 13.617C13.3179 13.7002 13.2493 13.7834 13.1896 13.8426C13.0899 13.9414 12.9862 14.0486 13.1023 14.2469C13.2184 14.4452 13.6179 15.0939 14.2096 15.6192C14.8458 16.184 15.3986 16.4226 15.6789 16.5436C15.7336 16.5672 15.7779 16.5863 15.8104 16.6025C16.0094 16.7017 16.1256 16.6851 16.2417 16.553C16.3578 16.4207 16.7393 15.9745 16.8719 15.7762C17.0047 15.5779 17.1374 15.611 17.3198 15.677Z" fill="white"/>
</svg>
