<svg width="20" height="20" viewBox="0 0 20 20" fill="none" xmlns="http://www.w3.org/2000/svg">
<path fill-rule="evenodd" clip-rule="evenodd" d="M16.8703 8.35412C17.0465 8.1644 17.0496 7.87054 16.868 7.68592C15.0781 5.86584 12.6637 4.75 10.0073 4.75C7.34505 4.75 4.9259 5.8708 3.13475 7.69805C2.9537 7.88274 2.95704 8.1762 3.13305 8.3657L3.73505 9.01384C3.93566 9.22983 4.27783 9.22519 4.48766 9.01815C5.94258 7.5826 7.88157 6.70654 10.0106 6.70654C12.1328 6.70654 14.0661 7.57697 15.5195 9.00432C15.7294 9.21052 16.0709 9.21474 16.2712 8.99912L16.8703 8.35412ZM5.63731 10.3637C5.43918 10.5416 5.4369 10.8461 5.61813 11.0413L6.22658 11.6963C6.4202 11.9048 6.74716 11.9077 6.96665 11.7267C7.80818 11.0327 8.86066 10.6202 10.0026 10.6202C11.1417 10.6202 12.1917 11.0306 13.0321 11.7214C13.2516 11.9018 13.5781 11.8986 13.7715 11.6904L14.3772 11.0382C14.5585 10.843 14.5562 10.5384 14.3578 10.3605C13.1765 9.30101 11.6571 8.6637 9.99936 8.6637C8.33999 8.6637 6.81915 9.30231 5.63731 10.3637ZM11.935 13.6676C12.1538 13.4321 12.0964 13.0529 11.7993 12.9302C11.2439 12.7009 10.6408 12.5752 10.0104 12.5752C9.37166 12.5752 8.76088 12.7042 8.19936 12.9394C7.9037 13.0633 7.84734 13.4413 8.06549 13.6762L9.62992 15.3605C9.82773 15.5735 10.1648 15.5735 10.3626 15.3605L11.935 13.6676Z" fill="#333333"/>
</svg>
