<svg width="20" height="20" viewBox="0 0 20 20" fill="none" xmlns="http://www.w3.org/2000/svg">
<path fill-rule="evenodd" clip-rule="evenodd" d="M9 16C9.34029 16 9.67447 15.9739 10.0006 15.9235C10.0205 14.7332 10.5024 13.6555 11.2748 12.8618C11.0979 12.4432 11 11.983 11 11.5C11 9.567 12.567 8 14.5 8C14.793 8 15.0777 8.03602 15.3497 8.10386C14.7108 5.18498 12.1106 3 9 3C5.41015 3 2.5 5.91015 2.5 9.5C2.5 13.0899 5.41015 16 9 16ZM9.71066 6.75C9.71066 6.47386 9.4868 6.25 9.21066 6.25H8.71066C8.43452 6.25 8.21066 6.47386 8.21066 6.75V9.58579C8.21066 9.65209 8.18432 9.71568 8.13744 9.76256L6.25355 11.6464C6.05829 11.8417 6.05829 12.1583 6.25355 12.3536L6.60711 12.7071C6.80237 12.9024 7.11895 12.9024 7.31421 12.7071L9.1981 10.8232C9.52629 10.495 9.71066 10.0499 9.71066 9.58579V6.75ZM16.5 11.5C16.5 12.2137 16.1262 12.8401 15.5636 13.194C16.6955 13.6233 17.5 14.7177 17.5 16V16.7647C17.5 16.8947 17.3947 17 17.2647 17H11.7353C11.6053 17 11.5 16.8947 11.5 16.7647V16C11.5 14.7177 12.3045 13.6233 13.4364 13.194C12.8738 12.8401 12.5 12.2137 12.5 11.5C12.5 10.3954 13.3954 9.5 14.5 9.5C15.6046 9.5 16.5 10.3954 16.5 11.5Z" fill="#333333"/>
</svg>
