<svg width="24" height="24" viewBox="0 0 24 24" fill="none" xmlns="http://www.w3.org/2000/svg">
<path d="M5.75 10C6.7165 10 7.5 10.7835 7.5 11.75C7.5 12.7165 6.7165 13.5 5.75 13.5C4.7835 13.5 4 12.7165 4 11.75C4 10.7835 4.7835 10 5.75 10Z" fill="#333333"/>
<path d="M12 10C12.9665 10 13.75 10.7835 13.75 11.75C13.75 12.7165 12.9665 13.5 12 13.5C11.0335 13.5 10.25 12.7165 10.25 11.75C10.25 10.7835 11.0335 10 12 10Z" fill="#333333"/>
<path d="M18.25 10C19.2165 10 20 10.7835 20 11.75C20 12.7165 19.2165 13.5 18.25 13.5C17.2835 13.5 16.5 12.7165 16.5 11.75C16.5 10.7835 17.2835 10 18.25 10Z" fill="#333333"/>
</svg>
