<svg width="20" height="20" viewBox="0 0 20 20" fill="none" xmlns="http://www.w3.org/2000/svg">
<path fill-rule="evenodd" clip-rule="evenodd" d="M7.47051 8.42853L7.47074 8.42875L7.47097 8.42853H8.42874V7.47075L8.42876 7.47074L8.42874 7.47073L8.42874 3.23498L7.0739 3.23498V6.11589L3.95802 3L3 3.95802L6.11567 7.07369H3.23519L3.23519 8.42853L7.47051 8.42853ZM11.8064 4.35487H15.6451V8.19358H17V3.00003H11.8064V4.35487ZM8.19364 15.6452L4.35493 15.6452L4.35493 11.8065H3.0001L3.0001 17H8.19364V15.6452ZM12.5293 11.5713L12.5295 11.5715L16.7648 11.5715V12.9263H13.8844L17 16.042L16.042 17L12.9261 13.8841L12.9261 16.765H11.5713L11.5713 12.5293L11.5713 12.5293L11.5713 12.5293V11.5715H12.5291L12.5293 11.5713Z" fill="#333333"/>
</svg>
