<svg width="20" height="20" viewBox="0 0 20 20" fill="none" xmlns="http://www.w3.org/2000/svg">
<path d="M8.5 10.5C8.77614 10.5 9 10.7239 9 11V12C9 12.2761 8.77614 12.5 8.5 12.5H7.5C7.22386 12.5 7 12.2761 7 12V11C7 10.7239 7.22386 10.5 7.5 10.5H8.5Z" fill="#333333"/>
<path d="M12.5 10.5C12.7761 10.5 13 10.7239 13 11V12C13 12.2761 12.7761 12.5 12.5 12.5H11.5C11.2239 12.5 11 12.2761 11 12V11C11 10.7239 11.2239 10.5 11.5 10.5H12.5Z" fill="#333333"/>
<path d="M8.5 7.5C8.77614 7.5 9 7.72386 9 8V9C9 9.27614 8.77614 9.5 8.5 9.5H7.5C7.22386 9.5 7 9.27614 7 9V8C7 7.72386 7.22386 7.5 7.5 7.5H8.5Z" fill="#333333"/>
<path d="M12.5 7.5C12.7761 7.5 13 7.72386 13 8V9C13 9.27614 12.7761 9.5 12.5 9.5H11.5C11.2239 9.5 11 9.27614 11 9V8C11 7.72386 11.2239 7.5 11.5 7.5H12.5Z" fill="#333333"/>
<path d="M8.5 4.5C8.77614 4.5 9 4.72386 9 5V6C9 6.27614 8.77614 6.5 8.5 6.5H7.5C7.22386 6.5 7 6.27614 7 6V5C7 4.72386 7.22386 4.5 7.5 4.5H8.5Z" fill="#333333"/>
<path d="M12.5 4.5C12.7761 4.5 13 4.72386 13 5V6C13 6.27614 12.7761 6.5 12.5 6.5H11.5C11.2239 6.5 11 6.27614 11 6V5C11 4.72386 11.2239 4.5 11.5 4.5H12.5Z" fill="#333333"/>
<path fill-rule="evenodd" clip-rule="evenodd" d="M14.5 1.5C15.6046 1.5 16.5 2.39543 16.5 3.5V16.5C16.5 17.5357 15.7128 18.387 14.7041 18.4893L14.5 18.5H5.5L5.2959 18.4893C4.35435 18.3938 3.6062 17.6457 3.51074 16.7041L3.5 16.5V3.5C3.5 2.39543 4.39543 1.5 5.5 1.5H14.5ZM5.5 3C5.22386 3 5 3.22386 5 3.5V16.5C5 16.7761 5.22386 17 5.5 17H7.5V15C7.5 14.4477 7.94772 14 8.5 14H11.5C12.0523 14 12.5 14.4477 12.5 15V17H14.5C14.7761 17 15 16.7761 15 16.5V3.5C15 3.22386 14.7761 3 14.5 3H5.5ZM9 17H11V15.5H9V17Z" fill="#333333"/>
</svg>
