<svg width="24" height="24" viewBox="0 0 24 24" fill="none" xmlns="http://www.w3.org/2000/svg">
<path d="M7 6C7.55228 6 8 6.44772 8 7C8 7.55228 7.55228 8 7 8C6.44772 8 6 7.55228 6 7C6 6.44772 6.44772 6 7 6Z" fill="#333333"/>
<path d="M9.5 6C10.0523 6 10.5 6.44772 10.5 7C10.5 7.55228 10.0523 8 9.5 8C8.94772 8 8.5 7.55228 8.5 7C8.5 6.44772 8.94772 6 9.5 6Z" fill="#333333"/>
<path d="M12 6C12.5523 6 13 6.44772 13 7C13 7.55228 12.5523 8 12 8C11.4477 8 11 7.55228 11 7C11 6.44772 11.4477 6 12 6Z" fill="#333333"/>
<path fill-rule="evenodd" clip-rule="evenodd" d="M17.9512 3.00391C19.6493 3.09001 20.9998 4.49434 21 6.21387V17.7861L20.9961 17.9512C20.9128 19.5947 19.5947 20.9128 17.9512 20.9961L17.7861 21H6.21387C4.49434 20.9998 3.09001 19.6493 3.00391 17.9512L3 17.7861V6.21387C3.00023 4.439 4.439 3.00023 6.21387 3H17.7861L17.9512 3.00391ZM5 17.7861C5.00023 18.4564 5.54357 18.9998 6.21387 19H17.7861C18.4564 18.9998 18.9998 18.4564 19 17.7861V11H5V17.7861ZM6.21387 5C5.54357 5.00023 5.00023 5.54357 5 6.21387V9H19V6.21387C18.9998 5.54357 18.4564 5.00023 17.7861 5H6.21387Z" fill="#333333"/>
</svg>
