<svg width="24" height="24" viewBox="0 0 24 24" fill="none" xmlns="http://www.w3.org/2000/svg">
<path fill-rule="evenodd" clip-rule="evenodd" d="M7 3C5.34315 3 4 4.34315 4 6V18C4 19.6569 5.34315 21 7 21H17C18.6569 21 20 19.6569 20 18V6C20 4.34315 18.6569 3 17 3H7ZM6 6C6 5.44772 6.44772 5 7 5H17C17.5523 5 18 5.44772 18 6V18C18 18.5523 17.5523 19 17 19H7C6.44772 19 6 18.5523 6 18V6ZM8.5 7C8.22386 7 8 7.22386 8 7.5V9.5C8 9.77614 8.22386 10 8.5 10H10.5C10.7761 10 11 9.77614 11 9.5V7.5C11 7.22386 10.7761 7 10.5 7H8.5ZM8.5 11C8.22386 11 8 11.2239 8 11.5V13.5C8 13.7761 8.22386 14 8.5 14H10.5C10.7761 14 11 13.7761 11 13.5V11.5C11 11.2239 10.7761 11 10.5 11H8.5ZM12 7.5C12 7.22386 12.2239 7 12.5 7H14.5C14.7761 7 15 7.22386 15 7.5V9.5C15 9.77614 14.7761 10 14.5 10H12.5C12.2239 10 12 9.77614 12 9.5V7.5Z" fill="#333333"/>
</svg>
