<svg width="20" height="20" viewBox="0 0 20 20" fill="none" xmlns="http://www.w3.org/2000/svg">
<rect x="4.25" y="2.25" width="11.5" height="15.5" rx="1.25" stroke="#333333" stroke-width="1.5"/>
<rect x="7" y="4.5" width="2" height="2" rx="0.5" fill="#333333"/>
<rect x="7" y="7.5" width="2" height="2" rx="0.5" fill="#333333"/>
<rect x="7" y="10.5" width="2" height="2" rx="0.5" fill="#333333"/>
<rect x="11" y="4.5" width="2" height="2" rx="0.5" fill="#333333"/>
<rect x="11" y="7.5" width="2" height="2" rx="0.5" fill="#333333"/>
<rect x="11" y="10.5" width="2" height="2" rx="0.5" fill="#333333"/>
<mask id="path-8-inside-1_12652_2461" fill="white">
<path d="M7.5 15C7.5 14.4477 7.94772 14 8.5 14H11.5C12.0523 14 12.5 14.4477 12.5 15V17C12.5 17.5523 12.0523 18 11.5 18H8.5C7.94772 18 7.5 17.5523 7.5 17V15Z"/>
</mask>
<path d="M6 15C6 13.6193 7.11929 12.5 8.5 12.5H11.5C12.8807 12.5 14 13.6193 14 15L11 15.5H9L6 15ZM12.5 18H7.5H12.5ZM8.5 18C7.11929 18 6 16.8807 6 15.5V15C6 13.6193 7.11929 12.5 8.5 12.5L9 15.5V17C9 17.5523 9 18 9 18H8.5ZM11.5 12.5C12.8807 12.5 14 13.6193 14 15V15.5C14 16.8807 12.8807 18 11.5 18H11C11 18 11 17.5523 11 17V15.5L11.5 12.5Z" fill="#333333" mask="url(#path-8-inside-1_12652_2461)"/>
</svg>
