<svg width="20" height="20" viewBox="0 0 20 20" fill="none" xmlns="http://www.w3.org/2000/svg">
<path d="M10 2C14.4181 2.00008 18 5.58185 18 10C17.9999 14.4181 14.4181 17.9999 10 18C8.78803 18 7.63878 17.7304 6.60938 17.248L2.38867 17.9365C2.21549 17.9648 2.07636 17.7953 2.1377 17.6309L3.33398 14.4248C2.49118 13.1576 2.00003 11.636 2 10C2 5.5818 5.5818 2 10 2ZM6.94336 5.99121C6.7994 5.99121 6.5651 6.04438 6.36719 6.25781C6.16915 6.47133 5.6115 6.98721 5.61133 8.03613C5.61133 9.08519 6.38455 10.0991 6.49316 10.2422C6.60116 10.3845 8.0163 12.5383 10.1826 13.4619C10.6975 13.6815 11.0996 13.8129 11.4131 13.9111C11.9303 14.0734 12.4014 14.051 12.7734 13.9961C13.1883 13.9349 14.0515 13.4795 14.2314 12.9814C14.4112 12.4836 14.4114 12.0568 14.3574 11.9678C14.3035 11.8788 14.1593 11.8255 13.9434 11.7188C13.7275 11.6121 12.6662 11.0969 12.4678 11.0254C12.2699 10.9543 12.1254 10.9184 11.9814 11.1318C11.8374 11.3454 11.4238 11.8255 11.2979 11.9678C11.1719 12.11 11.0459 12.1282 10.8301 12.0215C10.6141 11.9148 9.91853 11.6893 9.09375 10.9629C8.45176 10.3975 8.01856 9.69882 7.89258 9.48535C7.7668 9.27199 7.87922 9.1571 7.9873 9.05078C8.08446 8.95524 8.20263 8.80123 8.31055 8.67676C8.41846 8.55233 8.45444 8.46343 8.52637 8.32129C8.59827 8.1791 8.56272 8.05488 8.50879 7.94824C8.45483 7.84149 8.02275 6.79124 7.84277 6.36426C7.66768 5.94911 7.48993 6.00455 7.35742 5.99805C7.23163 5.99187 7.08725 5.99121 6.94336 5.99121Z" fill="#49CA42"/>
</svg>
