<svg width="20" height="20" viewBox="0 0 20 20" fill="none" xmlns="http://www.w3.org/2000/svg">
<path fill-rule="evenodd" clip-rule="evenodd" d="M6 3.5H14C15.3807 3.5 16.5 4.61929 16.5 6V14C16.5 15.3807 15.3807 16.5 14 16.5H6C4.61929 16.5 3.5 15.3807 3.5 14V6C3.5 4.61929 4.61929 3.5 6 3.5ZM2 6C2 3.79086 3.79086 2 6 2H14C16.2091 2 18 3.79086 18 6V14C18 16.2091 16.2091 18 14 18H6C3.79086 18 2 16.2091 2 14V6ZM5.2339 5.15067C5.50968 4.92086 5.91954 4.95812 6.14936 5.2339L7.15002 6.63468L8.15067 5.2339C8.38049 4.95812 8.79036 4.92086 9.06614 5.15067C9.34192 5.38049 9.37918 5.79036 9.14936 6.06614L7.8 7.88537V9.64998C7.8 10.009 7.50898 10.3 7.15 10.3C6.79101 10.3 6.5 10.009 6.5 9.64998V7.88533L5.15067 6.06614C4.92086 5.79036 4.95812 5.38049 5.2339 5.15067ZM14.5 10.375C14.8452 10.375 15.125 10.6548 15.125 11V14.2297C15.125 14.9028 14.2876 15.2126 13.8495 14.7015L12.125 12.6895V14.5C12.125 14.8452 11.8452 15.125 11.5 15.125C11.1548 15.125 10.875 14.8452 10.875 14.5V11.2703C10.875 10.5972 11.7124 10.2875 12.1505 10.7985L13.875 12.8105V11C13.875 10.6548 14.1548 10.375 14.5 10.375ZM15.3535 5.35355C15.5487 5.15829 15.5487 4.84171 15.3535 4.64645C15.1582 4.45118 14.8416 4.45118 14.6464 4.64645L4.64637 14.6464C4.45111 14.8417 4.45111 15.1583 4.64637 15.3536C4.84163 15.5488 5.15822 15.5488 5.35348 15.3536L15.3535 5.35355Z" fill="#333333"/>
</svg>
