<svg width="20" height="20" viewBox="0 0 20 20" fill="none" xmlns="http://www.w3.org/2000/svg">
<path fill-rule="evenodd" clip-rule="evenodd" d="M14 3.5H6C4.61929 3.5 3.5 4.61929 3.5 6V14C3.5 15.3807 4.61929 16.5 6 16.5H14C15.3807 16.5 16.5 15.3807 16.5 14V6C16.5 4.61929 15.3807 3.5 14 3.5ZM6 2C3.79086 2 2 3.79086 2 6V14C2 16.2091 3.79086 18 6 18H14C16.2091 18 18 16.2091 18 14V6C18 3.79086 16.2091 2 14 2H6Z" fill="#333333"/>
<path d="M6.14936 5.2339C5.91954 4.95812 5.50968 4.92086 5.2339 5.15067C4.95812 5.38049 4.92086 5.79036 5.15067 6.06614L6.5 7.88533V9.64998C6.5 10.009 6.79101 10.3 7.15 10.3C7.50898 10.3 7.8 10.009 7.8 9.64998V7.88537L9.14936 6.06614C9.37918 5.79036 9.34192 5.38049 9.06614 5.15067C8.79036 4.92086 8.38049 4.95812 8.15067 5.2339L7.15002 6.63468L6.14936 5.2339Z" fill="#333333"/>
<path d="M11.5 14.5V11.2703C11.5 11.1775 11.6155 11.1348 11.6759 11.2052L14.3241 14.2948C14.3845 14.3652 14.5 14.3225 14.5 14.2297V11" stroke="#333333" stroke-width="1.25" stroke-linecap="round"/>
<path d="M15 5L5 15" stroke="#333333" stroke-linecap="round"/>
</svg>
