<svg width="24" height="24" viewBox="0 0 24 24" fill="none" xmlns="http://www.w3.org/2000/svg">
<path fill-rule="evenodd" clip-rule="evenodd" d="M5 11C5 7.68629 7.68629 5 11 5C14.3137 5 17 7.68629 17 11C17 14.3137 14.3137 17 11 17C7.68629 17 5 14.3137 5 11ZM11 3C6.58172 3 3 6.58172 3 11C3 15.4183 6.58172 19 11 19C12.8488 19 14.551 18.3729 15.9057 17.3198L18.6215 20.0356C18.8168 20.2308 19.1334 20.2308 19.3286 20.0356L20.0357 19.3285C20.231 19.1332 20.231 18.8166 20.0357 18.6214L17.3199 15.9056C18.3729 14.5509 19 12.8487 19 11C19 6.58172 15.4183 3 11 3ZM10 7.5C10 7.22386 10.2239 7 10.5 7H11.5C11.7761 7 12 7.22386 12 7.5V10H14.5C14.7761 10 15 10.2239 15 10.5V11.5C15 11.7761 14.7761 12 14.5 12H12V14.5C12 14.7761 11.7761 15 11.5 15H10.5C10.2239 15 10 14.7761 10 14.5V12H7.5C7.22386 12 7 11.7761 7 11.5V10.5C7 10.2239 7.22386 10 7.5 10H10V7.5Z" fill="#333333"/>
</svg>
