<svg width="24" height="24" viewBox="0 0 24 24" fill="none" xmlns="http://www.w3.org/2000/svg">
<path fill-rule="evenodd" clip-rule="evenodd" d="M11 5C7.68629 5 5 7.68629 5 11C5 14.3137 7.68629 17 11 17C14.3137 17 17 14.3137 17 11C17 7.68629 14.3137 5 11 5ZM3 11C3 6.58172 6.58172 3 11 3C15.4183 3 19 6.58172 19 11C19 12.8487 18.3729 14.5509 17.3199 15.9056L20.0357 18.6214C20.231 18.8166 20.231 19.1332 20.0357 19.3285L19.3286 20.0356C19.1334 20.2308 18.8168 20.2308 18.6215 20.0356L15.9057 17.3198C14.551 18.3729 12.8488 19 11 19C6.58172 19 3 15.4183 3 11ZM7 11.5C7 11.7761 7.22386 12 7.5 12H14.5C14.7761 12 15 11.7761 15 11.5V10.5C15 10.2239 14.7761 10 14.5 10L7.5 10C7.22386 10 7 10.2239 7 10.5V11.5Z" fill="#333333"/>
</svg>
