<svg width="240" height="140" viewBox="0 0 240 140" fill="none" xmlns="http://www.w3.org/2000/svg">
<rect width="240" height="140" fill="#F1F4F6"/>
<path d="M24 20C24 17.7909 25.7909 16 28 16H212C214.209 16 216 17.7909 216 20V136C216 138.209 214.209 140 212 140H28C25.7909 140 24 138.209 24 136V20Z" fill="url(#paint0_linear_286_5271)"/>
<circle cx="33" cy="25" r="3" fill="#406588"/>
<circle cx="42" cy="25" r="3" fill="#4DC9AA"/>
<circle cx="51" cy="25" r="3" fill="#3299FE"/>
<g filter="url(#filter0_d_286_5271)">
<rect x="84" y="8" width="72" height="116" rx="8" fill="url(#paint1_linear_286_5271)"/>
</g>
<g opacity="0.8">
<rect x="174" y="88" width="8" height="32" rx="1" fill="#84C2FC"/>
<rect x="196" y="56" width="8" height="64" rx="1" fill="#406588"/>
<rect x="188" y="33" width="24" height="14" rx="4" fill="#406588"/>
<path d="M195.079 35.0781H193.717L192 35.9688V37.0078L193.592 36.1953H193.631V40.7344H195.079V35.0781Z" fill="white"/>
<path d="M196.691 40.7344H201.659V39.7656H198.695V39.7344L199.751 38.8984C201.18 37.8438 201.564 37.3164 201.564 36.6719C201.564 35.6914 200.576 35 199.089 35C197.626 35 196.619 35.707 196.623 36.8125H197.995C197.99 36.2695 198.417 35.9336 199.07 35.9375C199.707 35.9336 200.173 36.2461 200.173 36.75C200.173 37.1992 199.823 37.5117 199.175 38.0156L196.681 39.8828L196.691 40.7344Z" fill="white"/>
<path d="M205.372 40.8125C206.94 40.8164 208.005 39.9922 208 38.8438C208.005 37.7773 207.074 37.0156 205.823 37.0156C205.055 37.0156 204.369 37.3086 204.048 37.8125H203.981C203.99 36.6992 204.484 36.0078 205.429 36.0078C205.99 36.0078 206.388 36.2539 206.504 36.6484H207.923C207.784 35.7188 206.825 35 205.429 35C203.693 35 202.576 36.1289 202.571 38.0391C202.566 40.1094 203.938 40.8086 205.372 40.8125ZM204.125 38.875C204.134 38.3242 204.671 37.8711 205.381 37.8672C206.086 37.8711 206.6 38.3086 206.6 38.875C206.6 39.4453 206.077 39.8867 205.362 39.8828C204.652 39.8867 204.134 39.4297 204.125 38.875Z" fill="white"/>
<path d="M199.553 50.6056C199.737 50.9741 200.263 50.9741 200.447 50.6056L203 45.5L197 45.5L199.553 50.6056Z" fill="#406588"/>
<rect x="168" y="65" width="20" height="14" rx="4" fill="#84C2FC"/>
<path d="M174.796 72.8125C176.42 72.8125 177.591 72.1328 177.591 71.2109C177.591 70.5 176.892 69.9219 176.026 69.8125V69.7734C176.774 69.6562 177.321 69.1445 177.326 68.5234C177.321 67.6445 176.253 67 174.796 67C173.339 67 172.271 67.6445 172.276 68.5234C172.271 69.1445 172.802 69.6562 173.575 69.7734V69.8125C172.689 69.9219 172 70.5 172 71.2109C172 72.1328 173.167 72.8125 174.796 72.8125ZM173.546 71.0938C173.541 70.6016 174.072 70.2461 174.796 70.2422C175.519 70.2461 176.051 70.6055 176.046 71.0938C176.051 71.5781 175.549 71.918 174.796 71.9141C174.043 71.918 173.541 71.5781 173.546 71.0938ZM173.723 68.6406C173.718 68.1992 174.156 67.8906 174.796 67.8906C175.431 67.8906 175.874 68.1992 175.879 68.6406C175.874 69.0938 175.421 69.4102 174.796 69.4141C174.166 69.4102 173.718 69.0938 173.723 68.6406Z" fill="white"/>
<path d="M181.244 72.8125C182.853 72.8125 184.01 72.1172 184 71.1484C184.01 70.4414 183.434 69.9375 182.385 69.8359V69.7891C183.183 69.6758 183.739 69.2266 183.734 68.5938C183.739 67.6992 182.75 67 181.263 67C179.801 67 178.699 67.6758 178.674 68.6484H180.092C180.116 68.2148 180.633 67.9336 181.263 67.9375C181.893 67.9336 182.312 68.2305 182.307 68.6641C182.312 69.1094 181.819 69.4141 181.116 69.4141H180.456V70.2812H181.116C181.952 70.2852 182.469 70.6094 182.464 71.0703C182.469 71.5273 181.962 71.8398 181.253 71.8438C180.564 71.8398 180.047 71.5625 180.023 71.1406H178.527C178.556 72.1289 179.678 72.8125 181.244 72.8125Z" fill="white"/>
<path d="M177.553 82.6056C177.737 82.9741 178.263 82.9741 178.447 82.6056L181 77.5L175 77.5L177.553 82.6056Z" fill="#84C2FC"/>
</g>
<g filter="url(#filter1_d_286_5271)">
<rect x="78" y="108" width="84" height="20" rx="10" fill="#3299FE"/>
<path fill-rule="evenodd" clip-rule="evenodd" d="M120.53 113.47C120.237 113.177 119.763 113.177 119.47 113.47L116.47 116.47C116.177 116.763 116.177 117.237 116.47 117.53C116.763 117.823 117.237 117.823 117.53 117.53L119.25 115.811L119.25 121.5C119.25 121.776 119.474 122 119.75 122H120.25C120.526 122 120.75 121.776 120.75 121.5L120.75 115.811L122.47 117.53C122.763 117.823 123.237 117.823 123.53 117.53C123.823 117.237 123.823 116.763 123.53 116.47L120.53 113.47Z" fill="white"/>
</g>
<rect x="94" y="84" width="52" height="20" rx="4" fill="#F4F4F4"/>
<path d="M117.227 97.0781C118.5 97.0781 119.367 96.2617 119.367 95.1172C119.367 94.0312 118.594 93.2539 117.555 93.2578C117.059 93.2539 116.629 93.457 116.422 93.7344H116.375L116.531 92.3047H119.047V91.3438H115.562L115.258 94.6016H116.32C116.488 94.2852 116.785 94.125 117.211 94.125C117.805 94.1289 118.23 94.5469 118.227 95.1484C118.23 95.7383 117.812 96.1523 117.227 96.1484C116.734 96.1523 116.332 95.8477 116.305 95.4062H115.164C115.184 96.3828 116.047 97.0781 117.227 97.0781Z" fill="#333333"/>
<path d="M122.359 97.0781C123.773 97.0781 124.633 96.0312 124.633 94.1719C124.633 92.3242 123.77 91.2656 122.359 91.2656C120.949 91.2656 120.086 92.3242 120.086 94.1719C120.086 96.0234 120.941 97.0781 122.359 97.0781ZM121.289 94.1719C121.289 92.8789 121.707 92.2305 122.359 92.2266C123.012 92.2305 123.434 92.8789 123.43 94.1719C123.434 95.4766 123.016 96.1094 122.359 96.1094C121.703 96.1094 121.281 95.4766 121.289 94.1719Z" fill="#333333"/>
<circle cx="136" cy="94" r="6" fill="white"/>
<path fill-rule="evenodd" clip-rule="evenodd" d="M136.6 91.6C136.6 91.2686 136.331 91 136 91C135.669 91 135.4 91.2686 135.4 91.6V93.4004H133.6C133.269 93.4004 133 93.669 133 94.0004C133 94.3318 133.269 94.6004 133.6 94.6004H135.4V96.4C135.4 96.7314 135.669 97 136 97C136.331 97 136.6 96.7314 136.6 96.4V94.6004H138.4C138.731 94.6004 139 94.3318 139 94.0004C139 93.669 138.731 93.4004 138.4 93.4004H136.6V91.6Z" fill="#333333"/>
<circle cx="104" cy="94" r="6" fill="white"/>
<path d="M101 94.0004C101 93.669 101.269 93.4004 101.6 93.4004H106.4C106.731 93.4004 107 93.669 107 94.0004C107 94.3318 106.731 94.6004 106.4 94.6004H101.6C101.269 94.6004 101 94.3318 101 94.0004Z" fill="#333333"/>
<rect x="94" y="76" width="29" height="4" rx="1" fill="#EAEAEA"/>
<rect x="94" y="18" width="52" height="52" rx="4" fill="#EAEAEA"/>
<path fill-rule="evenodd" clip-rule="evenodd" d="M106.75 22C106.75 21.5858 106.414 21.25 106 21.25H101.048C98.9835 21.25 97.25 22.8557 97.25 24.9091V30C97.25 30.4142 97.5858 30.75 98 30.75C98.4142 30.75 98.75 30.4142 98.75 30V24.9091C98.75 23.7492 99.7454 22.75 101.048 22.75H106C106.414 22.75 106.75 22.4142 106.75 22Z" fill="white"/>
<path fill-rule="evenodd" clip-rule="evenodd" d="M106.75 66C106.75 66.4142 106.414 66.75 106 66.75H101.048C98.9835 66.75 97.25 65.1443 97.25 63.0909V58C97.25 57.5858 97.5858 57.25 98 57.25C98.4142 57.25 98.75 57.5858 98.75 58V63.0909C98.75 64.2508 99.7454 65.25 101.048 65.25H106C106.414 65.25 106.75 65.5858 106.75 66Z" fill="white"/>
<path fill-rule="evenodd" clip-rule="evenodd" d="M133.25 22C133.25 21.5858 133.586 21.25 134 21.25H138.952C141.016 21.25 142.75 22.8557 142.75 24.9091V30C142.75 30.4142 142.414 30.75 142 30.75C141.586 30.75 141.25 30.4142 141.25 30V24.9091C141.25 23.7492 140.255 22.75 138.952 22.75H134C133.586 22.75 133.25 22.4142 133.25 22Z" fill="white"/>
<path fill-rule="evenodd" clip-rule="evenodd" d="M133.25 66C133.25 66.4142 133.586 66.75 134 66.75H138.952C141.016 66.75 142.75 65.1443 142.75 63.0909V58C142.75 57.5858 142.414 57.25 142 57.25C141.586 57.25 141.25 57.5858 141.25 58V63.0909C141.25 64.2508 140.255 65.25 138.952 65.25H134C133.586 65.25 133.25 65.5858 133.25 66Z" fill="white"/>
<rect x="102" y="34" width="5.58621" height="20" fill="#555555"/>
<rect x="109.449" y="34" width="2.48276" height="20" fill="#555555"/>
<rect x="113.793" y="34" width="1.86207" height="20" fill="#555555"/>
<rect x="117.518" y="34" width="4.34483" height="20" fill="#555555"/>
<rect x="123.725" y="34" width="4.34483" height="20" fill="#555555"/>
<rect x="129.93" y="34" width="1.86207" height="20" fill="#555555"/>
<rect x="133.656" y="34" width="4.34483" height="20" fill="#555555"/>
<g filter="url(#filter2_d_286_5271)">
<circle cx="55" cy="68" r="20" fill="url(#paint2_linear_286_5271)"/>
</g>
<path fill-rule="evenodd" clip-rule="evenodd" d="M49.0113 57.1111C49.5118 57.1111 49.9497 57.429 50.1118 57.8902L50.1553 58.0489L50.7122 60.8333H64.0868C64.7768 60.8333 65.2594 61.5155 65.0298 62.1661L62.4416 69.4995C62.3005 69.8993 61.9226 70.1666 61.4986 70.1666H49.1669V71.7222H62.0002C62.5909 71.7222 63.079 72.1611 63.1562 72.7306L63.1669 72.8889C63.1669 73.4795 62.728 73.9676 62.1585 74.0449L62.0002 74.0555H46.8336V69.1666V68.2222V62.8333C46.8336 61.8974 47.4764 61.1117 48.3446 60.8935L48.0547 59.4444H45.278C44.6874 59.4444 44.1992 59.0055 44.122 58.4361L44.1113 58.2778C44.1113 57.6871 44.5502 57.199 45.1197 57.1217L45.278 57.1111H49.0113ZM51.5002 77.1666C51.5002 78.4553 50.4555 79.5 49.1669 79.5C47.8782 79.5 46.8336 78.4553 46.8336 77.1666C46.8336 75.878 47.8782 74.8333 49.1669 74.8333C50.4555 74.8333 51.5002 75.878 51.5002 77.1666ZM63.9447 77.1666C63.9447 78.4553 62.9 79.5 61.6113 79.5C60.3227 79.5 59.278 78.4553 59.278 77.1666C59.278 75.878 60.3227 74.8333 61.6113 74.8333C62.9 74.8333 63.9447 75.878 63.9447 77.1666Z" fill="white"/>
<defs>
<filter id="filter0_d_286_5271" x="76" y="8" width="88" height="132" filterUnits="userSpaceOnUse" color-interpolation-filters="sRGB">
<feFlood flood-opacity="0" result="BackgroundImageFix"/>
<feColorMatrix in="SourceAlpha" type="matrix" values="0 0 0 0 0 0 0 0 0 0 0 0 0 0 0 0 0 0 127 0" result="hardAlpha"/>
<feMorphology radius="8" operator="erode" in="SourceAlpha" result="effect1_dropShadow_286_5271"/>
<feOffset dy="8"/>
<feGaussianBlur stdDeviation="8"/>
<feComposite in2="hardAlpha" operator="out"/>
<feColorMatrix type="matrix" values="0 0 0 0 0 0 0 0 0 0 0 0 0 0 0 0 0 0 0.16 0"/>
<feBlend mode="normal" in2="BackgroundImageFix" result="effect1_dropShadow_286_5271"/>
<feBlend mode="normal" in="SourceGraphic" in2="effect1_dropShadow_286_5271" result="shape"/>
</filter>
<filter id="filter1_d_286_5271" x="74" y="108" width="92" height="28" filterUnits="userSpaceOnUse" color-interpolation-filters="sRGB">
<feFlood flood-opacity="0" result="BackgroundImageFix"/>
<feColorMatrix in="SourceAlpha" type="matrix" values="0 0 0 0 0 0 0 0 0 0 0 0 0 0 0 0 0 0 127 0" result="hardAlpha"/>
<feOffset dy="4"/>
<feGaussianBlur stdDeviation="2"/>
<feComposite in2="hardAlpha" operator="out"/>
<feColorMatrix type="matrix" values="0 0 0 0 0.247969 0 0 0 0 0.558247 0 0 0 0 0.8625 0 0 0 0.2 0"/>
<feBlend mode="normal" in2="BackgroundImageFix" result="effect1_dropShadow_286_5271"/>
<feBlend mode="normal" in="SourceGraphic" in2="effect1_dropShadow_286_5271" result="shape"/>
</filter>
<filter id="filter2_d_286_5271" x="27" y="48" width="56" height="56" filterUnits="userSpaceOnUse" color-interpolation-filters="sRGB">
<feFlood flood-opacity="0" result="BackgroundImageFix"/>
<feColorMatrix in="SourceAlpha" type="matrix" values="0 0 0 0 0 0 0 0 0 0 0 0 0 0 0 0 0 0 127 0" result="hardAlpha"/>
<feMorphology radius="8" operator="erode" in="SourceAlpha" result="effect1_dropShadow_286_5271"/>
<feOffset dy="8"/>
<feGaussianBlur stdDeviation="8"/>
<feComposite in2="hardAlpha" operator="out"/>
<feColorMatrix type="matrix" values="0 0 0 0 0 0 0 0 0 0 0 0 0 0 0 0 0 0 0.24 0"/>
<feBlend mode="normal" in2="BackgroundImageFix" result="effect1_dropShadow_286_5271"/>
<feBlend mode="normal" in="SourceGraphic" in2="effect1_dropShadow_286_5271" result="shape"/>
</filter>
<linearGradient id="paint0_linear_286_5271" x1="24" y1="16" x2="242.776" y2="258.846" gradientUnits="userSpaceOnUse">
<stop stop-color="#E3E8EB"/>
<stop offset="1" stop-color="#E3E8EB" stop-opacity="0"/>
</linearGradient>
<linearGradient id="paint1_linear_286_5271" x1="84" y1="8" x2="150.325" y2="116.955" gradientUnits="userSpaceOnUse">
<stop stop-color="white"/>
<stop offset="1" stop-color="#F9F9F9"/>
</linearGradient>
<linearGradient id="paint2_linear_286_5271" x1="35" y1="48" x2="75" y2="88" gradientUnits="userSpaceOnUse">
<stop stop-color="#4DC9AA"/>
<stop offset="1" stop-color="#4FC94D"/>
</linearGradient>
</defs>
</svg>
