<svg width="240" height="140" viewBox="0 0 240 140" fill="none" xmlns="http://www.w3.org/2000/svg">
<rect width="240" height="140" fill="#F1F4F6"/>
<mask id="mask0_286_5181" style="mask-type:alpha" maskUnits="userSpaceOnUse" x="0" y="0" width="240" height="140">
<rect width="240" height="140" fill="#F1F4F6"/>
</mask>
<g mask="url(#mask0_286_5181)">
<g opacity="0.4">
<circle cx="120" cy="112" r="94" fill="#EDF7FF"/>
<circle cx="120" cy="112" r="78" fill="#DCEEFF"/>
<circle opacity="0.8" cx="120" cy="112" r="62" fill="#AFD9FF"/>
<circle cx="120" cy="112" r="46" fill="#8DCAFF"/>
</g>
<g filter="url(#filter0_d_286_5181)">
<rect x="88" y="60" width="64" height="100" rx="8" fill="url(#paint0_linear_286_5181)"/>
</g>
<circle cx="120" cy="112" r="16" fill="#3299FE"/>
<path fill-rule="evenodd" clip-rule="evenodd" d="M127.533 106.396C128.134 106.944 128.158 107.855 127.587 108.431L119.035 117.068C118.749 117.357 118.352 117.519 117.938 117.516C117.524 117.514 117.129 117.347 116.847 117.055L112.4 112.449C111.837 111.865 111.873 110.955 112.481 110.414C113.088 109.874 114.037 109.909 114.6 110.492L117.961 113.973L125.413 106.448C125.983 105.872 126.933 105.848 127.533 106.396Z" fill="white"/>
<g filter="url(#filter1_d_286_5181)">
<rect x="98" y="2" width="44" height="44" rx="16" fill="url(#paint1_linear_286_5181)"/>
</g>
<g filter="url(#filter2_d_286_5181)">
<rect x="166" y="62" width="44" height="44" rx="16" fill="url(#paint2_linear_286_5181)"/>
</g>
<g filter="url(#filter3_d_286_5181)">
<rect x="30" y="38" width="44" height="44" rx="16" fill="url(#paint3_linear_286_5181)"/>
</g>
<path fill-rule="evenodd" clip-rule="evenodd" d="M51.678 57.4171C52.0834 57.3319 52.4811 57.5915 52.5662 57.9968C52.5833 58.0783 52.5878 58.169 52.5896 58.2062C52.5897 58.2075 52.5897 58.2087 52.5898 58.2098C52.5926 58.2675 52.5947 58.3371 52.5962 58.4128C52.5992 58.5652 52.6005 58.7613 52.6006 58.9758C52.6009 59.406 52.5966 59.9251 52.5918 60.349L51.8418 60.3405L52.5918 60.3471C52.59 60.5499 52.6998 60.7563 52.9137 60.8808C53.1139 60.9977 53.3467 61.1432 53.5312 61.2914C53.6198 61.3625 53.7326 61.462 53.8244 61.5843C53.8869 61.6675 54.1051 61.9754 53.9856 62.3765C53.9113 62.6258 53.741 62.7807 53.6679 62.843C53.5737 62.9232 53.4702 62.9889 53.381 63.04C53.2003 63.1436 52.9883 63.2381 52.8029 63.314C52.6129 63.3918 52.4284 63.4592 52.2929 63.5067C52.2247 63.5306 52.1679 63.5498 52.1276 63.5633L52.0801 63.579L52.0667 63.5833L52.0616 63.5849C52.0616 63.585 52.0609 63.5852 51.8322 62.8709L52.0616 63.5849C51.6671 63.7112 51.2442 63.494 51.1179 63.0996C50.9917 62.7051 51.209 62.283 51.6033 62.1567L51.6055 62.156L51.6148 62.1529L51.6534 62.1402C51.6874 62.1289 51.7369 62.1121 51.7967 62.0911C51.8422 62.0752 51.8931 62.057 51.9473 62.0371C51.4155 61.6393 51.0859 61.0171 51.0919 60.3339L51.0919 60.332C51.0967 59.9105 51.1009 59.3982 51.1006 58.9768C51.1005 58.7655 51.0992 58.5807 51.0965 58.4428C51.0951 58.3733 51.0934 58.3204 51.0916 58.2839C51.0911 58.2738 51.0906 58.2662 51.0903 58.2608C51.0323 57.8712 51.2875 57.4991 51.678 57.4171Z" fill="white"/>
<path fill-rule="evenodd" clip-rule="evenodd" d="M48.0411 64.7981C47.7273 65.4793 47.7276 65.4794 47.7278 65.4796L47.7299 65.4805L47.734 65.4824L47.7466 65.488C47.757 65.4927 47.7713 65.499 47.7894 65.5069C47.8256 65.5226 47.877 65.5444 47.9425 65.571C48.0734 65.6241 48.261 65.6962 48.4962 65.7766C48.9658 65.937 49.6304 66.1315 50.4171 66.2707C51.9793 66.547 54.0908 66.6164 56.1131 65.6898C56.4896 65.5173 56.655 65.0721 56.4825 64.6956C56.31 64.319 55.8648 64.1536 55.4882 64.3261C53.8489 65.0772 52.0806 65.0417 50.6784 64.7936C49.983 64.6706 49.3942 64.4982 48.981 64.3571C48.7749 64.2867 48.6137 64.2245 48.5062 64.1809C48.4524 64.1591 48.4122 64.142 48.3866 64.1309L48.3594 64.1189L48.3542 64.1166C48.3538 64.1164 48.3541 64.1165 48.3542 64.1166C47.9781 63.9436 47.5331 64.1083 47.3599 64.4843C47.1866 64.8606 47.3516 65.3063 47.7278 65.4796L48.0411 64.7981Z" fill="white"/>
<path fill-rule="evenodd" clip-rule="evenodd" d="M49.3052 58.263C49.3052 58.871 48.9745 59.3644 48.5671 59.3644C48.1597 59.3644 47.8301 58.871 47.8301 58.263C47.8301 57.655 48.1597 57.1616 48.5671 57.1616C48.9745 57.1616 49.3052 57.655 49.3052 58.263Z" fill="white"/>
<path fill-rule="evenodd" clip-rule="evenodd" d="M55.8345 58.263C55.8345 58.871 55.5038 59.3644 55.0964 59.3644C54.689 59.3644 54.3594 58.871 54.3594 58.263C54.3594 57.655 54.689 57.1616 55.0964 57.1616C55.5038 57.1616 55.8345 57.655 55.8345 58.263Z" fill="white"/>
<path fill-rule="evenodd" clip-rule="evenodd" d="M46.7021 55.0353L46.1524 54.5198C45.8699 54.82 45.887 55.2941 46.1907 55.5788C46.4926 55.862 46.9643 55.8511 47.2473 55.5557C47.2473 55.5557 47.2473 55.5557 47.2473 55.5557C47.2477 55.5553 47.2484 55.5546 47.2494 55.5537C47.2536 55.5494 47.2629 55.5405 47.277 55.5277C47.3053 55.5021 47.3523 55.4617 47.4168 55.4139C47.5467 55.3176 47.741 55.1957 47.9897 55.1007C48.4681 54.9178 49.1863 54.8163 50.1229 55.2681C50.4976 55.4489 50.9454 55.2938 51.123 54.9217C51.3006 54.5496 51.1408 54.1014 50.7661 53.9206C49.4143 53.2684 48.2613 53.3873 47.4407 53.701C47.0399 53.8542 46.7276 54.0496 46.5134 54.2084C46.4058 54.2882 46.3214 54.3599 46.2612 54.4145C46.231 54.4418 46.2068 54.465 46.1887 54.4829C46.1796 54.4918 46.172 54.4994 46.166 54.5056L46.158 54.5139L46.1549 54.5171L46.1536 54.5185L46.153 54.5192C46.1527 54.5195 46.1524 54.5198 46.7021 55.0353Z" fill="white"/>
<path fill-rule="evenodd" clip-rule="evenodd" d="M58.3197 54.5472C58.32 54.5475 58.3203 54.5478 57.7823 55.0346L58.3203 54.5478C58.5973 54.8527 58.5714 55.3263 58.2626 55.6058C57.9554 55.8837 57.484 55.8649 57.2063 55.5648C57.2063 55.5648 57.2063 55.5648 57.2063 55.5648C57.2063 55.5648 57.2063 55.5648 57.2063 55.5648C57.2063 55.5647 57.2063 55.5647 57.2063 55.5647C57.2059 55.5643 57.2052 55.5636 57.2043 55.5627C57.2001 55.5584 57.191 55.5493 57.1772 55.5363C57.1494 55.5102 57.1031 55.469 57.0395 55.4201C56.9113 55.3216 56.7193 55.1966 56.4724 55.0974C55.9975 54.9066 55.2814 54.7931 54.3368 55.2291C53.9588 55.4036 53.5138 55.2411 53.3429 54.8662C53.1719 54.4913 53.3398 54.0458 53.7178 53.8713C55.0813 53.2418 56.2321 53.3801 57.047 53.7075C57.445 53.8673 57.7537 54.068 57.965 54.2304C58.0711 54.312 58.1542 54.3851 58.2134 54.4407C58.243 54.4685 58.2668 54.492 58.2846 54.5102C58.2935 54.5193 58.301 54.5271 58.3069 54.5334L58.3147 54.5417L58.3178 54.5451L58.3191 54.5465L58.3197 54.5472Z" fill="white"/>
<path fill-rule="evenodd" clip-rule="evenodd" d="M57.8887 47.9854C57.8887 47.5711 58.2245 47.2354 58.6387 47.2354H61.9581C63.4482 47.2354 64.7508 48.3713 64.7508 49.8851V53.2096C64.7508 53.6238 64.415 53.9596 64.0008 53.9596C63.5866 53.9596 63.2508 53.6238 63.2508 53.2096V49.8851C63.2508 49.3004 62.7242 48.7354 61.9581 48.7354H58.6387C58.2245 48.7354 57.8887 48.3996 57.8887 47.9854Z" fill="white"/>
<path fill-rule="evenodd" clip-rule="evenodd" d="M57.8887 71.0195C57.8887 71.4337 58.2245 71.7695 58.6387 71.7695H61.9581C63.4482 71.7695 64.7508 70.6335 64.7508 69.1198V65.7953C64.7508 65.3811 64.415 65.0453 64.0008 65.0453C63.5866 65.0453 63.2508 65.3811 63.2508 65.7953V69.1198C63.2508 69.7045 62.7242 70.2695 61.9581 70.2695H58.6387C58.2245 70.2695 57.8887 70.6053 57.8887 71.0195Z" fill="white"/>
<path fill-rule="evenodd" clip-rule="evenodd" d="M46.1113 47.9854C46.1113 47.5711 45.7755 47.2354 45.3613 47.2354H42.0419C40.5518 47.2354 39.2492 48.3713 39.2492 49.8851V53.2096C39.2492 53.6238 39.585 53.9596 39.9992 53.9596C40.4134 53.9596 40.7492 53.6238 40.7492 53.2096V49.8851C40.7492 49.3004 41.2758 48.7354 42.0419 48.7354H45.3613C45.7755 48.7354 46.1113 48.3996 46.1113 47.9854Z" fill="white"/>
<path fill-rule="evenodd" clip-rule="evenodd" d="M46.1113 71.0195C46.1113 71.4337 45.7755 71.7695 45.3613 71.7695H42.0419C40.5518 71.7695 39.2492 70.6335 39.2492 69.1198V65.7953C39.2492 65.3811 39.585 65.0453 39.9992 65.0453C40.4134 65.0453 40.7492 65.3811 40.7492 65.7953V69.1198C40.7492 69.7045 41.2758 70.2695 42.0419 70.2695H45.3613C45.7755 70.2695 46.1113 70.6053 46.1113 71.0195Z" fill="white"/>
<path fill-rule="evenodd" clip-rule="evenodd" d="M188 73C182.486 73 178 77.2989 178 82.5833C178 85.1555 179.051 87.5715 180.955 89.3824L187.645 95.8577C187.738 95.949 187.866 96 188 96C188.134 96 188.262 95.949 188.355 95.8577L195.042 89.3857C196.949 87.5715 198 85.1555 198 82.5833C198 77.2989 193.514 73 188 73ZM188 86.1429C185.702 86.1429 183.833 84.3005 183.833 82.0358C183.833 79.7711 185.702 77.9287 188 77.9287C190.298 77.9287 192.167 79.7711 192.167 82.0358C192.167 84.3004 190.298 86.1429 188 86.1429Z" fill="white"/>
<path fill-rule="evenodd" clip-rule="evenodd" d="M131.406 20.7858C131.582 20.5962 131.585 20.3029 131.407 20.1151C128.407 16.9509 124.3 15 119.769 15C115.239 15 111.132 16.9501 108.132 20.113C107.954 20.3008 107.957 20.5941 108.133 20.7837L109.588 22.3497C109.788 22.5655 110.13 22.5615 110.335 22.3495C112.781 19.8146 116.106 18.2559 119.77 18.2559C123.433 18.2559 126.759 19.8149 129.205 22.3505C129.41 22.5625 129.752 22.5665 129.952 22.3506L131.406 20.7858ZM112.282 24.5522C112.089 24.7354 112.086 25.0394 112.267 25.2346L113.729 26.8082C113.922 27.0165 114.25 27.0206 114.462 26.831C115.902 25.543 117.753 24.7685 119.771 24.7685C121.79 24.7685 123.64 25.5427 125.08 26.8304C125.292 27.0199 125.619 27.0159 125.813 26.8076L127.273 25.2358C127.454 25.0407 127.451 24.7368 127.258 24.5536C125.26 22.6607 122.639 21.5127 119.769 21.5127C116.9 21.5127 114.279 22.6602 112.282 24.5522ZM123.273 29.542C123.491 29.3069 123.435 28.929 123.145 28.7903C122.114 28.2963 120.971 28.0218 119.769 28.0218C118.568 28.0218 117.426 28.296 116.395 28.7896C116.106 28.9282 116.049 29.3061 116.267 29.5413L119.404 32.9184C119.602 33.1314 119.939 33.1314 120.137 32.9184L123.273 29.542Z" fill="white"/>
<path d="M108.859 83.0976C110.495 83.0976 111.452 81.7792 111.457 79.4648C111.452 77.165 110.48 75.832 108.859 75.832C107.233 75.832 106.262 77.165 106.262 79.4648C106.262 81.7792 107.224 83.0976 108.859 83.0976ZM107.336 79.4648C107.336 77.707 107.907 76.7451 108.859 76.7402C109.807 76.7451 110.383 77.707 110.383 79.4648C110.383 81.2275 109.812 82.1699 108.859 82.1699C107.902 82.1699 107.331 81.2275 107.336 79.4648Z" fill="#555555"/>
<path d="M115.002 75.832C113.464 75.8222 112.463 76.8769 112.463 78.2246C112.463 79.5771 113.479 80.5488 114.748 80.5488C115.51 80.5488 116.174 80.1874 116.555 79.5917H116.643C116.633 81.208 115.993 82.1552 114.904 82.1601C114.191 82.1552 113.732 81.7402 113.586 81.1445H112.521C112.692 82.2919 113.601 83.0976 114.904 83.0976C116.599 83.0976 117.668 81.6914 117.668 79.2109C117.663 76.623 116.301 75.8417 115.002 75.832ZM113.508 78.205C113.503 77.3945 114.147 76.7304 115.002 76.7304C115.866 76.7304 116.496 77.4287 116.496 78.1953C116.496 78.9765 115.837 79.6747 114.982 79.6699C114.123 79.6747 113.513 79.0253 113.508 78.205Z" fill="#555555"/>
<path d="M119.494 82.121C119.87 82.1162 120.183 81.8085 120.188 81.4277C120.183 81.0468 119.87 80.7343 119.494 80.7343C119.113 80.7343 118.796 81.0468 118.801 81.4277C118.796 81.8085 119.113 82.1162 119.494 82.121ZM118.801 77.8925C118.796 78.2734 119.113 78.581 119.494 78.5859C119.87 78.581 120.183 78.2734 120.188 77.8925C120.183 77.5117 119.87 77.1992 119.494 77.1992C119.113 77.1992 118.796 77.5117 118.801 77.8925Z" fill="#555555"/>
<path d="M123.947 83.0976C125.412 83.0976 126.501 82.2333 126.496 81.0566C126.501 80.163 125.939 79.5136 124.973 79.3769V79.3281C125.734 79.1376 126.232 78.5615 126.223 77.7558C126.232 76.7109 125.358 75.832 123.967 75.832C122.648 75.832 121.584 76.6132 121.555 77.7656H122.59C122.614 77.1259 123.249 76.7304 123.957 76.7304C124.704 76.7304 125.188 77.1699 125.188 77.8144C125.188 78.4931 124.626 78.9423 123.82 78.9374H123.215V79.8164H123.82C124.831 79.8212 125.412 80.3193 125.412 81.0175C125.412 81.706 124.792 82.1699 123.938 82.1699C123.146 82.1699 122.531 81.7744 122.492 81.1542H121.398C121.442 82.3115 122.482 83.0976 123.947 83.0976Z" fill="#555555"/>
<path d="M130.139 83.0976C131.774 83.0976 132.731 81.7792 132.736 79.4648C132.731 77.165 131.76 75.832 130.139 75.832C128.513 75.832 127.541 77.165 127.541 79.4648C127.541 81.7792 128.503 83.0976 130.139 83.0976ZM128.615 79.4648C128.615 77.707 129.187 76.7451 130.139 76.7402C131.086 76.7451 131.662 77.707 131.662 79.4648C131.662 81.2275 131.091 82.1699 130.139 82.1699C129.182 82.1699 128.61 81.2275 128.615 79.4648Z" fill="#555555"/>
</g>
<defs>
<filter id="filter0_d_286_5181" x="76" y="56" width="88" height="124" filterUnits="userSpaceOnUse" color-interpolation-filters="sRGB">
<feFlood flood-opacity="0" result="BackgroundImageFix"/>
<feColorMatrix in="SourceAlpha" type="matrix" values="0 0 0 0 0 0 0 0 0 0 0 0 0 0 0 0 0 0 127 0" result="hardAlpha"/>
<feOffset dy="8"/>
<feGaussianBlur stdDeviation="6"/>
<feComposite in2="hardAlpha" operator="out"/>
<feColorMatrix type="matrix" values="0 0 0 0 0 0 0 0 0 0 0 0 0 0 0 0 0 0 0.16 0"/>
<feBlend mode="normal" in2="BackgroundImageFix" result="effect1_dropShadow_286_5181"/>
<feBlend mode="normal" in="SourceGraphic" in2="effect1_dropShadow_286_5181" result="shape"/>
</filter>
<filter id="filter1_d_286_5181" x="90" y="2" width="60" height="60" filterUnits="userSpaceOnUse" color-interpolation-filters="sRGB">
<feFlood flood-opacity="0" result="BackgroundImageFix"/>
<feColorMatrix in="SourceAlpha" type="matrix" values="0 0 0 0 0 0 0 0 0 0 0 0 0 0 0 0 0 0 127 0" result="hardAlpha"/>
<feMorphology radius="8" operator="erode" in="SourceAlpha" result="effect1_dropShadow_286_5181"/>
<feOffset dy="8"/>
<feGaussianBlur stdDeviation="8"/>
<feComposite in2="hardAlpha" operator="out"/>
<feColorMatrix type="matrix" values="0 0 0 0 0 0 0 0 0 0 0 0 0 0 0 0 0 0 0.25 0"/>
<feBlend mode="normal" in2="BackgroundImageFix" result="effect1_dropShadow_286_5181"/>
<feBlend mode="normal" in="SourceGraphic" in2="effect1_dropShadow_286_5181" result="shape"/>
</filter>
<filter id="filter2_d_286_5181" x="158" y="62" width="60" height="60" filterUnits="userSpaceOnUse" color-interpolation-filters="sRGB">
<feFlood flood-opacity="0" result="BackgroundImageFix"/>
<feColorMatrix in="SourceAlpha" type="matrix" values="0 0 0 0 0 0 0 0 0 0 0 0 0 0 0 0 0 0 127 0" result="hardAlpha"/>
<feMorphology radius="8" operator="erode" in="SourceAlpha" result="effect1_dropShadow_286_5181"/>
<feOffset dy="8"/>
<feGaussianBlur stdDeviation="8"/>
<feComposite in2="hardAlpha" operator="out"/>
<feColorMatrix type="matrix" values="0 0 0 0 0 0 0 0 0 0 0 0 0 0 0 0 0 0 0.25 0"/>
<feBlend mode="normal" in2="BackgroundImageFix" result="effect1_dropShadow_286_5181"/>
<feBlend mode="normal" in="SourceGraphic" in2="effect1_dropShadow_286_5181" result="shape"/>
</filter>
<filter id="filter3_d_286_5181" x="22" y="38" width="60" height="60" filterUnits="userSpaceOnUse" color-interpolation-filters="sRGB">
<feFlood flood-opacity="0" result="BackgroundImageFix"/>
<feColorMatrix in="SourceAlpha" type="matrix" values="0 0 0 0 0 0 0 0 0 0 0 0 0 0 0 0 0 0 127 0" result="hardAlpha"/>
<feMorphology radius="8" operator="erode" in="SourceAlpha" result="effect1_dropShadow_286_5181"/>
<feOffset dy="8"/>
<feGaussianBlur stdDeviation="8"/>
<feComposite in2="hardAlpha" operator="out"/>
<feColorMatrix type="matrix" values="0 0 0 0 0 0 0 0 0 0 0 0 0 0 0 0 0 0 0.25 0"/>
<feBlend mode="normal" in2="BackgroundImageFix" result="effect1_dropShadow_286_5181"/>
<feBlend mode="normal" in="SourceGraphic" in2="effect1_dropShadow_286_5181" result="shape"/>
</filter>
<linearGradient id="paint0_linear_286_5181" x1="88" y1="60" x2="152" y2="160" gradientUnits="userSpaceOnUse">
<stop stop-color="white"/>
<stop offset="1" stop-color="#F9F9F9"/>
</linearGradient>
<linearGradient id="paint1_linear_286_5181" x1="98" y1="2" x2="142" y2="46" gradientUnits="userSpaceOnUse">
<stop stop-color="#4DC9AA"/>
<stop offset="1" stop-color="#4DC970"/>
</linearGradient>
<linearGradient id="paint2_linear_286_5181" x1="166" y1="62" x2="210" y2="106" gradientUnits="userSpaceOnUse">
<stop stop-color="#59B2E4"/>
<stop offset="1" stop-color="#5699D9"/>
</linearGradient>
<linearGradient id="paint3_linear_286_5181" x1="30" y1="38" x2="74" y2="82" gradientUnits="userSpaceOnUse">
<stop stop-color="#66B5FF"/>
<stop offset="1" stop-color="#6688FF"/>
</linearGradient>
</defs>
</svg>
