<svg width="240" height="153" viewBox="0 0 240 153" fill="none" xmlns="http://www.w3.org/2000/svg">
<rect y="13" width="240" height="140" fill="#F1F4F6"/>
<path opacity="0.6" d="M31 21C27.6863 21 25 23.6718 25 26.9676V109.519C25 110.302 25.1518 111.051 25.4277 111.736L27.6569 109.519L31.1569 113L34.6569 109.519L38.1569 113L41.6569 109.519L45.1569 113L48.6569 109.519L52.1569 113L55.6569 109.519L59.1569 113L62.6569 109.519L66.1569 113L69.6569 109.519L73.1569 113L76.6569 109.519L80.1569 113L83.6569 109.519L87.1569 113L90.6569 109.519L94.1569 113L97.6569 109.519L101.157 113L104.657 109.519L106.658 111.509C106.88 110.887 107 110.217 107 109.519V26.9676C107 23.6718 104.314 21 101 21H31Z" fill="#E1E8ED"/>
<rect opacity="0.15" x="33" y="28" width="26" height="5" rx="1" fill="#8092AA"/>
<rect opacity="0.15" x="33" y="58" width="13" height="5" rx="1" fill="#8092AA"/>
<rect opacity="0.15" x="33" y="68" width="21" height="5" rx="1" fill="#8092AA"/>
<rect opacity="0.15" x="33" y="78" width="21" height="5" rx="1" fill="#8092AA"/>
<rect opacity="0.15" x="66" y="58" width="34" height="5" rx="1" fill="#8092AA"/>
<rect opacity="0.15" x="69" y="68" width="31" height="5" rx="1" fill="#8092AA"/>
<rect opacity="0.15" x="64" y="78" width="36" height="5" rx="1" fill="#8092AA"/>
<path d="M35.8555 40.3438H34.7461L33.3477 41.2344V42.2734L34.6445 41.4609H34.6758V46H35.8555V40.3438Z" fill="#555555"/>
<path d="M37.0742 45H39.8242V46H40.9414V45H41.6602V44.0547H40.9414V40.3438H39.4648L37.0742 44.0703V45ZM38.2617 44.0547V44.0078L39.7852 41.6328H39.8398V44.0547H38.2617Z" fill="#555555"/>
<path d="M46.3096 42.4648V44.7012C46.312 45.1089 46.0239 45.4019 45.582 45.4043C45.145 45.4019 44.8569 45.1089 44.8545 44.7012V42.4648H44.1221V44.7598C44.1221 45.5337 44.7031 46.0513 45.582 46.0488C46.4585 46.0513 47.0469 45.5337 47.0469 44.7598V42.4648H46.3096Z" fill="#555555"/>
<path d="M49.5615 43.4756H50.2646C50.2549 42.8506 49.7397 42.416 48.9561 42.416C48.1821 42.416 47.6157 42.8433 47.6182 43.4854C47.6182 44.0029 47.9844 44.3008 48.5801 44.4473L48.9658 44.54C49.3516 44.6353 49.5713 44.7476 49.5713 44.9893C49.5713 45.2529 49.3223 45.4336 48.9365 45.4336C48.5459 45.4336 48.2627 45.2529 48.2383 44.8965H47.5254C47.5474 45.6558 48.0918 46.0513 48.9463 46.0488C49.8081 46.0513 50.311 45.6362 50.3135 44.9893C50.311 44.4009 49.8594 44.0933 49.2539 43.9541L48.9365 43.876C48.6313 43.8076 48.3677 43.6929 48.3701 43.4365C48.3726 43.2021 48.5801 43.0312 48.9512 43.0312C49.3101 43.0312 49.5322 43.1948 49.5615 43.4756Z" fill="#555555"/>
<path d="M52.0371 46C53.1162 46 53.7681 45.3335 53.7656 44.2275C53.7681 43.1265 53.1162 42.4648 52.0518 42.4648H50.792V46H52.0371ZM51.5244 45.3701V43.0947H52.0127C52.6816 43.0947 53.0332 43.4414 53.0332 44.2275C53.0332 45.021 52.6816 45.3701 52.0078 45.3701H51.5244Z" fill="#555555"/>
<path fill-rule="evenodd" clip-rule="evenodd" d="M101 56H65C64.4477 56 64 56.4477 64 57V64C64 64.5523 64.4477 65 65 65H101C101.552 65 102 64.5523 102 64V57C102 56.4477 101.552 56 101 56ZM65 55C63.8954 55 63 55.8954 63 57V64C63 65.1046 63.8954 66 65 66H101C102.105 66 103 65.1046 103 64V57C103 55.8954 102.105 55 101 55H65Z" fill="#8092AA"/>
<path fill-rule="evenodd" clip-rule="evenodd" d="M61 37H32C31.4477 37 31 37.4477 31 38V48C31 48.5523 31.4477 49 32 49H61C61.5523 49 62 48.5523 62 48V38C62 37.4477 61.5523 37 61 37ZM32 36C30.8954 36 30 36.8954 30 38V48C30 49.1046 30.8954 50 32 50H61C62.1046 50 63 49.1046 63 48V38C63 36.8954 62.1046 36 61 36H32Z" fill="#8092AA"/>
<path fill-rule="evenodd" clip-rule="evenodd" d="M101 76H62C61.4477 76 61 76.4477 61 77V84C61 84.5523 61.4477 85 62 85H101C101.552 85 102 84.5523 102 84V77C102 76.4477 101.552 76 101 76ZM62 75C60.8954 75 60 75.8954 60 77V84C60 85.1046 60.8954 86 62 86H101C102.105 86 103 85.1046 103 84V77C103 75.8954 102.105 75 101 75H62Z" fill="#8092AA"/>
<g opacity="0.8">
<path d="M111 33L111 25C111 20.5817 107.418 17 103 17L95 17" stroke="#CCCCCC" stroke-width="2" stroke-linecap="round" stroke-linejoin="round"/>
<path d="M37 17H29C24.5817 17 21 20.5817 21 25V33" stroke="#CCCCCC" stroke-width="2" stroke-linecap="round" stroke-linejoin="round"/>
<path d="M95 98L103 98C107.418 98 111 94.4183 111 90L111 82" stroke="#3299FE" stroke-width="2" stroke-linecap="round" stroke-linejoin="round"/>
<path d="M21 82L21 90C21 94.4183 24.5817 98 29 98L37 98" stroke="#CCCCCC" stroke-width="2" stroke-linecap="round" stroke-linejoin="round"/>
</g>
<rect x="93" y="27" width="97" height="125" rx="12" fill="url(#paint0_linear_286_5590)"/>
<rect x="101" y="83" width="58" height="16" rx="4" fill="#F9F9F9"/>
<rect x="101" y="118" width="82" height="16" rx="4" fill="#F9F9F9"/>
<rect x="101" y="48" width="82" height="16" rx="4" fill="#F9F9F9"/>
<rect opacity="0.3" x="102" y="109" width="26" height="5" rx="1" fill="#8092AA"/>
<rect opacity="0.3" x="102" y="39" width="26" height="5" rx="1" fill="#8092AA"/>
<rect opacity="0.3" x="102" y="74" width="20" height="5" rx="1" fill="#8092AA"/>
<path d="M108.883 88.3438H107.773L106.375 89.2344V90.2734L107.672 89.4609H107.703V94H108.883V88.3438Z" fill="#555555"/>
<path d="M110.102 93H112.852V94H113.969V93H114.688V92.0547H113.969V88.3438H112.492L110.102 92.0703V93ZM111.289 92.0547V92.0078L112.812 89.6328H112.867V92.0547H111.289Z" fill="#555555"/>
<path d="M168.82 88.3438V91.9219C168.824 92.5742 168.363 93.043 167.656 93.0469C166.957 93.043 166.496 92.5742 166.492 91.9219V88.3438H165.32V92.0156C165.32 93.2539 166.25 94.082 167.656 94.0781C169.059 94.082 170 93.2539 170 92.0156V88.3438H168.82Z" fill="#555555"/>
<path d="M174.023 89.9609H175.148C175.133 88.9609 174.309 88.2656 173.055 88.2656C171.816 88.2656 170.91 88.9492 170.914 89.9766C170.914 90.8047 171.5 91.2812 172.453 91.5156L173.07 91.6641C173.688 91.8164 174.039 91.9961 174.039 92.3828C174.039 92.8047 173.641 93.0938 173.023 93.0938C172.398 93.0938 171.945 92.8047 171.906 92.2344H170.766C170.801 93.4492 171.672 94.082 173.039 94.0781C174.418 94.082 175.223 93.418 175.227 92.3828C175.223 91.4414 174.5 90.9492 173.531 90.7266L173.023 90.6016C172.535 90.4922 172.113 90.3086 172.117 89.8984C172.121 89.5234 172.453 89.25 173.047 89.25C173.621 89.25 173.977 89.5117 174.023 89.9609Z" fill="#555555"/>
<path d="M177.984 94C179.711 94 180.754 92.9336 180.75 91.1641C180.754 89.4023 179.711 88.3438 178.008 88.3438H175.992V94H177.984ZM177.164 92.9922V89.3516H177.945C179.016 89.3516 179.578 89.9062 179.578 91.1641C179.578 92.4336 179.016 92.9922 177.938 92.9922H177.164Z" fill="#555555"/>
<path d="M108.523 59.0781C109.797 59.0781 110.664 58.2617 110.664 57.1172C110.664 56.0312 109.891 55.2539 108.852 55.2578C108.355 55.2539 107.926 55.457 107.719 55.7344H107.672L107.828 54.3047H110.344V53.3438H106.859L106.555 56.6016H107.617C107.785 56.2852 108.082 56.125 108.508 56.125C109.102 56.1289 109.527 56.5469 109.523 57.1484C109.527 57.7383 109.109 58.1523 108.523 58.1484C108.031 58.1523 107.629 57.8477 107.602 57.4062H106.461C106.48 58.3828 107.344 59.0781 108.523 59.0781Z" fill="#555555"/>
<path d="M113.914 53.0781H112.914L111.094 59.8516H112.086L113.914 53.0781Z" fill="#555555"/>
<path d="M116.523 59.0781C117.801 59.0781 118.719 58.3828 118.711 57.4141C118.719 56.707 118.262 56.2031 117.43 56.1016V56.0547C118.062 55.9414 118.504 55.4922 118.5 54.8594C118.504 53.9648 117.719 53.2656 116.539 53.2656C115.379 53.2656 114.504 53.9414 114.484 54.9141H115.609C115.629 54.4805 116.039 54.1992 116.539 54.2031C117.039 54.1992 117.371 54.4961 117.367 54.9297C117.371 55.375 116.98 55.6797 116.422 55.6797H115.898V56.5469H116.422C117.086 56.5508 117.496 56.875 117.492 57.3359C117.496 57.793 117.094 58.1055 116.531 58.1094C115.984 58.1055 115.574 57.8281 115.555 57.4062H114.367C114.391 58.3945 115.281 59.0781 116.523 59.0781Z" fill="#555555"/>
<path d="M121.977 53.3438H120.867L119.469 54.2344V55.2734L120.766 54.4609H120.797V59H121.977V53.3438Z" fill="#555555"/>
<path d="M127.57 53.3438H126.461L125.062 54.2344V55.2734L126.359 54.4609H126.391V59H127.57V53.3438Z" fill="#555555"/>
<path d="M131.078 59.0781C132.492 59.0781 133.352 58.0312 133.352 56.1719C133.352 54.3242 132.488 53.2656 131.078 53.2656C129.668 53.2656 128.805 54.3242 128.805 56.1719C128.805 58.0234 129.66 59.0781 131.078 59.0781ZM130.008 56.1719C130.008 54.8789 130.426 54.2305 131.078 54.2266C131.73 54.2305 132.152 54.8789 132.148 56.1719C132.152 57.4766 131.734 58.1094 131.078 58.1094C130.422 58.1094 130 57.4766 130.008 56.1719Z" fill="#555555"/>
<path d="M134.852 58.3438C135.199 58.3438 135.5 58.0508 135.5 57.6875C135.5 57.3281 135.199 57.0352 134.852 57.0391C134.484 57.0352 134.188 57.3281 134.195 57.6875C134.188 58.0508 134.484 58.3438 134.852 58.3438ZM134.195 54.9062C134.188 55.2695 134.484 55.5625 134.852 55.5625C135.199 55.5625 135.5 55.2695 135.5 54.9062C135.5 54.5469 135.199 54.2539 134.852 54.2578C134.484 54.2539 134.188 54.5469 134.195 54.9062Z" fill="#555555"/>
<path d="M138.859 53.3438H137.75L136.352 54.2344V55.2734L137.648 54.4609H137.68V59H138.859V53.3438Z" fill="#555555"/>
<path d="M142.266 59.0781C143.543 59.0781 144.461 58.3828 144.453 57.4141C144.461 56.707 144.004 56.2031 143.172 56.1016V56.0547C143.805 55.9414 144.246 55.4922 144.242 54.8594C144.246 53.9648 143.461 53.2656 142.281 53.2656C141.121 53.2656 140.246 53.9414 140.227 54.9141H141.352C141.371 54.4805 141.781 54.1992 142.281 54.2031C142.781 54.1992 143.113 54.4961 143.109 54.9297C143.113 55.375 142.723 55.6797 142.164 55.6797H141.641V56.5469H142.164C142.828 56.5508 143.238 56.875 143.234 57.3359C143.238 57.793 142.836 58.1055 142.273 58.1094C141.727 58.1055 141.316 57.8281 141.297 57.4062H140.109C140.133 58.3945 141.023 59.0781 142.266 59.0781Z" fill="#555555"/>
<g filter="url(#filter0_d_286_5590)">
<rect x="144" y="121" width="74" height="24" rx="12" fill="#3299FE"/>
<rect opacity="0.6" x="161" y="130" width="34" height="6" rx="2" fill="#84C2FC"/>
<path fill-rule="evenodd" clip-rule="evenodd" d="M208.53 132.47C208.823 132.763 208.823 133.237 208.53 133.53L204.53 137.53C204.237 137.823 203.763 137.823 203.47 137.53C203.177 137.237 203.177 136.763 203.47 136.47L206.939 133L203.47 129.53C203.177 129.237 203.177 128.763 203.47 128.47C203.763 128.177 204.237 128.177 204.53 128.47L208.53 132.47Z" fill="white"/>
</g>
<rect x="106" y="124" width="26" height="4" rx="1" fill="#D6E9FB"/>
<g filter="url(#filter1_d_286_5590)">
<circle cx="183.5" cy="38.5" r="22.5" fill="white"/>
</g>
<path fill-rule="evenodd" clip-rule="evenodd" d="M180 29.5C178.895 29.5 178 30.3954 178 31.5H175.67C173.643 31.5 172 33.1281 172 35.1364V43.8636C172 45.8719 173.643 47.5 175.67 47.5H191.33C193.357 47.5 195 45.8719 195 43.8636V35.1364C195 33.1281 193.357 31.5 191.33 31.5H189C189 30.3954 188.105 29.5 187 29.5H180Z" fill="#555555"/>
<path fill-rule="evenodd" clip-rule="evenodd" d="M188.5 39.501C188.5 36.7396 186.261 34.501 183.5 34.501C180.739 34.501 178.5 36.7396 178.5 39.501C178.5 42.2624 180.739 44.501 183.5 44.501C186.261 44.501 188.5 42.2624 188.5 39.501ZM180.5 39.5C180.5 37.8431 181.843 36.5 183.5 36.5C185.157 36.5 186.5 37.8431 186.5 39.5C186.5 41.1568 185.157 42.5 183.5 42.5C181.843 42.5 180.5 41.1568 180.5 39.5Z" fill="white"/>
<ellipse cx="175.67" cy="35.4241" rx="0.978723" ry="1.02568" fill="white"/>
<defs>
<filter id="filter0_d_286_5590" x="140" y="121" width="82" height="32" filterUnits="userSpaceOnUse" color-interpolation-filters="sRGB">
<feFlood flood-opacity="0" result="BackgroundImageFix"/>
<feColorMatrix in="SourceAlpha" type="matrix" values="0 0 0 0 0 0 0 0 0 0 0 0 0 0 0 0 0 0 127 0" result="hardAlpha"/>
<feOffset dy="4"/>
<feGaussianBlur stdDeviation="2"/>
<feComposite in2="hardAlpha" operator="out"/>
<feColorMatrix type="matrix" values="0 0 0 0 0.247969 0 0 0 0 0.558247 0 0 0 0 0.8625 0 0 0 0.2 0"/>
<feBlend mode="normal" in2="BackgroundImageFix" result="effect1_dropShadow_286_5590"/>
<feBlend mode="normal" in="SourceGraphic" in2="effect1_dropShadow_286_5590" result="shape"/>
</filter>
<filter id="filter1_d_286_5590" x="141" y="0" width="85" height="85" filterUnits="userSpaceOnUse" color-interpolation-filters="sRGB">
<feFlood flood-opacity="0" result="BackgroundImageFix"/>
<feColorMatrix in="SourceAlpha" type="matrix" values="0 0 0 0 0 0 0 0 0 0 0 0 0 0 0 0 0 0 127 0" result="hardAlpha"/>
<feOffset dy="4"/>
<feGaussianBlur stdDeviation="10"/>
<feComposite in2="hardAlpha" operator="out"/>
<feColorMatrix type="matrix" values="0 0 0 0 0 0 0 0 0 0 0 0 0 0 0 0 0 0 0.08 0"/>
<feBlend mode="normal" in2="BackgroundImageFix" result="effect1_dropShadow_286_5590"/>
<feBlend mode="normal" in="SourceGraphic" in2="effect1_dropShadow_286_5590" result="shape"/>
</filter>
<linearGradient id="paint0_linear_286_5590" x1="141" y1="90" x2="190" y2="152" gradientUnits="userSpaceOnUse">
<stop stop-color="white"/>
<stop offset="1" stop-color="#F9F9F9"/>
</linearGradient>
</defs>
</svg>
