<svg width="240" height="144" viewBox="0 0 240 144" fill="none" xmlns="http://www.w3.org/2000/svg">
<rect width="240" height="140" fill="#F1F4F6"/>
<g opacity="0.6">
<g filter="url(#filter0_d_286_5640)">
<rect x="13" y="20" width="167.389" height="92" rx="8" fill="#DDDDDD"/>
</g>
<mask id="mask0_286_5640" style="mask-type:alpha" maskUnits="userSpaceOnUse" x="13" y="20" width="168" height="92">
<rect x="13" y="20" width="167.389" height="92" rx="8" fill="#D9D9D9"/>
</mask>
<g mask="url(#mask0_286_5640)">
<rect x="11.1914" y="-32.9812" width="187.184" height="146.617" fill="#E2E8EF"/>
<path fill-rule="evenodd" clip-rule="evenodd" d="M53.252 24.2073L66.9223 2.44775L82.6739 12.6919L68.0122 35.9493L53.252 24.2073Z" fill="#EFF4F8"/>
<path fill-rule="evenodd" clip-rule="evenodd" d="M69.6063 84.1708L81.0752 75.4404L82.3883 78.0616L91.1705 84.1708L88.3089 88.8162L98.8575 95.6042L107.451 83.4425L122.23 90.9959L115.191 101.753L118.264 108.897V109.703H112.239L94.045 107.251L68.0312 85.4669L69.6063 84.1708Z" fill="#EFF4F8"/>
<path fill-rule="evenodd" clip-rule="evenodd" d="M151.844 76.8864L163.046 66.4038L187.504 87.5368L183.575 94.7638L175.018 89.711L151.844 76.8864Z" fill="#CFE8D1"/>
<path fill-rule="evenodd" clip-rule="evenodd" d="M64.3791 86.3457L77.1009 89.2559L74.55 94.4967L72.5659 95.6236L70.74 99.5596V101.102V102.993L58.4475 99.5596L51.6412 101.102L47.9082 98.789L45.1191 95.6236L46.5322 92.4565L64.3791 86.3457Z" fill="#EFF4F8"/>
<path fill-rule="evenodd" clip-rule="evenodd" d="M128.32 42.7208C128.32 42.7208 127.504 43.7155 127.285 44.2788C127.084 44.7974 125.732 44.9491 126.735 45.8604C127.132 46.2212 128.316 45.499 128.823 45.8604C130.985 47.4033 137.57 51.5891 137.57 51.5891L127.774 63.9288L108.758 54.3095C108.758 54.3095 113.136 41.0752 116.575 39.0376C120.015 37 128.32 42.7208 128.32 42.7208Z" fill="#E8EAEB"/>
<path fill-rule="evenodd" clip-rule="evenodd" d="M82.67 9.71887L119.415 34.4959L108.756 51.7246L67.959 36.7501L82.67 9.71887Z" fill="#E8EAEB"/>
<path fill-rule="evenodd" clip-rule="evenodd" d="M53.252 79.0778L61.453 75.0591V52.6267L71.7654 59.0825V64.0737L75.2203 75.7675L66.4728 84.608L53.252 79.0778Z" fill="#EFF4F8"/>
<path fill-rule="evenodd" clip-rule="evenodd" d="M120.119 92.1724L143.842 106.466L155.834 113.631L116.229 113.866L115.012 101.703L120.119 92.1724Z" fill="#CFE8D1"/>
<path fill-rule="evenodd" clip-rule="evenodd" d="M33.5137 -7.34202L25.4512 -13.3161L19.084 -13.9121L32.7022 -3.55469L29.5104 11.3416L49.5909 26.0801L37.8284 41.8491L33.3936 38.0614L21.6447 50.6758V55.6445L33.3936 42.7151L35.7261 44.6676L19.084 66.9783L22.8788 68.0396L38.6355 47.1031L65.3813 69.492L62.941 73.7186L56.7487 70.6191L42.1711 90.625L34.3789 88.0595L21.6447 79.8278V84.3671L33.3936 91.6081L75.7132 106.327L49.9695 112.529L43.4362 125.609L47.5567 134.835H50.7029L46.681 125.609L53.0057 113.537L76.9726 107.725L97.8076 91.6081L167.557 133.898H174.663L160.772 126.245L100.677 89.4304L119.615 75.9729L178.802 109.891L176.536 113.875H180.927L182.01 111.729L195.539 119.482L210.557 126.245V121.94L199.589 117.272L183.746 108.289L187.487 100.877L184.884 99.1994L180.697 106.56L122.77 73.7186L131.484 57.2319L132.619 56.7716L207.614 60.3547L210.557 60.9983V56.7716H202.331V31.2305H210.557V28.611H202.331V-13.9121H199.589V28.611H156.282V13.5789L167.557 -12.9536H164.771L154.146 12.1635V15.4415H132.619V-12.9536H128.809V49.4192V50.6758L95.2552 29.242L100.716 22.9644L97.8747 21.5764L92.6084 27.5513L80.2083 19.6302L84.3941 13.028L81.341 11.5899L77.428 17.8542L74.5323 16.0045L61.7895 14.1749L48.0179 3.46734V-12.9536H45.0595V1.2131L36.3107 -5.26954L38.0633 -13.0838L34.9212 -13.9106L33.5137 -7.34202ZM35.4563 -1.46008L32.9245 9.82781L67.0316 34.4975L75.4988 20.9425L73.2208 19.4753L59.8995 17.1304L35.4563 -1.46008ZM78.252 22.7158L69.8626 35.9482L81.341 40.3348L90.1284 30.365L78.252 22.7158ZM92.7881 32.078L84.3941 41.7272L108.737 51.7263L106.265 53.6987L82.8893 44.2857L73.6975 59.3057L88.7852 69.1976L86.3204 71.5858L55.4825 51.0073L58.7445 49.502L59.1322 49.7562L65.7468 36.9951L53 28.0166L40.7267 44.3245L70.2316 69.5244L65.3813 78.062L58.0412 74.5357L45.9765 91.6081L76.9726 102.984L97.8076 86.4492L117.765 72.8024L127.606 54.503L92.7881 32.078ZM68.4376 38.4662L61.9499 51.6036L71.0546 57.5729L79.6951 42.9994L68.4376 38.4662ZM154.07 18.1533H133.029V49.4851L137.363 54.0198L154.46 54.5833L154.07 18.1533ZM156.295 31.354H199.497V56.7641L156.295 54.5099V31.354Z" fill="#F6F7EF"/>
<path d="M25.4512 -13.3161L25.6001 -13.517L25.544 -13.5585L25.4745 -13.565L25.4512 -13.3161ZM33.5137 -7.34202L33.3649 -7.14115L33.6768 -6.91001L33.7582 -7.28964L33.5137 -7.34202ZM19.084 -13.9121L19.1073 -14.161L18.2366 -14.2425L18.9326 -13.7131L19.084 -13.9121ZM32.7022 -3.55469L32.9466 -3.50231L32.9799 -3.65756L32.8535 -3.75368L32.7022 -3.55469ZM29.5104 11.3416L29.2659 11.2893L29.232 11.4475L29.3624 11.5432L29.5104 11.3416ZM49.5909 26.0801L49.7913 26.2296L49.9419 26.0276L49.7388 25.8785L49.5909 26.0801ZM37.8284 41.8491L37.6661 42.0392L37.8691 42.2126L38.0288 41.9986L37.8284 41.8491ZM33.3936 38.0614L33.556 37.8713L33.3739 37.7157L33.2107 37.891L33.3936 38.0614ZM21.6447 50.6758L21.4617 50.5055L21.3947 50.5775V50.6758H21.6447ZM21.6447 55.6445H21.3947V56.2914L21.8297 55.8127L21.6447 55.6445ZM33.3936 42.7151L33.5541 42.5234L33.37 42.3693L33.2086 42.547L33.3936 42.7151ZM35.7261 44.6676L35.9265 44.8171L36.0678 44.6276L35.8865 44.4759L35.7261 44.6676ZM19.084 66.9783L18.8836 66.8288L18.6657 67.1209L19.0166 67.2191L19.084 66.9783ZM22.8788 68.0396L22.8115 68.2804L22.9759 68.3264L23.0785 68.19L22.8788 68.0396ZM38.6355 47.1031L38.796 46.9114L38.5941 46.7424L38.4358 46.9528L38.6355 47.1031ZM65.3813 69.492L65.5978 69.617L65.7028 69.4351L65.5418 69.3003L65.3813 69.492ZM62.941 73.7186L62.8291 73.9422L63.0398 74.0476L63.1575 73.8436L62.941 73.7186ZM56.7487 70.6191L56.8606 70.3955L56.6713 70.3008L56.5467 70.4718L56.7487 70.6191ZM42.1711 90.625L42.093 90.8625L42.2659 90.9194L42.3732 90.7722L42.1711 90.625ZM34.3789 88.0595L34.2431 88.2695L34.2702 88.287L34.3007 88.297L34.3789 88.0595ZM21.6447 79.8278L21.7804 79.6178L21.3947 79.3685V79.8278H21.6447ZM21.6447 84.3671H21.3947V84.5067L21.5135 84.5799L21.6447 84.3671ZM33.3936 91.6081L33.2624 91.821L33.2857 91.8353L33.3115 91.8443L33.3936 91.6081ZM75.7132 106.327L75.7718 106.57L76.5997 106.371L75.7954 106.091L75.7132 106.327ZM49.9695 112.529L49.9109 112.286L49.7978 112.313L49.7458 112.417L49.9695 112.529ZM43.4362 125.609L43.2126 125.497L43.1597 125.603L43.2079 125.711L43.4362 125.609ZM47.5567 134.835L47.3285 134.936L47.3946 135.085H47.5567V134.835ZM50.7029 134.835V135.085H51.0846L50.9321 134.735L50.7029 134.835ZM46.681 125.609L46.4595 125.493L46.4039 125.599L46.4518 125.709L46.681 125.609ZM53.0057 113.537L52.9467 113.294L52.8367 113.321L52.7842 113.421L53.0057 113.537ZM76.9726 107.725L77.0315 107.968L77.0834 107.955L77.1256 107.922L76.9726 107.725ZM97.8076 91.6081L97.9372 91.3944L97.7904 91.3054L97.6546 91.4104L97.8076 91.6081ZM167.557 133.898L167.427 134.112L167.487 134.148H167.557V133.898ZM174.663 133.898V134.148L174.784 133.679L174.663 133.898ZM160.772 126.245L160.642 126.459L160.652 126.464L160.772 126.245ZM100.677 89.4304L100.532 89.2266L100.223 89.4459L100.546 89.6436L100.677 89.4304ZM119.615 75.9729L119.739 75.756L119.6 75.6765L119.47 75.7691L119.615 75.9729ZM178.802 109.891L179.02 110.014L179.143 109.798L178.927 109.674L178.802 109.891ZM176.536 113.875L176.319 113.752L176.106 114.125H176.536V113.875ZM180.927 113.875V114.125H181.08L181.15 113.988L180.927 113.875ZM182.01 111.729L182.134 111.512L181.906 111.381L181.787 111.616L182.01 111.729ZM195.539 119.482L195.415 119.699L195.426 119.705L195.437 119.71L195.539 119.482ZM210.557 126.245L210.454 126.473L210.807 126.632V126.245H210.557ZM210.557 121.94H210.807V121.775L210.655 121.71L210.557 121.94ZM199.589 117.272L199.466 117.489L199.478 117.496L199.492 117.502L199.589 117.272ZM183.746 108.289L183.523 108.177L183.416 108.389L183.623 108.507L183.746 108.289ZM187.487 100.877L187.711 100.99L187.812 100.789L187.623 100.667L187.487 100.877ZM184.884 99.1994L185.019 98.9892L184.797 98.8461L184.667 99.0758L184.884 99.1994ZM180.697 106.56L180.574 106.778L180.791 106.901L180.914 106.684L180.697 106.56ZM122.77 73.7186L122.549 73.6018L122.435 73.8164L122.646 73.9361L122.77 73.7186ZM131.484 57.2319L131.39 57.0002L131.306 57.0344L131.263 57.115L131.484 57.2319ZM132.619 56.7716L132.631 56.5219L132.576 56.5193L132.525 56.54L132.619 56.7716ZM207.614 60.3547L207.667 60.1104L207.647 60.106L207.626 60.1049L207.614 60.3547ZM210.557 60.9983L210.503 61.2426L210.807 61.3089V60.9983H210.557ZM210.557 56.7716H210.807V56.5216H210.557V56.7716ZM202.331 56.7716H202.081V57.0216H202.331V56.7716ZM202.331 31.2305V30.9805H202.081V31.2305H202.331ZM210.557 31.2305V31.4805H210.807V31.2305H210.557ZM210.557 28.611H210.807V28.361H210.557V28.611ZM202.331 28.611H202.081V28.861H202.331V28.611ZM202.331 -13.9121H202.581V-14.1621H202.331V-13.9121ZM199.589 -13.9121V-14.1621H199.339V-13.9121H199.589ZM199.589 28.611V28.861H199.839V28.611H199.589ZM156.282 28.611H156.032V28.861H156.282V28.611ZM156.282 13.5789L156.052 13.4812L156.032 13.528V13.5789H156.282ZM167.557 -12.9536L167.787 -12.8558L167.935 -13.2036H167.557V-12.9536ZM164.771 -12.9536V-13.2036H164.605L164.541 -13.0509L164.771 -12.9536ZM154.146 12.1635L153.916 12.0661L153.896 12.1128V12.1635H154.146ZM154.146 15.4415V15.6915H154.396V15.4415H154.146ZM132.619 15.4415H132.369V15.6915H132.619V15.4415ZM132.619 -12.9536H132.869V-13.2036H132.619V-12.9536ZM128.809 -12.9536V-13.2036H128.559V-12.9536H128.809ZM128.809 50.6758L128.674 50.8865L129.059 51.1322V50.6758H128.809ZM95.2552 29.242L95.0666 29.078L94.8763 29.2967L95.1206 29.4527L95.2552 29.242ZM100.716 22.9644L100.905 23.1285L101.119 22.8828L100.826 22.7398L100.716 22.9644ZM97.8747 21.5764L97.9844 21.3518L97.8132 21.2681L97.6871 21.4111L97.8747 21.5764ZM92.6084 27.5513L92.4738 27.762L92.6543 27.8773L92.796 27.7166L92.6084 27.5513ZM80.2083 19.6302L79.9971 19.4963L79.8637 19.7068L80.0737 19.8409L80.2083 19.6302ZM84.3941 13.028L84.6052 13.1619L84.757 12.9226L84.5006 12.8018L84.3941 13.028ZM81.341 11.5899L81.4476 11.3638L81.2467 11.2691L81.129 11.4575L81.341 11.5899ZM77.428 17.8542L77.2934 18.0649L77.5062 18.2008L77.64 17.9866L77.428 17.8542ZM74.5323 16.0045L74.6669 15.7938L74.6214 15.7647L74.5679 15.757L74.5323 16.0045ZM61.7895 14.1749L61.636 14.3723L61.6884 14.413L61.754 14.4224L61.7895 14.1749ZM48.0179 3.46734H47.7679V3.58963L47.8645 3.6647L48.0179 3.46734ZM48.0179 -12.9536H48.2679V-13.2036H48.0179V-12.9536ZM45.0595 -12.9536V-13.2036H44.8095V-12.9536H45.0595ZM45.0595 1.2131L44.9107 1.41397L45.3095 1.7095V1.2131H45.0595ZM36.3107 -5.26954L36.0667 -5.32426L36.0311 -5.16552L36.1618 -5.06868L36.3107 -5.26954ZM38.0633 -13.0838L38.3072 -13.0291L38.36 -13.2642L38.1269 -13.3256L38.0633 -13.0838ZM34.9212 -13.9106L34.9848 -14.1524L34.7316 -14.219L34.6767 -13.963L34.9212 -13.9106ZM32.9245 9.82781L32.6806 9.7731L32.6445 9.93383L32.778 10.0304L32.9245 9.82781ZM35.4563 -1.46008L35.6076 -1.65906L35.2976 -1.89486L35.2123 -1.51479L35.4563 -1.46008ZM67.0316 34.4975L66.8851 34.7001L67.1018 34.8569L67.2436 34.6299L67.0316 34.4975ZM75.4988 20.9425L75.7109 21.075L75.8415 20.8659L75.6342 20.7323L75.4988 20.9425ZM73.2208 19.4753L73.3562 19.2652L73.3138 19.2379L73.2642 19.2291L73.2208 19.4753ZM59.8995 17.1304L59.7482 17.3294L59.7964 17.3661L59.8562 17.3766L59.8995 17.1304ZM69.8626 35.9482L69.6515 35.8144L69.4877 36.0726L69.7734 36.1818L69.8626 35.9482ZM78.252 22.7158L78.3874 22.5056L78.1757 22.3693L78.0409 22.5819L78.252 22.7158ZM81.341 40.3348L81.2518 40.5683L81.4139 40.6302L81.5286 40.5001L81.341 40.3348ZM90.1284 30.365L90.316 30.5303L90.5082 30.3122L90.2638 30.1548L90.1284 30.365ZM84.3941 41.7272L84.2055 41.5631L83.9768 41.826L84.2991 41.9584L84.3941 41.7272ZM92.7881 32.078L92.9235 31.8678L92.7415 31.7506L92.5995 31.9139L92.7881 32.078ZM108.737 51.7263L108.892 51.9217L109.225 51.6565L108.832 51.495L108.737 51.7263ZM106.265 53.6987L106.171 53.9306L106.307 53.9851L106.421 53.8941L106.265 53.6987ZM82.8893 44.2857L82.9827 44.0538L82.7865 43.9748L82.6761 44.1552L82.8893 44.2857ZM73.6975 59.3057L73.4843 59.1752L73.3578 59.3819L73.5604 59.5147L73.6975 59.3057ZM88.7852 69.1976L88.9592 69.3771L89.1835 69.1598L88.9223 68.9885L88.7852 69.1976ZM86.3204 71.5858L86.1816 71.7937L86.3494 71.9057L86.4943 71.7653L86.3204 71.5858ZM55.4825 51.0073L55.3777 50.7803L54.9723 50.9674L55.3437 51.2152L55.4825 51.0073ZM58.7445 49.502L58.8815 49.293L58.7656 49.2169L58.6397 49.275L58.7445 49.502ZM59.1322 49.7562L58.9951 49.9653L59.2267 50.1171L59.3541 49.8713L59.1322 49.7562ZM65.7468 36.9951L65.9688 37.1101L66.0692 36.9164L65.8908 36.7907L65.7468 36.9951ZM53 28.0166L53.144 27.8122L52.9459 27.6727L52.8002 27.8663L53 28.0166ZM40.7267 44.3245L40.527 44.1742L40.3856 44.362L40.5644 44.5146L40.7267 44.3245ZM70.2316 69.5244L70.449 69.6479L70.551 69.4684L70.394 69.3343L70.2316 69.5244ZM65.3813 78.062L65.273 78.2873L65.4834 78.3884L65.5987 78.1855L65.3813 78.062ZM58.0412 74.5357L58.1495 74.3103L57.959 74.2188L57.837 74.3914L58.0412 74.5357ZM45.9765 91.6081L45.7723 91.4639L45.5839 91.7304L45.8903 91.8428L45.9765 91.6081ZM76.9726 102.984L76.8865 103.219L77.0182 103.267L77.128 103.18L76.9726 102.984ZM97.8076 86.4492L97.6665 86.2428L97.6591 86.2478L97.6522 86.2533L97.8076 86.4492ZM117.765 72.8024L117.906 73.0088L117.956 72.9744L117.985 72.9208L117.765 72.8024ZM127.606 54.503L127.826 54.6214L127.935 54.4179L127.741 54.2928L127.606 54.503ZM61.9499 51.6036L61.7257 51.4929L61.6277 51.6913L61.8128 51.8127L61.9499 51.6036ZM68.4376 38.4662L68.531 38.2343L68.3161 38.1478L68.2135 38.3555L68.4376 38.4662ZM71.0546 57.5729L70.9175 57.7819L71.1362 57.9254L71.2696 57.7004L71.0546 57.5729ZM79.6951 42.9994L79.9101 43.1269L80.0587 42.8764L79.7885 42.7675L79.6951 42.9994ZM133.029 18.1533V17.9033H132.779V18.1533H133.029ZM154.07 18.1533L154.32 18.1506L154.318 17.9033H154.07V18.1533ZM133.029 49.4851H132.779V49.5853L132.849 49.6578L133.029 49.4851ZM137.363 54.0198L137.182 54.1925L137.253 54.2663L137.355 54.2696L137.363 54.0198ZM154.46 54.5833L154.452 54.8332L154.713 54.8418L154.71 54.5807L154.46 54.5833ZM199.497 31.354H199.747V31.104H199.497V31.354ZM156.295 31.354V31.104H156.045V31.354H156.295ZM199.497 56.7641L199.484 57.0137L199.747 57.0275V56.7641H199.497ZM156.295 54.5099H156.045V54.7472L156.282 54.7595L156.295 54.5099ZM25.3024 -13.1152L33.3649 -7.14115L33.6625 -7.54288L25.6001 -13.517L25.3024 -13.1152ZM19.0607 -13.6632L25.4279 -13.0672L25.4745 -13.565L19.1073 -14.161L19.0607 -13.6632ZM32.8535 -3.75368L19.2353 -14.1111L18.9326 -13.7131L32.5509 -3.35571L32.8535 -3.75368ZM29.7548 11.394L32.9466 -3.50231L32.4577 -3.60707L29.2659 11.2893L29.7548 11.394ZM49.7388 25.8785L29.6583 11.1401L29.3624 11.5432L49.443 26.2816L49.7388 25.8785ZM38.0288 41.9986L49.7913 26.2296L49.3905 25.9306L37.628 41.6996L38.0288 41.9986ZM33.2313 38.2515L37.6661 42.0392L37.9908 41.659L33.556 37.8713L33.2313 38.2515ZM21.8276 50.8462L33.5766 38.2318L33.2107 37.891L21.4617 50.5055L21.8276 50.8462ZM21.8947 55.6445V50.6758H21.3947V55.6445H21.8947ZM33.2086 42.547L21.4596 55.4764L21.8297 55.8127L33.5786 42.8832L33.2086 42.547ZM35.8865 44.4759L33.5541 42.5234L33.2331 42.9068L35.5656 44.8593L35.8865 44.4759ZM19.2844 67.1278L35.9265 44.8171L35.5257 44.5181L18.8836 66.8288L19.2844 67.1278ZM22.9461 67.7989L19.1513 66.7376L19.0166 67.2191L22.8115 68.2804L22.9461 67.7989ZM38.4358 46.9528L22.679 67.8893L23.0785 68.19L38.8353 47.2534L38.4358 46.9528ZM65.5418 69.3003L38.796 46.9114L38.4751 47.2948L65.2208 69.6836L65.5418 69.3003ZM63.1575 73.8436L65.5978 69.617L65.1648 69.367L62.7245 73.5936L63.1575 73.8436ZM56.6368 70.8426L62.8291 73.9422L63.0529 73.4951L56.8606 70.3955L56.6368 70.8426ZM42.3732 90.7722L56.9508 70.7663L56.5467 70.4718L41.9691 90.4778L42.3732 90.7722ZM34.3007 88.297L42.093 90.8625L42.2493 90.3875L34.457 87.8221L34.3007 88.297ZM21.5089 80.0377L34.2431 88.2695L34.5146 87.8496L21.7804 79.6178L21.5089 80.0377ZM21.8947 84.3671V79.8278H21.3947V84.3671H21.8947ZM33.5248 91.3953L21.7758 84.1542L21.5135 84.5799L33.2624 91.821L33.5248 91.3953ZM75.7954 106.091L33.4757 91.372L33.3115 91.8443L75.6311 106.564L75.7954 106.091ZM50.028 112.772L75.7718 106.57L75.6547 106.084L49.9109 112.286L50.028 112.772ZM43.6599 125.721L50.1931 112.64L49.7458 112.417L43.2126 125.497L43.6599 125.721ZM47.785 134.733L43.6645 125.507L43.2079 125.711L47.3285 134.936L47.785 134.733ZM50.7029 134.585H47.5567V135.085H50.7029V134.585ZM46.4518 125.709L50.4738 134.934L50.9321 134.735L46.9102 125.509L46.4518 125.709ZM52.7842 113.421L46.4595 125.493L46.9024 125.725L53.2271 113.653L52.7842 113.421ZM76.9137 107.482L52.9467 113.294L53.0646 113.78L77.0315 107.968L76.9137 107.482ZM97.6546 91.4104L76.8196 107.527L77.1256 107.922L97.9605 91.8059L97.6546 91.4104ZM167.686 133.684L97.9372 91.3944L97.678 91.8219L167.427 134.112L167.686 133.684ZM174.663 133.648H167.557V134.148H174.663V133.648ZM160.652 126.464L174.543 134.117L174.784 133.679L160.893 126.026L160.652 126.464ZM100.546 89.6436L160.642 126.459L160.903 126.032L100.807 89.2172L100.546 89.6436ZM119.47 75.7691L100.532 89.2266L100.822 89.6342L119.76 76.1767L119.47 75.7691ZM178.927 109.674L119.739 75.756L119.49 76.1898L178.678 110.108L178.927 109.674ZM178.585 109.767L176.319 113.752L176.753 113.999L179.02 110.014L178.585 109.767ZM176.536 114.125H180.927V113.625H176.536V114.125ZM181.15 113.988L182.233 111.841L181.787 111.616L180.703 113.763L181.15 113.988ZM195.664 119.265L182.134 111.512L181.886 111.946L195.415 119.699L195.664 119.265ZM210.659 126.017L195.642 119.254L195.437 119.71L210.454 126.473L210.659 126.017ZM210.307 121.94V126.245H210.807V121.94H210.307ZM199.492 117.502L210.459 122.17L210.655 121.71L199.687 117.042L199.492 117.502ZM183.623 108.507L199.466 117.489L199.713 117.054L183.869 108.072L183.623 108.507ZM183.969 108.402L187.711 100.99L187.264 100.764L183.523 108.177L183.969 108.402ZM187.623 100.667L185.019 98.9892L184.749 99.4095L187.352 101.087L187.623 100.667ZM184.667 99.0758L180.48 106.437L180.914 106.684L185.101 99.323L184.667 99.0758ZM122.646 73.9361L180.574 106.778L180.82 106.343L122.893 73.5012L122.646 73.9361ZM131.263 57.115L122.549 73.6018L122.991 73.8355L131.705 57.3487L131.263 57.115ZM132.525 56.54L131.39 57.0002L131.578 57.4635L132.713 57.0033L132.525 56.54ZM207.626 60.1049L132.631 56.5219L132.607 57.0214L207.602 60.6044L207.626 60.1049ZM210.61 60.7541L207.667 60.1104L207.56 60.5989L210.503 61.2426L210.61 60.7541ZM210.307 56.7716V60.9983H210.807V56.7716H210.307ZM202.331 57.0216H210.557V56.5216H202.331V57.0216ZM202.081 31.2305V56.7716H202.581V31.2305H202.081ZM210.557 30.9805H202.331V31.4805H210.557V30.9805ZM210.307 28.611V31.2305H210.807V28.611H210.307ZM202.331 28.861H210.557V28.361H202.331V28.861ZM202.081 -13.9121V28.611H202.581V-13.9121H202.081ZM199.589 -13.6621H202.331V-14.1621H199.589V-13.6621ZM199.839 28.611V-13.9121H199.339V28.611H199.839ZM156.282 28.861H199.589V28.361H156.282V28.861ZM156.032 13.5789V28.611H156.532V13.5789H156.032ZM167.327 -13.0513L156.052 13.4812L156.512 13.6767L167.787 -12.8558L167.327 -13.0513ZM164.771 -12.7036H167.557V-13.2036H164.771V-12.7036ZM154.377 12.2609L165.001 -12.8562L164.541 -13.0509L153.916 12.0661L154.377 12.2609ZM154.396 15.4415V12.1635H153.896V15.4415H154.396ZM132.619 15.6915H154.146V15.1915H132.619V15.6915ZM132.369 -12.9536V15.4415H132.869V-12.9536H132.369ZM128.809 -12.7036H132.619V-13.2036H128.809V-12.7036ZM129.059 49.4192V-12.9536H128.559V49.4192H129.059ZM129.059 50.6758V49.4192H128.559V50.6758H129.059ZM95.1206 29.4527L128.674 50.8865L128.944 50.4652L95.3898 29.0314L95.1206 29.4527ZM100.528 22.8003L95.0666 29.078L95.4438 29.4061L100.905 23.1285L100.528 22.8003ZM97.765 21.801L100.607 23.1891L100.826 22.7398L97.9844 21.3518L97.765 21.801ZM92.796 27.7166L98.0622 21.7417L97.6871 21.4111L92.4209 27.386L92.796 27.7166ZM80.0737 19.8409L92.4738 27.762L92.743 27.3406L80.3429 19.4195L80.0737 19.8409ZM84.183 12.8941L79.9971 19.4963L80.4194 19.7641L84.6052 13.1619L84.183 12.8941ZM81.2345 11.8161L84.2876 13.2542L84.5006 12.8018L81.4476 11.3638L81.2345 11.8161ZM77.64 17.9866L81.5531 11.7224L81.129 11.4575L77.216 17.7217L77.64 17.9866ZM74.3978 16.2152L77.2934 18.0649L77.5626 17.6435L74.6669 15.7938L74.3978 16.2152ZM61.754 14.4224L74.4968 16.2519L74.5679 15.757L61.825 13.9275L61.754 14.4224ZM47.8645 3.6647L61.636 14.3723L61.943 13.9776L48.1714 3.26997L47.8645 3.6647ZM47.7679 -12.9536V3.46734H48.2679V-12.9536H47.7679ZM45.0595 -12.7036H48.0179V-13.2036H45.0595V-12.7036ZM45.3095 1.2131V-12.9536H44.8095V1.2131H45.3095ZM36.1618 -5.06868L44.9107 1.41397L45.2083 1.01224L36.4595 -5.47041L36.1618 -5.06868ZM37.8194 -13.1385L36.0667 -5.32426L36.5546 -5.21483L38.3072 -13.0291L37.8194 -13.1385ZM34.8575 -13.6689L37.9997 -12.842L38.1269 -13.3256L34.9848 -14.1524L34.8575 -13.6689ZM33.7582 -7.28964L35.1656 -13.8583L34.6767 -13.963L33.2693 -7.39439L33.7582 -7.28964ZM33.1685 9.88252L35.7002 -1.40536L35.2123 -1.51479L32.6806 9.7731L33.1685 9.88252ZM67.1781 34.2949L33.0711 9.62524L32.778 10.0304L66.8851 34.7001L67.1781 34.2949ZM75.2868 20.8101L66.8195 34.3651L67.2436 34.6299L75.7109 21.075L75.2868 20.8101ZM73.0855 19.6855L75.3635 21.1527L75.6342 20.7323L73.3562 19.2652L73.0855 19.6855ZM59.8562 17.3766L73.1775 19.7216L73.2642 19.2291L59.9428 16.8842L59.8562 17.3766ZM35.3049 -1.26109L59.7482 17.3294L60.0508 16.9314L35.6076 -1.65906L35.3049 -1.26109ZM70.0737 36.0821L78.4632 22.8496L78.0409 22.5819L69.6515 35.8144L70.0737 36.0821ZM81.4303 40.1012L69.9518 35.7147L69.7734 36.1818L81.2518 40.5683L81.4303 40.1012ZM89.9409 30.1997L81.1535 40.1695L81.5286 40.5001L90.316 30.5303L89.9409 30.1997ZM78.1167 22.9259L89.993 30.5752L90.2638 30.1548L78.3874 22.5056L78.1167 22.9259ZM84.5827 41.8912L92.9767 32.2421L92.5995 31.9139L84.2055 41.5631L84.5827 41.8912ZM108.832 51.495L84.4891 41.4959L84.2991 41.9584L108.642 51.9575L108.832 51.495ZM106.421 53.8941L108.892 51.9217L108.581 51.5309L106.109 53.5033L106.421 53.8941ZM82.7959 44.5176L106.171 53.9306L106.358 53.4668L82.9827 44.0538L82.7959 44.5176ZM73.9108 59.4362L83.1025 44.4162L82.6761 44.1552L73.4843 59.1752L73.9108 59.4362ZM88.9223 68.9885L73.8346 59.0966L73.5604 59.5147L88.6482 69.4066L88.9223 68.9885ZM86.4943 71.7653L88.9592 69.3771L88.6113 69.018L86.1464 71.4062L86.4943 71.7653ZM55.3437 51.2152L86.1816 71.7937L86.4591 71.3778L55.6212 50.7993L55.3437 51.2152ZM58.6397 49.275L55.3777 50.7803L55.5872 51.2343L58.8492 49.729L58.6397 49.275ZM59.2692 49.5471L58.8815 49.293L58.6074 49.7111L58.9951 49.9653L59.2692 49.5471ZM65.5249 36.88L58.9102 49.6412L59.3541 49.8713L65.9688 37.1101L65.5249 36.88ZM52.856 28.221L65.6029 37.1995L65.8908 36.7907L53.144 27.8122L52.856 28.221ZM40.9265 44.4748L53.1997 28.1669L52.8002 27.8663L40.527 44.1742L40.9265 44.4748ZM70.394 69.3343L40.8891 44.1344L40.5644 44.5146L70.0693 69.7145L70.394 69.3343ZM65.5987 78.1855L70.449 69.6479L70.0143 69.4009L65.1639 77.9385L65.5987 78.1855ZM57.9329 74.761L65.273 78.2873L65.4896 77.8366L58.1495 74.3103L57.9329 74.761ZM46.1806 91.7524L58.2454 74.68L57.837 74.3914L45.7723 91.4639L46.1806 91.7524ZM77.0587 102.749L46.0626 91.3734L45.8903 91.8428L76.8865 103.219L77.0587 102.749ZM97.6522 86.2533L76.8172 102.788L77.128 103.18L97.963 86.645L97.6522 86.2533ZM117.624 72.596L97.6665 86.2428L97.9487 86.6555L117.906 73.0088L117.624 72.596ZM127.386 54.3845L117.545 72.684L117.985 72.9208L127.826 54.6214L127.386 54.3845ZM92.6527 32.2882L127.47 54.7131L127.741 54.2928L92.9235 31.8678L92.6527 32.2882ZM62.174 51.7143L68.6618 38.5769L68.2135 38.3555L61.7257 51.4929L62.174 51.7143ZM71.1916 57.3638L62.087 51.3945L61.8128 51.8127L70.9175 57.7819L71.1916 57.3638ZM79.48 42.8719L70.8395 57.4454L71.2696 57.7004L79.9101 43.1269L79.48 42.8719ZM68.3443 38.6981L79.6017 43.2313L79.7885 42.7675L68.531 38.2343L68.3443 38.6981ZM133.029 18.4033H154.07V17.9033H133.029V18.4033ZM133.279 49.4851V18.1533H132.779V49.4851H133.279ZM137.544 53.8471L133.21 49.3124L132.849 49.6578L137.182 54.1925L137.544 53.8471ZM154.468 54.3335L137.371 53.7699L137.355 54.2696L154.452 54.8332L154.468 54.3335ZM153.82 18.156L154.21 54.586L154.71 54.5807L154.32 18.1506L153.82 18.156ZM199.497 31.104H156.295V31.604H199.497V31.104ZM199.747 56.7641V31.354H199.247V56.7641H199.747ZM156.282 54.7595L199.484 57.0137L199.51 56.5144L156.308 54.2602L156.282 54.7595ZM156.045 31.354V54.5099H156.545V31.354H156.045Z" fill="#DCE3E7"/>
<path fill-rule="evenodd" clip-rule="evenodd" d="M38.277 95.2657L68.0263 88.728L68.0358 88.6919L71.8682 90.8673L91.7285 107.834L112.307 110.48L183.753 101.195L199.073 73.4233V66.9723L181.9 97.6502L112.307 107.373L92.6351 104.26L75.3557 89.006L68.8926 85.4679L68.885 85.4735L68.8861 85.4696L37.2976 92.1803L14.344 105.141L23.9924 68.6221L8.53711 58.4608V63.6488L19.0941 70.2437L8.53711 112.133L38.277 95.2657Z" fill="#F7F5D8"/>
<path d="M68.0263 88.728L68.0799 88.9722L68.229 88.9395L68.268 88.7918L68.0263 88.728ZM38.277 95.2657L38.2233 95.0216L38.1865 95.0297L38.1537 95.0483L38.277 95.2657ZM68.0358 88.6919L68.1592 88.4745L67.8769 88.3143L67.7941 88.6281L68.0358 88.6919ZM71.8682 90.8673L72.0306 90.6772L72.0124 90.6616L71.9916 90.6498L71.8682 90.8673ZM91.7285 107.834L91.5661 108.024L91.6227 108.072L91.6966 108.082L91.7285 107.834ZM112.307 110.48L112.276 110.728L112.308 110.732L112.34 110.728L112.307 110.48ZM183.753 101.195L183.785 101.443L183.911 101.426L183.972 101.315L183.753 101.195ZM199.073 73.4233L199.292 73.544L199.323 73.4877V73.4233H199.073ZM199.073 66.9723H199.323V66.0138L198.855 66.8501L199.073 66.9723ZM181.9 97.6502L181.935 97.8978L182.058 97.8806L182.119 97.7723L181.9 97.6502ZM112.307 107.373L112.268 107.62L112.305 107.626L112.342 107.62L112.307 107.373ZM92.6351 104.26L92.4697 104.448L92.5242 104.496L92.5961 104.507L92.6351 104.26ZM75.3557 89.006L75.5212 88.8186L75.5002 88.8001L75.4758 88.7867L75.3557 89.006ZM68.8926 85.4679L69.0127 85.2486L68.872 85.1716L68.7433 85.2674L68.8926 85.4679ZM68.885 85.4735L68.6433 85.4098L68.4611 86.1008L69.0343 85.6741L68.885 85.4735ZM68.8861 85.4696L69.1278 85.5333L69.2313 85.1407L68.8341 85.2251L68.8861 85.4696ZM37.2976 92.1803L37.2456 91.9357L37.2081 91.9437L37.1746 91.9626L37.2976 92.1803ZM14.344 105.141L14.1023 105.078L13.9509 105.65L14.4669 105.359L14.344 105.141ZM23.9924 68.6221L24.2341 68.6859L24.2801 68.512L24.1298 68.4132L23.9924 68.6221ZM8.53711 58.4608L8.67445 58.2519L8.28711 57.9973V58.4608H8.53711ZM8.53711 63.6488H8.28711V63.7874L8.40466 63.8608L8.53711 63.6488ZM19.0941 70.2437L19.3366 70.3048L19.3811 70.1281L19.2266 70.0316L19.0941 70.2437ZM8.53711 112.133L8.29469 112.072L8.15178 112.639L8.66045 112.351L8.53711 112.133ZM67.9726 88.4839L38.2233 95.0216L38.3307 95.5099L68.0799 88.9722L67.9726 88.4839ZM67.7941 88.6281L67.7845 88.6643L68.268 88.7918L68.2775 88.7557L67.7941 88.6281ZM71.9916 90.6498L68.1592 88.4745L67.9124 88.9093L71.7448 91.0847L71.9916 90.6498ZM91.8909 107.644L72.0306 90.6772L71.7058 91.0573L91.5661 108.024L91.8909 107.644ZM112.339 110.232L91.7604 107.586L91.6966 108.082L112.276 110.728L112.339 110.232ZM183.721 100.947L112.275 110.233L112.34 110.728L183.785 101.443L183.721 100.947ZM198.854 73.3025L183.534 101.074L183.972 101.315L199.292 73.544L198.854 73.3025ZM198.823 66.9723V73.4233H199.323V66.9723H198.823ZM182.119 97.7723L199.291 67.0944L198.855 66.8501L181.682 97.5281L182.119 97.7723ZM112.342 107.62L181.935 97.8978L181.866 97.4026L112.273 107.125L112.342 107.62ZM92.5961 104.507L112.268 107.62L112.347 107.126L92.6742 104.013L92.5961 104.507ZM75.1903 89.1934L92.4697 104.448L92.8006 104.073L75.5212 88.8186L75.1903 89.1934ZM68.7726 85.6872L75.2357 89.2253L75.4758 88.7867L69.0127 85.2486L68.7726 85.6872ZM69.0343 85.6741L69.0419 85.6684L68.7433 85.2674L68.7357 85.273L69.0343 85.6741ZM68.6443 85.4059L68.6433 85.4098L69.1268 85.5373L69.1278 85.5333L68.6443 85.4059ZM37.3495 92.4248L68.938 85.7141L68.8341 85.2251L37.2456 91.9357L37.3495 92.4248ZM14.4669 105.359L37.4205 92.398L37.1746 91.9626L14.2211 104.924L14.4669 105.359ZM23.7507 68.5582L14.1023 105.078L14.5857 105.205L24.2341 68.6859L23.7507 68.5582ZM8.39977 58.6697L23.8551 68.831L24.1298 68.4132L8.67445 58.2519L8.39977 58.6697ZM8.78711 63.6488V58.4608H8.28711V63.6488H8.78711ZM19.2266 70.0316L8.66956 63.4367L8.40466 63.8608L18.9617 70.4557L19.2266 70.0316ZM8.77953 112.194L19.3366 70.3048L18.8517 70.1826L8.29469 112.072L8.77953 112.194ZM38.1537 95.0483L8.41377 111.916L8.66045 112.351L38.4003 95.4832L38.1537 95.0483Z" fill="#EDE4C5"/>
<path fill-rule="evenodd" clip-rule="evenodd" d="M165.557 84.2791L169.642 77.6564L178.755 82.9288L174.242 89.196L165.557 84.2791Z" fill="#E8EAEB"/>
</g>
<path d="M41.7695 38.8398L99.3344 68.4151C99.4412 68.47 99.5642 68.4846 99.6809 68.4563L152.665 55.5787" stroke="#406588" stroke-width="1.5" stroke-linecap="round"/>
<path fill-rule="evenodd" clip-rule="evenodd" d="M41.6744 28C35.6672 28 30.7793 32.6454 30.7793 38.3558C30.7793 41.1353 31.9242 43.746 33.9989 45.7029L41.2872 52.7001C41.3893 52.7987 41.5287 52.8539 41.6744 52.8539C41.8202 52.8539 41.9596 52.7988 42.0617 52.7001L49.3468 45.7064C51.4248 43.746 52.5696 41.1353 52.5696 38.3558C52.5696 32.6454 47.6817 28 41.6744 28ZM41.6744 42.2023C39.1707 42.2023 37.1348 40.2113 37.1348 37.7641C37.1348 35.3169 39.1707 33.3259 41.6744 33.3259C44.1781 33.3259 46.2141 35.3169 46.2141 37.7641C46.2141 40.2113 44.1781 42.2023 41.6744 42.2023Z" fill="#406588"/>
<circle cx="41.6777" cy="38.8486" r="8.39253" fill="white" stroke="#406588"/>
<path d="M42.9085 35.1558H41.2486L39.5605 36.1895V37.7354L41.0695 36.825H41.1072V42.0222H42.9085V35.1558Z" fill="#406588"/>
<path fill-rule="evenodd" clip-rule="evenodd" d="M98.8951 58C92.8879 58 88 62.6454 88 68.3558C88 71.1353 89.1449 73.746 91.2196 75.7029L98.5079 82.7001C98.61 82.7987 98.7494 82.8539 98.8951 82.8539C99.0409 82.8539 99.1803 82.7988 99.2824 82.7001L106.567 75.7064C108.645 73.746 109.79 71.1353 109.79 68.3558C109.79 62.6454 104.902 58 98.8951 58ZM98.8951 72.2023C96.3914 72.2023 94.3555 70.2113 94.3555 67.7641C94.3555 65.3169 96.3914 63.3259 98.8951 63.3259C101.399 63.3259 103.435 65.3169 103.435 67.7641C103.435 70.2113 101.399 72.2023 98.8951 72.2023Z" fill="#4DC9AA"/>
<circle cx="98.9824" cy="68.4906" r="8.39253" fill="white" stroke="#4DC9AA"/>
<path d="M96.4957 71.6381H101.692V70.187H98.9948V70.1491L99.6832 69.5516C101.225 68.2475 101.617 67.5789 101.617 66.7822C101.617 65.5161 100.584 64.6768 98.9665 64.6768C97.3963 64.6768 96.3683 65.5588 96.3731 66.9909H98.08C98.0753 66.4076 98.4384 66.0709 98.9665 66.0709C99.4899 66.0709 99.8671 66.3981 99.8719 66.934C99.8671 67.4319 99.5512 67.7543 99.0325 68.1954L96.4957 70.3388V71.6381Z" fill="#4DC9AA"/>
<path fill-rule="evenodd" clip-rule="evenodd" d="M152.581 44.0649C146.573 44.0649 141.686 48.7104 141.686 54.4207C141.686 57.2003 142.83 59.811 144.905 61.7678L152.193 68.7651C152.296 68.8637 152.435 68.9188 152.581 68.9188C152.726 68.9188 152.866 68.8637 152.968 68.7651L160.253 61.7714C162.331 59.811 163.476 57.2003 163.476 54.4207C163.476 48.7104 158.588 44.0649 152.581 44.0649ZM152.581 58.2673C150.077 58.2673 148.041 56.2763 148.041 53.8291C148.041 51.3819 150.077 49.3909 152.581 49.3909C155.084 49.3909 157.12 51.3819 157.12 53.829C157.12 56.2762 155.084 58.2673 152.581 58.2673Z" fill="#3299FE"/>
<circle cx="152.584" cy="54.6054" r="8.39253" fill="white" stroke="#3299FE"/>
<path d="M152.492 58.0392C154.147 58.0392 155.317 57.1856 155.312 55.9812C155.317 55.1371 154.755 54.5396 153.671 54.4163V54.3594C154.477 54.2693 155.062 53.7429 155.057 52.9747C155.062 51.8271 154.01 50.983 152.511 50.983C150.978 50.983 149.884 51.8603 149.88 53.1075H151.596C151.606 52.6807 151.988 52.3772 152.511 52.3772C152.992 52.3772 153.327 52.6712 153.322 53.0885C153.327 53.52 152.931 53.8283 152.36 53.8283H151.672V55.0802H152.36C152.987 55.0849 153.416 55.3931 153.416 55.8294C153.416 56.2704 153.044 56.5786 152.501 56.5786C151.955 56.5786 151.563 56.2846 151.549 55.8768H149.738C149.752 57.143 150.894 58.0392 152.492 58.0392Z" fill="#3299FE"/>
</g>
<g filter="url(#filter1_d_286_5640)">
<rect x="141" y="8" width="85" height="124" rx="8" fill="url(#paint0_linear_286_5640)"/>
</g>
<path fill-rule="evenodd" clip-rule="evenodd" d="M156 22C156.276 22 156.5 22.2239 156.5 22.5V104.5C156.5 104.776 156.276 105 156 105C155.724 105 155.5 104.776 155.5 104.5V22.5C155.5 22.2239 155.724 22 156 22Z" fill="#EAEAEA"/>
<g filter="url(#filter2_d_286_5640)">
<rect x="88" y="88" width="46" height="44" rx="8" fill="white"/>
</g>
<circle cx="111" cy="110" r="16" stroke="#EAF5FF" stroke-width="4"/>
<path d="M111 94C114.164 94 117.258 94.9384 119.889 96.6965C122.52 98.4546 124.571 100.953 125.782 103.877C126.993 106.801 127.31 110.018 126.693 113.121C126.075 116.225 124.551 119.076 122.314 121.314C120.076 123.551 117.225 125.075 114.121 125.693C111.018 126.31 107.801 125.993 104.877 124.782C101.953 123.571 99.4546 121.52 97.6965 118.889C95.9384 116.258 95 113.165 95 110" stroke="#3299FE" stroke-width="4" stroke-linecap="round"/>
<path d="M105.161 113.088C106.647 113.088 107.728 112.314 107.728 111.277C107.728 110.486 107.086 109.845 106.295 109.722V109.678C106.985 109.546 107.49 108.975 107.49 108.271C107.49 107.278 106.501 106.549 105.161 106.549C103.812 106.549 102.823 107.274 102.823 108.271C102.823 108.97 103.315 109.546 104.019 109.678V109.722C103.214 109.845 102.582 110.486 102.586 111.277C102.582 112.314 103.663 113.088 105.161 113.088ZM104.159 111.119C104.155 110.614 104.577 110.249 105.161 110.249C105.732 110.249 106.154 110.618 106.154 111.119C106.154 111.62 105.75 111.976 105.161 111.98C104.563 111.976 104.155 111.62 104.159 111.119ZM104.291 108.43C104.287 107.977 104.647 107.656 105.161 107.656C105.667 107.656 106.027 107.977 106.022 108.43C106.027 108.891 105.662 109.221 105.161 109.221C104.651 109.221 104.287 108.891 104.291 108.43Z" fill="#333333"/>
<path d="M111.006 113.088C112.487 113.088 113.476 112.156 113.476 110.847C113.476 109.634 112.619 108.768 111.463 108.772C110.87 108.768 110.369 109.023 110.153 109.37H110.109L110.259 107.85H113.098V106.637H109.028L108.712 110.363H110.057C110.228 110.025 110.536 109.845 110.988 109.845C111.599 109.845 112.03 110.271 112.025 110.891C112.03 111.51 111.604 111.932 111.006 111.928C110.487 111.932 110.07 111.616 110.048 111.146H108.589C108.611 112.279 109.613 113.088 111.006 113.088Z" fill="#333333"/>
<path d="M115.588 110.58C116.357 110.583 116.781 110.033 116.784 109.22C116.781 108.41 116.367 107.849 115.588 107.853C114.839 107.849 114.402 108.41 114.405 109.22C114.402 110.023 114.819 110.583 115.588 110.58ZM115.171 109.22C115.168 108.813 115.311 108.522 115.588 108.522C115.885 108.519 116.015 108.806 116.019 109.22C116.015 109.637 115.875 109.91 115.588 109.91C115.321 109.91 115.168 109.637 115.171 109.22ZM115.185 113H116.019L119.423 108.051H118.589L115.185 113ZM117.857 111.831C117.854 112.634 118.271 113.195 119.04 113.198C119.806 113.195 120.23 112.645 120.23 111.831C120.23 111.021 119.816 110.46 119.04 110.464C118.288 110.46 117.854 111.021 117.857 111.831ZM118.616 111.831C118.62 111.424 118.763 111.134 119.04 111.134C119.337 111.13 119.467 111.417 119.471 111.831C119.467 112.248 119.324 112.521 119.04 112.521C118.77 112.521 118.62 112.248 118.616 111.831Z" fill="#333333"/>
<rect x="184" y="62" width="31" height="4" rx="1" fill="#EAF5FF"/>
<rect x="184" y="102" width="31" height="4" rx="1" fill="#EAF5FF"/>
<rect x="184" y="75" width="24" height="4" rx="1" fill="#F4F4F4"/>
<rect x="184" y="115" width="24" height="4" rx="1" fill="#F4F4F4"/>
<circle cx="156" cy="64" r="4" fill="#D8F2EB"/>
<circle cx="174" cy="77" r="5" fill="#F4F4F4"/>
<circle cx="174" cy="117" r="5" fill="#F4F4F4"/>
<circle cx="156" cy="104" r="4" fill="#84C2FC"/>
<rect x="184" y="19" width="31" height="6" rx="1" fill="#D6E9FB"/>
<rect x="184" y="35" width="24" height="6" rx="1" fill="#EAEAEA"/>
<path fill-rule="evenodd" clip-rule="evenodd" d="M170 18.4C170 17.2955 170.895 16.4 172 16.4H176C177.105 16.4 178 17.2955 178 18.4V25.6C178 26.7046 177.105 27.6 176 27.6H172C170.895 27.6 170 26.7046 170 25.6V18.4ZM171.6 18.8H173.2V20.4H171.6V18.8ZM171.6 21.2H173.2V22.8H171.6V21.2ZM175.6 18.8H174V20.4H175.6V18.8Z" fill="#3299FE"/>
<path fill-rule="evenodd" clip-rule="evenodd" d="M174 43.6C177.093 43.6 179.6 41.0928 179.6 38C179.6 34.9072 177.093 32.4 174 32.4C170.908 32.4 168.4 34.9072 168.4 38C168.4 41.0928 170.908 43.6 174 43.6ZM174.6 38.6973V35.6H173.4V38.2616L171.939 40.0159L172.861 40.7841L174.6 38.6973Z" fill="#333333"/>
<circle cx="156" cy="22" r="5.5" fill="#406588" stroke="#406588"/>
<path d="M156.881 19.7998H155.85L154.801 20.4421V21.4026L155.738 20.8369H155.762V24.066H156.881V19.7998Z" fill="white"/>
<rect x="169" y="59" width="10" height="10" rx="2" fill="#EAF5FF"/>
<rect x="169" y="99" width="10" height="10" rx="2" fill="#EAF5FF"/>
<defs>
<filter id="filter0_d_286_5640" x="9" y="20" width="175.389" height="104" filterUnits="userSpaceOnUse" color-interpolation-filters="sRGB">
<feFlood flood-opacity="0" result="BackgroundImageFix"/>
<feColorMatrix in="SourceAlpha" type="matrix" values="0 0 0 0 0 0 0 0 0 0 0 0 0 0 0 0 0 0 127 0" result="hardAlpha"/>
<feMorphology radius="12" operator="erode" in="SourceAlpha" result="effect1_dropShadow_286_5640"/>
<feOffset dy="8"/>
<feGaussianBlur stdDeviation="8"/>
<feComposite in2="hardAlpha" operator="out"/>
<feColorMatrix type="matrix" values="0 0 0 0 0 0 0 0 0 0 0 0 0 0 0 0 0 0 0.16 0"/>
<feBlend mode="normal" in2="BackgroundImageFix" result="effect1_dropShadow_286_5640"/>
<feBlend mode="normal" in="SourceGraphic" in2="effect1_dropShadow_286_5640" result="shape"/>
</filter>
<filter id="filter1_d_286_5640" x="137" y="8" width="93" height="136" filterUnits="userSpaceOnUse" color-interpolation-filters="sRGB">
<feFlood flood-opacity="0" result="BackgroundImageFix"/>
<feColorMatrix in="SourceAlpha" type="matrix" values="0 0 0 0 0 0 0 0 0 0 0 0 0 0 0 0 0 0 127 0" result="hardAlpha"/>
<feMorphology radius="12" operator="erode" in="SourceAlpha" result="effect1_dropShadow_286_5640"/>
<feOffset dy="8"/>
<feGaussianBlur stdDeviation="8"/>
<feComposite in2="hardAlpha" operator="out"/>
<feColorMatrix type="matrix" values="0 0 0 0 0 0 0 0 0 0 0 0 0 0 0 0 0 0 0.16 0"/>
<feBlend mode="normal" in2="BackgroundImageFix" result="effect1_dropShadow_286_5640"/>
<feBlend mode="normal" in="SourceGraphic" in2="effect1_dropShadow_286_5640" result="shape"/>
</filter>
<filter id="filter2_d_286_5640" x="84" y="88" width="54" height="56" filterUnits="userSpaceOnUse" color-interpolation-filters="sRGB">
<feFlood flood-opacity="0" result="BackgroundImageFix"/>
<feColorMatrix in="SourceAlpha" type="matrix" values="0 0 0 0 0 0 0 0 0 0 0 0 0 0 0 0 0 0 127 0" result="hardAlpha"/>
<feMorphology radius="12" operator="erode" in="SourceAlpha" result="effect1_dropShadow_286_5640"/>
<feOffset dy="8"/>
<feGaussianBlur stdDeviation="8"/>
<feComposite in2="hardAlpha" operator="out"/>
<feColorMatrix type="matrix" values="0 0 0 0 0 0 0 0 0 0 0 0 0 0 0 0 0 0 0.16 0"/>
<feBlend mode="normal" in2="BackgroundImageFix" result="effect1_dropShadow_286_5640"/>
<feBlend mode="normal" in="SourceGraphic" in2="effect1_dropShadow_286_5640" result="shape"/>
</filter>
<linearGradient id="paint0_linear_286_5640" x1="141" y1="8" x2="361.716" y2="254.784" gradientUnits="userSpaceOnUse">
<stop stop-color="white"/>
<stop offset="1" stop-color="#F9F9F9"/>
</linearGradient>
</defs>
</svg>
