<svg width="30" height="30" viewBox="0 0 30 30" fill="none" xmlns="http://www.w3.org/2000/svg">
<circle cx="15" cy="15" r="11" stroke="#333333" stroke-width="2"/>
<path fill-rule="evenodd" clip-rule="evenodd" d="M16.2656 17.1662V18.1084H14.067V16.7412C14.067 15.6605 14.441 15.3428 15.3911 14.5361C15.4968 14.4463 15.6096 14.3505 15.7298 14.247C16.4134 13.6558 16.7829 13.3047 16.7829 12.4364C16.7829 11.568 15.9885 10.8474 15.0647 10.8474C13.4758 10.8474 12.8845 12.6211 12.8845 12.6211L11 11.7528C11 11.7528 11.8868 8.74121 15.0647 8.74121C17.2818 8.74121 19 10.3856 19 12.4364C19 14.0622 18.1501 14.8382 16.9492 15.8913C16.3025 16.4641 16.2656 16.501 16.2656 17.1662ZM16.6351 20.6581C16.6351 21.471 15.9884 22.1176 15.1755 22.1176C14.3626 22.1176 13.7159 21.471 13.7159 20.6581C13.7159 19.8451 14.3626 19.1985 15.1755 19.1985C15.9884 19.1985 16.6351 19.8451 16.6351 20.6581Z" fill="#333333"/>
</svg>
